<svg xmlns="http://www.w3.org/2000/svg" xmlns:xlink="http://www.w3.org/1999/xlink" width="1080" zoomAndPan="magnify" viewBox="0 0 810 809.999993" height="1080" preserveAspectRatio="xMidYMid meet" version="1.0"><defs><clipPath id="b9d1500e27"><path d="M 35.945312 0 L 773.945312 0 L 773.945312 810 L 35.945312 810 Z M 35.945312 0 " clip-rule="nonzero"/></clipPath></defs><rect x="-81" width="972" fill="#ffffff" y="-80.999999" height="971.999992" fill-opacity="1"/><rect x="-81" width="972" fill="#ffffff" y="-80.999999" height="971.999992" fill-opacity="1"/><g clip-path="url(#b9d1500e27)"><path fill="#3c3738" d="M 397.933594 809.167969 C 397.753906 808.988281 394.398438 808.796875 390.472656 808.742188 C 384.652344 808.648438 383.03125 808.476562 381.683594 807.765625 C 379.945312 806.847656 372.546875 806.382812 370.078125 807.039062 C 367.808594 807.640625 345.53125 806.566406 342.769531 805.722656 C 340.824219 805.128906 339.492188 805.039062 336.992188 805.339844 C 332.984375 805.824219 332.066406 805.832031 326.039062 805.417969 C 318.726562 804.910156 311.257812 804.0625 310.035156 803.59375 C 309.429688 803.367188 307.953125 803.3125 306.746094 803.472656 C 305.515625 803.640625 303.441406 803.503906 302.019531 803.167969 C 300.082031 802.703125 298.890625 802.683594 296.984375 803.089844 C 294.796875 803.558594 293.921875 803.476562 289.882812 802.429688 C 287.347656 801.769531 284.15625 801.253906 282.789062 801.28125 C 279.488281 801.339844 273.242188 800.449219 269.421875 799.363281 C 266.902344 798.648438 265.609375 798.5625 262.34375 798.886719 C 259.140625 799.199219 257.945312 799.125 256.324219 798.515625 C 254.960938 798 252.152344 797.691406 247.691406 797.5625 C 242.140625 797.40625 240.582031 797.183594 237.929688 796.1875 C 235.496094 795.269531 234.496094 795.105469 233.554688 795.464844 C 231.304688 796.320312 228.78125 795.984375 225.84375 794.4375 C 223.058594 792.96875 222.867188 792.9375 215.300781 792.804688 C 209.910156 792.714844 207.019531 792.449219 205.671875 791.941406 C 202.597656 790.789062 201.003906 790.269531 198.691406 789.671875 C 197.5 789.367188 195.007812 788.703125 193.15625 788.203125 C 188.894531 787.046875 184.742188 786.398438 176.542969 785.609375 C 172.96875 785.261719 169.433594 784.738281 168.6875 784.4375 C 167.941406 784.136719 166.734375 783.894531 166.003906 783.894531 C 165.273438 783.894531 163.164062 783.367188 161.320312 782.722656 C 159.472656 782.078125 156.457031 781.289062 154.613281 780.96875 C 152.773438 780.652344 149.75 779.789062 147.894531 779.054688 C 146.042969 778.320312 142.792969 777.472656 140.675781 777.167969 C 138.554688 776.863281 135.304688 776.179688 133.453125 775.648438 C 123.351562 772.75 118.867188 771.246094 117.640625 770.351562 C 116.886719 769.804688 115.152344 769.199219 113.785156 769.007812 C 112.421875 768.816406 110.4375 768.210938 109.378906 767.664062 C 108.316406 767.117188 106.097656 766.328125 104.441406 765.902344 C 102.785156 765.480469 100.941406 764.832031 100.347656 764.457031 C 99.753906 764.082031 98.1875 763.625 96.871094 763.4375 C 95.554688 763.25 93.667969 762.683594 92.675781 762.183594 C 91.6875 761.675781 90.585938 761.265625 90.226562 761.265625 C 89.871094 761.265625 88.074219 760.355469 86.238281 759.246094 C 84.398438 758.136719 81.164062 756.496094 79.046875 755.605469 C 76.925781 754.710938 74.652344 753.472656 73.988281 752.851562 C 73.328125 752.234375 71.980469 751.507812 70.992188 751.242188 C 70.007812 750.976562 67.949219 749.785156 66.417969 748.597656 C 64.890625 747.410156 62.535156 745.886719 61.1875 745.214844 C 58.867188 744.058594 55.695312 741.078125 55.695312 740.058594 C 55.695312 739.796875 54.480469 738.808594 52.996094 737.859375 C 48.898438 735.238281 46.6875 733.027344 44.804688 729.660156 C 43.785156 727.832031 42.035156 725.695312 40.453125 724.347656 C 37.417969 721.753906 35.925781 719.191406 35.945312 716.605469 C 36.050781 702.335938 36.214844 699.824219 37.289062 696.710938 C 37.996094 694.667969 38.976562 692.96875 40.058594 691.921875 C 42.0625 689.972656 42.109375 689.558594 40.464844 688.042969 C 38.667969 686.386719 38.015625 684.550781 37.625 680.0625 C 37.335938 676.761719 37.457031 675.46875 38.394531 671.925781 C 39.558594 667.515625 40.765625 665.585938 43.261719 664.132812 C 44.882812 663.1875 47.140625 659.152344 48.03125 655.609375 C 48.71875 652.882812 50.621094 650.867188 53.394531 649.921875 C 56.417969 648.890625 60.300781 646.261719 64.375 642.480469 C 69.363281 637.851562 73.148438 635.617188 76.605469 635.261719 C 78.347656 635.078125 79.914062 634.574219 80.882812 633.871094 C 83.5 631.980469 91.445312 628.09375 93.96875 627.46875 C 95.324219 627.132812 97.011719 626.269531 97.820312 625.503906 C 99.460938 623.957031 106.117188 621.15625 108.15625 621.15625 C 108.898438 621.15625 110.960938 620.476562 112.738281 619.644531 C 115.644531 618.285156 116.269531 618.164062 119.054688 618.421875 C 121.984375 618.695312 122.386719 618.597656 126.773438 616.5625 C 131.796875 614.230469 132.351562 614.140625 136.792969 614.960938 C 139.753906 615.503906 139.792969 615.496094 144.3125 613.476562 C 146.8125 612.359375 150.003906 610.894531 151.402344 610.21875 C 153.539062 609.183594 154.359375 609.035156 156.515625 609.289062 C 158.703125 609.546875 159.285156 609.441406 160.417969 608.546875 C 162.125 607.203125 166.074219 606.828125 168.375 607.789062 C 169.734375 608.359375 170.367188 608.382812 171.730469 607.910156 C 172.65625 607.59375 174.820312 607.179688 176.542969 606.996094 C 178.527344 606.78125 180.679688 606.136719 182.421875 605.238281 C 184.597656 604.113281 185.792969 603.820312 188.171875 603.820312 C 190.640625 603.820312 191.503906 603.589844 193.027344 602.539062 C 194.476562 601.535156 195.742188 601.167969 198.832031 600.863281 C 201.003906 600.648438 203.453125 600.339844 204.269531 600.179688 C 205.089844 600.015625 206.566406 600.101562 207.550781 600.378906 C 208.867188 600.742188 209.804688 600.707031 211.113281 600.257812 C 212.09375 599.914062 214.335938 599.492188 216.101562 599.316406 C 217.867188 599.140625 221.007812 598.558594 223.082031 598.023438 C 225.488281 597.40625 227.511719 597.164062 228.660156 597.355469 C 230.269531 597.621094 230.464844 597.542969 230.464844 596.644531 C 230.464844 596.089844 229.273438 594.335938 227.820312 592.753906 C 226.363281 591.167969 225.171875 589.597656 225.171875 589.261719 C 225.171875 588.921875 224.539062 587.351562 223.765625 585.765625 C 222.992188 584.179688 222.207031 582.234375 222.019531 581.4375 C 221.832031 580.644531 221.066406 579.34375 220.320312 578.550781 C 218.785156 576.921875 217.464844 574.078125 217.464844 572.410156 C 217.464844 571.671875 216.714844 570.660156 215.246094 569.433594 C 212.925781 567.496094 211.234375 564.523438 211.21875 562.347656 C 211.207031 561.222656 209.582031 557.886719 207.253906 554.238281 C 206.832031 553.574219 206.253906 551.894531 205.964844 550.507812 C 205.675781 549.113281 204.789062 546.757812 203.992188 545.261719 C 203.191406 543.769531 202.539062 542.050781 202.539062 541.441406 C 202.539062 539.816406 201.726562 537.929688 199.839844 535.179688 C 198.914062 533.832031 197.859375 531.558594 197.496094 530.121094 C 197.132812 528.6875 196.371094 526.214844 195.8125 524.625 C 195.25 523.039062 194.558594 520.671875 194.273438 519.367188 C 193.992188 518.0625 193.359375 516.335938 192.867188 515.53125 C 192.378906 514.722656 191.835938 513.082031 191.664062 511.882812 C 191.492188 510.679688 190.976562 508.726562 190.511719 507.535156 C 190.050781 506.34375 189.449219 504.5 189.171875 503.441406 C 188.898438 502.382812 188.109375 499.96875 187.421875 498.074219 C 186.734375 496.183594 185.757812 492.578125 185.253906 490.066406 C 184.648438 487.066406 183.886719 484.824219 183.023438 483.523438 C 182.15625 482.214844 181.582031 480.515625 181.328125 478.527344 C 181.117188 476.871094 180.625 474.402344 180.230469 473.042969 C 179.757812 471.417969 179.605469 469.546875 179.78125 467.609375 C 180.03125 464.855469 179.949219 464.53125 178.613281 462.863281 C 176.386719 460.085938 176.171875 459.449219 175.8125 454.570312 C 175.5625 451.171875 175.164062 449.34375 174.257812 447.449219 C 173.15625 445.152344 173.0625 444.507812 173.3125 440.949219 C 173.5625 437.390625 173.449219 436.578125 172.117188 432.730469 C 170.847656 429.050781 170.6875 428.042969 170.949219 425.453125 C 171.199219 423.023438 171.074219 422.046875 170.300781 420.335938 C 169.75 419.125 169.335938 417.167969 169.332031 415.753906 C 169.320312 414.394531 168.996094 412.507812 168.597656 411.554688 C 168.203125 410.605469 167.871094 409.222656 167.859375 408.488281 C 167.851562 407.75 167.425781 406.28125 166.914062 405.222656 C 166.402344 404.164062 165.972656 402.429688 165.957031 401.371094 C 165.941406 400.3125 165.707031 398.480469 165.433594 397.300781 C 165.082031 395.777344 165.097656 394.488281 165.496094 392.855469 C 165.945312 390.988281 165.898438 389.828125 165.253906 386.65625 C 164.820312 384.507812 164.050781 381.707031 163.546875 380.421875 C 163.039062 379.140625 162.480469 376.9375 162.300781 375.527344 C 162.121094 374.117188 161.816406 372.746094 161.621094 372.480469 C 160.507812 370.972656 160.105469 368.28125 160.652344 366.011719 C 161.125 364.027344 161.09375 363.433594 160.425781 362.152344 C 159.285156 359.945312 158.976562 356.214844 159.691406 353.238281 C 160.257812 350.867188 160.230469 350.535156 159.320312 349.054688 C 157.734375 346.476562 157.59375 344.46875 158.738281 340.777344 C 159.421875 338.578125 160.367188 336.8125 161.570312 335.480469 C 162.5625 334.382812 164.007812 332.617188 164.78125 331.554688 C 168.132812 326.957031 171.582031 323.492188 174.203125 322.09375 C 177.679688 320.242188 179.714844 318.246094 180.101562 316.3125 C 180.730469 313.160156 186.320312 309.679688 192.734375 308.445312 C 193.707031 308.257812 194.796875 307.464844 195.808594 306.203125 C 197.582031 303.996094 200.527344 302.457031 203.027344 302.429688 C 203.996094 302.417969 205.839844 301.773438 207.359375 300.914062 C 208.816406 300.089844 211.199219 298.785156 212.65625 298.019531 C 214.113281 297.253906 215.980469 296.195312 216.808594 295.664062 C 217.929688 294.953125 219.53125 294.628906 223.070312 294.398438 C 227.203125 294.132812 228.222656 293.882812 230.871094 292.480469 C 234.082031 290.789062 236.050781 290.515625 238.628906 291.417969 C 239.984375 291.890625 240.355469 291.824219 241.46875 290.933594 C 244.28125 288.675781 245.039062 288.339844 248.167969 287.949219 C 260.476562 286.410156 262.761719 285.902344 265.714844 284.042969 C 267.5625 282.878906 268.769531 282.542969 272.269531 282.214844 C 275.078125 281.949219 277.277344 281.449219 278.628906 280.757812 C 280.382812 279.863281 281.152344 279.753906 283.707031 280.027344 C 285.902344 280.261719 287.09375 280.160156 288.085938 279.660156 C 290.816406 278.28125 296.121094 277.457031 302.210938 277.460938 C 306.386719 277.460938 308.847656 277.246094 310.242188 276.742188 C 311.777344 276.1875 313.835938 276.050781 318.859375 276.179688 L 325.460938 276.347656 L 327.921875 274.648438 L 330.378906 272.945312 L 335.191406 273.214844 C 338.136719 273.378906 340.71875 273.273438 341.835938 272.945312 C 343.203125 272.546875 344.597656 272.558594 347.371094 272.992188 C 350.882812 273.550781 351.300781 273.515625 355.171875 272.335938 C 358.554688 271.3125 359.816406 271.148438 362.417969 271.402344 C 364.722656 271.625 366.183594 271.507812 367.859375 270.933594 C 370.261719 270.117188 371.582031 270.222656 374.539062 271.464844 C 376.222656 272.171875 376.46875 272.15625 378.71875 271.1875 C 381.570312 269.960938 384.050781 269.886719 387.117188 270.929688 C 388.863281 271.523438 390.339844 271.628906 393.582031 271.386719 C 398.09375 271.050781 401.113281 270.976562 403.800781 271.136719 C 404.730469 271.195312 407.328125 271.089844 409.582031 270.898438 C 421.257812 269.929688 424.246094 269.875 429.078125 270.535156 C 430.933594 270.785156 433.035156 271.269531 433.753906 271.605469 C 434.871094 272.132812 435.527344 272.070312 438.402344 271.144531 C 441.648438 270.101562 441.839844 270.09375 444.480469 270.859375 C 447.019531 271.597656 447.394531 271.597656 449.9375 270.847656 C 451.441406 270.402344 454.332031 270.011719 456.359375 269.980469 C 459.535156 269.933594 460.257812 270.070312 461.59375 271.0625 C 462.953125 272.0625 463.410156 272.152344 465.371094 271.789062 C 468.476562 271.214844 476.558594 271.488281 480.011719 272.285156 C 482.109375 272.769531 483.289062 272.816406 484.3125 272.460938 C 486.273438 271.777344 492.792969 272.238281 494.617188 273.1875 C 496.707031 274.277344 501.703125 275.144531 505.234375 275.027344 C 507.058594 274.964844 508.902344 275.222656 510.019531 275.6875 C 511.347656 276.242188 512.585938 276.363281 514.632812 276.128906 C 516.171875 275.957031 518.351562 276.039062 519.476562 276.316406 C 520.601562 276.59375 523.363281 277.179688 525.613281 277.617188 C 527.867188 278.054688 531.007812 278.707031 532.597656 279.0625 C 534.183594 279.421875 536.570312 279.707031 537.894531 279.699219 C 539.242188 279.6875 541.566406 280.160156 543.1875 280.765625 C 544.777344 281.363281 547.3125 281.917969 548.820312 281.996094 C 554.207031 282.289062 558.355469 285.777344 558.355469 290.023438 C 558.355469 292.035156 556.597656 297.398438 555.355469 299.175781 C 553.46875 301.875 549.449219 302.628906 545.113281 301.09375 C 540.144531 299.332031 531.042969 297.90625 525.660156 298.042969 C 524.109375 298.089844 521.792969 297.691406 519.933594 297.074219 C 517.550781 296.28125 516.171875 296.101562 514.089844 296.320312 C 512.070312 296.53125 510.15625 296.304688 506.683594 295.445312 C 504.109375 294.808594 500.761719 294.292969 499.246094 294.300781 C 497.355469 294.3125 495.195312 293.847656 492.394531 292.839844 C 490.144531 292.027344 487.933594 291.359375 487.484375 291.355469 C 487.035156 291.347656 485.625 291.90625 484.355469 292.59375 C 481.585938 294.085938 478.734375 293.984375 473.835938 292.230469 C 471.070312 291.238281 470.59375 291.191406 469.175781 291.78125 C 466.820312 292.765625 464.195312 292.964844 462.429688 292.296875 C 459.316406 291.125 456.1875 290.9375 452.824219 291.726562 C 449.832031 292.425781 449.40625 292.421875 446.78125 291.621094 C 444.152344 290.824219 443.777344 290.816406 441.367188 291.53125 C 438.148438 292.484375 434.964844 292.480469 432.449219 291.519531 C 427.558594 289.652344 427.53125 289.648438 425.199219 290.816406 C 423.519531 291.652344 422.492188 291.847656 420.753906 291.65625 C 416.875 291.234375 410.429688 290.417969 407.414062 289.964844 C 405.253906 289.644531 403.9375 289.707031 402.199219 290.222656 C 400.660156 290.679688 399.007812 290.804688 397.300781 290.589844 C 395.449219 290.359375 394.039062 290.5 392.273438 291.082031 C 389.785156 291.910156 387.351562 291.757812 381.066406 290.390625 C 379.621094 290.074219 378.871094 290.214844 377.195312 291.105469 C 375.261719 292.136719 374.683594 292.199219 369.117188 291.988281 C 355.949219 291.5 353.878906 291.484375 351.5625 291.867188 C 343.652344 293.160156 339.703125 293.988281 337.359375 294.851562 C 335.261719 295.621094 333.3125 295.847656 327.96875 295.945312 C 324.261719 296.003906 319.820312 296.304688 318.101562 296.597656 C 312.070312 297.617188 310.507812 297.710938 308.796875 297.144531 C 307.40625 296.6875 306.828125 296.714844 305.714844 297.28125 C 303.253906 298.554688 300.90625 298.738281 298.5625 297.84375 L 296.398438 297.015625 L 291.960938 299.238281 C 287.953125 301.246094 287.109375 301.484375 283.195312 301.734375 C 280.617188 301.894531 277.945312 302.378906 276.605469 302.929688 C 275.363281 303.4375 273.628906 303.855469 272.753906 303.859375 C 271.875 303.859375 270.226562 304.191406 269.09375 304.585938 C 267.957031 304.980469 264.816406 305.523438 262.109375 305.789062 C 254.644531 306.523438 251.761719 307.15625 248.574219 308.765625 C 245.894531 310.117188 245.382812 310.210938 242.160156 309.96875 L 238.65625 309.703125 L 235.886719 311.769531 C 231.746094 314.863281 230.375 315.410156 224.769531 316.214844 C 220.484375 316.832031 218.84375 317.335938 214.796875 319.289062 C 212.136719 320.574219 209.554688 322.066406 209.0625 322.609375 C 208.015625 323.765625 204.832031 324.734375 203.480469 324.304688 C 202.824219 324.097656 200.96875 324.933594 197.433594 327.042969 C 193.214844 329.554688 192.03125 330.527344 190.578125 332.679688 C 188.164062 336.257812 185.800781 338.902344 184.695312 339.25 C 183.25 339.707031 183.070312 341.609375 184.179688 344.664062 C 184.730469 346.183594 185.242188 348.058594 185.320312 348.832031 C 185.425781 349.875 186.011719 350.628906 187.621094 351.757812 C 188.8125 352.59375 190.332031 354.066406 190.992188 355.03125 C 192.808594 357.679688 195.175781 359.21875 197.433594 359.21875 C 200.332031 359.21875 203.078125 360.824219 206.527344 364.535156 C 209.332031 367.558594 209.820312 367.886719 211.507812 367.902344 C 212.539062 367.914062 214.789062 368.230469 216.511719 368.609375 C 220.964844 369.589844 221.046875 369.570312 223.875 367.042969 C 225.28125 365.785156 227.699219 363.890625 229.246094 362.832031 C 230.789062 361.773438 233.082031 359.976562 234.339844 358.84375 C 236.613281 356.789062 241.074219 354.695312 244.382812 354.125 C 245.339844 353.957031 247.527344 353.148438 249.25 352.324219 C 251.980469 351.015625 253.121094 350.773438 258.15625 350.445312 C 266.429688 349.910156 268.464844 349.523438 271.019531 347.992188 C 272.859375 346.886719 273.945312 346.609375 276.796875 346.503906 C 278.726562 346.425781 281.890625 346.007812 283.828125 345.5625 C 286.527344 344.941406 287.769531 344.863281 289.125 345.242188 C 291.636719 345.9375 293.644531 345.859375 296.296875 344.953125 C 297.566406 344.519531 300.011719 344.128906 301.730469 344.082031 C 304.785156 343.992188 307.386719 343.488281 311.90625 342.09375 C 313.132812 341.714844 315.652344 341.40625 317.503906 341.40625 C 319.410156 341.40625 321.625 341.09375 322.601562 340.683594 C 323.949219 340.121094 326.519531 339.964844 334.238281 339.964844 C 342.769531 339.964844 344.363281 339.839844 345.691406 339.121094 C 347.003906 338.402344 348.648438 338.269531 356.859375 338.234375 C 367.46875 338.191406 376.917969 337.496094 380.117188 336.527344 C 381.9375 335.976562 382.46875 336.003906 384.453125 336.765625 C 388.152344 338.1875 388.652344 338.195312 392.824219 336.871094 C 396.699219 335.644531 397.09375 335.613281 405.730469 335.855469 C 410.628906 335.992188 415.503906 336.328125 416.5625 336.605469 C 421.878906 337.992188 425.984375 338.378906 430.835938 337.9375 C 434.226562 337.632812 436.421875 337.660156 437.96875 338.03125 C 440.027344 338.523438 440.414062 338.460938 442.738281 337.253906 C 445.191406 335.980469 445.355469 335.960938 448.339844 336.554688 C 450.777344 337.039062 451.78125 337.042969 453.195312 336.570312 C 455.597656 335.777344 459.3125 336.222656 462.917969 337.742188 C 465.601562 338.871094 466.105469 338.941406 468.332031 338.460938 C 470.777344 337.9375 475.402344 338.328125 481.5625 339.558594 C 485.820312 340.414062 492.910156 340.957031 501.300781 341.074219 C 507.96875 341.164062 509.773438 341.339844 511.027344 342.015625 C 511.875 342.472656 513.5 342.847656 514.636719 342.851562 C 518.011719 342.867188 523.242188 344.179688 525.277344 345.53125 C 526.734375 346.496094 527.53125 346.714844 528.683594 346.484375 C 532.554688 345.703125 535.605469 345.644531 536.972656 346.324219 C 537.925781 346.796875 540.121094 347.035156 543.832031 347.066406 C 547.710938 347.09375 549.964844 347.355469 551.621094 347.949219 C 553.800781 348.730469 554.179688 348.734375 557.496094 348.007812 C 560.847656 347.273438 561.269531 347.277344 565.253906 348.144531 C 567.570312 348.652344 569.730469 349.234375 570.050781 349.4375 C 570.371094 349.644531 571.933594 349.832031 573.523438 349.859375 C 578.492188 349.949219 584.328125 353.816406 586.261719 358.3125 C 586.816406 359.601562 587.347656 360.65625 587.441406 360.65625 C 587.53125 360.65625 588.441406 360.308594 589.457031 359.882812 C 591.539062 359.011719 595.886719 359.265625 598.648438 360.421875 C 600.710938 361.28125 602.164062 363.71875 602.167969 366.3125 C 602.167969 368.914062 602.699219 368.929688 606.5625 366.433594 C 608.203125 365.375 610.757812 363.945312 612.238281 363.261719 C 613.71875 362.574219 616.445312 361.277344 618.300781 360.375 C 620.152344 359.472656 623.1875 358.160156 625.039062 357.457031 C 626.894531 356.757812 629.386719 355.519531 630.578125 354.710938 C 633.988281 352.398438 638.34375 347.8125 638.773438 346.078125 C 638.984375 345.226562 639.4375 343.832031 639.78125 342.984375 C 640.347656 341.578125 640.277344 341.175781 639.007812 338.519531 C 638.238281 336.914062 637.191406 335.226562 636.679688 334.769531 C 636.167969 334.308594 635.230469 333.121094 634.597656 332.125 C 633.429688 330.285156 629.523438 327.460938 628.121094 327.445312 C 626.648438 327.429688 620.691406 323.945312 618.488281 321.808594 C 616.964844 320.335938 615.613281 319.515625 614.191406 319.195312 C 613.050781 318.9375 610.902344 317.980469 609.421875 317.0625 C 607.9375 316.148438 606.378906 315.398438 605.960938 315.398438 C 605.539062 315.398438 603.980469 314.75 602.496094 313.960938 C 600.277344 312.777344 599.578125 312.605469 598.546875 312.996094 C 595.984375 313.96875 593.683594 313.546875 589.308594 311.292969 C 586.980469 310.097656 584.222656 308.886719 583.179688 308.601562 C 580.308594 307.828125 578.316406 305.550781 577.632812 302.253906 C 576.652344 297.519531 577.738281 294.734375 581.742188 291.78125 C 587.042969 287.863281 589.875 287.609375 593.507812 290.71875 C 595.441406 292.375 595.699219 292.453125 599.253906 292.492188 C 602.601562 292.523438 603.238281 292.691406 605.5625 294.136719 C 607.191406 295.152344 609.21875 295.917969 611.042969 296.210938 C 612.632812 296.46875 614.917969 297.191406 616.117188 297.816406 C 617.316406 298.445312 619.074219 299.195312 620.027344 299.488281 C 620.976562 299.777344 622.855469 300.957031 624.199219 302.105469 C 626.726562 304.261719 632.074219 306.734375 634.207031 306.734375 C 636.34375 306.734375 638.6875 308.058594 640.066406 310.046875 C 640.804688 311.109375 642.058594 312.253906 642.855469 312.589844 C 644.945312 313.476562 652.339844 320.539062 653.304688 322.574219 C 653.757812 323.527344 654.472656 325.5625 654.890625 327.097656 C 655.375 328.875 656.261719 330.558594 657.332031 331.746094 C 659.445312 334.082031 661.390625 338.796875 661.390625 341.578125 C 661.390625 342.746094 660.960938 344.644531 660.4375 345.800781 C 659.488281 347.886719 659.488281 347.902344 660.425781 348.554688 C 661.128906 349.039062 661.253906 349.421875 660.921875 350.042969 C 660.628906 350.59375 660.722656 351.675781 661.207031 353.238281 C 662.019531 355.886719 661.777344 359.476562 660.636719 361.683594 C 660.121094 362.683594 660.019531 363.898438 660.246094 366.335938 C 660.5 369.09375 660.378906 370.011719 659.527344 371.945312 C 658.964844 373.222656 658.503906 375 658.503906 375.902344 C 658.503906 376.804688 658.175781 378.324219 657.777344 379.28125 C 656.019531 383.484375 655.476562 386.929688 655.359375 394.625 C 655.269531 401 655.078125 402.769531 654.292969 404.734375 C 653.054688 407.84375 651.757812 413.351562 651.554688 416.363281 C 651.460938 417.675781 651.019531 419.464844 650.570312 420.335938 C 649.925781 421.585938 649.816406 422.601562 650.058594 425.113281 C 650.328125 427.867188 650.179688 428.800781 649.046875 431.917969 C 647.941406 434.949219 647.71875 436.339844 647.683594 440.582031 C 647.636719 444.980469 647.480469 445.949219 646.421875 448.046875 C 645.476562 449.921875 645.179688 451.300781 645.089844 454.289062 C 644.96875 458.277344 644.140625 460.761719 642.085938 463.292969 C 641.191406 464.394531 641.054688 465.121094 641.125 468.40625 C 641.183594 471.273438 640.957031 472.863281 640.222656 474.722656 C 639.683594 476.089844 639.242188 478.097656 639.242188 479.179688 C 639.242188 480.5 638.75 482.007812 637.757812 483.746094 C 636.808594 485.40625 636.03125 487.734375 635.597656 490.21875 C 635.222656 492.351562 634.355469 495.648438 633.667969 497.550781 C 632.976562 499.453125 631.992188 502.503906 631.472656 504.332031 C 630.957031 506.15625 630.351562 508 630.128906 508.421875 C 629.90625 508.847656 629.566406 510.167969 629.371094 511.359375 C 629.175781 512.550781 628.5 514.546875 627.871094 515.796875 C 627.242188 517.046875 626.726562 518.460938 626.726562 518.941406 C 626.726562 519.425781 626.167969 521.4375 625.488281 523.414062 C 624.808594 525.390625 623.859375 528.359375 623.386719 530.007812 C 622.910156 531.660156 621.738281 534.152344 620.785156 535.546875 C 619.761719 537.039062 618.828125 539.167969 618.507812 540.726562 C 618.207031 542.183594 617.445312 544.277344 616.8125 545.382812 C 616.179688 546.484375 615.421875 548.542969 615.136719 549.953125 C 614.847656 551.367188 613.898438 553.714844 613.027344 555.171875 C 610.546875 559.3125 610.027344 560.511719 609.414062 563.480469 C 608.796875 566.464844 607.253906 568.722656 605.042969 569.867188 C 604.175781 570.316406 603.597656 571.078125 603.414062 572.015625 C 603.261719 572.8125 603.019531 574.078125 602.875 574.824219 C 602.738281 575.570312 601.757812 577.214844 600.710938 578.484375 C 599.660156 579.753906 598.800781 581.257812 598.800781 581.824219 C 598.800781 582.390625 598.351562 583.585938 597.808594 584.480469 C 597.265625 585.375 596.382812 587.265625 595.855469 588.683594 C 595.246094 590.308594 594.21875 591.839844 593.070312 592.835938 C 591.777344 593.953125 590.3125 596.300781 588.023438 600.910156 C 586.25 604.484375 584.539062 607.796875 584.21875 608.265625 C 583.75 608.957031 583.777344 609.214844 584.355469 609.585938 C 584.753906 609.839844 585.402344 609.910156 585.796875 609.742188 C 586.195312 609.574219 591.15625 609.371094 596.820312 609.289062 C 606.207031 609.152344 607.28125 609.230469 608.9375 610.070312 C 610.445312 610.839844 611.011719 610.90625 612.285156 610.464844 C 614.253906 609.777344 618.707031 610.238281 621.769531 611.445312 C 623.769531 612.234375 624.445312 612.296875 626.140625 611.84375 C 628.597656 611.1875 634.671875 612.078125 637.464844 613.503906 C 640.714844 615.160156 645.140625 616.207031 650.167969 616.507812 C 656.730469 616.894531 661.683594 617.988281 664.039062 619.566406 C 665.949219 620.847656 671.113281 622.488281 673.425781 622.550781 C 674.089844 622.566406 675.820312 623.144531 677.277344 623.832031 C 678.734375 624.523438 681.117188 625.257812 682.574219 625.472656 C 687.042969 626.132812 693.054688 628.527344 695.015625 630.433594 C 696.625 631.996094 697.152344 632.195312 701.097656 632.714844 C 705.953125 633.355469 708.460938 634.121094 710.527344 635.59375 C 711.300781 636.144531 713.304688 636.976562 714.980469 637.441406 C 716.660156 637.902344 719.75 639.332031 721.847656 640.609375 C 725.136719 642.617188 726.148438 642.984375 729.160156 643.285156 C 733.453125 643.710938 735.082031 644.742188 739.628906 649.917969 C 743.128906 653.902344 744.101562 654.582031 749.160156 656.550781 C 751.90625 657.617188 752.726562 658.222656 754.273438 660.300781 C 755.28125 661.660156 756.597656 663.210938 757.1875 663.738281 C 758.515625 664.925781 759.609375 666.980469 759.609375 668.285156 C 759.609375 668.824219 760.601562 670.40625 761.8125 671.800781 C 765.191406 675.679688 768.199219 680.703125 768.550781 683.046875 C 768.859375 685.121094 768.703125 688.683594 767.90625 697.019531 C 767.53125 701 767.324219 701.648438 765.699219 703.90625 C 763.472656 707.007812 761.367188 711.667969 761.9375 712.238281 C 762.167969 712.46875 763.746094 712.984375 765.4375 713.378906 C 770.773438 714.621094 774.054688 717.945312 774.054688 722.117188 C 774.054688 724.03125 771.988281 729.691406 770.25 732.527344 C 769.742188 733.355469 769.070312 735.003906 768.757812 736.183594 C 768.207031 738.246094 767.300781 739.351562 763.109375 743.066406 C 762.285156 743.796875 761.476562 745.003906 761.316406 745.738281 C 760.941406 747.441406 759.117188 749.417969 756.820312 750.613281 C 755.839844 751.125 754.441406 752.1875 753.714844 752.972656 C 752.988281 753.761719 751.386719 754.746094 750.15625 755.167969 C 746.839844 756.296875 744.035156 758.085938 742.570312 760.011719 C 741.054688 761.992188 739.039062 763.164062 737.125 763.164062 C 736.382812 763.164062 734.476562 763.816406 732.890625 764.605469 C 731.300781 765.398438 729.675781 766.054688 729.277344 766.0625 C 728.878906 766.074219 727.375 766.832031 725.929688 767.75 C 724.484375 768.671875 722.75 769.421875 722.074219 769.421875 C 720.054688 769.421875 717.78125 770.25 716.238281 771.550781 C 715.441406 772.21875 713.902344 773.007812 712.816406 773.300781 C 711.730469 773.59375 710.222656 774.289062 709.46875 774.847656 C 708.523438 775.546875 707.160156 775.921875 705.085938 776.058594 C 703.429688 776.164062 701.195312 776.664062 700.117188 777.171875 C 699.039062 777.675781 697.738281 778.089844 697.222656 778.089844 C 696.710938 778.089844 695.25 778.644531 693.980469 779.320312 C 692.390625 780.167969 690.296875 780.714844 687.277344 781.070312 C 683.84375 781.476562 682.414062 781.890625 680.710938 782.96875 C 678.917969 784.109375 678.007812 784.351562 675.546875 784.351562 C 673.25 784.351562 672.078125 784.628906 670.46875 785.546875 C 668.804688 786.5 667.695312 786.746094 665.101562 786.753906 C 662.699219 786.753906 661.296875 787.035156 659.804688 787.804688 C 658.226562 788.617188 656.824219 788.867188 653.445312 788.9375 C 651.0625 788.984375 647.054688 789.394531 644.539062 789.839844 C 642.023438 790.289062 639.449219 790.523438 638.816406 790.367188 C 637.984375 790.160156 636.945312 790.558594 635.042969 791.820312 C 632.199219 793.710938 630.160156 794.207031 622.148438 794.957031 C 614.953125 795.628906 611.121094 796.257812 609.132812 797.085938 C 607.109375 797.933594 604.257812 798.054688 602.464844 797.375 C 601.488281 797.003906 600.699219 797.203125 598.339844 798.417969 C 595.640625 799.808594 595.261719 799.882812 593.195312 799.410156 C 591.316406 798.980469 590.65625 799.039062 588.984375 799.800781 C 586.644531 800.863281 585.589844 800.921875 582.671875 800.140625 C 580.753906 799.625 580.3125 799.664062 578.972656 800.453125 C 577.578125 801.277344 575.980469 801.464844 571.59375 801.324219 C 570.800781 801.292969 566.574219 801.335938 562.207031 801.414062 C 554.988281 801.539062 554.042969 801.652344 551.855469 802.691406 C 549.738281 803.699219 548.601562 803.859375 542.464844 804.015625 C 538.238281 804.125 534.496094 803.972656 532.980469 803.636719 C 530.667969 803.117188 530.25 803.175781 527.445312 804.363281 C 525.777344 805.070312 523.328125 805.820312 522.003906 806.027344 C 514.914062 807.136719 514.910156 807.136719 512.46875 805.824219 C 509.578125 804.269531 509.179688 804.28125 505.632812 806.046875 C 503.089844 807.316406 502.199219 807.496094 498.171875 807.558594 C 487.359375 807.730469 485.542969 807.589844 482.152344 806.300781 C 480.355469 805.617188 478.515625 805.0625 478.058594 805.0625 C 477.601562 805.0625 475.925781 805.710938 474.335938 806.503906 C 472.464844 807.4375 470.6875 807.953125 469.28125 807.964844 C 468.089844 807.976562 466.25 808.15625 465.191406 808.359375 C 464.085938 808.570312 462.132812 808.511719 460.617188 808.203125 C 458.527344 807.785156 457.53125 807.8125 455.90625 808.335938 C 453.785156 809.027344 452.691406 808.972656 448.058594 807.953125 C 445.617188 807.414062 445.171875 807.453125 443.152344 808.375 C 439.988281 809.816406 432.886719 809.808594 429.011719 808.359375 C 426.625 807.464844 425.6875 807.375 421.894531 807.660156 C 419.488281 807.839844 414.273438 808.1875 410.300781 808.429688 C 406.328125 808.675781 401.996094 809.007812 400.671875 809.171875 C 399.347656 809.335938 398.117188 809.324219 397.9375 809.140625 Z M 437.929688 787.972656 C 440.871094 787.28125 445.660156 787.050781 452.425781 787.28125 C 458.214844 787.480469 460.820312 787.390625 467.59375 786.757812 C 476.332031 785.941406 480.714844 785.945312 482.574219 786.765625 C 483.914062 787.359375 484.4375 787.316406 487.390625 786.382812 C 491.375 785.121094 499.875 784.773438 503.898438 785.707031 C 506.140625 786.226562 506.855469 786.195312 509.09375 785.492188 C 511.296875 784.796875 512.167969 784.753906 514.867188 785.21875 C 517.902344 785.738281 518.15625 785.707031 520.484375 784.488281 C 522.882812 783.234375 523.0625 783.214844 531.164062 783.347656 C 535.699219 783.421875 540.203125 783.660156 541.171875 783.878906 C 542.53125 784.1875 543.796875 784 546.671875 783.089844 C 551.675781 781.492188 557.355469 780.882812 560.757812 781.578125 C 563.253906 782.082031 563.5625 782.035156 566.054688 780.761719 C 568.316406 779.605469 569.335938 779.398438 573.035156 779.324219 C 577.484375 779.234375 587.425781 778.347656 589.746094 777.828125 C 590.472656 777.664062 592.230469 777.90625 593.738281 778.382812 L 596.433594 779.230469 L 597.976562 777.769531 C 600.386719 775.488281 601.347656 775.183594 605.660156 775.328125 C 607.855469 775.402344 611.027344 775.152344 612.757812 774.769531 C 614.480469 774.390625 617.621094 774.046875 619.738281 774.003906 C 621.859375 773.957031 624.675781 773.582031 626 773.15625 C 637.054688 769.617188 637.511719 769.539062 640.621094 770.636719 C 642.363281 771.25 642.855469 771.25 644.597656 770.636719 C 645.6875 770.253906 647.277344 769.9375 648.121094 769.9375 C 649.160156 769.9375 650.042969 769.527344 650.832031 768.6875 C 653.230469 766.113281 655.269531 765.488281 660.121094 765.835938 C 663.859375 766.101562 664.941406 766 667.359375 765.152344 C 669.214844 764.503906 671.402344 764.15625 673.652344 764.15625 C 676.761719 764.15625 677.207031 764.035156 678.183594 762.914062 C 679.949219 760.882812 683.28125 759.703125 688.15625 759.386719 C 692.363281 759.113281 692.617188 759.03125 694.507812 757.324219 C 697.339844 754.769531 699.003906 754.046875 702.089844 754.046875 C 704.492188 754.046875 705.03125 753.855469 706.75 752.382812 C 708.085938 751.242188 709.539062 750.546875 711.402344 750.160156 C 712.890625 749.855469 715.085938 749.105469 716.28125 748.503906 C 717.480469 747.902344 719.355469 747.164062 720.457031 746.867188 C 721.554688 746.570312 724.117188 745.136719 726.148438 743.679688 C 730.679688 740.425781 731.457031 740.019531 737.074219 737.96875 C 739.539062 737.066406 741.910156 736.183594 742.351562 736.007812 C 742.792969 735.828125 743.292969 735.117188 743.464844 734.421875 C 744 732.300781 745.617188 730.484375 748.09375 729.230469 C 749.394531 728.570312 750.457031 727.742188 750.457031 727.390625 C 750.457031 727.035156 751.105469 725.792969 751.894531 724.628906 C 753.4375 722.351562 753.707031 721.304688 752.746094 721.3125 C 751.78125 721.320312 742.898438 725.914062 739.03125 728.410156 C 737.078125 729.667969 734.28125 731.742188 732.816406 733.019531 C 730.175781 735.316406 726.640625 737.195312 724.953125 737.195312 C 724.476562 737.195312 722.960938 737.972656 721.585938 738.917969 C 718.589844 740.976562 715.84375 742.011719 713.363281 742.011719 C 712.148438 742.011719 711.074219 742.394531 710.171875 743.144531 C 708.179688 744.800781 707.160156 745.246094 704.476562 745.636719 C 703.152344 745.832031 701.515625 746.269531 700.839844 746.613281 C 700.160156 746.957031 697.679688 747.703125 695.324219 748.273438 C 692.96875 748.839844 690.453125 749.726562 689.734375 750.238281 C 688.019531 751.460938 680.609375 752.761719 677.574219 752.375 C 675.601562 752.121094 675.050781 752.238281 674.160156 753.070312 C 673.160156 754.011719 666.714844 756.972656 663.554688 757.941406 C 662.761719 758.183594 661.355469 758.386719 660.425781 758.394531 C 659.5 758.402344 657.761719 758.855469 656.570312 759.40625 C 654.847656 760.203125 653.261719 760.433594 648.835938 760.539062 C 642.863281 760.675781 637.769531 761.652344 633.460938 763.476562 C 630.273438 764.828125 625.804688 766.089844 624.203125 766.089844 C 623.5625 766.089844 622.015625 765.742188 620.761719 765.3125 C 618.519531 764.550781 618.433594 764.558594 615.542969 765.855469 C 612.710938 767.128906 612.480469 767.15625 609.429688 766.585938 C 606.546875 766.050781 605.929688 766.09375 602.644531 767.058594 C 595.1875 769.25 594.175781 769.460938 591.046875 769.460938 C 589.28125 769.460938 587.074219 769.78125 586.136719 770.167969 C 583.371094 771.324219 579.992188 771.941406 576.535156 771.914062 C 574.308594 771.898438 572.203125 772.261719 569.796875 773.078125 C 565.585938 774.507812 564.515625 774.539062 561.808594 773.308594 L 559.726562 772.363281 L 557.714844 773.4375 C 556.023438 774.339844 554.859375 774.523438 550.40625 774.597656 C 547.492188 774.640625 543.59375 774.929688 541.738281 775.238281 C 539.886719 775.542969 536.285156 775.964844 533.738281 776.171875 C 531.191406 776.378906 528.878906 776.691406 528.597656 776.863281 C 528.320312 777.035156 524.511719 777.285156 520.140625 777.421875 C 515.347656 777.570312 511.460938 777.921875 510.355469 778.3125 C 508.445312 778.984375 500.488281 779.015625 496.175781 778.371094 C 494.546875 778.128906 493.632812 778.234375 492.804688 778.757812 C 490.824219 780.015625 488.761719 780.167969 485.640625 779.292969 C 483.054688 778.566406 482.207031 778.539062 478.699219 779.0625 C 476.5 779.390625 472.667969 779.632812 470.183594 779.605469 C 467.699219 779.574219 463.394531 779.800781 460.613281 780.105469 C 452.808594 780.957031 435.417969 780.710938 432.566406 779.710938 C 430.453125 778.964844 430.109375 778.964844 427.992188 779.679688 C 426.734375 780.105469 423.753906 780.578125 421.367188 780.722656 C 417.472656 780.964844 416.769531 780.875 414.53125 779.835938 L 412.035156 778.679688 L 408.164062 779.949219 C 404.640625 781.105469 404.101562 781.164062 402.238281 780.609375 C 396.664062 778.945312 396.25 778.902344 393.929688 779.789062 C 392.097656 780.488281 390.941406 780.578125 387.285156 780.292969 C 384.847656 780.097656 382.035156 779.621094 381.035156 779.222656 C 379.988281 778.804688 378.605469 778.621094 377.777344 778.785156 C 376.984375 778.945312 375.308594 778.832031 374.050781 778.546875 C 372.105469 778.097656 371.214844 778.171875 368.074219 779.054688 C 364.65625 780.015625 363.9375 780.054688 358.265625 779.59375 C 354.898438 779.320312 351.253906 778.855469 350.167969 778.5625 C 348.976562 778.242188 346.554688 778.148438 344.097656 778.324219 C 341.84375 778.488281 339.207031 778.433594 338.234375 778.1875 C 337.183594 777.933594 335.449219 777.949219 333.949219 778.21875 C 331.796875 778.613281 330.878906 778.503906 327.535156 777.464844 C 324.261719 776.445312 322.703125 776.25 317.855469 776.261719 C 306.390625 776.292969 305.0625 776.230469 303.289062 775.683594 C 301.226562 775.042969 291.796875 774.183594 287.550781 774.246094 C 285.980469 774.277344 283.921875 774.03125 282.980469 773.714844 C 282.035156 773.402344 279.640625 773.109375 277.652344 773.066406 C 275.667969 773.019531 272.523438 772.707031 270.671875 772.359375 C 268.816406 772.015625 265.785156 771.691406 263.929688 771.640625 C 262.078125 771.597656 259.367188 771.207031 257.914062 770.785156 C 253.257812 769.433594 249.511719 768.96875 245.839844 769.277344 C 242.773438 769.535156 241.6875 769.398438 238.195312 768.292969 C 235.953125 767.582031 233.835938 766.765625 233.484375 766.476562 C 233.082031 766.140625 230.578125 765.984375 226.660156 766.042969 C 221.359375 766.121094 220.070312 765.984375 217.648438 765.097656 C 215.679688 764.371094 213.503906 764.019531 210.488281 763.9375 C 208.074219 763.878906 204.980469 763.457031 203.507812 763 C 202.050781 762.546875 199.125 761.96875 197.007812 761.722656 C 190.273438 760.933594 189.367188 760.773438 186.171875 759.835938 C 184.453125 759.328125 181.851562 758.59375 180.394531 758.203125 C 178.941406 757.808594 176.449219 757.015625 174.859375 756.441406 C 173.269531 755.863281 170.886719 755.394531 169.5625 755.398438 C 164.621094 755.40625 157.574219 753.789062 152.230469 751.421875 C 150.328125 750.582031 149.164062 750.398438 146.691406 750.546875 C 143.464844 750.738281 143.515625 750.757812 139.75 748.085938 C 138.496094 747.195312 130.757812 745.324219 124.542969 744.410156 C 120.035156 743.746094 119.609375 743.613281 117.640625 742.277344 C 116.664062 741.613281 114.621094 740.871094 113.101562 740.621094 C 109.289062 740 108.191406 739.507812 105.578125 737.246094 C 104.328125 736.164062 102.832031 735.1875 102.25 735.070312 C 96.671875 733.964844 92.035156 732.53125 89.558594 731.152344 C 87.914062 730.234375 85.910156 729.5 85.058594 729.5 C 82.746094 729.5 80.476562 728.203125 79.070312 726.082031 C 78.121094 724.644531 76.964844 723.785156 74.335938 722.566406 C 72.425781 721.683594 70.070312 720.8125 69.105469 720.640625 C 68.140625 720.46875 66.535156 719.675781 65.535156 718.882812 C 63.816406 717.519531 61.671875 716.617188 61.21875 717.070312 C 60.902344 717.390625 69.1875 725.460938 71.234375 726.828125 C 72.234375 727.496094 73.75 728.402344 74.605469 728.84375 C 75.457031 729.285156 76.914062 730.238281 77.839844 730.964844 C 78.769531 731.6875 80.285156 732.414062 81.210938 732.578125 C 83.027344 732.894531 83.71875 733.292969 88.757812 736.921875 C 90.566406 738.222656 93.101562 739.695312 94.390625 740.191406 C 95.679688 740.6875 97.453125 741.636719 98.324219 742.304688 C 99.78125 743.417969 100.082031 743.472656 101.917969 742.976562 C 103.019531 742.679688 104.609375 742.585938 105.445312 742.765625 C 108.125 743.34375 116.144531 747.75 117.261719 749.257812 C 118.191406 750.515625 118.605469 750.683594 120.828125 750.691406 C 122.25 750.703125 124.21875 751.101562 125.367188 751.621094 C 127.003906 752.367188 127.722656 752.449219 129.128906 752.0625 C 131.066406 751.527344 133.355469 751.882812 135.023438 752.976562 C 135.632812 753.375 138.339844 754.203125 141.046875 754.820312 C 146.4375 756.046875 150.003906 757.027344 152.222656 757.890625 C 153.015625 758.195312 155.398438 758.777344 157.519531 759.179688 C 159.996094 759.648438 162.714844 760.605469 165.121094 761.855469 C 168.753906 763.746094 168.921875 763.78125 171.003906 763.199219 C 173.28125 762.5625 173.273438 762.5625 179.191406 764.089844 C 181.539062 764.695312 184.367188 765.058594 186.429688 765.019531 C 189.21875 764.960938 190.242188 765.175781 192.210938 766.203125 C 195.238281 767.78125 198.839844 768.539062 203.824219 768.648438 C 207.015625 768.726562 208.023438 768.933594 209.171875 769.78125 C 209.949219 770.355469 211.488281 771.070312 212.589844 771.367188 C 213.691406 771.664062 215.324219 772.339844 216.214844 772.863281 C 217.648438 773.710938 218.113281 773.757812 220.179688 773.28125 C 223.5625 772.5 232.621094 773.113281 238.414062 774.507812 C 241.058594 775.148438 244.578125 775.90625 246.226562 776.195312 C 247.878906 776.484375 249.921875 777.011719 250.773438 777.371094 C 252.070312 777.914062 252.671875 777.914062 254.53125 777.359375 C 258.667969 776.132812 268.246094 776.585938 271.867188 778.179688 C 273.054688 778.703125 275.25 779.207031 276.746094 779.304688 C 278.242188 779.394531 279.949219 779.730469 280.539062 780.046875 C 281.191406 780.398438 284.566406 780.683594 289.222656 780.785156 C 294.585938 780.90625 297.242188 781.152344 298.199219 781.636719 C 299.203125 782.144531 301.789062 782.347656 308.082031 782.40625 C 314.421875 782.46875 317.6875 782.722656 320.839844 783.410156 C 325.535156 784.425781 333.25 784.707031 341.078125 784.144531 C 345.796875 783.804688 346.101562 783.84375 348.410156 785.050781 C 351.140625 786.476562 354.652344 786.707031 356.613281 785.585938 C 358.164062 784.699219 361.117188 784.679688 362.789062 785.542969 C 364.75 786.558594 377.644531 786.878906 381.5 786.011719 C 384.0625 785.433594 384.773438 785.433594 386.558594 786.019531 C 390.679688 787.375 415.992188 788.035156 421.851562 786.9375 C 426.542969 786.0625 429.726562 786.296875 431.554688 787.660156 C 433.195312 788.886719 433.917969 788.921875 437.929688 787.976562 Z M 420.648438 759.585938 C 423.289062 758.652344 426.558594 758.667969 429.773438 759.613281 C 431.941406 760.257812 432.894531 760.289062 436 759.808594 C 441.957031 758.890625 446.988281 758.707031 449.425781 759.320312 C 450.664062 759.632812 453.148438 759.972656 454.945312 760.074219 C 457.65625 760.230469 458.515625 760.085938 459.996094 759.210938 C 462.449219 757.761719 470.125 757.398438 473.226562 758.585938 C 475.234375 759.351562 475.417969 759.34375 477.476562 758.410156 C 480.222656 757.160156 483.25 757.148438 485.648438 758.378906 C 488.066406 759.613281 488.710938 759.585938 491.835938 758.132812 C 494.867188 756.71875 499.582031 756.503906 502.332031 757.65625 C 504.527344 758.574219 506.828125 758.570312 511.246094 757.640625 C 513.90625 757.082031 515.300781 757.019531 517.007812 757.386719 C 518.710938 757.75 520.242188 757.6875 523.277344 757.117188 C 525.488281 756.707031 529.03125 756.207031 531.148438 756.015625 C 533.265625 755.820312 535.519531 755.382812 536.15625 755.039062 C 537.226562 754.460938 539.921875 754.222656 549.203125 753.878906 C 553.65625 753.714844 557.5 753.171875 560.039062 752.351562 C 561.105469 752.007812 562.953125 751.839844 564.171875 751.980469 C 565.699219 752.152344 566.855469 751.980469 567.941406 751.417969 C 570.367188 750.164062 574.863281 749.601562 577.929688 750.167969 C 580.179688 750.585938 581.015625 750.511719 583.457031 749.691406 C 585.390625 749.039062 587.464844 748.738281 589.792969 748.78125 C 596.035156 748.886719 605.671875 747.988281 607.292969 747.152344 C 609.207031 746.164062 612.457031 745.429688 616.230469 745.136719 C 617.847656 745.015625 620.980469 744.316406 623.1875 743.597656 C 626.902344 742.390625 627.40625 742.335938 629.945312 742.867188 C 632.261719 743.355469 632.84375 743.332031 633.675781 742.714844 C 634.21875 742.320312 635.148438 741.648438 635.738281 741.230469 C 637.578125 739.914062 640.0625 739.613281 642.921875 740.355469 C 646.394531 741.261719 646.664062 741.238281 648.765625 739.84375 C 649.757812 739.1875 651.324219 738.507812 652.246094 738.332031 C 653.167969 738.15625 654.898438 737.445312 656.089844 736.757812 C 657.941406 735.683594 658.851562 735.496094 662.347656 735.46875 C 665.75 735.4375 666.847656 735.226562 668.847656 734.203125 C 670.171875 733.523438 672.375 732.816406 673.746094 732.628906 C 675.117188 732.445312 677.605469 731.636719 679.285156 730.835938 C 680.957031 730.035156 683.660156 729.210938 685.285156 729.003906 C 687.101562 728.773438 688.800781 728.214844 689.683594 727.5625 C 690.734375 726.785156 692.28125 726.367188 695.394531 726.015625 C 698.722656 725.640625 700.140625 725.230469 701.835938 724.160156 C 704.871094 722.246094 707.300781 721.300781 709.1875 721.300781 C 712.628906 721.300781 715.460938 720.007812 718.078125 717.246094 C 719.980469 715.238281 721.871094 713.957031 726.007812 711.867188 C 732.945312 708.367188 734.121094 707.617188 737.222656 704.6875 C 738.625 703.363281 741.195312 701.089844 742.9375 699.632812 C 744.792969 698.082031 746.210938 696.488281 746.363281 695.78125 C 746.5 695.121094 746.957031 693.539062 747.363281 692.273438 C 748.078125 690.050781 748.058594 689.859375 746.875 686.894531 C 746.195312 685.207031 745.644531 683.597656 745.644531 683.320312 C 745.644531 682.089844 741.734375 676.828125 738.894531 674.230469 C 736.496094 672.039062 734.824219 671.003906 731.679688 669.761719 C 728.8125 668.628906 726.957031 667.53125 725.480469 666.09375 C 724.320312 664.964844 722.585938 663.785156 721.628906 663.476562 C 720.667969 663.167969 719.03125 662.289062 717.984375 661.53125 C 716.847656 660.707031 715.472656 660.152344 714.566406 660.152344 C 713.730469 660.152344 712.050781 659.621094 710.832031 658.976562 C 709.613281 658.328125 707.800781 657.644531 706.800781 657.457031 C 705.574219 657.226562 704.1875 656.359375 702.515625 654.78125 C 700.5 652.871094 699.390625 652.257812 696.484375 651.429688 C 694.523438 650.875 691.449219 649.902344 689.644531 649.269531 C 687.84375 648.632812 685.476562 648.117188 684.386719 648.117188 C 683.066406 648.117188 681.535156 647.625 679.78125 646.632812 C 676.726562 644.910156 671.269531 643.484375 666.386719 643.132812 C 662.222656 642.832031 656.09375 640.878906 653.335938 638.972656 C 651.566406 637.746094 651.007812 637.601562 648.996094 637.839844 C 647.421875 638.027344 646.09375 637.871094 644.828125 637.335938 C 643.808594 636.910156 641.910156 636.5625 640.609375 636.5625 C 639.171875 636.5625 637.125 636.089844 635.386719 635.355469 C 633.8125 634.695312 632.246094 634.152344 631.902344 634.152344 C 631.558594 634.152344 630.480469 633.613281 629.503906 632.949219 C 627.945312 631.890625 627.222656 631.742188 623.484375 631.742188 C 618.777344 631.742188 611.84375 629.972656 605.777344 627.21875 C 602.539062 625.75 599.296875 624.953125 597.734375 625.25 C 596.484375 625.484375 595.488281 625.21875 593.25 624.039062 C 591.664062 623.207031 589.828125 622.03125 589.164062 621.417969 C 588.503906 620.804688 587.171875 620.164062 586.207031 619.992188 C 585.242188 619.820312 583.640625 619.039062 582.648438 618.25 C 579.476562 615.730469 578.214844 616.109375 573.417969 621.03125 C 571.042969 623.472656 568.925781 626.140625 568.386719 627.375 C 567 630.566406 560.011719 637.214844 556.992188 638.214844 C 555.691406 638.648438 554.058594 639.636719 553.367188 640.417969 C 552.671875 641.199219 551.242188 642.402344 550.191406 643.101562 C 549.136719 643.796875 547.414062 645.507812 546.359375 646.90625 C 544.175781 649.800781 542.542969 650.914062 538.210938 652.472656 C 535.804688 653.339844 534.746094 654.0625 533.164062 655.9375 C 530.898438 658.628906 530.191406 659.082031 526.960938 659.9375 C 525.691406 660.269531 523.207031 661.574219 521.441406 662.835938 C 518.394531 665.011719 518.023438 665.144531 514.097656 665.476562 C 511.605469 665.683594 508.71875 666.300781 506.832031 667.023438 C 502.59375 668.652344 493.042969 671.585938 490.832031 671.941406 C 488.554688 672.304688 485.714844 671.546875 482.839844 669.808594 C 478.894531 667.414062 478.613281 667.445312 477.765625 670.363281 C 476.945312 673.183594 472.746094 679.492188 470.878906 680.714844 C 470.222656 681.144531 468.671875 681.777344 467.433594 682.117188 C 466.199219 682.460938 464.320312 683.0625 463.261719 683.460938 C 462.199219 683.859375 460.820312 684.195312 460.195312 684.207031 C 458.996094 684.222656 455.757812 685.179688 451.683594 686.699219 C 448.289062 687.96875 440.34375 688.367188 438.34375 687.371094 C 436.425781 686.410156 435.917969 686.4375 433.582031 687.632812 C 431.796875 688.542969 430.828125 688.628906 422.40625 688.589844 C 417.335938 688.574219 410.585938 688.546875 407.410156 688.53125 C 404.230469 688.519531 400.875 688.261719 399.945312 687.953125 C 399.019531 687.644531 396.746094 687.339844 394.890625 687.273438 C 393.039062 687.214844 389.246094 687.015625 386.464844 686.835938 C 383.6875 686.65625 378.882812 686.550781 375.792969 686.601562 C 370.957031 686.675781 369.902344 686.554688 368.230469 685.695312 C 367.078125 685.109375 365.355469 684.703125 364.015625 684.703125 C 362.410156 684.703125 361.035156 684.300781 359.300781 683.324219 C 357.957031 682.5625 356.097656 681.785156 355.171875 681.589844 C 354.242188 681.394531 352.574219 680.714844 351.457031 680.074219 C 350.1875 679.34375 348.066406 678.734375 345.789062 678.445312 C 341.878906 677.949219 340.9375 677.582031 338.320312 675.550781 C 335.78125 673.578125 334.113281 672.855469 329.992188 671.945312 C 327.929688 671.488281 323.382812 670.152344 319.882812 668.976562 C 309.425781 665.464844 308.886719 665.316406 308.410156 665.789062 C 308.136719 666.0625 308.53125 666.96875 309.414062 668.125 C 310.210938 669.167969 311.597656 671.121094 312.496094 672.464844 C 314.460938 675.40625 316.375 677 317.9375 677 C 319.636719 677 322.46875 678.304688 324.117188 679.84375 C 326.046875 681.648438 330.203125 683.519531 333.738281 684.167969 C 335.320312 684.460938 337.726562 685.242188 339.082031 685.902344 C 340.4375 686.566406 342.066406 687.117188 342.699219 687.125 C 343.335938 687.136719 345.046875 687.5625 346.503906 688.074219 C 347.960938 688.585938 349.933594 689.011719 350.890625 689.023438 C 351.875 689.03125 353.804688 689.664062 355.335938 690.480469 C 357.671875 691.730469 358.554688 691.925781 361.78125 691.929688 C 363.839844 691.929688 366.605469 692.222656 367.929688 692.574219 C 369.273438 692.933594 371.632812 693.117188 373.261719 693 C 376.316406 692.777344 386.609375 694.539062 391.039062 696.042969 C 393.09375 696.742188 393.464844 696.742188 395.1875 696.054688 C 397.609375 695.085938 399.628906 695.097656 402.246094 696.101562 C 404.003906 696.769531 404.722656 696.808594 406.753906 696.339844 C 408.082031 696.035156 411.289062 695.78125 413.878906 695.78125 C 418.113281 695.78125 418.773438 695.902344 420.363281 696.988281 C 422.488281 698.429688 422.640625 698.4375 425.707031 697.285156 C 428.195312 696.351562 435.46875 695.742188 446.652344 695.53125 C 449.984375 695.46875 453.296875 695.113281 454.980469 694.640625 C 458.261719 693.71875 460.59375 693.65625 464.042969 694.398438 C 467.410156 695.121094 470.574219 694.410156 476.742188 691.542969 C 481.738281 689.222656 483.902344 688.851562 487.621094 689.695312 C 489.207031 690.050781 489.542969 689.921875 491.632812 688.113281 C 494.238281 685.855469 496.257812 684.710938 497.625 684.710938 C 498.148438 684.710938 499.1875 684.199219 499.9375 683.574219 C 501.804688 682.015625 503.878906 681.007812 506.042969 680.601562 C 507.65625 680.296875 507.988281 679.976562 508.96875 677.789062 C 510.96875 673.324219 513.871094 671.835938 518.789062 672.746094 C 524.144531 673.734375 525.613281 675.386719 525.613281 680.417969 C 525.613281 682.058594 525.859375 684.226562 526.164062 685.242188 C 527.042969 688.171875 525.804688 690.6875 521.457031 694.820312 L 517.832031 698.265625 L 520.15625 697.929688 C 521.4375 697.746094 523.242188 697.261719 524.167969 696.855469 C 525.304688 696.359375 527.230469 696.136719 530.085938 696.175781 C 533.519531 696.222656 534.679688 696.039062 536.253906 695.222656 C 537.890625 694.367188 538.671875 694.261719 541.339844 694.535156 C 544.335938 694.84375 544.609375 694.78125 546.957031 693.277344 C 549.261719 691.800781 549.707031 691.691406 553.570312 691.691406 C 557.277344 691.691406 557.90625 691.554688 559.597656 690.394531 C 561.820312 688.867188 563.761719 688.082031 565.316406 688.082031 C 565.933594 688.082031 567.675781 687.429688 569.1875 686.636719 C 570.761719 685.808594 572.679688 685.191406 573.6875 685.183594 C 576.148438 685.175781 581.128906 683.9375 583.425781 682.765625 C 584.488281 682.222656 586.171875 681.046875 587.164062 680.148438 C 588.15625 679.253906 590.621094 677.628906 592.640625 676.539062 C 594.660156 675.449219 598.226562 672.839844 600.566406 670.738281 C 602.902344 668.632812 605.714844 666.488281 606.8125 665.964844 C 607.914062 665.441406 609.285156 664.351562 609.855469 663.546875 C 611.46875 661.285156 612.425781 660.960938 613.953125 662.164062 C 615.246094 663.179688 615.253906 663.21875 615.144531 668.773438 C 615.082031 671.84375 615.203125 675.496094 615.40625 676.878906 C 615.746094 679.175781 615.632812 679.683594 614.148438 682.597656 C 611.773438 687.25 609.265625 689.886719 605.679688 691.496094 C 604.011719 692.246094 602.644531 693.070312 602.644531 693.332031 C 602.644531 693.589844 601.429688 695.117188 599.945312 696.722656 C 597.695312 699.148438 596.785156 699.769531 594.527344 700.417969 C 593.035156 700.84375 591.378906 701.589844 590.84375 702.074219 C 589.238281 703.542969 586.464844 704.449219 583.597656 704.449219 C 581.746094 704.449219 580.484375 704.734375 579.609375 705.339844 C 577.492188 706.8125 575.261719 707.339844 571.132812 707.339844 C 567.574219 707.339844 567.03125 707.476562 565.308594 708.722656 C 564.261719 709.480469 562.566406 710.371094 561.542969 710.703125 C 560.515625 711.035156 558.46875 711.941406 556.988281 712.722656 C 554.558594 714 554.011719 714.105469 551.34375 713.820312 C 548.875 713.554688 548.0625 713.667969 546.378906 714.53125 C 544.390625 715.546875 537.066406 716.78125 536.203125 716.25 C 535.957031 716.097656 534.585938 716.308594 533.152344 716.730469 C 531.25 717.285156 530.03125 717.371094 528.621094 717.050781 C 526.957031 716.679688 526.304688 716.808594 523.875 718 C 522.328125 718.757812 520.476562 719.378906 519.757812 719.378906 C 519.039062 719.378906 517.84375 719.621094 517.097656 719.917969 C 516.351562 720.210938 514.222656 720.636719 512.371094 720.863281 C 504.929688 721.761719 501.699219 722.253906 500.097656 722.730469 C 498.066406 723.335938 494.726562 723.359375 492.269531 722.789062 C 490.9375 722.480469 489.734375 722.59375 487.695312 723.21875 C 485.535156 723.882812 483.039062 724.082031 476.359375 724.128906 C 469.847656 724.175781 467.460938 724.363281 466.417969 724.902344 C 464.851562 725.710938 456.019531 725.980469 453.632812 725.292969 C 451.054688 724.550781 445.058594 724.984375 441.886719 726.140625 C 439.441406 727.03125 438.5 727.148438 436.414062 726.816406 C 435.023438 726.59375 432.480469 726.488281 430.761719 726.578125 C 429.039062 726.671875 425.355469 726.730469 422.574219 726.699219 C 419.796875 726.671875 414.832031 726.640625 411.546875 726.640625 C 407.199219 726.640625 404.183594 726.34375 400.472656 725.558594 C 396.078125 724.625 393.777344 724.464844 383.816406 724.402344 C 370.984375 724.328125 362.144531 723.695312 357.738281 722.554688 C 355.132812 721.878906 354.5625 721.875 352.464844 722.507812 C 348.96875 723.570312 342.28125 723.449219 339.296875 722.273438 C 337.34375 721.503906 336.191406 721.371094 333.382812 721.59375 C 330.886719 721.789062 329.324219 721.667969 327.898438 721.144531 C 326.726562 720.71875 325.121094 720.523438 324.015625 720.671875 C 322.964844 720.808594 320.761719 720.566406 319.03125 720.125 C 316.664062 719.515625 314.222656 719.359375 308.703125 719.460938 C 301.90625 719.582031 301.367188 719.539062 299.710938 718.507812 C 298.535156 717.78125 296.648438 717.269531 294.042969 716.972656 C 291.898438 716.730469 289.941406 716.402344 289.691406 716.25 C 289.445312 716.097656 285.332031 715.871094 280.554688 715.753906 C 272.339844 715.546875 271.738281 715.464844 269.457031 714.273438 C 267.988281 713.503906 266.640625 713.117188 266.007812 713.285156 C 265.433594 713.4375 263.734375 713.148438 262.226562 712.632812 C 259.53125 711.726562 256.148438 710.882812 249.488281 709.457031 C 247.632812 709.058594 244.484375 708.691406 242.492188 708.640625 C 239.234375 708.550781 238.652344 708.386719 236.738281 706.980469 C 235.105469 705.78125 234.125 705.417969 232.507812 705.417969 C 229.515625 705.417969 223.492188 702.792969 220.839844 700.332031 C 219.648438 699.226562 217.914062 697.933594 216.988281 697.460938 C 215.046875 696.472656 208.464844 690.691406 207.742188 689.34375 C 206.84375 687.675781 205.375 679.328125 205.703125 677.785156 C 205.882812 676.964844 206.757812 675.09375 207.65625 673.632812 C 208.550781 672.167969 209.285156 670.714844 209.285156 670.398438 C 209.285156 670.082031 210.691406 668.207031 212.410156 666.234375 C 216.390625 661.671875 218.589844 660.664062 222.726562 661.519531 C 224.234375 661.832031 225.9375 662.085938 226.507812 662.085938 C 227.078125 662.085938 228.3125 662.757812 229.246094 663.578125 C 230.824219 664.964844 230.949219 665.277344 230.949219 667.820312 C 230.949219 669.492188 230.671875 670.933594 230.242188 671.503906 C 229.855469 672.015625 229.527344 673.085938 229.519531 673.882812 C 229.507812 674.675781 229.261719 676.183594 228.972656 677.234375 C 228.46875 679.046875 228.511719 679.203125 229.875 680.363281 C 234.527344 684.339844 235.921875 685.199219 237.726562 685.199219 C 239.960938 685.199219 241.921875 685.902344 243.3125 687.207031 C 244.203125 688.039062 244.726562 688.136719 246.789062 687.851562 C 248.636719 687.597656 250.007812 687.761719 252.484375 688.535156 C 259.054688 690.582031 260.640625 690.929688 264.582031 691.207031 C 269.535156 691.550781 272.894531 692.203125 275.746094 693.382812 C 276.949219 693.878906 279.117188 694.433594 280.5625 694.617188 C 282.007812 694.800781 284.261719 695.351562 285.574219 695.84375 C 287.042969 696.390625 288.613281 696.636719 289.667969 696.480469 C 292.144531 696.117188 300.734375 697 306.238281 698.183594 C 308.851562 698.742188 311.171875 699.136719 311.394531 699.0625 C 311.621094 698.984375 309.804688 697.160156 307.363281 695.011719 C 304.457031 692.453125 302.34375 690.976562 301.25 690.734375 C 298.679688 690.171875 290.921875 682.214844 290.167969 679.375 C 289.859375 678.207031 289.203125 676.820312 288.710938 676.289062 C 288.21875 675.757812 287.210938 674.023438 286.46875 672.4375 C 285.191406 669.710938 285.125 669.242188 285.273438 664.03125 C 285.363281 660.773438 285.703125 657.859375 286.097656 656.917969 C 287.175781 654.332031 287.214844 654.371094 280.167969 651.453125 C 277.832031 650.488281 273.320312 646.367188 273.320312 645.199219 C 273.320312 644.972656 272.140625 644.03125 270.699219 643.105469 C 269.257812 642.183594 267.722656 640.890625 267.289062 640.230469 C 266.8125 639.503906 265.523438 638.703125 264.019531 638.203125 C 260.820312 637.140625 253.738281 630.308594 252.222656 626.820312 C 251.675781 625.5625 251 624.535156 250.71875 624.535156 C 250.4375 624.535156 249.445312 623.472656 248.515625 622.175781 C 246.203125 618.957031 245.164062 618.390625 240.507812 617.820312 C 236.167969 617.285156 230.878906 617.863281 225.65625 619.457031 C 224.066406 619.9375 220.761719 620.332031 217.390625 620.441406 C 213.078125 620.578125 211.347656 620.835938 209.929688 621.542969 C 207.019531 623.003906 205.675781 623.160156 203.226562 622.328125 C 200.980469 621.566406 200.953125 621.570312 197.613281 623.109375 C 194.753906 624.429688 193.902344 624.613281 191.839844 624.367188 C 189.796875 624.125 189.09375 624.277344 187.292969 625.332031 C 185.363281 626.460938 184.855469 626.546875 181.921875 626.257812 C 179.441406 626.015625 178.234375 626.121094 176.792969 626.726562 C 175.34375 627.332031 174.113281 627.441406 171.511719 627.203125 C 168 626.882812 164.253906 627.75 161.546875 629.519531 C 160.925781 629.925781 159.007812 630.582031 157.285156 630.976562 C 155.566406 631.371094 152.855469 632.027344 151.269531 632.429688 C 149.679688 632.839844 146.539062 633.515625 144.285156 633.941406 C 142.035156 634.363281 139.4375 634.902344 138.507812 635.132812 C 137.582031 635.367188 135.632812 635.707031 134.175781 635.890625 C 132.273438 636.132812 131.085938 636.613281 129.953125 637.59375 C 127.617188 639.625 125.726562 639.851562 120.453125 638.730469 C 119.347656 638.496094 118.613281 638.714844 117.324219 639.648438 C 112.460938 643.1875 111.933594 643.460938 109.558594 643.6875 C 108 643.839844 106.203125 644.46875 104.609375 645.421875 C 99.738281 648.34375 91.523438 651.496094 88.777344 651.496094 C 87.109375 651.496094 85.972656 651.988281 82.65625 654.144531 C 80.417969 655.597656 78.304688 656.789062 77.960938 656.789062 C 77.621094 656.789062 75.316406 658.695312 72.84375 661.023438 C 68.351562 665.25 63.339844 671.371094 60.835938 675.683594 C 59.355469 678.238281 59.457031 678.765625 62.003906 681.699219 C 62.75 682.558594 63.589844 684.183594 63.871094 685.3125 C 64.152344 686.441406 64.617188 688.257812 64.898438 689.347656 C 65.628906 692.15625 69.761719 697.078125 71.734375 697.492188 C 73.828125 697.925781 80.464844 701.835938 81.808594 703.421875 C 83.546875 705.480469 87.070312 707.703125 89.160156 708.0625 C 91.378906 708.449219 96.445312 711.136719 99.320312 713.453125 C 100.988281 714.800781 101.683594 715.050781 103.789062 715.050781 C 105.679688 715.050781 107.945312 715.699219 113.128906 717.734375 C 116.894531 719.210938 120.648438 720.835938 121.472656 721.34375 C 122.386719 721.90625 123.84375 722.269531 125.1875 722.269531 C 127.359375 722.269531 131.144531 723.453125 133.863281 724.980469 C 135.101562 725.675781 136.859375 726.164062 143.210938 727.570312 C 147.054688 728.417969 152.511719 730.59375 154.230469 731.960938 C 156.460938 733.730469 158.355469 734.09375 164.59375 733.941406 C 168.851562 733.835938 170.167969 733.984375 172.25 734.804688 C 173.859375 735.4375 175.261719 735.6875 176.136719 735.496094 C 176.894531 735.328125 178.535156 735.511719 179.796875 735.914062 C 181.054688 736.304688 183.539062 736.75 185.320312 736.894531 C 187.097656 737.046875 189.175781 737.480469 189.933594 737.871094 C 190.691406 738.265625 193.246094 738.828125 195.605469 739.125 C 200.710938 739.769531 202.222656 740.21875 204.46875 741.761719 C 207.160156 743.617188 213.886719 744.769531 218.914062 744.242188 C 222.140625 743.90625 223.722656 743.976562 226.378906 744.582031 C 231.113281 745.660156 232.460938 745.859375 238.054688 746.324219 C 241.921875 746.640625 243.519531 747.003906 245.414062 747.996094 C 247.507812 749.089844 248.082031 749.199219 249.625 748.789062 C 250.808594 748.472656 253.285156 748.480469 256.949219 748.804688 C 259.996094 749.074219 262.921875 749.292969 263.449219 749.289062 C 264.492188 749.289062 268.972656 749.886719 274.164062 750.722656 C 275.949219 751.011719 279.363281 751.308594 281.746094 751.386719 C 284.128906 751.460938 288.136719 751.777344 290.652344 752.09375 C 293.167969 752.40625 297.503906 752.863281 300.285156 753.113281 C 309.59375 753.945312 312.539062 754.378906 315.804688 755.40625 C 320.589844 756.90625 323.210938 757.125 326.40625 756.277344 C 328.5 755.726562 329.839844 755.652344 331.890625 755.988281 C 333.382812 756.230469 334.789062 756.316406 335.015625 756.175781 C 335.242188 756.039062 336.511719 755.914062 337.835938 755.902344 C 339.59375 755.890625 340.828125 756.226562 342.414062 757.15625 C 344.136719 758.164062 344.933594 758.359375 346.296875 758.105469 C 347.242188 757.925781 349.460938 757.726562 351.230469 757.65625 C 353 757.578125 355.554688 757.371094 356.90625 757.179688 C 358.679688 756.929688 360.15625 757.058594 362.203125 757.65625 C 363.765625 758.113281 366.558594 758.742188 368.410156 759.058594 C 371.390625 759.566406 372.117188 759.527344 374.671875 758.730469 C 377.171875 757.945312 378.496094 757.867188 384.539062 758.128906 C 394.488281 758.5625 395.078125 758.5625 398.054688 758.160156 C 400.183594 757.867188 401.066406 757.964844 402.351562 758.628906 C 403.707031 759.332031 404.714844 759.414062 408.578125 759.144531 C 412.097656 758.902344 413.644531 758.992188 415.113281 759.535156 C 417.605469 760.457031 418.1875 760.460938 420.652344 759.597656 Z M 428.3125 667.828125 C 429.519531 667.199219 431.796875 666.679688 434.464844 666.421875 C 436.796875 666.199219 439.761719 665.773438 441.058594 665.476562 C 442.402344 665.167969 444.625 665.078125 446.246094 665.261719 C 448.429688 665.507812 449.273438 665.414062 449.910156 664.855469 C 451.464844 663.503906 452.859375 663.035156 460.363281 661.355469 C 466.785156 659.914062 468.148438 659.75 469.890625 660.183594 C 473.191406 661.003906 473.257812 660.988281 473.730469 659.195312 C 474.417969 656.582031 476.128906 654.714844 479.945312 652.410156 C 483.152344 650.472656 483.75 650.28125 486.839844 650.21875 C 489.335938 650.171875 491.484375 649.710938 495.039062 648.46875 C 497.714844 647.53125 501.425781 646.628906 503.390625 646.433594 C 507.648438 646.015625 511.261719 644.617188 515.601562 641.699219 C 518.074219 640.042969 519.46875 639.449219 521.523438 639.191406 C 523.644531 638.925781 524.382812 638.601562 525.03125 637.644531 C 526.746094 635.109375 528.417969 633.734375 530.457031 633.1875 C 532.015625 632.765625 533.328125 631.839844 535.46875 629.65625 C 539.148438 625.898438 542.6875 622.933594 546.3125 620.5625 C 550.0625 618.113281 552.785156 614.953125 554.035156 611.597656 C 555.300781 608.207031 556.464844 606.929688 559.691406 605.390625 C 562.472656 604.066406 562.867188 603.5625 563.382812 600.710938 C 563.84375 598.171875 564.761719 596.484375 566.785156 594.460938 C 567.71875 593.527344 568.460938 592.296875 568.464844 591.683594 C 568.464844 590.15625 569.996094 587.804688 571.953125 586.308594 C 573.253906 585.316406 573.730469 584.488281 574.195312 582.40625 C 574.625 580.492188 575.300781 579.210938 576.636719 577.777344 C 577.761719 576.570312 578.695312 574.960938 579.023438 573.660156 C 579.402344 572.152344 580.238281 570.851562 581.863281 569.257812 C 585.335938 565.839844 586.757812 563.675781 586.757812 561.8125 C 586.757812 558.445312 591.792969 546.972656 595.871094 541.042969 C 597.980469 537.972656 599.320312 534.644531 599.566406 531.84375 C 599.886719 528.234375 601.113281 524.902344 603.113281 522.214844 C 607.878906 515.800781 607.820312 515.9375 608.171875 510.179688 C 608.523438 504.414062 608.921875 503.242188 612.316406 497.898438 C 614.316406 494.75 615.269531 491.957031 615.828125 487.597656 C 615.992188 486.296875 616.457031 484.582031 616.855469 483.78125 C 617.390625 482.714844 617.5 481.539062 617.277344 479.359375 C 617.027344 476.902344 617.15625 475.992188 618.039062 474.027344 C 619.878906 469.953125 620.960938 465.320312 620.890625 461.851562 C 620.816406 458.261719 621.125 456.859375 622.390625 455.050781 C 623.511719 453.441406 625.601562 448.113281 626.164062 445.417969 C 626.414062 444.226562 626.867188 441.085938 627.179688 438.4375 C 627.488281 435.789062 627.972656 432.507812 628.257812 431.144531 C 628.542969 429.78125 628.664062 428.070312 628.523438 427.347656 C 627.992188 424.574219 631.066406 413.328125 633.300781 409.859375 C 633.792969 409.09375 633.9375 408.144531 633.742188 406.96875 C 632.796875 401.289062 632.835938 400.140625 634.070312 396.878906 C 635.65625 392.691406 636.351562 387.933594 636.351562 381.28125 L 636.351562 375.898438 L 634.785156 377.414062 C 633.070312 379.074219 630.265625 380.421875 628.523438 380.421875 C 627.914062 380.421875 626.273438 381.152344 624.886719 382.046875 C 623.5 382.941406 621.53125 383.808594 620.511719 383.96875 C 619.492188 384.132812 617.710938 384.695312 616.550781 385.222656 C 615.390625 385.75 613.980469 386.183594 613.414062 386.191406 C 612.847656 386.199219 611.308594 386.941406 609.992188 387.847656 C 606.683594 390.121094 603.234375 391.105469 600.984375 390.414062 C 599.511719 389.960938 598.867188 390.046875 596.632812 390.96875 C 593.054688 392.453125 588.949219 393.382812 585.894531 393.402344 C 583.25 393.417969 580.199219 394.691406 574.972656 397.945312 C 572.71875 399.347656 572.320312 399.433594 568.472656 399.320312 C 563.398438 399.167969 555.035156 400.800781 552.554688 402.417969 C 550.070312 404.03125 545.808594 404.710938 542.378906 404.035156 C 540.023438 403.570312 539.378906 403.605469 538.089844 404.273438 C 537.253906 404.707031 534.511719 405.253906 531.992188 405.492188 C 529.472656 405.730469 525.824219 406.253906 523.882812 406.652344 C 521.941406 407.054688 519.75 407.386719 519.011719 407.390625 C 518.273438 407.402344 516.691406 407.851562 515.5 408.402344 C 513.539062 409.308594 512.257812 409.417969 502.019531 409.558594 C 493.078125 409.683594 490.328125 409.878906 488.914062 410.476562 C 487.929688 410.894531 486.195312 411.234375 485.0625 411.234375 C 483.929688 411.234375 481.375 411.589844 479.390625 412.019531 C 477.402344 412.453125 474.261719 412.875 472.410156 412.960938 C 470.554688 413.050781 467.621094 413.253906 465.890625 413.425781 C 463.53125 413.660156 462.285156 413.546875 460.902344 412.96875 C 459.523438 412.394531 458.246094 412.273438 455.820312 412.5 C 453.765625 412.691406 451.929688 412.589844 450.804688 412.21875 C 449.140625 411.667969 448.878906 411.730469 446.527344 413.238281 C 444.261719 414.695312 443.628906 414.859375 439.761719 415.015625 C 436.566406 415.136719 434.949219 414.984375 433.332031 414.359375 C 431.859375 413.792969 430.6875 413.648438 429.644531 413.898438 C 428.800781 414.101562 424.648438 414.324219 420.410156 414.394531 C 416.171875 414.46875 411.730469 414.671875 410.539062 414.851562 C 409.191406 415.054688 407.285156 414.914062 405.484375 414.484375 C 402.59375 413.789062 398.535156 413.777344 384.242188 414.425781 C 379.242188 414.648438 377.953125 414.546875 375.234375 413.707031 C 372.234375 412.78125 371.90625 412.769531 369.273438 413.476562 C 367.355469 413.992188 364.113281 414.242188 358.910156 414.273438 L 351.332031 414.320312 L 349.066406 412.722656 C 346.949219 411.230469 346.636719 411.148438 344.363281 411.503906 C 343.023438 411.714844 340.738281 411.882812 339.28125 411.875 C 329.949219 411.847656 311.027344 410.347656 307.503906 409.367188 C 302.585938 407.996094 299.597656 407.40625 295.402344 406.976562 C 292.851562 406.714844 290.050781 406.132812 289.175781 405.683594 C 287.789062 404.964844 287.277344 404.941406 285.0625 405.472656 C 282.933594 405.980469 281.789062 405.953125 277.785156 405.285156 C 275.171875 404.851562 272.335938 404.492188 271.476562 404.492188 C 270.617188 404.492188 268.890625 403.972656 267.632812 403.335938 C 265.835938 402.425781 264.871094 402.234375 263.082031 402.4375 C 260.824219 402.691406 257.234375 401.84375 251.414062 399.683594 C 250.089844 399.195312 247.652344 398.707031 245.996094 398.601562 C 243.769531 398.46875 242.578125 398.113281 241.421875 397.253906 C 240.105469 396.273438 239.132812 396.050781 235.285156 395.839844 C 231.261719 395.621094 230.375 395.398438 227.949219 394.023438 C 226.398438 393.144531 224.5 392.457031 223.613281 392.457031 C 222.75 392.457031 220.742188 391.804688 219.152344 391.015625 C 217.566406 390.222656 215.695312 389.574219 214.996094 389.574219 C 214.296875 389.570312 212.671875 388.820312 211.382812 387.898438 C 208.007812 385.488281 206.433594 384.84375 202.464844 384.25 C 199.929688 383.875 198.164062 383.257812 196.210938 382.074219 C 194.714844 381.164062 192.921875 380.421875 192.222656 380.421875 C 190.351562 380.421875 188.027344 379.3125 186.316406 377.601562 C 185.484375 376.769531 184.730469 376.089844 184.644531 376.089844 C 184.554688 376.089844 184.523438 378.527344 184.570312 381.507812 C 184.660156 388.171875 185.429688 393.207031 186.945312 397.160156 C 188.28125 400.632812 188.351562 401.84375 187.417969 405.355469 L 186.738281 407.902344 L 188.609375 411.949219 C 190.859375 416.824219 191.964844 421.089844 192.464844 426.886719 C 193.929688 443.722656 195.25 449.757812 198.6875 455.289062 C 199.679688 456.882812 199.9375 458.070312 200.207031 462.269531 C 200.582031 468.058594 201.035156 470.097656 202.8125 473.988281 C 203.902344 476.363281 204.039062 477.152344 203.769531 479.507812 C 203.539062 481.503906 203.660156 482.742188 204.203125 484.042969 C 204.617188 485.027344 204.957031 486.492188 204.957031 487.300781 C 204.957031 489.398438 206.640625 495.183594 207.714844 496.785156 C 211.660156 502.652344 211.824219 502.988281 212.257812 506.0625 C 212.503906 507.796875 212.832031 510.734375 212.992188 512.585938 C 213.296875 516.105469 213.25 516.007812 217.613281 521.835938 C 219.667969 524.582031 221.328125 529.179688 221.328125 532.121094 C 221.328125 533.964844 223.480469 539.140625 224.898438 540.710938 C 225.277344 541.132812 226.703125 543.636719 228.0625 546.277344 C 229.421875 548.917969 230.742188 551.328125 230.992188 551.632812 C 231.835938 552.648438 233.890625 559.265625 233.925781 561.078125 C 233.96875 563.226562 236.375 567.207031 238.890625 569.277344 C 240.761719 570.820312 242.03125 572.894531 242.03125 574.417969 C 242.03125 574.949219 243.003906 576.484375 244.191406 577.824219 C 245.726562 579.550781 246.449219 580.839844 246.675781 582.269531 C 246.929688 583.84375 247.554688 584.832031 249.542969 586.804688 C 251.390625 588.636719 252.179688 589.832031 252.421875 591.160156 C 252.636719 592.351562 253.472656 593.765625 254.804688 595.207031 C 256.425781 596.953125 256.980469 598.019531 257.441406 600.261719 C 258.15625 603.757812 258.492188 604.183594 261.589844 605.554688 C 264.480469 606.835938 265.683594 608.210938 266.898438 611.632812 C 267.96875 614.632812 272.011719 619.203125 275.203125 621.015625 C 276.421875 621.707031 278.285156 623.070312 279.34375 624.042969 C 280.402344 625.015625 282.207031 626.527344 283.355469 627.40625 C 284.503906 628.285156 285.949219 629.8125 286.574219 630.800781 C 287.449219 632.1875 288.125 632.671875 289.542969 632.929688 C 291.957031 633.371094 294.28125 634.980469 295.339844 636.949219 C 295.8125 637.820312 296.628906 638.621094 297.160156 638.726562 C 301.953125 639.683594 303.4375 640.238281 305.832031 641.949219 C 309.5 644.578125 313.351562 646.050781 317.632812 646.464844 C 319.613281 646.65625 322.101562 647.070312 323.164062 647.382812 C 324.226562 647.699219 326.4375 647.863281 328.078125 647.742188 C 330.570312 647.558594 331.824219 647.785156 335.71875 649.148438 C 339.828125 650.574219 340.808594 651.152344 343.980469 654.023438 C 345.960938 655.8125 348.046875 657.363281 348.609375 657.46875 C 354.5 658.574219 360.09375 660.585938 361.839844 662.230469 C 362.546875 662.894531 363.960938 663.785156 364.984375 664.203125 C 367.097656 665.074219 372.367188 665.222656 374.917969 664.488281 C 376.160156 664.128906 377.65625 664.199219 380.621094 664.753906 C 382.832031 665.164062 387.382812 665.558594 390.734375 665.625 C 396.359375 665.746094 396.992188 665.847656 399.03125 667.046875 C 401.570312 668.535156 402.6875 668.621094 406.515625 667.625 C 408.667969 667.0625 409.929688 667.011719 412.292969 667.390625 C 413.953125 667.65625 416.785156 667.742188 418.585938 667.585938 C 420.925781 667.382812 422.410156 667.511719 423.785156 668.027344 C 426.289062 668.972656 426.101562 668.980469 428.320312 667.824219 Z M 409.980469 394.359375 C 413.878906 393.523438 414.046875 393.269531 413.351562 389.238281 C 412.671875 385.269531 412.203125 384.929688 408.816406 385.949219 C 407.371094 386.382812 406.03125 387.308594 404.640625 388.835938 C 402.800781 390.851562 402.3125 391.117188 399.808594 391.453125 C 395.84375 391.980469 395.53125 392.59375 398.601562 393.800781 C 401.480469 394.9375 406.207031 395.167969 409.980469 394.359375 Z M 364.945312 392.457031 L 368.078125 391.488281 L 368.316406 386.796875 C 368.453125 384.21875 368.707031 381.511719 368.898438 380.785156 C 369.191406 379.667969 369.09375 379.460938 368.285156 379.460938 C 367.757812 379.460938 366.546875 379.785156 365.59375 380.183594 C 364.644531 380.578125 363.171875 380.902344 362.320312 380.902344 C 361.339844 380.902344 359.878906 381.523438 358.316406 382.601562 C 356.523438 383.832031 355.132812 384.375 353.222656 384.585938 C 350.953125 384.835938 350.296875 385.164062 348.378906 387.015625 C 347.160156 388.191406 345.320312 389.445312 344.289062 389.800781 C 343.253906 390.15625 342.410156 390.734375 342.410156 391.085938 C 342.410156 391.589844 343.996094 391.746094 349.777344 391.808594 C 355.523438 391.871094 357.375 392.054688 358.203125 392.632812 C 359.644531 393.640625 361.246094 393.597656 364.945312 392.453125 Z M 457.21875 392.425781 C 459.234375 391.992188 459.648438 391.726562 459.640625 390.859375 C 459.628906 388.921875 458.980469 388.480469 456.699219 388.847656 C 454.3125 389.226562 449.539062 391.308594 449.539062 391.964844 C 449.539062 392.902344 453.804688 393.160156 457.21875 392.425781 Z M 307.371094 386.085938 C 307.214844 383.628906 307.171875 383.558594 305.792969 383.621094 C 302.929688 383.742188 298.628906 384.761719 297.902344 385.492188 C 296.789062 386.601562 297.945312 387.148438 301.484375 387.179688 C 303.074219 387.191406 304.917969 387.511719 305.578125 387.890625 C 307.414062 388.941406 307.546875 388.808594 307.371094 386.085938 Z M 512.925781 387.410156 C 513.875 387.011719 515.34375 386.6875 516.1875 386.6875 C 517.03125 386.6875 518.144531 386.351562 518.65625 385.9375 C 519.539062 385.230469 519.496094 385.203125 517.90625 385.472656 C 510.601562 386.703125 509.558594 387 509.992188 387.699219 C 510.363281 388.300781 510.929688 388.242188 512.925781 387.410156 Z M 537.175781 384.558594 C 544.269531 382.75 544.125 382.875 542.390625 380.074219 C 541.421875 378.503906 541.242188 378.421875 539.453125 378.707031 C 538.40625 378.875 536.972656 379.308594 536.273438 379.667969 C 535.570312 380.03125 532.855469 380.667969 530.230469 381.085938 C 526.683594 381.648438 525.175781 382.117188 524.332031 382.90625 C 523.710938 383.488281 523.203125 384.144531 523.203125 384.363281 C 523.203125 384.582031 524.449219 384.777344 525.972656 384.796875 C 527.496094 384.808594 529.175781 385.015625 529.703125 385.242188 C 531.230469 385.898438 532.320312 385.796875 537.175781 384.558594 Z M 259.246094 379.542969 C 260.71875 378.609375 261.480469 371.28125 260.105469 371.28125 C 259.722656 371.28125 258.367188 371.839844 257.097656 372.527344 C 255.148438 373.574219 254.367188 373.730469 252.148438 373.515625 C 249.855469 373.289062 249.3125 373.40625 247.9375 374.457031 C 247.066406 375.121094 246.355469 375.964844 246.355469 376.328125 C 246.355469 377.691406 249.203125 379.078125 252.761719 379.453125 C 257.683594 379.96875 258.554688 379.984375 259.246094 379.542969 Z M 562.09375 378.382812 C 562.628906 377.726562 562.304688 370.796875 561.738281 370.796875 C 561.554688 370.796875 561.378906 371.898438 561.347656 373.242188 C 561.320312 374.742188 560.917969 376.320312 560.320312 377.332031 L 559.347656 378.984375 L 560.476562 378.984375 C 561.09375 378.984375 561.824219 378.710938 562.09375 378.378906 Z M 587.144531 371.480469 C 585.703125 370 585.292969 369.84375 582.8125 369.839844 C 579.679688 369.832031 579.117188 370.328125 580.261719 372.074219 C 580.886719 373.027344 581.359375 373.253906 582.347656 373.070312 C 583.050781 372.933594 584.601562 372.980469 585.792969 373.175781 C 586.988281 373.363281 588.136719 373.425781 588.347656 373.3125 C 588.558594 373.207031 588.019531 372.382812 587.144531 371.480469 Z M 420.664062 360.808594 C 422.089844 360.078125 423.324219 359.253906 423.40625 358.972656 C 423.5 358.6875 422.160156 358.183594 420.414062 357.835938 C 416.609375 357.078125 415.835938 357.488281 415.835938 360.265625 C 415.835938 361.898438 415.972656 362.132812 416.953125 362.132812 C 417.566406 362.132812 419.238281 361.535156 420.664062 360.808594 Z M 372.742188 246.867188 C 371.949219 246.515625 370.886719 245.765625 370.382812 245.199219 C 369.875 244.632812 369.226562 244.164062 368.9375 244.160156 C 368.648438 244.152344 367.867188 243.710938 367.207031 243.175781 C 366.546875 242.636719 365.195312 241.667969 364.207031 241.019531 C 362.460938 239.871094 360.464844 236.800781 360.464844 235.265625 C 360.464844 234.847656 360.054688 233.695312 359.550781 232.710938 C 358.660156 230.964844 357.695312 227.535156 355.714844 219.113281 C 354.9375 215.808594 354.847656 214.617188 355.25 213.09375 C 355.527344 212.046875 355.941406 208.265625 356.164062 204.691406 C 356.703125 196.21875 357.808594 190.21875 359.492188 186.636719 C 361.058594 183.304688 363.132812 177.335938 364.175781 173.15625 C 365.140625 169.273438 367.621094 162.976562 368.453125 162.285156 C 368.824219 161.980469 369.554688 160.28125 370.082031 158.511719 C 370.683594 156.5 371.679688 154.546875 372.734375 153.3125 C 374.15625 151.652344 374.429688 150.96875 374.429688 149.046875 C 374.429688 147.492188 374.804688 146.117188 375.597656 144.761719 C 376.300781 143.566406 376.90625 141.554688 377.113281 139.730469 C 377.339844 137.714844 377.996094 135.671875 379.058594 133.667969 C 380.550781 130.855469 380.644531 130.417969 380.394531 127.347656 C 380.242188 125.53125 379.820312 123.226562 379.445312 122.230469 C 379.070312 121.230469 378.761719 119.523438 378.761719 118.433594 C 378.761719 117.21875 378.34375 115.78125 377.679688 114.710938 C 376.796875 113.292969 376.613281 112.351562 376.679688 109.632812 C 376.773438 106.316406 376.757812 106.273438 374.640625 103.929688 C 373.472656 102.628906 372.253906 100.664062 371.9375 99.5625 C 371.277344 97.300781 367.039062 90.558594 364.96875 88.488281 C 362.8125 86.332031 362.429688 85.289062 362.410156 81.53125 C 362.378906 76.671875 363.035156 75.597656 366.953125 74.03125 C 368.6875 73.335938 370.808594 72.769531 371.667969 72.769531 C 373.867188 72.765625 379.0625 75.558594 380.859375 77.710938 C 384.972656 82.632812 386.425781 84.128906 388.746094 85.847656 C 391.746094 88.070312 392.5 89.40625 392.871094 93.164062 C 393.070312 95.179688 393.53125 96.519531 394.5 97.867188 C 396.679688 100.902344 397.167969 102.113281 397.554688 105.46875 C 397.757812 107.210938 398.699219 111.167969 399.648438 114.261719 C 401.882812 121.535156 402.230469 124.476562 401.21875 127.496094 C 400.792969 128.777344 400.25 132.046875 400.019531 134.769531 C 399.660156 139.007812 399.347656 140.226562 397.847656 143.261719 C 396.882812 145.210938 396.097656 147.425781 396.097656 148.183594 C 396.109375 150.851562 394.042969 158.515625 392.90625 160.058594 C 391.234375 162.324219 390.332031 164.476562 389.765625 167.535156 C 389.152344 170.863281 388.765625 171.632812 386.398438 174.226562 C 385.179688 175.5625 384.539062 176.722656 384.539062 177.597656 C 384.539062 178.332031 383.886719 180.230469 383.097656 181.820312 C 382.304688 183.410156 381.65625 185.164062 381.65625 185.722656 C 381.652344 186.28125 381.003906 188.015625 380.214844 189.574219 C 379.164062 191.640625 378.773438 193.097656 378.769531 194.933594 C 378.761719 197.324219 377.179688 203.761719 375.621094 207.71875 C 374.652344 210.179688 374.636719 212.8125 375.578125 214.558594 C 376.492188 216.261719 376.582031 219.164062 375.792969 221.347656 C 375.296875 222.726562 375.390625 223.265625 376.589844 225.941406 C 377.871094 228.800781 377.917969 229.128906 377.390625 231.679688 C 376.984375 233.660156 376.976562 234.789062 377.363281 235.894531 C 377.953125 237.589844 377.121094 245.867188 376.25 246.9375 C 375.628906 247.699219 374.585938 247.675781 372.746094 246.863281 Z M 492.21875 221.175781 C 492.097656 220.976562 491.628906 219.40625 491.183594 217.6875 C 490.738281 215.96875 489.640625 213.042969 488.746094 211.191406 C 486.261719 206.050781 485.773438 203.429688 485.703125 194.929688 C 485.644531 186.90625 485.882812 185.6875 488.117188 182.929688 C 488.925781 181.929688 489.246094 180.703125 489.492188 177.632812 C 489.863281 173.019531 490.285156 172.023438 493.15625 169.054688 C 494.636719 167.523438 495.605469 165.890625 496.4375 163.519531 C 498.328125 158.113281 501.074219 152.140625 502.734375 149.804688 C 504.839844 146.84375 504.988281 146.359375 505.449219 141.136719 C 505.667969 138.621094 506.089844 134.179688 506.386719 131.265625 C 506.882812 126.355469 507.066406 116.570312 506.78125 110.324219 C 506.625 106.933594 507.59375 105.0625 510.542969 103.035156 C 513.625 100.914062 516.066406 100.136719 518.453125 100.519531 C 520.699219 100.878906 524.355469 103.191406 525.804688 105.167969 C 526.917969 106.679688 527.636719 111.449219 527.75 118.027344 C 527.796875 120.277344 528.101562 123.25 528.445312 124.628906 C 529.003906 126.871094 528.964844 127.515625 528.089844 130.648438 C 527.550781 132.578125 526.863281 135.890625 526.558594 138.007812 C 526.253906 140.125 525.59375 143.371094 525.085938 145.21875 C 524.578125 147.070312 524.167969 149.261719 524.167969 150.09375 C 524.167969 152.316406 522.894531 155.5625 521.183594 157.691406 C 520.359375 158.71875 519.511719 160.492188 519.296875 161.628906 C 518.898438 163.773438 516.597656 168.8125 512.855469 175.726562 C 511.664062 177.9375 510.683594 180.167969 510.683594 180.6875 C 510.683594 181.207031 510.332031 182.308594 509.902344 183.140625 C 508.652344 185.5625 508.25 187.300781 507.792969 192.261719 C 507.28125 197.777344 505.425781 203.730469 503.4375 206.226562 C 502.601562 207.277344 501.8125 209.050781 501.507812 210.5625 C 500.75 214.34375 500.117188 215.679688 498.585938 216.773438 C 497.824219 217.316406 497.203125 218.167969 497.203125 218.667969 C 497.203125 219.972656 495.324219 221.542969 493.769531 221.542969 C 493.042969 221.542969 492.34375 221.378906 492.21875 221.179688 Z M 441.113281 219.425781 C 440.050781 219.09375 438.644531 218.539062 437.984375 218.191406 C 435.8125 217.050781 431.667969 213.253906 430.398438 211.238281 C 429.714844 210.152344 428.625 208.464844 427.984375 207.484375 C 425.191406 203.238281 423.875 195.917969 424.46875 187.972656 C 424.789062 183.664062 425.09375 182.203125 425.976562 180.75 C 426.585938 179.75 427.132812 178.066406 427.199219 177.003906 C 427.671875 169.300781 428.164062 166.328125 429.28125 164.488281 C 430.226562 162.925781 430.453125 161.878906 430.484375 158.949219 C 430.511719 155.558594 430.636719 155.160156 432.476562 152.410156 C 434.144531 149.910156 434.523438 148.851562 435.058594 145.1875 C 436.105469 138.027344 436.398438 137.257812 438.988281 134.808594 C 441.109375 132.800781 441.355469 132.355469 441.363281 130.476562 C 441.375 129.320312 441.824219 127.402344 442.371094 126.210938 C 443.785156 123.132812 445.96875 115.925781 447.695312 108.636719 C 448.507812 105.195312 449.386719 101.972656 449.644531 101.480469 C 449.902344 100.988281 450.167969 97.628906 450.234375 94.019531 C 450.324219 89.253906 450.589844 86.800781 451.199219 85.085938 C 451.84375 83.265625 451.976562 81.816406 451.777344 78.824219 C 451.421875 73.484375 450.742188 69.492188 449.828125 67.367188 C 449.402344 66.382812 449.058594 64.800781 449.058594 63.851562 C 449.058594 62.902344 448.753906 61.539062 448.382812 60.820312 C 447.417969 58.953125 444.242188 49.328125 444.242188 48.269531 C 444.242188 47.78125 443.839844 46.863281 443.347656 46.230469 C 442.851562 45.597656 441.984375 44.214844 441.417969 43.15625 C 440.851562 42.097656 439.910156 40.632812 439.328125 39.902344 C 438.703125 39.117188 438.0625 37.316406 437.765625 35.511719 C 437.300781 32.6875 437.09375 32.320312 435.128906 30.820312 C 433.933594 29.90625 432.507812 28.210938 431.882812 26.960938 C 431.269531 25.730469 429.96875 24.023438 428.988281 23.164062 C 426.414062 20.902344 421.582031 15.007812 420.820312 13.199219 C 419.464844 9.976562 420.367188 6.628906 423.453125 3.441406 C 425.285156 1.546875 426.117188 1.050781 427.90625 0.789062 C 431.734375 0.222656 440.003906 3.0625 442.628906 5.839844 C 448.132812 11.671875 448.515625 12.199219 449.832031 15.816406 C 450.726562 18.261719 451.882812 20.304688 453.25 21.84375 C 454.386719 23.121094 455.652344 24.976562 456.0625 25.960938 C 456.472656 26.945312 457.539062 28.507812 458.433594 29.433594 C 459.449219 30.488281 460.34375 32.128906 460.828125 33.816406 C 461.265625 35.332031 462.144531 37.019531 462.839844 37.667969 C 463.519531 38.304688 464.378906 39.40625 464.75 40.125 C 465.550781 41.65625 465.636719 45.191406 464.925781 47.066406 C 464.476562 48.238281 464.789062 49.113281 467.667969 54.773438 C 470.75 60.828125 470.921875 61.335938 470.980469 64.675781 C 471.011719 66.609375 471.324219 68.917969 471.667969 69.800781 C 472.074219 70.847656 472.191406 72.441406 472.003906 74.375 C 471.847656 76.007812 471.5 79.507812 471.234375 82.15625 C 470.585938 88.683594 470.605469 95.132812 471.28125 97.386719 C 471.980469 99.714844 471.105469 105.402344 469.667969 107.898438 C 468.875 109.277344 468.761719 110.070312 469.015625 112.472656 C 469.285156 115.015625 469.167969 115.675781 468.066406 117.785156 C 467.375 119.109375 466.492188 121.210938 466.105469 122.457031 C 465.71875 123.699219 464.902344 125.328125 464.289062 126.066406 C 461.972656 128.867188 459.601562 134.792969 458.675781 140.09375 C 457.652344 145.964844 455.757812 151.417969 454.132812 153.171875 C 452.292969 155.160156 451.335938 157.554688 450.90625 161.238281 C 450.683594 163.15625 450.316406 166.296875 450.09375 168.21875 C 449.867188 170.136719 449.21875 172.625 448.648438 173.742188 C 446.832031 177.289062 446.265625 180.457031 446.535156 185.550781 C 446.730469 189.292969 446.609375 190.691406 445.941406 192.441406 C 445.425781 193.796875 445.226562 195.132812 445.425781 195.929688 C 445.835938 197.570312 446.738281 207.449219 446.796875 210.949219 C 446.84375 214.027344 446.359375 218.914062 445.925781 219.613281 C 445.53125 220.253906 443.488281 220.175781 441.113281 219.425781 Z M 441.113281 219.425781 " fill-opacity="1" fill-rule="nonzero"/></g></svg>