<svg width="1080" height="1080" viewBox="0 0 1080 1080" fill="none" xmlns="http://www.w3.org/2000/svg">
<g clip-path="url(#clip0_228_169)">
<path d="M501.615 889.776C498.823 889.125 480.511 888.24 473.932 888.432C471.594 888.495 468.531 888.13 466.875 887.583C463.99 886.625 460.141 886.5 443.37 886.828C437.25 886.953 436.505 886.828 434.578 885.458C432.526 883.995 432.396 883.984 429.781 884.979C426.656 886.177 422.469 886.234 418.859 885.141C417.078 884.599 415.401 884.542 413.276 884.958C410.495 885.5 409.886 885.375 406.182 883.495C402.636 881.698 401.943 881.542 400.641 882.24C398.547 883.359 389.776 883.474 384.484 882.453C382.037 881.979 377.214 880.865 373.771 879.974C367.63 878.391 367.458 878.38 364.412 879.464C361.734 880.411 360.932 880.453 358.573 879.755C357.068 879.313 354.266 878.578 352.339 878.13C350.412 877.688 347.922 876.839 346.802 876.255C345.422 875.542 343.156 875.193 339.797 875.177C337.068 875.161 332.828 874.844 330.375 874.458C327.927 874.078 321.578 873.714 316.271 873.651C306.854 873.531 306.557 873.49 303.927 871.75C301.865 870.385 300.74 870.047 299.136 870.307C297.984 870.484 295.203 870.266 292.958 869.792C290.469 869.271 286.912 869.068 283.844 869.266C279.995 869.521 278.141 869.349 275.948 868.5C274.375 867.896 271.224 867.182 268.948 866.911C266.672 866.641 263.693 866.12 262.328 865.76C260.958 865.396 257.667 864.922 255.005 864.708C247.396 864.099 246.313 863.823 243.823 861.844C241.886 860.302 241.214 860.089 239.896 860.583C237.203 861.609 231.75 861.255 227.495 859.786C224.104 858.615 221.995 858.375 214.787 858.354C206.438 858.333 206.052 858.276 203.641 856.599C201.396 855.042 200.453 854.839 194.146 854.552C190.297 854.375 186.146 853.943 184.922 853.578C183.703 853.214 181.698 852.911 180.469 852.906C179.24 852.906 176.375 852.313 174.099 851.599C171.823 850.885 167.974 850.167 165.542 850.005C163.115 849.844 158.245 848.88 154.724 847.865C150.787 846.729 146.031 845.88 142.396 845.656C135.797 845.245 135.287 845.057 131.125 841.453C129.511 840.057 127.703 838.911 127.115 838.911C123.932 838.896 119.359 833.938 119.354 830.479C119.354 829.521 118.75 826.995 118.016 824.87C116.802 821.354 116.719 820.182 117.125 811.974C117.537 803.635 117.464 802.682 116.198 799.5C114.927 796.286 114.865 795.349 115.255 785.813C115.49 780.182 115.615 771.802 115.542 767.188C115.464 761.995 115.703 757.911 116.172 756.479C116.771 754.667 116.766 753.505 116.156 751.182C115.729 749.542 115.318 745.193 115.24 741.516C115.162 737.844 114.719 733.615 114.255 732.125C113.609 730.042 113.563 728.13 114.047 723.849C114.396 720.755 114.443 717.438 114.146 716.375C113.177 712.88 113.599 708.844 115.344 704.917C117.359 700.375 117.427 696.984 115.583 693.479C114.094 690.651 113.938 686.958 115.167 683.589C115.833 681.76 115.823 680.917 115.125 678.896C114.005 675.682 114.037 673.995 115.287 670.865C116.156 668.693 116.198 667.698 115.573 664.328C115.011 661.302 115.016 658.302 115.583 651.76C116.276 643.885 117.016 622.656 116.896 614.203C116.875 612.276 117.136 609.25 117.484 607.474C118.031 604.719 117.938 603.839 116.844 601.427C115.297 598.026 115.13 592.188 116.458 587.792C118.115 582.281 118.281 578.438 117.099 573.109C116.198 569.063 116.068 566.505 116.406 559.495C116.641 554.646 117.266 549.438 117.828 547.609C118.792 544.505 118.776 544.24 117.516 541.771C116.333 539.453 116.229 538.438 116.552 531.974C116.755 528.01 117.302 523.542 117.781 522.052C118.531 519.687 118.511 519.026 117.641 516.958C116.136 513.422 115.88 498.953 117.266 495.859C118.771 492.495 119.193 475.979 118.365 452.771C118.068 444.484 118.203 441.755 119.031 438.531C119.74 435.812 119.932 433.458 119.641 431.141C119.396 429.167 119.521 426.443 119.958 424.646C120.589 422.036 120.537 421.109 119.636 418.729C117.922 414.214 117.823 410.958 119.255 406.208C120.313 402.687 120.438 401.328 119.943 398.724C119.323 395.505 119.526 393.385 120.797 389.687C121.37 388.036 121.287 387.187 120.344 385.104C119.349 382.896 119.255 381.578 119.651 375.359C120.266 365.703 120.271 363.896 119.672 353.458C119.323 347.328 119.386 343.844 119.854 342.474C120.396 340.922 120.344 339.984 119.63 338.266C119.063 336.917 118.703 333.922 118.703 330.557C118.703 325.823 118.938 324.625 120.375 321.984C121.646 319.651 121.948 318.411 121.636 316.807C120.083 308.76 120.708 305.958 124.625 303.484C126.333 302.401 127.37 302.25 131.068 302.531C134.083 302.76 136.641 302.542 139.156 301.839C142.578 300.885 143.042 300.896 145.693 301.901C148.057 302.802 149.719 302.917 155.458 302.552C161.339 302.177 162.693 302.276 164.5 303.214C166.177 304.083 166.948 304.167 168.156 303.615C170.198 302.682 175.099 302.724 176.833 303.693C179.063 304.927 196.724 306.125 200.391 305.292C202.719 304.76 204.182 304.786 206.438 305.391C208.078 305.833 211.995 306.339 215.146 306.521C218.297 306.703 222 307.271 223.375 307.786C225.229 308.484 229.839 308.807 241.198 309.036C254.641 309.302 256.839 309.49 259.073 310.568C261.219 311.604 262.469 311.734 267.042 311.411C272.104 311.057 272.698 311.146 275.948 312.797C279.344 314.516 279.63 314.552 287.016 314.177C293.547 313.849 295.115 313.974 298.333 315.057C301.901 316.26 302.261 316.271 306.037 315.286C311.271 313.917 314.099 314.01 317.344 315.667C319.63 316.833 320.984 317.021 326.469 316.922C339.266 316.687 352.495 317.422 356.146 318.568C358.563 319.323 361.38 319.625 365.224 319.526C370.052 319.406 371.287 319.604 374.401 321.036C377.922 322.646 378.057 322.661 380.75 321.63C384.026 320.38 389.625 320.797 394.307 322.646C397.688 323.974 406.943 324.422 414.432 323.62C417.948 323.245 419.344 323.349 420.813 324.109C422.276 324.865 425.068 325.083 433.5 325.089C439.448 325.089 447.318 325.422 450.995 325.818C454.672 326.214 460.724 326.505 464.448 326.464C469.313 326.406 471.891 326.677 473.625 327.401C475.573 328.214 477.599 328.333 484.359 328.042C491.599 327.724 493.318 327.859 497.464 329.016C500.094 329.745 502.906 330.516 503.724 330.724C504.542 330.927 506.922 330.583 509.005 329.948C512.287 328.958 513.427 328.896 517.386 329.51C520.063 329.927 524.958 330.068 529.136 329.844C535.245 329.521 536.682 329.635 538.87 330.625C541.271 331.708 541.656 331.719 544.755 330.786C548.901 329.526 556.891 329.479 559.807 330.703C561.62 331.458 562.865 331.49 567.031 330.885C571.422 330.245 572.542 330.292 575.797 331.276C580.115 332.583 583.432 332.349 589.958 330.276C594.474 328.844 595.875 328.932 600.99 331.005C602.734 331.708 603.391 331.635 606.203 330.427C609.927 328.823 612.505 328.682 615.474 329.922C617.031 330.573 619.495 330.724 624.844 330.49C632.448 330.161 634 330.151 643.948 330.349C647.307 330.411 651.089 330.135 652.349 329.719C653.604 329.302 656.724 329.031 659.281 329.109C662.464 329.214 664.813 328.911 666.729 328.167C669.323 327.151 669.766 327.146 672.776 328.083C675.724 329.005 676.281 329.01 678.807 328.104C680.339 327.562 683.089 327.12 684.917 327.12C686.745 327.12 689.172 326.656 690.307 326.089C691.88 325.302 693.156 325.172 695.656 325.536C701.094 326.328 705.979 326 709.25 324.62C714.552 322.385 717.25 322.104 726.99 322.771C734.724 323.302 736.662 323.245 739.203 322.427C740.865 321.891 743.662 321.26 745.412 321.021C747.162 320.786 749.151 320.297 749.839 319.943C752.177 318.724 760.526 316.932 763.854 316.932C765.682 316.932 771.162 315.932 776.026 314.714C780.896 313.495 785.787 312.49 786.896 312.484C789.995 312.474 796.073 310.74 800.443 308.62C802.615 307.568 805.729 306.536 807.365 306.328C809 306.12 811.313 305.359 812.5 304.646C813.974 303.76 815.662 303.375 817.839 303.422C819.74 303.464 822.969 302.844 825.849 301.875C829.198 300.75 831.458 300.354 833.203 300.589C834.781 300.802 836.391 300.578 837.521 300C840.662 298.375 851.276 295.927 855.172 295.927C858.021 295.927 859.896 295.469 862.958 294.016C865.177 292.964 867.365 292.109 867.818 292.104C868.266 292.104 869.787 291.521 871.188 290.802C872.807 289.979 874.734 289.557 876.469 289.646C878.578 289.745 879.698 289.406 881.412 288.099C883.938 286.172 890.948 284.464 896.349 284.464C898.375 284.464 900.698 284.021 901.88 283.401C903 282.818 904.917 282.135 906.146 281.885C909.599 281.182 914.995 279.599 919.193 278.057C921.823 277.089 924.698 276.609 928.427 276.521C932.104 276.443 935.162 275.932 937.974 274.958C940.656 274.026 944.24 273.411 948.156 273.214C951.484 273.031 955.287 272.495 956.604 272C957.927 271.5 960.583 271.094 962.516 271.094C964.443 271.094 967.797 270.5 969.964 269.771C973.354 268.625 974.828 268.495 980.604 268.828C984.292 269.042 989.745 269.307 992.719 269.417C995.693 269.536 998.99 269.974 1000.04 270.406C1001.24 270.901 1004.66 271.156 1009.27 271.089C1018.81 270.948 1025.54 271.812 1028.36 273.542C1029.99 274.542 1031.63 274.911 1034.44 274.911C1037.02 274.911 1039.1 275.328 1040.78 276.187C1042.15 276.885 1044.2 277.458 1045.33 277.458C1046.46 277.458 1048.16 277.76 1049.12 278.12C1052.68 279.474 1064.1 288.37 1070.54 294.807C1072.55 296.823 1074.44 298.469 1074.73 298.469C1075.02 298.469 1076.21 299.651 1077.38 301.099C1079.97 304.333 1079.47 305.615 1075.41 306.172C1072.36 306.594 1063.23 305.432 1059.36 304.135C1057.44 303.49 1056.17 303.479 1053.28 304.073C1048.81 304.995 1046.38 305.021 1041.77 304.198C1039.83 303.844 1037.19 303.411 1035.91 303.224C1034.64 303.047 1032.52 302.036 1031.21 300.995C1029.4 299.552 1028.17 299.099 1026.06 299.099C1024.55 299.099 1022.22 298.698 1020.9 298.203C1017.97 297.104 1011.92 296.297 1007.85 296.469C1006.02 296.547 1002.97 295.969 1000.09 295.005C996.125 293.672 995.021 293.526 993.339 294.109C992.234 294.495 989.537 294.667 987.344 294.49C984.677 294.276 982.542 294.479 980.88 295.109C978.755 295.911 970.542 296.818 959.615 297.453C958.042 297.557 955.047 298.099 952.958 298.682C950.87 299.26 948.255 299.74 947.141 299.74C946.026 299.74 943.865 300.307 942.339 301C939.208 302.417 936.125 302.62 933.245 301.583C931.526 300.969 930.682 301.161 926.313 303.161C923.573 304.411 919.563 305.755 917.401 306.146C915.234 306.531 912.432 307.115 911.162 307.432C909.901 307.75 906.828 308.016 904.344 308.016C900.281 308.016 899.609 308.198 897.734 309.833C894.261 312.859 891.615 313.932 888.625 313.521C886.443 313.224 885.573 313.443 883.865 314.698C882.672 315.578 879.688 316.693 876.927 317.286C871.474 318.464 865.302 320.078 858.719 322.047C851.573 324.182 837.021 326.073 832.521 325.443C829.865 325.073 826.516 326.271 816.104 331.318C814.37 332.156 812.333 332.839 811.568 332.839C810.802 332.839 809.151 333.271 807.891 333.797C806.636 334.323 804.917 334.75 804.078 334.75C803.234 334.75 801.219 335.339 799.594 336.052C797.547 336.964 795.521 337.318 792.99 337.229C790.63 337.151 788.625 337.464 787.333 338.135C786.229 338.703 784.083 339.349 782.557 339.573C781.031 339.797 778.511 340.396 776.953 340.901C775.255 341.453 773.177 341.661 771.761 341.422C770.083 341.141 767.318 341.604 762.25 343.005C750.125 346.37 746.886 346.896 742.865 346.156C740.287 345.677 738.682 345.698 737.083 346.234C735.865 346.635 732.511 347.224 729.636 347.542C721.068 348.484 718.182 349.094 715.359 350.557C712.203 352.193 709.964 352.302 706.261 350.995C703.766 350.115 703.234 350.135 699.479 351.297C695.984 352.375 694.958 352.448 692.255 351.828C688.87 351.047 686.391 351.396 677.047 353.984C671.87 355.417 667.609 355.276 664.297 353.562C662.583 352.677 661.969 352.672 658.693 353.484C650.136 355.625 637.995 356.328 625.563 355.406C621.802 355.13 618.682 355.229 616.969 355.687C611.896 357.036 550.234 357.682 540.755 356.49C538.125 356.156 531.109 355.984 525.156 356.104C515.193 356.312 514.162 356.229 512.136 355.031C510.089 353.833 509.578 353.797 505.073 354.495C500.557 355.198 499.99 355.156 497 353.87C493.922 352.542 493.656 352.526 490.776 353.51C487.521 354.615 486.651 354.505 481.995 352.427L478.938 351.057L474.521 352.594C470.578 353.958 469.818 354.042 467.396 353.344C459.844 351.167 458.156 351 454.984 352.13C451.74 353.281 449.339 353.271 434.448 352.026C429.729 351.635 425.453 350.922 423.943 350.276C420.922 348.979 407.068 348.219 397.208 348.812C393.984 349.016 392.906 348.776 390.318 347.328C387.802 345.922 386.745 345.677 384.479 345.99C382.958 346.198 380.828 346.068 379.75 345.687C378.276 345.172 377.047 345.219 374.771 345.885C370.094 347.25 358.636 346.771 354.375 345.036C352.521 344.281 350.193 343.661 349.203 343.661C348.208 343.661 346.287 343.276 344.927 342.802C340.745 341.344 332.349 340.937 329.667 342.057C326.662 343.312 322.974 343.286 320 341.995C318.172 341.203 315.458 340.969 308.083 340.964C300.167 340.964 297.964 340.745 295.162 339.703C292.245 338.625 290.896 338.51 285.266 338.896C279.599 339.281 278.052 339.151 273.401 337.896C268.604 336.604 267.589 336.526 263.563 337.161C260.672 337.62 257.932 337.667 255.886 337.302C254.136 336.99 251.13 336.708 249.203 336.682C246.813 336.641 244.406 336.047 241.62 334.797C237.766 333.068 237.401 333.021 235.016 333.859C231.406 335.135 228.995 334.969 226.026 333.234C223.646 331.844 223.136 331.776 220.089 332.401C217.349 332.969 216.162 332.901 213.438 332.031C210.328 331.036 209.927 331.036 207.047 332.068C204.083 333.125 203.844 333.115 200.328 331.865C197.917 331 196.042 330.708 194.776 330.995C190.422 331.979 187.068 331.63 184.547 329.917C182.266 328.365 181.88 328.302 178.891 328.937C177.125 329.312 173.302 329.781 170.401 329.979C166.037 330.276 164.636 330.12 162.344 329.109C159.797 327.984 159 327.943 152.448 328.589L145.323 329.292L145.787 331.87C146.047 333.281 146.214 338.88 146.167 344.307C146.125 349.734 146.109 355.323 146.146 356.724C146.287 362.396 146.287 367.76 146.167 371.682C146.109 373.958 146.047 379.224 146.047 383.385C146.063 389.562 145.823 391.474 144.792 393.812C143.136 397.557 143.167 401.552 144.87 404.448C146.083 406.5 146.177 407.318 145.792 412.599C145.557 415.828 145.25 422.036 145.104 426.396C144.943 431.297 144.432 435.604 143.781 437.682C142.755 440.932 142.766 441.146 144.078 444.198C145.698 447.969 145.797 450.62 144.401 453.312C143.578 454.906 143.469 456.203 143.854 459.802C144.386 464.698 144.552 472.01 144.255 477.031C144.156 478.786 144.094 484.99 144.115 490.823C144.136 496.656 143.886 502.172 143.542 503.078C143.125 504.182 143.136 505.302 143.583 506.474C144.427 508.672 144.609 517.609 143.88 520.854C143.526 522.437 143.62 524.807 144.151 527.63C144.912 531.661 144.875 532.156 143.641 534.734C140.984 540.271 140.917 540.729 142.313 543.875C143.432 546.406 143.557 547.677 143.261 553.604C142.484 569.151 142.453 573.38 143.078 577.724C143.636 581.573 143.568 582.87 142.625 586C141.604 589.406 141.594 589.901 142.505 592.073C143.771 595.068 143.771 597.406 142.505 600.927C141.458 603.849 141.662 612.667 142.912 618.438C143.318 620.307 143.208 622.099 142.537 624.672C142.021 626.656 141.599 629.432 141.599 630.833C141.599 632.24 141.276 635.344 140.88 637.74C140.271 641.417 140.323 642.568 141.198 645.135C142.557 649.135 142.505 651.818 140.922 659.13C139.943 663.656 139.761 665.714 140.214 667.24C140.547 668.359 141.193 671.38 141.641 673.953C142.37 678.115 142.339 678.979 141.339 681.922C139.938 686.036 139.662 699.198 140.844 705.245C141.849 710.391 141.5 732.99 140.323 738.938C139.734 741.911 139.698 743.563 140.182 744.984C140.563 746.083 140.854 752.109 140.849 758.719C140.849 765.193 141.011 774.484 141.229 779.37C141.469 784.859 141.37 789 140.953 790.24C140.458 791.75 140.516 792.766 141.208 794.417C141.708 795.615 142.313 798.885 142.552 801.688C142.927 806.042 142.797 807.271 141.646 810.167L140.302 813.557L142.026 816.62C143.901 819.958 143.104 819.651 153.521 821.042C155.354 821.286 157.646 822.068 158.615 822.781C160.682 824.302 165.287 825.005 174.974 825.281C183.146 825.51 184.208 825.729 187.359 827.813C189.328 829.115 190.922 829.479 196.62 829.922C200.589 830.234 204.641 830.219 206.188 829.885C208.271 829.443 209.511 829.557 211.682 830.411C213.224 831.021 216.203 831.557 218.302 831.609C224.37 831.75 224.547 831.807 228.511 834.188C232.24 836.432 232.328 836.448 237.068 835.953C243.5 835.281 245.052 835.5 249.313 837.688C251.792 838.964 253.912 839.563 255.995 839.583C257.672 839.599 260.005 840.125 261.188 840.75C263.172 841.807 263.583 841.823 266.807 840.932C269.656 840.135 270.797 840.099 273.12 840.724C274.682 841.141 277.057 841.307 278.396 841.094C280.146 840.813 281.677 841.073 283.807 842.016C286.214 843.078 287.552 843.26 290.833 842.953C294.297 842.63 295.339 842.792 297.974 844.094C300.401 845.286 302.141 845.625 306.151 845.667C314.828 845.745 319.906 846.531 326.776 848.818C330.417 850.031 333.912 851.021 334.542 851.021C335.172 851.021 337.208 851.406 339.063 851.88C341.49 852.5 344.302 852.615 349.12 852.292C353.891 851.969 356.531 852.073 358.349 852.651C360.698 853.401 366.047 853.87 379.464 854.51C382.761 854.667 385.438 855.161 386.781 855.87C388.255 856.646 390.656 857.031 394.636 857.141C397.787 857.219 404.229 857.625 408.958 858.031C418.797 858.865 427.182 859.349 431.016 859.292C432.469 859.276 435.438 859.875 437.615 860.625C441.287 861.896 441.927 861.938 446.266 861.198C449.042 860.724 452.589 860.568 454.943 860.818C457.136 861.047 461.651 861.234 464.974 861.229C469.583 861.219 471.854 861.536 474.521 862.547C479.047 864.266 486.974 864.193 492.833 862.391C496.542 861.245 497.682 861.182 504.979 861.745C509.412 862.083 515.688 862.385 518.927 862.401C522.172 862.422 526.031 862.766 527.511 863.167C529.557 863.719 531.302 863.703 534.807 863.104C539.115 862.37 539.662 862.411 543.318 863.781C547.162 865.219 547.276 865.224 550.339 864.12C552.74 863.255 555.24 863.021 561.255 863.089C567.693 863.172 578.615 862.911 592.292 862.396C593.516 862.354 596.042 862.536 597.906 862.813C600.448 863.193 602.495 863.016 606.073 862.13C610.844 860.938 610.854 860.938 616.214 862.359L621.583 863.781L624.917 862.083C628.125 860.453 628.693 860.38 639.714 860.245C646.318 860.167 652.375 859.776 654.016 859.328C655.818 858.833 658.495 858.703 661.339 858.964C664.636 859.271 666.547 859.125 668.599 858.385C670.13 857.844 672.708 857.401 674.333 857.401C675.953 857.401 678.24 857.125 679.406 856.792C680.833 856.38 682.557 856.417 684.625 856.891C687.912 857.651 693.828 856.729 700.823 854.401C702.573 853.813 706.011 853.281 708.464 853.219C713.589 853.078 718.052 851.969 722.151 849.807C725.136 848.224 728.901 847.859 732.974 848.75C734.927 849.177 735.641 848.932 738.703 846.828C740.912 845.302 744.427 843.75 748.25 842.615C751.573 841.625 755.729 840.135 757.479 839.297C759.229 838.458 762.495 836.891 764.729 835.813C767.276 834.578 769.792 833.844 771.453 833.844C772.917 833.844 775.302 833.271 776.755 832.568C778.214 831.865 781.203 830.87 783.401 830.365C791.964 828.391 793.391 827.792 795.99 825.089C798.938 822.021 802.479 820.797 806.604 821.417C808.896 821.76 809.682 821.573 811.422 820.281C814.583 817.938 824.245 813.474 826.167 813.474C827.104 813.474 828.932 812.948 830.234 812.302C831.531 811.656 835.031 810.448 838.005 809.62C840.979 808.792 844.422 807.464 845.651 806.672C846.88 805.88 850.75 804.167 854.245 802.865C859.537 800.896 861.458 800.495 865.698 800.453C870.24 800.417 871.089 800.203 873.568 798.531C875.938 796.932 877.156 796.599 881.844 796.286C886.458 795.984 887.948 795.589 891.162 793.823C894.438 792.021 895.432 791.766 898.162 792.031C900.771 792.281 901.688 792.073 903.255 790.901C905.901 788.911 907.656 788.438 912.802 788.318C915.255 788.255 918.547 787.724 920.125 787.12C921.698 786.521 924.563 785.781 926.49 785.479C928.412 785.172 931.708 784.302 933.807 783.536C936.854 782.427 939.302 782.115 945.906 781.974C950.453 781.875 954.984 781.479 955.974 781.083C956.958 780.693 958.781 780.37 960.026 780.37C961.266 780.37 963.667 779.88 965.359 779.281C968.214 778.266 968.818 778.26 973.719 779.177C977.375 779.87 981.261 780.089 986.328 779.891C990.354 779.734 996.12 779.62 999.136 779.641L1004.63 779.677L1005.14 777.005C1005.79 773.563 1005.79 764.911 1005.14 761.469C1004.74 759.375 1004.93 757.901 1006.07 754.714L1007.51 750.641L1005.99 748.583C1004.13 746.073 1004.04 742.297 1005.65 734.859C1006.56 730.682 1006.62 729.286 1006.02 727.089C1005.61 725.615 1005.4 722.464 1005.56 720.089C1005.74 717.453 1005.54 715.016 1005.05 713.854C1004.16 711.677 1004.01 698.536 1004.88 696.875C1005.17 696.292 1005.47 692.135 1005.53 687.646C1005.63 680.292 1005.49 679.198 1004.19 676.672C1002.78 673.906 1002.77 673.724 1003.57 665.849C1004.03 661.443 1004.32 653.828 1004.22 648.927C1004.02 638.333 1004.01 634 1004.2 630.146C1004.28 628.568 1004.28 626.281 1004.22 625.052C1004.04 622.099 1004.65 610.635 1005.11 608.031C1005.34 606.776 1005.06 604.734 1004.38 602.818C1003.41 600.099 1003.36 599.161 1004.01 595.969C1004.45 593.766 1004.56 591.37 1004.26 590.042C1003.97 588.818 1003.81 583.495 1003.89 578.214C1003.98 570.833 1004.26 568.151 1005.05 566.625C1005.71 565.344 1006.08 563 1006.09 559.995C1006.1 556.948 1006.49 554.469 1007.23 552.802C1008.16 550.724 1008.34 548.729 1008.23 541.979C1008.16 537.427 1007.79 532.896 1007.41 531.911C1006.33 529.13 1006.58 522.49 1008.03 516.031C1008.85 512.302 1009.2 509.104 1008.97 507.286C1008.77 505.703 1009.05 502.146 1009.59 499.328C1010.14 496.526 1010.96 490.198 1011.42 485.26C1011.88 480.323 1012.46 475.943 1012.72 475.531C1012.97 475.115 1013.28 472.391 1013.41 469.479C1013.64 463.823 1015.51 456.984 1017.38 454.901C1018.31 453.87 1018.46 452.599 1018.34 447.286C1018.22 441.943 1018.4 440.536 1019.45 438.609C1020.61 436.5 1024.55 424.089 1025.73 418.802C1026.52 415.339 1030.89 404.625 1032.11 403.208C1033.75 401.292 1035.88 395.943 1036.3 392.656C1036.53 390.891 1037.55 388.422 1038.89 386.391C1040.1 384.552 1041.09 382.422 1041.09 381.656C1041.09 380.891 1041.8 379.229 1042.66 377.958C1043.53 376.682 1044.71 374.396 1045.29 372.875C1045.87 371.349 1047.27 368.099 1048.4 365.651C1049.53 363.198 1050.68 360.479 1050.95 359.604C1051.62 357.406 1052.51 356.422 1053.82 356.422C1056.1 356.422 1056.51 357.891 1055.69 363.219C1055.27 365.958 1054.97 369.37 1055.03 370.802C1055.09 372.312 1054.55 374.729 1053.75 376.531C1052.41 379.573 1052.16 381.141 1051.72 389.318C1051.6 391.479 1051.14 393.693 1050.69 394.234C1050.14 394.901 1050.01 396.187 1050.29 398.255C1050.56 400.26 1050.37 402.385 1049.72 404.479C1049.18 406.229 1048.74 408.271 1048.74 409.016C1048.74 409.76 1048.15 411.693 1047.43 413.307C1046.35 415.745 1046.22 416.786 1046.69 419.344C1047.09 421.547 1046.99 423.432 1046.36 425.875C1045.82 427.979 1045.41 433.516 1045.31 440.198C1045.15 450.672 1045.08 451.193 1043.45 453.964C1042.05 456.359 1041.83 457.354 1042.11 459.943C1042.38 462.359 1042.15 463.609 1041.09 465.594C1040.1 467.448 1039.5 470.38 1038.89 476.411C1038.38 481.531 1037.64 485.5 1036.95 486.812C1036.01 488.625 1035.92 489.969 1036.3 496.125C1036.79 503.844 1036 509.646 1033.31 518.198C1032.02 522.276 1032.02 522.568 1033.03 526.198C1034.44 531.229 1034.36 534.484 1032.77 537.469C1031.62 539.615 1031.53 540.302 1032.13 542.677C1033.14 546.672 1032.99 548.51 1031.43 551.286C1030.17 553.516 1030.11 554.068 1030.77 556.786C1031.31 559.026 1031.33 562.844 1030.83 571.583C1029.31 598.141 1029.1 614.729 1030.23 620.026C1030.62 621.833 1030.64 623.792 1030.28 625.12C1029.29 628.797 1029.21 638.938 1029.83 675.979C1030.04 687.745 1029.88 695.677 1029.34 700.167C1028.83 704.411 1028.76 707.547 1029.12 708.76C1029.96 711.568 1030.29 716.677 1030.61 732.313C1031.03 752.849 1031.22 756.365 1032.02 757.823C1032.43 758.578 1032.75 762.38 1032.77 766.734C1032.79 770.911 1032.85 774.901 1032.89 775.604C1032.97 776.693 1032.4 781.453 1031.11 790.474C1030.92 791.844 1029.82 793.682 1028.07 795.568C1026.56 797.188 1025.11 799.234 1024.85 800.109C1023.97 803.005 1022.01 805.089 1019.13 806.188C1016.47 807.203 1016.09 807.208 1013.02 806.203C1010.46 805.365 1007.44 805.141 999.156 805.172C987.844 805.208 975.833 805.583 967.557 806.146C964.755 806.349 959.313 806.594 955.464 806.724C951.609 806.844 944.427 807.354 939.495 807.839C931.386 808.646 930.339 808.896 928.511 810.432C927.266 811.479 925.339 812.297 923.474 812.563C921.813 812.807 918.781 813.693 916.745 814.542C914.703 815.391 911.13 816.26 908.802 816.479C906.401 816.703 903.662 817.406 902.469 818.115C900.667 819.177 899.688 819.292 895.662 818.917C891.891 818.563 890.651 818.672 889.412 819.484C885.854 821.818 879.412 824.005 864.115 828.068C860.438 829.042 856.026 830.599 854.313 831.531C852.599 832.453 850.297 833.214 849.203 833.214C847.912 833.214 846.359 833.922 844.761 835.24C842.818 836.844 841.568 837.323 838.729 837.542C836.761 837.703 834.865 838.047 834.516 838.318C834.162 838.589 831.443 839.729 828.469 840.849C821.313 843.547 820.787 843.792 818.859 845.349C817.807 846.198 815.714 846.865 813.068 847.193C810.787 847.479 808.38 847.984 807.714 848.328C807.047 848.667 804.5 849.464 802.047 850.099C799.599 850.729 796.443 851.906 795.031 852.708C793.625 853.516 791.021 854.484 789.245 854.865C787.255 855.292 784.74 856.516 782.682 858.063C778.771 861 774.594 862.38 767.995 862.922C765.365 863.135 762.5 863.661 761.625 864.089C760.75 864.516 758.677 865.042 757.021 865.26C754.078 865.641 746.37 869.052 746.328 869.984C746.271 871.401 742.589 872.927 738.136 873.385C735.474 873.656 731.292 874.458 728.844 875.161C725.292 876.182 723.292 876.37 718.974 876.083C713.813 875.745 713.396 875.818 709.839 877.708C707.792 878.797 705.151 879.682 703.974 879.682C702.797 879.682 700.328 880.276 698.49 881.005C695.849 882.042 694.386 882.234 691.573 881.911C689.073 881.62 686.922 881.807 684.391 882.547C681.886 883.276 679.75 883.469 677.417 883.177C674.984 882.87 672.474 883.135 668.349 884.115C665.021 884.901 661.708 885.323 660.412 885.115C659.188 884.917 654.974 884.651 651.052 884.516C644.766 884.302 643.63 884.432 641.505 885.583C639.37 886.745 637.766 886.927 627.792 887.104C618.615 887.266 615.833 887.542 612.974 888.547C609.953 889.609 608.578 889.714 603.224 889.302C599.797 889.036 596.667 888.615 596.271 888.37C595.87 888.125 591.464 887.823 586.469 887.703C578.302 887.505 577.141 887.604 574.891 888.786C571.854 890.37 564.042 890.969 559.417 889.974C557.667 889.599 551.677 889.12 546.099 888.906C540.526 888.688 534.636 888.229 533.016 887.875C531 887.438 529.281 887.448 527.583 887.896C525.068 888.568 514.063 889.849 507.636 890.203C505.708 890.307 502.99 890.125 501.589 889.813L501.615 889.776ZM535.005 837.323C531.667 836.375 529.63 836.115 528.323 836.469C527.287 836.75 523.865 836.958 520.714 836.927C517.563 836.906 513.552 836.943 511.802 837.01C504.479 837.313 500.583 837.13 493.495 836.182C488.984 835.573 485.302 835.375 484.214 835.688C483.224 835.969 477.854 836.068 472.281 835.896C466.708 835.734 461.287 835.651 460.24 835.734C458.073 835.896 452.568 835.896 448.781 835.719C447.375 835.661 444.875 835.661 443.219 835.719C441.068 835.802 439.547 835.427 437.912 834.417C435.625 833 435.62 833 432.141 834.188C428.792 835.323 428.552 835.328 425.672 834.245C424.026 833.625 421.073 833.036 419.109 832.938C416.813 832.818 414.74 832.266 413.307 831.38C411.417 830.214 410.12 829.995 404.906 829.995C400.38 829.995 398.203 830.281 396.708 831.063C394.031 832.458 390.094 832.344 383.849 830.672C381.047 829.922 376.323 829.068 373.344 828.766C370.37 828.464 366.766 827.792 365.333 827.26C363.25 826.495 362.125 826.443 359.719 826.995C357.276 827.552 356.083 827.484 353.412 826.641C351.594 826.068 348.823 825.458 347.245 825.286C345.672 825.104 342.375 824.484 339.927 823.885C337.474 823.286 334.229 822.844 332.708 822.906C329.547 823.026 325.886 822.156 321.828 820.318C320.276 819.609 316.406 818.62 313.234 818.115C310.057 817.604 305.974 816.49 304.156 815.635C302.339 814.781 300.25 814.078 299.511 814.078C298.771 814.078 297.391 813.688 296.448 813.203C295.365 812.651 291.667 812.219 286.453 812.031C279.604 811.786 277.714 811.5 275.495 810.365C274.026 809.604 271.792 808.99 270.537 808.99C269.287 808.99 267.136 808.417 265.766 807.714C263.979 806.802 262.011 806.443 258.865 806.443C256.391 806.443 253.458 806.021 252.177 805.49C250.917 804.964 248.807 804.526 247.484 804.521C246.162 804.521 242.787 803.911 239.984 803.172C237.182 802.432 233.307 801.615 231.375 801.359C229.438 801.099 226.656 800.276 225.193 799.526C223.729 798.781 222.203 798.167 221.802 798.167C219.906 798.167 216.469 795.802 214.948 793.453C212.948 790.37 212.401 789.917 210.662 789.901C209.938 789.901 207.422 788.604 205.073 787.026C202.724 785.453 200.448 784.161 200.011 784.161C199.578 784.161 198.224 783.49 197.005 782.672C194.141 780.745 191.521 780.089 190.865 781.135C190.589 781.578 190.281 783.141 190.182 784.615C189.88 789.042 189.011 790.646 187.031 790.411C185.75 790.25 185.188 789.729 184.792 788.302C184.198 786.146 183.25 775.62 182.412 761.75C182.099 756.594 181.667 752.104 181.458 751.76C181.245 751.422 181.339 750.016 181.636 748.641C181.979 747.135 181.948 744.016 181.557 740.802C181.208 737.87 180.813 731.599 180.682 726.875C180.542 722.146 180.359 715.557 180.266 712.229C180.167 708.906 179.693 704.953 179.203 703.443C178.396 700.932 178.438 700.432 179.677 697.505C180.698 695.089 180.88 693.922 180.422 692.724C179.693 690.807 179.667 686.615 180.365 683.589C180.688 682.182 180.521 679.146 179.917 675.391C179.13 670.49 179.094 668.755 179.734 665.677C180.313 662.885 180.339 660.964 179.818 658.151C179.318 655.406 179.339 651.99 179.875 645.589C180.292 640.755 180.672 634.219 180.719 631.063C180.761 627.911 181 625.026 181.229 624.651C182.349 622.839 183.031 615.13 182.333 612.214C181.74 609.755 181.813 608.255 182.734 603.906C183.943 598.172 184.016 592.219 182.912 588.854C181.802 585.469 182.099 582.583 183.865 579.573L185.516 576.76L184.146 570.667C182.912 565.193 182.854 564.229 183.609 561.089C184.172 558.755 184.313 555.823 184.042 552.271C183.662 547.359 183.761 546.693 185.313 543.578C186.917 540.354 186.958 540.016 186.24 536.115C185.828 533.865 185.667 531.74 185.88 531.385C186.099 531.036 186.391 529.115 186.537 527.12C186.677 525.12 187.083 519.906 187.438 515.531C187.792 511.156 188.089 507 188.094 506.302C188.109 505.599 188.156 502.161 188.214 498.661C188.276 495.161 188.255 489.995 188.172 487.182C188.031 482.589 188.193 481.818 189.672 479.63C191.136 477.479 191.307 476.635 191.198 472.333C191.136 469.661 191.375 464.604 191.755 461.104C192.136 457.604 192.464 448.052 192.49 439.88C192.526 426.099 192.63 424.807 193.896 422.057C195.604 418.344 196.099 407.417 194.688 404.641C192.839 400.995 194.005 396.026 197.323 393.417C198.87 392.203 198.969 391.755 199.287 384.323C199.672 375.406 200.386 373.531 204.136 371.604C207.177 370.042 213.458 370.042 217.297 371.594C219.776 372.599 220.375 372.625 222.625 371.849C225.766 370.771 231.901 371.297 235.511 372.964C237.563 373.911 240.151 374.198 248.88 374.443C261.776 374.802 268.563 375.573 271.162 376.984C273.386 378.187 283.672 378.432 287.495 377.37C289.344 376.859 290.412 376.953 292.589 377.807C294.182 378.432 296.813 378.849 298.818 378.786C300.724 378.729 303.448 379.026 304.865 379.437C306.427 379.896 310.573 380.12 315.401 380.005C319.974 379.906 324.099 380.109 325.104 380.5C326.443 381.016 327.828 380.922 331.005 380.089C335.073 379.021 335.229 379.026 339.12 380.406C343.448 381.937 346.344 381.964 357.287 380.562C363.104 379.823 363.271 379.844 366.583 381.464C370.448 383.354 372.469 383.484 377.469 382.182C381.537 381.125 388.182 381.432 391.974 382.854C393.302 383.354 395.073 383.589 395.912 383.38C396.745 383.167 399.026 383.458 400.979 384.026C403.708 384.823 404.839 384.896 405.865 384.344C406.641 383.927 408.563 383.781 410.474 383.99C422.953 385.349 434.292 385.833 438.208 385.172C443.162 384.339 451.969 385.115 455.568 386.693C457.604 387.589 458.469 387.62 462.083 386.937C464.38 386.505 466.761 386.354 467.375 386.604C468.995 387.26 480.037 388.359 483.776 388.24C492.958 387.932 504.115 388.417 508.599 389.302C522.516 392.068 523.557 392.141 527.125 390.667C530.302 389.349 530.578 389.333 533.557 390.307C536.245 391.187 537.011 391.208 539.182 390.469C541.094 389.818 542.63 389.76 545.521 390.229C547.62 390.568 550.63 390.687 552.203 390.495C556.115 390.01 565.427 391.057 569.24 392.411C572.188 393.458 572.594 393.458 576.156 392.453C579.609 391.484 580.391 391.474 584.958 392.349C587.917 392.917 593.12 393.276 597.662 393.234C601.896 393.193 609.875 393.214 615.391 393.271C620.964 393.333 627.333 393.062 629.714 392.635C633.261 392.01 634.802 392.047 638.599 392.839C641.641 393.474 644.011 393.62 645.604 393.276C648.365 392.677 662.969 392.443 671.875 392.854C675.203 393.016 678.641 392.854 679.516 392.531C680.391 392.198 683.547 391.911 686.521 391.896C689.703 391.88 692.849 391.49 694.151 390.953C698.396 389.208 701.219 388.917 707.188 389.594C712.594 390.208 713.276 390.156 716.094 388.906C717.776 388.161 719.839 387.557 720.682 387.557C721.531 387.557 723.281 387.021 724.583 386.37C729.401 383.948 742.094 382.391 746.688 383.656C748.932 384.276 749.484 384.167 752.448 382.495C757.875 379.432 768.667 376.828 774.078 377.281C775.146 377.359 778.542 376.708 781.63 375.812C784.719 374.917 788.234 374.187 789.443 374.187C790.656 374.187 792.88 373.464 794.386 372.583C796.208 371.51 798.891 370.745 802.453 370.271C805.391 369.885 810.511 368.844 813.839 367.958C817.162 367.073 821.172 366.234 822.75 366.094C824.438 365.953 827.979 364.672 831.38 362.99C834.552 361.427 838.563 359.896 840.292 359.589C849.724 357.927 850.99 357.516 853.886 355.13C857.594 352.073 858.224 351.849 864.761 351.266C869.193 350.875 870.75 350.427 873.354 348.812C876.537 346.844 876.542 346.844 887.995 346.526C894.297 346.344 900.833 346.016 902.516 345.786C904.349 345.536 906.141 345.646 906.974 346.068C907.74 346.453 911.214 347.031 914.688 347.354C919.594 347.807 921.198 348.198 921.849 349.089C922.313 349.724 922.693 350.484 922.693 350.786C922.693 351.615 918.094 355.672 916.646 356.13C915.943 356.349 914.656 357.016 913.781 357.609C912.901 358.198 910.615 359.339 908.688 360.135C906.761 360.932 904.469 362.26 903.594 363.078C902.719 363.901 900.854 365.052 899.458 365.635C898.057 366.219 895.984 367.51 894.854 368.5C893.724 369.495 891.719 370.474 890.401 370.677C889.078 370.88 885.708 371.656 882.906 372.401C880.104 373.146 875.807 373.927 873.359 374.135C869.797 374.432 868.323 374.906 866.037 376.474C861.844 379.349 852.078 384.104 849.302 384.625C847.984 384.875 845.938 385.646 844.761 386.339C843.531 387.068 840.599 387.828 837.891 388.135C835.287 388.422 832.479 389.031 831.641 389.479C829.083 390.844 820.875 392.651 817.198 392.651C814.729 392.651 813.193 393.021 811.917 393.927C809.979 395.307 804.995 396.469 801 396.469C799.615 396.469 797.125 397.172 795.365 398.062C792.912 399.307 791.401 399.63 788.542 399.51C785.396 399.391 784.219 399.693 780.266 401.729C775.479 404.187 767.219 406.01 760.823 406.016C759.146 406.016 756.828 406.411 755.667 406.901C754.5 407.385 752.292 407.984 750.75 408.229C749.214 408.474 744.802 409.484 740.948 410.469C735.724 411.807 733.042 412.177 730.375 411.932C727.74 411.687 726.396 411.87 725.25 412.62C723.302 413.896 714.537 415.151 711.339 414.609C709.537 414.302 708.255 414.547 706.229 415.578C704.328 416.552 702.761 416.875 700.917 416.682C699.474 416.542 696.005 416.802 693.208 417.281C689.703 417.885 685.25 418.047 678.943 417.818C673.901 417.635 668.745 417.755 667.484 418.083C664.724 418.818 644.208 419.365 641.964 418.771C640.974 418.505 639.406 418.781 637.823 419.49C634.302 421.068 627.708 421.042 624.719 419.448C622.771 418.406 622.073 418.333 619.776 418.948C617.62 419.526 616.271 419.458 612.823 418.615C608.182 417.474 600.234 417.797 597.651 419.229C595.557 420.391 570.031 419.766 564.672 418.427C561.219 417.557 560.089 417.51 558.146 418.151C555.151 419.141 542.432 418.458 538.412 417.094C536.448 416.427 534.521 416.255 532.188 416.547C529.49 416.885 528.193 416.708 525.787 415.635C522.057 413.984 521.578 413.979 518.469 415.573C515.229 417.224 513.651 417.177 508.62 415.286C504.781 413.839 504.307 413.792 502.261 414.651C499.662 415.734 494.016 415.859 491.245 414.896C489.88 414.417 488.229 414.411 485.729 414.875C483.162 415.349 481.219 415.328 478.828 414.797C476.995 414.391 473.13 414.135 470.24 414.224C466.703 414.344 463.964 414.047 461.886 413.359C459.323 412.51 458.057 412.448 454.552 413.01C449.656 413.792 440.5 412.911 437.537 411.385C435.922 410.547 435.5 410.552 433.833 411.406C430.927 412.906 427.636 412.609 423.896 410.5C420.917 408.818 420.323 408.687 418.156 409.292C416.464 409.755 414.729 409.755 412.386 409.292C409.688 408.75 408.37 408.812 405.662 409.625C402.917 410.448 400.938 410.536 394.974 410.109C390.948 409.823 385.578 409.646 383.047 409.714C376.297 409.891 370.516 408.917 368.089 407.182C366.328 405.932 365.193 405.698 360.599 405.656C357.625 405.635 354.552 405.391 353.771 405.135C352.927 404.854 350.943 405.115 348.849 405.771C345.88 406.708 344.849 406.766 342.099 406.13C340.318 405.719 337.068 405.38 334.88 405.38C332.693 405.38 329.542 404.917 327.875 404.349C325.792 403.641 323.922 403.448 321.875 403.74C306.578 405.917 292.063 406.099 286.271 404.177C281.531 402.609 275.974 402.042 263.839 401.901C255.854 401.802 253.568 401.573 251.849 400.672C250.146 399.781 249.344 399.698 247.776 400.245C244.901 401.245 242.927 401.083 239.844 399.594C237.547 398.479 236.761 398.375 235.094 398.953C232.177 399.974 229.511 399.792 226.37 398.365C222.005 396.385 221.589 396.568 222.083 400.286C222.427 402.875 222.328 403.474 221.557 403.474C220.109 403.474 219.62 407.615 220.531 412.187C221.005 414.573 221.136 417.182 220.849 418.594C220.203 421.755 219.896 424.953 219.599 431.479C219.047 443.615 218.859 445.25 217.797 447.245C216.953 448.828 216.797 450.083 217.12 452.536C217.422 454.833 217.219 456.833 216.412 459.51C215.333 463.062 215.328 463.448 216.349 466.693C217.354 469.88 217.354 470.318 216.391 472.922C214.078 479.135 213.886 480.359 214.766 483.203C216.151 487.698 216.307 491.505 215.198 494.151C214.479 495.875 214.188 498.635 214.188 503.802C214.188 509.422 213.912 511.766 212.953 514.286C211.849 517.193 211.755 518.703 212.047 528.458C212.37 539.276 212.359 539.406 210.729 542.448C209.115 545.464 209.099 545.578 210.047 549.224C211.313 554.104 211.313 564.464 210.057 567.479C209.208 569.516 209.214 570.125 210.099 573.188C211.005 576.313 211.005 576.932 210.078 580.13C209.266 582.932 209.198 584.167 209.755 586.234C210.453 588.823 210.146 591.781 208.943 594.073C208.594 594.745 208.214 599.135 208.099 603.828C207.979 608.521 207.583 613.87 207.203 615.714C206.719 618.031 206.708 619.589 207.162 620.781C207.521 621.729 207.787 624.568 207.75 627.094C207.714 629.615 207.729 634.073 207.792 637C207.854 640.453 207.526 643.411 206.859 645.432C206.021 647.958 205.964 648.964 206.557 650.771C207.109 652.438 207.109 653.859 206.568 656.479C206.172 658.396 205.729 661.49 205.589 663.354C205.448 665.214 204.917 667.911 204.412 669.349C203.599 671.656 203.604 672.427 204.49 675.958C205.323 679.266 205.37 680.578 204.755 683.547C204.349 685.526 204.016 688.292 204.016 689.698C204.016 691.104 203.104 694.953 201.99 698.25C200.443 702.849 199.938 705.516 199.839 709.661C199.453 725.474 199.245 727.854 198.089 729.615C197.261 730.88 196.932 732.651 196.906 735.953C196.886 738.474 196.49 741.682 196.021 743.083C195.557 744.484 194.979 748.13 194.734 751.193C194.464 754.62 193.958 757.031 193.427 757.474C192.802 757.995 192.667 759.104 192.958 761.531C193.214 763.714 193.094 765.026 192.636 765.313C192.24 765.557 191.922 767.302 191.922 769.193V772.63L194.307 773.25C196.932 773.932 211.844 775.234 217.386 775.266C219.307 775.281 223.745 774.885 227.245 774.396C234.083 773.438 236.162 773.698 240.026 775.974C241.412 776.792 242.875 777.161 243.932 776.958C244.865 776.776 247.042 777 248.776 777.453C250.505 777.901 252.964 778.135 254.229 777.969C255.974 777.745 257.422 778.151 260.182 779.635C262.188 780.714 264.484 781.594 265.281 781.594C266.078 781.594 269.578 782.589 273.063 783.797C278.479 785.688 279.922 785.948 283.057 785.62C286.182 785.292 287.219 785.479 290.089 786.885C293.891 788.745 303.339 790.5 309.641 790.51C312.729 790.51 315.245 791.042 319.234 792.505C322.417 793.672 326.089 794.542 328.146 794.615C330.724 794.714 332.693 795.297 335.599 796.844C338.479 798.375 340.802 799.073 344.193 799.422C346.745 799.688 349.557 800.193 350.443 800.542C351.521 800.974 353.287 800.969 355.828 800.531C358.854 800.01 360.448 800.083 363.776 800.911C366.063 801.479 369.365 802.214 371.115 802.552C372.865 802.891 375.516 803.526 377 803.964C379.125 804.599 380.151 804.604 381.818 804.005C384.87 802.901 386.859 803.052 390.667 804.667C393.677 805.943 395.547 806.141 408.354 806.542C416.234 806.792 424.542 807.146 426.818 807.333C429.094 807.516 437.255 807.771 444.958 807.891C457.604 808.089 459.313 808.24 462.552 809.51C465.563 810.688 466.589 810.818 468.917 810.292C471.604 809.688 473.823 809.854 485.49 811.521C488.75 811.99 490.318 811.922 492.245 811.245C496.958 809.578 520.583 809.938 525.406 811.745C528.922 813.063 535.307 813.089 538.932 811.802C543.49 810.182 551.651 809.859 555.063 811.161C556.958 811.885 558.63 812.109 559.953 811.818C563.573 811.026 592.422 810.906 595.641 811.677C597.886 812.214 599.891 812.203 603.599 811.641C607.057 811.115 609.255 811.083 610.854 811.536C612.636 812.036 613.693 811.953 615.542 811.182C617.396 810.406 620.474 810.172 629.162 810.141C635.333 810.12 641.031 809.854 641.818 809.557C642.604 809.266 646.615 808.719 650.729 808.344C654.844 807.974 659.787 807.385 661.714 807.036C663.636 806.688 668.078 806.141 671.578 805.823C675.078 805.5 680.38 804.656 683.354 803.948C686.328 803.24 689.927 802.646 691.349 802.641C692.771 802.625 694.49 802.198 695.167 801.677C695.849 801.161 697.552 800.438 698.953 800.068C700.354 799.703 703.214 798.578 705.318 797.568C709.203 795.698 713.984 794.349 716.719 794.349C719.328 794.349 734.698 789.552 740.011 787.078C741.932 786.182 744.516 785.443 745.74 785.438C746.964 785.438 748.823 784.865 749.865 784.177C750.912 783.484 753.063 782.734 754.641 782.505C756.224 782.276 758.886 781.552 760.563 780.896C762.24 780.245 764.167 779.708 764.844 779.708C766.797 779.708 780.677 773.141 783.792 770.745C784.589 770.13 786.453 769.438 787.932 769.214C792.646 768.479 795.005 767.479 797.823 765.01C799.333 763.688 801.396 762.422 802.406 762.198C803.417 761.974 806.625 760.797 809.526 759.578C812.432 758.365 815.953 757.109 817.354 756.792C824.557 755.172 827.63 754.177 829.099 752.979C833.771 749.182 836.401 747.875 839.391 747.875C841.636 747.875 842.859 747.49 844.214 746.354C847.162 743.87 850.833 742.25 855 741.589C858.557 741.026 864.74 738.453 870.495 735.146C871.714 734.448 873.25 733.87 873.901 733.87C874.552 733.87 876.656 733.417 878.578 732.854C880.568 732.276 882.958 732.005 884.125 732.224C885.75 732.526 887.229 732.063 891.229 729.984C896.052 727.49 896.469 727.385 900.109 727.818C905.469 728.458 906.386 728.411 912.839 727.167C921.865 725.422 923.078 725.375 926.484 726.599C929.469 727.672 929.875 727.677 934.063 726.656C939.448 725.354 940.995 725.333 945.208 726.495C947.011 726.995 950.287 727.542 952.49 727.714C956.136 728 956.578 727.891 957.448 726.568C958.261 725.323 958.292 724.505 957.63 721.052C956.818 716.844 956.813 715.797 957.427 699.495C957.755 691.005 957.646 689.161 956.662 686.26C955.578 683.068 955.573 682.682 956.583 678.802C957.563 675.063 957.568 674.51 956.662 672.328C955.807 670.276 955.776 669.26 956.438 665.141C956.859 662.505 957.464 659.307 957.776 658.042C958.188 656.37 958.094 655.125 957.412 653.505C956.682 651.76 956.557 649.432 956.839 642.76C957.109 636.245 956.979 633.406 956.229 630.656C955.484 627.885 955.417 626.427 955.922 624.292C956.281 622.766 956.568 621.229 956.557 620.88C955.901 602.177 955.927 599.651 956.792 596.26C957.849 592.125 958.094 586.083 957.401 581.339C956.995 578.536 957.167 577.531 958.656 574.219C960.38 570.375 960.386 570.344 959.287 567.469C958.391 565.125 958.307 564.063 958.844 561.854C959.208 560.359 959.354 556.411 959.167 553.083C958.922 548.75 959.083 546.135 959.771 543.854C960.542 541.26 960.599 539.208 960.115 532.786L959.511 524.901L961.401 521.297C962.922 518.396 963.307 516.844 963.359 513.375C963.396 511.005 963.609 508.76 963.833 508.396C964.063 508.026 964.495 502.536 964.802 496.193C965.724 477.083 966.162 473.401 967.755 471.161C968.594 469.984 969.167 468.234 969.167 466.859C969.167 465.583 969.625 463.646 970.188 462.557C971.537 459.953 973.406 452.823 973.552 449.719C973.672 447.182 974.594 445.099 976.813 442.318C977.511 441.443 978.391 439.01 978.771 436.911C979.156 434.807 980.537 430.224 981.844 426.724C983.156 423.224 985.432 416.786 986.906 412.427C989.677 404.214 990.828 402.214 992.797 402.214C994.563 402.214 995.422 404.5 995.026 408.167C994.828 409.974 994.688 411.875 994.703 412.401C994.865 417.901 994.505 425.583 993.917 428.849C993.287 432.354 993.344 433.344 994.354 436.318C995.422 439.469 995.443 439.984 994.552 442.781C993.745 445.318 993.682 447.406 994.177 455.437C994.74 464.542 994.698 465.214 993.427 468.089C992.688 469.76 992.083 472.078 992.083 473.245C992.083 474.406 991.797 476.734 991.453 478.411C991.104 480.094 990.552 484.37 990.234 487.917C989.896 491.641 989.193 495.24 988.573 496.448C987.667 498.187 987.557 499.682 987.88 505.594C988.094 509.479 988.438 514.307 988.646 516.323C988.922 519.031 988.656 521.38 987.609 525.318C986.453 529.698 986.307 531.26 986.787 534.068C987.109 535.948 987.172 538.203 986.927 539.078C986.682 539.953 986.636 542.87 986.828 545.557C987.078 549.161 986.886 551.302 986.109 553.688C985.427 555.771 984.964 559.833 984.797 565.12C984.594 571.641 984.287 573.818 983.297 575.771C982.255 577.823 982.078 579.328 982.208 584.911C982.287 588.589 982.714 592.87 983.146 594.427C983.755 596.625 983.761 598.104 983.188 601.047C982.776 603.13 982.417 609.734 982.391 615.724C982.37 621.708 982.109 627.24 981.828 628.016C981.484 628.969 981.729 630.365 982.609 632.344C983.813 635.068 983.854 635.786 983.234 643.031C982.74 648.76 982.761 651.745 983.313 654.406C983.932 657.417 983.891 658.432 983.073 660.51C982.167 662.818 982.177 663.177 983.25 665.177C984.422 667.375 984.698 671.141 983.896 674.005C983.656 674.865 983.74 676.932 984.078 678.599C984.62 681.255 984.495 682.125 983.042 685.667C981.438 689.573 981.401 689.948 981.953 696.984C982.266 700.99 982.818 706.13 983.172 708.406C983.667 711.526 983.62 713.516 982.995 716.49C982.359 719.469 982.287 722.578 982.703 729.219C983.005 734.052 983.094 738.646 982.901 739.427C982.703 740.208 981.755 741.781 980.781 742.927C979.807 744.073 978.677 745.786 978.266 746.74C977.802 747.823 976.849 748.625 975.745 748.87C974.771 749.089 972.542 749.792 970.787 750.432C965.589 752.333 956.005 753.26 951.099 752.339C947.552 751.667 946.261 751.714 942.109 752.635C937.589 753.635 937.042 753.641 934.052 752.651C931.307 751.755 930.396 751.719 927.719 752.406C925.271 753.036 923.813 753.047 921.026 752.469C919.068 752.057 917.234 751.859 916.953 752.031C916.677 752.214 913.49 752.615 909.88 752.943C903.167 753.552 899.724 754.302 890.333 757.188C887.396 758.089 882.729 759.219 879.964 759.703C877.193 760.188 873.151 761.276 870.979 762.125C868.807 762.974 866.313 763.88 865.438 764.135C864.563 764.391 862.906 765.318 861.755 766.193C860.609 767.068 857.802 768.302 855.521 768.938C852.787 769.693 850.057 771.073 847.521 772.979C845.276 774.672 842.964 775.891 841.979 775.906C840.464 775.927 837.594 776.844 829.38 779.927C827.927 780.474 825.672 781.641 824.37 782.526C822.162 784.026 818.422 785.417 816.583 785.422C814.755 785.438 807.917 788.224 803.339 790.839C800.63 792.38 797.578 793.823 796.557 794.047C795.537 794.271 793.5 795.146 792.031 795.979C790.568 796.818 788.698 797.51 787.886 797.51C787.068 797.51 783.807 798.813 780.636 800.385C777.464 801.964 774.292 803.25 773.578 803.25C772.87 803.25 771.12 803.932 769.688 804.766C768.255 805.594 766.089 806.495 764.865 806.755C763.646 807.021 761.755 807.911 760.672 808.74C759.589 809.568 757.271 810.516 755.531 810.844C749.292 812.031 746.011 813.047 741.625 815.167C737.995 816.917 736.688 817.245 734.578 816.943C732.719 816.677 731.193 816.932 729.167 817.854C727.615 818.557 725.167 819.141 723.729 819.151C721.922 819.167 719.318 820.057 715.344 822.031C712.172 823.604 708.875 824.896 708.016 824.896C707.156 824.896 705.198 825.359 703.667 825.922C701.912 826.573 699.068 826.927 695.964 826.891C692.12 826.849 690.583 827.104 688.901 828.094C687.719 828.792 684.521 829.948 681.787 830.661C677.662 831.745 676.302 831.849 673.703 831.292C668.182 830.109 665.318 830.427 661.792 832.62C658.406 834.724 658.792 834.698 650.75 833.411C649.125 833.156 647.609 833.391 646.031 834.13C644.219 834.995 642.823 835.146 639.672 834.823C636.729 834.521 635.156 834.661 633.865 835.328C632.495 836.036 629.922 836.198 622.563 836.047C615.339 835.906 612.62 836.063 611.318 836.74C609.042 837.917 604.792 837.865 601.537 836.62C599.24 835.74 597.875 835.708 590.693 836.375C586.177 836.797 579.615 837.099 576.115 837.047C572.615 837.01 567.599 837.292 564.974 837.698C562.349 838.104 555.615 838.49 550.016 838.557C541.287 838.656 539.141 838.479 535.026 837.318L535.005 837.323ZM589.016 787.958C587.37 787.682 585.677 787.24 585.261 786.979C584.839 786.719 583.109 786.557 581.412 786.615C579.719 786.677 577.255 786.266 575.943 785.708C574.625 785.151 571.109 784.026 568.136 783.214C565.162 782.396 561.005 781.12 558.906 780.375C553 778.271 539.458 771.359 538.636 770.021C538.229 769.365 535.75 767.646 533.125 766.203C530.5 764.76 527.333 762.766 526.094 761.771C524.849 760.776 522.563 759.318 521.005 758.531C519.448 757.745 517.511 756.099 516.698 754.87C515.886 753.646 514.089 752.109 512.703 751.453C511.318 750.802 509.557 749.37 508.792 748.271C508.026 747.177 505.125 743.786 502.349 740.734C499.573 737.688 496.787 734.052 496.162 732.656C495.469 731.104 494.052 729.505 492.511 728.536C489.917 726.896 487.292 724.026 487.292 722.828C487.292 722.453 485.714 719.661 483.792 716.625C481.865 713.583 480.292 710.625 480.292 710.042C480.292 709.464 479.755 707.927 479.099 706.625C478.448 705.328 477.448 702.401 476.886 700.125C476.208 697.385 475.323 695.521 474.276 694.604C472.104 692.708 470.109 689.297 470.104 687.479C470.104 686.651 469.406 684.646 468.557 683.026C463.781 673.943 462.771 670.318 461.214 656.745C460.906 654.068 460.146 650.917 459.516 649.74C457.99 646.88 457.313 639.755 457.255 625.964C457.177 608.047 457.693 598.286 458.844 595.672C459.537 594.104 459.745 592.318 459.521 589.943C459.318 587.802 459.542 585.359 460.13 583.484C460.761 581.448 460.896 579.729 460.547 578.188C460.266 576.932 460.276 575.141 460.568 574.198C461.859 570.042 463.833 565.365 464.912 563.901C465.552 563.026 466.453 561.604 466.912 560.745C467.755 559.156 470.099 548.12 470.104 545.703C470.104 544.974 471.12 543.073 472.359 541.479C473.896 539.51 474.776 537.563 475.12 535.375C475.651 532.031 476.057 531.297 480.297 526.026C485.724 519.281 486.656 517.828 486.656 516.104C486.656 513.099 487.589 511.589 493.297 505.333C496.328 502.01 499.359 498.25 500.026 496.979C500.693 495.714 502.688 493.635 504.453 492.365C506.219 491.099 507.662 489.812 507.662 489.51C507.662 488.479 511.573 484.021 514.807 481.354C516.583 479.896 519.349 478.214 520.964 477.615C522.578 477.021 525.182 475.312 526.761 473.818C531.464 469.365 538.698 464.104 541.245 463.286C542.557 462.87 544.057 462.167 544.583 461.729C546.302 460.307 548.318 459.484 551.656 458.849C554.094 458.391 555.651 457.578 557.667 455.719C560.656 452.964 561.432 452.755 571 452.135C575.094 451.87 578.162 451.323 579.594 450.599C580.823 449.984 583.828 449.286 586.281 449.047C588.729 448.807 592.453 448.312 594.557 447.943C596.656 447.578 601.667 447.172 605.693 447.042C609.724 446.901 614.016 446.568 615.245 446.281C618.927 445.417 623.771 446.422 627.703 448.891C630.906 450.896 631.604 451.089 634.557 450.786C637.203 450.516 639.141 450.885 644.526 452.672C648.203 453.891 653.359 455.51 655.984 456.276C662.12 458.068 662.573 458.286 667.125 461.724C672.781 465.99 674.636 467.135 675.896 467.141C676.516 467.141 678.307 468.427 679.88 469.995C681.448 471.562 683.479 473.036 684.396 473.266C685.313 473.495 687.448 474.911 689.136 476.417C690.828 477.922 693.24 479.635 694.49 480.229C695.875 480.891 697.401 482.385 698.38 484.062C699.271 485.578 700.531 486.984 701.188 487.193C702.708 487.677 708.542 493.708 710.323 496.646C711.073 497.88 712.917 499.776 714.422 500.865C715.927 501.953 718.026 504.187 719.089 505.839C720.818 508.526 720.984 509.198 720.656 512.339C720.458 514.26 720.12 516.609 719.901 517.552C719.542 519.109 719.781 519.401 722.474 520.667C724.109 521.432 726.359 523.198 727.479 524.583C728.594 525.974 731.13 528.948 733.12 531.188C735.969 534.417 736.875 535.969 737.427 538.604C738.089 541.724 739.828 545.854 743.651 553.375C744.776 555.583 745.401 558.161 745.75 561.969C746.047 565.234 746.87 568.938 747.807 571.255C748.667 573.38 749.74 577.104 750.188 579.531C750.636 581.964 751.432 585.036 751.953 586.359C752.636 588.094 752.771 589.781 752.448 592.406C751.755 597.932 751.886 600.516 753.052 604.833C753.849 607.781 754.031 610.229 753.766 614.505C753.568 617.656 753.432 621.094 753.458 622.146C753.474 623.198 753.474 628.208 753.443 633.286C753.401 641.193 753.198 642.964 752.047 645.646C750.927 648.255 750.776 649.458 751.146 652.906C751.599 657.161 750.719 660.474 746.938 668.688C746.276 670.125 745.734 671.844 745.734 672.505C745.734 673.167 744.693 675.714 743.422 678.167C742.156 680.615 740.906 683.911 740.651 685.484C739.287 693.865 736.729 700.234 732.302 706.25C730.693 708.438 729.005 711.552 728.552 713.172C728.063 714.922 726.641 717.318 725.042 719.099C723.568 720.74 721.625 723.536 720.729 725.313C719.833 727.083 718.073 729.76 716.823 731.26C715.568 732.76 714.542 734.286 714.542 734.656C714.542 735.464 704.552 745.438 702.761 746.422C701.359 747.188 695.63 752.427 689.537 758.505C687.136 760.901 684.328 762.979 682.396 763.792C680.646 764.531 678.214 766.083 676.984 767.25C675.761 768.411 673.271 769.844 671.448 770.432C669.63 771.021 666.208 772.776 663.839 774.328C659.979 776.865 657.719 777.583 654.823 777.188C654.359 777.13 652.641 777.922 651 778.958C646.104 782.057 639.75 784.74 633.193 786.479C627.453 788 626.651 788.068 621.854 787.406C617.432 786.792 616.339 786.839 614.234 787.719C611.734 788.766 607.833 788.688 602.188 787.49C600.495 787.13 598.578 787.224 596.458 787.771C594.708 788.224 592.99 788.563 592.641 788.531C592.292 788.49 590.656 788.234 589.011 787.958H589.016ZM625.745 763.328C627.146 762.802 630.917 762.031 634.125 761.609C639.287 760.938 640.412 760.542 643.932 758.177C646.13 756.703 648.667 755.51 649.604 755.51C650.615 755.51 651.932 754.839 652.849 753.859C654.823 751.745 657.38 750.417 659.484 750.417C662.016 750.417 664.328 748.943 667.271 745.448C668.787 743.656 671.698 741.286 673.948 740.021C676.146 738.781 679.797 735.891 682.057 733.594C684.323 731.297 687.073 729.12 688.172 728.76C690.172 728.099 695.448 721.859 695.448 720.156C695.448 719.708 696.828 718.099 698.505 716.578C702.354 713.099 706.271 707.219 706.271 704.932C706.271 702.609 708.047 698.974 709.578 698.151C710.255 697.786 711.328 696.286 711.958 694.818C712.589 693.344 714.146 690.516 715.417 688.526C717.198 685.74 717.729 684.255 717.729 682.042C717.729 679.839 718.469 677.76 720.912 673.073C723.63 667.865 724.094 666.448 724.094 663.396C724.094 660.719 724.5 659.125 725.708 657.068C727.146 654.609 727.271 653.891 726.891 650.188C726.557 646.917 726.688 645.729 727.511 644.469C728.083 643.594 728.552 641.859 728.552 640.609C728.552 639.359 728.932 637.417 729.396 636.292C730.505 633.599 730.162 612.578 728.781 598.911C728.234 593.484 727.708 587.469 727.615 585.547C727.302 579.359 726.276 574.167 725.109 572.88C723.344 570.927 722.245 567.135 722.214 562.885C722.193 559.833 721.912 558.76 720.912 557.854C720.208 557.214 719.328 555.526 718.953 554.094C718.578 552.661 717.589 550.484 716.761 549.26C715.932 548.036 714.979 545.807 714.646 544.313C714.313 542.813 712.792 539.677 711.271 537.339C708.891 533.688 708.495 532.594 708.448 529.599C708.406 526.63 708.167 525.969 706.859 525.146C706.011 524.609 703.828 522.802 702.016 521.12C700.198 519.443 698.427 518.068 698.083 518.068C696.724 518.068 693.333 514.505 692.219 511.906C691.422 510.047 690.073 508.5 688.026 507.094C683.823 504.208 682.313 502.484 681.333 499.464C680.427 496.656 679.932 496.266 676.011 495.224C674.599 494.854 672.594 493.724 671.557 492.724C668.906 490.172 663.5 486.849 657.891 484.333C655.266 483.156 652.261 481.568 651.208 480.807C650.156 480.047 648.583 479.198 647.708 478.932C645.042 478.104 639.833 475.354 638.339 473.984C637.167 472.911 636.011 472.677 631.547 472.625C627.125 472.562 625.844 472.312 624.339 471.198C622.703 469.99 621.375 469.802 612.068 469.469C602.646 469.13 601.198 469.224 597.25 470.422C594.214 471.344 591.859 471.656 589.589 471.437C587.594 471.234 585.307 471.474 583.761 472.021C582.359 472.516 579.427 473.172 577.25 473.479C574.198 473.911 572.599 474.568 570.281 476.339C568.63 477.599 566.537 478.781 565.636 478.969C564.734 479.146 562.854 479.859 561.453 480.531C560.052 481.214 557.104 482.469 554.906 483.328C552.708 484.187 549.589 486.057 547.974 487.479C546.354 488.901 543.859 490.396 542.422 490.807C540.609 491.323 538.333 492.974 534.99 496.177C532.339 498.719 529.422 500.99 528.5 501.219C527.417 501.49 525.698 503.182 523.615 506.042C521.849 508.458 519.583 510.937 518.583 511.547C516.063 513.083 507.828 523.219 507.281 525.458C507.042 526.469 505.594 529.474 504.068 532.135C502.542 534.797 501.297 537.26 501.297 537.62C501.297 537.974 500.74 538.974 500.063 539.833C499.386 540.698 498.625 542.24 498.38 543.26C497.833 545.521 493.917 553.479 493.104 553.979C492.083 554.615 487.365 564.75 486.714 567.724C486.365 569.302 485.662 571.594 485.156 572.818C484.568 574.229 484.349 576.135 484.568 578.036C484.828 580.37 484.583 581.63 483.464 583.766C481.745 587.031 480.693 594.094 480.854 601.281C480.932 604.901 480.672 607.094 480.016 608.375C479.198 609.953 479.151 611.635 479.693 619.688C480.042 624.891 480.75 632.016 481.266 635.516C481.781 639.016 482.208 644.604 482.208 647.927C482.208 653.214 482.417 654.328 483.813 656.776C485.787 660.229 488.714 667.552 489.813 671.802C491.667 678.943 493.193 682.828 496.844 689.688C498.995 693.719 500.958 698.359 501.313 700.224C502.339 705.635 503.755 707.802 507.776 710.13C510.755 711.859 511.693 712.844 513.12 715.76C514.073 717.708 515.802 720.031 516.969 720.917C518.136 721.807 519.854 724.094 520.787 726.005C522.052 728.589 523.115 729.797 524.938 730.729C526.287 731.417 528.807 733.766 530.537 735.948C534.422 740.844 539.599 745.323 541.38 745.323C543.698 745.323 546.953 747.047 548.438 749.057C549.958 751.115 552.552 752.323 555.438 752.323C556.49 752.323 558.537 753.339 560.573 754.87C562.432 756.266 564.969 757.578 566.203 757.776C567.443 757.974 569.458 758.531 570.682 759.005C571.906 759.484 574.521 760.01 576.49 760.182C578.458 760.365 581.261 761.099 582.719 761.844C584.177 762.589 585.641 763.026 585.974 762.823C586.307 762.615 588.37 762.88 590.568 763.406C596.74 764.891 596.953 764.906 610.469 764.589C619.609 764.37 623.917 764.016 625.745 763.328ZM594.875 737.568C594.484 736.057 593.625 733.104 592.964 731C592.229 728.661 591.583 723.984 591.292 718.906C590.734 709.203 590.776 708.74 592.375 705.979C593.917 703.323 593.932 701.594 592.417 701.115C591.771 700.906 589.203 700.781 586.719 700.833C583.136 700.911 581.719 700.651 579.901 699.573C578.641 698.828 576.932 698.219 576.104 698.219C573.792 698.219 566.302 693.958 562.49 690.479C560.609 688.76 558.172 686.896 557.073 686.339C554.021 684.797 552.839 683.536 551.188 680.073C550.349 678.323 548.953 675.917 548.078 674.729C547.203 673.542 546.484 671.964 546.484 671.229C546.469 669.401 544.75 663.865 543.859 662.792C543.464 662.307 542.995 659.943 542.823 657.531C542.229 649.271 545.677 641.792 550.646 640.547C552.974 639.964 558.646 642.146 561.057 644.552C563.146 646.635 563.203 646.818 562.859 650.594C562.578 653.698 562.761 654.958 563.729 656.771C564.401 658.026 564.948 659.771 564.948 660.656C564.948 661.542 565.667 663.609 566.542 665.25C567.417 666.896 568.136 668.557 568.136 668.943C568.136 670.479 571.323 674.193 574.234 676.036C575.927 677.109 578.755 678.385 580.521 678.875C582.287 679.359 585.328 680.193 587.276 680.719C591.37 681.828 603.589 681.677 606.531 680.484C607.516 680.083 608.901 679.755 609.609 679.755C610.323 679.755 611.604 679.203 612.469 678.526C613.333 677.849 615.813 676.693 617.979 675.964C622.078 674.583 625.912 671.427 631.474 664.854C632.875 663.203 635.193 660.651 636.63 659.182L639.24 656.521L639.599 648.62C639.927 641.359 639.839 640.448 638.526 637.479C637.734 635.698 636.594 633.833 635.984 633.328C635.38 632.828 634.339 631.354 633.677 630.057C632.667 628.078 631.708 627.375 627.719 625.719C625.109 624.63 621.839 623.74 620.453 623.74C619.073 623.74 616.307 622.99 614.313 622.078C611.047 620.578 610.219 620.458 606.026 620.849C602.026 621.224 601.011 621.099 598.787 619.969C597.109 619.109 594.979 618.646 592.75 618.646C587.453 618.646 584.323 617.208 579.531 612.583C577.182 610.318 574.698 608.458 574.016 608.458C572.094 608.458 567.136 603.703 565.938 600.714C565.349 599.245 564.182 597.229 563.344 596.229C562.505 595.234 561.636 593.354 561.406 592.052C561.177 590.745 560.167 587.297 559.151 584.38C558.141 581.464 557.313 578.13 557.313 576.969C557.313 575.813 556.745 573.615 556.052 572.089C554.432 568.516 554.229 556.875 555.724 553.297C556.245 552.042 556.677 550.12 556.682 549.021C556.682 547.927 557.109 546.214 557.63 545.214C560.276 540.146 561.167 538.365 563.313 533.828C564.599 531.12 566.37 528.396 567.25 527.781C568.125 527.167 570.234 525.516 571.927 524.115C573.886 522.495 576.714 521.01 579.688 520.036C582.261 519.193 585.797 517.995 587.547 517.37C589.302 516.75 591.234 516.083 591.844 515.901C593.068 515.526 593.261 513.917 592.979 506.292C592.859 503.214 592.458 501.328 591.656 500.203C589.302 496.891 589.766 493.276 593 489.771C594.656 487.974 595.682 486.203 595.844 484.849C596.151 482.286 599.453 479.234 601.906 479.234C603.432 479.234 605.693 480.901 605.693 482.016C605.693 482.266 606.813 483.536 608.182 484.844L610.677 487.214L610.333 495.161C610.068 501.37 609.729 503.542 608.797 505.094C608.141 506.182 607.599 508.187 607.599 509.547C607.599 510.906 607.031 512.948 606.344 514.078L605.089 516.141L606.823 517.016C607.776 517.495 609.417 518.089 610.469 518.333C611.521 518.583 613.438 519.625 614.729 520.651C616.021 521.682 617.255 522.521 617.479 522.521C617.698 522.521 619.974 523.797 622.537 525.349C625.099 526.906 628.542 528.812 630.182 529.583C632.042 530.458 633.787 531.917 634.797 533.438C635.688 534.786 636.651 535.891 636.932 535.891C637.214 535.891 638.745 536.964 640.333 538.276C641.922 539.589 644.078 541.323 645.125 542.125C647.875 544.245 648.125 546.745 646.115 552.125C644.073 557.583 642.703 558.776 638.479 558.792C634.745 558.807 633.099 557.99 626.38 552.76C623.677 550.661 620.453 548.417 619.219 547.776C617.979 547.141 615.505 545.542 613.719 544.229C608.781 540.599 602.276 537.167 600.339 537.167C599.386 537.167 598.094 537.438 597.464 537.776C596.672 538.198 595.964 538.125 595.162 537.542C594.193 536.833 593.656 536.839 591.912 537.563C590.761 538.042 588.714 538.432 587.365 538.432C584.583 538.432 583.734 539.182 579.958 545.01C577.656 548.557 576.339 553.484 576.271 558.802C576.261 559.677 576.026 563.667 575.75 567.667L575.25 574.932L577.422 578.161C578.615 579.932 579.594 581.818 579.594 582.349C579.599 582.875 580.109 584.74 580.74 586.495C581.703 589.177 582.354 589.927 584.875 591.266C586.521 592.141 588.563 593.885 589.412 595.141C592.078 599.078 593.599 599.682 601.511 599.917C606.146 600.057 609.563 600.5 611.432 601.214C613 601.802 616.578 602.521 619.38 602.792C630.12 603.854 638.016 606.469 641.339 610.068C642.219 611.016 644.156 612.323 645.651 612.969C647.386 613.724 648.849 614.969 649.703 616.417C650.438 617.667 651.886 619.125 652.917 619.656C655.38 620.927 659.37 628.948 658.813 631.5C658.552 632.719 658.953 634.094 660.188 636.203L661.938 639.188L661.156 645.307C660.729 648.672 660.141 653.141 659.849 655.245C659.292 659.26 656.958 666.099 655.932 666.734C655.599 666.938 654.729 668.307 653.99 669.771C653.255 671.234 651.297 674.005 649.636 675.932C647.979 677.859 646.432 680.031 646.203 680.75C645.682 682.385 638.177 688.938 634.922 690.599C633.594 691.276 631.443 692.552 630.151 693.432C628.615 694.474 626.917 695.031 625.271 695.031C623.422 695.031 622.099 695.547 620.323 696.948C617.396 699.266 614 700.755 611.604 700.766C609.24 700.781 604.844 702.344 604.531 703.286C604.391 703.698 604.917 705.922 605.693 708.219C607.234 712.776 607.104 717.141 605.339 720.557C604.833 721.536 604.417 722.891 604.417 723.563C604.417 724.234 603.828 726.182 603.104 727.891C601.516 731.646 601.12 732.625 599.552 736.724C598.672 739.021 597.948 739.964 596.953 740.104C595.807 740.266 595.458 739.844 594.87 737.557L594.875 737.568ZM42.8907 715.161C41.2709 714.729 38.547 713.484 36.8386 712.396C35.1303 711.313 31.7293 709.51 29.2761 708.391C25.0209 706.448 23.8126 705.849 16.547 702.068C14.797 701.151 10.9011 698.797 7.89593 696.828C1.65113 692.74 -0.0624071 690.229 0.505301 686.01C0.974052 682.5 2.06259 681.141 7.31259 677.531C11.0886 674.927 12.4272 674.344 14.6563 674.344H17.3751L17.0209 670.844C16.8178 668.922 16.1199 666.286 15.448 665C14.5782 663.323 14.2813 661.609 14.4011 658.953C14.5209 656.432 14.2188 654.599 13.4845 653.214C12.8907 652.089 12.4063 650.349 12.4063 649.333C12.4063 648.323 11.8386 645.276 11.1459 642.563C10.0626 638.323 9.97926 637.026 10.5678 633.385C10.9428 631.057 11.3699 624.297 11.5157 618.359C11.6563 612.427 12.0157 606.698 12.3022 605.63C12.5886 604.563 12.5366 601.161 12.1824 598.073C11.7188 594 11.7709 590.339 12.3595 584.698C12.9688 578.896 12.9949 576.286 12.4793 574.391C11.1511 569.599 11.5991 563.589 13.7657 557.292C15.6511 551.807 15.7188 551.276 15.0209 547.667C14.6147 545.568 14.297 539.839 14.3074 534.938C14.323 530.036 14.3074 524.062 14.2918 521.667C14.2709 519.193 14.7136 515.927 15.3178 514.104C16.1928 511.474 16.297 509.672 15.9116 504.135C15.4011 496.844 15.3751 493.37 15.7293 478.443C15.8491 473.099 15.7709 467.859 15.5522 466.797C15.3282 465.729 15.5313 463.583 15.9897 462.021C16.6616 459.776 16.7032 457.76 16.172 452.333C15.6616 447.161 15.6824 444.911 16.2501 443.172C16.8491 441.365 16.8438 440.141 16.2397 437.609C15.6043 434.969 15.6303 433.177 16.3751 428.068C17.047 423.5 17.1251 420.974 16.672 418.839C16.2397 416.812 16.2866 413.354 16.8334 407.708C17.2813 403.031 17.422 397.375 17.172 394.521C16.8751 391.172 16.9897 388.474 17.5418 386.359C18.1876 383.844 18.1928 382.484 17.5782 379.74C16.9741 377.026 16.9741 374.318 17.5938 367.125C18.0209 362.089 18.4063 356.25 18.4428 354.151C18.4793 352.047 18.7241 348.896 18.9897 347.146C19.3647 344.661 19.1876 343.141 18.172 340.203C16.5938 335.661 16.5157 332.333 17.9063 329.406C18.9011 327.323 18.8855 327.062 17.4845 323.682C16.198 320.573 16.1043 319.833 16.7605 317.656C17.1668 316.292 17.5053 313.979 17.5053 312.521C17.5053 311.062 17.9324 308.839 18.4584 307.583C19.7241 304.547 19.6616 303.135 18.1616 301.026C15.9584 297.937 15.8595 294.656 17.8334 290.26C19.7032 286.099 19.7293 283.656 17.9949 276.594C17.3438 273.953 17.3959 273.094 18.3699 270.547C19.3282 268.031 19.4949 265.536 19.4636 254.208C19.448 246.854 19.4272 238.547 19.4272 235.75C19.422 232.948 19.6616 229.161 19.9532 227.333C20.3699 224.719 20.2345 223.302 19.3126 220.672C17.7188 216.161 17.797 215.422 20.3647 210.323C21.7866 207.495 22.5886 204.995 22.5886 203.385C22.5886 199.745 25.0001 193.646 27.1616 191.828C30.0938 189.359 32.8282 189.182 38.7449 191.094C41.9584 192.13 45.2449 192.745 47.4168 192.714C49.9376 192.672 51.9168 193.12 54.4897 194.318C57.4949 195.714 58.8178 195.953 62.7657 195.812C67.0678 195.651 67.8803 195.849 72.2449 197.984C76.4688 200.057 78.2241 200.484 87.5209 201.708C94.0053 202.562 98.8803 203.536 100.255 204.245C104.219 206.302 108.734 207.297 113.938 207.266C119.005 207.224 121.953 207.943 132.745 211.812C135.578 212.828 136.792 212.958 138.948 212.474C140.646 212.094 142.505 212.094 144.016 212.49C145.328 212.823 147.552 213.375 148.953 213.719C150.354 214.062 152.787 214.672 154.359 215.078C155.938 215.479 159.375 216.052 162 216.339C167.057 216.901 171.792 218.333 173.427 219.807C174.412 220.687 179.615 221.271 189.693 221.62C192.682 221.719 196.099 222.281 197.969 222.979C200.141 223.792 203.172 224.214 207.516 224.312C215.865 224.49 222.12 225.49 224.172 226.943C227.708 229.453 228.266 229.552 239.188 229.625C250.755 229.703 251.75 229.839 254.401 231.703C255.641 232.578 257.219 232.891 260.333 232.891C263.261 232.891 265.557 233.312 267.755 234.26C270.792 235.568 271.047 235.583 273.146 234.578C275.854 233.286 278.979 233.24 282.865 234.437C284.484 234.937 287.531 235.76 289.63 236.271C291.734 236.781 294.375 237.583 295.511 238.047C297.162 238.729 298.068 238.745 300.125 238.13C301.531 237.703 303.818 237.016 305.208 236.594C307.203 235.99 308.406 236.005 310.964 236.656C312.74 237.109 316.401 237.724 319.099 238.016C321.797 238.307 326.729 238.859 330.057 239.24C334.563 239.755 336.797 239.74 338.833 239.177C342.287 238.24 350.25 238.802 352.891 240.167C354.526 241.016 355.344 241.068 357.714 240.469C359.276 240.073 361.792 239.927 363.292 240.135C370.021 241.083 379.609 241.745 381.938 241.427C383.604 241.193 386.875 241.661 391.422 242.781C397.557 244.292 398.667 244.401 400.974 243.708C404.359 242.693 421.224 242.182 423.849 243.021C425.208 243.448 428.234 243.437 433.182 242.979C440.016 242.339 445.047 242.208 453.552 242.453C455.474 242.516 460.011 242.354 463.62 242.104C469.219 241.719 470.568 241.823 472.719 242.792C475.193 243.911 475.333 243.901 479.719 242.464C484.13 241.021 484.255 241.016 487.87 242.109C491.068 243.078 492.354 243.13 497.88 242.531C502.323 242.047 504.943 242.036 506.636 242.51C508.537 243.036 509.578 242.964 511.547 242.172C514.698 240.911 519.068 240.901 523.807 242.135C526.886 242.937 528.182 242.964 531.74 242.312C536.453 241.453 541.042 241.375 544.896 242.089C547.052 242.484 548.021 242.25 551.167 240.594C554.813 238.667 555.026 238.635 561.354 239.005C564.906 239.214 568.797 239.635 570 239.943C571.755 240.385 572.604 240.234 574.318 239.177C576.37 237.906 576.823 237.885 586.391 238.531C596.297 239.203 596.349 239.203 599.641 237.641C603.511 235.812 606.073 235.672 609.13 237.135C611.198 238.12 611.573 238.115 614.849 237.094C617.375 236.302 619.318 236.109 621.761 236.417C624.609 236.771 625.547 236.615 627.542 235.432C629.417 234.328 631.052 234 635.156 233.906C638.484 233.828 641.511 233.354 643.479 232.599C646.099 231.589 646.984 231.516 649.292 232.135C651.167 232.635 652.677 232.667 654.151 232.234C655.333 231.891 657.354 231.776 658.646 231.99C660.495 232.292 661.417 232.047 662.995 230.891C664.844 229.521 665.667 229.401 673.698 229.312C680.75 229.234 683.109 228.964 686.156 227.88C688.594 227.016 691.464 226.547 694.313 226.547C696.724 226.547 699.953 226.229 701.484 225.844C703.495 225.339 705.156 225.339 707.495 225.844C710.354 226.458 711.287 226.354 715.583 224.953C718.25 224.083 721.271 223.37 722.287 223.37C723.302 223.37 725.63 222.599 727.458 221.661C730.052 220.323 731.542 219.979 734.276 220.089C744.344 220.49 747.109 220.312 754.016 218.807C758.042 217.932 761.964 216.88 762.724 216.469C763.49 216.062 765.432 215.729 767.042 215.729C768.651 215.729 770.604 215.318 771.38 214.823C774.469 212.833 780.901 211.193 785.141 211.312C788.37 211.411 789.922 211.115 791.865 210.078C793.438 209.234 795.542 208.724 797.464 208.724C799.162 208.724 801.417 208.276 802.479 207.724C804.052 206.911 805.594 206.802 810.625 207.161C816.547 207.578 816.948 207.526 819.318 206C822.995 203.635 826.281 202.786 830.031 203.224C832.49 203.516 834.151 203.286 836.641 202.349C839.136 201.396 841.521 201.083 846.24 201.083C849.901 201.083 853.547 200.724 854.99 200.219C856.344 199.74 859.172 199.141 861.276 198.885C863.375 198.63 866.458 197.839 868.125 197.125C871.917 195.505 874.974 195.833 879.172 198.312C882.026 199.995 884.932 200.974 891.011 202.297C894.401 203.042 896.604 204.667 896.604 206.432C896.604 208.25 891.745 212.937 889.198 213.578C888.234 213.823 885.802 215.266 883.797 216.792C881.792 218.312 877.912 220.63 875.172 221.932C870.234 224.276 870.115 224.297 862.922 224.161C855.531 224.021 850.917 224.844 846.636 227.057C845.214 227.792 842.583 228.062 836.448 228.104C828.995 228.161 827.886 228.312 825.307 229.687C823.182 230.823 820.886 231.339 816.396 231.703C813.068 231.974 809.203 232.672 807.802 233.266C805.807 234.109 804.214 234.255 800.417 233.937C796.271 233.594 795.359 233.708 794.052 234.729C790.865 237.214 788.297 238.13 785.281 237.854C783.083 237.656 781.136 238.057 777.568 239.443C772.526 241.406 765.526 242.516 756.557 242.776C753.583 242.859 749.49 243.281 747.458 243.703C745.427 244.13 742.693 244.292 741.38 244.073C739.344 243.729 738.636 243.953 736.531 245.63C733.865 247.745 733.208 247.958 727.912 248.453C725.99 248.63 722.261 249.203 719.636 249.724C717.011 250.245 713.203 250.687 711.172 250.708C709.141 250.724 706.63 251.182 705.594 251.714C704.391 252.339 702.25 252.651 699.698 252.583C697.474 252.521 695.031 252.828 694.193 253.276C693.219 253.797 691.354 253.958 688.88 253.734C685.667 253.443 684.787 253.594 683.261 254.729C681.417 256.089 678.521 256.635 667.755 257.63C664.604 257.927 661.396 258.5 660.62 258.917C659.74 259.385 654.818 259.771 647.568 259.937C641.167 260.078 633.208 260.547 629.88 260.958C626.552 261.37 621.828 261.802 619.375 261.917C616.927 262.036 612.771 262.453 610.146 262.849C601.234 264.198 600.62 264.24 598.813 263.609C597.412 263.125 596.432 263.245 594.464 264.146C591.557 265.479 583.813 265.818 573.776 265.062C568.38 264.656 567.208 264.76 564.042 265.943C560.011 267.453 557.208 267.635 554.172 266.573C552.636 266.036 550.953 266.042 547.552 266.594C545.042 267 538.979 267.443 534.078 267.568C529.177 267.687 523.734 268.078 521.979 268.422C520.229 268.76 515.359 268.917 511.162 268.771C506.958 268.63 502.688 268.469 501.662 268.437C500.641 268.401 497.432 268.755 494.531 269.208C489.813 269.937 488.953 269.911 486.38 268.927C482.396 267.406 475.052 267.349 471.281 268.807C468.62 269.839 467.552 269.88 460.703 269.26C455.255 268.76 452.526 268.76 451.12 269.245C449.745 269.724 445.589 269.75 437.234 269.323C430.307 268.969 424.49 268.948 423.359 269.266C420.005 270.229 416.557 269.88 413.073 268.234C410.37 266.953 409.38 266.766 408.037 267.281C406.177 267.984 401.432 268.005 398.484 267.318C397.375 267.062 395.255 267.26 393.412 267.781C391.307 268.38 389.172 268.531 387.047 268.229C383.734 267.76 380.958 267.682 374.136 267.859C371.943 267.917 368.938 267.63 367.448 267.229C365.844 266.792 359.979 266.51 352.974 266.531C346.495 266.552 340.323 266.297 339.255 265.964C338.188 265.625 333.318 265.24 328.432 265.104C318.953 264.839 318.292 264.708 314.636 262.318C312.167 260.698 311.474 260.682 305.229 262.109C300.62 263.161 296.526 262.953 293.714 261.516C291.604 260.443 289.49 260.151 281.49 259.844C276.162 259.641 270.307 259.526 268.469 259.583C266.365 259.646 264.12 259.25 262.417 258.5C260.234 257.531 258.656 257.359 254.24 257.589C250.37 257.792 248.323 257.63 247.24 257.016C246.396 256.542 243.703 256.12 241.255 256.078C238.802 256.042 235.511 255.516 233.932 254.922C230.943 253.792 226.089 252.917 218.021 252.057C215.391 251.776 212.136 251.073 210.781 250.5C209.422 249.922 206.99 249.443 205.37 249.437C203.75 249.422 201.146 249.13 199.589 248.766C197.578 248.302 195.87 248.323 193.724 248.849C190.073 249.724 187.136 248.948 184.854 246.526C183.432 245.01 183.057 244.932 179.188 245.302C174.458 245.76 168.281 244.411 160.068 241.135C155.333 239.245 155.099 239.214 152.781 240.182C149.557 241.531 146.162 241.443 142.813 239.922C141.193 239.187 138.641 238.661 136.677 238.651C134.828 238.635 132.365 238.24 131.208 237.76C130.052 237.276 126.412 236.677 123.115 236.427C119.818 236.177 116.261 235.531 115.214 234.995C114.162 234.453 111.766 233.786 109.886 233.505C107.5 233.151 105.698 232.385 103.938 230.969C101.682 229.156 101.125 228.984 98.7657 229.385C97.3074 229.635 95.1824 229.984 94.047 230.167C91.2136 230.625 89.2605 230.026 86.8334 227.995C83.698 225.359 77.3074 223.896 72.7866 224.786C69.5678 225.427 68.8022 225.349 65.4636 224.062C58.5157 221.385 51.2032 219.422 47.7345 219.307L45.1876 219.229L44.7501 225.594C44.5053 229.094 44.4636 234.823 44.6459 238.323C44.8647 242.323 44.7293 245.37 44.2813 246.516C43.7241 247.943 43.797 249.141 44.6095 252.042C45.2918 254.474 45.5001 256.682 45.2188 258.49C44.6616 262.078 44.6355 264.099 45.0366 273.656C45.2657 279.13 45.1199 282.208 44.5991 283.521C43.7709 285.568 43.7293 295.87 44.5366 299.891C44.8543 301.479 44.6772 303.354 43.9688 305.62C43.198 308.125 42.8074 313.13 42.4428 325.219C41.9741 340.62 42.0157 341.578 43.2032 343.995C44.797 347.24 44.7866 356.292 43.1824 360.302C42.3074 362.484 42.2553 363.432 42.8491 365.875C44.0991 371.021 43.4897 392.849 42.0261 395.214C41.7761 395.625 42.2293 398.474 43.0209 401.542L44.4741 407.12L43.0053 413.224C41.4063 419.849 41.4532 424 43.1824 430.026C43.9011 432.516 43.9741 433.974 43.4949 436.073C43.1459 437.599 42.7709 444.146 42.6668 450.62C42.5053 460.359 42.2761 462.807 41.3334 464.771C40.2397 467.047 40.2397 467.38 41.3543 473.453C42.2553 478.37 42.3647 480.349 41.8491 482.38C41.3386 484.396 41.4063 485.734 42.1511 488.266C43.0157 491.229 43.0105 491.88 42.0678 495.109C41.2032 498.068 41.0626 500.995 41.2605 512.052C41.4636 522.927 41.323 525.812 40.5522 527.531C39.7345 529.349 39.7188 530.266 40.4324 534.063C41.0991 537.609 41.1147 539.688 40.4897 544.677C40.0678 548.089 39.6407 554.615 39.5418 559.177C39.4011 565.786 39.1355 567.813 38.2449 569.172C37.3022 570.615 37.2293 571.38 37.7813 574.245C39.6147 583.813 39.7761 586.099 39.2136 594.604C38.8959 599.391 38.4688 603.583 38.2657 603.917C38.0574 604.255 37.5782 606.495 37.2032 608.896C36.6095 612.651 36.3438 615.818 35.8959 624.406C35.8595 625.281 36.0366 627.625 36.2918 629.62C36.698 632.672 36.5574 633.646 35.4116 635.844C34.6668 637.276 34.0418 639.229 34.0209 640.182C33.9636 643.891 29.7188 660.016 27.8855 663.557C27.3386 664.609 26.4845 667.042 25.9897 668.969C25.4949 670.891 24.8334 673.443 24.5261 674.63C24.047 676.474 24.1668 676.964 25.3491 677.932C26.1095 678.552 27.8855 679.359 29.2866 679.719C31.7866 680.354 36.4324 683.063 39.9688 685.943C41.2501 686.984 42.2449 687.286 43.5418 687.026C44.7657 686.781 46.7605 687.292 49.8282 688.641C52.3022 689.724 54.5157 690.609 54.7553 690.609C54.9897 690.609 56.0157 691.203 57.0313 691.927C58.0886 692.682 60.2813 693.37 62.1355 693.542C65.8595 693.88 69.0938 695.094 71.8959 697.208C72.9688 698.016 75.2032 699.016 76.8647 699.427C78.5261 699.839 80.8178 700.745 81.9584 701.438C83.0938 702.135 84.5157 702.703 85.1199 702.703C85.7188 702.703 86.5261 703.297 86.9168 704.021C87.8126 705.698 86.1928 708.438 84.3074 708.438C83.5991 708.438 81.8595 709.026 80.4376 709.75C79.0157 710.474 77.4168 710.901 76.8803 710.698C76.3491 710.495 75.4845 710.677 74.9688 711.104C74.4532 711.531 72.2657 712.099 70.1147 712.359C61.5418 713.401 57.823 714.089 55.5626 715.057C52.7761 716.255 47.047 716.313 42.8907 715.198V715.161ZM382.922 642.417C382.412 642.193 380.708 641.193 379.141 640.193C377.568 639.198 375.693 638.38 374.969 638.38C371.995 638.365 368.547 636.844 365.781 634.302C364.162 632.818 361.797 630.974 360.521 630.208C358.344 628.896 356.927 626.76 355.833 623.146C355.573 622.297 354.828 620.719 354.172 619.646C353.516 618.573 352.979 616.693 352.979 615.464C352.974 614.24 352.344 611.474 351.568 609.313C350.177 605.432 350.177 605.349 351.307 601.677C351.943 599.63 353.057 596.958 353.787 595.729C354.578 594.406 355.292 591.766 355.542 589.224C356.229 582.318 359.396 578.453 365.261 577.359C367.271 576.984 369.052 576.063 370.771 574.505C374.49 571.146 375.162 571.063 384.844 572.708C386.792 573.036 389.912 574.083 391.781 575.031C394.417 576.365 395.693 576.661 397.469 576.344C403.469 575.281 405.057 575.266 406.974 576.266C408.047 576.823 409.511 577.276 410.224 577.276C412.464 577.276 415.328 580.49 416.261 584.042C417.047 587.052 417.011 587.464 415.839 589.323L414.563 591.333L418.745 595.661C421.151 598.156 423.089 600.776 423.318 601.844C423.531 602.859 424.443 605.594 425.333 607.911C427.292 613.005 426.995 615.198 423.891 618.641C422.703 619.953 421.266 622.135 420.703 623.49C419.307 626.828 415.521 631.552 412.813 633.339C411.589 634.146 409.438 635.875 408.037 637.182C403.505 641.406 401.38 642.115 392.125 642.495C387.573 642.672 383.432 642.656 382.922 642.432V642.417ZM396.422 614.313C397.776 613.146 397.88 611.646 396.599 611.646C395.797 611.646 393.719 614.63 393.719 615.786C393.719 616.26 394.922 615.609 396.427 614.313H396.422ZM809.839 629.755C808.854 629.203 806.432 628.49 804.448 628.167C798.99 627.276 794.719 624.057 792.104 618.854C790.781 616.214 788.953 613.818 787.047 612.224C783.547 609.292 782.182 606.297 781.641 600.344C781.177 595.198 782.484 589.391 785.208 584.521C786.208 582.734 787.224 580.208 787.469 578.911C788.016 575.99 793.443 567.557 795.75 566.047C797.354 564.995 799.88 564.422 806.943 563.5C809.438 563.177 810.401 563.401 813.109 564.922L816.323 566.729L819.573 565.557C821.474 564.875 823.583 564.542 824.662 564.76C827.365 565.302 831.479 568.38 832.625 570.724C833.891 573.318 833.406 575.307 830.594 578.99C829.391 580.563 828.594 582.036 828.823 582.266C829.052 582.495 832.453 582.62 836.375 582.547C842.484 582.427 843.802 582.583 845.557 583.656C847.927 585.094 850.13 588.396 850.136 590.51C850.136 591.313 850.854 593.318 851.729 594.958C854.406 599.99 853.818 605.328 850.115 609.542C849.078 610.724 848.229 612.214 848.229 612.854C848.229 614.745 843.875 622.891 842.328 623.896C841.547 624.401 839.333 625.333 837.406 625.958C835.484 626.589 832.761 627.688 831.359 628.411C829.818 629.208 827.307 629.797 824.995 629.901C822.891 630 819.026 630.229 816.401 630.417C812.74 630.682 811.208 630.536 809.839 629.76V629.755ZM814.026 600.745C813.406 599.646 812.552 598.125 812.125 597.359C811.49 596.224 811.578 595.219 812.589 591.885C813.859 587.682 813.615 586.531 811.537 586.922C809.912 587.224 808.125 591.042 808.125 594.208C808.125 596.219 808.641 597.5 810.38 599.776C811.729 601.536 813.146 602.734 813.901 602.734C815.13 602.734 815.13 602.672 814.021 600.745H814.026ZM983.5 354.12C982.448 353.646 980.932 353.24 980.136 353.224C978.12 353.187 975.542 351.375 975.542 350C975.542 349.37 976.396 348.135 977.432 347.26C978.922 346.01 980.349 345.573 984.078 345.224C995.208 344.182 1002.91 344.885 1005.37 347.167C1006.99 348.672 1005.57 350.432 1001.15 352.396C997.75 353.906 995.896 354.312 992.156 354.37C989.563 354.411 986.984 354.573 986.427 354.719C985.865 354.859 984.552 354.599 983.5 354.125V354.12ZM941.188 251.385C940.828 250.708 940.531 249.458 940.531 248.604C940.531 247.75 940.078 245.797 939.531 244.266C938.042 240.109 936.719 231.948 936.599 226.203C936.521 222.203 936.781 220.562 937.787 218.562C938.495 217.161 939.25 214.724 939.458 213.151C939.667 211.573 940.438 208.568 941.172 206.469C941.912 204.365 942.766 201.651 943.078 200.432C943.672 198.104 947.089 194.74 948.886 194.708C950.318 194.687 951.094 195.797 951.99 199.141C952.412 200.714 953.375 203.167 954.136 204.594C955.344 206.865 955.505 208.104 955.417 214.469C955.354 218.807 954.901 223.323 954.287 225.656C953.724 227.807 953.255 230.531 953.255 231.703C953.255 232.88 952.682 234.698 951.984 235.75C951.292 236.802 950.714 238.089 950.698 238.615C950.682 239.141 949.823 241.281 948.781 243.375C947.745 245.464 946.891 247.557 946.891 248.021C946.891 248.484 946.453 249.708 945.922 250.74C944.771 252.964 942.214 253.312 941.188 251.391V251.385ZM912.839 208.693C912.625 208.344 911.656 208.057 910.693 208.057C908.667 208.057 906.156 205.99 906.156 204.312C906.156 202.958 907.547 201.635 910.604 200.083C912.281 199.234 914.396 198.953 919.198 198.932C926.568 198.917 929.281 199.807 929.578 202.37C929.906 205.156 928.271 206.031 917.615 208.74C914.677 209.484 913.318 209.474 912.839 208.698V208.693Z" fill="#3C3738"/>
</g>
<defs>
<clipPath id="clip0_228_169">
<rect width="1080" height="1080" fill="white"/>
</clipPath>
</defs>
</svg>
