<svg width="187" height="189" viewBox="0 0 187 189" fill="none" xmlns="http://www.w3.org/2000/svg">
<mask id="mask0_17_95" style="mask-type:luminance" maskUnits="userSpaceOnUse" x="0" y="0" width="187" height="189">
<path d="M0 0H187V189H0V0Z" fill="white"/>
</mask>
<g mask="url(#mask0_17_95)">
<path d="M146.026 7.823C153.469 0.38029 157.438 0.260498 165.615 0.260498C173.786 0.260498 187.198 0.260498 187.198 0.260498C187.198 0.260498 166.198 19.8178 163.276 31.5001C162.057 36.3855 161.448 43.1928 159.443 51.1303C159.573 51.2345 187.198 73.047 187.198 102.755C187.198 132.531 163.427 174.599 154.792 188.854C154.792 188.854 144.792 178.75 149.135 169.755C154.453 158.74 176.021 119.953 176.828 104.245C177.969 82.0209 166.427 66.9636 157.276 58.3647C157.182 58.6355 157.089 58.9011 156.99 59.172C165.099 66.4428 176.234 80.3907 176.234 102.162C176.234 119.99 151.417 163.193 142.781 177.443C142.781 177.443 132.781 167.339 137.125 158.349C142.443 147.328 164.714 113.625 165.661 95.9063C166.354 82.9115 160.396 74.0418 153.594 67.0782C153.51 67.2345 153.432 67.3959 153.354 67.5522C159.958 74.4897 166.161 84.3178 165.016 96.1355C163.052 116.38 139.422 150.62 131.078 165.802C131.078 165.802 121.568 156.224 125.906 147.234C131.229 136.214 151.286 111.672 152.63 93.9845C153.25 85.7605 151.552 80.0365 148.667 75.4949C148.521 75.7136 148.365 75.9376 148.214 76.1615C151.318 81.1615 153.135 87.3959 151.891 94.9845C148.771 114.011 128.099 139.349 119.755 154.531C119.755 154.531 109.755 144.427 114.099 135.438C119.417 124.417 140.505 108.943 141.839 91.2553C142.036 88.6095 141.995 86.3282 141.74 84.3386C140.448 85.7761 139.068 87.2188 137.594 88.6615C129.229 96.8334 117.568 99.1511 106.052 98.7605C100.63 113.354 92.75 133.604 89.401 137.359C84.0625 143.349 73.1406 141.255 73.1406 141.255L95.3958 97.698C95.0052 97.6355 94.6094 97.573 94.2188 97.5053C87.6458 111.172 75.2448 136.245 70.9844 140.162C65.0833 145.594 54.4167 142.438 54.4167 142.438L84.6406 95.4115C84.3438 95.3334 84.0469 95.2553 83.7448 95.172C77.099 105.792 58.2031 135.552 52.8854 139.417C46.3906 144.136 36.1667 139.766 36.1667 139.766L74.9531 92.474C74.5573 92.3386 74.1719 92.2032 73.7969 92.0678C66.2031 101.901 44.349 129.823 38.6615 133.156C31.7396 137.208 21.9896 131.859 21.9896 131.859L65.1875 88.6563C65.1875 88.6563 66.2448 87.6043 68.1042 85.7397C74.6563 79.1876 91.2656 62.5782 107.536 46.3126C104.922 45.5886 101.703 45.3074 97.6042 45.6199C79.9167 46.9532 64.4427 68.0418 53.4219 73.3595C44.4323 77.7032 34.3281 67.7032 34.3281 67.7032C49.5104 59.3595 74.849 38.6876 93.875 35.5678C102.057 34.2292 108.667 36.4428 113.849 39.9949C114.026 39.8178 114.203 39.6459 114.38 39.4688C109.677 36.1772 103.724 34.1615 94.8802 34.8282C77.1927 36.1668 52.6458 56.2292 41.6302 61.5522C32.6406 65.8907 23.0625 56.3803 23.0625 56.3803C38.2448 48.0365 72.4792 24.4011 92.7292 22.4428C104.094 21.3386 113.62 27.0365 120.505 33.349C120.625 33.2292 120.745 33.1042 120.865 32.9845C114.047 26.5574 105.391 21.1303 92.9531 21.797C75.2396 22.7449 41.5313 45.0157 30.5156 50.3334C21.526 54.6772 11.4219 44.6772 11.4219 44.6772C25.6719 36.0417 68.8698 11.224 86.7031 11.224C105.708 11.224 118.745 19.7084 126.589 27.2605C126.755 27.0938 126.917 26.9324 127.083 26.7709C118.141 18.4167 104.146 9.62508 84.6198 10.6303C68.9115 11.4376 30.125 33.0001 19.1094 38.323C10.1094 42.6667 0 32.6667 0 32.6667C14.2552 24.0365 56.3229 0.260498 86.099 0.260498C106.786 0.260498 123.646 13.6563 132.01 21.8334C139.057 14.7865 144.302 9.54175 146.026 7.823Z" fill="#3C3738"/>
</g>
</svg>
