<svg width="1080" height="1080" viewBox="0 0 1080 1080" fill="none" xmlns="http://www.w3.org/2000/svg">
<g clip-path="url(#clip0_228_153)">
<mask id="mask0_228_153" style="mask-type:luminance" maskUnits="userSpaceOnUse" x="282" y="0" width="517" height="1079">
<path d="M282.151 0H798.151V1078.67H282.151V0Z" fill="white"/>
</mask>
<g mask="url(#mask0_228_153)">
<path d="M519.448 1076.97C518.427 1076.17 516.62 1074.11 515.432 1072.4C512.125 1067.62 509.089 1063.97 506.948 1062.19C505.875 1061.3 504.5 1059.59 503.885 1058.39C503.271 1057.19 502.344 1055.85 501.818 1055.41C499.01 1053.08 493.766 1041.4 491.859 1033.22C489.021 1021.07 488.885 1020.09 489.677 1017.28C490.583 1014.03 490.146 1010.15 488.51 1006.94C487.187 1004.34 487.021 1002.45 487.901 1000.12C488.333 998.99 488.271 998.146 487.672 996.979C486.203 994.135 485.208 986.484 486.016 984.25C487 981.531 486.901 974.453 485.828 971.443C484.776 968.458 484.682 963.531 485.609 959.854C486.115 957.833 486.099 956.375 485.536 953.719C484.849 950.495 484.891 950.042 486.099 947.547C487.156 945.359 487.292 944.49 486.833 942.922C486.13 940.542 486.276 931.234 487.031 930.042C487.339 929.562 487.594 926.24 487.594 922.661C487.594 916.797 487.745 915.969 488.984 914.219C490.661 911.87 491.599 903.359 490.948 896.354C490.641 893.016 490.802 890.682 491.63 886.896C492.229 884.13 492.937 879.74 493.203 877.141C493.469 874.536 494.531 869.88 495.557 866.792C497.021 862.375 497.526 859.594 497.906 853.786C498.203 849.229 498.786 845.375 499.427 843.734C500.135 841.906 500.422 839.703 500.339 836.703C500.266 833.682 500.599 831.083 501.448 828.281C504.255 819.031 505.005 816.109 505.234 813.583C505.578 809.823 506.802 804.172 507.771 801.885C508.224 800.818 508.594 798.557 508.599 796.859C508.599 794.812 509.104 792.698 510.099 790.568C510.917 788.802 511.859 786.146 512.182 784.656C512.51 783.167 513.526 780.885 514.437 779.588C516.234 777.021 517.437 772.193 516.87 769.828C516.526 768.401 516.375 768.359 512.453 768.568C509.281 768.734 507.542 769.219 504.5 770.776C502.224 771.943 499.016 773.005 496.771 773.338C491.745 774.083 483.708 775.995 480.932 777.094C477.708 778.375 469.344 778.995 467.208 778.109C465.786 777.521 464.974 777.562 462.687 778.344C459.234 779.521 456.521 779.536 452.776 778.396C451.182 777.917 448.49 777.516 446.797 777.516C444.464 777.516 443.177 777.146 441.458 775.979C439.604 774.724 438.385 774.411 434.724 774.271C423.359 773.823 417.844 772.63 415.802 770.167C415.38 769.656 414.333 769.24 413.479 769.229C411.281 769.219 398.203 764.729 396.531 763.411C395.76 762.807 393.964 761.984 392.536 761.588C391.052 761.172 388.906 759.891 387.547 758.609C385.865 757.026 384.391 756.234 382.578 755.932C379.385 755.406 378.266 754.838 375.271 752.245C368.875 746.698 364.766 743.969 361.437 743.042C358.443 742.208 357.568 741.604 354.901 738.531C352.417 735.661 350.786 734.469 346.406 732.312C340.615 729.463 335.495 725.068 330.927 719.021C329.625 717.297 327.75 714.922 326.755 713.745C325.755 712.562 323.786 709.734 322.375 707.458C320.964 705.182 318.984 702.349 317.979 701.161C315.292 698 310.531 687.146 310.531 684.193C310.531 682.865 310.109 680.547 309.599 679.031C309.083 677.521 308.448 675.052 308.177 673.542C307.057 667.271 306.198 663.495 305.057 659.865C304.396 657.75 303.641 654.427 303.38 652.474C303.12 650.526 302.625 647.599 302.281 645.974C301.641 642.943 301.089 639.771 299.906 632.219C299.536 629.854 299.318 626.661 299.417 625.12C299.562 622.844 299.812 622.292 300.776 622.161C301.719 622.031 302.531 623.078 304.766 627.271C306.312 630.167 307.578 632.932 307.578 633.411C307.578 633.891 308.109 634.958 308.76 635.786C309.406 636.615 309.943 637.859 309.943 638.552C309.943 639.245 310.474 640.854 311.125 642.13C311.771 643.406 312.307 644.88 312.307 645.401C312.307 645.927 313.104 647.161 314.083 648.141C316.203 650.26 317.036 651.693 317.036 653.245C317.036 653.87 317.833 655.385 318.807 656.615C319.786 657.844 320.583 659.307 320.583 659.87C320.583 660.432 321.083 661.526 321.698 662.307C322.312 663.088 323.214 664.677 323.693 665.833C324.177 666.99 325.766 669.516 327.224 671.443C330.406 675.641 331.464 677.625 332.396 681.151C332.781 682.615 333.844 684.609 334.75 685.583C337.172 688.177 342.76 697.052 343.604 699.641C344.141 701.281 344.932 702.177 346.583 703.021C347.828 703.656 349.464 705.021 350.229 706.057C352.349 708.927 357.906 714.219 359.901 715.26C360.875 715.771 363.047 717.417 364.729 718.922C369.505 723.193 372.708 725.229 375.885 726.021C377.911 726.526 379.573 727.49 381.276 729.146C383.573 731.391 385.229 732.255 394.172 735.896C396.115 736.682 398.641 738.229 399.786 739.323C401.401 740.865 403.266 741.724 408.016 743.12C412.417 744.417 414.677 745.422 415.995 746.667C417.177 747.781 419.01 748.672 421.089 749.146C425.38 750.12 428.172 751.292 429.76 752.781C430.891 753.844 431.443 753.932 434.203 753.505C438.219 752.885 439.839 753.083 442.26 754.5C443.594 755.281 445.323 755.646 447.687 755.646C449.594 755.646 453.151 755.922 455.594 756.26C459.312 756.776 460.516 756.719 463.031 755.896C465.443 755.109 466.526 755.036 468.521 755.547C470.562 756.062 471.802 755.963 475.464 754.979C477.969 754.302 480.953 753.891 482.281 754.036C484.115 754.234 485.349 753.906 487.75 752.562C489.708 751.469 492.104 750.703 494.255 750.484C496.391 750.271 498.318 749.656 499.427 748.844C501.068 747.641 506.464 745.594 508 745.594C509.682 745.594 516.917 741.552 520.12 738.823C522.073 737.156 524.401 735.338 525.297 734.771C526.187 734.208 526.922 733.411 526.922 733.005C526.922 732.599 527.729 731.286 528.719 730.088C530.365 728.088 530.484 727.646 530.161 724.781C529.969 723.057 529.172 720.323 528.396 718.698C527.047 715.875 525.63 711.901 524.609 708.052C524.349 707.078 522.969 705.062 521.536 703.568C518.51 700.411 514.505 694.25 514.505 692.745C514.505 692.177 513.411 690.729 512.073 689.536C510.74 688.338 507.932 684.766 505.839 681.594C503.208 677.609 501.443 675.547 500.135 674.943C494.896 672.51 486.38 665.766 485.068 663.01C484.49 661.807 483.375 660.781 482.036 660.234C480.87 659.76 479 658.687 477.88 657.844C476.76 657.005 475.604 656.318 475.312 656.318C475.021 656.318 473.943 655.724 472.917 654.99C471.891 654.26 469.844 653.099 468.365 652.411C466.891 651.729 464.937 650.286 464.026 649.203C461.734 646.479 457.87 644.156 454.984 643.771C453.583 643.583 450.599 642.255 447.922 640.63C445.37 639.078 441.995 637.474 440.422 637.057C438.849 636.641 435.786 635.234 433.615 633.922C428.396 630.781 425.099 629.391 420.797 628.521C417.068 627.771 411.589 625.135 406.573 621.682L403.583 619.625L392.677 619.37L381.776 619.12L377.755 617.026C375.109 615.651 372.927 614.937 371.37 614.937C370.068 614.937 368.255 614.547 367.339 614.073C366.422 613.604 364.109 612.943 362.198 612.615C360.281 612.281 356.724 611.443 354.281 610.745C351.844 610.047 349.125 609.349 348.245 609.187C346.219 608.818 345.214 607.635 345.677 606.172C346.078 604.901 350.187 603.115 352.698 603.115C353.589 603.115 355.276 602.713 356.443 602.224C357.609 601.74 359.307 601.338 360.208 601.338C361.109 601.338 363.406 600.521 365.307 599.521C368.125 598.036 369.208 597.766 371.135 598.052C378.318 599.135 381.859 599.104 384.484 597.922C388.177 596.271 391.016 595.885 393.984 596.625C397.682 597.547 404.437 599.016 407.25 599.51C408.578 599.745 410.62 600.526 411.781 601.25C412.958 601.974 416.099 602.937 418.828 603.406C423.411 604.198 423.906 604.427 425.969 606.713C427.891 608.844 428.422 609.125 429.958 608.818C432.927 608.224 435.255 609.068 437.927 611.703C440.214 613.953 440.865 614.255 444.234 614.635C448.078 615.073 454.792 617.557 457.693 619.625C458.589 620.266 460.359 621.146 461.635 621.588C462.911 622.031 465.552 623.521 467.505 624.896C473.677 629.25 478.224 631.937 480.099 632.349C481.099 632.568 482.932 633.479 484.172 634.37C485.411 635.26 487.625 636.568 489.094 637.271C490.568 637.979 492.234 639.344 492.802 640.307C493.437 641.375 495.068 642.62 497.016 643.51C499.672 644.729 500.521 645.526 502.203 648.406C503.917 651.344 504.536 651.911 506.422 652.302C509.885 653.021 511.807 654.276 513.057 656.625C513.729 657.885 515.141 659.271 516.432 659.937C517.651 660.562 519.229 661.958 519.937 663.036C520.641 664.115 522.161 665.505 523.312 666.125C524.464 666.75 526 668.187 526.724 669.328C527.443 670.463 528.651 672.172 529.401 673.115C530.151 674.062 531.167 675.557 531.651 676.432C532.141 677.312 533.339 679.099 534.312 680.411C535.286 681.719 536.885 684.083 537.859 685.667L539.63 688.542L540.016 683.812C540.609 676.51 541.495 670.385 542.224 668.552C542.589 667.635 542.885 665.667 542.885 664.177C542.885 662.687 543.307 659.385 543.823 656.849L544.755 652.234L543.229 650.229C541.594 648.088 539.339 642.193 539.339 640.068C539.339 639.359 538.255 637.271 536.937 635.427C533.714 630.927 532.406 627.786 531.911 623.333C531.516 619.838 531.328 619.479 528.833 617.422C524.281 613.677 522.823 611.953 522.177 609.562C521.391 606.646 518.062 601.911 514.109 598.088C512.432 596.463 510.656 594.151 510.167 592.953C509.63 591.635 508.26 590.068 506.719 588.995C502.016 585.729 501.068 584.833 500.062 582.719C499.182 580.859 496.75 578.641 491.766 575.141C490.927 574.547 489.781 573.094 489.219 571.911C488.432 570.255 487.734 569.656 486.198 569.344C485.099 569.12 483.505 568.38 482.651 567.698C481.802 567.021 480.109 565.922 478.891 565.266C477.677 564.615 476.25 563.411 475.719 562.599C474.891 561.338 466.047 556.406 464.62 556.406C464.354 556.406 463.406 555.885 462.516 555.25C461.625 554.615 459.432 553.547 457.646 552.88C455.854 552.208 453.771 551 453.01 550.193C452.25 549.38 451.333 548.719 450.969 548.719C450.609 548.719 449.255 548.167 447.969 547.49C444.068 545.437 441.141 544.536 435.76 543.719C432.469 543.219 429.99 542.484 428.854 541.677C426.385 539.917 422.568 538.667 419.687 538.667C416.526 538.667 408.167 537.125 403.651 535.703C399.245 534.312 380.385 533.526 378.307 534.651C376.411 535.672 361.844 536.896 358.276 536.328C355.906 535.958 354.531 536.094 352.01 536.963C350.234 537.573 348.089 538.078 347.245 538.083C346.401 538.083 345.047 538.484 344.234 538.958C340.115 541.365 336.505 542.755 333.406 543.13C330.521 543.474 329.766 543.823 328.677 545.307C327.026 547.552 319.328 552.755 316.823 553.318C314.583 553.812 311.286 557.271 309.365 561.135C307.578 564.719 305.448 566.88 302.896 567.698C301.729 568.073 300.453 568.641 300.057 568.953C298.792 569.953 286.323 577.005 285.167 577.375C283.589 577.875 282.151 576.198 282.151 573.865C282.151 572.786 282.667 570.208 283.297 568.141C283.922 566.078 284.755 562.713 285.151 560.667C285.615 558.25 286.453 556.213 287.557 554.823C288.484 553.651 289.25 552.318 289.25 551.865C289.25 548.984 299.271 537.865 303.516 536.031C307.068 534.5 310.646 531.734 312.854 528.818C315.542 525.26 320.49 522.677 325.755 522.088C328.969 521.724 329.781 521.365 332.026 519.297C335.198 516.37 336.422 516.088 344.427 516.437C350.589 516.703 350.958 516.646 356.229 514.635C359.953 513.213 362.51 512.594 364.333 512.667C367.63 512.797 369.974 512.745 375.271 512.391C391.375 511.318 390.833 511.302 398.031 513.13C404.26 514.719 405.016 514.792 407.12 514.052C410.365 512.906 411.969 513.036 415.099 514.693C420.151 517.359 422.302 517.937 428.661 518.333C434.656 518.703 437.307 519.422 439.417 521.245C439.906 521.667 442.167 522.995 444.443 524.193C447.734 525.932 449.599 526.484 453.547 526.906C460.187 527.609 462.26 528.229 465.677 530.521C470.458 533.724 476.802 536.969 479.672 537.672C481.979 538.24 484.24 540.266 485.63 543.01C487.156 546.021 487.604 546.333 490.443 546.344C493.651 546.354 495.615 547.583 498.573 551.417C499.995 553.266 502.104 555.422 503.255 556.208C508.969 560.12 510.958 561.667 513.781 564.385C515.469 566.01 517.917 568.312 519.224 569.495C520.828 570.953 521.599 572.146 521.599 573.182C521.599 574.323 522.193 575.094 523.922 576.182C525.198 576.99 526.729 578.354 527.323 579.224C527.917 580.088 530.161 582.708 532.312 585.042C534.469 587.38 536.427 589.906 536.661 590.651C536.901 591.401 538.198 593.13 539.547 594.495C543.365 598.354 545.833 602.146 546.969 605.891C547.542 607.781 548.344 609.953 548.755 610.724C549.385 611.901 549.63 611.99 550.302 611.307C551.203 610.391 553.135 602.401 552.995 600.156C552.724 595.828 553.01 588.151 553.568 584.708C553.917 582.552 554.25 577.63 554.307 573.771C554.385 568.437 554.656 566.307 555.422 564.911C556.318 563.276 556.359 562.24 555.823 555.5C555.307 549.052 555.354 547.568 556.135 545.51C557.052 543.109 557.245 538.156 556.974 524.182C556.917 520.927 557.193 516.542 557.599 514.427C558.458 510 558.453 511.437 557.677 494.62C557.349 487.463 556.984 477.224 556.87 471.859C556.724 465.057 556.349 460.88 555.625 458.068C555.052 455.849 554.708 453.354 554.87 452.531C555.021 451.703 554.797 449.531 554.359 447.698C553.391 443.641 553.276 431.948 554.172 429.359C554.719 427.786 554.625 427 553.589 424.588C552.901 423 552.104 419.995 551.807 417.906C551.25 413.974 549.13 409.365 545.573 404.354C544.495 402.833 543.422 400.573 543.193 399.333C542.911 397.854 541.875 396.12 540.182 394.312C538.766 392.797 537.417 390.797 537.187 389.875C536.964 388.953 536.089 387.292 535.25 386.182C533.995 384.521 533.687 383.38 533.5 379.682C533.302 375.776 533.057 374.943 531.609 373.297C530.531 372.062 529.802 370.406 529.536 368.562C529.307 367.005 528.604 364.698 527.969 363.437C527.333 362.177 526.667 359.651 526.484 357.823C526.302 355.995 525.906 354 525.594 353.396C524.917 352.078 524.016 344.682 523.365 334.99C523.099 331.083 522.495 325.599 522.016 322.797C521.417 319.24 521.307 316.745 521.661 314.521C521.964 312.651 521.937 308.359 521.589 304.12C521.271 300.151 521.161 296.51 521.349 296.026C521.531 295.547 521.385 293.703 521.016 291.927C520.422 289.088 520.495 288.26 521.62 284.948C522.594 282.052 522.812 280.365 522.557 277.641C522.339 275.302 522.5 273.292 523.057 271.755C523.552 270.375 523.755 268.422 523.562 267.005C523.349 265.453 523.573 263.792 524.182 262.323C524.703 261.078 525.13 258.536 525.13 256.677C525.13 253.891 525.453 252.823 526.979 250.51L528.828 247.719L527.755 245.344C527.052 243.776 525.958 242.594 524.568 241.885C521.37 240.25 515.208 232.865 514.417 229.703C514.052 228.266 513.583 227.088 513.37 227.088C513.161 227.088 512.042 227.729 510.891 228.516C508.318 230.266 504.375 231.38 502.474 230.906C499.141 230.068 491.479 235.562 488.422 240.979C487.464 242.677 486.219 244.458 485.656 244.937C484.172 246.198 477.984 249.552 475.516 250.432C471.995 251.693 464.807 256.443 463.271 258.526C462.479 259.599 461.104 260.854 460.224 261.307C459.339 261.766 457.62 263.031 456.396 264.125C455.177 265.213 453.927 266.109 453.625 266.109C453.323 266.109 451.839 267.172 450.339 268.474C448.719 269.875 446.51 271.115 444.922 271.516C441.807 272.302 435.854 277.427 434.094 280.844C432.625 283.682 429.693 286.359 426.047 288.177C423.292 289.552 422.818 290.12 420.359 294.932C418.88 297.823 417.219 301.75 416.661 303.667C416.104 305.583 415.271 307.687 414.812 308.338C414.354 308.995 413.979 310.552 413.979 311.802C413.979 313.052 413.661 314.656 413.276 315.37C412.891 316.078 412.547 318.391 412.51 320.5C412.474 322.615 412.078 325.172 411.635 326.182C410.88 327.906 410.937 328.177 412.651 330.615C413.661 332.057 414.656 334.401 414.88 335.875C415.104 337.338 415.687 338.984 416.167 339.531C417.339 340.854 418.651 344.625 418.682 346.745C418.698 347.891 419.484 349.297 421.073 351.021C422.375 352.432 423.437 353.854 423.437 354.182C423.437 354.51 424.323 355.146 425.406 355.599C426.49 356.052 428.964 357.635 430.911 359.115C432.859 360.594 435.932 362.463 437.74 363.26C439.547 364.057 441.193 364.984 441.396 365.312C441.599 365.646 443.167 366.094 444.87 366.307C446.578 366.526 448.839 366.969 449.891 367.297C451.5 367.797 452.094 367.687 453.578 366.625C454.557 365.932 456.354 365.203 457.578 365.005C458.802 364.807 461.13 364.031 462.755 363.276C464.38 362.521 466.156 361.901 466.698 361.896C467.245 361.896 469.094 360.411 470.823 358.604C472.547 356.797 474.823 354.786 475.88 354.13C477.208 353.312 478 352.224 478.422 350.651C478.776 349.333 480.182 347.151 481.719 345.516C483.198 343.953 485.448 340.505 486.724 337.854C488 335.203 489.672 332.276 490.443 331.349C492.49 328.891 492.937 327.812 494.083 322.573C495.339 316.833 497.333 312.703 499.708 310.948C500.87 310.088 502.036 308.234 503.104 305.536C504 303.276 505.599 300.573 506.656 299.526C507.714 298.479 508.573 297.365 508.573 297.052C508.573 296.062 512.224 292.713 513.302 292.713C513.875 292.713 514.62 293.047 514.958 293.458C515.578 294.208 516.109 299.896 516.573 310.75C516.703 314 517 318.094 517.219 319.849C517.76 324.276 516.464 332.458 514.828 334.865C514.109 335.922 511.911 340.109 509.937 344.167C506.995 350.224 505.859 351.953 503.568 353.833C501.906 355.198 500.333 357.177 499.661 358.74C499.047 360.177 497.88 362.224 497.068 363.286C496.255 364.354 495.177 366.396 494.672 367.833C494.161 369.271 493.344 371.057 492.854 371.812C491.641 373.667 488.531 375.484 486.573 375.484C485.693 375.484 484.708 375.823 484.385 376.229C479.818 382 476.021 384.807 471.682 385.615C468.198 386.26 460.859 388.88 458.562 390.302C456.526 391.557 454.661 391.797 448.521 391.578C445.651 391.484 444.385 391.094 442.26 389.687C439.687 387.979 439.495 387.948 436.37 388.604C433.161 389.276 433.089 389.255 427.495 386.573C423.344 384.583 421.219 383.146 419.453 381.141C417.849 379.318 416.151 378.104 414.323 377.479C412.443 376.838 410.906 375.724 409.385 373.891C408.172 372.427 405.672 369.557 403.823 367.51C401.979 365.463 400.208 362.844 399.891 361.693C399.573 360.542 398.62 358.687 397.776 357.583C396.932 356.474 395.714 354.026 395.062 352.146C394.417 350.26 393.214 347.349 392.396 345.672C391.318 343.474 390.802 341.234 390.552 337.625C390.302 334.12 389.755 331.661 388.719 329.417C386.521 324.641 386.281 320.13 388.036 316.562C389.203 314.193 389.443 312.792 389.443 308.38C389.443 303.224 389.5 302.969 391.583 300.01C393.141 297.792 393.839 296.062 394.135 293.682C394.62 289.807 396.385 286.927 399.219 285.396C400.849 284.51 401.828 283.141 404.005 278.693C406.448 273.698 406.604 273.146 405.484 273.484C404.219 273.865 401.146 274.38 392.401 275.677C389.797 276.062 385.807 276.406 383.531 276.443C381.255 276.479 377.458 276.87 375.089 277.318C371.302 278.031 370.167 278.016 365.63 277.151C362.792 276.615 359.276 276.01 357.812 275.802C354.38 275.318 350.578 273.13 348.51 270.453C347.542 269.203 345.542 267.734 343.625 266.875C341.833 266.068 339.573 264.807 338.599 264.073C337.62 263.338 335.568 262.177 334.031 261.505C331.255 260.281 328.849 257.437 328.844 255.38C328.844 254.849 327.906 253.052 326.766 251.396C325.625 249.734 323.901 246.828 322.943 244.932L321.193 241.495L321.344 228.505L321.49 215.521L324.307 211C325.859 208.516 327.51 206.161 327.974 205.776C328.443 205.385 329.104 204.042 329.443 202.776C330.271 199.708 337.271 191.875 341.453 189.349C343.24 188.271 345.875 187.031 347.307 186.599C348.745 186.167 351.094 184.99 352.531 183.984C356 181.547 361.089 179.828 366.734 179.187C369.271 178.896 372.214 178.213 373.271 177.667C374.328 177.12 376.911 176.536 379.016 176.37L382.839 176.062L381.49 174.969C380.745 174.365 379.786 173.875 379.349 173.875C377.859 173.875 371.5 167.391 370.766 165.125C370.38 163.922 368.953 161.604 367.594 159.979C362.734 154.156 360.641 149.859 359.818 144.021C359.542 142.083 358.802 140.323 357.667 138.911C356.594 137.573 355.807 135.776 355.604 134.177C355.417 132.76 354.859 130.802 354.349 129.828C353.516 128.245 353.276 125.979 352.953 116.672C352.917 115.453 353.208 110.198 353.609 104.995C354.573 92.4999 355.635 89.1718 360.25 84.2135C362.156 82.1666 363.714 80.2187 363.714 79.8853C363.714 79.552 364.62 78.2812 365.724 77.0572C366.828 75.8385 368.026 73.7291 368.391 72.3801C368.802 70.8541 369.833 69.2395 371.125 68.1093C373.177 66.3072 373.74 66.0833 378.057 65.3905C379.505 65.1562 380.609 64.5312 381.229 63.578C382.714 61.3124 389.333 58.4322 393.552 58.2187C395.516 58.1249 398.714 57.7551 400.667 57.401C410.464 55.6458 414.865 55.9374 418.802 58.6041C420.208 59.5572 421.891 60.3385 422.542 60.3489C423.193 60.3593 424.594 60.8905 425.661 61.5416C426.839 62.2603 428.641 62.7239 430.26 62.7239C433.375 62.7239 436.271 63.8176 437.854 65.5937C438.474 66.2916 440.359 67.4895 442.047 68.2603C444.104 69.203 445.552 70.3749 446.443 71.8176C447.974 74.2916 449.76 75.5208 450.193 74.3905C450.344 73.9895 450.214 72.0468 449.891 70.0676C449.359 66.7551 449.443 66.1822 450.958 62.677C452.375 59.4166 452.583 58.2083 452.464 54.1405C452.333 49.901 452.484 49.1666 453.839 47.1666C454.812 45.7343 455.354 44.1249 455.354 42.677C455.354 39.6197 458.276 34.2343 462.12 30.203C465.927 26.2187 467.547 23.901 469.839 19.151C471.151 16.4374 472.693 14.5364 475.75 11.8541C480.036 8.09888 488.198 3.59888 490.729 3.59888C491.521 3.59888 493.052 3.052 494.135 2.38013C497.276 0.442626 498.979 0.203043 506.198 0.692626C511.964 1.08846 513.583 1.43221 516.854 2.96346C518.974 3.95304 521.964 4.99992 523.49 5.28638C527.021 5.94784 528.891 7.18221 530.703 10.0468C531.74 11.6978 533.25 12.8801 536.151 14.3228C539.87 16.1666 540.385 16.6666 543.135 21.1041C544.771 23.7395 547.464 27.2083 549.12 28.8124C551.479 31.0937 552.417 32.5728 553.427 35.6145C554.151 37.7812 555.401 40.1249 556.255 40.9114C558.521 42.9999 559.484 45.7916 559.365 49.9166C559.286 52.5103 559.604 54.3228 560.469 56.2187C561.135 57.6822 562.135 60.6874 562.687 62.8958C563.24 65.1041 563.891 66.8333 564.13 66.7395C564.37 66.6458 565.943 64.901 567.625 62.8697C569.385 60.7499 571.875 58.5364 573.474 57.6822C576.948 55.8176 580.948 52.828 583.656 50.0624C584.792 48.901 587.057 47.4478 588.677 46.8333C593.839 44.8905 598.609 42.4791 601.172 40.5208C603.859 38.4687 608.839 36.9635 611.078 37.526C612.682 37.9322 620.703 35.6614 624.484 33.7343C626.74 32.5833 627.651 32.4635 631.646 32.7708C634.995 33.026 636.776 32.8801 638.297 32.2551C640.953 31.1458 644.021 31.151 646.708 32.2708C647.875 32.7603 649.828 33.1614 651.047 33.1614C654.115 33.1614 657.005 34.2864 662.875 37.7708C669.615 41.776 671.547 43.4583 673.245 46.8072C674.031 48.3593 674.927 49.7864 675.234 49.9739C675.536 50.1614 676.255 51.578 676.828 53.1197C677.401 54.6614 679.005 57.1614 680.396 58.677C683.437 61.9947 683.88 63.4843 683.224 68.2447C682.521 73.3958 682.615 78.4062 683.495 82.526C684.182 85.7343 684.146 86.3593 683.109 89.0312C682.479 90.6562 681.776 93.8489 681.557 96.1249C680.995 101.927 680.286 104.203 678.245 106.766C677.271 107.995 676.198 110.021 675.865 111.276C675.526 112.526 673.807 115.703 672.047 118.333C670.292 120.963 668.531 124.094 668.135 125.286C667.073 128.536 665.948 129.979 663.339 131.448C662.047 132.172 660.589 133.542 660.099 134.479L659.214 136.193L660.896 135.786C661.823 135.568 664.708 135.151 667.307 134.87C669.911 134.588 673.37 133.906 674.995 133.349C676.755 132.75 680.224 132.281 683.568 132.187C686.656 132.094 690.401 131.838 691.891 131.604C694.214 131.229 695.224 131.453 698.99 133.099C703.068 134.896 703.849 135.036 710.172 135.088C716.479 135.146 717.146 135.255 719.339 136.703C720.917 137.745 722.818 138.37 725.057 138.578C728.76 138.922 732.672 140.495 735.13 142.625C739.807 146.672 741.771 148.016 744.234 148.854C746.526 149.635 747.474 150.495 750.292 154.333C752.125 156.838 754.594 159.594 755.776 160.453C756.964 161.323 758.51 163.276 759.245 164.833C759.974 166.38 761.094 168.016 761.745 168.474C763.328 169.583 765.13 173.687 765.146 176.24C765.156 177.38 765.823 179.562 766.635 181.088C768.62 184.812 768.776 193.016 766.932 196.63C766.271 197.927 765.75 200.12 765.75 201.599C765.75 203.641 765.198 205.177 763.339 208.312C762.01 210.547 760.557 212.516 760.109 212.687C759.661 212.854 758.63 214.13 757.823 215.51C756.885 217.115 754.719 219.177 751.828 221.219C744.786 226.203 744.286 226.484 742.354 226.484C741.161 226.484 740.042 227.016 739.099 228.021C737.083 230.182 734.844 231.219 732.203 231.219C730.958 231.219 728.891 231.75 727.615 232.401C726.339 233.052 724.885 233.594 724.385 233.599C723.885 233.615 722.021 234.125 720.234 234.74C718.021 235.5 716.13 235.755 714.266 235.531C712.714 235.349 709.448 235.625 706.693 236.193C703.99 236.74 700.969 237.005 699.844 236.797C696.734 236.213 696.203 236.984 698.234 239.115C699.203 240.135 700.542 242.062 701.208 243.391C701.875 244.724 703.167 246.302 704.083 246.896C707.125 248.875 713.781 255.135 715.078 257.229C715.781 258.365 717.75 261.245 719.453 263.62C721.156 265.995 722.724 268.865 722.937 270C723.24 271.609 723.807 272.307 725.568 273.203C728.083 274.49 729.896 276.75 730.526 279.401C730.755 280.375 731.99 282.786 733.266 284.755C734.807 287.13 735.719 289.323 735.969 291.26C736.182 292.865 736.609 294.687 736.932 295.302C737.245 295.922 737.724 299.156 737.995 302.495C738.344 306.833 738.849 309.286 739.776 311.099C740.891 313.286 741.016 314.213 740.687 317.802C740.172 323.411 739.198 328.437 737.922 332.073C735.927 337.771 733.167 342.922 731.469 344.135C730.536 344.802 729.193 346.281 728.484 347.427C727.693 348.708 725.911 350.193 723.859 351.286C722.026 352.266 719.458 353.713 718.156 354.505C716.859 355.297 715.26 355.948 714.604 355.953C713.953 355.953 712.224 356.599 710.76 357.38C709.297 358.156 706.505 359.021 704.557 359.302C700.437 359.891 692.542 359.849 689.323 359.224C688.078 358.984 685.969 359.078 684.552 359.432C681.37 360.229 678.354 359.484 675.724 357.229C674.672 356.333 672.641 355.26 671.208 354.844C669.776 354.427 666.047 352.604 662.932 350.786C659.812 348.969 655.312 346.406 652.927 345.099C648.339 342.573 646.932 341.078 645.771 337.495C645.073 335.354 643.245 333.5 641.828 333.5C641.448 333.5 640.698 334.432 640.161 335.562C639.271 337.437 639.26 337.87 640.083 340.271C641.286 343.812 640.755 353.385 639.146 357.125C638.432 358.781 638.151 360.37 638.38 361.417C638.578 362.328 638.323 365.135 637.828 367.651C637.323 370.167 636.76 373.208 636.578 374.406C636.38 375.661 635.12 378.104 633.599 380.177C631.406 383.151 630.859 384.437 630.401 387.672C629.745 392.302 628.234 394.812 623.01 399.958C620.344 402.588 619.203 404.187 618.922 405.703C618.281 409.099 614.88 412.552 611.094 413.656C608.818 414.318 607.479 415.125 606.552 416.391C604.521 419.172 598.875 422.693 593.427 424.578C589.021 426.104 587.969 426.255 583.828 425.932C580.224 425.656 578.771 425.786 577.385 426.5C575.646 427.401 575.604 427.516 575.854 430.979C576.005 432.937 575.844 435.297 575.526 436.219C575.083 437.49 575.224 438.984 576.104 442.312C576.875 445.229 577.323 449.146 577.437 453.88C577.568 459.234 577.849 461.401 578.562 462.49C579.943 464.599 580.76 474.156 580.922 490.177C581.036 500.948 580.87 504.698 580.208 506.859C579.448 509.344 579.458 510.094 580.323 513.661C581.589 518.885 581.557 519.437 579.76 523.286C578.375 526.26 578.297 526.812 578.875 529.786C579.219 531.578 579.562 535.703 579.635 538.953C579.75 543.74 579.562 545.25 578.698 546.885C577.615 548.901 577.615 549.911 578.698 556.479C578.932 557.932 578.708 559.344 578.01 560.823C577.109 562.724 577.052 563.562 577.604 567.13C578.245 571.26 578.068 572.583 576.37 576.531C575.667 578.172 575.594 579.213 576.042 581.208C576.458 583.078 576.391 584.917 575.781 587.969C575.214 590.823 575.042 594.385 575.24 599.13L575.536 606.099L573.005 611.187L570.474 616.271L571.214 619.99C571.62 622.031 571.865 625.583 571.76 627.88C571.646 630.177 571.76 632.062 572 632.062C572.234 632.062 572.714 632.078 573.052 632.078C573.391 632.078 574.036 631.213 574.484 630.156C575.469 627.807 577.385 626.036 582.776 622.49C585.411 620.755 587.328 618.995 588.047 617.641C588.839 616.151 590.12 615.057 592.344 613.969C594.089 613.115 595.656 612.182 595.839 611.891C596.021 611.604 597.276 610.802 598.635 610.12C599.995 609.432 602.318 607.745 603.802 606.365C605.281 604.99 607.432 603.557 608.573 603.177C609.719 602.802 611.224 601.729 611.911 600.792C614.219 597.672 618.443 594.75 624.37 592.182C627.599 590.776 631.135 589.448 632.229 589.219C633.323 588.995 635.146 588.213 636.286 587.484C642.01 583.828 643.245 583.141 645.151 582.562C646.292 582.213 648.521 581.776 650.104 581.583C651.687 581.391 654.38 580.437 656.089 579.458C658.396 578.141 659.948 577.687 662.135 577.687C663.75 577.687 665.849 577.417 666.792 577.094C670.333 575.865 683.109 574.885 689.792 575.333C691.578 575.443 693.714 575.146 695.198 574.562C697.13 573.797 698.068 573.729 699.635 574.219C700.724 574.562 704.578 574.948 708.198 575.078C714.219 575.292 715.646 575.588 725.047 578.588C730.693 580.391 736.984 582.521 739.021 583.323C741.062 584.125 743.302 584.781 744 584.781C745.922 584.781 754.536 589.365 756.943 591.672C758.109 592.786 760.771 594.505 762.859 595.49C767.635 597.74 769.75 599.745 770.557 602.786C771.328 605.682 772.255 606.786 775.547 608.713C779.396 610.969 782.677 615.047 783.542 618.651C783.948 620.344 785.036 623.328 785.958 625.276C786.88 627.229 787.635 629.719 787.635 630.807C787.641 631.896 788.016 633.49 788.479 634.354C788.943 635.219 789.609 637.51 789.964 639.443C790.479 642.297 790.448 643.12 789.792 643.786C789.099 644.479 788.682 644.453 786.979 643.583C785.885 643.021 783.922 641.646 782.62 640.531C778.547 637.031 776.776 635.641 774.641 634.25C765.406 628.26 759.62 623.969 757.995 621.917C755.052 618.198 750.568 614.193 747.698 612.713C746.276 611.979 744.505 610.557 743.766 609.552C742.141 607.349 736.229 604.484 730.901 603.318C728.349 602.76 726.521 601.958 725.427 600.906C723.922 599.469 723.411 599.338 719.661 599.469C716.859 599.562 714.984 599.318 713.771 598.693C712.625 598.099 709.021 597.573 703.557 597.198C698.917 596.88 693.328 596.344 691.141 596C687.422 595.422 686.896 595.484 683.177 596.969C680.771 597.932 678.135 598.547 676.516 598.521C675.036 598.505 672.573 599.021 671.021 599.687C669.089 600.516 667.474 600.802 665.896 600.588C664.245 600.37 663.062 600.604 661.719 601.422C659.286 602.901 653.885 604.292 650.573 604.292C648.385 604.292 647.542 604.656 645.453 606.51C642.068 609.516 637.094 612.469 634.224 613.177C630.552 614.078 626.823 616.177 624.203 618.812C622.885 620.141 620.208 622.245 618.26 623.5C616.307 624.755 614.047 626.224 613.234 626.771C612.422 627.312 610.823 628.234 609.687 628.818C608.547 629.401 606.62 630.771 605.401 631.865C604.177 632.958 602.922 633.854 602.604 633.854C602.286 633.854 601.505 634.875 600.865 636.13C599.661 638.484 596.844 641.271 593.896 643.01C592.958 643.568 591.594 644.891 590.859 645.963C590.13 647.031 587.948 649.177 586.01 650.724C581.792 654.109 576.401 660.667 575.437 663.594C575.052 664.755 574.208 666.38 573.568 667.198C570.51 671.078 568.312 674.901 567.984 676.896C567.786 678.099 567.125 680.547 566.51 682.333C565.896 684.125 565.094 686.76 564.729 688.193C564.359 689.661 563.271 691.594 562.25 692.62C559.714 695.156 558.255 697.719 558.255 699.646C558.25 700.547 557.714 702.807 557.052 704.667C555.651 708.63 554.635 714.203 554.339 719.536C554.193 722.401 553.766 723.859 552.646 725.479C551.651 726.911 551.156 728.427 551.156 730.016C551.156 731.328 550.635 733.927 549.995 735.786C549.354 737.641 548.531 740.802 548.167 742.802C547.807 744.802 546.865 747.536 546.078 748.88C545.297 750.219 544.651 752.036 544.651 752.922C544.651 753.802 544.24 755.318 543.74 756.286C543.156 757.411 542.964 758.745 543.198 760C543.573 762.005 542.417 765.667 540.849 767.448C540.411 767.948 539.729 770.354 539.333 772.792C538.672 776.901 537.646 779.734 535.479 783.432C535.005 784.25 534.609 785.443 534.609 786.094C534.609 786.745 534.068 788.677 533.417 790.385C532.766 792.099 532.234 794.526 532.234 795.786C532.234 797.042 531.823 799.047 531.323 800.245C530.823 801.443 530.401 804.203 530.391 806.375C530.375 808.724 529.875 811.776 529.167 813.88C526.797 820.896 526.052 824.078 525.807 828.172C525.771 828.88 525.094 830.213 524.318 831.135C523.078 832.615 522.854 833.656 522.469 839.87C522.135 845.193 521.609 848.167 520.333 851.984C519.125 855.599 518.578 858.562 518.411 862.365C518.281 865.292 517.786 869.146 517.297 870.937C516.812 872.724 516.234 876.984 516.016 880.396C515.74 884.75 515.281 887.266 514.479 888.818C513.599 890.526 513.474 891.375 513.917 892.552C514.807 894.885 514.625 896.599 513.021 901.203C511.943 904.276 511.542 906.656 511.542 909.911C511.542 914.474 510.312 921.713 509.078 924.422C508.557 925.562 508.568 926.661 509.115 929.026C509.844 932.146 509.443 939 508.01 948.094C507.208 953.182 507.151 962.182 507.901 963.604C508.792 965.276 509.125 978.74 508.448 986.083C507.974 991.25 508.042 992.604 508.901 995.193C509.703 997.604 509.828 999.318 509.516 1003.46C509.146 1008.4 509.224 1008.94 510.964 1013.27C512.641 1017.43 512.771 1018.24 512.422 1022.04C512.036 1026.19 512.052 1026.23 514.135 1028.73C515.292 1030.11 516.521 1032.35 516.875 1033.71C517.229 1035.07 517.76 1037.11 518.062 1038.26C518.37 1039.39 518.615 1041.87 518.62 1043.77C518.62 1045.83 519.193 1048.93 520.042 1051.46C520.823 1053.79 521.464 1056.09 521.469 1056.58C521.505 1059.22 523.469 1073.08 524.047 1074.67C525.411 1078.46 522.891 1079.71 519.422 1076.97H519.448ZM586.109 402.094C588.604 401.609 590.276 400.766 592.911 398.667C594.833 397.135 597.401 395.135 598.62 394.224C599.833 393.318 600.828 392.245 600.828 391.844C600.828 390.63 604.719 382.932 605.771 382.057C606.312 381.609 607.906 379.479 609.318 377.328C611.698 373.698 612.589 371.333 613.589 366.026C613.802 364.885 614.349 363.229 614.802 362.344C616.01 359.984 616.656 348.073 616.208 336.463C616.057 332.651 616.245 330.13 616.812 328.62C617.578 326.536 617.505 326.005 615.667 320.391C613.812 314.745 613.74 314.213 614.422 311.365L615.151 308.338L612.484 303.922C610.922 301.338 609.542 298.141 609.146 296.198C608.672 293.87 607.958 292.396 606.734 291.224C604.026 288.63 601.958 285.333 601.354 282.646C601.052 281.297 600.036 279.213 599.094 278.026C598.156 276.838 596.786 274.562 596.047 272.969C595.312 271.38 593.219 268.568 591.396 266.719C589.12 264.417 587.833 262.536 587.312 260.745C586.891 259.302 585.339 256.557 583.865 254.635C582.391 252.713 580.536 249.854 579.745 248.281C578.068 244.943 576.677 244.594 574.667 247.005C570.891 251.536 568.198 253.099 564.177 253.099C562.854 253.099 560.823 253.5 559.661 253.984C557.12 255.047 555.219 255.208 551.995 254.641L549.573 254.208L548.823 256.885C548.411 258.354 548.24 260.208 548.437 261.005C548.932 262.984 547.755 277.151 546.88 279.708C546.432 281.026 546.24 284.568 546.354 289.463C546.484 295.25 546.318 297.651 545.667 299.187C544.604 301.661 544.854 308.703 546.229 315.01C546.979 318.469 547.026 319.818 546.474 322.12C545.901 324.51 545.953 325.333 546.781 327.312C547.526 329.104 547.682 330.661 547.417 333.823C547.073 337.911 547.812 342.38 549.292 345.146C549.656 345.823 550.255 348.328 550.625 350.708C550.995 353.094 551.802 355.979 552.417 357.125C553.031 358.271 553.531 359.625 553.531 360.13C553.531 360.635 554.349 363.432 555.344 366.344C556.339 369.26 557.568 373.099 558.068 374.875C558.573 376.651 559.62 379.042 560.396 380.187C561.172 381.328 561.807 382.62 561.807 383.047C561.807 383.479 562.859 385.568 564.141 387.693C565.422 389.818 566.646 392.396 566.87 393.422C567.422 396.021 567.844 396.417 572.562 398.818C574.854 399.979 577.411 401.469 578.245 402.125C579.224 402.896 580.307 403.219 581.281 403.031C582.115 402.865 584.286 402.453 586.109 402.099V402.094ZM703.771 334.396C704.948 333.63 706.969 332.719 708.26 332.37C709.552 332.026 711.089 331.213 711.667 330.573C712.724 329.401 715.016 323.213 715.828 319.318C716.068 318.177 716.646 316.495 717.115 315.578C717.859 314.12 717.859 313.74 717.104 312.594C716.63 311.87 715.812 309.594 715.281 307.531C714.177 303.219 712.562 299.594 710.755 297.375C709.948 296.38 709.427 294.776 709.297 292.891C709.052 289.312 705.479 283.224 701.964 280.401C700.62 279.323 698.969 277.12 698.016 275.135C695.974 270.891 690.276 264.307 686.964 262.365C685.516 261.516 683.896 259.885 683.104 258.479C681.995 256.5 681.271 255.932 679.198 255.411C677.359 254.948 675.146 253.453 671.255 250.052C668.286 247.453 665.859 245.094 665.859 244.807C665.859 244.521 664.594 243.437 663.047 242.401C661.505 241.359 659.578 239.901 658.766 239.156C655.865 236.505 650.797 235.615 641.323 236.088C639.797 236.161 626.109 234.141 625.443 233.74C624.766 233.338 617.812 232.448 611.094 231.896C607.536 231.604 605.151 231.094 604.094 230.406C602.839 229.583 601.859 229.437 599.589 229.755C597.99 229.974 596.682 230.271 596.682 230.422C596.682 231.036 602.24 241.13 603.505 242.807C604.26 243.812 606.214 245.943 607.849 247.542C609.479 249.141 611.208 251.385 611.687 252.536C612.677 254.911 615.557 259.203 620.479 265.651C622.349 268.104 623.88 270.349 623.88 270.646C623.88 270.943 625.078 273.01 626.542 275.24C628.005 277.463 629.203 279.552 629.203 279.87C629.203 280.453 631.141 282.776 636.354 288.437C638.557 290.833 639.516 292.51 640.474 295.656C641.766 299.917 643.542 302.026 648.198 304.838C649.281 305.49 651.104 307.557 652.25 309.432C653.396 311.312 655.198 313.37 656.26 314.01C657.323 314.651 659.047 316.437 660.094 317.984C662.505 321.552 668.484 327.354 671.177 328.745C672.318 329.333 674.182 330.01 675.318 330.245C676.458 330.484 678.281 331.219 679.37 331.885C680.458 332.547 683.255 333.854 685.578 334.792C689.557 336.396 690.151 336.474 695.714 336.141C700.547 335.854 702.021 335.536 703.766 334.396H703.771ZM420.474 259.547C421.526 258.536 423.562 257.198 424.995 256.562C426.901 255.719 427.932 254.766 428.823 253.021C429.734 251.229 430.734 250.333 432.812 249.417C434.333 248.75 436.307 247.594 437.198 246.854C438.083 246.115 440.781 244.422 443.187 243.094C445.599 241.766 448.5 239.609 449.641 238.307C450.781 237.01 452.984 235.38 454.536 234.693C456.089 234.01 457.964 232.724 458.708 231.844C460.135 230.146 470.339 225.312 472.495 225.312C473.182 225.312 474.87 224.312 476.24 223.088C479.458 220.224 483.547 217.453 485.984 216.479C488.286 215.557 488.365 215.109 486.448 213.849C484.615 212.651 476.281 209.963 474.307 209.937C473.495 209.922 471.682 209.391 470.276 208.755C468.875 208.12 465.448 207.312 462.656 206.969C459.87 206.62 456.76 205.891 455.75 205.338C454.458 204.641 452.469 204.338 449.094 204.333C444.484 204.323 444.172 204.24 441.703 202.255C439.297 200.318 438.818 200.172 434.401 200.036C431.797 199.958 428.87 199.849 427.896 199.823C426.922 199.786 424.974 199.953 423.573 200.203C420.844 200.677 415.922 199.594 411.177 197.474C408.141 196.115 406.656 196.068 403.417 197.208C401.719 197.807 398.531 198.068 393.078 198.057C385.958 198.042 384.839 198.187 381.464 199.557C379.411 200.391 377.177 201.073 376.505 201.073C375.828 201.073 373.74 201.885 371.859 202.875C369.182 204.292 367.807 204.646 365.5 204.542C363.062 204.432 362.276 204.672 360.932 205.906C360.042 206.729 357.797 208.391 355.937 209.599C354.083 210.807 352.391 212.354 352.172 213.042C351.953 213.724 350.214 215.844 348.302 217.75L344.823 221.219L345.203 224.458C345.417 226.292 345.255 229.609 344.828 232.109L344.073 236.526L346.323 239.344C350.427 244.5 353.266 247.135 355.125 247.521C356.13 247.729 358.01 248.5 359.312 249.234C363.719 251.719 366.807 252.495 372.953 252.651C378.323 252.781 379.151 252.969 381.365 254.432C383.437 255.802 384.453 256.057 387.828 256.062C390.771 256.062 392.339 256.37 393.745 257.229C394.979 257.984 396.234 258.286 397.292 258.078C398.187 257.911 400.521 258.057 402.474 258.417C404.422 258.776 407.219 259.161 408.682 259.266C410.146 259.38 412.406 259.875 413.703 260.38C417.177 261.729 418.344 261.583 420.474 259.552V259.547ZM560.26 214.187C560.625 209.437 560.568 209.088 559.125 207.198C557.349 204.865 555.594 204.646 553.286 206.458C551.427 207.917 551.661 208.38 554.266 208.427C555.771 208.448 556.271 208.786 556.724 210.062C557.505 212.276 556.391 214.536 554.292 215C553.385 215.198 551.786 215.792 550.74 216.323C548.927 217.24 548.75 217.229 547.193 216.062C546.286 215.391 545.453 214.333 545.339 213.719C545.036 212.12 544.089 211.12 542.88 211.12C540.583 211.12 540.51 215.156 542.75 217.672C544.036 219.115 545.469 219.792 549.401 220.828L554.411 222.141L557.141 220.667L559.87 219.187L560.26 214.187ZM680.359 213.463C682.615 213.016 683.984 213.068 686.078 213.698C689.724 214.797 698.901 214.37 702.521 212.932C703.984 212.354 707.974 211.536 711.391 211.115C715.443 210.615 718.568 209.865 720.385 208.958C721.922 208.198 724.24 207.573 725.536 207.573C727.151 207.573 728.792 207.01 730.698 205.802C732.24 204.828 733.792 204.026 734.151 204.026C735.312 204.026 740.594 198.365 742.682 194.88L744.708 191.505L743.125 186.641C742.255 183.969 741.068 181.266 740.49 180.635C739.911 180.005 737.885 177.542 735.99 175.156C733.536 172.068 731.818 170.51 730.016 169.734C728.62 169.135 726.719 167.682 725.792 166.5C723.26 163.276 716.609 160.26 710.583 159.604C707.505 159.266 704.766 158.562 702.969 157.641C699.943 156.083 697.005 155.896 685.375 156.516C682.286 156.682 676.167 156.917 671.776 157.036C667.385 157.146 661.089 157.427 657.786 157.635C654.437 157.849 650.042 157.745 647.865 157.406C642.51 156.573 638.01 157.724 635.464 160.573C633.094 163.224 628.552 166.422 624.479 168.312C622.693 169.141 619.896 171.083 618.271 172.63C616.646 174.177 613.385 176.583 611.026 177.979C607.437 180.099 606.094 180.557 602.75 180.812C598.974 181.094 598.635 181.245 596.396 183.635C593.714 186.495 591.073 187.458 585.922 187.469C582.609 187.469 578.365 188.896 578.365 190.005C578.365 190.307 579.01 191.057 579.797 191.682C580.589 192.302 581.823 193.802 582.547 195.016C583.266 196.234 584.792 198.62 585.937 200.328C587.859 203.193 588.198 203.432 590.344 203.432C592.927 203.432 596.771 204.422 604.625 207.104C609.365 208.724 610.286 208.859 613.786 208.432C619.776 207.698 622.312 207.771 636.115 209.083C639.917 209.443 643.328 210.297 648.521 212.167C651.099 213.099 652.125 213.177 655.177 212.672C658.344 212.146 659.083 212.219 661.245 213.271C663.375 214.302 664.635 214.432 670.552 214.26C674.318 214.151 678.729 213.792 680.359 213.463ZM501.807 192.646C501.578 191.917 501.115 189.984 500.781 188.359C499.865 183.906 498.026 179.76 495.818 177.182C494.729 175.906 493.708 174.042 493.557 173.042C493.411 172.036 493.13 170.26 492.948 169.099C492.766 167.932 491.651 165.406 490.469 163.479C489.292 161.557 487.729 158.917 487.01 157.615C486.286 156.318 484.464 153.391 482.958 151.115C481.453 148.838 480.219 146.74 480.219 146.453C480.219 145.224 474.203 135.568 472.286 133.713C471.13 132.599 469.891 130.74 469.526 129.573C469.161 128.411 467.719 126.385 466.323 125.073C463.896 122.781 462.495 119.755 462.484 116.786C462.484 114.979 461.323 113.875 458.245 112.745C456.417 112.078 454.719 110.828 453.219 109.047C451.974 107.562 449.495 104.984 447.708 103.312C445.922 101.635 443.245 99.0572 441.755 97.5728C440.089 95.9166 437.026 93.8958 433.771 92.3124C430.865 90.901 427.49 88.8541 426.266 87.7655C425.047 86.6718 423.542 85.7812 422.927 85.7812C422.312 85.7812 420.292 84.9843 418.437 84.0051C416.109 82.7812 414.224 82.2343 412.349 82.2343C410.859 82.2343 408.146 81.927 406.328 81.552C403.901 81.0468 401.703 81.0364 398.104 81.4947C393.589 82.0728 393.005 82.302 390.833 84.3958C385.562 89.4635 383.714 91.677 380.615 96.6145C377.599 101.411 377.396 101.963 377.734 104.411C377.937 105.896 377.771 108.193 377.365 109.656C376.76 111.807 376.792 113.125 377.552 117.203C379.052 125.271 379.182 126.094 379.599 130.463C379.901 133.588 380.417 135.276 381.635 137.115C382.531 138.469 383.891 140.974 384.651 142.682C385.411 144.396 387.156 146.859 388.526 148.156C389.901 149.458 391.781 152 392.708 153.807C393.635 155.62 394.854 157.479 395.417 157.948C395.984 158.417 397.974 160.854 399.839 163.365C401.703 165.88 404.292 169.135 405.583 170.604C407.932 173.276 407.937 173.276 413.219 173.823C416.125 174.125 419.682 174.901 421.13 175.547C425.365 177.443 430.974 178.224 434.328 177.38C436.714 176.781 437.901 176.828 441.698 177.672C444.187 178.229 447.552 178.969 449.177 179.312C450.802 179.661 452.932 180.365 453.906 180.88C455.031 181.474 457.229 181.823 459.917 181.838C463.432 181.854 464.479 182.099 466.057 183.266C468.109 184.781 474.198 186.63 479.922 187.474C481.87 187.766 484.667 188.427 486.13 188.953C487.594 189.474 490.906 190.276 493.49 190.734C496.208 191.213 498.828 192.057 499.698 192.734C501.693 194.292 502.323 194.266 501.807 192.641V192.646ZM528.995 180.38C530.62 179.411 532.818 178.62 533.875 178.615C534.927 178.615 535.797 178.484 535.797 178.338C535.797 178.193 534.964 175.771 533.943 172.963C532.37 168.62 532.141 167.281 532.396 164.099C532.589 161.708 533.161 159.594 533.99 158.26C535.031 156.568 535.203 155.667 534.885 153.542C534.594 151.573 534.812 150.073 535.734 147.588C537.312 143.37 538.245 135.047 538.031 127.13C537.844 120.208 539.115 103.859 539.969 102.266C540.276 101.698 540.526 99.7655 540.526 97.9791C540.526 96.1926 540.781 94.0572 541.089 93.2395C541.495 92.1666 541.385 90.9687 540.703 88.953C539.917 86.6458 539.865 85.703 540.432 83.5937C541.547 79.4114 541.312 74.3645 539.917 72.5937C538.068 70.2395 536.979 67.1562 536.979 64.2812C536.979 60.0728 535.193 52.6301 533.354 49.1874C532.422 47.4374 531.656 45.2187 531.656 44.2655C531.656 42.3801 529.76 40.2447 526.271 38.1874C525 37.4374 523.615 35.7603 522.49 33.6145C520.13 29.0937 515.995 26.0572 512.786 26.4895C511.286 26.6926 509.615 26.3593 507.516 25.4635C504.271 24.0676 503.427 24.0885 497.484 25.7343C495.5 26.2864 493.359 27.4791 491.635 28.9947C490.146 30.3124 488.714 31.3853 488.464 31.3853C488.214 31.3853 486.786 33.0103 485.292 34.9947C483.021 38.0208 482.583 39.0208 482.583 41.2291C482.583 44.2187 481.437 46.8437 479 49.4218C477.615 50.8853 477.229 51.9947 476.755 55.8176C476.411 58.5885 475.792 60.8801 475.214 61.5208C474.599 62.1978 474.068 64.3176 473.771 67.2655C473.51 69.8333 473 72.4947 472.635 73.177C472.271 73.8593 472.031 76.4166 472.104 78.8593C472.214 82.6405 472.047 83.5676 470.932 85.0728C468.724 88.0728 468.693 89.427 470.766 92.4999C471.786 94.0208 473.339 95.6301 474.203 96.0885C476.391 97.2343 478.943 100.083 482.458 105.292C484.099 107.729 487.292 111.755 489.547 114.24C491.807 116.719 493.833 119.484 494.057 120.375C494.281 121.271 495.521 123.25 496.807 124.776C498.349 126.604 499.682 129.156 500.708 132.24C501.88 135.76 502.818 137.437 504.484 138.99C505.927 140.338 506.943 141.99 507.406 143.724C507.792 145.187 508.885 147.557 509.833 148.995C510.776 150.432 511.552 152.302 511.552 153.146C511.552 153.99 512.651 156.536 513.995 158.807C515.339 161.078 516.792 164.068 517.219 165.448C517.646 166.828 518.766 168.958 519.703 170.177C521.406 172.396 525.151 180.151 525.151 181.458C525.151 182.479 525.724 182.318 528.995 180.38ZM560.328 173.875C560.979 173.161 562.151 172.693 563.297 172.693C564.37 172.693 565.932 172.115 566.88 171.37C567.807 170.641 569.036 170.125 569.609 170.224C570.865 170.432 577.714 166.703 579.307 164.943C581.146 162.911 584.839 161.349 588.635 161.005C591.469 160.75 592.724 160.281 594.781 158.708C596.208 157.62 597.786 156.729 598.286 156.729C598.792 156.729 600.703 156.052 602.531 155.219C605.042 154.078 606.229 153.094 607.391 151.193C609.094 148.391 615.661 143.463 619.453 142.13C621.005 141.588 622.37 140.505 623.417 138.995C624.297 137.729 625.755 136.234 626.667 135.672C627.578 135.115 629.927 133.036 631.891 131.057C633.854 129.083 636.51 126.781 637.802 125.943C639.234 125.016 641.297 122.646 643.104 119.859C644.729 117.354 647.057 113.922 648.276 112.234C649.599 110.406 650.495 108.49 650.495 107.49C650.495 105.146 651.401 103.557 654.13 101.151C656.312 99.2239 656.521 98.7655 657.026 94.7187C657.328 92.328 658 89.5364 658.521 88.5208C659.078 87.427 659.448 85.3385 659.411 83.4114C659.375 81.6197 659.609 79.2968 659.906 78.2447C660.328 76.7916 660.182 75.5572 659.318 73.0937C658.687 71.3072 658.177 69.3333 658.177 68.703C658.177 67.6197 651.891 58.5624 650.573 57.7499C650.234 57.5416 646.818 57.3333 642.984 57.2864C636.229 57.2135 633.286 57.5312 623.885 59.4114C621.448 59.901 618.286 60.3124 616.859 60.328C614.677 60.3489 613.854 60.7343 611.708 62.7135C609.958 64.328 608.396 65.1874 606.75 65.453C605.406 65.6666 603.365 66.6249 602.141 67.6197C600.932 68.5937 597.953 70.3228 595.521 71.4583C593.094 72.5989 590.094 74.1926 588.854 75.0155C586.594 76.5103 581.49 82.3958 579.193 86.1666C578.51 87.2812 574.99 91.203 571.359 94.8801C566.891 99.4062 564.766 101.995 564.766 102.896C564.766 103.63 564.333 105.13 563.807 106.24C563.068 107.802 562.943 109.198 563.245 112.536C563.807 118.708 563.568 130.109 562.833 131.87C562.495 132.698 562.156 135.505 562.089 138.109C562 141.958 561.615 143.656 560.057 147.271C559.005 149.708 557.927 152.901 557.661 154.365C557.396 155.828 556.88 157.797 556.516 158.74C555.75 160.724 554.953 172.703 555.495 174.109C556.01 175.458 559.031 175.312 560.328 173.875ZM648.057 774.901C646.479 774.458 644.354 774.297 643.031 774.521C640.307 774.979 632.969 773.828 630.516 772.557C629.135 771.844 628.307 771.786 626.51 772.286C624.63 772.802 623.734 772.708 621.255 771.729C617.271 770.156 612.885 768.833 609.995 768.338C608.693 768.115 606.297 767.198 604.672 766.297C603.042 765.401 600.589 764.474 599.214 764.245C597.844 764.01 595.849 763.187 594.781 762.417C593.719 761.646 591.599 760.338 590.078 759.521C588.552 758.698 586.604 757.109 585.75 755.984C584.885 754.854 583.443 753.781 582.505 753.578C580.875 753.219 579.437 752.099 576.792 749.109C576.083 748.312 574.026 746.208 572.214 744.432C570.401 742.656 568.474 740.26 567.927 739.115C567.385 737.963 566.385 736.271 565.708 735.349C564.526 733.745 564.187 731.932 563.219 721.885C562.833 717.927 563.917 716.271 566.484 716.896C567.328 717.099 568.948 717.484 570.089 717.75C572.562 718.328 579.568 722.521 582.625 725.255C583.828 726.333 585.823 727.734 587.057 728.37C589.318 729.531 591.927 731.995 592.948 733.932C593.969 735.865 603.792 742.047 605.839 742.047C606.927 742.047 608.828 742.776 610.339 743.771C612.651 745.297 615.151 746.219 625.661 749.427C627.125 749.875 630.167 750.542 632.417 750.906C634.672 751.276 637.068 751.885 637.74 752.26C638.828 752.865 645.312 753.385 650.198 753.255C663.573 752.911 663.802 752.891 666.141 751.609C667.427 750.901 669.224 750.323 670.135 750.323C671.052 750.323 673.323 749.943 675.187 749.474C677.052 749.005 681.724 748.167 685.573 747.609C690.849 746.844 693.026 746.26 694.437 745.229C696.729 743.562 704.63 739.411 706.661 738.812C708.974 738.125 719.734 732.588 722.031 730.901C723.172 730.062 725.062 728.542 726.229 727.516C727.661 726.266 729.271 725.516 731.13 725.24C733.656 724.859 734.161 724.484 736.964 720.922C739.427 717.786 740.74 716.703 743.667 715.375C746.312 714.172 747.646 713.151 748.552 711.615C749.234 710.453 750.719 708.958 751.849 708.292C752.979 707.625 754.083 706.5 754.302 705.792C754.682 704.573 760.521 698.536 765.339 694.391C767.646 692.401 770.536 688.833 772.714 685.281C773.411 684.135 774.693 682.542 775.557 681.734C776.427 680.922 777.766 679.026 778.531 677.516C780.75 673.156 782.495 672.099 786.896 672.448C792.026 672.849 795.5 674.948 796.833 678.443C797.823 681.026 797.812 681.109 796.297 684.432C795.448 686.286 794.755 688.203 794.755 688.698C794.755 689.193 794.078 691.635 793.25 694.125C791.333 699.911 787.464 705.01 783.812 706.578C782.062 707.323 780.901 708.323 780.24 709.646C779.026 712.062 773.74 717.599 771.552 718.755C770.661 719.224 769.406 720.641 768.76 721.901C768.12 723.161 766.672 724.766 765.542 725.463C764.411 726.156 763.01 727.713 762.422 728.922C761.833 730.125 760.443 731.646 759.339 732.297C758.234 732.943 755.943 734.807 754.245 736.432C750.13 740.375 744.849 744.547 742.859 745.422C741.974 745.812 740.474 746.146 739.531 746.161C738.302 746.182 736.922 747.031 734.687 749.146C732.896 750.838 731.01 752.099 730.266 752.099C729.474 752.099 727.776 753.349 725.865 755.338C723.63 757.656 721.464 759.161 718.182 760.656C715.667 761.807 713.344 762.74 713.021 762.74C712.698 762.74 710.016 763.828 707.068 765.156C704.115 766.49 699.953 767.937 697.823 768.385C691.151 769.776 687.49 770.812 685.359 771.917C684.052 772.599 682.177 772.958 680.193 772.906C678.479 772.87 676.38 773.094 675.526 773.422C670.922 775.172 652.526 776.167 648.057 774.906V774.901ZM583.682 698.807C580.214 697.859 578.953 695.896 578.953 691.443C578.953 686.901 579.896 684.401 583.26 680.047C585.031 677.745 586.615 676.432 588.745 675.49C590.385 674.766 592.516 673.516 593.474 672.708C596.937 669.807 599.844 668.141 601.448 668.141C602.443 668.141 604.031 667.349 605.51 666.115C606.896 664.953 609.401 663.672 611.333 663.125C613.198 662.594 615.255 662.005 615.906 661.818C616.557 661.625 618 660.984 619.109 660.396C620.219 659.802 622.349 659.135 623.839 658.917C625.547 658.667 627.255 657.901 628.458 656.854C629.505 655.943 631.37 655.042 632.594 654.865C633.823 654.677 636.422 654 638.375 653.354C640.323 652.708 643.089 652.177 644.51 652.177C646.307 652.177 648.354 651.542 651.177 650.104C654.719 648.297 655.771 648.036 659.229 648.099C663.474 648.172 670.557 647.318 671.745 646.583C672.703 645.984 679.12 645.568 685.76 645.661C689.26 645.719 692.359 645.396 694.531 644.766C698.344 643.656 701.073 643.948 703.292 645.693C704.286 646.474 705.682 646.859 707.526 646.859C711.562 646.859 720.021 650.646 721.672 653.198C722.37 654.281 723.776 655.411 724.875 655.776C725.948 656.135 727.854 657.469 729.115 658.74C730.37 660.01 731.958 661.047 732.651 661.047C734.401 661.047 744.495 670.969 744.495 672.698C744.495 674.505 743.036 675.151 740.297 674.557C739.031 674.281 736.932 673.828 735.641 673.547C734.344 673.266 732.917 672.729 732.464 672.354C732.01 671.979 731.234 671.828 730.74 672.016C730.24 672.208 728.432 671.943 726.714 671.437C724.995 670.927 722.464 670.51 721.083 670.51C718.776 670.51 716.474 670.135 709.797 668.682C708.208 668.333 706.276 668.365 704.427 668.755C702.141 669.245 700.99 669.187 698.885 668.474C697.135 667.88 694.214 667.594 690.359 667.63C687.13 667.672 682.229 667.62 679.464 667.521C675.672 667.391 673.974 667.594 672.547 668.333C671.505 668.875 669.609 669.318 668.333 669.318C667.052 669.318 665.042 669.719 663.865 670.213C662.687 670.703 660.057 671.276 658.026 671.479C655.635 671.713 652.984 672.516 650.495 673.76C646.021 675.984 643.073 676.797 636.75 677.536C633.187 677.953 631.557 678.474 629.422 679.891C627.911 680.891 625.714 681.885 624.542 682.094C621.729 682.604 620.49 683.271 613.839 687.87C606.896 692.672 601.182 695.703 598.13 696.219C596.849 696.432 594.141 697.25 592.104 698.036C588.135 699.573 586.922 699.682 583.682 698.797V698.807Z" fill="#3C3738"/>
</g>
</g>
<defs>
<clipPath id="clip0_228_153">
<rect width="1080" height="1080" fill="white"/>
</clipPath>
</defs>
</svg>
