<svg xmlns="http://www.w3.org/2000/svg" xmlns:xlink="http://www.w3.org/1999/xlink" width="1080" zoomAndPan="magnify" viewBox="0 0 810 809.999993" height="1080" preserveAspectRatio="xMidYMid meet" version="1.0"><defs><clipPath id="75c3c54595"><path d="M 0 64.292969 L 810 64.292969 L 810 746 L 0 746 Z M 0 64.292969 " clip-rule="nonzero"/></clipPath></defs><rect x="-81" width="972" fill="#ffffff" y="-80.999999" height="971.999992" fill-opacity="1"/><rect x="-81" width="972" fill="#ffffff" y="-80.999999" height="971.999992" fill-opacity="1"/><g clip-path="url(#75c3c54595)"><path fill="#3c3738" d="M 366.488281 745.265625 C 363.328125 745.085938 360.472656 744.769531 360.148438 744.558594 C 359.824219 744.347656 357.886719 743.90625 355.847656 743.582031 C 352.171875 742.992188 344.835938 743.460938 338.519531 744.675781 C 335.800781 745.199219 327.011719 744.164062 324.984375 743.078125 C 324.375 742.75 322.34375 742.480469 320.480469 742.480469 C 318.613281 742.480469 316.132812 742.195312 314.96875 741.847656 C 313.355469 741.363281 312.160156 741.367188 309.945312 741.863281 C 307.394531 742.433594 306.605469 742.378906 303.515625 741.410156 C 301.578125 740.804688 299.347656 740.304688 298.554688 740.296875 C 297.765625 740.296875 296.234375 739.921875 295.152344 739.46875 C 294.042969 739.007812 291.527344 738.648438 289.375 738.648438 C 287.277344 738.648438 284.871094 738.382812 284.023438 738.058594 C 283.175781 737.730469 281.125 737.242188 279.472656 736.972656 C 277.816406 736.699219 274.410156 735.613281 271.902344 734.554688 C 268.144531 732.96875 266.667969 732.628906 263.488281 732.628906 C 260.601562 732.628906 258.863281 732.292969 256.554688 731.289062 C 254.863281 730.554688 251.628906 729.6875 249.371094 729.363281 C 246.382812 728.9375 244.652344 728.347656 243 727.199219 C 241.078125 725.863281 240.238281 725.632812 237.519531 725.691406 C 235.050781 725.746094 233.847656 725.480469 232.304688 724.527344 C 231.203125 723.847656 228.925781 722.929688 227.25 722.496094 C 224.15625 721.6875 217.46875 718.566406 214.808594 716.691406 C 214.011719 716.128906 212.585938 715.664062 211.644531 715.664062 C 209.292969 715.664062 206.847656 714.550781 204.035156 712.1875 C 202.097656 710.566406 201.214844 710.195312 199.28125 710.195312 C 196.042969 710.195312 194.214844 709.414062 191.636719 706.925781 C 190.203125 705.542969 188.417969 704.515625 186.46875 703.945312 C 184.753906 703.445312 182.203125 702.0625 180.445312 700.683594 C 176.59375 697.65625 169.03125 693.636719 165.015625 692.480469 C 160.0625 691.054688 153.085938 685 147.429688 677.226562 C 145.785156 674.96875 144.125 674.054688 139.238281 672.714844 C 137.507812 672.242188 135.292969 671.15625 134.3125 670.304688 C 133.332031 669.449219 131.164062 668.105469 129.5 667.320312 C 127.828125 666.535156 125.917969 665.152344 125.246094 664.246094 C 124.578125 663.339844 123.234375 662.191406 122.261719 661.695312 C 121.289062 661.195312 119.597656 659.988281 118.503906 659.007812 C 117.410156 658.027344 114.277344 656.070312 111.542969 654.660156 C 106.957031 652.289062 106.191406 651.640625 101.601562 646.238281 C 97.71875 641.667969 96.027344 640.109375 93.886719 639.125 C 91.832031 638.183594 90.679688 637.160156 89.292969 635.039062 C 87.355469 632.085938 81.929688 626.140625 79.933594 624.785156 C 79.296875 624.351562 77.984375 622.828125 77.019531 621.398438 C 75.195312 618.695312 73.0625 616.835938 70.007812 615.292969 C 69.027344 614.796875 67.566406 613.351562 66.757812 612.082031 C 65.949219 610.8125 64.414062 608.835938 63.34375 607.699219 C 62.277344 606.558594 60.292969 603.585938 58.933594 601.089844 C 55.445312 594.683594 52.925781 591.214844 50.175781 589.039062 C 47.691406 587.074219 45.253906 583.609375 45.25 582.039062 C 45.25 581.535156 44.648438 580.414062 43.917969 579.546875 C 43.191406 578.679688 41.898438 576.597656 41.046875 574.921875 C 38.546875 569.988281 36.4375 566.667969 34.5 564.613281 C 33.503906 563.554688 32.222656 561.339844 31.65625 559.6875 C 31.085938 558.039062 29.355469 554.480469 27.808594 551.785156 C 26.261719 549.089844 24.996094 546.199219 24.996094 545.367188 C 24.996094 544.535156 23.871094 541.699219 22.496094 539.066406 C 20.550781 535.351562 19.894531 533.421875 19.558594 530.421875 C 19.121094 526.523438 17.902344 523.511719 15.128906 519.460938 C 13.238281 516.699219 12.550781 514.226562 11.898438 507.878906 C 11.480469 503.835938 11.082031 502.402344 9.855469 500.550781 C 8.519531 498.53125 8.289062 497.539062 7.96875 492.441406 C 7.707031 488.304688 7.175781 485.378906 6.109375 482.257812 C 4.910156 478.75 4.589844 476.738281 4.492188 472.132812 C 4.386719 467.460938 4.132812 465.878906 3.105469 463.652344 C 1.652344 460.507812 1.347656 455.117188 2.121094 446.367188 C 2.511719 441.953125 2.4375 440.789062 1.664062 438.980469 C 0.355469 435.941406 -0.00390625 412.289062 1.175781 407.011719 C 1.613281 405.054688 2.378906 400.988281 2.875 397.980469 C 3.371094 394.96875 4.136719 391.046875 4.578125 389.261719 C 5.195312 386.761719 5.246094 385.488281 4.796875 383.699219 C 4.265625 381.59375 4.375 377.335938 5.074219 372.6875 C 5.214844 371.71875 6.007812 370.132812 6.820312 369.164062 C 8.128906 367.613281 8.308594 366.925781 8.355469 363.265625 C 8.386719 360.253906 8.726562 358.453125 9.578125 356.664062 C 10.261719 355.222656 10.753906 353.101562 10.761719 351.554688 C 10.773438 349.835938 11.347656 347.605469 12.414062 345.171875 C 13.316406 343.113281 14.058594 341.195312 14.058594 340.914062 C 14.058594 340.628906 14.796875 339.46875 15.695312 338.332031 C 17.003906 336.683594 17.335938 335.730469 17.335938 333.640625 C 17.335938 330.40625 17.886719 328.894531 19.730469 327.054688 C 21.894531 324.898438 22.8125 322.128906 22.8125 317.773438 C 22.8125 313.210938 23.722656 310.902344 26.480469 308.480469 C 27.914062 307.222656 28.6875 305.828125 29.605469 302.851562 C 30.277344 300.675781 31.945312 297.058594 33.308594 294.808594 C 34.675781 292.558594 36.4375 289.445312 37.226562 287.886719 C 38.015625 286.328125 38.90625 284.902344 39.203125 284.714844 C 39.5 284.53125 40.238281 282.730469 40.847656 280.710938 C 41.496094 278.546875 42.832031 275.878906 44.097656 274.21875 C 45.277344 272.667969 46.726562 270.328125 47.316406 269.019531 C 47.90625 267.710938 49.726562 265.164062 51.359375 263.355469 C 53.351562 261.152344 55.339844 258 57.402344 253.777344 C 59.300781 249.886719 61.242188 246.753906 62.488281 245.570312 C 63.597656 244.515625 65.203125 242.269531 66.066406 240.578125 C 67.445312 237.867188 72.027344 232.984375 73.191406 232.984375 C 73.425781 232.984375 74.015625 231.789062 74.5 230.324219 C 75.253906 228.054688 76.375 226.757812 82.210938 221.433594 C 87.238281 216.84375 89.519531 214.332031 90.859375 211.914062 C 91.90625 210.019531 93.675781 207.863281 95.035156 206.824219 C 96.332031 205.828125 98.058594 204.105469 98.863281 202.988281 C 99.671875 201.875 101.421875 200.402344 102.75 199.714844 C 104.082031 199.03125 105.730469 197.675781 106.410156 196.707031 C 108.839844 193.253906 112.882812 188.769531 116.054688 186.007812 C 118.667969 183.730469 119.777344 183.136719 121.929688 182.847656 C 124.21875 182.546875 124.855469 182.160156 126.585938 180.050781 C 127.804688 178.5625 129.582031 177.1875 131.109375 176.539062 C 133.683594 175.457031 134.996094 174.191406 138.902344 169.046875 C 140.644531 166.75 141.882812 165.785156 144.691406 164.523438 C 146.652344 163.644531 148.988281 162.3125 149.875 161.566406 C 150.761719 160.816406 152.792969 159.828125 154.382812 159.367188 C 157.699219 158.402344 163.878906 153.777344 165.980469 150.683594 C 166.714844 149.597656 168.359375 148.179688 169.628906 147.539062 C 170.898438 146.894531 172.578125 145.832031 173.363281 145.175781 C 174.144531 144.523438 176.730469 142.941406 179.109375 141.664062 C 181.484375 140.386719 184.265625 138.738281 185.289062 138.003906 C 186.453125 137.164062 187.898438 136.664062 189.160156 136.664062 C 192.605469 136.664062 195.992188 135.171875 197.886719 132.808594 C 199.925781 130.273438 201.667969 129.292969 205.046875 128.785156 C 206.402344 128.582031 211.203125 126.601562 215.71875 124.386719 C 222.734375 120.941406 224.917969 120.144531 230.726562 118.914062 C 236.945312 117.597656 237.71875 117.296875 239.804688 115.375 C 241.054688 114.222656 243.042969 112.964844 244.222656 112.582031 C 245.402344 112.199219 247.835938 111.152344 249.632812 110.253906 C 252.578125 108.78125 253.246094 108.652344 256.429688 108.949219 C 261.449219 109.417969 267.636719 107.761719 272.027344 104.777344 C 275.148438 102.652344 275.683594 102.480469 280.046875 102.207031 C 282.933594 102.027344 285.242188 101.582031 286.070312 101.050781 C 286.804688 100.574219 289.410156 99.527344 291.847656 98.722656 C 295.71875 97.453125 297.191406 97.261719 303.339844 97.25 C 309.574219 97.238281 310.777344 97.078125 313.679688 95.886719 C 315.484375 95.140625 317.875 94.53125 318.988281 94.53125 C 320.101562 94.53125 322.429688 94.160156 324.164062 93.707031 C 327.769531 92.765625 334.378906 92.636719 338.519531 93.421875 C 340.996094 93.890625 341.800781 93.789062 344.953125 92.601562 C 346.9375 91.855469 349.207031 91.242188 350 91.238281 C 350.792969 91.238281 352.632812 90.871094 354.09375 90.425781 C 356.199219 89.785156 357.21875 89.746094 359.019531 90.234375 C 361.566406 90.921875 363.839844 90.976562 367.859375 90.4375 C 369.871094 90.167969 371.460938 90.351562 373.878906 91.132812 C 376.804688 92.078125 377.390625 92.113281 379.289062 91.441406 C 380.839844 90.894531 383.664062 90.742188 389.6875 90.878906 C 396.527344 91.03125 398.570312 91.28125 401.515625 92.300781 C 405.238281 93.59375 404.625 93.585938 416.675781 92.542969 C 418.972656 92.34375 421.058594 92.53125 423.117188 93.132812 C 427.074219 94.28125 433.632812 95.5625 438.453125 96.128906 C 440.660156 96.386719 443.648438 97.214844 445.496094 98.085938 C 447.3125 98.9375 450.289062 99.769531 452.339844 100.003906 C 457.320312 100.566406 462.066406 102.582031 463.984375 104.953125 C 465.625 106.980469 466.003906 108.5625 467.21875 118.464844 C 467.84375 123.542969 467.8125 124.378906 466.90625 127.371094 L 465.90625 130.671875 L 467.195312 133.25 C 467.902344 134.667969 468.59375 137.1875 468.730469 138.847656 C 468.871094 140.507812 469.328125 142.398438 469.757812 143.050781 C 470.726562 144.539062 470.800781 147.945312 469.914062 150.617188 C 469.523438 151.800781 469.394531 153.492188 469.609375 154.648438 C 470.066406 157.089844 470.703125 168.320312 470.582031 171.691406 C 469.972656 188.238281 469.890625 188.894531 468.355469 189.113281 C 466.078125 189.433594 464.042969 186.566406 460.890625 178.589844 C 460.070312 176.503906 460.027344 176.476562 458.957031 177.445312 C 458.355469 177.992188 457.605469 179.441406 457.289062 180.671875 C 455.5 187.632812 454.871094 188.914062 451.445312 192.546875 C 449.5625 194.542969 448.019531 196.429688 448.019531 196.738281 C 448.019531 197.0625 449.207031 197.265625 450.800781 197.222656 C 453.296875 197.152344 453.742188 197.324219 455.179688 198.925781 C 456.875 200.820312 457.09375 202.058594 456.257812 204.976562 C 455.75 206.75 456.414062 209.453125 457.355469 209.453125 C 457.953125 209.453125 465.476562 201.578125 466.949219 199.410156 C 468.230469 197.523438 470.953125 196.121094 472.316406 196.644531 C 473.8125 197.21875 474.21875 199.367188 473.765625 204.324219 C 473.519531 206.996094 473.546875 212.835938 473.832031 217.304688 L 474.339844 225.429688 L 472.8125 227.902344 C 470.082031 232.332031 469.9375 232.683594 469.929688 234.929688 C 469.929688 236.492188 469.34375 238.105469 467.988281 240.363281 C 466.921875 242.128906 465.480469 245.617188 464.773438 248.113281 C 463.914062 251.164062 462.945312 253.277344 461.804688 254.574219 C 460.875 255.636719 459.832031 257.546875 459.488281 258.824219 C 459.070312 260.386719 457.992188 262.003906 456.207031 263.765625 C 453.820312 266.113281 452.421875 268.84375 452.410156 271.171875 C 452.410156 271.558594 451.816406 273.28125 451.09375 275 C 450.371094 276.722656 449.597656 279.609375 449.378906 281.414062 C 449.160156 283.222656 448.433594 285.808594 447.761719 287.160156 C 447.09375 288.515625 446.382812 290.296875 446.183594 291.117188 C 445.722656 293.035156 442.878906 297.863281 440.847656 300.175781 C 439.519531 301.691406 439.273438 302.449219 439.273438 304.984375 C 439.273438 308.140625 437.777344 311.886719 435.085938 315.472656 C 433.175781 318.019531 431.074219 322.753906 431.070312 324.535156 C 431.058594 326.59375 429.246094 330.027344 427.585938 331.113281 C 426.828125 331.613281 426.066406 332.785156 425.851562 333.796875 C 425.636719 334.785156 424.507812 337.421875 423.339844 339.652344 C 421.824219 342.550781 421.214844 344.390625 421.214844 346.082031 C 421.214844 348.351562 418.804688 354.054688 416.28125 357.757812 C 415.765625 358.511719 415.050781 360.039062 414.6875 361.152344 C 414.027344 363.195312 409.472656 367.863281 406.183594 369.871094 C 402.015625 372.410156 396.851562 371.519531 393.027344 367.601562 C 391.851562 366.402344 390.632812 365.425781 390.320312 365.429688 C 389.855469 365.441406 385.871094 371.042969 385.183594 372.652344 C 384.902344 373.316406 390.8125 373.15625 393.535156 372.429688 C 397.230469 371.441406 399.972656 372.289062 400.738281 374.644531 C 401.09375 375.738281 401.164062 377.402344 400.914062 378.75 C 399.605469 385.835938 399.324219 387.933594 399.320312 390.625 C 399.308594 395.628906 397.40625 400.488281 393.710938 404.957031 C 391.089844 408.125 389.414062 408.386719 387.882812 405.867188 L 386.851562 404.175781 L 383.792969 408.308594 C 382.113281 410.582031 380.117188 412.851562 379.359375 413.347656 C 376.265625 415.375 379.015625 417.386719 383.582031 416.441406 C 387.585938 415.609375 398.316406 416.035156 402.332031 417.183594 C 404.140625 417.699219 407.0625 418.21875 408.828125 418.335938 C 410.59375 418.457031 413.058594 418.933594 414.300781 419.398438 C 419.253906 421.257812 421.171875 421.707031 426.871094 422.335938 C 431.761719 422.878906 433.585938 423.363281 437.269531 425.078125 C 439.726562 426.226562 442.585938 427.800781 443.621094 428.578125 C 445.226562 429.785156 446.070312 429.996094 449.304688 429.996094 C 451.394531 429.996094 454.628906 429.714844 456.5 429.371094 C 459.707031 428.777344 460.078125 428.828125 463.058594 430.191406 C 464.796875 430.984375 466.789062 431.636719 467.484375 431.636719 C 468.183594 431.636719 469.421875 431.890625 470.238281 432.203125 C 471.058594 432.511719 473.210938 432.882812 475.023438 433.023438 C 476.839844 433.160156 478.941406 433.683594 479.699219 434.183594 C 480.570312 434.753906 482.046875 435.050781 483.699219 434.992188 C 485.144531 434.941406 487.132812 435.238281 488.117188 435.648438 C 489.105469 436.0625 491.136719 436.582031 492.636719 436.800781 C 494.136719 437.023438 496.980469 437.910156 498.957031 438.773438 C 500.933594 439.632812 503.671875 440.59375 505.042969 440.902344 C 506.414062 441.207031 508.246094 441.746094 509.113281 442.097656 C 510.074219 442.484375 513.257812 442.691406 517.253906 442.621094 C 524.695312 442.480469 526.023438 442.835938 529.589844 445.835938 L 532.074219 447.921875 L 540.535156 447.90625 C 549.207031 447.871094 551.980469 448.339844 554.742188 450.261719 C 555.59375 450.851562 557.507812 451.296875 559.792969 451.441406 C 562.527344 451.613281 563.914062 451.996094 565.175781 452.929688 C 566.625 454 567.707031 454.21875 572.4375 454.410156 C 579.816406 454.707031 583.148438 455.453125 588.398438 457.972656 C 593.183594 460.269531 597.59375 461.183594 603.996094 461.199219 C 608.324219 461.210938 612.410156 462.066406 615.324219 463.574219 C 616.289062 464.074219 617.617188 464.480469 618.273438 464.480469 C 620.507812 464.480469 626.816406 466.664062 628.957031 468.175781 C 630.972656 469.601562 631.367188 469.671875 636.3125 469.519531 C 641.152344 469.367188 641.691406 469.46875 643.597656 470.761719 C 647.925781 473.695312 653.414062 475.125 659.636719 474.933594 C 664.21875 474.792969 666.214844 475.757812 670.308594 480.113281 C 672.214844 482.136719 674.8125 484.78125 676.089844 485.984375 C 677.949219 487.746094 678.339844 488.433594 678.070312 489.496094 C 677.835938 490.445312 678.191406 491.46875 679.355469 493.109375 C 680.246094 494.371094 681.753906 496.789062 682.710938 498.484375 C 683.796875 500.414062 685.527344 502.386719 687.320312 503.738281 C 689.570312 505.4375 690.808594 507.035156 693.0625 511.117188 C 694.640625 513.980469 696.089844 517.109375 696.28125 518.0625 C 696.527344 519.304688 697.324219 520.28125 699.058594 521.476562 C 702.03125 523.519531 706.109375 528.933594 706.90625 531.890625 C 707.230469 533.089844 707.324219 534.855469 707.113281 535.808594 C 706.453125 538.835938 704.339844 543.046875 702.570312 544.855469 C 701.628906 545.820312 700.859375 547.054688 700.859375 547.597656 C 700.859375 548.144531 700.378906 549.027344 699.789062 549.558594 C 698.730469 550.515625 698.738281 550.550781 700.308594 552.515625 C 703.214844 556.160156 703.792969 562.476562 701.945312 570.410156 C 701.335938 573.011719 700.476562 575.664062 700.027344 576.300781 C 698.941406 577.855469 699.003906 578.3125 700.308594 578.3125 C 702.003906 578.3125 701.632812 579.230469 698.667969 582.367188 C 697.164062 583.957031 695.925781 585.726562 695.921875 586.300781 C 695.886719 588.769531 693.511719 592.316406 688.644531 597.136719 C 684.476562 601.261719 683.40625 602.660156 682.910156 604.625 C 682.464844 606.394531 681.492188 607.839844 679.289062 610.011719 C 677.601562 611.671875 676.121094 613.675781 675.929688 614.5625 C 675.53125 616.367188 669.789062 622.746094 666.941406 624.546875 C 665.734375 625.3125 664.425781 626.941406 663.382812 628.984375 C 661.976562 631.734375 661.273438 632.453125 658.691406 633.804688 C 656.5625 634.921875 655.175781 636.144531 654.042969 637.90625 C 653.152344 639.289062 651.199219 641.21875 649.703125 642.195312 C 648.207031 643.171875 644.511719 646.40625 641.496094 649.378906 C 638.476562 652.351562 635.023438 655.328125 633.820312 655.988281 C 632.617188 656.648438 631.03125 657.988281 630.296875 658.964844 C 629.5625 659.945312 628.125 661.34375 627.101562 662.078125 C 626.078125 662.8125 623.792969 664.667969 622.023438 666.207031 C 619.660156 668.261719 617.929688 669.25 615.511719 669.925781 C 612.929688 670.652344 611.894531 671.277344 610.710938 672.828125 C 609.800781 674.019531 608.03125 675.324219 606.261719 676.105469 C 603.449219 677.351562 602.074219 678.324219 596.433594 683.054688 C 594.003906 685.09375 584.835938 689.953125 583.421875 689.953125 C 583.046875 689.953125 582.042969 690.707031 581.191406 691.632812 C 579.679688 693.269531 576.160156 695.425781 575 695.425781 C 574.679688 695.425781 572.394531 696.375 569.917969 697.535156 C 567.441406 698.699219 564.789062 699.796875 564.03125 699.980469 C 563.269531 700.160156 561.230469 701.410156 559.5 702.753906 C 557.394531 704.386719 554.867188 705.683594 551.855469 706.671875 C 549.378906 707.484375 544.519531 709.507812 541.058594 711.171875 C 535.0625 714.054688 532.992188 714.824219 527.378906 716.253906 C 526.023438 716.597656 523.683594 717.347656 522.179688 717.914062 C 520.675781 718.480469 518.210938 719.105469 516.707031 719.304688 C 515.035156 719.527344 513.117188 720.269531 511.78125 721.21875 C 510.578125 722.070312 508.300781 723.011719 506.71875 723.3125 C 505.136719 723.609375 503.054688 724.261719 502.089844 724.761719 C 501.125 725.261719 498.582031 725.867188 496.441406 726.105469 C 493.546875 726.429688 491.847656 726.980469 489.816406 728.242188 C 487.5625 729.644531 486.089844 730.0625 481.375 730.636719 C 478.007812 731.046875 475.089844 731.710938 474.265625 732.25 C 472 733.742188 466.785156 735.328125 462.878906 735.714844 C 460.878906 735.914062 458.628906 736.308594 457.875 736.59375 C 457.121094 736.878906 453.429688 737.226562 449.667969 737.363281 C 445.167969 737.535156 441.703125 737.964844 439.542969 738.636719 C 437.738281 739.199219 433.894531 739.78125 431 739.929688 C 427.21875 740.125 425.007812 740.535156 423.132812 741.390625 C 421.511719 742.128906 419.617188 742.539062 418.128906 742.472656 C 412.226562 742.214844 404.316406 742.933594 402.164062 743.921875 C 399.097656 745.332031 397.0625 745.402344 393.992188 744.1875 C 391.796875 743.320312 390.796875 743.179688 389.714844 743.59375 C 388.9375 743.886719 387.027344 744.132812 385.464844 744.136719 C 383.902344 744.148438 380.902344 744.390625 378.796875 744.6875 C 376.691406 744.984375 374.351562 745.308594 373.597656 745.410156 C 372.847656 745.511719 369.644531 745.441406 366.484375 745.269531 Z M 381.144531 720.195312 L 383.179688 719.25 L 380.320312 719.070312 C 377.175781 718.875 374.53125 719.804688 375.851562 720.640625 C 377.03125 721.386719 378.917969 721.226562 381.140625 720.195312 Z M 400.964844 718.949219 C 403.222656 718.601562 408.25 718.21875 412.136719 718.101562 C 416.023438 717.980469 419.417969 717.679688 419.675781 717.417969 C 420.4375 716.65625 420.878906 711.484375 420.210938 711.070312 C 419.886719 710.871094 418.695312 711.210938 417.554688 711.816406 C 414.683594 713.355469 412.710938 713.625 408.898438 713.003906 C 405.921875 712.519531 405.335938 712.59375 402.605469 713.832031 C 400.949219 714.585938 397.75 715.828125 395.492188 716.597656 C 390.554688 718.28125 389.953125 718.738281 391.707031 719.46875 C 393.097656 720.046875 394.28125 719.980469 400.964844 718.949219 Z M 483.875 705.078125 C 485.378906 704.378906 487.875 703.386719 489.417969 702.871094 C 492.460938 701.863281 494.527344 700.105469 493.675781 699.253906 C 492.433594 698.011719 489.839844 698.554688 486.296875 700.800781 C 484.316406 702.054688 481.421875 703.460938 479.867188 703.921875 C 478.308594 704.382812 477.035156 704.960938 477.035156 705.195312 C 477.035156 706.792969 480.316406 706.734375 483.875 705.078125 Z M 349.941406 698.648438 C 353.023438 696.980469 353.175781 696.957031 358.589844 697.289062 C 362.8125 697.550781 364.648438 697.429688 366.457031 696.796875 C 367.753906 696.339844 370.007812 695.964844 371.46875 695.964844 C 372.933594 695.964844 375.054688 695.609375 376.191406 695.175781 C 379.578125 693.882812 386.792969 692.640625 388.757812 693.007812 C 389.769531 693.199219 392.671875 693.179688 395.210938 692.976562 C 399.054688 692.65625 400.242188 692.316406 402.320312 690.9375 C 404.292969 689.628906 405.761719 689.175781 409.320312 688.769531 C 411.800781 688.488281 415.042969 687.746094 416.53125 687.125 C 418.761719 686.195312 419.878906 686.0625 422.910156 686.359375 C 425.265625 686.59375 426.714844 686.515625 426.941406 686.148438 C 427.464844 685.304688 437.320312 680.644531 438.585938 680.644531 C 439.179688 680.644531 440.625 679.992188 441.796875 679.195312 C 445.546875 676.636719 448.109375 675.746094 451.722656 675.730469 C 454.84375 675.71875 455.320312 675.554688 457.234375 673.828125 C 459.578125 671.710938 461.582031 670.792969 463.867188 670.792969 C 464.714844 670.792969 465.726562 670.410156 466.121094 669.9375 C 466.992188 668.886719 474.953125 664.921875 477.582031 664.230469 C 485.449219 662.15625 498.144531 656.363281 500.003906 653.996094 C 501.917969 651.566406 509.773438 646.796875 512.550781 646.378906 C 514.554688 646.082031 515.640625 645.441406 518.066406 643.132812 C 519.730469 641.554688 522.65625 639.34375 524.574219 638.226562 C 526.492188 637.105469 529.371094 635 530.972656 633.550781 C 533.734375 631.050781 536.554688 629.761719 539.285156 629.753906 C 540.125 629.753906 541.113281 628.925781 542.386719 627.152344 C 543.417969 625.722656 544.957031 624.128906 545.808594 623.613281 C 546.660156 623.097656 549.410156 620.714844 551.917969 618.320312 C 556.003906 614.421875 559.105469 612.386719 563.585938 610.675781 C 564.546875 610.308594 565.644531 608.984375 566.824219 606.773438 C 568.71875 603.21875 569.894531 602.144531 574.003906 600.214844 C 575.421875 599.550781 578.175781 597.546875 580.125 595.757812 C 582.078125 593.972656 584.789062 592.015625 586.152344 591.414062 C 588.3125 590.457031 588.667969 590.058594 588.945312 588.28125 C 589.664062 583.6875 590.355469 582.273438 593.453125 579.085938 C 595.1875 577.304688 597.46875 575.203125 598.523438 574.417969 C 599.796875 573.46875 600.753906 572.089844 601.371094 570.3125 C 602.335938 567.550781 605.808594 563.472656 609.625 560.625 C 610.761719 559.777344 612.261719 557.929688 612.960938 556.519531 C 616.308594 549.773438 619.464844 545.390625 622.339844 543.480469 C 624.964844 541.738281 625.355469 541.199219 626.722656 537.445312 C 627.550781 535.179688 629.683594 531.109375 631.460938 528.398438 C 635.113281 522.839844 639.78125 513.351562 640.320312 510.402344 C 640.515625 509.324219 641.515625 507.464844 642.53125 506.273438 C 643.789062 504.804688 644.679688 502.933594 645.300781 500.453125 C 646.265625 496.617188 646.125 495.675781 644.597656 495.671875 C 644.089844 495.671875 642.820312 495.148438 641.777344 494.511719 C 640.226562 493.570312 639.328125 493.414062 636.882812 493.664062 C 634.679688 493.894531 632.523438 493.613281 628.71875 492.632812 C 625.875 491.890625 622.164062 491.132812 620.476562 490.941406 C 618.785156 490.75 616.492188 490.136719 615.375 489.578125 C 614.257812 489.019531 612.21875 488.558594 610.84375 488.558594 C 609.457031 488.558594 606.945312 487.980469 605.210938 487.261719 C 599.492188 484.894531 594.636719 483.507812 593.109375 483.816406 C 590.929688 484.25 587.8125 483.398438 585.351562 481.695312 C 583.460938 480.382812 582.847656 480.238281 580.328125 480.519531 C 578.386719 480.734375 576.746094 480.570312 575.265625 480.003906 C 574.0625 479.546875 571.859375 478.925781 570.367188 478.621094 C 568.878906 478.320312 566.785156 477.632812 565.71875 477.097656 C 563.871094 476.171875 559.039062 475.550781 550.914062 475.199219 C 548.261719 475.078125 546.449219 474.601562 543.800781 473.320312 C 541.84375 472.371094 539.925781 471.597656 539.535156 471.597656 C 539.148438 471.59375 537.863281 471.101562 536.683594 470.5 C 535.011719 469.648438 533.460938 469.40625 529.648438 469.40625 C 525.320312 469.40625 524.410156 469.226562 521.773438 467.835938 C 520.105469 466.960938 517.375 466.09375 515.566406 465.867188 C 513.792969 465.644531 511.363281 464.964844 510.167969 464.355469 C 508.242188 463.371094 507.386719 463.289062 502.609375 463.617188 C 497.542969 463.96875 497.050781 463.90625 494.207031 462.558594 C 491.683594 461.363281 490.71875 461.183594 488.351562 461.472656 C 485.960938 461.757812 484.613281 461.503906 479.769531 459.824219 C 471.648438 457.015625 468.589844 456.324219 461.824219 455.78125 C 458.304688 455.5 455.183594 454.945312 454.171875 454.421875 C 453.230469 453.933594 451.71875 453.535156 450.8125 453.535156 C 449.90625 453.535156 447.914062 453.042969 446.386719 452.441406 C 444.652344 451.757812 442.320312 451.347656 440.175781 451.347656 C 437.164062 451.347656 436.308594 451.089844 433.21875 449.234375 C 430.347656 447.511719 429.015625 447.070312 426.019531 446.835938 C 423.625 446.652344 421.628906 446.128906 420.292969 445.339844 C 418.753906 444.433594 417.738281 444.210938 416.230469 444.453125 C 413.617188 444.871094 408.957031 443.972656 406.175781 442.511719 C 403.335938 441.023438 398.378906 439.308594 396.910156 439.308594 C 396.28125 439.308594 394.164062 438.535156 392.207031 437.589844 C 388.691406 435.890625 383.707031 434.234375 379.222656 433.273438 C 377.949219 433 375.730469 432.152344 374.300781 431.390625 C 372.867188 430.628906 371.011719 430.003906 370.175781 430.003906 C 369.339844 430.003906 367.683594 429.363281 366.5 428.578125 C 365.316406 427.796875 362.328125 426.566406 359.859375 425.851562 C 357.390625 425.132812 354.832031 424.191406 354.167969 423.757812 C 353.507812 423.324219 352.007812 422.792969 350.835938 422.574219 C 349.664062 422.359375 347.847656 421.601562 346.796875 420.894531 C 344.625 419.425781 342.324219 419.277344 338.304688 420.347656 C 335.625 421.0625 334.523438 421.589844 330.097656 424.277344 C 328.546875 425.21875 327.09375 425.613281 325.121094 425.617188 C 321.699219 425.628906 320.757812 424.746094 319.648438 420.5 C 318.925781 417.730469 318.953125 416.910156 319.941406 411.308594 C 321.273438 403.757812 321.960938 402.738281 332.972656 391.910156 C 335.453125 389.464844 337.484375 387.3125 337.484375 387.121094 C 337.484375 386.929688 336.246094 386.773438 334.730469 386.773438 C 332.121094 386.773438 329.730469 386.011719 327.425781 384.457031 C 326.601562 383.898438 326.351562 383.898438 326.148438 384.457031 C 326.011719 384.835938 324.445312 387.296875 322.675781 389.925781 C 320.902344 392.554688 319.292969 395.445312 319.09375 396.351562 C 318.898438 397.253906 318.273438 398.582031 317.710938 399.300781 C 317.148438 400.015625 316.6875 401.03125 316.6875 401.550781 C 316.6875 402.074219 316.246094 403.085938 315.710938 403.804688 C 315.171875 404.519531 314.433594 405.722656 314.074219 406.476562 C 313.710938 407.230469 313.199219 408.214844 312.9375 408.664062 C 312.671875 409.117188 311.042969 412.316406 309.308594 415.78125 C 305.03125 424.328125 304.019531 425.339844 302.253906 422.824219 C 301.515625 421.765625 301.566406 421.316406 302.820312 418.035156 C 303.582031 416.042969 305.058594 411.828125 306.101562 408.667969 C 307.140625 405.503906 308.472656 401.90625 309.058594 400.671875 C 309.644531 399.433594 310.121094 398.148438 310.121094 397.8125 C 310.121094 396.851562 312.652344 389.402344 313.59375 387.597656 C 315.40625 384.109375 316.660156 380.925781 317.234375 378.34375 C 317.558594 376.867188 318.28125 374.527344 318.832031 373.144531 C 319.84375 370.625 322.09375 364.738281 325.765625 355.035156 C 326.847656 352.175781 327.925781 348.972656 328.160156 347.921875 C 328.394531 346.867188 329.359375 344.320312 330.300781 342.261719 C 331.242188 340.199219 332.011719 338.035156 332.011719 337.449219 C 332.011719 336.863281 332.511719 335.40625 333.121094 334.207031 C 333.734375 333.007812 334.460938 330.832031 334.738281 329.367188 C 335.015625 327.902344 335.835938 325.828125 336.5625 324.757812 C 337.289062 323.691406 338.046875 321.554688 338.253906 320.011719 C 338.457031 318.46875 339.078125 316.175781 339.632812 314.914062 C 342 309.535156 342.410156 308.421875 342.410156 307.335938 C 342.410156 306.707031 343.246094 304.3125 344.273438 302.019531 C 346.527344 296.96875 347.695312 293.40625 348.46875 289.230469 C 348.84375 287.207031 349.792969 284.972656 351.148438 282.9375 C 352.742188 280.550781 353.34375 278.992188 353.640625 276.503906 C 354.089844 272.753906 354.800781 270.785156 356.753906 267.917969 C 357.507812 266.808594 358.277344 264.949219 358.464844 263.785156 C 358.652344 262.621094 360.039062 259.242188 361.550781 256.277344 C 363.0625 253.308594 364.296875 250.296875 364.296875 249.582031 C 364.296875 247.273438 365.890625 244.261719 368.171875 242.246094 C 370.1875 240.46875 370.445312 239.945312 370.855469 236.773438 C 371.367188 232.796875 371.722656 231.679688 373.140625 229.632812 C 373.691406 228.835938 374.472656 226.621094 374.875 224.707031 C 375.78125 220.425781 377.015625 217.972656 378.886719 216.746094 C 380.820312 215.476562 381.8125 212.878906 381.8125 209.070312 C 381.8125 206.453125 382.222656 205.054688 384.195312 200.980469 C 385.507812 198.273438 387.285156 194.503906 388.140625 192.609375 C 388.996094 190.710938 390.039062 188.878906 390.453125 188.535156 C 391.9375 187.304688 395.597656 179.136719 396.378906 175.316406 C 397.472656 169.980469 397.515625 169.875 399.34375 167.570312 C 400.488281 166.132812 400.964844 164.929688 400.964844 163.488281 C 400.964844 160.714844 402.144531 157.570312 404.445312 154.230469 C 405.605469 152.542969 406.617188 150.199219 407 148.300781 C 407.351562 146.574219 408.3125 144.050781 409.140625 142.699219 C 410.445312 140.566406 412.757812 133.695312 413.800781 128.867188 C 413.980469 128.03125 414.9375 126.429688 415.929688 125.308594 C 418.753906 122.109375 420.300781 119.667969 419.777344 119.214844 C 418.925781 118.480469 414.851562 117.523438 412.566406 117.523438 C 411.34375 117.523438 409.648438 117.246094 408.800781 116.910156 C 407.953125 116.574219 404.425781 116.230469 400.964844 116.152344 C 397.503906 116.066406 393.6875 115.738281 392.484375 115.414062 C 388.15625 114.25 362.496094 114.519531 358.5 115.773438 C 357.386719 116.125 355.824219 116.109375 353.933594 115.738281 C 351.644531 115.285156 350.488281 115.347656 348.238281 116.027344 C 343.183594 117.566406 337.730469 118.238281 332.628906 117.949219 C 329.902344 117.792969 326.621094 117.878906 325.328125 118.128906 C 324.039062 118.382812 320.304688 118.980469 317.03125 119.457031 C 313.753906 119.933594 309.445312 120.945312 307.453125 121.707031 C 304.480469 122.839844 303.238281 123.03125 300.546875 122.773438 C 297 122.433594 293.246094 123.285156 290.226562 125.117188 C 288.324219 126.269531 280.835938 127.921875 277.507812 127.925781 C 276.160156 127.925781 273.96875 128.632812 271.574219 129.839844 C 269.484375 130.894531 267.066406 131.753906 266.203125 131.753906 C 265.335938 131.753906 263.476562 132.234375 262.066406 132.828125 C 260.65625 133.417969 256.917969 134.390625 253.757812 134.992188 C 246.09375 136.449219 243.132812 137.394531 240.875 139.121094 C 238.066406 141.261719 234.605469 142.671875 232.128906 142.6875 C 230.738281 142.699219 229.230469 143.171875 228.023438 143.988281 C 226.976562 144.699219 225.503906 145.460938 224.75 145.683594 C 224 145.90625 221.988281 147.050781 220.285156 148.222656 C 218.582031 149.398438 216.984375 150.355469 216.730469 150.351562 C 216.476562 150.351562 214.546875 151.199219 212.4375 152.246094 C 210.332031 153.292969 205.898438 155.28125 202.585938 156.664062 C 191.121094 161.457031 188.878906 162.792969 183.71875 167.921875 C 178.132812 173.46875 177.464844 173.890625 174.269531 173.890625 C 171.523438 173.890625 170.683594 174.4375 168.949219 177.347656 C 168.265625 178.5 166.6875 180.089844 165.445312 180.886719 C 164.203125 181.683594 162.238281 183.167969 161.078125 184.179688 C 159.921875 185.195312 157.367188 186.746094 155.40625 187.625 C 152.964844 188.722656 150.601562 190.421875 147.933594 193 C 145.789062 195.074219 141.9375 198 139.378906 199.503906 C 136.820312 201.003906 133.621094 203.363281 132.265625 204.742188 C 130.898438 206.132812 128.445312 207.84375 126.75 208.582031 C 124.953125 209.367188 123.289062 210.550781 122.695312 211.464844 C 122.140625 212.320312 119.390625 215.511719 116.585938 218.550781 C 113.777344 221.59375 111.097656 224.992188 110.636719 226.105469 C 110.171875 227.214844 108.726562 229.160156 107.429688 230.421875 C 106.132812 231.6875 103.503906 235.019531 101.59375 237.832031 C 98.597656 242.230469 97.695312 243.15625 95.078125 244.480469 C 91.9375 246.070312 90.550781 247.554688 88.558594 251.457031 C 87.917969 252.714844 86.515625 254.429688 85.445312 255.273438 C 83.15625 257.070312 79.171875 262.839844 77.300781 267.066406 C 76.542969 268.78125 75.0625 270.84375 73.820312 271.910156 C 72.425781 273.105469 70.945312 275.273438 69.648438 278.007812 C 68.542969 280.339844 67.410156 282.25 67.128906 282.25 C 66.84375 282.25 65.960938 283.542969 65.164062 285.121094 C 64.367188 286.703125 63.019531 288.882812 62.164062 289.96875 C 61.023438 291.414062 60.519531 292.796875 60.269531 295.125 C 59.816406 299.378906 59.433594 300.238281 56.859375 302.785156 C 55.058594 304.566406 54.296875 306.046875 52.632812 310.980469 C 51.519531 314.289062 49.621094 318.847656 48.417969 321.105469 C 47.214844 323.359375 45.878906 326.5625 45.453125 328.21875 C 45.027344 329.871094 43.820312 333 42.777344 335.160156 C 41.730469 337.324219 40.875 339.371094 40.875 339.703125 C 40.875 340.039062 40.492188 341.054688 40.019531 341.964844 C 39.550781 342.871094 38.808594 345.507812 38.371094 347.820312 C 37.9375 350.132812 36.96875 353.214844 36.21875 354.671875 C 35.269531 356.523438 34.855469 358.207031 34.855469 360.246094 C 34.855469 363.863281 34.292969 365.394531 32.175781 367.566406 C 30.675781 369.097656 30.519531 369.589844 30.542969 372.722656 C 30.558594 374.789062 30.203125 377.054688 29.65625 378.335938 C 28.964844 379.964844 28.828125 381.347656 29.089844 384.074219 C 29.398438 387.363281 29.289062 387.9375 27.769531 390.820312 C 26.382812 393.460938 26.183594 394.300781 26.546875 395.984375 C 26.78125 397.089844 26.765625 401.441406 26.511719 405.65625 C 26.253906 409.871094 26.085938 414.179688 26.136719 415.234375 C 26.191406 416.285156 26.191406 418.011719 26.148438 419.0625 C 26.097656 420.117188 26.082031 424.121094 26.082031 427.964844 C 26.097656 433.0625 25.878906 435.492188 25.261719 436.964844 C 24.5 438.789062 24.5 439.320312 25.296875 442.453125 C 25.773438 444.359375 26.015625 446.386719 25.835938 446.957031 C 25.652344 447.53125 25.902344 449.390625 26.402344 451.089844 C 26.90625 452.8125 27.164062 454.945312 26.984375 455.914062 C 26.808594 456.867188 27.035156 459 27.472656 460.65625 C 28.558594 464.707031 28.496094 466.265625 27.136719 469.433594 L 25.980469 472.117188 L 27.546875 474.652344 C 28.410156 476.042969 29.566406 477.894531 30.117188 478.765625 C 31.707031 481.261719 32.800781 486.765625 32.414062 490.320312 C 32.121094 493.023438 32.257812 493.71875 33.398438 495.519531 C 34.125 496.660156 35.386719 499.8125 36.203125 502.519531 C 37.6875 507.4375 38.226562 509.125 39.21875 511.960938 C 40.902344 516.78125 41.660156 519.917969 41.976562 523.390625 C 42.277344 526.65625 42.675781 527.824219 44.421875 530.507812 C 45.574219 532.269531 47.203125 534.453125 48.050781 535.355469 C 49.035156 536.410156 49.863281 538.191406 50.363281 540.324219 C 50.789062 542.152344 51.765625 544.617188 52.535156 545.796875 C 53.308594 546.976562 54.628906 549.769531 55.480469 551.996094 C 56.667969 555.117188 57.871094 556.980469 60.710938 560.113281 C 63.160156 562.820312 64.597656 564.929688 64.996094 566.410156 C 66.078125 570.429688 68.871094 574.691406 73.15625 578.863281 C 76.324219 581.949219 77.632812 583.679688 78.4375 585.832031 C 79.300781 588.148438 80.40625 589.507812 84.222656 592.945312 C 86.820312 595.285156 89.507812 597.9375 90.195312 598.839844 C 91.65625 600.753906 96.863281 606.714844 98.003906 607.78125 C 98.996094 608.710938 103.421875 613.179688 105.132812 614.984375 C 105.84375 615.738281 107.765625 617.582031 109.398438 619.085938 C 111.667969 621.179688 112.539062 622.445312 113.097656 624.453125 C 114.070312 627.960938 117.34375 630.722656 121.265625 631.34375 C 124.292969 631.820312 126.835938 633.371094 131.695312 637.710938 C 133.414062 639.242188 135.699219 641.039062 136.773438 641.703125 C 137.847656 642.367188 139.089844 643.460938 139.527344 644.132812 C 140.976562 646.34375 152.730469 654.34375 156.300781 655.546875 C 158.898438 656.425781 160.085938 657.214844 161.601562 659.0625 C 164.09375 662.101562 167.332031 663.6875 171.042969 663.6875 C 173.878906 663.6875 178.445312 665.515625 182.148438 668.128906 C 182.941406 668.691406 186.019531 669.992188 188.988281 671.019531 C 191.960938 672.050781 195.542969 673.304688 196.957031 673.804688 C 198.371094 674.308594 200.585938 675.636719 201.882812 676.761719 C 205.390625 679.800781 208.996094 681.117188 212.996094 680.8125 C 215.9375 680.59375 216.53125 680.726562 218.742188 682.191406 C 220.09375 683.085938 222.558594 684.101562 224.214844 684.441406 C 225.867188 684.785156 228.679688 685.960938 230.453125 687.050781 C 234.226562 689.367188 238.699219 690.460938 244.53125 690.488281 C 247.511719 690.5 249.425781 690.828125 251.238281 691.628906 C 254.269531 692.972656 262.015625 694.316406 266.785156 694.328125 C 269.21875 694.339844 270.902344 694.683594 272.53125 695.519531 C 274.644531 696.601562 275.136719 696.648438 278.449219 696.082031 C 282.074219 695.464844 284.042969 695.703125 286.625 697.085938 C 287.347656 697.472656 289.5625 697.730469 291.761719 697.679688 C 294.445312 697.628906 296.605469 697.941406 298.804688 698.71875 C 300.550781 699.335938 302.167969 699.722656 302.398438 699.582031 C 303.144531 699.121094 317.875 698.492188 324.96875 698.617188 C 328.949219 698.6875 332.886719 699.058594 334.273438 699.496094 C 335.59375 699.910156 338.957031 700.277344 341.75 700.304688 C 346.433594 700.355469 347.0625 700.234375 349.957031 698.664062 Z M 590.457031 658.394531 C 592.335938 656.695312 594.867188 654.246094 596.085938 652.949219 C 597.304688 651.65625 599.570312 650.007812 601.125 649.285156 C 604.15625 647.882812 605.636719 646.847656 605.636719 646.132812 C 605.636719 645.328125 598.835938 647.957031 596.882812 649.515625 C 595.828125 650.359375 593.929688 651.410156 592.664062 651.855469 C 591.394531 652.300781 588.71875 653.789062 586.714844 655.160156 C 584.710938 656.535156 582.855469 657.65625 582.589844 657.65625 C 581.835938 657.65625 582.015625 658.929688 582.957031 660.269531 C 584.460938 662.417969 586.605469 661.882812 590.457031 658.394531 Z M 612.660156 639.480469 C 612.890625 638.9375 611.046875 638.929688 610.222656 639.46875 C 609.496094 639.941406 607.285156 643.488281 607.28125 644.179688 C 607.28125 644.675781 612.332031 640.257812 612.660156 639.480469 Z M 568.847656 638.75 C 569.511719 638.28125 570.320312 637.40625 570.640625 636.808594 C 571.183594 635.796875 571.019531 635.820312 568.496094 637.097656 C 566.996094 637.859375 565.609375 638.730469 565.421875 639.039062 C 564.878906 639.917969 567.492188 639.695312 568.847656 638.75 Z M 623.832031 633.03125 C 625.058594 630.574219 624.160156 630.191406 622.011719 632.25 C 620.078125 634.101562 619.917969 635.367188 621.644531 635.121094 C 622.410156 635.015625 623.238281 634.21875 623.832031 633.03125 Z M 581.945312 629.976562 C 583.941406 628.902344 586.046875 627.414062 586.632812 626.675781 C 587.214844 625.933594 589.203125 624.5625 591.054688 623.628906 C 592.90625 622.695312 595.160156 621.378906 596.0625 620.707031 C 596.964844 620.03125 598.664062 619.144531 599.839844 618.730469 C 601.058594 618.300781 602.441406 617.277344 603.0625 616.339844 C 603.664062 615.433594 605.042969 613.957031 606.128906 613.054688 C 607.925781 611.558594 611.402344 607.859375 619.496094 598.828125 C 621.117188 597.019531 622.90625 594.71875 623.480469 593.714844 C 624.113281 592.605469 626.3125 590.71875 629.097656 588.898438 C 631.613281 587.253906 633.53125 585.765625 633.355469 585.589844 C 633.179688 585.414062 632.472656 585.640625 631.78125 586.09375 C 631.089844 586.546875 629.722656 587.09375 628.742188 587.308594 C 627.613281 587.554688 626.328125 588.488281 625.234375 589.847656 C 624.285156 591.027344 622.359375 592.734375 620.949219 593.636719 C 619.539062 594.542969 617.917969 595.796875 617.347656 596.425781 C 616.78125 597.054688 615.601562 597.9375 614.734375 598.386719 C 613.40625 599.074219 612.9375 599.089844 611.808594 598.492188 C 610.621094 597.855469 610.402344 597.894531 609.878906 598.847656 C 609.554688 599.441406 608.039062 601.167969 606.507812 602.683594 C 604.976562 604.199219 603.300781 606.238281 602.78125 607.214844 C 602.265625 608.1875 601.042969 609.410156 600.066406 609.929688 C 599.09375 610.449219 596.273438 612.777344 593.796875 615.113281 C 591.324219 617.445312 589.085938 619.351562 588.824219 619.351562 C 588.558594 619.351562 586.847656 620.769531 585.015625 622.5 C 583.1875 624.230469 580.554688 626.679688 579.164062 627.945312 C 576.621094 630.257812 575.914062 631.941406 577.480469 631.941406 C 577.945312 631.941406 579.953125 631.058594 581.945312 629.984375 Z M 672.207031 556.421875 C 674.132812 554.730469 674.730469 554.515625 679.128906 553.945312 C 681.179688 553.679688 682.117188 553.195312 683.457031 551.726562 C 684.652344 550.414062 685.644531 549.847656 686.746094 549.847656 C 688.246094 549.847656 691.011719 547.652344 691.011719 546.464844 C 691.011719 546.199219 690.121094 545.199219 689.03125 544.242188 C 687.941406 543.285156 686.457031 541.5625 685.726562 540.410156 C 685 539.253906 684.175781 538.457031 683.894531 538.628906 C 683.613281 538.804688 682.886719 540.058594 682.289062 541.417969 C 681.09375 544.117188 678.070312 547.933594 673.699219 552.261719 C 669.15625 556.757812 667.929688 560.175781 672.207031 556.421875 Z M 664.90625 525.789062 C 665.414062 525.320312 664.246094 522.484375 663.546875 522.484375 C 663.015625 522.484375 662.007812 524.859375 662.007812 526.113281 C 662.007812 526.710938 662.34375 526.832031 663.238281 526.5625 C 663.914062 526.359375 664.664062 526.007812 664.90625 525.789062 Z M 671.296875 524.289062 C 671.664062 523.964844 670.058594 521.242188 669.363281 521.011719 C 668.730469 520.800781 666.820312 524.375 667.304688 524.863281 C 667.609375 525.167969 670.816406 524.707031 671.296875 524.289062 Z M 367.035156 412.441406 C 367.035156 412.183594 365.65625 410.953125 363.972656 409.710938 C 360.691406 407.285156 359.375 405.03125 359.375 401.832031 C 359.375 400.765625 359.1875 399.910156 358.960938 399.925781 C 358.738281 399.945312 357.8125 401.113281 356.910156 402.527344 C 355.621094 404.546875 354.453125 405.507812 351.472656 407.011719 C 349.386719 408.066406 347.589844 409.210938 347.476562 409.558594 C 347.164062 410.539062 352.015625 411.8125 357.5625 412.207031 C 360.328125 412.402344 363.28125 412.753906 364.128906 412.988281 C 365.777344 413.441406 367.035156 413.207031 367.035156 412.445312 Z M 351.269531 340.765625 C 353.414062 338.640625 355.863281 335.808594 356.710938 334.46875 C 357.5625 333.128906 358.992188 331.585938 359.890625 331.039062 C 361.503906 330.058594 365.996094 325.328125 369.855469 320.542969 C 370.949219 319.191406 373.726562 316.234375 376.027344 313.976562 C 378.328125 311.71875 380.671875 308.84375 381.238281 307.585938 C 381.800781 306.328125 382.945312 304.726562 383.78125 304.027344 C 389.175781 299.515625 396.578125 292.425781 396.878906 291.484375 C 397.453125 289.671875 396.878906 289.742188 394.421875 291.792969 C 393.152344 292.855469 391.332031 294.113281 390.382812 294.585938 C 389.429688 295.0625 387.238281 297.128906 385.511719 299.175781 C 383.597656 301.453125 381.464844 303.335938 380.039062 304.015625 C 378.386719 304.804688 377.066406 306.082031 375.515625 308.402344 C 374.3125 310.203125 372.464844 312.238281 371.410156 312.929688 C 370.359375 313.617188 368.265625 315.339844 366.757812 316.753906 C 365.253906 318.167969 363.351562 319.667969 362.527344 320.082031 C 360.492188 321.109375 354.628906 327.808594 353.59375 330.285156 C 353.128906 331.390625 352.3125 332.792969 351.773438 333.398438 C 349.332031 336.148438 345.765625 344.625 347.050781 344.625 C 347.226562 344.625 349.125 342.886719 351.269531 340.765625 Z M 403.847656 283.144531 C 406.203125 280.984375 407.441406 278.835938 405.753906 279.847656 C 404.222656 280.761719 400.441406 284.125 400.179688 284.796875 C 399.632812 286.230469 401.3125 285.472656 403.847656 283.144531 Z M 418.078125 265.738281 C 419.652344 264.035156 421.519531 261.875 422.226562 260.929688 C 422.933594 259.988281 424.414062 258.753906 425.511719 258.191406 C 426.609375 257.625 428.246094 256.378906 429.148438 255.421875 C 430.050781 254.460938 431.914062 253.105469 433.285156 252.40625 C 436.046875 250.996094 438.726562 247.613281 438.726562 245.539062 C 438.726562 244.800781 438.964844 243.351562 439.261719 242.320312 C 439.558594 241.289062 439.703125 240.347656 439.585938 240.230469 C 439.050781 239.699219 435.984375 241.894531 434.964844 243.542969 C 434.34375 244.546875 433.324219 245.832031 432.703125 246.394531 C 432.082031 246.957031 431.125 248.417969 430.585938 249.640625 C 429.46875 252.160156 428.660156 252.9375 425.144531 254.875 C 423.589844 255.734375 421.992188 257.265625 420.867188 258.980469 C 419.179688 261.546875 417.710938 263.628906 414.78125 267.597656 C 414.105469 268.515625 413.558594 269.660156 413.570312 270.144531 C 413.582031 270.855469 413.742188 270.8125 414.402344 269.925781 C 414.851562 269.324219 416.503906 267.441406 418.078125 265.738281 Z M 400.8125 247.042969 C 402.515625 245.292969 404.316406 242.953125 404.820312 241.84375 C 405.324219 240.734375 406.261719 239.355469 406.90625 238.78125 C 409.175781 236.765625 408.464844 236.164062 404.289062 236.574219 C 400.691406 236.929688 400.429688 236.875 399.066406 235.511719 C 398.277344 234.722656 397.410156 234.078125 397.140625 234.078125 C 395.914062 234.078125 394.945312 236.652344 394.945312 239.902344 C 394.945312 242.738281 394.625 243.902344 392.972656 247.03125 C 391.890625 249.089844 390.6875 251.140625 390.300781 251.589844 C 389.515625 252.507812 386.800781 258.824219 386.34375 260.796875 C 386.066406 261.988281 388.761719 259.425781 400.8125 247.042969 Z M 439.253906 175.257812 C 440.726562 174.511719 442.273438 173.410156 442.691406 172.816406 C 444.71875 169.921875 449.785156 165.117188 451.152344 164.792969 C 453.613281 164.210938 454.671875 163.015625 453.964844 161.636719 C 453.226562 160.199219 450.714844 157.464844 450.128906 157.464844 C 449.214844 157.464844 442.554688 164.484375 442.542969 165.460938 C 442.527344 167.59375 440.476562 170.988281 438.472656 172.226562 C 436.554688 173.414062 435.285156 175.308594 435.8125 176.207031 C 436.160156 176.796875 436.292969 176.761719 439.253906 175.257812 Z M 442.972656 130.511719 C 444.023438 129.203125 444.261719 126.566406 443.429688 125.4375 C 442.300781 123.90625 441.507812 124.902344 441.097656 128.363281 C 440.824219 130.675781 440.914062 131.195312 441.589844 131.195312 C 442.046875 131.195312 442.667969 130.886719 442.972656 130.507812 Z M 763.523438 447.972656 C 762.019531 447.671875 759.554688 446.96875 758.050781 446.410156 C 755 445.277344 750.625 444.914062 736.160156 444.585938 C 726.136719 444.359375 721.300781 443.582031 717.554688 441.585938 C 716.273438 440.90625 714.042969 440.699219 707.429688 440.640625 C 702.765625 440.609375 696.605469 440.269531 693.746094 439.898438 C 690.886719 439.527344 687.003906 439.125 685.113281 439 C 683.226562 438.878906 681.195312 438.519531 680.609375 438.203125 C 678.761719 437.214844 666.402344 435.964844 660.105469 436.128906 C 654.753906 436.269531 653.855469 436.164062 652.15625 435.125 C 648.90625 433.15625 644.089844 432.796875 630.519531 433.507812 C 622.109375 433.949219 621.644531 433.917969 619.410156 432.777344 C 617.355469 431.730469 616.335938 431.605469 610.945312 431.734375 C 603.675781 431.910156 599.605469 431.46875 594.417969 429.945312 C 592.3125 429.328125 589.601562 428.574219 588.398438 428.277344 C 587.195312 427.980469 585.101562 427.351562 583.75 426.882812 C 582.394531 426.417969 580.3125 426.074219 579.121094 426.121094 C 577.09375 426.207031 574.421875 425.738281 569.28125 424.421875 C 568.09375 424.117188 566.398438 423.777344 565.511719 423.664062 C 564.625 423.542969 563.480469 423.082031 562.972656 422.625 C 562.464844 422.164062 561.300781 421.785156 560.394531 421.785156 C 558.394531 421.785156 554.195312 418.902344 554.203125 417.539062 C 554.21875 415.796875 554.976562 415.445312 560.039062 414.824219 C 562.800781 414.484375 565.558594 413.9375 566.171875 413.613281 C 567.175781 413.074219 568.382812 409.523438 567.769531 408.90625 C 567.628906 408.769531 566.277344 409.332031 564.75 410.148438 L 561.972656 411.628906 L 557.949219 410.597656 C 550.917969 408.792969 549.820312 407.3125 549.820312 399.640625 L 549.820312 394.972656 L 547.042969 394.972656 C 543.652344 394.972656 540.226562 396.808594 537.726562 399.964844 C 536.785156 401.152344 535.117188 402.617188 534.023438 403.214844 C 532.929688 403.816406 531.011719 405.128906 529.757812 406.136719 C 528.1875 407.398438 526.65625 408.078125 524.832031 408.324219 C 523.375 408.523438 520.582031 409.144531 518.625 409.710938 C 516.667969 410.277344 513.34375 411.148438 511.238281 411.65625 C 502.085938 413.847656 500.773438 414.265625 499.597656 415.363281 C 498.363281 416.515625 498.339844 416.515625 494.398438 415.539062 C 489.574219 414.34375 486.597656 413.289062 483.234375 411.585938 C 481.828125 410.875 480.117188 410.292969 479.433594 410.292969 C 477.96875 410.292969 470.703125 406.789062 469.046875 405.285156 C 468.417969 404.714844 466.3125 403.789062 464.367188 403.234375 C 459.371094 401.804688 457.550781 400.734375 455.640625 398.097656 C 453.539062 395.199219 450.992188 393.085938 447.941406 391.71875 C 444.636719 390.238281 443.5625 389.210938 440.976562 385.058594 C 437.503906 379.484375 437.917969 377.195312 443.324219 372.082031 L 446.386719 369.1875 L 446.386719 365.632812 C 446.386719 361.683594 447.089844 359.921875 449.632812 357.503906 C 451.402344 355.824219 454.046875 350.703125 454.046875 348.960938 C 454.046875 348.410156 454.316406 346.707031 454.640625 345.175781 C 455.136719 342.871094 455.984375 341.550781 459.566406 337.484375 C 461.949219 334.785156 463.894531 332.125 463.894531 331.578125 C 463.894531 331.027344 464.675781 329.402344 465.628906 327.964844 C 467.277344 325.472656 471.125 316.828125 473.191406 310.964844 C 473.722656 309.460938 474.695312 307.320312 475.355469 306.210938 C 476.011719 305.101562 476.644531 303.171875 476.757812 301.925781 C 476.929688 300.132812 477.5 299.085938 479.5 296.945312 C 480.894531 295.457031 482.5 293.179688 483.070312 291.890625 C 483.640625 290.597656 484.828125 288.640625 485.707031 287.535156 C 486.660156 286.335938 487.453125 284.53125 487.671875 283.066406 C 487.921875 281.398438 488.734375 279.730469 490.207031 277.867188 C 491.402344 276.355469 493.203125 273.089844 494.210938 270.605469 C 495.21875 268.121094 496.929688 264.785156 498.007812 263.191406 C 499.089844 261.597656 500.515625 258.8125 501.175781 257.003906 C 501.835938 255.195312 503.082031 252.824219 503.945312 251.738281 C 504.808594 250.652344 505.664062 249.128906 505.84375 248.351562 C 506.023438 247.574219 506.882812 245.675781 507.746094 244.132812 C 508.613281 242.59375 509.324219 240.992188 509.328125 240.574219 C 509.335938 239.078125 512.160156 233.757812 513.941406 231.886719 C 514.941406 230.832031 516.066406 229.003906 516.445312 227.828125 C 516.820312 226.648438 517.558594 224.921875 518.082031 223.996094 C 518.605469 223.066406 519.449219 220.585938 519.957031 218.480469 C 521 214.152344 521.777344 212.746094 524.390625 210.453125 C 525.492188 209.484375 526.574219 207.765625 527.121094 206.117188 C 527.636719 204.5625 528.851562 202.582031 529.933594 201.535156 C 531.375 200.132812 532.027344 198.851562 532.640625 196.222656 C 533.570312 192.253906 535.851562 187.878906 538.929688 184.175781 C 540.6875 182.0625 541.0625 181.199219 541.0625 179.230469 C 541.0625 177.746094 541.558594 175.921875 542.382812 174.402344 C 544.882812 169.785156 546.601562 165.933594 547.75 162.394531 C 548.59375 159.789062 549.605469 158.105469 551.554688 156.042969 C 553.535156 153.945312 554.546875 152.242188 555.542969 149.316406 C 556.273438 147.160156 557.34375 144.722656 557.917969 143.902344 C 558.492188 143.082031 559.101562 141.03125 559.265625 139.34375 C 559.625 135.75 562.585938 129.464844 565.386719 126.367188 C 566.410156 125.230469 567.425781 123.574219 567.640625 122.683594 C 568.226562 120.257812 569.457031 118.058594 571.757812 115.320312 C 573.09375 113.734375 574.050781 111.882812 574.441406 110.121094 C 574.796875 108.515625 576.125 105.800781 577.648438 103.554688 C 579.078125 101.449219 580.695312 98.246094 581.242188 96.441406 C 582.609375 91.921875 583.976562 89.382812 585.859375 87.871094 C 587.652344 86.433594 589.515625 83.03125 590.578125 79.257812 C 591.9375 74.4375 594.71875 68.519531 596.3125 67.058594 C 598.96875 64.621094 601.0625 64.351562 607.714844 65.578125 C 610.9375 66.171875 615.171875 67.171875 617.128906 67.800781 C 619.296875 68.496094 622.582031 69.011719 625.546875 69.121094 C 629.707031 69.277344 630.726562 69.511719 632.585938 70.742188 C 633.78125 71.53125 635.929688 72.527344 637.359375 72.949219 C 638.789062 73.375 640.890625 74.460938 642.027344 75.367188 C 643.164062 76.269531 644.421875 77.007812 644.820312 77.007812 C 646.476562 77.007812 651.664062 79.367188 653.878906 81.128906 C 655.1875 82.167969 656.695312 83.019531 657.230469 83.023438 C 659.039062 83.035156 662.261719 84.710938 664.3125 86.707031 C 666.449219 88.789062 669.917969 90.992188 674.042969 92.878906 C 678.070312 94.71875 681.464844 96.9375 685.449219 100.328125 C 686.550781 101.265625 688.199219 102.414062 689.109375 102.882812 C 690.023438 103.347656 694.039062 106.960938 698.03125 110.910156 C 703.335938 116.15625 706.054688 118.433594 708.136719 119.359375 C 711.65625 120.925781 715.5625 125.023438 717.554688 129.234375 C 718.371094 130.960938 719.890625 133.152344 720.929688 134.105469 C 721.96875 135.058594 726.066406 139.039062 730.035156 142.953125 C 736.5625 149.390625 737.375 150.40625 738.558594 153.625 C 739.355469 155.78125 740.570312 157.828125 741.644531 158.824219 C 742.621094 159.726562 744.980469 162.3125 746.890625 164.570312 C 748.800781 166.828125 751.992188 170.335938 753.980469 172.367188 C 756.488281 174.925781 757.808594 176.777344 758.28125 178.386719 C 759.066406 181.046875 762.007812 186.460938 762.671875 186.460938 C 762.914062 186.460938 764.113281 187.457031 765.332031 188.679688 C 766.859375 190.203125 767.910156 191.972656 768.699219 194.347656 C 769.328125 196.246094 770.46875 198.382812 771.230469 199.097656 C 773.316406 201.054688 774.578125 203.421875 774.996094 206.160156 C 775.632812 210.316406 778.011719 215.578125 780.808594 219.007812 C 782.273438 220.804688 783.839844 223.351562 784.285156 224.660156 C 784.730469 225.972656 785.820312 227.867188 786.703125 228.875 C 787.59375 229.886719 788.578125 231.875 788.914062 233.34375 C 790.136719 238.664062 791.15625 241.925781 792 243.214844 C 793.59375 245.648438 795.613281 252 797.992188 262.066406 C 798.75 265.273438 799.855469 268.96875 800.449219 270.277344 C 801.074219 271.65625 801.53125 273.859375 801.539062 275.53125 C 801.550781 277.839844 801.871094 278.851562 803.164062 280.636719 C 804.050781 281.863281 805.03125 283.644531 805.335938 284.601562 C 806.289062 287.554688 806.914062 296.226562 806.390625 299.125 C 805.898438 301.816406 806.019531 302.640625 807.800781 308.945312 C 808.425781 311.160156 808.496094 312.519531 808.09375 314.632812 C 807.328125 318.675781 807.453125 322.003906 808.4375 323.910156 C 809.796875 326.546875 810.042969 331 809.003906 334.183594 C 808.253906 336.464844 808.207031 337.378906 808.722656 339.425781 C 809.195312 341.300781 809.1875 342.46875 808.707031 344.21875 C 808.050781 346.566406 807.519531 352.914062 807.539062 358.1875 C 807.539062 359.777344 807.0625 363.101562 806.46875 365.574219 C 805.832031 368.234375 805.390625 371.992188 805.390625 374.785156 C 805.390625 377.738281 805.078125 380.246094 804.5625 381.472656 C 803.53125 383.941406 803.53125 389.332031 804.5625 391.132812 C 805.625 392.988281 805.582031 397.390625 804.496094 399.703125 C 804.003906 400.742188 802.773438 402.222656 801.761719 402.996094 C 800.617188 403.867188 799.738281 405.140625 799.425781 406.382812 C 798.570312 409.773438 797.734375 414.921875 797.734375 416.796875 C 797.734375 417.78125 797.152344 420.105469 796.4375 421.960938 C 795.722656 423.820312 794.734375 426.464844 794.238281 427.84375 C 793.257812 430.5625 792.003906 431.910156 787.246094 435.367188 C 784.992188 437.003906 784.042969 438.085938 783.769531 439.339844 C 783.246094 441.707031 780.019531 445.117188 776.699219 446.808594 C 773.546875 448.414062 768.15625 448.886719 763.53125 447.964844 Z M 758.613281 421.664062 C 761.75 421.070312 762.15625 420.847656 762.15625 419.730469 C 762.15625 417.800781 760.886719 417.710938 756.457031 419.328125 C 752.476562 420.777344 749.515625 420.90625 745.589844 419.792969 C 744.367188 419.449219 742.59375 416.003906 742.125 413.070312 C 741.925781 411.832031 741.558594 410.691406 741.308594 410.535156 C 741.058594 410.382812 739.105469 411.523438 736.972656 413.078125 C 732.164062 416.574219 726.621094 418.949219 722.191406 419.414062 C 719.625 419.683594 719.035156 419.894531 719.75 420.292969 C 720.285156 420.589844 722.023438 420.652344 723.773438 420.429688 C 729.054688 419.773438 740.371094 419.898438 744.097656 420.65625 C 746.054688 421.054688 749.132812 421.558594 750.9375 421.773438 C 752.742188 421.988281 754.414062 422.203125 754.648438 422.25 C 754.882812 422.300781 756.664062 422.03125 758.613281 421.660156 Z M 497.921875 408.84375 C 498.472656 408.34375 498.921875 407.644531 498.921875 407.285156 C 498.921875 406.925781 499.65625 405.546875 500.554688 404.222656 C 502.945312 400.695312 502.796875 400.410156 498.789062 400.757812 C 491.160156 401.414062 490.601562 401.808594 493.042969 404.8125 C 493.71875 405.644531 494.691406 407.097656 495.203125 408.039062 C 496.277344 410.003906 496.550781 410.085938 497.925781 408.84375 Z M 616.917969 405.585938 C 617.371094 404.5 617.605469 403.472656 617.4375 403.308594 C 617.078125 402.945312 613.460938 404.8125 612.648438 405.777344 C 612.230469 406.277344 612.421875 406.589844 613.375 406.972656 C 615.542969 407.839844 616.058594 407.636719 616.917969 405.585938 Z M 779.640625 379.511719 C 780.011719 376.730469 780.707031 373.21875 781.183594 371.714844 C 781.65625 370.210938 782.085938 367.007812 782.136719 364.601562 C 782.1875 361.777344 782.546875 359.609375 783.121094 358.5 C 784.898438 355.070312 785.097656 352.53125 784.144531 345.523438 C 783.058594 337.582031 783.15625 326.578125 784.335938 323.226562 C 785.742188 319.238281 785.257812 313.90625 783.152344 310.246094 C 783.101562 310.140625 782.179688 310.515625 781.113281 311.066406 C 778.417969 312.449219 773.976562 316.304688 770.089844 320.632812 C 768.28125 322.640625 765.660156 325.027344 764.257812 325.933594 C 762.859375 326.839844 761.277344 328.320312 760.746094 329.21875 C 760.214844 330.121094 759.203125 331.167969 758.496094 331.542969 C 757.789062 331.921875 756.570312 333.070312 755.789062 334.097656 C 755.003906 335.121094 753.304688 336.414062 752.011719 336.96875 C 750.714844 337.523438 749.082031 338.765625 748.382812 339.722656 C 746.164062 342.75 740.378906 346.730469 737.578125 347.148438 C 733.277344 347.792969 728.523438 350.304688 725.367188 353.601562 C 723.777344 355.261719 721.570312 356.996094 720.464844 357.453125 C 719.355469 357.914062 718.296875 358.535156 718.109375 358.835938 C 717.921875 359.136719 715.996094 359.921875 713.832031 360.578125 C 709.261719 361.960938 706.71875 363.265625 704.417969 365.40625 C 703.515625 366.246094 701.550781 367.46875 700.046875 368.121094 C 698.546875 368.769531 696.824219 369.765625 696.214844 370.332031 C 695.613281 370.898438 693.644531 371.90625 691.851562 372.578125 C 688.214844 373.933594 681.335938 377.941406 679.878906 379.554688 C 678.949219 380.582031 679.132812 380.601562 689.757812 380.652344 C 705.550781 380.738281 714.082031 381.082031 715.664062 381.714844 C 716.429688 382.019531 719.660156 382.355469 722.84375 382.457031 L 728.628906 382.640625 L 730.855469 380.628906 C 732.082031 379.519531 733.773438 378.25 734.621094 377.800781 C 735.46875 377.355469 737.019531 375.878906 738.074219 374.519531 C 739.125 373.15625 740.726562 371.730469 741.632812 371.351562 C 742.535156 370.96875 745.054688 368.910156 747.234375 366.777344 C 750.390625 363.683594 752.070312 362.527344 755.515625 361.074219 C 759 359.597656 759.976562 358.921875 760.582031 357.550781 C 761.066406 356.453125 761.914062 355.679688 762.972656 355.371094 C 765.214844 354.710938 766.25 354.234375 770.273438 352.011719 C 774.460938 349.695312 777.699219 349.007812 778.203125 350.324219 C 778.960938 352.292969 774.546875 358.851562 772.464844 358.851562 C 771.902344 358.851562 770.902344 359.878906 770.046875 361.335938 C 769.25 362.699219 767.882812 364.183594 767.015625 364.632812 C 766.144531 365.082031 765.4375 365.652344 765.4375 365.902344 C 765.4375 366.152344 763.253906 367.761719 760.582031 369.480469 C 757.914062 371.195312 755.039062 373.316406 754.199219 374.195312 C 753.355469 375.074219 751.785156 376.078125 750.707031 376.429688 C 749.628906 376.777344 747.703125 378.015625 746.429688 379.179688 C 745.160156 380.339844 743.867188 381.292969 743.558594 381.292969 C 743.25 381.292969 743 381.554688 743 381.875 C 743 382.242188 744.558594 382.4375 747.238281 382.398438 C 757.703125 382.242188 770.722656 382.878906 773.097656 383.65625 C 774.453125 384.101562 776.324219 384.492188 777.257812 384.519531 L 778.957031 384.570312 Z M 668.433594 377.84375 C 669.5625 376.851562 671.84375 374.980469 673.5 373.691406 C 675.152344 372.398438 676.960938 370.628906 677.515625 369.753906 C 678.070312 368.882812 680.410156 366.910156 682.714844 365.371094 C 685.019531 363.832031 688.164062 361.246094 689.707031 359.621094 C 691.246094 358 693.34375 356.320312 694.371094 355.890625 C 695.394531 355.464844 696.703125 354.59375 697.277344 353.957031 C 697.855469 353.320312 699.203125 352.261719 700.277344 351.609375 C 701.351562 350.957031 703.335938 349.300781 704.691406 347.933594 C 708.007812 344.585938 715.507812 337.902344 716.640625 337.289062 C 717.140625 337.015625 719.035156 335.261719 720.84375 333.386719 C 723.746094 330.378906 724.5 329.90625 727.238281 329.335938 C 729.171875 328.933594 731.128906 328.058594 732.429688 327.015625 C 733.578125 326.09375 735.542969 324.894531 736.792969 324.351562 C 738.046875 323.808594 739.21875 322.894531 739.398438 322.324219 C 740.261719 319.609375 746.242188 316.578125 753.125 315.375 C 754.328125 315.164062 757.183594 313.902344 759.464844 312.570312 C 761.75 311.238281 763.957031 310.148438 764.367188 310.148438 C 764.78125 310.148438 766.023438 309.265625 767.125 308.191406 C 768.605469 306.742188 769.753906 306.152344 771.523438 305.929688 C 772.84375 305.757812 775.308594 304.796875 777.003906 303.785156 C 778.695312 302.769531 780.445312 301.9375 780.886719 301.9375 C 782.136719 301.9375 783.566406 300.015625 783.585938 298.300781 C 783.621094 296.136719 782.1875 291.054688 780.777344 288.289062 C 780.007812 286.777344 779.359375 283.882812 778.890625 279.867188 C 778.367188 275.339844 777.800781 273 776.726562 270.878906 C 775.925781 269.300781 775.058594 268.007812 774.800781 268.007812 C 774.542969 268.007812 774 268.796875 773.601562 269.757812 C 772.425781 272.601562 770.042969 274.886719 765.4375 277.585938 C 762.644531 279.222656 760.679688 280.808594 759.921875 282.035156 C 758.324219 284.625 752.261719 288.59375 747.925781 289.898438 C 744.628906 290.886719 744.269531 291.152344 743.015625 293.527344 C 741.664062 296.089844 738.101562 299.203125 736.523438 299.203125 C 735.253906 299.203125 729.355469 303.0625 727.449219 305.144531 C 726.519531 306.152344 725.054688 307.632812 724.1875 308.425781 C 723.320312 309.222656 721.539062 310.90625 720.226562 312.167969 C 716.582031 315.667969 714.546875 317.066406 711.285156 318.300781 C 709.140625 319.113281 707.429688 320.34375 705.210938 322.675781 C 703.300781 324.683594 700.792969 326.585938 698.621094 327.679688 C 696.691406 328.648438 693.390625 330.554688 691.285156 331.914062 C 689.179688 333.273438 685.976562 335.054688 684.167969 335.867188 C 682.003906 336.839844 680.605469 337.867188 680.066406 338.886719 C 679.101562 340.695312 675.402344 343.53125 674.003906 343.53125 C 673.472656 343.53125 671.859375 344.429688 670.421875 345.523438 C 668.988281 346.621094 666.761719 347.980469 665.480469 348.550781 C 664.195312 349.117188 662.996094 349.824219 662.8125 350.121094 C 662.628906 350.421875 661.25 351.285156 659.75 352.046875 C 658.25 352.808594 655.375 354.765625 653.359375 356.402344 C 649.40625 359.613281 643.613281 362.894531 640.882812 363.472656 C 639.945312 363.667969 637.855469 365.003906 636.230469 366.433594 C 632.988281 369.289062 629.714844 371.441406 628.605469 371.441406 C 627.785156 371.441406 625.890625 373.027344 625.890625 373.707031 C 625.890625 374.726562 630.191406 375.964844 634.097656 376.070312 C 643.4375 376.324219 656.046875 377.613281 663.101562 379.035156 C 664.457031 379.304688 665.75 379.554688 665.972656 379.589844 C 666.199219 379.621094 667.304688 378.835938 668.4375 377.84375 Z M 608.578125 371.203125 C 610.214844 369.867188 612.75 368.167969 614.207031 367.429688 C 617.171875 365.925781 618.289062 364.816406 619.246094 362.410156 C 619.703125 361.265625 621.222656 359.941406 624.28125 358.03125 C 626.695312 356.527344 629.210938 354.488281 629.875 353.503906 C 630.570312 352.476562 632.300781 351.132812 633.9375 350.351562 C 635.507812 349.601562 637.230469 348.355469 637.769531 347.582031 C 640.089844 344.246094 641.90625 342.488281 643.371094 342.167969 C 644.359375 341.953125 645.449219 341.054688 646.324219 339.734375 C 647.144531 338.492188 648.71875 337.152344 650.199219 336.433594 C 651.574219 335.769531 653.207031 334.511719 653.828125 333.636719 C 654.453125 332.757812 656.015625 331.425781 657.296875 330.675781 C 658.582031 329.921875 661.699219 326.964844 664.222656 324.105469 C 666.75 321.242188 669.296875 318.75 669.882812 318.5625 C 670.472656 318.375 672.078125 317.179688 673.457031 315.902344 C 674.835938 314.628906 677.019531 312.921875 678.3125 312.117188 C 679.609375 311.308594 680.800781 310.292969 680.96875 309.859375 C 681.140625 309.429688 682.171875 308.539062 683.269531 307.878906 C 684.367188 307.222656 686.25 305.644531 687.453125 304.371094 C 688.882812 302.863281 690.5 301.808594 692.105469 301.335938 C 695.4375 300.359375 698.472656 298.089844 700.304688 295.203125 C 701.753906 292.917969 704.890625 290.992188 707.160156 290.992188 C 707.605469 290.992188 709.632812 289.359375 711.664062 287.359375 C 713.699219 285.363281 716.347656 283.113281 717.554688 282.359375 C 719.992188 280.832031 723.269531 278.148438 726.738281 274.835938 C 728.007812 273.621094 729.90625 272.304688 730.960938 271.910156 C 735.976562 270.019531 737.433594 269.230469 739.71875 267.136719 C 741.070312 265.894531 743.78125 263.871094 745.738281 262.636719 C 747.695312 261.40625 749.785156 259.628906 750.386719 258.695312 C 751.859375 256.414062 758.5625 251.96875 761.914062 251.054688 C 765.179688 250.164062 767.625 248.5625 767.628906 247.3125 C 767.640625 245.191406 764.195312 238.140625 762.441406 236.675781 L 760.632812 235.167969 L 758.246094 236.53125 C 756.933594 237.28125 755.175781 237.898438 754.339844 237.902344 C 751.335938 237.914062 749.046875 239.351562 747.902344 241.9375 C 746.726562 244.601562 743.519531 247.761719 741.996094 247.761719 C 741.460938 247.761719 739.863281 248.5 738.4375 249.402344 C 737.015625 250.304688 735.582031 251.042969 735.253906 251.042969 C 734.925781 251.042969 733.144531 252.625 731.292969 254.5625 C 728.609375 257.363281 727.402344 258.210938 725.355469 258.726562 C 723.359375 259.230469 722.328125 259.929688 720.746094 261.863281 C 719.25 263.6875 717.53125 264.90625 714.300781 266.4375 C 711.324219 267.847656 709.320312 269.222656 708.136719 270.664062 C 707.171875 271.839844 704.957031 273.605469 703.210938 274.585938 C 701.46875 275.566406 699.242188 277.058594 698.269531 277.910156 C 697.296875 278.757812 695.449219 279.730469 694.167969 280.070312 C 689.101562 281.410156 685.992188 283.519531 683.699219 287.164062 C 683.035156 288.214844 681.390625 289.695312 680.046875 290.445312 C 678.703125 291.199219 676.566406 292.582031 675.296875 293.519531 C 674.03125 294.453125 672.246094 295.53125 671.332031 295.910156 C 670.414062 296.289062 669.667969 296.808594 669.667969 297.0625 C 669.667969 297.316406 668.8125 298.378906 667.765625 299.429688 C 666.292969 300.898438 665.109375 301.480469 662.558594 301.980469 C 658.949219 302.691406 652.484375 306.722656 649.761719 309.964844 C 648.367188 311.621094 641.320312 315.074219 639.320312 315.074219 C 638.84375 315.074219 637.410156 316.023438 636.136719 317.1875 C 634.863281 318.351562 632.960938 319.742188 631.90625 320.28125 C 630.855469 320.816406 629.246094 321.820312 628.339844 322.511719 C 627.429688 323.203125 625.621094 324.007812 624.320312 324.300781 C 623.015625 324.59375 621.421875 325.328125 620.773438 325.933594 C 620.125 326.542969 618.453125 327.527344 617.058594 328.125 C 615.664062 328.71875 614.132812 329.761719 613.660156 330.441406 C 612.8125 331.652344 609.429688 333.835938 605.640625 335.621094 C 604.585938 336.117188 602.984375 336.90625 602.082031 337.375 C 601.179688 337.84375 599.554688 338.671875 598.472656 339.207031 C 597.394531 339.75 595.5 341.003906 594.269531 341.996094 C 593.039062 342.992188 590.40625 344.789062 588.421875 345.992188 C 586.433594 347.199219 583.929688 348.746094 582.847656 349.4375 C 581.769531 350.128906 580.128906 350.847656 579.199219 351.035156 C 578.273438 351.21875 576.300781 352.289062 574.816406 353.410156 C 572.484375 355.179688 570.039062 356.609375 559.667969 362.292969 C 558.617188 362.871094 557.363281 363.6875 556.890625 364.105469 C 555.1875 365.617188 552.554688 364.699219 552.554688 362.597656 C 552.554688 362.070312 554.339844 360.15625 556.523438 358.34375 C 558.703125 356.527344 562.054688 353.746094 563.964844 352.160156 C 565.875 350.570312 568.828125 348.027344 570.53125 346.507812 C 572.230469 344.984375 574.730469 342.898438 576.085938 341.871094 C 577.441406 340.84375 580.316406 338.480469 582.476562 336.617188 C 584.636719 334.753906 586.917969 333.066406 587.542969 332.867188 C 588.171875 332.667969 589.054688 331.785156 589.511719 330.90625 C 590 329.960938 591.449219 328.742188 593.054688 327.929688 C 594.546875 327.171875 596.179688 325.925781 596.679688 325.160156 C 597.183594 324.394531 598.726562 323.003906 600.113281 322.070312 C 601.496094 321.136719 604.476562 318.601562 606.734375 316.4375 C 610.101562 313.210938 611.253906 312.4375 613.15625 312.140625 C 615.125 311.832031 615.628906 311.472656 616.519531 309.730469 C 618.253906 306.332031 626.292969 299.378906 630.777344 297.398438 C 632.734375 296.535156 634.203125 295.34375 635.621094 293.472656 C 636.738281 291.996094 638.671875 290.15625 639.914062 289.382812 C 645.675781 285.8125 650.566406 282.082031 651.273438 280.71875 C 652.382812 278.589844 654.242188 277.074219 657.082031 275.984375 C 660.675781 274.605469 664.097656 272.269531 667.203125 269.085938 C 670.152344 266.066406 672.242188 264.722656 674.007812 264.722656 C 674.617188 264.722656 676.710938 263.28125 678.65625 261.515625 C 680.605469 259.75 683.132812 257.890625 684.277344 257.382812 C 685.421875 256.878906 686.625 256.289062 686.949219 256.078125 C 692.078125 252.746094 694.109375 251.261719 694.53125 250.542969 C 695.707031 248.539062 698.105469 246.710938 700.355469 246.105469 C 701.675781 245.75 703.617188 244.703125 704.667969 243.78125 C 705.722656 242.859375 708.042969 241.15625 709.828125 240.003906 C 711.613281 238.847656 713.660156 237.042969 714.375 235.992188 C 715.835938 233.839844 718.703125 232.203125 721.867188 231.714844 C 723.492188 231.460938 724.664062 230.691406 726.863281 228.441406 C 728.707031 226.554688 731.484375 224.582031 734.589844 222.949219 C 738.613281 220.835938 740.210938 219.570312 743.941406 215.539062 L 748.441406 210.679688 L 746.734375 207.464844 C 745.128906 204.4375 742.136719 200.695312 741.320312 200.695312 C 740.53125 200.695312 735.335938 205.207031 735.335938 205.890625 C 735.335938 206.785156 732.25 209.449219 731.210938 209.449219 C 730.792969 209.449219 729.640625 210.144531 728.652344 210.996094 C 727.664062 211.847656 725.714844 213.316406 724.320312 214.261719 C 722.894531 215.226562 721.636719 216.566406 721.449219 217.3125 C 721.265625 218.042969 720.3125 219.640625 719.332031 220.863281 C 718.351562 222.085938 716.882812 224.070312 716.0625 225.277344 C 715.121094 226.671875 713.523438 228 711.6875 228.921875 C 710.09375 229.71875 706.796875 232.308594 704.351562 234.679688 C 699.875 239.023438 696.359375 241.15625 693.636719 241.179688 C 692.507812 241.191406 691.757812 241.769531 690.472656 243.640625 C 688.628906 246.320312 685.859375 248.164062 680.578125 250.234375 C 677.089844 251.601562 675.546875 252.832031 669.144531 259.332031 C 664.9375 263.601562 663.695312 264.441406 659.933594 265.558594 C 658.390625 266.019531 656.972656 266.644531 656.785156 266.949219 C 656.597656 267.253906 655.414062 268.140625 654.160156 268.917969 C 652.90625 269.695312 651.238281 270.925781 650.457031 271.65625 C 649.675781 272.382812 647.84375 273.40625 646.390625 273.929688 C 644.253906 274.691406 643.09375 275.667969 640.382812 278.964844 C 637.722656 282.207031 636.445312 283.292969 634.222656 284.1875 C 632.679688 284.804688 630.113281 286.464844 628.515625 287.867188 C 626.921875 289.273438 624.480469 291.414062 623.097656 292.621094 C 619.308594 295.933594 613.460938 299.609375 610.339844 300.640625 C 608.261719 301.324219 606.722656 302.421875 604.269531 304.960938 C 602.464844 306.832031 600 308.867188 598.796875 309.480469 C 597.59375 310.09375 595.871094 311.386719 594.964844 312.355469 C 594.0625 313.328125 592.03125 314.957031 590.449219 315.984375 C 588.867188 317.007812 586.363281 318.921875 584.882812 320.238281 C 583.402344 321.550781 581.371094 322.804688 580.371094 323.019531 C 577.636719 323.609375 576.125 324.523438 572.421875 327.828125 C 569.507812 330.425781 564.398438 333.132812 562.398438 333.132812 C 562.113281 333.132812 560.867188 334.425781 559.628906 336.003906 C 557.070312 339.261719 554.789062 340.835938 550.175781 342.535156 C 547.71875 343.441406 546.652344 344.203125 545.585938 345.8125 C 544.054688 348.128906 541.921875 349.605469 538.601562 350.65625 C 537.398438 351.035156 535.605469 352.046875 534.625 352.902344 C 533.640625 353.757812 532.164062 354.613281 531.339844 354.804688 C 530.515625 354.996094 528.859375 355.703125 527.65625 356.378906 C 526.449219 357.054688 523.742188 358.164062 521.636719 358.847656 C 519.527344 359.527344 517.3125 360.519531 516.710938 361.046875 C 515.246094 362.335938 507.410156 365.957031 504.679688 366.605469 C 502.316406 367.167969 500.40625 368.550781 500.898438 369.34375 C 501.355469 370.085938 507.613281 369.226562 510.136719 368.082031 C 513.070312 366.75 514.480469 366.808594 519.742188 368.46875 C 523.988281 369.808594 524.296875 369.835938 526.347656 369.015625 C 529.109375 367.910156 531.285156 367.925781 533.828125 369.066406 C 536.703125 370.363281 555.308594 370.613281 557.707031 369.390625 C 559.921875 368.261719 563.585938 368.777344 566.195312 370.585938 L 568.320312 372.058594 L 583.011719 371.746094 C 596.742188 371.453125 597.847656 371.503906 599.890625 372.484375 C 603.480469 374.210938 605.191406 373.953125 608.578125 371.199219 Z M 488.035156 367.164062 C 491.246094 366.832031 491.820312 366.585938 493.191406 364.953125 C 494.039062 363.945312 497.039062 361.398438 499.851562 359.289062 C 502.667969 357.183594 505.320312 354.78125 505.753906 353.949219 C 506.5 352.5 510.640625 348.703125 514.886719 345.570312 C 515.992188 344.753906 517.160156 343.285156 517.484375 342.304688 C 517.855469 341.191406 519.957031 338.773438 523.085938 335.867188 C 538.777344 321.296875 538.019531 321.894531 541.828125 321.105469 C 544.3125 320.589844 544.980469 320.160156 546.5625 318.046875 C 547.730469 316.484375 549.453125 315.074219 551.289062 314.175781 C 553.222656 313.234375 554.785156 311.921875 556.003906 310.222656 C 557.261719 308.472656 559.195312 306.875 562.230469 305.085938 C 564.648438 303.65625 566.910156 302.484375 567.25 302.484375 C 567.589844 302.484375 570.082031 300.535156 572.792969 298.148438 C 575.5 295.761719 578.25 293.636719 578.910156 293.429688 C 581.414062 292.632812 586.375 289.039062 590.589844 284.96875 C 593.417969 282.234375 595.582031 280.605469 596.707031 280.359375 C 597.667969 280.148438 599.511719 279.042969 600.8125 277.902344 C 602.113281 276.761719 604.222656 275.292969 605.5 274.640625 C 606.875 273.941406 608.402344 272.550781 609.230469 271.238281 C 610.402344 269.378906 611.539062 268.589844 616.207031 266.390625 C 621.101562 264.082031 622.070312 263.386719 624.136719 260.691406 C 625.429688 259.003906 627.644531 256.957031 629.058594 256.144531 C 630.476562 255.328125 632.371094 254.109375 633.277344 253.4375 C 634.179688 252.765625 636.027344 251.738281 637.382812 251.160156 C 641.664062 249.324219 647.9375 244.949219 651.335938 241.429688 C 654.242188 238.421875 655.121094 237.867188 658.996094 236.601562 C 664.785156 234.710938 668.386719 232.207031 674.921875 225.539062 C 677.902344 222.496094 681.328125 219.503906 682.53125 218.890625 C 683.738281 218.277344 685.734375 216.578125 686.972656 215.109375 C 688.59375 213.1875 690.8125 211.574219 694.960938 209.300781 C 698.117188 207.574219 701.167969 205.644531 701.738281 205.011719 C 703.316406 203.269531 705.375 202.394531 708.859375 201.988281 C 711.492188 201.675781 712.398438 201.269531 714.273438 199.539062 C 717.023438 197.007812 718.1875 196.539062 723.054688 196.027344 C 726.308594 195.683594 727.152344 195.359375 728.910156 193.785156 C 730.039062 192.769531 731.5 191.941406 732.152344 191.941406 C 733.476562 191.941406 735.339844 190.488281 735.339844 189.457031 C 735.339844 189.085938 734.730469 188.382812 733.984375 187.894531 C 732.417969 186.867188 731.261719 184.820312 730.703125 182.089844 C 730.484375 181.035156 729.683594 179.25 728.917969 178.121094 C 727.484375 176.007812 721.429688 171.144531 720.234375 171.144531 C 719.863281 171.144531 718.832031 172.335938 717.9375 173.789062 C 716.445312 176.214844 715.585938 176.835938 712.21875 177.917969 C 711.691406 178.089844 711.253906 178.664062 711.246094 179.199219 C 711.234375 179.734375 710.765625 181.203125 710.195312 182.460938 C 709.109375 184.851562 706.109375 187.292969 698.875 191.667969 C 696.882812 192.871094 693.964844 195.085938 692.390625 196.59375 C 688.261719 200.535156 684.414062 203.6875 682.527344 204.675781 C 681.625 205.148438 679.539062 206.542969 677.898438 207.777344 C 676.167969 209.078125 674.027344 210.164062 672.8125 210.359375 C 671.4375 210.578125 670.203125 211.269531 669.230469 212.363281 C 664.085938 218.160156 659.804688 222.292969 657.945312 223.246094 C 656.769531 223.847656 654.429688 225.277344 652.75 226.425781 C 651.066406 227.570312 648.335938 229.105469 646.679688 229.839844 C 644.554688 230.78125 643.269531 231.796875 642.304688 233.289062 C 640.5 236.078125 634.070312 241.445312 630.148438 243.433594 C 628.429688 244.304688 625.773438 246.128906 624.246094 247.484375 C 622.71875 248.839844 621.234375 249.949219 620.949219 249.949219 C 620.660156 249.949219 619.070312 251.175781 617.414062 252.675781 C 615.761719 254.175781 612.945312 256.140625 611.15625 257.042969 C 609.367188 257.945312 607.550781 259.1875 607.117188 259.804688 C 605.882812 261.570312 599.609375 265.71875 596.71875 266.6875 C 594.75 267.347656 593.730469 268.113281 592.652344 269.742188 C 591.0625 272.140625 589.40625 273.191406 586.28125 273.777344 C 584.703125 274.074219 583.808594 274.707031 582.59375 276.382812 C 581.15625 278.367188 570.617188 286.03125 569.292969 286.058594 C 569.019531 286.058594 567.046875 287.503906 564.914062 289.261719 C 562.78125 291.015625 559.640625 293.085938 557.933594 293.859375 C 556.230469 294.632812 554.558594 295.785156 554.222656 296.414062 C 553.882812 297.046875 552.449219 298.152344 551.027344 298.871094 C 549.609375 299.589844 547.980469 300.695312 547.410156 301.328125 C 546.839844 301.957031 545.179688 303.242188 543.71875 304.179688 C 542.253906 305.117188 541.058594 306.050781 541.058594 306.257812 C 541.058594 306.460938 540.261719 307.085938 539.28125 307.644531 C 538.304688 308.203125 536.210938 309.496094 534.636719 310.523438 C 533.058594 311.550781 530.902344 312.75 529.847656 313.191406 C 528.789062 313.632812 527.925781 314.214844 527.925781 314.484375 C 527.925781 314.753906 526.386719 315.984375 524.503906 317.222656 C 522.625 318.457031 519.132812 320.832031 516.746094 322.496094 C 511.828125 325.929688 509.71875 326.289062 509.425781 323.746094 C 509.285156 322.578125 509.765625 321.878906 511.847656 320.1875 C 513.273438 319.027344 517.289062 315.308594 520.773438 311.921875 C 524.253906 308.53125 527.496094 305.632812 527.976562 305.480469 C 528.453125 305.324219 529.15625 304.621094 529.535156 303.914062 C 529.914062 303.207031 531.152344 302.105469 532.285156 301.46875 C 533.417969 300.832031 536.914062 297.769531 540.054688 294.667969 C 543.195312 291.566406 546.667969 288.339844 547.769531 287.5 C 548.871094 286.65625 549.925781 285.496094 550.109375 284.917969 C 550.292969 284.339844 551.222656 283.460938 552.183594 282.96875 C 553.136719 282.472656 555.726562 280.496094 557.933594 278.574219 C 560.136719 276.652344 562.40625 274.789062 562.976562 274.433594 C 563.546875 274.078125 565.4375 272.097656 567.175781 270.03125 C 568.914062 267.964844 571.253906 265.800781 572.371094 265.226562 C 573.492188 264.648438 574.984375 263.320312 575.695312 262.277344 C 577.796875 259.179688 585.90625 252.003906 590.199219 249.441406 C 592.390625 248.132812 594.433594 246.597656 594.734375 246.035156 C 595.039062 245.46875 596.320312 244.359375 597.585938 243.570312 C 598.855469 242.78125 602.320312 239.683594 605.292969 236.691406 C 608.261719 233.695312 611.367188 230.835938 612.1875 230.335938 C 613.011719 229.835938 615.933594 226.976562 618.683594 223.984375 C 621.796875 220.597656 624.804688 217.914062 626.648438 216.871094 C 630.074219 214.933594 634.003906 212.109375 635.1875 210.734375 C 635.636719 210.207031 636.746094 209.082031 637.648438 208.230469 C 638.550781 207.375 641.382812 204.699219 643.941406 202.285156 C 648.085938 198.371094 654.65625 193.863281 658.828125 192.074219 C 659.640625 191.726562 660.675781 190.730469 661.121094 189.863281 C 662.191406 187.796875 668.320312 182.800781 670.757812 182.007812 C 671.808594 181.667969 673.585938 180.570312 674.699219 179.574219 C 675.816406 178.574219 677.78125 177.21875 679.070312 176.5625 C 680.359375 175.902344 682.527344 174.445312 683.886719 173.320312 C 685.242188 172.195312 686.910156 170.988281 687.589844 170.640625 C 688.269531 170.292969 689.839844 168.722656 691.074219 167.15625 C 693.796875 163.707031 695.433594 162.566406 698.359375 162.078125 C 699.582031 161.875 701.457031 161.265625 702.523438 160.726562 C 703.589844 160.183594 705.363281 159.574219 706.460938 159.367188 C 710.226562 158.660156 710.429688 158.121094 708.183594 154.726562 C 705.578125 150.785156 699.929688 144.988281 697.820312 144.089844 C 696.902344 143.703125 695.484375 142.550781 694.667969 141.527344 C 693.847656 140.511719 692.933594 139.375 692.636719 139.011719 C 692.335938 138.644531 691.714844 138.488281 691.25 138.667969 C 690.308594 139.03125 686.402344 144.367188 684.714844 147.589844 C 682.628906 151.570312 674.5625 160.179688 671.402344 161.792969 C 670.191406 162.410156 668.371094 164.113281 667.238281 165.691406 C 665.820312 167.667969 664.460938 168.832031 662.65625 169.625 C 661.242188 170.242188 658.328125 172.410156 656.183594 174.441406 C 653.355469 177.117188 651.398438 178.460938 649.070312 179.328125 C 647.304688 179.984375 645.117188 181.230469 644.214844 182.097656 C 643.3125 182.964844 641.664062 184.054688 640.554688 184.519531 C 639.441406 184.980469 637.863281 186.238281 637.046875 187.308594 C 636.230469 188.382812 634.484375 189.890625 633.167969 190.660156 C 631.851562 191.433594 630.042969 193.128906 629.148438 194.425781 C 627.914062 196.222656 626.835938 197.046875 624.652344 197.859375 C 622.167969 198.78125 621.539062 199.339844 620.003906 201.949219 C 618.03125 205.3125 612.828125 209.625 609.703125 210.488281 C 608.542969 210.808594 606.558594 212.285156 604.574219 214.300781 C 602.792969 216.109375 599.742188 218.507812 597.792969 219.628906 C 595.355469 221.027344 593.878906 222.316406 593.078125 223.746094 C 591.453125 226.636719 586.714844 230.628906 583.738281 231.621094 C 581.890625 232.234375 580.476562 233.320312 578.292969 235.800781 C 576.433594 237.910156 574.414062 239.5625 572.839844 240.253906 C 571.460938 240.863281 569.574219 241.9375 568.644531 242.640625 C 567.71875 243.347656 566.117188 244.214844 565.089844 244.566406 C 564.0625 244.921875 561.621094 246.675781 559.664062 248.46875 C 557.710938 250.261719 555.121094 252.160156 553.917969 252.691406 C 552.714844 253.222656 551 254.429688 550.113281 255.371094 C 549.0625 256.484375 547.75 257.207031 546.378906 257.425781 C 545.121094 257.628906 543.335938 258.542969 541.976562 259.683594 C 540.71875 260.742188 538.542969 262.082031 537.140625 262.667969 C 535.636719 263.296875 534.046875 264.5 533.261719 265.601562 C 531.886719 267.539062 524.847656 273.167969 523.117188 273.71875 C 521.734375 274.15625 518.382812 278.3125 516.949219 281.363281 C 516.28125 282.777344 514.929688 284.554688 513.9375 285.308594 C 512.949219 286.0625 511.875 287.441406 511.550781 288.371094 C 511.226562 289.300781 510.070312 291.148438 508.976562 292.480469 C 507.304688 294.523438 506.929688 295.476562 506.589844 298.589844 C 506.085938 303.15625 505.601562 304.101562 501.582031 308.320312 C 498.445312 311.617188 498.371094 311.765625 498.371094 314.78125 C 498.371094 317.953125 497.511719 320.3125 495.859375 321.679688 C 495.335938 322.109375 494.359375 323.691406 493.683594 325.199219 C 493.011719 326.703125 491.425781 328.917969 490.164062 330.121094 C 487.449219 332.714844 485.320312 337.121094 484.6875 341.464844 C 484.332031 343.902344 483.566406 345.605469 481.246094 349.128906 C 479.601562 351.617188 477.945312 354.640625 477.558594 355.84375 C 477.171875 357.046875 475.902344 359.851562 474.730469 362.070312 C 473.5625 364.289062 472.699219 366.382812 472.808594 366.722656 C 473.03125 367.390625 480.132812 368.140625 482.777344 367.769531 C 483.679688 367.652344 486.042969 367.371094 488.03125 367.167969 Z M 542.429688 235.734375 C 543.632812 234.71875 545.019531 233.238281 545.507812 232.445312 C 545.996094 231.648438 548.761719 229.097656 551.652344 226.769531 C 554.546875 224.441406 557.578125 221.625 558.394531 220.511719 C 561.863281 215.765625 565.683594 212.734375 568.207031 212.734375 C 568.710938 212.734375 570.15625 211.8125 571.417969 210.683594 C 572.679688 209.554688 575.394531 207.277344 577.449219 205.621094 C 579.503906 203.964844 583.300781 200.503906 585.886719 197.925781 C 589.679688 194.148438 591.226562 193.003906 593.871094 192.015625 C 598.367188 190.335938 601.070312 188.355469 602.734375 185.515625 C 604.417969 182.640625 611.070312 176.894531 613.722656 176.019531 C 617.023438 174.929688 622.195312 170.8125 626.273438 166.023438 C 629.363281 162.398438 630.902344 161.074219 633.386719 159.902344 C 635.132812 159.078125 637.546875 157.734375 638.746094 156.914062 C 639.949219 156.09375 641.957031 154.90625 643.207031 154.269531 C 644.503906 153.613281 646.027344 152.226562 646.75 151.050781 C 648.746094 147.808594 652.171875 144.34375 654.59375 143.113281 C 655.808594 142.496094 657.707031 141.285156 658.804688 140.421875 C 661.722656 138.128906 665.230469 136.691406 667.960938 136.679688 C 669.902344 136.667969 670.742188 136.320312 672.390625 134.828125 C 674.109375 133.277344 676.78125 131.976562 680.578125 130.839844 C 681.121094 130.683594 680.613281 129.890625 678.933594 128.285156 C 677.601562 127.011719 675.800781 125.027344 674.933594 123.875 C 674.070312 122.71875 672.476562 121.410156 671.398438 120.957031 C 670.316406 120.507812 668.34375 119.175781 667.011719 118.003906 C 665.679688 116.832031 664.292969 115.871094 663.929688 115.871094 C 663.183594 115.871094 662.007812 119.359375 662.007812 121.5625 C 662.007812 124.386719 660.289062 127.121094 655.78125 131.46875 C 650.492188 136.574219 645.347656 140.578125 640.773438 143.148438 C 638.066406 144.671875 637.296875 145.449219 636.214844 147.757812 C 634.957031 150.453125 631.542969 153.632812 629.917969 153.632812 C 629.515625 153.632812 627.042969 155.597656 624.425781 158.003906 C 621.804688 160.40625 618.167969 163.148438 616.34375 164.097656 C 614.351562 165.132812 612.453125 166.628906 611.59375 167.839844 C 610.808594 168.945312 609.207031 170.296875 608.039062 170.839844 C 606.867188 171.382812 605.328125 172.550781 604.613281 173.433594 C 603.902344 174.316406 601.738281 175.785156 599.804688 176.699219 C 597.210938 177.921875 594.949219 179.699219 591.152344 183.480469 C 587.183594 187.4375 585.035156 189.097656 581.730469 190.761719 C 578.894531 192.191406 576.851562 193.664062 575.664062 195.144531 C 574.476562 196.625 573.128906 197.597656 571.660156 198.039062 C 570.246094 198.460938 569.179688 199.214844 568.710938 200.109375 C 567.710938 202.035156 565.9375 203.546875 562.570312 205.34375 C 561.003906 206.175781 558.304688 208.058594 556.574219 209.523438 C 554.839844 210.988281 552.984375 212.324219 552.449219 212.496094 C 551.917969 212.667969 550.320312 214.945312 548.902344 217.558594 C 547.484375 220.175781 545.398438 223.425781 544.265625 224.78125 C 542.191406 227.265625 538.324219 235.886719 538.324219 238.027344 C 538.324219 239.300781 537.953125 239.507812 542.429688 235.734375 Z M 566.246094 182.332031 C 566.515625 181.621094 567.734375 180.53125 568.949219 179.914062 C 570.5 179.121094 571.8125 177.75 573.355469 175.304688 C 575.230469 172.335938 576.058594 171.574219 578.96875 170.140625 C 583.511719 167.902344 585.285156 166.191406 586.195312 163.167969 C 586.972656 160.585938 591.324219 155.429688 595.242188 152.453125 C 600.28125 148.625 608.210938 140.832031 609.761719 138.1875 C 610.695312 136.601562 612.226562 134.808594 613.167969 134.207031 C 614.105469 133.605469 616.648438 132.003906 618.816406 130.648438 C 620.984375 129.292969 623.335938 127.3125 624.046875 126.242188 C 624.761719 125.171875 626.5 123.574219 627.917969 122.683594 C 629.335938 121.796875 631.640625 119.941406 633.039062 118.558594 C 634.4375 117.175781 637.035156 115.222656 638.804688 114.222656 C 640.582031 113.21875 642.980469 111.5625 644.136719 110.53125 C 645.296875 109.503906 646.957031 108.414062 647.832031 108.109375 C 648.707031 107.804688 649.417969 107.382812 649.417969 107.164062 C 649.417969 105.976562 639.617188 100.582031 637.121094 100.394531 C 635.675781 100.292969 635.476562 100.464844 635.179688 102.191406 C 634.667969 105.140625 633.753906 106.402344 631.347656 107.460938 C 629.054688 108.472656 628.941406 108.695312 628.347656 113.269531 C 627.90625 116.667969 626.015625 118.878906 622.488281 120.105469 C 620.253906 120.882812 619.289062 121.65625 617.503906 124.082031 C 613.308594 129.777344 611.179688 131.632812 607.367188 132.898438 C 604.550781 133.835938 603.007812 134.839844 599.777344 137.835938 C 597.546875 139.902344 595.433594 141.597656 595.074219 141.597656 C 591.777344 141.632812 582.464844 148.910156 581.148438 152.492188 C 580.40625 154.507812 577.09375 159.148438 573.882812 162.664062 C 571.8125 164.929688 569.085938 171.207031 567.878906 176.488281 C 567.515625 178.070312 566.628906 180.238281 565.910156 181.300781 C 565.1875 182.363281 564.597656 183.484375 564.597656 183.789062 C 564.597656 184.710938 565.726562 183.71875 566.25 182.332031 Z M 609.175781 99.773438 C 610.25 99.046875 612.167969 98.28125 613.441406 98.078125 C 615.695312 97.710938 618.769531 95.519531 618.769531 94.28125 C 618.769531 93.957031 617.128906 93.222656 615.117188 92.648438 L 611.460938 91.601562 L 609.578125 93.75 C 606.898438 96.800781 605.222656 101.09375 606.707031 101.09375 C 606.996094 101.09375 608.105469 100.5 609.175781 99.773438 Z M 784.894531 443.558594 C 783.609375 441.722656 783.855469 440.59375 785.875 439.054688 C 788.199219 437.28125 790.3125 437.242188 791.433594 438.953125 C 793.714844 442.433594 787.285156 446.964844 784.894531 443.554688 Z M 526.535156 422.632812 C 523.972656 420.074219 525.167969 417.59375 529.960938 415.523438 C 532.117188 414.589844 532.359375 414.585938 533.648438 415.433594 C 535.621094 416.726562 536.839844 418.796875 536.414062 420.132812 C 536.21875 420.753906 535.15625 421.875 534.054688 422.625 C 531.371094 424.449219 528.347656 424.453125 526.535156 422.640625 Z M 526.535156 422.632812 " fill-opacity="1" fill-rule="nonzero"/></g></svg>