<svg xmlns="http://www.w3.org/2000/svg" xmlns:xlink="http://www.w3.org/1999/xlink" width="1080" zoomAndPan="magnify" viewBox="0 0 810 809.999993" height="1080" preserveAspectRatio="xMidYMid meet" version="1.0"><defs><clipPath id="8e7449dd61"><path d="M 0 12.597656 L 810 12.597656 L 810 797.09375 L 0 797.09375 Z M 0 12.597656 " clip-rule="nonzero"/></clipPath></defs><rect x="-81" width="972" fill="#ffffff" y="-80.999999" height="971.999992" fill-opacity="1"/><rect x="-81" width="972" fill="#ffffff" y="-80.999999" height="971.999992" fill-opacity="1"/><g clip-path="url(#8e7449dd61)"><path fill="#3c3738" d="M 112.496094 797.09375 C 111.734375 796.914062 109.945312 796.734375 108.519531 796.707031 C 107.089844 796.679688 105.117188 796.316406 104.136719 795.902344 C 102.742188 795.3125 100.488281 795.125 93.820312 795.046875 C 85.246094 794.945312 83.433594 794.648438 81.703125 793.078125 C 81.0625 792.5 79.734375 792.320312 75.703125 792.261719 C 69.261719 792.160156 67.527344 791.421875 64.710938 787.539062 C 63.652344 786.082031 62.207031 784.269531 61.492188 783.507812 C 60.78125 782.746094 59.683594 780.957031 59.054688 779.53125 C 58.425781 778.105469 57.199219 776.34375 56.332031 775.613281 C 54.355469 773.953125 53.417969 772.441406 53.050781 770.339844 C 52.871094 769.304688 51.894531 767.683594 50.410156 765.957031 C 47.878906 763.003906 46.777344 760.921875 46.777344 759.09375 C 46.777344 758.460938 46.144531 757.222656 45.371094 756.34375 C 44.003906 754.789062 40.777344 748.707031 40.082031 746.378906 C 39.894531 745.746094 39.144531 744.039062 38.414062 742.589844 C 37.6875 741.136719 37.089844 739.652344 37.089844 739.289062 C 37.089844 738.925781 36.398438 737.796875 35.554688 736.785156 C 34.707031 735.769531 33.757812 734.246094 33.445312 733.398438 C 33.132812 732.546875 32.457031 730.8125 31.9375 729.546875 C 31.417969 728.277344 30.730469 726.203125 30.40625 724.933594 C 30.082031 723.664062 29.585938 722.042969 29.300781 721.328125 C 29.019531 720.613281 28.496094 718.617188 28.136719 716.890625 C 27.777344 715.164062 26.84375 712.617188 26.0625 711.234375 C 25.28125 709.851562 24.640625 708.316406 24.640625 707.828125 C 24.640625 707.339844 24.132812 705.984375 23.511719 704.820312 C 22.890625 703.65625 22.253906 701.582031 22.09375 700.210938 C 21.933594 698.84375 21.382812 696.707031 20.871094 695.460938 C 20.359375 694.21875 19.933594 692.246094 19.921875 691.082031 C 19.910156 689.8125 19.464844 688.085938 18.8125 686.785156 C 18.214844 685.585938 17.722656 684.28125 17.722656 683.882812 C 17.722656 683.484375 17.277344 682.285156 16.730469 681.214844 C 15.722656 679.246094 15.25 676.609375 14.554688 669.128906 C 14.226562 665.59375 13.851562 664.296875 12.011719 660.386719 L 9.851562 655.796875 L 9.925781 649.054688 C 9.980469 643.613281 9.851562 642.03125 9.238281 640.855469 C 8.824219 640.050781 8.367188 638.40625 8.222656 637.195312 C 8.078125 635.988281 7.523438 633.960938 6.988281 632.691406 C 6.308594 631.082031 5.988281 629.273438 5.933594 626.695312 C 5.890625 624.480469 5.535156 622.179688 5.050781 620.929688 C 4.4375 619.332031 4.3125 618.050781 4.511719 615.363281 C 4.6875 612.960938 4.554688 611.171875 4.097656 609.640625 C 3.296875 606.972656 3.242188 604.535156 3.941406 602.535156 C 4.34375 601.378906 4.292969 600.425781 3.710938 598.105469 C 3.300781 596.476562 2.960938 594.253906 2.960938 593.164062 C 2.960938 592.074219 2.535156 589.855469 2.027344 588.234375 C 1.238281 585.707031 1.140625 584.464844 1.355469 579.585938 C 1.5 576.449219 1.808594 573.355469 2.054688 572.703125 C 2.761719 570.839844 2.589844 568.804688 1.371094 564.734375 C 0.378906 561.421875 0.257812 560.253906 0.398438 555.277344 C 0.515625 551.035156 0.757812 549.207031 1.355469 548.054688 C 1.972656 546.863281 2.089844 545.875 1.871094 543.710938 C 1.71875 542.171875 1.574219 537.773438 1.546875 533.933594 C 1.503906 527.746094 1.605469 526.746094 2.453125 525.09375 C 3.34375 523.347656 3.378906 522.835938 2.996094 516.703125 C 2.570312 509.914062 2.6875 508.890625 4.230469 505.847656 C 5.316406 503.707031 6.382812 494.367188 5.929688 490.953125 C 5.722656 489.398438 5.902344 488.078125 6.542969 486.242188 C 7.179688 484.429688 7.378906 482.9375 7.226562 481.097656 C 7.046875 478.957031 7.210938 478.121094 8.179688 476.273438 C 9.0625 474.585938 9.425781 473.023438 9.648438 469.917969 C 9.84375 467.207031 10.324219 464.859375 11.054688 463.066406 C 11.753906 461.347656 12.351562 458.515625 12.675781 455.425781 C 13.375 448.761719 13.398438 448.671875 14.964844 446.890625 C 16 445.710938 16.339844 444.863281 16.339844 443.484375 C 16.339844 440.417969 17.214844 436.800781 18.371094 435.078125 C 18.976562 434.183594 19.722656 432.046875 20.03125 430.332031 C 20.390625 428.351562 21.058594 426.582031 21.859375 425.476562 C 22.550781 424.519531 23.269531 422.925781 23.457031 421.933594 C 23.640625 420.945312 24.371094 418.980469 25.078125 417.566406 C 25.78125 416.15625 26.605469 413.964844 26.90625 412.695312 C 27.207031 411.429688 28.054688 409.351562 28.789062 408.085938 C 29.523438 406.816406 30.632812 404.71875 31.25 403.421875 C 31.875 402.117188 33.199219 400.402344 34.226562 399.578125 C 36.070312 398.097656 36.941406 396.40625 38.039062 392.175781 C 38.808594 389.199219 40.039062 386.992188 42.402344 384.328125 C 43.542969 383.046875 44.476562 381.769531 44.476562 381.496094 C 44.476562 380.519531 49.734375 372.71875 51.214844 371.496094 C 52.039062 370.816406 53.347656 369.382812 54.125 368.316406 C 54.898438 367.246094 56.355469 365.953125 57.355469 365.441406 C 58.359375 364.929688 59.949219 363.988281 60.886719 363.351562 C 64.53125 360.878906 70.515625 362.554688 73.148438 366.789062 C 73.941406 368.066406 74.742188 369.113281 74.929688 369.113281 C 75.117188 369.113281 75.265625 368.125 75.261719 366.921875 C 75.25 364.199219 76.964844 359.617188 78.605469 357.972656 C 79.285156 357.292969 80.738281 356.492188 81.835938 356.199219 C 83.183594 355.835938 84.679688 354.847656 86.46875 353.140625 C 90.144531 349.636719 95.078125 347.84375 100.742188 347.949219 C 102.898438 347.996094 105.703125 347.878906 106.972656 347.683594 C 108.582031 347.445312 109.753906 347.535156 110.859375 347.984375 C 112.710938 348.742188 116.367188 348.171875 120.179688 346.53125 C 122.195312 345.664062 123.199219 345.570312 129.691406 345.664062 C 136.527344 345.765625 137.046875 345.707031 138.664062 344.71875 C 140.519531 343.585938 143.796875 343.308594 145.371094 344.148438 C 145.867188 344.414062 148.011719 344.609375 150.140625 344.578125 C 153.515625 344.535156 154.328125 344.351562 156.46875 343.160156 C 159.09375 341.699219 161.320312 341.457031 163.703125 342.367188 C 164.816406 342.789062 165.539062 342.738281 167.46875 342.082031 C 169.746094 341.308594 169.976562 341.308594 172.558594 342.09375 C 174.699219 342.742188 175.648438 342.8125 177.09375 342.441406 C 178.09375 342.183594 181.816406 342.03125 185.355469 342.101562 C 190.234375 342.203125 192.1875 342.074219 193.425781 341.550781 C 194.660156 341.035156 195.789062 340.957031 198.058594 341.230469 C 201.03125 341.59375 209.074219 341.667969 213.507812 341.378906 C 214.777344 341.289062 217.164062 341.492188 218.8125 341.816406 C 220.460938 342.140625 222.929688 342.597656 224.300781 342.835938 C 226.257812 343.171875 227.511719 343.816406 230.136719 345.824219 C 234.925781 349.492188 235.808594 351.734375 234.011719 355.6875 C 233.359375 357.125 233.179688 358.1875 233.394531 359.328125 L 233.695312 360.941406 L 234.582031 359.835938 C 235.070312 359.230469 235.722656 358.183594 236.027344 357.511719 C 236.738281 355.941406 239.910156 351.390625 241.445312 349.726562 C 242.101562 349.019531 243.554688 348.175781 244.675781 347.855469 C 245.792969 347.539062 247.167969 346.871094 247.726562 346.375 C 248.710938 345.496094 252.9375 343.175781 257.992188 340.734375 C 259.378906 340.066406 261.175781 338.933594 261.988281 338.21875 C 262.800781 337.507812 264.261719 336.660156 265.234375 336.339844 C 266.207031 336.019531 267.914062 335.269531 269.03125 334.675781 C 270.148438 334.082031 271.332031 333.597656 271.660156 333.597656 C 272.378906 333.597656 276.34375 330.765625 278.699219 328.578125 C 280.460938 326.941406 282.765625 325.757812 284.191406 325.757812 C 284.652344 325.757812 285.917969 324.929688 287 323.921875 C 288.082031 322.914062 290.253906 321.472656 291.832031 320.71875 C 293.40625 319.96875 295.210938 318.800781 295.839844 318.128906 C 296.46875 317.453125 297.8125 316.480469 298.828125 315.960938 C 299.839844 315.4375 301.816406 313.996094 303.210938 312.746094 C 304.796875 311.328125 306.503906 310.277344 307.769531 309.933594 C 308.949219 309.617188 310.105469 308.933594 310.535156 308.296875 C 312.042969 306.082031 314.960938 303.066406 316.222656 302.414062 C 316.9375 302.042969 318.890625 300.503906 320.558594 298.988281 C 322.230469 297.476562 323.789062 296.238281 324.027344 296.238281 C 324.261719 296.238281 324.863281 295.296875 325.355469 294.144531 C 326.367188 291.777344 330.144531 287.570312 333.054688 285.566406 C 334.28125 284.71875 335.324219 283.488281 335.882812 282.222656 C 336.371094 281.125 337.535156 279.621094 338.46875 278.890625 C 339.40625 278.160156 340.574219 276.789062 341.0625 275.84375 C 342.179688 273.695312 347.828125 267.867188 349.203125 267.441406 C 349.894531 267.230469 350.386719 266.546875 350.710938 265.351562 C 351.1875 263.582031 352.992188 261.167969 358.449219 255.027344 C 360.039062 253.238281 361.824219 250.710938 362.417969 249.417969 C 363.011719 248.125 364.699219 245.835938 366.167969 244.328125 C 367.652344 242.808594 369.433594 240.359375 370.171875 238.820312 C 372.621094 233.726562 373.980469 231.808594 377.726562 228.152344 C 381.066406 224.890625 381.625 224.085938 383.199219 220.277344 C 384.164062 217.945312 385.347656 215.675781 385.835938 215.234375 C 386.320312 214.792969 387.164062 213.695312 387.707031 212.789062 C 388.253906 211.886719 389.441406 210.316406 390.34375 209.300781 C 392.0625 207.378906 394.070312 203.316406 394.960938 199.972656 C 395.25 198.898438 396.304688 197.070312 397.3125 195.910156 C 398.316406 194.746094 399.140625 193.511719 399.140625 193.167969 C 399.140625 192.824219 400.207031 191.375 401.511719 189.945312 C 403.667969 187.589844 404.023438 186.867188 405.414062 182.09375 C 407.09375 176.320312 409.125 171.894531 411.238281 169.40625 C 413.828125 166.355469 418.648438 157.648438 419.226562 154.96875 C 419.671875 152.933594 422.007812 148.386719 423.875 145.941406 C 424.730469 144.824219 425.4375 143.574219 425.445312 143.167969 C 425.453125 142.757812 425.96875 141.386719 426.59375 140.121094 C 427.214844 138.851562 427.730469 137.296875 427.738281 136.660156 C 427.746094 136.027344 428.472656 134.261719 429.355469 132.742188 C 430.242188 131.21875 431.394531 129.039062 431.917969 127.898438 C 432.441406 126.757812 433.355469 125.304688 433.949219 124.667969 C 434.542969 124.035156 435.238281 122.746094 435.492188 121.800781 C 435.746094 120.855469 436.359375 119.507812 436.855469 118.800781 C 437.347656 118.097656 437.871094 116.605469 438.015625 115.484375 C 438.160156 114.367188 438.710938 112.914062 439.238281 112.257812 C 440.402344 110.8125 441.425781 108.722656 441.769531 107.089844 C 441.914062 106.429688 442.855469 104.632812 443.878906 103.101562 C 444.90625 101.566406 446.023438 99.410156 446.367188 98.308594 C 447.117188 95.894531 450.664062 90.445312 452.351562 89.121094 C 453.15625 88.488281 453.566406 87.722656 453.566406 86.847656 C 453.566406 84.914062 454.328125 83.21875 456.066406 81.296875 C 456.910156 80.359375 457.867188 78.785156 458.191406 77.800781 C 458.511719 76.816406 459.042969 75.597656 459.363281 75.089844 C 459.683594 74.582031 460.191406 73.246094 460.484375 72.121094 C 461.003906 70.15625 462.164062 67.535156 464.277344 63.558594 C 464.816406 62.542969 465.808594 60.625 466.480469 59.289062 C 467.15625 57.957031 468.15625 56.386719 468.707031 55.800781 C 469.257812 55.214844 470.023438 53.714844 470.414062 52.460938 C 471.292969 49.640625 473.039062 47.089844 477.769531 41.734375 C 480.652344 38.472656 482.03125 37.296875 484.101562 36.339844 C 486.03125 35.449219 487.199219 34.503906 488.417969 32.847656 C 489.707031 31.089844 490.828125 30.21875 493.410156 28.980469 C 495.238281 28.097656 497.242188 26.835938 497.863281 26.171875 C 498.484375 25.503906 499.617188 24.648438 500.378906 24.261719 C 501.140625 23.878906 502.488281 22.890625 503.375 22.066406 C 506.273438 19.378906 510.15625 17.605469 513.753906 17.324219 C 516.207031 17.132812 517.683594 16.699219 519.902344 15.527344 C 521.800781 14.519531 523.464844 13.980469 524.65625 13.980469 C 525.667969 13.980469 527.507812 13.648438 528.75 13.242188 C 530.179688 12.773438 531.816406 12.59375 533.21875 12.746094 C 534.433594 12.878906 537.332031 13.191406 539.660156 13.433594 C 541.988281 13.679688 544.101562 14.011719 544.359375 14.171875 C 544.617188 14.332031 546.003906 14.679688 547.4375 14.945312 C 550.539062 15.519531 557.871094 18.921875 560.765625 21.128906 C 561.902344 21.996094 563.683594 23.242188 564.726562 23.902344 C 565.769531 24.558594 567.050781 25.824219 567.570312 26.707031 C 568.09375 27.59375 569.300781 28.714844 570.25 29.199219 C 572.4375 30.316406 574.234375 32.429688 574.640625 34.378906 C 574.816406 35.207031 575.527344 36.511719 576.21875 37.269531 C 576.910156 38.03125 578.375 39.996094 579.46875 41.636719 C 581.148438 44.144531 581.519531 45.128906 581.832031 47.863281 C 582.25 51.585938 583.601562 56.46875 584.839844 58.761719 C 585.679688 60.308594 585.695312 60.621094 585.445312 69.210938 C 585.433594 69.90625 585.546875 72.59375 585.734375 75.179688 C 586.03125 79.511719 585.972656 80.035156 585.015625 81.867188 C 584.042969 83.730469 583.996094 84.214844 584.28125 89.617188 C 584.507812 93.886719 584.398438 96.402344 583.886719 99.304688 C 583.5 101.460938 583.179688 104.539062 583.175781 106.144531 C 583.167969 108.972656 582.722656 111.429688 581.070312 117.753906 C 580.621094 119.472656 580.347656 121.929688 580.429688 123.515625 C 580.730469 129.316406 580.21875 132.964844 578.527344 137.121094 C 578.050781 138.300781 577.558594 141.0625 577.390625 143.515625 C 577.226562 145.890625 576.808594 148.933594 576.457031 150.277344 C 576.082031 151.726562 575.933594 153.648438 576.09375 155.007812 C 576.277344 156.574219 576.105469 158.050781 575.566406 159.691406 C 575.117188 161.046875 574.867188 162.824219 574.988281 163.789062 C 575.253906 165.855469 574.238281 172.089844 573.351562 173.875 C 572.96875 174.644531 572.789062 175.972656 572.910156 177.125 C 573.027344 178.199219 572.867188 179.753906 572.566406 180.585938 C 572.265625 181.414062 571.84375 183.230469 571.632812 184.628906 C 571.117188 188.007812 570.339844 190.859375 569.230469 193.4375 C 568.355469 195.464844 568.351562 195.628906 569.097656 197.089844 C 570.21875 199.25 569.832031 202.558594 568.207031 204.683594 C 567.25 205.941406 567.019531 206.640625 567.242188 207.644531 C 567.414062 208.4375 567.183594 210.027344 566.636719 211.667969 C 566.144531 213.15625 565.644531 215.730469 565.519531 217.386719 C 565.390625 219.195312 564.890625 221.195312 564.277344 222.398438 C 563.453125 224.011719 563.316406 224.824219 563.566406 226.636719 C 563.777344 228.164062 563.636719 229.578125 563.152344 231.082031 C 562.757812 232.292969 562.464844 234.011719 562.503906 234.898438 C 562.605469 237.386719 561.585938 243.96875 560.871094 245.386719 C 560.515625 246.085938 560.105469 247.894531 559.957031 249.402344 C 559.757812 251.425781 559.320312 252.667969 558.289062 254.128906 C 557.234375 255.621094 556.957031 256.433594 557.15625 257.421875 C 557.300781 258.140625 557.167969 259.542969 556.875 260.535156 C 556.578125 261.527344 556.171875 263.949219 555.976562 265.914062 C 555.667969 269.058594 555.363281 269.90625 553.429688 273.039062 C 551.378906 276.367188 551.257812 276.726562 551.578125 278.691406 C 552.265625 282.957031 552.085938 284.460938 550.632812 286.554688 C 548.75 289.269531 548.8125 289.160156 547.195312 292.765625 C 546.066406 295.289062 545.820312 296.351562 546.042969 297.699219 C 546.261719 298.980469 546.042969 300.105469 545.195312 302.097656 C 542.191406 309.160156 540.707031 313.671875 540.605469 316.070312 C 540.503906 318.382812 540.578125 318.59375 541.417969 318.445312 C 541.925781 318.359375 545.246094 318.289062 548.796875 318.292969 C 555.960938 318.300781 561.292969 319.128906 566.042969 320.972656 C 568.46875 321.914062 569.230469 322.027344 570.375 321.628906 C 572.398438 320.925781 575.34375 321.039062 576.933594 321.886719 C 580.078125 323.5625 581.496094 323.855469 582.90625 323.117188 C 584.746094 322.152344 588.652344 322.527344 590.308594 323.832031 C 591.011719 324.382812 592.167969 324.835938 592.875 324.835938 C 593.585938 324.835938 594.75 325.078125 595.464844 325.371094 C 596.296875 325.714844 600.773438 325.953125 607.894531 326.035156 C 616.15625 326.121094 619.425781 326.328125 620.578125 326.808594 C 621.511719 327.199219 623.902344 327.472656 626.570312 327.5 C 629.289062 327.527344 631.621094 327.800781 632.59375 328.207031 C 633.601562 328.625 635.046875 328.785156 636.546875 328.640625 C 639.640625 328.34375 640.714844 328.652344 643.050781 330.5 L 644.992188 332.035156 L 651.617188 332.109375 C 656.671875 332.152344 658.667969 332.355469 660.019531 332.941406 C 662.316406 333.9375 667.660156 334.988281 670.410156 334.992188 C 671.597656 334.992188 673.15625 335.214844 673.871094 335.492188 C 674.582031 335.769531 677.585938 336.078125 680.539062 336.183594 C 683.957031 336.300781 686.96875 336.691406 688.839844 337.25 C 690.453125 337.730469 693.433594 338.242188 695.460938 338.382812 C 697.492188 338.53125 700.8125 339.085938 702.84375 339.625 C 705.585938 340.351562 708.34375 340.648438 713.597656 340.785156 C 717.488281 340.886719 720.910156 341.128906 721.210938 341.320312 C 721.507812 341.511719 724.554688 341.785156 727.976562 341.929688 C 733.121094 342.148438 734.539062 342.371094 736.121094 343.191406 C 737.726562 344.027344 738.511719 344.144531 740.992188 343.914062 C 743.417969 343.6875 744.351562 343.8125 746.171875 344.617188 C 747.390625 345.15625 749.140625 345.597656 750.058594 345.601562 C 751.144531 345.601562 752.460938 346.085938 753.804688 346.980469 C 755.300781 347.976562 756.433594 348.363281 757.859375 348.363281 C 758.945312 348.363281 760.605469 348.75 761.546875 349.222656 C 762.488281 349.691406 764.039062 350.199219 764.992188 350.347656 C 765.949219 350.496094 767.304688 351.023438 768.007812 351.527344 C 768.710938 352.027344 770.007812 352.578125 770.882812 352.75 C 773.953125 353.347656 779.332031 356.371094 780.324219 358.054688 C 780.832031 358.914062 782.957031 361.300781 785.050781 363.355469 C 787.144531 365.410156 788.855469 367.332031 788.855469 367.628906 C 788.855469 367.921875 789.453125 368.847656 790.183594 369.679688 C 792.144531 371.921875 795.675781 378.101562 796.550781 380.816406 C 796.96875 382.121094 797.777344 383.753906 798.347656 384.441406 C 799.773438 386.171875 800.542969 388.730469 800.222656 390.6875 C 800.007812 392.023438 800.253906 392.804688 801.546875 394.90625 C 803.425781 397.957031 803.511719 398.949219 802.691406 408.09375 C 801.957031 416.308594 802 418.074219 802.984375 419.945312 C 803.972656 421.828125 804.070312 426.957031 803.148438 428.617188 C 802.796875 429.25 802.371094 431.066406 802.199219 432.65625 C 801.988281 434.613281 801.5 436.128906 800.675781 437.371094 C 799.785156 438.71875 799.464844 439.796875 799.464844 441.449219 C 799.464844 443.230469 799.167969 444.105469 798.035156 445.667969 C 797.253906 446.75 796.390625 448.285156 796.121094 449.082031 C 795.855469 449.875 794.734375 451.738281 793.628906 453.222656 C 792.527344 454.703125 791.609375 456.15625 791.589844 456.449219 C 791.574219 456.742188 791.472656 458.21875 791.371094 459.726562 C 791.191406 462.398438 791.222656 462.511719 792.804688 463.8125 C 794.53125 465.234375 797.160156 469.902344 797.160156 471.542969 C 797.160156 472.113281 798.019531 473.339844 799.191406 474.441406 C 800.308594 475.492188 801.550781 477.011719 801.957031 477.820312 C 802.355469 478.628906 803.074219 479.566406 803.550781 479.898438 C 805.339844 481.152344 806.378906 483.59375 806.378906 486.554688 C 806.378906 488.109375 806.691406 490.261719 807.074219 491.339844 C 807.453125 492.417969 807.765625 494.128906 807.765625 495.136719 C 807.765625 496.144531 808.058594 498.144531 808.414062 499.574219 C 809.519531 504.027344 809.75 509.277344 808.9375 511.574219 C 808.546875 512.6875 808.222656 514.554688 808.21875 515.726562 C 808.21875 516.964844 807.773438 518.8125 807.164062 520.128906 C 806.265625 522.070312 806.175781 522.710938 806.546875 524.519531 C 806.917969 526.332031 806.832031 526.9375 805.953125 528.707031 C 803.414062 533.8125 802.328125 535.699219 801.25 536.882812 C 800.613281 537.582031 799.714844 538.757812 799.253906 539.496094 C 798.792969 540.234375 797.644531 541.6875 796.699219 542.726562 C 795.753906 543.761719 794.726562 545.378906 794.421875 546.324219 C 793.796875 548.253906 792.898438 549.242188 787.582031 553.832031 C 785.527344 555.609375 783.832031 557.292969 783.8125 557.578125 C 783.800781 557.859375 784.1875 558.605469 784.683594 559.238281 C 785.179688 559.867188 786.320312 562.058594 787.21875 564.101562 C 788.511719 567.039062 788.855469 568.414062 788.855469 570.65625 C 788.855469 572.21875 789.066406 573.890625 789.324219 574.375 C 790.210938 576.027344 790.632812 579.664062 791.007812 588.886719 C 791.648438 604.605469 791.554688 607.5 790.304688 610.371094 C 788.71875 614.003906 786.558594 618.667969 785.773438 620.152344 C 785.316406 621.011719 785.191406 622.023438 785.386719 623.207031 C 785.816406 625.730469 784.699219 628.046875 781.472656 631.316406 C 779.585938 633.230469 778.25 635.164062 777.132812 637.585938 C 775.523438 641.074219 772.578125 644.25 769.484375 645.828125 C 768.847656 646.152344 767.65625 647.054688 766.832031 647.835938 C 765.488281 649.109375 765.332031 649.519531 765.339844 651.816406 C 765.339844 653.226562 765.660156 655.828125 766.042969 657.605469 C 766.464844 659.578125 766.625 661.75 766.449219 663.1875 C 766.21875 665.105469 766.4375 666.308594 767.59375 669.699219 C 769.503906 675.257812 769.765625 677.46875 768.875 680.507812 C 767.65625 684.65625 767.613281 686.742188 768.675781 689.519531 C 769.542969 691.785156 769.582031 692.265625 769.050781 694.320312 C 768.730469 695.578125 768.605469 697.160156 768.777344 697.835938 C 768.945312 698.515625 768.863281 700.324219 768.597656 701.859375 C 768.328125 703.394531 768.003906 705.382812 767.871094 706.28125 C 767.742188 707.179688 766.71875 709.464844 765.609375 711.355469 C 764.199219 713.75 763.347656 715.917969 762.804688 718.484375 C 761.324219 725.523438 761.265625 725.644531 758.351562 728.339844 C 756.84375 729.734375 754.707031 732.132812 753.601562 733.671875 C 752.5 735.210938 751.035156 736.992188 750.351562 737.625 C 749.671875 738.261719 748.597656 739.863281 747.96875 741.191406 C 746.714844 743.835938 744.214844 746.191406 742.191406 746.636719 C 741.476562 746.792969 740.734375 747.164062 740.542969 747.460938 C 740.035156 748.25 735.640625 751.074219 731.664062 753.164062 C 726.332031 755.96875 720.378906 759.53125 715.089844 763.085938 C 710.425781 766.21875 710.203125 766.3125 707.964844 766.097656 C 705.738281 765.886719 705.574219 765.953125 703.570312 767.898438 C 701.617188 769.796875 699.421875 770.824219 697.304688 770.828125 C 696.796875 770.828125 695.136719 771.4375 693.613281 772.179688 C 690.484375 773.703125 686.3125 774.800781 680.238281 775.6875 C 677.632812 776.070312 675.144531 776.769531 673.550781 777.566406 C 671.792969 778.449219 669.953125 778.929688 667.554688 779.136719 C 665.59375 779.308594 663.125 779.875 661.847656 780.449219 C 659.933594 781.304688 658.5625 781.484375 652.625 781.632812 C 646.035156 781.800781 645.460938 781.890625 642.316406 783.246094 C 639.34375 784.523438 638.566406 784.667969 635.167969 784.558594 C 631.589844 784.441406 631.222656 784.527344 629.308594 785.820312 C 627.582031 786.992188 626.796875 787.214844 624.179688 787.261719 C 622.484375 787.292969 620.082031 787.640625 618.84375 788.03125 C 616.796875 788.671875 607.386719 789.464844 603.472656 789.324219 C 602.597656 789.292969 600.9375 789.5625 599.78125 789.925781 C 598.257812 790.40625 595.609375 790.558594 590.113281 790.492188 C 582.992188 790.40625 582.421875 790.464844 580.429688 791.480469 C 578.640625 792.390625 577.902344 792.511719 575.679688 792.261719 C 574.085938 792.078125 572.410156 792.171875 571.417969 792.5 C 570.117188 792.929688 569.324219 792.90625 567.523438 792.371094 C 565.613281 791.8125 564.082031 791.792969 557.691406 792.253906 C 553.527344 792.554688 549.832031 792.980469 549.476562 793.199219 C 548.6875 793.6875 493.855469 793.820312 492.425781 793.34375 C 491.8125 793.136719 490.605469 793.285156 489.425781 793.699219 C 487.789062 794.28125 486.972656 794.308594 484.59375 793.863281 C 482.339844 793.441406 481.234375 793.457031 479.390625 793.9375 C 477.492188 794.421875 476.675781 794.425781 475.101562 793.953125 C 472.582031 793.199219 465.453125 792.390625 460.472656 792.289062 C 458.316406 792.246094 455.757812 791.945312 454.789062 791.621094 C 453.761719 791.273438 452.320312 791.152344 451.332031 791.328125 C 446.414062 792.203125 445.421875 792.15625 443.121094 790.929688 C 440.464844 789.515625 440.269531 789.503906 437.355469 790.539062 C 435.191406 791.304688 435.003906 791.304688 432.910156 790.480469 C 431.449219 789.910156 429.195312 789.578125 426.113281 789.480469 C 423.574219 789.394531 419.113281 789.257812 416.195312 789.167969 C 410.136719 788.980469 405.265625 788.21875 403.171875 787.136719 C 402.027344 786.542969 401.109375 786.464844 398.703125 786.75 C 394.585938 787.234375 393.421875 787.140625 391.652344 786.1875 C 390.789062 785.722656 388.546875 785.238281 386.449219 785.0625 C 375.652344 784.160156 371.546875 783.601562 369.671875 782.777344 C 368.515625 782.269531 366.609375 781.890625 365.226562 781.890625 C 363.792969 781.890625 361.972656 781.519531 360.785156 780.980469 C 359.679688 780.476562 358.234375 780.0625 357.574219 780.054688 C 356.910156 780.046875 355.199219 779.421875 353.769531 778.660156 C 351.375 777.378906 350.925781 777.296875 348.035156 777.5625 C 345.378906 777.808594 344.605469 777.707031 342.976562 776.875 C 341.921875 776.335938 340.375 775.886719 339.539062 775.875 C 338.703125 775.863281 337.191406 775.535156 336.175781 775.144531 C 335.164062 774.753906 333.199219 774.234375 331.816406 773.992188 C 330.433594 773.746094 329.0625 773.351562 328.773438 773.109375 C 328.484375 772.871094 326.5 772.242188 324.371094 771.71875 C 321.902344 771.109375 319.910156 770.300781 318.882812 769.484375 C 316.382812 767.503906 315.4375 767.132812 312.886719 767.132812 C 310.191406 767.132812 309.21875 766.71875 306.75 764.511719 C 305.023438 762.96875 304.953125 762.949219 302.140625 763.308594 C 296.359375 764.050781 294.414062 763.828125 292.089844 762.152344 C 290.253906 760.828125 286.914062 759.871094 283.785156 759.765625 C 283.636719 759.753906 283.53125 761.050781 283.554688 762.636719 C 283.585938 765.027344 283.335938 766.050781 282.050781 768.648438 C 280.761719 771.261719 279.960938 772.191406 277.210938 774.277344 C 271.484375 778.617188 271.132812 778.972656 271.785156 779.753906 C 272.617188 780.753906 270.757812 781.851562 267.375 782.351562 C 265.898438 782.570312 263.867188 783.179688 262.859375 783.707031 C 261.851562 784.234375 260.160156 784.660156 259.078125 784.660156 C 258.003906 784.660156 255.992188 784.953125 254.613281 785.3125 C 252.910156 785.757812 251.542969 785.84375 250.367188 785.578125 C 249.105469 785.292969 248.136719 785.382812 246.820312 785.910156 C 245.824219 786.308594 243.144531 787.082031 240.859375 787.628906 C 237.398438 788.457031 236.230469 788.550781 233.800781 788.1875 C 231.121094 787.785156 230.75 787.839844 229.109375 788.855469 C 227.585938 789.804688 226.703125 789.972656 222.949219 790.027344 C 220.539062 790.058594 217.011719 790.453125 215.105469 790.890625 C 209.628906 792.160156 209.28125 792.179688 207.082031 791.339844 C 204.808594 790.472656 202.050781 790.644531 199.203125 791.832031 C 198.339844 792.195312 196.324219 792.492188 194.726562 792.496094 C 186.230469 792.507812 175.671875 793.589844 172.28125 794.792969 C 170.007812 795.597656 168.914062 795.753906 167.4375 795.476562 C 164.4375 794.914062 161.140625 794.988281 158.308594 795.679688 C 156.585938 796.097656 154.863281 796.199219 153.234375 795.976562 C 149.882812 795.515625 148.429688 795.542969 142.007812 796.183594 C 135.234375 796.863281 123.394531 797.136719 120.511719 796.683594 C 119.34375 796.5 117.996094 796.488281 117.515625 796.652344 C 115.847656 797.246094 113.867188 797.417969 112.488281 797.085938 Z M 525.28125 775.683594 C 527.683594 775.613281 530.109375 775.265625 531.042969 774.863281 C 532.3125 774.316406 534.199219 774.199219 539.808594 774.3125 C 552.621094 774.578125 554.714844 774.554688 561.015625 774.0625 C 565.246094 773.734375 567.664062 773.726562 568.582031 774.046875 C 570.59375 774.75 571.535156 774.632812 574.167969 773.34375 C 576.050781 772.421875 577.199219 772.183594 579.515625 772.238281 C 589.214844 772.453125 590.941406 772.25 594.40625 770.507812 C 600.085938 767.644531 603.722656 766.570312 608.066406 766.46875 C 611.894531 766.382812 612.027344 766.339844 613.71875 764.710938 C 615.035156 763.441406 615.980469 762.972656 617.640625 762.753906 C 618.84375 762.59375 621.050781 761.855469 622.542969 761.109375 C 624.761719 760.007812 625.863281 759.753906 628.539062 759.738281 C 630.363281 759.726562 632.636719 759.398438 633.664062 759 C 634.679688 758.605469 636.753906 757.960938 638.277344 757.570312 C 639.796875 757.179688 641.816406 756.464844 642.753906 755.984375 C 643.695312 755.5 645.566406 754.984375 646.90625 754.832031 C 648.378906 754.667969 650.441406 753.960938 652.113281 753.039062 C 653.632812 752.203125 655.917969 751.265625 657.1875 750.957031 C 658.453125 750.648438 660.945312 749.621094 662.722656 748.675781 C 664.496094 747.726562 666.988281 746.582031 668.253906 746.128906 C 669.523438 745.679688 671.078125 744.839844 671.714844 744.261719 C 673.046875 743.054688 674.996094 742.234375 676.535156 742.234375 C 677.125 742.234375 680.195312 740.671875 683.351562 738.765625 C 687.820312 736.070312 689.59375 735.25 691.339844 735.074219 C 692.84375 734.921875 693.964844 734.484375 694.753906 733.742188 C 695.402344 733.136719 697.367188 731.945312 699.128906 731.09375 C 701.238281 730.078125 702.574219 729.101562 703.050781 728.234375 C 704.449219 725.683594 705.417969 724.769531 707.578125 723.972656 C 708.78125 723.527344 710.257812 722.566406 710.855469 721.835938 C 711.457031 721.101562 713.089844 719.859375 714.484375 719.070312 C 716.375 718.003906 717.1875 717.214844 717.667969 715.984375 C 718.871094 712.898438 719.902344 711.183594 721.886719 708.980469 C 723.144531 707.578125 724.128906 705.886719 724.589844 704.328125 C 724.992188 702.980469 725.882812 701.152344 726.570312 700.265625 C 728.304688 698.035156 729.683594 694.894531 730.027344 692.398438 C 730.277344 690.589844 730.054688 689.71875 728.457031 686.109375 C 727.433594 683.804688 726.597656 681.695312 726.597656 681.417969 C 726.597656 680.699219 724.882812 679.671875 721.480469 678.347656 C 719.332031 677.511719 717.941406 676.570312 716.382812 674.894531 C 714.777344 673.171875 713.902344 672.589844 712.921875 672.589844 C 711.257812 672.589844 708.980469 671.207031 707.636719 669.390625 C 706.316406 667.605469 705.515625 667.617188 702.507812 669.476562 C 700.277344 670.851562 699.753906 670.976562 696.15625 671 C 693.335938 671.015625 691.71875 671.265625 690.390625 671.886719 C 688.929688 672.570312 687.222656 672.777344 682.164062 672.886719 C 678.652344 672.960938 674.605469 673.238281 673.171875 673.5 C 671.734375 673.757812 668.234375 674.054688 665.394531 674.15625 C 660.878906 674.316406 660.035156 674.476562 658.707031 675.425781 C 657.378906 676.371094 656.625 676.515625 652.804688 676.554688 C 650.394531 676.582031 647.414062 676.84375 646.179688 677.144531 C 643.851562 677.710938 634.46875 678.226562 624.902344 678.308594 C 620.917969 678.339844 618.914062 678.5625 617.75 679.089844 C 614.964844 680.355469 612.832031 680.539062 610.109375 679.746094 C 607.832031 679.085938 607.359375 679.082031 605.207031 679.71875 C 603.898438 680.109375 601.851562 680.425781 600.660156 680.425781 C 599.46875 680.425781 597.730469 680.746094 596.796875 681.136719 C 595.496094 681.679688 594.277344 681.769531 591.574219 681.523438 C 588.332031 681.230469 586.601562 680.824219 577.480469 678.203125 C 575.753906 677.707031 573.941406 677.402344 573.453125 677.53125 C 571.507812 678.039062 569.421875 677.140625 566.3125 674.449219 C 564.574219 672.945312 562.785156 671.03125 562.335938 670.191406 C 560.808594 667.320312 561.484375 661.835938 563.769531 658.570312 C 564.5 657.527344 565.234375 656 565.40625 655.171875 C 565.949219 652.5 567.890625 651.109375 572.582031 650.03125 C 577.597656 648.875 582.238281 648.796875 586.09375 649.804688 C 588.164062 650.34375 589.675781 650.449219 591.695312 650.191406 C 593.21875 649.996094 596.539062 649.804688 599.074219 649.769531 C 601.609375 649.726562 604.269531 649.453125 604.984375 649.152344 C 605.699219 648.851562 607.054688 648.601562 608 648.601562 C 608.945312 648.601562 610.53125 648.1875 611.527344 647.679688 C 613.726562 646.558594 614.605469 646.53125 617.324219 647.507812 C 619.421875 648.261719 619.4375 648.257812 624.007812 646.59375 C 629.703125 644.523438 633.898438 643.554688 636.894531 643.625 C 639.097656 643.683594 641.238281 643.101562 645.949219 641.191406 C 647.125 640.714844 649.304688 640.191406 650.792969 640.035156 C 652.28125 639.878906 654.535156 639.378906 655.804688 638.929688 C 657.074219 638.480469 659.960938 637.960938 662.222656 637.773438 C 664.488281 637.589844 667.160156 637.148438 668.164062 636.792969 C 669.164062 636.441406 670.386719 636.152344 670.878906 636.152344 C 671.371094 636.152344 672.550781 635.523438 673.503906 634.757812 C 674.648438 633.839844 676.097656 633.21875 677.746094 632.9375 C 679.121094 632.707031 681.078125 632.078125 682.09375 631.542969 C 683.578125 630.761719 684.433594 630.625 686.472656 630.839844 C 688.609375 631.066406 689.371094 630.925781 691.28125 629.941406 C 692.527344 629.296875 693.910156 628.773438 694.355469 628.773438 C 694.800781 628.773438 696.679688 628.046875 698.53125 627.15625 C 700.527344 626.199219 702.601562 625.542969 703.625 625.542969 C 704.574219 625.542969 706.402344 625.128906 707.691406 624.621094 C 708.976562 624.113281 711.019531 623.699219 712.226562 623.699219 C 714.132812 623.699219 714.632812 623.484375 715.984375 622.09375 C 717.910156 620.105469 720.046875 619.359375 722.6875 619.753906 C 725.082031 620.113281 726.808594 619.371094 728.300781 617.339844 C 729.546875 615.648438 732.804688 614.015625 734.929688 614.011719 C 735.804688 614.011719 737.171875 613.609375 737.976562 613.121094 C 738.777344 612.628906 740.335938 611.964844 741.433594 611.644531 C 744.191406 610.835938 748.523438 607.816406 749.121094 606.285156 C 749.394531 605.589844 749.847656 604.121094 750.128906 603.019531 C 750.425781 601.859375 751.375 600.210938 752.390625 599.097656 C 753.351562 598.042969 754.371094 596.738281 754.652344 596.199219 C 755.378906 594.808594 756.179688 585.648438 755.691406 584.355469 C 755.167969 582.980469 749.414062 578.273438 747.078125 577.308594 C 744.636719 576.300781 743.695312 575.390625 742.699219 573.082031 C 742.234375 572.003906 741.585938 571.136719 741.257812 571.15625 C 740.933594 571.171875 739.214844 571.453125 737.4375 571.769531 C 735.585938 572.097656 733.53125 572.191406 732.625 571.992188 C 730.804688 571.589844 729.875 571.976562 727.433594 574.160156 C 725.644531 575.757812 723.289062 576.46875 721.171875 576.050781 C 718.796875 575.578125 707.554688 576.746094 706.304688 577.597656 C 705.671875 578.027344 704.710938 578.515625 704.167969 578.6875 C 702.308594 579.261719 695.460938 579.957031 689.855469 580.140625 C 686.71875 580.242188 682.226562 580.738281 679.664062 581.269531 C 677.140625 581.792969 673.4375 582.210938 671.4375 582.203125 C 651.984375 582.117188 620.496094 582.605469 619.285156 583.007812 C 617.804688 583.496094 616.003906 583.257812 613.40625 582.226562 C 612.550781 581.886719 610.941406 581.800781 609.015625 581.992188 C 606.882812 582.203125 605.277344 582.078125 603.644531 581.597656 C 602.042969 581.125 599.917969 580.960938 596.835938 581.074219 C 593.207031 581.207031 591.925781 581.074219 590.085938 580.347656 C 588.046875 579.546875 587.414062 579.503906 583.925781 579.957031 C 580.59375 580.386719 579.707031 580.347656 577.695312 579.679688 C 576.402344 579.25 573.589844 578.613281 571.445312 578.265625 C 569.296875 577.917969 566.878906 577.257812 566.066406 576.800781 C 565.257812 576.339844 564.152344 575.710938 563.617188 575.398438 C 563.078125 575.082031 562.300781 574.824219 561.886719 574.820312 C 561.476562 574.820312 560.378906 574.5 559.453125 574.109375 C 558.222656 573.597656 556.984375 573.488281 554.859375 573.707031 C 551.171875 574.082031 549.507812 573.351562 545.832031 569.730469 C 543.726562 567.660156 543.089844 566.699219 542.890625 565.300781 C 541.808594 557.753906 541.867188 557.207031 543.980469 554.800781 C 546.1875 552.285156 549.390625 550.542969 553.808594 549.449219 C 557.167969 548.621094 558.238281 548.527344 559.824219 548.925781 C 561.304688 549.296875 562.351562 549.253906 564.351562 548.730469 C 566.714844 548.113281 567.160156 548.125 569.179688 548.847656 C 571.570312 549.695312 572.082031 549.746094 582.277344 550.183594 C 588.535156 550.453125 589.132812 550.40625 590.914062 549.496094 C 593.375 548.238281 601.003906 547.609375 612.679688 547.695312 C 620.253906 547.753906 621.566406 547.652344 624.371094 546.761719 C 627.894531 545.648438 630.257812 545.507812 632.46875 546.277344 C 633.777344 546.734375 634.332031 546.617188 637.191406 545.300781 C 639.992188 544.007812 640.726562 543.851562 642.582031 544.140625 C 645.03125 544.519531 645.976562 544.527344 651.417969 544.210938 C 653.597656 544.082031 656.160156 543.636719 657.183594 543.199219 C 658.519531 542.628906 660.554688 542.382812 664.5625 542.308594 C 667.675781 542.25 670.703125 541.957031 671.480469 541.636719 C 672.398438 541.257812 673.90625 541.164062 675.953125 541.359375 C 678.296875 541.585938 679.371094 541.488281 680.425781 540.9375 C 681.976562 540.136719 684.90625 540 686.609375 540.648438 C 687.511719 540.992188 688.34375 540.75 690.832031 539.460938 C 693.117188 538.265625 694.734375 537.773438 697.003906 537.582031 C 701.265625 537.21875 706.257812 537.382812 707.972656 537.941406 C 709.125 538.316406 709.890625 538.222656 711.796875 537.472656 C 713.105469 536.957031 714.742188 536.523438 715.429688 536.511719 C 716.117188 536.503906 717.511719 536.175781 718.527344 535.789062 C 721.898438 534.5 728.539062 532.859375 731.625 532.550781 C 733.296875 532.378906 735.394531 531.859375 736.277344 531.390625 C 737.160156 530.921875 738.203125 530.539062 738.59375 530.539062 C 739.402344 530.539062 743.121094 527.832031 746.53125 524.765625 C 747.800781 523.628906 749.132812 522.695312 749.496094 522.695312 C 750.558594 522.695312 754.648438 518.589844 755.929688 516.238281 C 756.582031 515.039062 757.789062 513.683594 758.632812 513.199219 C 760.542969 512.097656 764.167969 508.089844 764.644531 506.554688 C 764.839844 505.917969 765.382812 504.855469 765.851562 504.191406 C 767.828125 501.382812 770.003906 496.175781 769.789062 494.761719 C 769.578125 493.378906 768.273438 491.0625 766.199219 488.390625 C 765.632812 487.660156 764.410156 485.890625 763.484375 484.460938 C 761.199219 480.921875 758.941406 478.421875 758.027344 478.414062 C 756.164062 478.398438 753.660156 476.316406 752.207031 473.578125 C 751.398438 472.054688 750.398438 470.1875 749.984375 469.425781 C 749.570312 468.667969 749.109375 467.449219 748.960938 466.722656 C 748.710938 465.492188 748.589844 465.425781 747.214844 465.773438 C 746.402344 465.980469 744.183594 466.1875 742.28125 466.238281 C 740.375 466.28125 738.09375 466.558594 737.210938 466.839844 C 734.953125 467.558594 732.847656 467.480469 729.964844 466.570312 C 727.578125 465.816406 727.429688 465.824219 726.003906 466.6875 C 724.800781 467.414062 723.613281 467.589844 719.679688 467.621094 C 717.015625 467.636719 712.453125 467.902344 709.535156 468.195312 C 706.617188 468.484375 701.949219 468.953125 699.15625 469.226562 C 696.367188 469.503906 691.074219 469.804688 687.394531 469.894531 C 683.71875 469.984375 678.738281 470.277344 676.328125 470.542969 C 666.164062 471.65625 660.765625 472.109375 659.03125 471.992188 C 658.015625 471.917969 656.460938 471.890625 655.570312 471.933594 C 654.683594 471.960938 652.195312 472.050781 650.039062 472.113281 C 647.882812 472.171875 645.191406 472.5 644.0625 472.832031 C 642.609375 473.257812 640.714844 473.34375 637.585938 473.121094 C 634.898438 472.929688 632.445312 472.988281 631.339844 473.285156 C 630.335938 473.550781 625.777344 473.871094 621.214844 473.996094 C 616.648438 474.128906 611.355469 474.347656 609.453125 474.492188 C 605.738281 474.785156 605.011719 474.804688 595.847656 474.863281 C 573.339844 475.015625 561.546875 474.28125 555.574219 472.363281 C 554.730469 472.09375 552.65625 471.8125 550.960938 471.742188 C 544.605469 471.476562 536.730469 469.875 536.117188 468.726562 C 535.628906 467.816406 536.730469 465.96875 537.761719 465.96875 C 538.601562 465.96875 538.597656 465.566406 537.730469 463.503906 C 536.042969 459.464844 537.222656 456.238281 541.34375 453.601562 C 548.570312 448.980469 550.511719 448.339844 553.453125 449.609375 C 554.445312 450.035156 556.210938 450.359375 557.375 450.332031 C 558.539062 450.300781 560.34375 450.578125 561.390625 450.949219 C 563.582031 451.71875 564.96875 451.449219 568.054688 449.640625 C 569.6875 448.6875 570.699219 448.445312 573.089844 448.445312 C 575.238281 448.445312 576.90625 448.109375 578.988281 447.261719 C 581.222656 446.355469 582.542969 446.113281 584.71875 446.207031 C 586.835938 446.296875 588.058594 446.09375 589.617188 445.351562 C 591.515625 444.453125 592.460938 444.367188 600.683594 444.371094 C 606.078125 444.371094 610.199219 444.171875 610.976562 443.875 C 611.691406 443.597656 613.402344 443.371094 614.777344 443.371094 C 616.152344 443.371094 618.882812 442.929688 620.839844 442.394531 C 623.484375 441.667969 625.214844 441.472656 627.554688 441.640625 C 630.042969 441.816406 631.0625 441.683594 632.394531 441.003906 C 633.324219 440.53125 634.820312 440.140625 635.71875 440.136719 C 636.617188 440.136719 638.699219 439.898438 640.351562 439.609375 C 642 439.320312 645.421875 439.046875 647.960938 439.003906 C 653.988281 438.902344 657.777344 438.34375 659.488281 437.300781 C 660.542969 436.65625 661.808594 436.453125 664.792969 436.453125 C 669.773438 436.453125 675.753906 435.328125 676.996094 434.167969 C 678.550781 432.710938 680.488281 432.210938 683.304688 432.539062 C 685.539062 432.796875 686.320312 432.65625 688.839844 431.5625 C 690.847656 430.6875 692.683594 430.25 694.648438 430.1875 C 698.488281 430.054688 702.027344 429.175781 703.988281 427.851562 C 705.15625 427.0625 706.238281 426.769531 707.972656 426.769531 C 709.359375 426.769531 711.191406 426.386719 712.363281 425.855469 C 713.808594 425.199219 715.390625 424.941406 718.003906 424.933594 C 721.371094 424.925781 721.882812 424.789062 724.992188 423.070312 C 727.4375 421.722656 729.203125 421.109375 731.507812 420.808594 C 735.160156 420.332031 737.871094 419.296875 739.507812 417.757812 C 740.976562 416.375 745.386719 414.417969 747.925781 414.019531 C 750.867188 413.554688 751.855469 412.667969 753.660156 408.867188 C 755.238281 405.542969 758.730469 401.449219 761.628906 399.527344 L 762.71875 398.804688 L 761.492188 394.136719 C 760.816406 391.570312 760.265625 388.882812 760.265625 388.160156 C 760.265625 387.441406 759.015625 384.386719 757.492188 381.367188 C 754.765625 375.976562 754.726562 375.835938 755.011719 373.039062 L 755.304688 370.195312 L 752.597656 369.234375 C 746.84375 367.199219 745.183594 366.722656 742.507812 366.34375 C 740.988281 366.128906 737.863281 365.320312 735.566406 364.550781 C 732.320312 363.460938 730.679688 363.167969 728.1875 363.230469 C 725.929688 363.289062 724.546875 363.078125 723.507812 362.523438 C 722.578125 362.03125 720.980469 361.738281 719.210938 361.738281 C 717.660156 361.738281 716.023438 361.542969 715.578125 361.304688 C 715.132812 361.066406 713.019531 360.789062 710.882812 360.6875 C 708.171875 360.558594 706.4375 360.222656 705.152344 359.566406 C 703.6875 358.824219 702.828125 358.691406 701 358.929688 C 697.820312 359.347656 695.289062 358.738281 693.441406 357.117188 C 692 355.847656 691.613281 355.742188 688.324219 355.742188 C 686.367188 355.742188 684.144531 355.527344 683.386719 355.261719 C 682.484375 354.945312 681.347656 354.929688 680.089844 355.21875 C 678.882812 355.488281 677.527344 355.484375 676.441406 355.207031 C 675.488281 354.960938 672.382812 354.613281 669.535156 354.429688 C 665.246094 354.152344 664.121094 353.921875 662.980469 353.074219 C 661.832031 352.226562 661.035156 352.0625 658.207031 352.105469 C 655.574219 352.148438 654.304688 351.921875 652.542969 351.105469 C 650.914062 350.355469 648.894531 349.953125 645.425781 349.691406 C 638.566406 349.171875 635.097656 348.574219 633.71875 347.667969 C 632.691406 346.996094 631.761719 346.929688 627.097656 347.191406 C 618.390625 347.675781 618.148438 347.671875 614.523438 346.847656 C 612.621094 346.414062 610.386719 346.0625 609.5625 346.0625 C 608.734375 346.0625 606.140625 345.628906 603.796875 345.105469 C 601.347656 344.554688 598.847656 344.257812 597.921875 344.410156 C 595.351562 344.828125 586.4375 343.335938 584.3125 342.136719 C 582.832031 341.296875 581.476562 341.039062 577.394531 340.820312 C 568.136719 340.316406 567.257812 340.226562 566.175781 339.648438 C 565.585938 339.332031 563.917969 339.011719 562.472656 338.941406 C 561.023438 338.867188 559.128906 338.441406 558.257812 337.992188 C 557.136719 337.414062 555.765625 337.199219 553.546875 337.253906 C 550.105469 337.339844 549.316406 337.046875 546.753906 334.730469 C 543.824219 332.085938 542.816406 331.734375 540.332031 332.488281 C 537.390625 333.382812 531.980469 333.332031 529.625 332.386719 C 528.457031 331.921875 527.203125 330.910156 526.382812 329.773438 C 525.644531 328.757812 524.316406 327.429688 523.429688 326.828125 C 521.953125 325.824219 521.820312 325.546875 521.820312 323.421875 C 521.820312 321.21875 521.75 321.078125 520.222656 320.441406 C 518.046875 319.53125 517.671875 319.59375 517.671875 320.863281 C 517.671875 321.464844 517.222656 322.519531 516.679688 323.214844 C 515.882812 324.226562 515.429688 324.421875 514.375 324.210938 C 513.144531 323.964844 513.058594 324.046875 513.050781 325.433594 C 513.042969 327.46875 512.65625 327.933594 510.289062 328.769531 C 506.925781 329.957031 506.039062 329.5 499.851562 323.398438 C 498.429688 321.996094 497.386719 321.414062 495.746094 321.109375 C 492.957031 320.585938 490.601562 318.800781 489.496094 316.367188 C 488.328125 313.796875 488.394531 311.996094 489.824219 307.695312 C 490.890625 304.480469 491.328125 303.792969 493.511719 301.910156 C 494.871094 300.734375 496.121094 299.347656 496.285156 298.832031 C 496.449219 298.3125 497.28125 296.875 498.132812 295.636719 C 498.988281 294.394531 499.683594 292.871094 499.683594 292.25 C 499.683594 290.695312 500.378906 289.507812 502.925781 286.707031 C 504.359375 285.128906 505.21875 283.710938 505.433594 282.558594 C 505.652344 281.40625 506.351562 280.25 507.492188 279.164062 C 509.300781 277.445312 510.746094 274.109375 510.761719 271.609375 C 510.773438 269.84375 512.148438 266.789062 513.453125 265.625 C 514.234375 264.933594 514.441406 264.222656 514.441406 262.269531 C 514.441406 260.371094 514.808594 259.066406 516.019531 256.667969 C 516.882812 254.945312 517.921875 253.265625 518.324219 252.929688 C 518.726562 252.597656 519.054688 251.675781 519.058594 250.882812 C 519.058594 250.089844 519.578125 248.328125 520.210938 246.972656 C 520.84375 245.617188 521.359375 243.789062 521.359375 242.914062 C 521.359375 241.230469 522.3125 238.984375 523.667969 237.449219 C 524.117188 236.941406 524.835938 235.289062 525.269531 233.777344 C 525.699219 232.265625 526.582031 229.988281 527.226562 228.714844 C 527.980469 227.226562 528.484375 225.324219 528.632812 223.390625 C 528.761719 221.738281 529.179688 219.761719 529.566406 219 C 530.398438 217.359375 531.96875 211.28125 531.96875 209.703125 C 531.96875 209.09375 532.300781 207.820312 532.710938 206.878906 C 533.121094 205.9375 533.75 203.519531 534.109375 201.511719 C 534.472656 199.503906 535.273438 196.847656 535.894531 195.613281 C 536.535156 194.335938 537.203125 191.894531 537.445312 189.941406 C 537.703125 187.882812 538.265625 185.875 538.855469 184.917969 C 539.578125 183.75 539.949219 182.105469 540.242188 178.734375 C 540.492188 175.832031 540.996094 173.335938 541.605469 171.953125 C 542.140625 170.75 542.585938 168.804688 542.597656 167.632812 C 542.609375 166.460938 542.917969 164.667969 543.28125 163.65625 C 543.644531 162.640625 543.949219 160.921875 543.953125 159.832031 C 543.953125 158.742188 544.355469 157.078125 544.839844 156.128906 C 545.320312 155.179688 545.9375 153.214844 546.207031 151.761719 C 546.476562 150.3125 546.917969 148.707031 547.1875 148.199219 C 547.542969 147.542969 547.535156 146.734375 547.175781 145.382812 C 546.527344 142.980469 546.964844 140.363281 548.355469 138.3125 C 550.382812 135.324219 550.542969 134.691406 550.691406 129.085938 C 550.78125 125.75 551.109375 122.753906 551.515625 121.605469 C 551.890625 120.550781 552.335938 118.683594 552.507812 117.457031 C 552.679688 116.230469 553.230469 114.515625 553.726562 113.648438 C 554.433594 112.414062 554.566406 111.597656 554.335938 109.914062 C 554.023438 107.621094 554.410156 105.871094 556.859375 98.640625 C 557.941406 95.445312 558.257812 93.695312 558.257812 90.933594 C 558.257812 88.445312 558.539062 86.648438 559.179688 85.019531 C 559.6875 83.730469 560.101562 81.886719 560.101562 80.917969 C 560.101562 78.488281 561.683594 76.335938 564.726562 74.625 C 566.789062 73.464844 567.234375 73 567.160156 72.078125 C 567.117188 71.460938 567.042969 68.980469 567.03125 66.570312 C 566.972656 61.566406 565.324219 54.484375 563.59375 51.8125 C 563.019531 50.925781 562.289062 49.539062 561.976562 48.730469 C 561.664062 47.921875 560.582031 46.71875 559.566406 46.046875 C 558.386719 45.265625 557.394531 44.089844 556.816406 42.785156 C 556.265625 41.535156 555.390625 40.472656 554.558594 40.042969 C 553.8125 39.65625 552.464844 38.691406 551.558594 37.898438 C 550.546875 37.011719 548.761719 36.132812 546.921875 35.625 C 545.273438 35.167969 543.296875 34.265625 542.527344 33.617188 C 540.644531 32.035156 539.269531 31.761719 537.582031 32.632812 C 535.832031 33.539062 533.132812 33.566406 530.691406 32.707031 C 528.929688 32.085938 528.753906 32.109375 527.347656 33.144531 C 526.535156 33.746094 525.21875 34.371094 524.425781 34.539062 C 523.632812 34.703125 521.253906 35.441406 519.140625 36.175781 C 517.027344 36.914062 514.40625 37.515625 513.316406 37.515625 C 512.078125 37.515625 511.109375 37.785156 510.730469 38.238281 C 510.402344 38.640625 509.335938 39.371094 508.371094 39.863281 C 507.402344 40.355469 506.609375 40.9375 506.609375 41.160156 C 506.609375 42.132812 502.664062 45.402344 500.847656 45.933594 C 498.929688 46.496094 496.652344 48.832031 495.0625 51.867188 C 494.746094 52.472656 493.738281 53.800781 492.824219 54.828125 C 491.90625 55.851562 490.328125 57.902344 489.316406 59.386719 C 488.300781 60.875 486.585938 63.070312 485.503906 64.269531 C 484.253906 65.652344 483.269531 67.339844 482.8125 68.882812 C 482.414062 70.21875 481.59375 72.066406 480.984375 72.984375 C 480.378906 73.902344 479.59375 75.613281 479.238281 76.785156 C 478.886719 77.957031 477.351562 80.757812 475.828125 83.007812 C 474.195312 85.414062 472.953125 87.785156 472.804688 88.777344 C 472.660156 89.703125 472.039062 91.261719 471.410156 92.238281 C 470.78125 93.214844 470.027344 94.785156 469.726562 95.730469 C 469.429688 96.675781 467.976562 98.785156 466.496094 100.417969 C 464.875 102.207031 463.675781 103.996094 463.480469 104.925781 C 463.300781 105.769531 462.242188 107.933594 461.128906 109.730469 C 459.71875 112.007812 459.105469 113.5 459.105469 114.660156 C 459.105469 116.835938 458.476562 118.414062 456.792969 120.457031 C 456.035156 121.375 455.414062 122.398438 455.414062 122.734375 C 455.414062 123.828125 453.9375 126.25 451.855469 128.574219 C 449.058594 131.695312 448.363281 133.175781 448.019531 136.726562 C 447.785156 139.121094 447.410156 140.210938 446.273438 141.800781 C 445.476562 142.914062 444.6875 144.546875 444.519531 145.4375 C 444.148438 147.402344 443.269531 149.21875 442.304688 150.019531 C 441.910156 150.347656 441.363281 151.476562 441.089844 152.523438 C 440.476562 154.863281 437.484375 160.027344 435.859375 161.542969 C 434.921875 162.417969 434.664062 163.101562 434.664062 164.6875 C 434.664062 166.902344 434.175781 168.121094 432.585938 169.878906 C 431.925781 170.613281 431.460938 171.847656 431.3125 173.265625 C 431.148438 174.804688 430.625 176.097656 429.628906 177.417969 C 428.832031 178.472656 427.59375 180.476562 426.878906 181.871094 C 426.164062 183.265625 424.746094 185.757812 423.726562 187.40625 C 422.0625 190.105469 420.265625 193.957031 418.882812 197.785156 C 418.335938 199.304688 414.507812 204.707031 413.027344 206.046875 C 412.515625 206.511719 411.773438 207.992188 411.382812 209.339844 C 410.355469 212.867188 408.507812 216.335938 406.480469 218.535156 C 405.507812 219.589844 403.558594 222.769531 402.144531 225.609375 C 400.730469 228.445312 398.742188 231.75 397.730469 232.953125 C 396.714844 234.15625 394.648438 236.59375 393.136719 238.371094 C 391.445312 240.351562 390.203125 242.3125 389.910156 243.441406 C 389.148438 246.414062 388.21875 248.144531 386.890625 249.050781 C 386.210938 249.519531 384.535156 250.917969 383.175781 252.15625 C 381.273438 253.890625 380.699219 254.726562 380.699219 255.746094 C 380.699219 257.792969 379.535156 260.128906 377.246094 262.671875 C 376.101562 263.945312 375.164062 265.148438 375.164062 265.339844 C 375.164062 265.53125 374.328125 266.246094 373.300781 266.921875 C 372.277344 267.601562 371.238281 268.679688 370.996094 269.320312 C 370.203125 271.40625 368.199219 273.605469 366.347656 274.421875 C 365.011719 275.011719 364.179688 275.863281 363.152344 277.679688 C 362.390625 279.03125 360.5625 281.328125 359.089844 282.777344 C 357.617188 284.226562 356.257812 286.023438 356.070312 286.769531 C 355.496094 289.066406 354.042969 290.652344 351.964844 291.246094 C 349.289062 292.011719 349.097656 292.21875 348.464844 295.050781 C 347.980469 297.230469 347.507812 297.941406 344.816406 300.53125 C 343.117188 302.167969 341.3125 304.210938 340.804688 305.066406 C 340.183594 306.121094 339.011719 307.042969 337.207031 307.902344 C 334.75 309.074219 334.429688 309.40625 333.234375 312.054688 C 331.675781 315.511719 330.972656 316.183594 327.609375 317.441406 C 324.59375 318.570312 323.875 319.257812 322.785156 322.078125 C 321.816406 324.582031 320.960938 325.632812 319.128906 326.570312 C 318.367188 326.960938 317.019531 327.847656 316.128906 328.542969 C 315.242188 329.238281 313.011719 330.445312 311.175781 331.226562 C 306.214844 333.332031 301.472656 336.222656 298.511719 338.941406 C 296.429688 340.855469 295.121094 341.613281 292.226562 342.578125 C 288.929688 343.675781 288.441406 343.996094 287.296875 345.800781 C 286.320312 347.351562 285.148438 348.292969 282.167969 349.925781 C 280.042969 351.089844 277.734375 352.175781 277.039062 352.34375 C 274.507812 352.945312 270.265625 354.941406 268.25 356.476562 C 267.117188 357.34375 265.945312 358.054688 265.652344 358.054688 C 265.359375 358.054688 264.269531 358.675781 263.234375 359.4375 C 262.195312 360.203125 260.546875 361.109375 259.5625 361.457031 C 258.582031 361.800781 256.742188 362.746094 255.476562 363.550781 C 253.667969 364.703125 252.734375 365 251.101562 364.929688 C 249.960938 364.886719 248.277344 364.988281 247.359375 365.179688 C 245.082031 365.632812 236.761719 364.75 235.066406 363.875 L 233.691406 363.164062 L 233.4375 365.046875 C 233.292969 366.085938 232.574219 367.789062 231.828125 368.835938 C 231.082031 369.878906 230.328125 371.199219 230.152344 371.761719 C 229.976562 372.328125 229.125 373.632812 228.265625 374.660156 C 225.710938 377.71875 221.679688 386.410156 221.179688 389.933594 C 220.746094 392.992188 219.886719 395.152344 218.289062 397.203125 C 217.816406 397.808594 217.433594 398.972656 217.433594 399.796875 C 217.433594 400.617188 217.101562 402.199219 216.699219 403.308594 C 216.296875 404.417969 215.789062 406.675781 215.574219 408.324219 C 215.355469 409.972656 214.523438 413.191406 213.722656 415.472656 C 212.183594 419.878906 211.894531 421.703125 211.863281 427.226562 C 211.832031 431.164062 210.941406 436.398438 209.832031 439.039062 C 208.445312 442.339844 207.875 446.308594 208.101562 451.046875 C 208.316406 455.496094 208.015625 457.9375 206.136719 467.359375 C 205.355469 471.257812 205.253906 475.90625 205.890625 478.667969 C 206.207031 480.019531 206.125 481.328125 205.597656 483.511719 C 205.203125 485.152344 204.90625 487.628906 204.945312 489.007812 C 204.988281 490.386719 204.785156 492.605469 204.507812 493.933594 C 204.058594 496.085938 204.113281 496.5625 204.996094 498.289062 C 206.0625 500.382812 206.058594 501.65625 204.984375 507.714844 C 204.527344 510.28125 204.523438 511.726562 204.972656 514.777344 C 205.421875 517.800781 205.425781 519.371094 204.984375 522.226562 C 204.578125 524.820312 204.558594 526.285156 204.894531 527.386719 C 205.160156 528.238281 205.382812 532.5625 205.382812 537 C 205.382812 541.441406 205.53125 546.371094 205.699219 547.957031 C 205.882812 549.679688 205.769531 552.335938 205.40625 554.527344 C 204.765625 558.480469 204.9375 560.25 206.753906 568.59375 C 207.820312 573.472656 208.648438 581.183594 209.101562 590.5 C 209.28125 594.179688 209.683594 597.800781 209.992188 598.550781 C 210.304688 599.296875 210.738281 601.683594 210.957031 603.851562 C 211.179688 606.023438 211.707031 609.664062 212.128906 611.945312 C 212.761719 615.375 212.808594 616.652344 212.382812 619.265625 C 211.871094 622.382812 211.886719 622.46875 213.222656 624.570312 C 214.011719 625.808594 214.710938 627.675781 214.886719 629.011719 C 215.296875 632.140625 216.472656 637.519531 217.058594 638.929688 C 217.929688 641.035156 218.808594 646.039062 218.808594 648.902344 C 218.808594 650.804688 219.027344 651.910156 219.476562 652.28125 C 220.398438 653.046875 221.417969 656.074219 222.046875 659.914062 C 222.335938 661.6875 223.054688 664.074219 223.640625 665.214844 C 224.953125 667.769531 225.898438 672.164062 225.511719 673.925781 C 225.289062 674.925781 225.496094 675.566406 226.386719 676.621094 C 228.421875 679.039062 231.792969 687.125 232.078125 690.265625 C 232.3125 692.859375 232.535156 693.332031 234.855469 696.0625 C 236.242188 697.699219 237.800781 699.988281 238.3125 701.152344 C 238.828125 702.3125 240.042969 704.210938 241.019531 705.367188 C 241.992188 706.523438 243.136719 708.496094 243.558594 709.75 C 243.980469 711.003906 245.203125 713.011719 246.273438 714.210938 C 247.347656 715.410156 248.363281 716.945312 248.53125 717.617188 C 248.699219 718.289062 250.226562 720.367188 251.929688 722.230469 C 254.613281 725.171875 255.222656 725.621094 256.601562 725.625 C 258.515625 725.636719 262.011719 727.25 262.628906 728.410156 C 263.472656 729.980469 269.296875 733.476562 271.074219 733.476562 C 273.292969 733.476562 274.550781 734.011719 277.410156 736.175781 C 279.808594 737.988281 282.550781 739.003906 285.085938 739.015625 C 285.796875 739.015625 287.3125 739.558594 288.457031 740.21875 C 291.019531 741.699219 296.085938 743.15625 298.710938 743.167969 C 301.4375 743.179688 308.921875 744.359375 310.027344 744.949219 C 310.527344 745.214844 311.945312 745.664062 313.175781 745.9375 C 314.410156 746.214844 316.042969 746.90625 316.808594 747.476562 C 319.109375 749.183594 324.910156 751.761719 328.347656 752.601562 C 330.125 753.039062 332.199219 753.761719 332.960938 754.214844 C 333.722656 754.667969 335.515625 755.148438 336.945312 755.285156 C 338.375 755.414062 340.242188 755.902344 341.097656 756.355469 C 341.949219 756.804688 343.945312 757.316406 345.535156 757.488281 C 347.566406 757.710938 348.960938 758.175781 350.234375 759.058594 C 351.816406 760.152344 352.59375 760.335938 356.339844 760.503906 C 359.609375 760.648438 361.25 760.96875 363.21875 761.839844 C 365.296875 762.757812 366.433594 762.960938 369.011719 762.871094 C 371.824219 762.769531 372.457031 762.914062 374.085938 763.992188 C 375.742188 765.085938 376.566406 765.257812 381.4375 765.546875 C 384.453125 765.726562 387.753906 766.171875 388.769531 766.539062 C 393.605469 768.289062 400.078125 769.128906 409.101562 769.179688 C 413.855469 769.210938 415.804688 769.386719 416.359375 769.84375 C 416.878906 770.273438 418.679688 770.496094 422.082031 770.550781 C 425.664062 770.609375 427.4375 770.84375 428.445312 771.386719 C 429.964844 772.199219 435.625 772.476562 440.25 771.964844 C 442.3125 771.734375 443.207031 771.863281 444.628906 772.578125 C 446.242188 773.394531 447.003906 773.449219 452.414062 773.167969 C 457.035156 772.925781 458.9375 773.007812 460.714844 773.523438 C 462.800781 774.128906 473.367188 774.601562 481.699219 774.460938 C 489.566406 774.332031 505.378906 774.820312 510.527344 775.355469 C 512.808594 775.589844 515.402344 776.097656 516.292969 776.476562 C 517.710938 777.082031 518.097656 777.082031 519.519531 776.488281 C 520.414062 776.117188 522.984375 775.761719 525.285156 775.691406 Z M 521.449219 335.8125 C 520.542969 334.90625 520.8125 333.855469 522.421875 331.988281 C 523.695312 330.515625 524.144531 330.277344 525.15625 330.527344 C 526.871094 330.960938 527.746094 333.625 526.695312 335.230469 C 526.09375 336.144531 525.5625 336.367188 523.976562 336.367188 C 522.894531 336.367188 521.757812 336.117188 521.453125 335.8125 Z M 145.609375 771.304688 C 146.144531 770.816406 144.445312 768.0625 143.605469 768.058594 C 142.609375 768.058594 139.015625 770.449219 139.015625 771.121094 C 139.015625 771.421875 139.277344 771.777344 139.59375 771.910156 C 140.339844 772.226562 145.132812 771.742188 145.609375 771.304688 Z M 110.652344 769.480469 L 112.957031 768.671875 L 113.257812 765.941406 C 113.425781 764.441406 113.523438 763.175781 113.484375 763.132812 C 113.441406 763.085938 112.28125 763.984375 110.902344 765.128906 C 109.523438 766.269531 107.554688 767.632812 106.527344 768.148438 C 104.136719 769.355469 104.089844 769.40625 104.902344 769.921875 C 105.910156 770.558594 108.054688 770.394531 110.652344 769.480469 Z M 74.691406 764.199219 C 72.589844 763.703125 72.265625 764.011719 73.269531 765.550781 L 74.0625 766.761719 L 75.214844 765.679688 L 76.367188 764.601562 Z M 222.796875 762.726562 C 223.535156 762.578125 223.730469 762.285156 223.550781 761.597656 C 223.421875 761.089844 223.566406 760.042969 223.886719 759.277344 C 224.203125 758.507812 224.378906 757.792969 224.265625 757.683594 C 223.808594 757.226562 219.773438 759.65625 218.421875 761.199219 C 217.617188 762.121094 216.960938 763.011719 216.960938 763.175781 C 216.960938 763.457031 220.550781 763.175781 222.796875 762.726562 Z M 125.40625 742.453125 C 127.433594 741.570312 129.613281 740.847656 130.25 740.84375 C 130.886719 740.84375 132.0625 740.484375 132.863281 740.039062 C 138.136719 737.121094 140.054688 736.234375 141.09375 736.234375 C 142.671875 736.234375 145.4375 735.046875 146.78125 733.789062 C 148.882812 731.828125 149.304688 730.394531 148.976562 726.332031 C 148.71875 723.191406 148.828125 722.085938 149.695312 719.382812 C 151.792969 712.777344 150.691406 705.941406 146.78125 701.324219 C 145.398438 699.695312 144.316406 697.871094 144.011719 696.664062 C 143.371094 694.136719 140.617188 689.871094 138.328125 687.867188 C 135.742188 685.601562 130.714844 683.339844 127.417969 682.957031 C 125.871094 682.777344 123.746094 682.253906 122.703125 681.792969 C 121.128906 681.101562 119.832031 680.980469 115.199219 681.105469 C 108.671875 681.28125 108.246094 681.390625 104.890625 683.65625 C 103.496094 684.597656 101.625 685.730469 100.738281 686.175781 C 98.597656 687.246094 94.414062 691.320312 93.382812 693.34375 C 92.929688 694.230469 92.3125 696.410156 92.007812 698.183594 C 91.703125 699.960938 90.621094 704.011719 89.601562 707.183594 C 87.457031 713.878906 87.449219 713.800781 90.601562 720.09375 C 91.808594 722.5 92.929688 725.371094 93.089844 726.46875 C 93.75 730.988281 97.136719 735.492188 103.082031 739.765625 C 105.1875 741.277344 105.886719 741.511719 108.984375 741.753906 C 110.917969 741.90625 113.007812 742.3125 113.625 742.65625 C 117.113281 744.589844 120.660156 744.527344 125.410156 742.453125 Z M 58.550781 735.65625 C 59.003906 733.511719 61.503906 728.945312 62.773438 727.949219 C 63.363281 727.480469 64.167969 726.203125 64.550781 725.109375 C 64.9375 724.011719 65.621094 722.695312 66.070312 722.179688 C 66.515625 721.664062 67.183594 720.847656 67.550781 720.363281 C 68.179688 719.53125 68.160156 719.511719 67.1875 720.03125 C 66.621094 720.332031 65.851562 721.164062 65.484375 721.882812 C 64.402344 723.96875 61.792969 725.945312 59.074219 726.738281 C 57.683594 727.140625 56.207031 727.46875 55.792969 727.46875 C 54.710938 727.46875 52.3125 728.785156 52.3125 729.375 C 52.3125 729.648438 52.828125 730.492188 53.464844 731.246094 C 54.097656 732 54.75 733.445312 54.914062 734.464844 C 55.117188 735.742188 55.507812 736.433594 56.179688 736.703125 C 57.839844 737.375 58.222656 737.207031 58.550781 735.65625 Z M 169.15625 708.867188 C 172.492188 704.972656 175.785156 701.929688 177.4375 701.214844 C 178.558594 700.734375 180.195312 699.402344 181.324219 698.058594 C 183.082031 695.964844 183.667969 695.609375 187.25 694.46875 C 191.023438 693.269531 191.296875 693.089844 192.582031 691 C 193.328125 689.789062 194.65625 688.375 195.53125 687.859375 C 197.558594 686.660156 197.558594 685.875 195.519531 681.351562 C 194.632812 679.382812 193.902344 677.472656 193.902344 677.101562 C 193.902344 676.734375 193.773438 676.296875 193.609375 676.136719 C 193.046875 675.570312 184.023438 684.609375 183.066406 686.699219 C 182.039062 688.945312 172.429688 698.914062 166.582031 703.804688 C 162.679688 707.066406 162.585938 707.441406 165.148438 709.457031 C 166.5625 710.570312 167.871094 710.378906 169.164062 708.867188 Z M 46.867188 702.355469 C 47.667969 701.847656 48.386719 700.738281 48.886719 699.222656 C 49.398438 697.691406 50.371094 696.191406 51.679688 694.917969 C 54.046875 692.617188 54.242188 692.046875 52.265625 693.199219 C 51.484375 693.660156 49.792969 695.472656 48.507812 697.234375 C 47.226562 698.996094 45.585938 700.933594 44.859375 701.542969 C 43.597656 702.605469 43.179688 703.890625 43.875 704.585938 C 44.054688 704.765625 44.523438 704.511719 44.910156 704.027344 C 45.300781 703.542969 46.179688 702.789062 46.863281 702.355469 Z M 64.089844 682.242188 C 64.585938 681.4375 64.015625 681.269531 63.386719 682.03125 C 63.023438 682.46875 62.988281 682.734375 63.300781 682.734375 C 63.570312 682.734375 63.929688 682.515625 64.09375 682.242188 Z M 35.261719 652.503906 C 36.808594 650.558594 37.015625 649.722656 35.820312 650.238281 C 35.375 650.429688 33.664062 650.679688 32.015625 650.800781 C 28.132812 651.078125 27.6875 651.4375 28.570312 653.550781 C 28.941406 654.441406 29.246094 655.632812 29.246094 656.195312 C 29.246094 656.753906 29.378906 657.347656 29.539062 657.503906 C 29.90625 657.875 33.457031 654.773438 35.257812 652.503906 Z M 199.894531 650.21875 C 199.894531 648.570312 199.738281 647.222656 199.550781 647.222656 C 199.136719 647.222656 195.113281 651.828125 195.347656 652.027344 C 195.714844 652.339844 198.332031 653.144531 199.089844 653.179688 C 199.777344 653.207031 199.894531 652.78125 199.894531 650.21875 Z M 29.835938 624.382812 C 32.492188 619.988281 33.621094 618.707031 35.589844 617.867188 C 37.054688 617.246094 41.238281 612.132812 41.238281 610.964844 C 41.238281 609.738281 39.539062 610.964844 38.105469 613.234375 C 36.300781 616.089844 34.132812 617.691406 31.628906 618.027344 C 30.316406 618.203125 29.523438 618.648438 28.816406 619.609375 C 28.273438 620.339844 27.019531 621.453125 26.035156 622.074219 L 24.238281 623.210938 L 24.984375 625.183594 C 25.894531 627.59375 26.460938 628.390625 27.128906 628.183594 C 27.40625 628.097656 28.625 626.386719 29.835938 624.382812 Z M 194.289062 627.136719 C 194.378906 627.066406 194.304688 626.335938 194.128906 625.535156 L 193.808594 624.074219 L 192.46875 625.355469 C 190.628906 627.121094 190.691406 628.015625 192.632812 627.601562 C 193.457031 627.425781 194.203125 627.214844 194.289062 627.136719 Z M 83.042969 600.359375 C 86.046875 597.253906 86.945312 596.027344 86.214844 596.027344 C 86.101562 596.027344 85.003906 596.976562 83.796875 598.136719 C 82.585938 599.292969 80.71875 600.902344 79.648438 601.710938 C 77.460938 603.359375 77.226562 603.867188 78.660156 603.867188 C 79.28125 603.867188 80.898438 602.574219 83.042969 600.359375 Z M 190.210938 599.292969 C 190.210938 599.058594 190.082031 598.53125 189.921875 598.121094 C 189.660156 597.433594 189.566406 597.433594 188.78125 598.148438 C 188.3125 598.574219 188.039062 599.101562 188.175781 599.324219 C 188.503906 599.855469 190.210938 599.835938 190.210938 599.292969 Z M 96.144531 589.070312 C 96.429688 588.539062 96.558594 588.003906 96.433594 587.878906 C 95.867188 587.3125 92.316406 589.925781 91.441406 591.550781 C 91.066406 592.253906 91.355469 592.199219 93.3125 591.207031 C 94.585938 590.558594 95.863281 589.597656 96.144531 589.070312 Z M 66.957031 589.304688 C 66.503906 588.851562 65.683594 589.546875 65.683594 590.386719 C 65.683594 591.089844 65.742188 591.089844 66.464844 590.371094 C 66.894531 589.945312 67.117188 589.460938 66.957031 589.304688 Z M 107.175781 579.214844 C 108.085938 578.117188 107.496094 577.898438 105.667969 578.664062 C 104.269531 579.25 103.042969 580.5625 103.042969 581.476562 C 103.042969 581.914062 106.507812 580.019531 107.175781 579.214844 Z M 24.292969 569.335938 C 25.015625 568.738281 25.46875 566.046875 24.84375 566.046875 C 23.269531 566.046875 19.300781 569.773438 19.71875 570.863281 C 19.964844 571.507812 20.175781 571.5 21.738281 570.789062 C 22.699219 570.355469 23.847656 569.703125 24.292969 569.335938 Z M 189.203125 567.773438 C 189.414062 565.945312 188.261719 565.722656 186.53125 567.265625 C 185.238281 568.414062 185.171875 568.589844 185.917969 568.890625 C 186.375 569.078125 187.269531 569.1875 187.90625 569.136719 C 188.792969 569.066406 189.089844 568.75 189.203125 567.773438 Z M 33.128906 559.292969 C 33.375 558.660156 33.304688 558.632812 32.71875 559.121094 C 31.917969 559.785156 31.835938 560.050781 32.429688 560.050781 C 32.65625 560.050781 32.972656 559.710938 33.128906 559.292969 Z M 164.195312 557.863281 C 163.875 557.542969 162.996094 558.195312 162.996094 558.75 C 162.996094 559.058594 163.261719 559.019531 163.699219 558.664062 C 164.085938 558.34375 164.308594 557.984375 164.195312 557.871094 Z M 173.726562 551.933594 C 174.550781 551.039062 175.738281 549.738281 176.375 549.039062 C 177.433594 547.871094 182.277344 545.703125 185.175781 545.097656 C 186.007812 544.925781 186.621094 544.296875 187.1875 543.035156 C 187.640625 542.039062 187.875 541.007812 187.714844 540.746094 C 187.164062 539.851562 184.789062 541.15625 183.542969 543.039062 C 182.609375 544.445312 181.542969 545.230469 178.953125 546.410156 C 176.636719 547.46875 175.160156 548.492188 174.246094 549.679688 C 173.511719 550.628906 172.289062 552.144531 171.53125 553.039062 C 170.328125 554.453125 170.285156 554.597656 171.191406 554.113281 C 171.765625 553.804688 172.90625 552.824219 173.726562 551.933594 Z M 60.667969 534.800781 C 61.242188 534.066406 61.226562 534.050781 60.496094 534.625 C 60.050781 534.972656 59.6875 535.335938 59.6875 535.433594 C 59.6875 535.8125 60.066406 535.5625 60.667969 534.800781 Z M 23.023438 507.472656 C 23.179688 507.21875 23.09375 507.011719 22.847656 507.011719 C 22.59375 507.011719 22.257812 507.21875 22.097656 507.472656 C 21.941406 507.726562 22.027344 507.933594 22.273438 507.933594 C 22.53125 507.933594 22.863281 507.726562 23.023438 507.472656 Z M 29.25 504.9375 C 31.113281 504.300781 33.332031 503.785156 34.179688 503.785156 C 35.179688 503.785156 36.601562 503.199219 38.234375 502.113281 C 39.914062 501 41.480469 500.363281 42.953125 500.199219 C 44.535156 500.023438 45.644531 499.539062 46.875 498.492188 C 47.820312 497.6875 49.792969 496.425781 51.257812 495.6875 C 52.929688 494.84375 55.46875 492.820312 58.0625 490.257812 C 60.339844 488.011719 62.828125 485.855469 63.597656 485.464844 C 64.363281 485.074219 65.9375 483.875 67.09375 482.804688 C 68.25 481.730469 70.011719 480.589844 71.011719 480.265625 C 73.265625 479.539062 76.742188 476.257812 76.75 474.855469 C 76.75 474.253906 77.457031 473.203125 78.457031 472.316406 C 79.394531 471.488281 81.523438 469.605469 83.183594 468.136719 C 84.847656 466.664062 86.933594 464.769531 87.820312 463.921875 C 88.707031 463.074219 90.582031 461.652344 91.980469 460.765625 C 93.382812 459.878906 94.8125 458.621094 95.160156 457.96875 C 95.507812 457.316406 96.441406 456.472656 97.226562 456.089844 C 98.015625 455.710938 99.25 454.652344 99.96875 453.742188 C 100.691406 452.820312 102.410156 451.542969 103.808594 450.878906 C 105.203125 450.21875 106.664062 449.140625 107.058594 448.484375 C 107.453125 447.824219 108.941406 446.210938 110.363281 444.898438 C 111.785156 443.585938 112.832031 442.394531 112.6875 442.25 C 112.351562 441.914062 107.652344 444.246094 107.652344 444.75 C 107.652344 445.300781 102.382812 449.328125 98.96875 451.390625 C 97.359375 452.359375 94.972656 453.433594 93.664062 453.777344 C 92.148438 454.175781 91.035156 454.785156 90.605469 455.457031 C 89.335938 457.433594 85.289062 460.976562 83.210938 461.925781 C 82.066406 462.445312 80.304688 463.753906 79.289062 464.835938 C 78.136719 466.0625 76.753906 466.992188 75.601562 467.3125 C 74.585938 467.59375 72.613281 468.636719 71.21875 469.636719 C 69.824219 470.632812 67.125 472.265625 65.222656 473.269531 C 62.804688 474.539062 60.585938 476.257812 57.84375 478.984375 C 55.6875 481.128906 53.046875 483.433594 51.972656 484.109375 C 50.832031 484.824219 49.628906 486.101562 49.078125 487.1875 C 47.996094 489.304688 45.140625 491.554688 42.535156 492.335938 C 41.136719 492.753906 40.300781 493.5 38.6875 495.757812 C 37.554688 497.34375 35.746094 499.246094 34.667969 499.980469 C 33.589844 500.71875 31.898438 501.875 30.914062 502.550781 C 29.925781 503.226562 28.746094 503.78125 28.285156 503.78125 C 27.40625 503.78125 24.511719 506.050781 25.363281 506.074219 C 25.636719 506.085938 27.382812 505.570312 29.246094 504.9375 Z M 173.253906 494.558594 C 173.835938 494.558594 175.140625 494.113281 176.152344 493.570312 C 178.734375 492.183594 184.117188 490.410156 185.738281 490.410156 C 187.0625 490.410156 187.09375 490.351562 186.800781 488.679688 C 186.632812 487.726562 186.367188 485.972656 186.214844 484.777344 L 185.933594 482.609375 L 184.554688 483.320312 C 183.796875 483.714844 181.726562 485.46875 179.957031 487.21875 C 176.671875 490.476562 174.007812 492.480469 170.800781 494.117188 C 168.566406 495.253906 168.402344 496.144531 170.59375 495.226562 C 171.472656 494.859375 172.667969 494.558594 173.253906 494.558594 Z M 776.722656 472.335938 C 776.574219 471.96875 776.464844 472.078125 776.441406 472.613281 C 776.429688 473.101562 776.53125 473.371094 776.6875 473.21875 C 776.835938 473.066406 776.855469 472.667969 776.730469 472.335938 Z M 187.933594 455.800781 C 188.425781 455.539062 188.828125 455.050781 188.828125 454.714844 C 188.828125 454.378906 189.464844 452.90625 190.246094 451.449219 L 191.660156 448.792969 L 189.898438 450.070312 C 188.4375 451.128906 186.058594 454.792969 186.058594 455.976562 C 186.058594 456.425781 186.921875 456.34375 187.933594 455.800781 Z M 180.335938 444.523438 C 182.851562 443.128906 185.148438 441.988281 185.445312 441.988281 C 185.742188 441.988281 187.003906 441.472656 188.246094 440.847656 C 190.484375 439.722656 190.511719 439.679688 191.070312 436.640625 C 191.382812 434.949219 191.542969 433.472656 191.425781 433.359375 C 191.308594 433.242188 190.730469 433.804688 190.136719 434.613281 C 189.542969 435.417969 188.226562 436.5 187.214844 437.015625 C 186.199219 437.53125 184.6875 438.746094 183.855469 439.710938 C 183.023438 440.675781 180.925781 442.410156 179.191406 443.5625 C 176.027344 445.664062 174.492188 447.054688 175.324219 447.054688 C 175.566406 447.054688 177.824219 445.914062 180.335938 444.523438 Z M 43.316406 431.914062 C 45.09375 430.542969 47.0625 429.214844 47.699219 428.957031 C 48.398438 428.679688 48.617188 428.410156 48.257812 428.277344 C 47.933594 428.160156 47.382812 428.292969 47.039062 428.578125 C 46.691406 428.867188 45.195312 429.296875 43.710938 429.535156 C 40.585938 430.035156 38.933594 431.488281 38.933594 433.734375 C 38.933594 435.34375 38.820312 435.394531 43.316406 431.914062 Z M 71.625 388.523438 C 72.09375 388.226562 71.859375 388.03125 70.753906 387.789062 C 69.921875 387.605469 68.375 386.65625 67.316406 385.679688 L 65.390625 383.90625 L 62.046875 388.390625 L 64.671875 388.164062 C 66.117188 388.03125 67.816406 388.148438 68.453125 388.410156 C 69.902344 389.003906 70.8125 389.039062 71.625 388.523438 Z M 191.464844 378.222656 C 191.753906 377.148438 191.914062 376.195312 191.824219 376.101562 C 191.523438 375.804688 188.859375 377.582031 188.601562 378.253906 C 188.351562 378.910156 189.542969 380.136719 190.460938 380.164062 C 190.726562 380.175781 191.175781 379.300781 191.464844 378.222656 Z M 149.15625 364.035156 C 150.046875 364.035156 151.609375 363.785156 152.621094 363.488281 L 154.46875 362.941406 L 152.394531 362.601562 C 151.25 362.414062 149.042969 362.242188 147.484375 362.226562 C 144.464844 362.183594 144.089844 362.46875 144.089844 364.769531 L 144.089844 365.882812 L 145.8125 364.960938 C 146.761719 364.449219 148.265625 364.035156 149.15625 364.035156 Z M 215.039062 360.121094 C 214.503906 359.582031 213.273438 360.492188 213.273438 361.421875 L 213.273438 362.398438 L 214.285156 361.386719 C 214.839844 360.828125 215.183594 360.261719 215.042969 360.121094 Z M 215.039062 360.121094 " fill-opacity="1" fill-rule="nonzero"/></g></svg>