<svg xmlns="http://www.w3.org/2000/svg" xmlns:xlink="http://www.w3.org/1999/xlink" width="1080" zoomAndPan="magnify" viewBox="0 0 810 809.999993" height="1080" preserveAspectRatio="xMidYMid meet" version="1.0"><rect x="-81" width="972" fill="#ffffff" y="-80.999999" height="971.999992" fill-opacity="1"/><rect x="-81" width="972" fill="#ffffff" y="-80.999999" height="971.999992" fill-opacity="1"/><path fill="#3c3738" d="M 138.824219 797.539062 C 138.28125 797.417969 136.515625 796.921875 134.898438 796.4375 C 132.933594 795.84375 130.160156 795.527344 126.570312 795.480469 C 123.609375 795.449219 119.964844 795.097656 118.472656 794.71875 C 116.980469 794.335938 114.433594 793.765625 112.8125 793.449219 C 109.285156 792.757812 103.261719 790.765625 100.546875 789.390625 C 99.464844 788.84375 97.011719 788.242188 95.09375 788.054688 C 92.71875 787.820312 90.605469 787.222656 88.46875 786.179688 C 86.742188 785.339844 83.457031 783.855469 81.160156 782.878906 C 78.867188 781.90625 76.660156 780.8125 76.253906 780.449219 C 75.851562 780.089844 74.855469 779.636719 74.046875 779.449219 C 71.75 778.917969 68.644531 776.957031 66.847656 774.914062 C 64.6875 772.449219 59.855469 769.152344 54.441406 766.449219 C 51.324219 764.894531 48.96875 763.242188 46.34375 760.765625 C 44.304688 758.84375 41.867188 756.894531 40.921875 756.429688 C 39.976562 755.964844 37.789062 754.113281 36.058594 752.3125 C 33.214844 749.363281 31.511719 746.988281 26.949219 739.621094 C 26.148438 738.328125 24.550781 736.253906 23.402344 735.015625 C 21.460938 732.925781 19.761719 729.773438 18.003906 725 C 17.605469 723.917969 17.203125 720.792969 17.105469 718.054688 C 16.960938 713.878906 17.085938 712.773438 17.875 711.222656 C 19.03125 708.957031 18.832031 708.667969 14.6875 706.605469 C 12.570312 705.554688 11.167969 704.457031 10.34375 703.214844 C 9.675781 702.203125 8.316406 700.617188 7.320312 699.691406 C 4.878906 697.417969 4.117188 695.808594 4.117188 692.941406 C 4.117188 691.609375 3.796875 689.75 3.402344 688.804688 C 3.007812 687.863281 2.082031 682.839844 1.34375 677.644531 L 0 668.195312 L 1.078125 665.1875 C 1.992188 662.632812 2.1875 660.859375 2.363281 653.457031 C 2.542969 645.816406 2.699219 644.46875 3.617188 642.574219 C 4.394531 640.96875 4.578125 639.953125 4.332031 638.640625 C 3.976562 636.734375 5.085938 633.035156 6.320312 632.007812 C 6.695312 631.699219 7.585938 629.917969 8.296875 628.054688 C 9.011719 626.1875 10.246094 623.964844 11.042969 623.113281 C 11.839844 622.261719 12.929688 620.949219 13.464844 620.195312 C 14 619.441406 15.261719 618.558594 16.269531 618.238281 C 19.011719 617.355469 19.292969 616.984375 18.988281 614.675781 C 18.835938 613.546875 18.664062 610.523438 18.605469 607.960938 C 18.546875 605.394531 18.332031 602.195312 18.128906 600.84375 C 17.726562 598.167969 18.394531 596.296875 21.992188 590.046875 C 22.925781 588.429688 23.839844 586.109375 24.023438 584.894531 C 24.410156 582.363281 24.894531 581.289062 26.523438 579.332031 C 27.160156 578.566406 27.929688 576.941406 28.238281 575.722656 C 28.601562 574.28125 29.632812 572.546875 31.179688 570.78125 C 32.488281 569.28125 33.5625 567.707031 33.5625 567.277344 C 33.570312 565.023438 34.792969 562.53125 36.890625 560.492188 C 39 558.445312 39.1875 558.054688 39.488281 555.15625 C 39.910156 551.082031 41.933594 547.738281 46.128906 544.164062 C 48.550781 542.101562 49.640625 540.726562 50.753906 538.332031 C 51.554688 536.605469 52.207031 534.777344 52.207031 534.265625 C 52.207031 532.53125 53.519531 530.1875 56.027344 527.445312 C 57.445312 525.894531 58.945312 523.601562 59.5 522.144531 C 60.039062 520.730469 61.164062 518.648438 62.003906 517.515625 C 65.605469 512.65625 66.789062 510.964844 68.5625 508.140625 C 69.597656 506.496094 70.914062 504.648438 71.488281 504.03125 C 72.0625 503.414062 73 501.980469 73.574219 500.839844 C 74.167969 499.65625 75.726562 497.921875 77.214844 496.78125 C 79.253906 495.222656 80.042969 494.210938 80.859375 492.09375 C 82.75 487.171875 86.132812 482.59375 89.5625 480.304688 C 90.3125 479.804688 91.082031 478.484375 91.621094 476.777344 C 92.265625 474.726562 92.960938 473.664062 94.421875 472.511719 C 95.488281 471.664062 96.722656 470.214844 97.164062 469.289062 C 97.601562 468.359375 99.316406 466.222656 100.96875 464.539062 C 102.621094 462.855469 104.433594 460.59375 104.996094 459.515625 C 105.558594 458.433594 107.214844 456.628906 108.679688 455.5 C 110.199219 454.328125 112.078125 452.242188 113.058594 450.636719 C 114.003906 449.089844 115.847656 446.699219 117.15625 445.324219 C 118.464844 443.953125 119.984375 441.882812 120.53125 440.722656 C 121.152344 439.414062 122.367188 438.042969 123.746094 437.089844 C 126.589844 435.136719 132 429.59375 133.242188 427.371094 C 135.964844 422.492188 138.152344 420.230469 141.101562 419.25 C 142.410156 418.816406 143.484375 418.300781 143.484375 418.105469 C 143.484375 417.910156 144.644531 416.460938 146.0625 414.878906 C 147.476562 413.296875 149.742188 410.328125 151.089844 408.277344 C 153.085938 405.25 154.054688 404.277344 156.261719 403.078125 C 159.394531 401.382812 162.621094 398.539062 164.609375 395.71875 C 165.902344 393.886719 170.847656 388.746094 176.9375 382.90625 C 178.375 381.527344 180.371094 379.914062 181.371094 379.324219 C 182.367188 378.730469 183.855469 377.335938 184.675781 376.21875 C 186.335938 373.960938 190.007812 370.769531 192.292969 369.601562 C 194.710938 368.359375 197.386719 366.109375 200.523438 362.671875 C 201.257812 361.863281 202.695312 360.9375 203.710938 360.613281 C 204.730469 360.289062 206.335938 359.289062 207.28125 358.386719 C 208.222656 357.488281 210.433594 356.101562 212.1875 355.304688 C 213.941406 354.511719 216.53125 353.085938 217.9375 352.136719 C 219.347656 351.1875 221.257812 350.160156 222.179688 349.855469 C 223.253906 349.503906 224.335938 348.585938 225.171875 347.320312 C 226.621094 345.132812 228.371094 344.210938 232.0625 343.695312 C 233.410156 343.507812 235.289062 342.832031 236.230469 342.195312 C 237.175781 341.5625 238.871094 340.714844 240 340.320312 C 241.128906 339.921875 242.566406 339.265625 243.191406 338.859375 C 244.824219 337.800781 249.359375 336.226562 251.9375 335.828125 C 253.148438 335.640625 254.964844 335.070312 255.964844 334.5625 C 256.964844 334.054688 258.382812 333.640625 259.113281 333.640625 C 259.839844 333.640625 261.523438 332.945312 262.847656 332.09375 C 264.703125 330.902344 265.902344 330.515625 268.042969 330.410156 C 269.574219 330.335938 271.996094 329.941406 273.425781 329.527344 C 276.496094 328.640625 283.753906 327.617188 286.53125 327.683594 C 287.613281 327.714844 290.261719 327.730469 292.421875 327.746094 C 295.191406 327.757812 297.242188 328.078125 299.378906 328.84375 C 302.148438 329.832031 302.703125 329.875 305.757812 329.351562 C 308.09375 328.953125 309.699219 328.929688 311.070312 329.273438 C 312.148438 329.546875 315.128906 329.933594 317.695312 330.140625 C 321.472656 330.441406 322.726562 330.753906 324.320312 331.78125 C 325.820312 332.75 327.433594 333.1875 331.1875 333.648438 C 336.347656 334.28125 338.082031 334.648438 340.539062 335.636719 C 341.886719 336.175781 342.238281 336.105469 344.023438 334.925781 C 345.113281 334.203125 346.296875 333.066406 346.652344 332.402344 C 347.476562 330.867188 348.699219 330.082031 351.929688 329.015625 C 353.722656 328.421875 354.910156 327.636719 355.816406 326.453125 C 357.183594 324.65625 360.183594 322.847656 361.785156 322.847656 C 362.304688 322.847656 363.804688 322.113281 365.117188 321.214844 C 369.28125 318.363281 375.894531 314.996094 377.324219 314.996094 C 378.910156 314.996094 380.644531 313.964844 393.128906 305.605469 C 393.785156 305.164062 395.214844 304.660156 396.300781 304.488281 C 399.011719 304.054688 400.839844 303.023438 402.136719 301.199219 C 402.742188 300.355469 404.25 299.222656 405.488281 298.691406 C 406.730469 298.160156 408.835938 297.195312 410.167969 296.546875 C 411.503906 295.898438 413.296875 295.367188 414.152344 295.367188 C 415.253906 295.367188 416.628906 294.671875 418.84375 293 C 420.5625 291.695312 422.746094 290.386719 423.691406 290.089844 C 432.894531 287.191406 437.363281 285.226562 439.640625 283.070312 C 441.355469 281.445312 445.441406 279.550781 450.09375 278.222656 C 451.902344 277.707031 454.707031 276.757812 456.324219 276.117188 C 459.058594 275.03125 459.296875 274.808594 459.679688 273.011719 C 459.90625 271.945312 460.515625 269.957031 461.039062 268.585938 C 461.5625 267.21875 462.078125 264.707031 462.183594 263.007812 C 462.34375 260.441406 462.675781 259.480469 464.136719 257.359375 C 465.765625 254.996094 465.890625 254.5625 465.773438 251.644531 C 465.679688 249.113281 465.933594 247.761719 467.09375 244.816406 C 467.886719 242.792969 468.929688 240.566406 469.40625 239.863281 C 469.886719 239.160156 470.421875 237.613281 470.59375 236.425781 C 470.769531 235.238281 471.4375 233.445312 472.082031 232.441406 C 472.726562 231.433594 473.253906 229.957031 473.253906 229.160156 C 473.253906 227.101562 474.078125 225.175781 475.6875 223.472656 C 476.5625 222.550781 477.179688 221.273438 477.335938 220.039062 C 478.28125 212.792969 478.71875 210.847656 480.0625 207.929688 C 480.894531 206.128906 481.726562 203.707031 481.910156 202.554688 C 482.09375 201.398438 482.984375 198.855469 483.882812 196.90625 C 484.785156 194.953125 485.523438 193.019531 485.523438 192.609375 C 485.523438 191.207031 487.082031 187.167969 488.480469 184.953125 C 489.246094 183.738281 490.140625 181.667969 490.46875 180.355469 C 490.796875 179.042969 491.816406 176.984375 492.730469 175.785156 C 493.746094 174.457031 494.996094 171.746094 495.921875 168.863281 C 497.101562 165.203125 498.050781 163.335938 500.074219 160.675781 C 501.609375 158.664062 502.816406 156.519531 502.984375 155.511719 C 503.71875 151.113281 504.71875 149.589844 507.964844 147.949219 C 509.605469 147.121094 511.042969 144.96875 511.042969 143.335938 C 511.042969 142.824219 511.558594 141.433594 512.1875 140.246094 C 512.816406 139.058594 513.476562 137.09375 513.652344 135.878906 C 514.035156 133.222656 519.359375 122.488281 521.3125 120.421875 C 522.078125 119.609375 523.183594 117.84375 523.765625 116.496094 C 524.351562 115.144531 525.6875 113.160156 526.742188 112.078125 C 527.792969 111 529.34375 108.570312 530.1875 106.679688 C 531.03125 104.792969 531.96875 102.804688 532.269531 102.265625 C 532.566406 101.726562 533.117188 100.621094 533.492188 99.808594 C 533.863281 99 534.417969 97.894531 534.71875 97.355469 C 535.023438 96.816406 535.859375 95.269531 536.578125 93.921875 C 537.320312 92.53125 538.59375 91.042969 539.515625 90.488281 C 542.152344 88.898438 544.171875 86.597656 544.816406 84.4375 C 545.394531 82.507812 546.195312 81.386719 551.378906 75.222656 C 552.714844 73.636719 554.222656 71.078125 554.953125 69.164062 C 555.648438 67.339844 556.835938 64.875 557.589844 63.6875 C 559.390625 60.847656 570.183594 50.152344 572.394531 49.019531 C 573.34375 48.53125 575.675781 46.589844 577.578125 44.703125 C 580.667969 41.636719 581.332031 41.214844 583.863281 40.6875 C 586.386719 40.164062 586.863281 39.863281 588.242188 37.90625 C 589.089844 36.699219 590.871094 35.007812 592.195312 34.148438 C 593.523438 33.285156 595.195312 32.199219 595.910156 31.734375 C 596.628906 31.269531 598.6875 30.675781 600.484375 30.421875 C 603.378906 30.011719 603.964844 29.738281 605.613281 28.011719 C 607.324219 26.21875 609.996094 24.984375 612.195312 24.976562 C 612.636719 24.976562 614.277344 24.199219 615.847656 23.257812 C 618.671875 21.554688 619.542969 21.304688 621.972656 21.484375 C 622.664062 21.53125 624.210938 21.132812 625.410156 20.585938 C 626.609375 20.042969 627.996094 19.59375 628.496094 19.585938 C 628.992188 19.578125 630.097656 19.078125 630.949219 18.472656 C 632.328125 17.488281 633.09375 17.367188 637.90625 17.355469 C 642.871094 17.347656 643.460938 17.246094 645.023438 16.128906 C 646.5 15.078125 647.320312 14.898438 651.144531 14.816406 C 658.039062 14.664062 669.125 13.773438 671.015625 13.214844 C 673.277344 12.542969 677.347656 12.566406 679.335938 13.257812 C 680.632812 13.710938 681.414062 13.648438 683.582031 12.910156 C 686.113281 12.050781 686.378906 12.046875 689.382812 12.851562 C 691.113281 13.308594 693.949219 13.6875 695.691406 13.6875 C 698.339844 13.6875 699.164062 13.902344 700.761719 15.027344 C 702.496094 16.242188 703.191406 16.390625 708.390625 16.644531 C 713.578125 16.898438 714.285156 17.046875 716.042969 18.261719 C 717.160156 19.039062 718.304688 19.476562 718.757812 19.300781 C 719.1875 19.136719 721.421875 19.226562 723.722656 19.515625 C 728.15625 20.058594 731.160156 21.273438 733.269531 23.382812 C 734.011719 24.125 735.433594 24.816406 736.710938 25.054688 C 737.910156 25.28125 739.59375 26 740.449219 26.652344 C 741.308594 27.308594 742.78125 27.988281 743.722656 28.164062 C 744.664062 28.339844 746.300781 29.011719 747.363281 29.65625 C 748.421875 30.300781 749.84375 31.078125 750.515625 31.378906 C 754.332031 33.078125 755.28125 33.734375 756.363281 35.402344 C 757.039062 36.449219 757.949219 37.242188 758.472656 37.242188 C 760.1875 37.242188 763.023438 39.09375 765.851562 42.0625 L 768.675781 45.019531 L 768.675781 42.359375 C 768.675781 40.894531 768.839844 39.71875 769.042969 39.746094 C 769.875 39.851562 775.523438 46.578125 775.769531 47.75 C 775.910156 48.449219 776.136719 49.527344 776.265625 50.148438 C 776.386719 50.769531 778.582031 53.386719 781.132812 55.96875 C 784.804688 59.679688 785.894531 61.113281 786.355469 62.816406 C 786.6875 64.058594 787.734375 65.839844 788.828125 67.027344 C 789.871094 68.15625 790.851562 69.703125 791.007812 70.460938 C 791.984375 75.199219 792.980469 77.648438 794.335938 78.640625 C 796.226562 80.03125 798.105469 83.824219 798.457031 86.96875 C 798.617188 88.363281 798.929688 89.746094 799.15625 90.035156 C 799.769531 90.816406 803.023438 99.019531 803.023438 99.777344 C 803.023438 100.132812 803.453125 101.394531 803.980469 102.582031 C 804.574219 103.925781 805.0625 106.507812 805.269531 109.394531 C 805.453125 111.949219 805.917969 114.816406 806.304688 115.761719 C 806.6875 116.703125 806.976562 118.804688 806.941406 120.421875 C 806.910156 122.042969 807.152344 124.285156 807.492188 125.40625 C 807.996094 127.066406 807.988281 127.957031 807.460938 130.171875 C 806.886719 132.574219 806.910156 133.214844 807.652344 135.582031 C 808.246094 137.460938 808.398438 138.945312 808.160156 140.519531 C 807.90625 142.222656 808.097656 143.617188 808.933594 146.222656 C 810 149.546875 810.011719 149.773438 809.253906 152.46875 C 807.972656 157.019531 807.824219 159.488281 808.691406 161.910156 C 809.5625 164.339844 809.378906 168.089844 808.117188 173.59375 C 807.453125 176.480469 807.285156 180.929688 807.539062 188.878906 C 807.628906 191.871094 806.453125 203.117188 805.703125 206.324219 C 805.519531 207.121094 804.804688 209.058594 804.113281 210.632812 C 802.882812 213.445312 802.875 213.527344 803.683594 215.785156 C 804.710938 218.648438 804.71875 220.308594 803.714844 222.632812 C 803.28125 223.636719 802.757812 226.058594 802.550781 228.015625 C 802.277344 230.644531 801.828125 232.101562 800.839844 233.597656 C 799.796875 235.171875 799.570312 235.957031 799.824219 237.15625 C 800.617188 240.976562 800.628906 242.273438 799.882812 244.058594 C 799.457031 245.085938 799.105469 246.292969 799.105469 246.742188 C 799.105469 247.191406 798.679688 248.390625 798.164062 249.410156 C 797.558594 250.589844 797.238281 252.179688 797.265625 253.808594 C 797.296875 255.539062 796.972656 257.015625 796.25 258.414062 C 795.40625 260.050781 795.285156 260.742188 795.671875 261.761719 C 796.449219 263.800781 796.242188 266.785156 795.179688 268.867188 C 794.617188 269.96875 794.199219 271.761719 794.199219 273.050781 C 794.199219 275.222656 793.09375 279.277344 791.152344 284.21875 C 790.644531 285.507812 790.34375 286.746094 790.484375 286.96875 C 790.90625 287.652344 789.246094 295.492188 788.28125 297.386719 C 787.78125 298.363281 787.117188 300.238281 786.800781 301.558594 C 786.484375 302.875 785.734375 304.839844 785.128906 305.917969 C 784.507812 307.027344 783.902344 309.191406 783.730469 310.898438 C 783.398438 314.210938 782.925781 315.519531 780.738281 319.140625 C 779.828125 320.648438 779.148438 322.601562 778.945312 324.292969 C 778.417969 328.644531 777.632812 330.890625 775.796875 333.296875 C 774.746094 334.671875 773.867188 336.554688 773.53125 338.152344 C 772.902344 341.121094 772.050781 342.984375 770.886719 343.953125 C 770.441406 344.316406 769.625 345.519531 769.070312 346.613281 C 768.511719 347.710938 767.425781 349.335938 766.652344 350.222656 C 765.492188 351.546875 765.246094 352.28125 765.246094 354.363281 C 765.246094 357.445312 763.753906 360.753906 761.6875 362.257812 C 760.054688 363.441406 757.398438 368.753906 757.382812 370.863281 C 757.367188 373.027344 755.65625 376.109375 753.519531 377.824219 C 751.882812 379.144531 751.503906 379.753906 751.503906 381.09375 C 751.503906 383.359375 748.898438 388.332031 746.117188 391.382812 C 744.363281 393.304688 743.601562 394.664062 742.953125 397.023438 C 742.480469 398.738281 741.488281 400.910156 740.742188 401.855469 C 740 402.800781 739.132812 404.34375 738.8125 405.289062 C 738.496094 406.234375 737.027344 408.496094 735.550781 410.3125 C 734.078125 412.132812 732.425781 414.5625 731.882812 415.710938 C 731.019531 417.542969 728.71875 420.527344 722.652344 427.675781 C 720.105469 430.679688 716.242188 436.105469 715.195312 438.15625 C 714.671875 439.1875 713.539062 440.550781 712.683594 441.183594 C 711.078125 442.375 707.011719 446.339844 702.640625 450.980469 C 701.269531 452.4375 699.421875 454.160156 698.535156 454.816406 C 697.648438 455.46875 696.292969 457.015625 695.527344 458.25 C 694.761719 459.484375 692.199219 462.261719 689.828125 464.421875 C 684.652344 469.140625 682.800781 471.015625 682.800781 471.550781 C 682.800781 471.769531 681.972656 472.449219 680.960938 473.058594 C 679.949219 473.667969 678.203125 474.996094 677.082031 476.011719 C 675.957031 477.023438 674.179688 478.085938 673.132812 478.367188 C 672.082031 478.652344 670.570312 479.566406 669.773438 480.398438 C 668.429688 481.804688 660.082031 486.21875 657.285156 487.003906 C 656.609375 487.195312 655.394531 487.972656 654.585938 488.734375 C 652.863281 490.355469 646.261719 493.621094 644.707031 493.621094 C 643.851562 493.621094 643.691406 493.410156 643.914062 492.554688 C 644.128906 491.726562 644.023438 491.558594 643.410156 491.789062 C 642.980469 491.957031 641.789062 492.238281 640.757812 492.417969 C 639.726562 492.597656 637.226562 493.644531 635.199219 494.742188 C 632.089844 496.429688 631.140625 496.71875 629.066406 496.609375 C 624.527344 496.375 624.164062 496.390625 621.949219 496.949219 C 617.960938 497.953125 607.875 498.476562 605.078125 497.824219 C 602.878906 497.3125 602.296875 497.351562 600.59375 498.117188 C 598.054688 499.257812 597.710938 499.242188 592.6875 497.789062 C 588.808594 496.664062 588.191406 496.609375 585.582031 497.148438 C 582.871094 497.707031 582.480469 497.65625 578.167969 496.203125 C 575.664062 495.359375 572.179688 494.523438 570.425781 494.34375 C 565.960938 493.886719 563.582031 493.234375 561.589844 491.917969 C 560.648438 491.292969 558.988281 490.640625 557.910156 490.464844 C 551.890625 489.492188 550.78125 489.09375 547.609375 486.753906 C 545.796875 485.414062 542.96875 483.894531 541.195312 483.304688 C 539.449219 482.722656 536.921875 481.421875 535.578125 480.414062 C 534.234375 479.402344 531.757812 477.820312 530.078125 476.898438 C 528.394531 475.972656 526.125 474.332031 525.035156 473.253906 C 523.945312 472.175781 521.59375 470.132812 519.808594 468.71875 C 516.097656 465.78125 515.28125 464.703125 514.472656 461.675781 C 513.789062 459.117188 513.3125 458.46875 511.394531 457.476562 C 509.957031 456.734375 509.945312 456.742188 507.296875 459.476562 C 505.320312 461.519531 504.566406 462.03125 504.355469 461.480469 C 503.917969 460.339844 502.980469 460.585938 500.78125 462.425781 C 499.445312 463.539062 497.863281 464.296875 496.105469 464.660156 C 494.492188 464.996094 492.707031 465.804688 491.570312 466.714844 C 490.542969 467.542969 489.113281 468.425781 488.394531 468.683594 C 487.667969 468.941406 486.828125 469.789062 486.488281 470.605469 C 485.683594 472.550781 483.953125 473.835938 480.941406 474.730469 C 479.570312 475.140625 477.777344 476.113281 476.960938 476.898438 C 476.117188 477.707031 474.269531 478.671875 472.71875 479.117188 C 471.207031 479.550781 469.226562 480.570312 468.316406 481.382812 C 467.40625 482.195312 465.5 483.199219 464.082031 483.609375 C 462.660156 484.023438 460.558594 485.144531 459.414062 486.101562 C 457.0625 488.066406 455.644531 488.710938 453.695312 488.710938 C 452.804688 488.710938 451.789062 489.289062 450.683594 490.429688 C 449.769531 491.378906 447.851562 492.585938 446.421875 493.121094 C 444.992188 493.65625 442.914062 494.667969 441.804688 495.367188 C 439.792969 496.636719 439.789062 496.644531 440.15625 498.933594 C 440.707031 502.347656 440.402344 508.808594 439.609375 510.714844 C 439.222656 511.632812 438.898438 513.300781 438.886719 514.414062 C 438.875 515.527344 438.523438 517.324219 438.105469 518.402344 C 437.683594 519.480469 437.1875 521.375 437 522.605469 C 436.808594 523.835938 436.058594 525.863281 435.328125 527.109375 C 434.597656 528.355469 434.003906 529.929688 434.003906 530.613281 C 434.003906 531.292969 433.117188 533.527344 432.039062 535.578125 C 430.960938 537.628906 430.078125 539.941406 430.078125 540.722656 C 430.078125 542.667969 429.257812 544.667969 427.855469 546.136719 C 427.207031 546.8125 426.34375 548.316406 425.933594 549.476562 C 425.527344 550.636719 424.523438 552.394531 423.707031 553.386719 C 422.890625 554.375 422.222656 555.453125 422.222656 555.785156 C 422.222656 556.113281 421.230469 557.214844 420.015625 558.230469 C 418.800781 559.246094 417.808594 560.449219 417.808594 560.90625 C 417.808594 561.359375 417.125 563.023438 416.285156 564.605469 C 415.449219 566.183594 414.003906 569.351562 413.074219 571.648438 C 411.253906 576.136719 409.007812 578.933594 405.945312 580.511719 C 404.441406 581.289062 404.015625 581.875 403.382812 584.058594 C 402.960938 585.5 402.070312 587.433594 401.394531 588.363281 C 400.71875 589.289062 399.644531 591.152344 399 592.503906 C 398.300781 593.96875 396.847656 595.777344 395.386719 597 C 393.699219 598.414062 392.667969 599.78125 392.042969 601.417969 C 390.847656 604.570312 389.441406 606.664062 387.769531 607.777344 C 387.011719 608.28125 386.261719 609.136719 386.105469 609.679688 C 385.550781 611.542969 383.257812 614.429688 381.21875 615.832031 C 379.796875 616.8125 379.078125 617.710938 378.863281 618.78125 C 378.554688 620.328125 377.023438 622.03125 373.222656 625.046875 C 372.09375 625.945312 370.835938 627.488281 370.421875 628.484375 C 370.011719 629.476562 368.601562 631.394531 367.289062 632.742188 C 365.980469 634.089844 364.464844 636.078125 363.921875 637.160156 C 362.59375 639.804688 360.6875 641.519531 357.402344 643.019531 C 355.027344 644.105469 354.582031 644.53125 354.085938 646.191406 C 353.761719 647.265625 352.761719 648.765625 351.808594 649.601562 C 350.871094 650.425781 349.433594 652.191406 348.613281 653.523438 C 347.789062 654.859375 346.625 656.277344 346.027344 656.671875 C 345.425781 657.066406 343.980469 659.296875 342.816406 661.628906 C 341.457031 664.34375 340.09375 666.328125 339.019531 667.144531 C 338.097656 667.847656 336.878906 669.175781 336.308594 670.097656 C 335.742188 671.015625 333.832031 672.796875 332.070312 674.058594 C 330.054688 675.496094 328.246094 677.3125 327.199219 678.941406 C 326.132812 680.613281 324.46875 682.265625 322.546875 683.574219 C 320.898438 684.691406 319.191406 686.296875 318.75 687.144531 C 318.304688 687.992188 316.703125 689.898438 315.1875 691.382812 C 313.671875 692.867188 312.273438 694.59375 312.078125 695.21875 C 311.507812 697.050781 308.957031 699.621094 307.101562 700.230469 C 306.019531 700.589844 304.964844 701.460938 304.242188 702.59375 C 302.785156 704.878906 285.960938 721.929688 284.328125 722.773438 C 283.65625 723.121094 281.433594 724.511719 279.394531 725.867188 C 276.558594 727.75 275.265625 729.003906 273.90625 731.183594 C 272.90625 732.789062 271.230469 734.636719 270.078125 735.40625 C 268.949219 736.160156 267.246094 737.519531 266.292969 738.425781 C 265.339844 739.332031 263.761719 740.40625 262.789062 740.8125 C 261.816406 741.214844 260.085938 742.40625 258.945312 743.457031 C 257.804688 744.503906 256.648438 745.363281 256.378906 745.363281 C 256.109375 745.363281 255.4375 746.246094 254.886719 747.328125 C 254.335938 748.40625 253.039062 749.824219 252.003906 750.476562 C 250.96875 751.128906 249.433594 752.539062 248.585938 753.605469 C 247.742188 754.671875 246.328125 755.835938 245.449219 756.191406 C 244.566406 756.546875 242.960938 757.535156 241.882812 758.390625 C 240.800781 759.246094 238.8125 760.570312 237.464844 761.332031 C 236.113281 762.09375 233.96875 763.671875 232.699219 764.839844 C 230.222656 767.109375 229.296875 767.613281 226.089844 768.421875 C 224.695312 768.773438 222.753906 770.046875 220.03125 772.394531 C 215.996094 775.875 214.46875 776.769531 212.558594 776.769531 C 211.984375 776.769531 210.289062 777.734375 208.789062 778.910156 C 207.285156 780.085938 205.507812 781.222656 204.832031 781.429688 C 204.15625 781.636719 202.609375 782.316406 201.394531 782.9375 C 200.179688 783.558594 198.195312 784.210938 196.980469 784.386719 C 194.472656 784.753906 192.472656 785.703125 189.890625 787.761719 C 188.480469 788.886719 187.414062 789.253906 184.8125 789.507812 C 183.003906 789.683594 180.636719 790.285156 179.558594 790.847656 C 178.480469 791.40625 176.601562 792.027344 175.386719 792.230469 C 174.171875 792.429688 172.082031 793.023438 170.738281 793.550781 C 169.394531 794.078125 167.761719 794.40625 167.109375 794.28125 C 166.457031 794.160156 165.234375 794.273438 164.398438 794.542969 C 162.527344 795.140625 155.238281 795.96875 150.605469 796.109375 C 148.714844 796.171875 145.734375 796.585938 143.980469 797.039062 C 140.683594 797.886719 140.46875 797.90625 138.828125 797.539062 Z M 148.390625 776.554688 C 157.136719 776.363281 170.484375 773.898438 174.777344 771.679688 C 175.621094 771.242188 176.710938 770.882812 177.199219 770.878906 C 177.683594 770.878906 179.183594 770.332031 180.535156 769.667969 C 181.882812 769.003906 183.226562 768.457031 183.515625 768.445312 C 183.804688 768.4375 185.128906 767.65625 186.457031 766.710938 C 187.789062 765.769531 189.648438 764.863281 190.59375 764.707031 C 192.734375 764.347656 197.304688 762.605469 198.9375 761.523438 C 199.613281 761.078125 201.25 760.238281 202.574219 759.65625 C 203.902344 759.074219 206.003906 757.648438 207.242188 756.488281 C 210.007812 753.902344 213.09375 752.054688 216.757812 750.796875 C 219.761719 749.761719 221.453125 748.570312 227.980469 742.878906 C 230.546875 740.636719 233.003906 738.933594 234.164062 738.585938 C 235.519531 738.179688 237.59375 736.558594 241.1875 733.097656 C 244.292969 730.109375 246.960938 727.964844 248.007812 727.621094 C 248.953125 727.308594 250.824219 726.148438 252.167969 725.046875 C 255.808594 722.046875 263.652344 714.050781 266.199219 710.738281 C 267.546875 708.980469 269.691406 707.015625 271.59375 705.785156 C 275.492188 703.269531 280.140625 699.1875 282.269531 696.410156 C 283.152344 695.257812 284.714844 693.785156 285.738281 693.140625 C 286.761719 692.496094 290.78125 688.621094 294.671875 684.53125 C 298.5625 680.445312 302.5625 676.671875 303.558594 676.148438 C 304.722656 675.539062 306.589844 673.554688 308.777344 670.605469 C 310.652344 668.078125 312.890625 665.511719 313.75 664.898438 C 314.613281 664.285156 315.46875 663.378906 315.652344 662.878906 C 315.835938 662.382812 317.796875 660.035156 320.007812 657.664062 C 328.75 648.300781 331.691406 644.652344 335.621094 638.300781 C 336.441406 636.976562 337.664062 635.515625 338.34375 635.054688 C 340.664062 633.472656 346.132812 627.59375 347.160156 625.582031 C 348.773438 622.421875 351.898438 619.324219 354.066406 618.742188 C 355.875 618.253906 355.96875 618.128906 355.96875 616.265625 C 355.96875 613.898438 357.429688 610.859375 359.089844 609.769531 C 361.214844 608.378906 368.730469 599.65625 368.730469 598.582031 C 368.730469 598.378906 370.078125 596.816406 371.726562 595.109375 C 373.425781 593.355469 375.441406 590.589844 376.375 588.738281 C 377.285156 586.933594 378.257812 585.320312 378.535156 585.148438 C 379.609375 584.484375 384.285156 577.695312 384.625 576.300781 C 385.199219 573.957031 387.25 571.378906 389.988281 569.5625 C 391.808594 568.351562 393.15625 566.863281 394.738281 564.324219 C 395.953125 562.375 397.882812 559.6875 399.023438 558.351562 C 400.167969 557.019531 401.226562 555.324219 401.378906 554.585938 C 402.136719 550.875 402.828125 549.148438 404.261719 547.355469 C 405.125 546.277344 406.4375 544.34375 407.179688 543.058594 C 407.917969 541.773438 409.066406 540.371094 409.726562 539.933594 C 410.722656 539.28125 410.933594 538.746094 410.933594 536.84375 C 410.933594 534.238281 412.945312 528.273438 415.832031 522.328125 C 417.109375 519.707031 417.839844 517.425781 418.035156 515.457031 C 418.765625 508.140625 418.878906 506.378906 418.628906 506.378906 C 418.472656 506.378906 417.261719 507.0625 415.921875 507.894531 C 414.117188 509.015625 412.675781 509.480469 410.367188 509.683594 C 407.882812 509.902344 406.925781 510.238281 405.648438 511.351562 C 403.5 513.21875 401.765625 514.046875 399.355469 514.351562 C 398.25 514.492188 395.003906 515.628906 392.144531 516.875 C 389.28125 518.121094 386.257812 519.140625 385.421875 519.140625 C 384.585938 519.140625 382.996094 519.605469 381.886719 520.167969 C 380.777344 520.734375 378.597656 521.378906 377.046875 521.597656 C 374.222656 521.996094 371.894531 522.914062 367.753906 525.253906 C 366.324219 526.066406 364.78125 526.507812 363.339844 526.519531 C 362.121094 526.527344 360.570312 526.851562 359.894531 527.238281 C 359.160156 527.660156 357.273438 527.945312 355.171875 527.957031 C 352.980469 527.96875 351.488281 528.203125 351.183594 528.585938 C 350.910156 528.921875 350.539062 530.964844 350.351562 533.125 C 349.90625 538.304688 349.328125 540.382812 347.855469 542.136719 C 347.183594 542.933594 346.296875 544.539062 345.886719 545.703125 C 345.476562 546.867188 344.707031 548.28125 344.179688 548.84375 C 343.648438 549.40625 343.023438 550.898438 342.789062 552.15625 C 342.269531 554.929688 341.25 556.578125 339.351562 557.699219 C 338.425781 558.25 337.71875 559.230469 337.335938 560.511719 C 336.523438 563.214844 334.730469 565.929688 332.886719 567.242188 C 332.039062 567.847656 330.105469 570.023438 328.59375 572.082031 C 327.078125 574.136719 325.222656 576.402344 324.464844 577.121094 C 323.710938 577.835938 323.089844 578.671875 323.089844 578.980469 C 323.089844 579.800781 318.238281 586.859375 317.675781 586.859375 C 317.410156 586.859375 315.871094 588.074219 314.257812 589.558594 C 312.644531 591.042969 311.097656 592.257812 310.820312 592.257812 C 310.546875 592.257812 309.800781 593.417969 309.164062 594.835938 C 308.375 596.59375 306.824219 598.53125 304.265625 600.957031 C 302.203125 602.910156 300.519531 604.703125 300.519531 604.941406 C 300.519531 605.179688 299.691406 605.957031 298.675781 606.667969 C 297.664062 607.378906 295.621094 609.421875 294.136719 611.207031 C 292.359375 613.347656 290.65625 614.828125 289.148438 615.539062 C 287.890625 616.132812 286.304688 617.277344 285.628906 618.082031 C 284.953125 618.882812 283.652344 619.945312 282.734375 620.441406 C 281.761719 620.960938 280.59375 622.226562 279.9375 623.460938 C 278.445312 626.277344 275.722656 629.40625 273.992188 630.300781 C 273.222656 630.703125 272.21875 631.808594 271.765625 632.765625 C 270.902344 634.585938 267.980469 637.226562 265.347656 638.5625 C 264.355469 639.066406 263.597656 639.949219 263.25 641.003906 C 262.578125 643.039062 261.101562 644.46875 258.597656 645.515625 C 256.03125 646.589844 251.65625 650.429688 250.542969 652.589844 C 250.046875 653.546875 248.886719 654.808594 247.96875 655.386719 C 246.277344 656.445312 243.917969 658.5 239.421875 662.835938 C 237.6875 664.511719 236.296875 665.371094 234.671875 665.777344 C 233.121094 666.167969 232.054688 666.800781 231.394531 667.730469 C 230.855469 668.488281 229.65625 669.515625 228.730469 670.015625 C 227.757812 670.539062 226.417969 671.976562 225.550781 673.425781 C 224.171875 675.730469 219.996094 679.96875 216.023438 683.097656 C 213.699219 684.929688 206.894531 688.441406 205.675781 688.441406 C 205.105469 688.441406 204.179688 688.878906 203.609375 689.414062 C 203.039062 689.949219 201.011719 691.144531 199.097656 692.078125 C 196.96875 693.113281 195.183594 694.378906 194.5 695.335938 C 193.011719 697.429688 187.164062 700.1875 183.128906 700.703125 C 181.433594 700.917969 179.050781 701.460938 177.835938 701.902344 C 170.6875 704.519531 167.117188 705.617188 165.757812 705.617188 C 164.910156 705.617188 163.230469 706.054688 162.023438 706.585938 C 160.078125 707.449219 158.8125 707.550781 150.796875 707.496094 C 145.832031 707.464844 140.109375 707.589844 138.085938 707.789062 C 133.917969 708.191406 130.332031 707.574219 128.246094 706.089844 C 127.449219 705.519531 126.09375 705.125 124.945312 705.125 C 122.46875 705.125 119.507812 704.082031 116.855469 702.277344 C 115.710938 701.496094 112.566406 699.777344 109.871094 698.460938 C 104.71875 695.941406 101.839844 693.6875 99.539062 690.371094 C 98.78125 689.273438 97.191406 687.8125 96.007812 687.117188 C 94.824219 686.421875 92.929688 684.652344 91.800781 683.183594 C 90.671875 681.714844 89.140625 679.722656 88.398438 678.757812 C 87.65625 677.792969 86.816406 676.097656 86.535156 674.992188 C 86.25 673.886719 85.699219 672.148438 85.308594 671.132812 C 84.917969 670.117188 84.589844 668.347656 84.582031 667.207031 C 84.570312 665.878906 84.128906 664.421875 83.355469 663.167969 C 82.691406 662.089844 82.152344 660.542969 82.15625 659.734375 C 82.160156 658.921875 81.675781 654.648438 81.085938 650.234375 L 80.007812 642.210938 L 81.054688 638.949219 C 81.632812 637.15625 82.46875 634.582031 82.914062 633.234375 C 83.359375 631.882812 83.785156 629.566406 83.859375 628.082031 C 83.9375 626.523438 84.617188 623.828125 85.464844 621.699219 C 86.269531 619.675781 87.175781 616.859375 87.476562 615.4375 C 87.777344 614.019531 88.605469 611.480469 89.316406 609.796875 C 90.027344 608.113281 91.046875 605.410156 91.578125 603.789062 C 92.109375 602.171875 93.257812 599.410156 94.136719 597.65625 C 95.011719 595.902344 96.109375 593.320312 96.570312 591.917969 C 97.035156 590.519531 98.175781 588.542969 99.101562 587.527344 C 100.214844 586.3125 100.789062 585.199219 100.789062 584.261719 C 100.789062 581.992188 102.160156 579.707031 104.941406 577.332031 C 107.511719 575.132812 108.019531 574.277344 109.097656 570.296875 C 109.449219 569 110.386719 567.511719 111.570312 566.371094 C 112.773438 565.210938 113.882812 563.441406 114.566406 561.585938 C 116.023438 557.636719 117.167969 556.117188 119.601562 554.894531 C 123.214844 553.082031 124.617188 551.742188 125.273438 549.484375 C 126.207031 546.273438 129.730469 540.367188 131.527344 538.996094 C 132.40625 538.328125 133.722656 536.671875 134.460938 535.316406 C 135.199219 533.960938 136.542969 532.398438 137.449219 531.835938 C 138.351562 531.277344 139.472656 530.078125 139.941406 529.171875 C 140.40625 528.265625 142.472656 525.800781 144.539062 523.699219 C 147.226562 520.957031 148.441406 519.320312 148.820312 517.910156 C 149.632812 514.902344 150.710938 513.738281 154.140625 512.183594 C 155.871094 511.398438 158.238281 509.878906 159.402344 508.808594 C 161.171875 507.179688 161.570312 506.46875 161.835938 504.441406 C 162.277344 501.136719 165.84375 496.339844 168.816406 495.066406 C 170.78125 494.226562 178.816406 486.613281 178.816406 485.59375 C 178.816406 485.25 185.644531 478.429688 189.367188 475.058594 C 189.90625 474.570312 190.699219 473.511719 191.128906 472.703125 C 191.558594 471.898438 193.65625 470.007812 195.792969 468.507812 C 200.019531 465.53125 201.265625 464.402344 203.792969 461.246094 C 204.707031 460.101562 206.585938 458.421875 207.964844 457.511719 C 209.339844 456.605469 212.125 454.070312 214.148438 451.878906 C 223.398438 441.878906 223.632812 441.667969 225.828125 441.316406 C 227.660156 441.023438 228.003906 440.753906 228.804688 438.964844 C 229.90625 436.503906 231.164062 435.332031 233.597656 434.496094 C 235.617188 433.800781 238.183594 431.582031 245.34375 424.332031 C 249.945312 419.675781 253.070312 417.558594 255.34375 417.558594 C 256.871094 417.558594 261.628906 414.789062 261.976562 413.695312 C 262.457031 412.179688 264.832031 410.332031 267.992188 409.015625 C 269.671875 408.316406 271.328125 407.742188 271.675781 407.742188 C 272.023438 407.742188 273.335938 407.199219 274.589844 406.53125 C 275.839844 405.863281 277.828125 405.164062 279 404.976562 C 280.175781 404.792969 281.90625 404.03125 282.851562 403.289062 C 283.972656 402.40625 286.441406 401.429688 289.96875 400.472656 C 299.214844 397.964844 300.242188 397.824219 302.609375 398.75 C 304.003906 399.292969 306.304688 399.578125 309.597656 399.617188 C 313.121094 399.648438 314.921875 399.894531 315.984375 400.46875 C 318.132812 401.632812 325.917969 404.628906 328.488281 405.289062 C 331.828125 406.140625 334.070312 407.855469 337.078125 411.855469 C 339.042969 414.460938 340.195312 415.554688 341.195312 415.753906 C 343.292969 416.175781 345.386719 418.203125 347.917969 422.269531 C 349.4375 424.703125 350.289062 426.671875 350.453125 428.125 C 350.589844 429.332031 350.808594 430.316406 350.945312 430.316406 C 352.003906 430.316406 358.492188 427.488281 362.085938 425.460938 C 364.503906 424.097656 367.621094 422.746094 369.011719 422.457031 C 371.285156 421.984375 376.011719 419.378906 379.5625 416.636719 C 381.679688 415.003906 385.972656 413.46875 390.320312 412.792969 C 391.300781 412.636719 392.832031 411.8125 393.878906 410.871094 C 394.894531 409.960938 395.941406 409.214844 396.210938 409.214844 C 396.480469 409.214844 396.699219 408.230469 396.699219 407.03125 C 396.699219 403.808594 393.542969 398.164062 388.871094 393.039062 C 386.773438 390.734375 384.554688 387.859375 383.941406 386.652344 C 381.992188 382.8125 380.476562 380.859375 378.960938 380.234375 C 378.152344 379.898438 376.480469 378.453125 375.242188 377.019531 C 373.855469 375.414062 372.015625 373.953125 370.4375 373.207031 C 369.03125 372.539062 367.242188 371.230469 366.464844 370.296875 C 365.585938 369.242188 363.1875 367.65625 360.140625 366.113281 C 357.441406 364.746094 354.570312 363.179688 353.761719 362.625 C 352.953125 362.070312 351.722656 361.621094 351.03125 361.617188 C 349.640625 361.617188 340.699219 357.355469 337.480469 355.160156 C 335.78125 354.003906 334.914062 353.761719 332.464844 353.761719 C 330.835938 353.761719 328.777344 353.4375 327.890625 353.039062 C 327.003906 352.640625 324.164062 351.542969 321.578125 350.597656 C 317.617188 349.148438 316.617188 348.953125 315.226562 349.351562 C 314.132812 349.664062 312.925781 349.648438 311.648438 349.304688 C 310.585938 349.019531 306.929688 348.675781 303.523438 348.539062 C 300.117188 348.402344 296.214844 348.246094 294.851562 348.1875 C 293.488281 348.125 291.691406 347.792969 290.851562 347.445312 C 289.574219 346.917969 289.101562 346.933594 287.902344 347.554688 C 287.097656 347.96875 284.347656 348.4375 281.597656 348.621094 C 278.84375 348.804688 275.585938 349.355469 274.121094 349.882812 C 272.695312 350.398438 270.898438 350.820312 270.132812 350.820312 C 269.367188 350.820312 267.945312 351.148438 266.976562 351.554688 C 266.007812 351.960938 264.464844 352.289062 263.542969 352.289062 C 261.6875 352.289062 258.777344 353.371094 256.742188 354.820312 C 256.011719 355.335938 254.6875 356.007812 253.796875 356.308594 C 252.90625 356.609375 251.585938 357.269531 250.863281 357.773438 C 250.140625 358.277344 248.699219 358.988281 247.660156 359.355469 C 245.152344 360.242188 233.917969 365.742188 232.058594 366.996094 C 231.25 367.539062 229.558594 368.332031 228.296875 368.753906 C 227.007812 369.183594 225.664062 370.039062 225.222656 370.710938 C 224.242188 372.207031 221.265625 373.753906 218.527344 374.191406 C 216.855469 374.457031 215.917969 375.054688 213.890625 377.148438 C 212.496094 378.589844 211.085938 379.769531 210.761719 379.769531 C 210.4375 379.769531 209.863281 380.511719 209.484375 381.417969 C 208.8125 383.03125 205.734375 386.148438 204.816406 386.148438 C 203.785156 386.148438 198.902344 389.695312 198.214844 390.945312 C 196.917969 393.304688 193.199219 397.121094 190.945312 398.402344 C 186.863281 400.722656 183.707031 403.425781 182.402344 405.710938 C 180.660156 408.773438 179.40625 410.113281 177.265625 411.214844 C 176.171875 411.773438 175.019531 412.953125 174.320312 414.21875 C 173.621094 415.484375 172.402344 416.726562 171.207031 417.386719 C 170.082031 418.011719 168.714844 419.371094 168 420.570312 C 167.082031 422.117188 166.023438 423.027344 163.984375 424.03125 C 162.300781 424.863281 160.574219 426.214844 159.585938 427.476562 C 158.691406 428.617188 156.496094 430.992188 154.710938 432.757812 C 152.921875 434.519531 150.828125 436.824219 150.050781 437.878906 C 149.277344 438.933594 148.003906 440.1875 147.226562 440.660156 C 145.84375 441.503906 144.800781 442.957031 142.332031 447.492188 C 140.839844 450.230469 139.332031 451.625 137.09375 452.339844 C 135.902344 452.71875 135.066406 453.445312 134.40625 454.667969 C 133.878906 455.648438 132.957031 456.769531 132.355469 457.164062 C 131.75 457.558594 130.453125 459.511719 129.46875 461.507812 C 128.027344 464.421875 126.773438 465.988281 123.066406 469.496094 C 119.660156 472.722656 118.15625 474.546875 117.285156 476.5 C 116.636719 477.953125 115.53125 479.679688 114.824219 480.335938 C 114.121094 480.992188 112.863281 482.730469 112.035156 484.199219 C 110.617188 486.714844 107.023438 491.039062 102.167969 496.082031 C 99.328125 499.03125 94.574219 505.910156 93.472656 508.667969 C 93.132812 509.523438 91.824219 511.199219 90.566406 512.386719 C 87.058594 515.703125 84.175781 519.511719 83.621094 521.5625 C 83.347656 522.578125 81.789062 525.15625 80.160156 527.285156 C 78.53125 529.417969 76.433594 532.304688 75.503906 533.703125 C 74.574219 535.101562 73.605469 536.375 73.351562 536.53125 C 73.101562 536.6875 72.535156 537.898438 72.09375 539.222656 C 71.652344 540.550781 70.441406 542.601562 69.398438 543.789062 C 68.273438 545.0625 67.359375 546.695312 67.152344 547.785156 C 66.964844 548.800781 66.105469 550.664062 65.246094 551.925781 C 64.386719 553.191406 63.402344 554.925781 63.054688 555.78125 C 62.710938 556.636719 61.707031 557.992188 60.824219 558.792969 C 59.742188 559.78125 59.121094 560.878906 58.914062 562.167969 C 58.746094 563.222656 57.832031 565.175781 56.878906 566.511719 C 55.929688 567.851562 55.152344 569.144531 55.152344 569.390625 C 55.152344 569.636719 54.621094 570.535156 53.96875 571.386719 C 53.316406 572.242188 52.546875 573.820312 52.257812 574.894531 C 51.96875 575.972656 50.957031 577.945312 50.007812 579.277344 C 49.058594 580.609375 48.28125 581.933594 48.28125 582.214844 C 48.28125 582.496094 47.628906 583.488281 46.828125 584.425781 C 46.03125 585.359375 45.367188 586.6875 45.359375 587.375 C 45.332031 589.035156 42.121094 595.582031 39.226562 599.863281 C 37.953125 601.753906 35.90625 605.09375 34.683594 607.289062 C 32.984375 610.335938 31.996094 611.542969 30.523438 612.371094 C 29.460938 612.96875 27.589844 614.429688 26.367188 615.617188 C 25.144531 616.800781 23.960938 617.773438 23.734375 617.773438 C 23.507812 617.773438 23.90625 618.820312 24.621094 620.09375 C 25.871094 622.332031 25.917969 622.703125 25.9375 630.34375 C 25.953125 637.417969 25.855469 638.382812 25.035156 639.292969 C 24.53125 639.855469 23.921875 641.359375 23.679688 642.640625 C 23.441406 643.921875 22.664062 645.808594 21.957031 646.832031 C 20.789062 648.515625 20.703125 648.945312 21.058594 651.269531 C 21.566406 654.582031 21.574219 656.621094 21.113281 665.867188 C 20.535156 677.386719 20.679688 678.652344 23.304688 685.25 C 24.210938 687.519531 24.242188 688.105469 23.730469 693.101562 C 23.425781 696.070312 23.105469 700.488281 23.019531 702.917969 C 22.835938 708.179688 23.351562 709.34375 26.074219 709.816406 C 28.683594 710.269531 31.152344 712.019531 32.578125 714.429688 C 35.542969 719.433594 38.582031 723.746094 41.132812 726.558594 C 42.644531 728.222656 44.285156 730.492188 44.78125 731.601562 C 45.277344 732.707031 46.601562 734.398438 47.722656 735.359375 C 48.84375 736.316406 50.769531 738.417969 52.007812 740.023438 C 53.5 741.964844 54.996094 743.292969 56.464844 743.984375 C 57.789062 744.605469 59.164062 745.765625 59.898438 746.875 C 60.820312 748.269531 62.246094 749.296875 65.625 751.011719 C 68.097656 752.265625 70.453125 753.5625 70.855469 753.898438 C 71.261719 754.230469 72.507812 754.902344 73.628906 755.386719 C 74.75 755.871094 76.511719 757.132812 77.542969 758.1875 C 78.976562 759.65625 80.238281 760.351562 82.867188 761.121094 C 84.761719 761.675781 87.164062 762.679688 88.203125 763.355469 C 90.628906 764.929688 93.609375 765.976562 95.671875 765.976562 C 97.359375 765.976562 99.410156 766.992188 103.332031 769.78125 C 105.199219 771.109375 106.441406 771.535156 110.007812 772.066406 C 112.996094 772.515625 115.113281 773.144531 116.65625 774.046875 C 118.042969 774.863281 119.28125 775.257812 119.859375 775.078125 C 120.867188 774.753906 123.40625 775.277344 126.554688 776.457031 C 128.109375 777.039062 130.039062 777.136719 135.878906 776.929688 C 139.925781 776.789062 145.558594 776.613281 148.390625 776.554688 Z M 148.523438 687.359375 C 149.3125 687.058594 151.089844 686.984375 152.78125 687.171875 C 155.269531 687.453125 156.125 687.3125 158.753906 686.207031 C 160.722656 685.378906 163.15625 684.816406 165.535156 684.640625 C 168.460938 684.425781 169.90625 684.015625 172.355469 682.722656 C 174.757812 681.453125 176.058594 681.078125 178.082031 681.078125 C 180.464844 681.078125 180.925781 680.886719 183.21875 678.929688 C 184.984375 677.421875 186.648438 676.527344 188.78125 675.9375 C 190.613281 675.433594 192.40625 674.539062 193.292969 673.695312 C 194.101562 672.925781 195.546875 671.96875 196.503906 671.570312 C 197.460938 671.171875 200.0625 669.082031 202.289062 666.929688 C 205.378906 663.9375 207.054688 662.726562 209.382812 661.796875 C 211.925781 660.78125 212.636719 660.226562 213.675781 658.4375 C 214.59375 656.859375 215.65625 655.914062 217.746094 654.824219 C 219.488281 653.917969 221.03125 652.667969 221.761719 651.5625 C 222.414062 650.578125 223.675781 649.320312 224.5625 648.765625 C 225.449219 648.210938 226.613281 647.074219 227.152344 646.238281 C 227.695312 645.40625 229.128906 644.097656 230.34375 643.328125 C 231.558594 642.5625 234.730469 639.8125 237.394531 637.21875 C 240.058594 634.621094 242.417969 632.496094 242.640625 632.496094 C 242.859375 632.496094 244.0625 631.613281 245.308594 630.539062 C 246.554688 629.457031 248.101562 628.445312 248.75 628.28125 C 250.046875 627.957031 253.429688 623.773438 254.539062 621.121094 C 254.925781 620.1875 255.953125 618.886719 256.820312 618.234375 C 259.296875 616.351562 260.460938 615.132812 261.324219 613.507812 C 261.828125 612.566406 263.210938 611.425781 265.03125 610.457031 C 266.632812 609.605469 268.292969 608.304688 268.730469 607.570312 C 270.105469 605.242188 277.140625 598.257812 278.800781 597.574219 C 279.882812 597.128906 280.746094 596.214844 281.5 594.714844 C 282.175781 593.367188 283.421875 591.96875 284.703125 591.117188 C 285.859375 590.347656 287.242188 588.855469 287.789062 587.785156 C 288.417969 586.554688 289.714844 585.238281 291.335938 584.195312 C 292.742188 583.292969 294.289062 581.871094 294.769531 581.042969 C 295.25 580.210938 296.296875 579.148438 297.09375 578.679688 C 297.886719 578.210938 298.875 577.117188 299.285156 576.25 C 300.074219 574.589844 302.375 572.398438 303.828125 571.925781 C 304.300781 571.769531 305.769531 569.980469 307.089844 567.949219 C 308.410156 565.914062 310.105469 563.816406 310.855469 563.28125 C 311.617188 562.742188 312.371094 561.625 312.558594 560.761719 C 312.746094 559.910156 313.828125 558.203125 314.964844 556.964844 C 316.101562 555.730469 317.496094 553.941406 318.066406 552.992188 C 318.636719 552.042969 319.769531 550.773438 320.582031 550.175781 C 321.507812 549.488281 322.816406 547.480469 324.09375 544.785156 C 325.214844 542.417969 326.550781 539.683594 327.0625 538.703125 C 327.578125 537.71875 328 536.695312 328 536.425781 C 328 535.4375 324.375 535.441406 322.152344 536.433594 C 320.628906 537.113281 319.429688 537.3125 318.132812 537.101562 C 316.734375 536.878906 315.839844 537.074219 314.480469 537.871094 C 313.023438 538.730469 311.445312 539.015625 306.230469 539.363281 C 298.460938 539.886719 297.238281 539.871094 296.078125 539.257812 C 294.589844 538.460938 288.574219 538.710938 285.234375 539.710938 C 281.710938 540.761719 274.007812 540.796875 267.882812 539.785156 C 265.996094 539.476562 262.902344 539.09375 261.015625 538.933594 C 259.125 538.773438 256.996094 538.347656 256.28125 537.988281 C 255.566406 537.625 253.9375 537.09375 252.667969 536.808594 C 251.394531 536.523438 249.40625 535.640625 248.253906 534.84375 C 247.097656 534.050781 244.921875 532.941406 243.421875 532.378906 C 240.945312 531.453125 238.195312 529.121094 238.195312 527.949219 C 238.195312 527.703125 237.585938 527.359375 236.84375 527.1875 C 233.976562 526.511719 231.769531 524.820312 229.890625 521.863281 C 228.855469 520.234375 227.40625 518.347656 226.675781 517.671875 C 224.902344 516.039062 224.246094 514.691406 222.445312 508.984375 C 220.246094 502.027344 219.53125 500.496094 217.390625 498.152344 C 215.636719 496.234375 215.429688 495.710938 214.96875 492.019531 C 214.695312 489.800781 214.464844 485.734375 214.464844 482.980469 C 214.464844 478.371094 214.398438 478.019531 213.605469 478.441406 C 213.132812 478.695312 212.242188 479.621094 211.628906 480.496094 C 208.851562 484.464844 206.855469 486.445312 204.308594 487.738281 C 201.730469 489.050781 200.882812 489.960938 198.285156 494.210938 C 197.84375 494.9375 196.523438 496.1875 195.355469 496.992188 C 194.1875 497.796875 192.648438 499.335938 191.933594 500.414062 C 191.222656 501.488281 188.980469 503.617188 186.953125 505.144531 C 184.441406 507.035156 182.671875 508.851562 181.410156 510.847656 C 178.050781 516.144531 176.597656 517.898438 174.328125 519.390625 C 171.996094 520.921875 170.09375 522.9375 168.996094 525.03125 C 168.023438 526.894531 165.167969 530.292969 161.808594 533.59375 C 160.148438 535.226562 158.210938 537.722656 157.507812 539.136719 C 156.695312 540.773438 155.535156 542.171875 154.328125 542.96875 C 153.03125 543.828125 152.164062 544.921875 151.59375 546.417969 C 151.082031 547.753906 149.707031 549.609375 148.066406 551.175781 C 146.585938 552.585938 145.035156 554.574219 144.617188 555.59375 C 144.199219 556.609375 142.699219 558.488281 141.285156 559.765625 C 139.871094 561.039062 138.429688 562.632812 138.082031 563.308594 C 137.738281 563.984375 136.855469 565.308594 136.125 566.253906 C 135.394531 567.199219 133.859375 569.738281 132.714844 571.898438 C 131.570312 574.054688 130.25 576.265625 129.777344 576.804688 C 129.308594 577.34375 128.644531 578.488281 128.304688 579.34375 C 127.96875 580.203125 127.242188 581.304688 126.691406 581.796875 C 126.140625 582.289062 125.300781 583.601562 124.820312 584.710938 C 124.339844 585.816406 122.933594 587.871094 121.691406 589.269531 C 120.449219 590.667969 118.742188 593.183594 117.894531 594.859375 C 117.050781 596.535156 115.863281 598.566406 115.261719 599.378906 C 114.660156 600.1875 114.050781 601.789062 113.90625 602.933594 C 113.761719 604.082031 113.015625 606.035156 112.246094 607.277344 C 110.015625 610.878906 109.777344 611.398438 108.125 616.308594 C 107.261719 618.871094 106.152344 622.085938 105.660156 623.449219 C 104.855469 625.699219 103.957031 629.332031 102.707031 635.445312 C 102.457031 636.660156 101.855469 638.207031 101.367188 638.882812 C 99.9375 640.859375 99.824219 641.613281 100.515625 644.621094 C 101.445312 648.65625 102.261719 654.261719 102.261719 656.574219 C 102.261719 657.65625 102.613281 659.082031 103.042969 659.738281 C 103.476562 660.394531 104.007812 662.398438 104.230469 664.195312 C 104.558594 666.828125 104.917969 667.753906 106.097656 668.996094 C 106.898438 669.839844 108 671.417969 108.542969 672.496094 C 109.652344 674.703125 111.132812 676.199219 113.304688 677.300781 C 114.113281 677.710938 115.328125 678.644531 116.003906 679.375 C 116.679688 680.105469 118.394531 681.449219 119.816406 682.363281 C 121.820312 683.652344 122.925781 684.03125 124.722656 684.03125 C 126.214844 684.03125 127.570312 684.382812 128.515625 685.011719 C 129.328125 685.546875 130.761719 685.988281 131.707031 685.992188 C 132.652344 685.992188 134.96875 686.539062 136.859375 687.207031 C 139.714844 688.210938 140.875 688.371094 143.730469 688.144531 C 145.621094 687.992188 147.777344 687.644531 148.523438 687.363281 Z M 288.496094 519.714844 C 290.632812 519.117188 292.984375 518.929688 297.082031 519.023438 C 302.367188 519.148438 306.683594 518.628906 312.050781 517.222656 C 314.027344 516.707031 316.144531 516.863281 318.992188 517.730469 C 320.324219 518.136719 320.863281 517.996094 322.890625 516.707031 C 324.1875 515.886719 325.851562 515.214844 326.589844 515.214844 C 327.328125 515.214844 328.472656 515.011719 329.125 514.761719 C 329.78125 514.511719 332.390625 513.953125 334.925781 513.515625 C 339.25 512.773438 342.394531 511.746094 347.628906 509.367188 C 349.109375 508.695312 350.886719 508.359375 353.027344 508.351562 C 356.96875 508.335938 358.808594 507.839844 365.117188 505.105469 C 367.855469 503.917969 370.835938 502.941406 371.742188 502.9375 C 374.742188 502.925781 378.925781 501.652344 380.59375 500.246094 C 382.941406 498.265625 384.988281 497.546875 388.277344 497.546875 C 390.429688 497.546875 391.492188 497.296875 392.417969 496.566406 C 393.105469 496.027344 395.066406 494.957031 396.777344 494.1875 C 398.488281 493.421875 400.191406 492.429688 400.558594 491.988281 C 401.910156 490.359375 404.394531 489.273438 407.867188 488.796875 C 411.019531 488.363281 411.691406 488.070312 413.753906 486.25 C 416.449219 483.878906 418.625 482.675781 421.730469 481.855469 C 422.945312 481.53125 424.488281 480.75 425.164062 480.117188 C 426.636719 478.734375 428.640625 477.917969 430.578125 477.917969 C 431.363281 477.917969 432.839844 477.492188 433.859375 476.96875 C 434.878906 476.445312 436.582031 475.863281 437.644531 475.671875 C 439.875 475.269531 447.675781 470.25 448.84375 468.464844 C 449.691406 467.171875 453.710938 465.082031 457.101562 464.167969 C 460.777344 463.179688 467.503906 459.476562 469.847656 457.160156 C 471.949219 455.078125 472.792969 454.683594 477.261719 453.679688 C 477.980469 453.519531 479.730469 452.394531 481.148438 451.183594 C 483.203125 449.433594 484.335938 448.867188 486.710938 448.40625 C 489.804688 447.808594 490.609375 447.191406 495.097656 441.957031 C 496.488281 440.339844 497.335938 439.957031 501.796875 438.957031 C 502.511719 438.796875 504.421875 437.363281 506.035156 435.773438 C 507.785156 434.054688 509.738281 432.636719 510.863281 432.277344 C 512.566406 431.734375 515.949219 429.640625 520.855469 426.105469 C 522.941406 424.601562 530.671875 417.074219 530.671875 416.546875 C 530.671875 416.335938 531.5 415.664062 532.511719 415.050781 C 533.523438 414.433594 535.125 413.328125 536.066406 412.589844 C 537.011719 411.851562 539 410.957031 540.480469 410.601562 C 543.027344 409.988281 543.300781 409.769531 545.519531 406.535156 C 546.875 404.558594 548.738281 402.558594 549.941406 401.789062 C 551.082031 401.058594 554.445312 398.125 557.414062 395.273438 C 560.382812 392.421875 563.734375 389.597656 564.863281 389 C 566.402344 388.179688 567.195312 387.300781 568.050781 385.460938 C 569.191406 383.015625 575.117188 376.523438 578.074219 374.484375 C 579.175781 373.71875 580.097656 372.226562 581.453125 368.992188 C 583.070312 365.136719 583.761719 364.128906 586.667969 361.390625 C 589.925781 358.316406 590.402344 357.554688 592.753906 351.710938 C 593.371094 350.179688 594.5625 348.023438 595.398438 346.925781 C 596.234375 345.832031 597.625 344.003906 598.492188 342.871094 C 599.65625 341.34375 600.152344 340.082031 600.398438 338 C 600.589844 336.378906 601.167969 334.566406 601.769531 333.726562 C 602.644531 332.496094 602.808594 331.5625 602.808594 327.789062 C 602.808594 323.917969 602.984375 322.960938 604.101562 320.75 C 605.539062 317.914062 605.660156 316.28125 605.125 306.675781 C 604.695312 298.917969 603.160156 294.839844 599.371094 291.386719 C 597.886719 290.035156 595.644531 287.9375 594.390625 286.734375 C 593.113281 285.507812 589.976562 283.457031 587.28125 282.085938 C 584.628906 280.734375 581.902344 279.113281 581.222656 278.480469 C 579.0625 276.46875 577.859375 276.09375 574.730469 276.449219 C 572.382812 276.714844 571.433594 276.585938 569.773438 275.808594 C 568.480469 275.195312 566.355469 274.773438 564.039062 274.65625 C 560.921875 274.503906 559.738281 274.167969 556.296875 272.460938 C 552.519531 270.589844 552.203125 270.511719 551.757812 271.34375 C 551.496094 271.835938 551.28125 272.660156 551.28125 273.179688 C 551.28125 273.695312 550.621094 275.089844 549.816406 276.277344 C 548.75 277.855469 548.347656 279.03125 548.328125 280.644531 C 548.3125 281.859375 547.875 283.738281 547.355469 284.816406 C 546.238281 287.125 546.175781 288.222656 546.941406 291.929688 C 547.46875 294.488281 547.421875 294.882812 546.28125 297.371094 C 545.464844 299.15625 545.179688 300.378906 545.433594 301.023438 C 545.640625 301.554688 545.828125 303.253906 545.84375 304.792969 L 545.875 307.597656 L 547.820312 308.117188 C 550.128906 308.738281 553.722656 311.363281 554.578125 313.054688 C 555.488281 314.855469 555.324219 318.535156 554.230469 320.953125 C 553.695312 322.128906 553.253906 323.644531 553.246094 324.320312 C 553.230469 326.089844 551.527344 328.617188 549.582031 329.769531 C 548.5 330.40625 547.6875 331.386719 547.320312 332.5 C 546.636719 334.578125 539.714844 342.269531 537.144531 343.8125 C 536.144531 344.410156 534.554688 345.859375 533.609375 347.027344 C 532.054688 348.949219 528.378906 352.230469 521.265625 358.039062 C 519.875 359.175781 517.71875 360.582031 516.480469 361.164062 C 515.238281 361.742188 513.367188 362.996094 512.3125 363.941406 C 511.261719 364.890625 509.027344 366.289062 507.351562 367.050781 C 505.53125 367.875 502.894531 369.722656 500.824219 371.621094 C 496.832031 375.285156 495.597656 376.003906 491.988281 376.769531 C 490.082031 377.171875 489.039062 377.726562 488.117188 378.820312 C 487.425781 379.644531 485.285156 381.101562 483.367188 382.058594 C 481.445312 383.015625 478.867188 384.636719 477.632812 385.664062 C 476.398438 386.691406 474.476562 387.804688 473.355469 388.140625 C 472.234375 388.476562 470.050781 389.820312 468.5 391.132812 C 466.953125 392.441406 465.511719 393.511719 465.296875 393.511719 C 465.085938 393.511719 463.527344 394.152344 461.839844 394.9375 C 460.152344 395.722656 458.042969 396.515625 457.148438 396.703125 C 456.085938 396.921875 454.535156 398.03125 452.679688 399.886719 C 449.765625 402.8125 444.273438 405.828125 440.199219 406.746094 C 439.160156 406.976562 437.984375 407.636719 437.585938 408.207031 C 435.308594 411.457031 428.300781 415.382812 423.839844 415.914062 C 421.84375 416.148438 421.199219 416.457031 420.6875 417.417969 C 419.753906 419.160156 417.964844 420.273438 414.109375 421.519531 C 412.238281 422.125 409.269531 423.609375 407.503906 424.824219 C 404.023438 427.214844 399.863281 429.324219 398.601562 429.332031 C 398.164062 429.332031 396.289062 430.550781 394.429688 432.039062 C 390.558594 435.140625 387.648438 436.695312 385.71875 436.695312 C 384.105469 436.695312 382.066406 437.691406 380.789062 439.105469 C 380.273438 439.675781 378.800781 440.453125 377.519531 440.832031 C 376.238281 441.214844 374.59375 441.914062 373.871094 442.390625 C 373.144531 442.863281 371.347656 443.417969 369.875 443.617188 C 367.699219 443.910156 366.800781 444.347656 365.0625 445.949219 C 363.792969 447.121094 362.058594 448.148438 360.792969 448.476562 C 359.621094 448.78125 357.519531 449.785156 356.121094 450.699219 C 354.726562 451.613281 352.957031 452.5 352.195312 452.667969 C 351.433594 452.832031 349.820312 453.375 348.605469 453.867188 C 347.390625 454.363281 344.960938 455.054688 343.207031 455.402344 C 341.453125 455.75 339.355469 456.507812 338.542969 457.082031 C 336.640625 458.433594 332.691406 460.066406 330.214844 460.527344 C 329.144531 460.726562 327.09375 461.410156 325.664062 462.042969 C 324.230469 462.675781 322.398438 463.195312 321.585938 463.195312 C 320.777344 463.195312 318.859375 463.636719 317.324219 464.175781 C 313.632812 465.472656 312.839844 465.425781 308.957031 463.664062 C 304.304688 461.558594 303.078125 460.84375 300.023438 458.460938 C 298.539062 457.304688 296.6875 455.871094 295.910156 455.269531 C 293.992188 453.792969 293.128906 451.488281 293.03125 447.582031 C 292.902344 442.371094 294.84375 439.753906 299.171875 439.300781 C 300.878906 439.121094 301.988281 439.453125 305.421875 441.140625 C 308.972656 442.890625 310.113281 443.214844 313.097656 443.320312 C 315.027344 443.382812 316.828125 443.582031 317.105469 443.753906 C 317.707031 444.125 322.609375 442.996094 325.15625 441.898438 C 326.160156 441.464844 327.5625 441.113281 328.277344 441.113281 C 329.621094 441.113281 334.375 438.339844 334.375 437.554688 C 334.375 436.761719 326.832031 429.078125 324.644531 427.644531 C 323.476562 426.878906 321.984375 425.398438 321.324219 424.359375 C 320.390625 422.878906 319.820312 422.464844 318.726562 422.464844 C 316.894531 422.464844 313.46875 421.242188 311.308594 419.824219 C 307.152344 417.089844 303.277344 416.625 299.777344 418.4375 C 298.96875 418.855469 297.199219 419.46875 295.851562 419.800781 C 293.269531 420.4375 288.035156 422.464844 281.84375 425.226562 C 279.808594 426.136719 277.820312 426.882812 277.425781 426.886719 C 277.035156 426.886719 275.734375 427.558594 274.542969 428.367188 C 273.347656 429.175781 271.511719 429.976562 270.464844 430.144531 C 268.84375 430.40625 268.316406 430.828125 266.941406 432.957031 C 264.746094 436.367188 261.1875 439.320312 256.566406 441.574219 C 255.472656 442.105469 253.890625 443.503906 253.042969 444.679688 C 251.125 447.351562 248.398438 449.261719 245.621094 449.878906 C 242.96875 450.46875 240.972656 452.332031 239.464844 455.621094 C 238.753906 457.175781 237.578125 458.683594 236.410156 459.542969 C 235.363281 460.3125 232.851562 462.507812 230.828125 464.425781 C 228.804688 466.34375 226.375 468.214844 225.429688 468.578125 C 223.640625 469.269531 221.503906 470.925781 221.503906 471.621094 C 221.503906 471.84375 222.050781 472.027344 222.714844 472.027344 C 224.878906 472.027344 229.5625 474.097656 231.128906 475.746094 C 232.710938 477.40625 233.773438 480.515625 233.773438 483.472656 C 233.773438 484.398438 234.324219 486.625 235 488.417969 C 235.675781 490.210938 236.226562 492.191406 236.226562 492.816406 C 236.226562 494.933594 242.640625 506.324219 245.808594 509.828125 C 246.339844 510.417969 247.992188 511.527344 249.476562 512.285156 C 250.960938 513.050781 253.5 514.683594 255.121094 515.921875 C 256.738281 517.160156 258.617188 518.28125 259.292969 518.417969 C 259.964844 518.554688 261.542969 518.992188 262.792969 519.390625 C 264.042969 519.792969 266.363281 520.128906 267.945312 520.148438 C 269.527344 520.160156 271.707031 520.34375 272.785156 520.546875 C 275.8125 521.125 285.207031 520.625 288.488281 519.710938 Z M 599.03125 478.082031 C 601.761719 477.316406 602.101562 477.316406 604.460938 478.113281 C 606.886719 478.925781 607.121094 478.917969 610.859375 477.949219 C 615.355469 476.785156 616.597656 476.722656 618.867188 477.542969 C 620.15625 478.007812 620.699219 478.007812 621.355469 477.550781 C 624.03125 475.664062 625.230469 475.296875 628.46875 475.382812 C 631.265625 475.460938 632.25 475.242188 634.601562 474.0625 C 636.144531 473.289062 638.125 472.496094 639.011719 472.304688 C 639.894531 472.113281 641.265625 471.414062 642.058594 470.746094 C 642.875 470.058594 644.726562 469.28125 646.339844 468.949219 C 647.90625 468.625 649.84375 467.894531 650.65625 467.324219 C 653.265625 465.480469 655.328125 464.625 657.476562 464.5 C 659.632812 464.375 660.011719 464.117188 667.035156 458.054688 C 668.285156 456.976562 670.238281 455.679688 671.367188 455.171875 C 672.59375 454.621094 673.925781 453.496094 674.65625 452.386719 C 675.335938 451.363281 676.554688 450.136719 677.363281 449.65625 C 678.175781 449.175781 679.164062 447.976562 679.558594 446.988281 C 680.363281 444.980469 682.738281 442.753906 684.570312 442.292969 C 685.292969 442.113281 686.152344 441.273438 686.703125 440.210938 C 687.210938 439.230469 688.875 437.210938 690.402344 435.726562 C 691.929688 434.246094 693.617188 432.183594 694.152344 431.152344 C 694.75 429.996094 696.054688 428.691406 697.535156 427.773438 C 698.863281 426.949219 700.078125 425.867188 700.234375 425.367188 C 700.390625 424.871094 701.28125 423.554688 702.210938 422.441406 C 703.136719 421.332031 703.898438 419.914062 703.898438 419.296875 C 703.898438 417.722656 706.78125 413.6875 709.164062 411.925781 C 710.261719 411.117188 711.394531 409.964844 711.683594 409.363281 C 711.972656 408.761719 714.238281 405.558594 716.71875 402.246094 C 722.003906 395.195312 723.675781 392.53125 724.507812 389.84375 C 724.84375 388.765625 726.003906 386.695312 727.082031 385.246094 C 728.160156 383.800781 729.335938 381.511719 729.691406 380.164062 C 730.046875 378.820312 730.859375 376.914062 731.5 375.929688 C 732.140625 374.945312 733.480469 372.910156 734.476562 371.40625 C 735.472656 369.902344 736.285156 368.402344 736.285156 368.070312 C 736.285156 367.109375 737.773438 364.464844 739.296875 362.714844 C 740.070312 361.828125 740.703125 360.890625 740.703125 360.628906 C 740.703125 359.792969 745.1875 350.644531 746.371094 349.0625 C 747.453125 347.617188 748.617188 344.753906 750.335938 339.300781 C 750.761719 337.949219 751.75 335.972656 752.53125 334.910156 C 753.3125 333.84375 753.953125 332.613281 753.953125 332.175781 C 753.953125 331.734375 754.96875 329.296875 756.214844 326.75 C 757.460938 324.207031 758.769531 321.316406 759.121094 320.324219 C 759.476562 319.335938 760.566406 317.367188 761.539062 315.949219 C 763.089844 313.695312 763.273438 313.125 763.011719 311.371094 C 762.667969 309.050781 764.355469 303.980469 767.660156 297.40625 C 769.578125 293.589844 769.65625 293.257812 769.65625 288.734375 C 769.65625 286.144531 769.882812 283.601562 770.160156 283.085938 C 770.804688 281.882812 773.089844 274.019531 773.089844 273.011719 C 773.089844 272.59375 773.5 271.214844 774.003906 269.953125 C 775.378906 266.5 776.09375 263.613281 776.523438 259.800781 C 777.238281 253.414062 778.035156 249.023438 779.285156 244.605469 C 780.160156 241.507812 780.441406 239.609375 780.230469 238.199219 C 779.878906 235.851562 781.011719 230.457031 782.429688 227.738281 C 783.238281 226.191406 783.433594 224.664062 783.578125 218.757812 C 783.6875 214.324219 783.988281 211.210938 784.371094 210.496094 C 784.757812 209.769531 784.882812 208.453125 784.699219 206.933594 C 784.511719 205.355469 784.667969 203.75 785.167969 202.300781 C 785.632812 200.933594 785.800781 199.390625 785.613281 198.265625 C 785.386719 196.929688 785.660156 195.5 786.636719 192.859375 C 787.960938 189.289062 787.960938 189.261719 787.109375 186.890625 C 786.148438 184.21875 786.386719 182.089844 787.875 179.980469 C 788.914062 178.507812 789.015625 177.191406 788.28125 174.542969 C 787.921875 173.257812 787.929688 172.117188 788.3125 170.714844 C 789.222656 167.332031 788.902344 141.28125 787.890625 136.496094 C 787.492188 134.609375 787.492188 133.277344 787.886719 131.578125 C 788.320312 129.683594 788.261719 128.5 787.566406 125.328125 C 787.09375 123.175781 786.441406 119.539062 786.109375 117.246094 C 785.777344 114.949219 785.253906 112.453125 784.945312 111.691406 C 784.632812 110.929688 784.378906 109.359375 784.378906 108.191406 C 784.378906 106.984375 783.859375 104.941406 783.175781 103.441406 C 782.511719 101.992188 781.601562 99.367188 781.15625 97.613281 C 780.710938 95.859375 779.617188 93.101562 778.71875 91.480469 C 777.824219 89.863281 776.949219 87.765625 776.773438 86.820312 C 776.597656 85.875 775.53125 83.222656 774.40625 80.929688 C 772.539062 77.132812 771.875 76.332031 766.960938 71.96875 C 763.863281 69.222656 761.273438 66.5 760.890625 65.589844 C 760.519531 64.714844 760.058594 63.667969 759.867188 63.265625 C 759.671875 62.859375 758.480469 61.960938 757.21875 61.265625 C 755.953125 60.574219 754.203125 59.328125 753.332031 58.5 C 752.460938 57.671875 750.972656 56.609375 750.027344 56.136719 C 749.085938 55.667969 746.308594 53.445312 743.859375 51.207031 C 741 48.589844 738.390625 46.6875 736.566406 45.878906 C 735.003906 45.1875 732.96875 43.957031 732.046875 43.148438 C 731.121094 42.335938 730.035156 41.671875 729.628906 41.671875 C 729.226562 41.671875 727.742188 41.082031 726.335938 40.363281 C 724.308594 39.324219 722.953125 39.023438 719.847656 38.910156 C 713.421875 38.683594 708.980469 37.933594 707.074219 36.753906 C 705.148438 35.566406 699.425781 34.59375 695.195312 34.734375 C 693.78125 34.78125 691.820312 34.484375 690.839844 34.074219 C 689.859375 33.664062 688.144531 33.363281 687.03125 33.402344 C 685.917969 33.449219 681.613281 33.339844 677.464844 33.1875 C 673.128906 33.023438 668.328125 33.125 666.175781 33.417969 C 664.117188 33.703125 661.441406 33.996094 660.226562 34.074219 C 659.011719 34.152344 656.714844 34.589844 655.125 35.054688 C 653.277344 35.59375 651.253906 35.8125 649.523438 35.667969 C 647.3125 35.484375 646.441406 35.65625 644.808594 36.589844 C 643.390625 37.402344 642.023438 37.738281 640.140625 37.742188 C 637.441406 37.753906 632.695312 39.023438 629.011719 40.738281 C 627.902344 41.25 626.390625 41.675781 625.652344 41.675781 C 624.914062 41.675781 623.75 42.113281 623.066406 42.652344 C 621.648438 43.769531 619.507812 44.390625 615.460938 44.855469 C 612.976562 45.140625 612.488281 45.386719 611.195312 47.019531 C 610.394531 48.03125 608.785156 49.277344 607.621094 49.789062 C 606.460938 50.296875 604.847656 51.195312 604.035156 51.78125 C 603.226562 52.367188 600.796875 53.765625 598.640625 54.882812 C 596.480469 56.003906 593.6875 57.851562 592.4375 58.988281 C 591.1875 60.125 589.199219 61.792969 588.019531 62.695312 C 584.457031 65.421875 580.664062 69.265625 580.910156 69.910156 C 581.167969 70.570312 578.796875 73.082031 577.917969 73.082031 C 576.585938 73.082031 574.082031 76 572.578125 79.292969 C 571.691406 81.242188 570.226562 83.675781 569.328125 84.707031 C 568.425781 85.734375 567.050781 87.570312 566.273438 88.785156 C 565.496094 90 562.917969 93.09375 560.542969 95.664062 C 555.414062 101.21875 552.910156 104.625 552.464844 106.664062 C 552.28125 107.488281 551.09375 109.707031 549.820312 111.597656 C 548.550781 113.492188 547.117188 115.871094 546.636719 116.886719 C 546.15625 117.902344 544.667969 119.722656 543.324219 120.929688 C 541.308594 122.746094 540.839844 123.484375 540.621094 125.214844 C 540.132812 129.0625 537.449219 133.964844 534.40625 136.5625 C 532.894531 137.855469 531.652344 139.296875 531.652344 139.761719 C 531.652344 140.226562 531.128906 141.703125 530.484375 143.035156 C 529.839844 144.371094 529.046875 146.898438 528.722656 148.652344 C 527.992188 152.632812 526.621094 155.820312 524.816406 157.730469 C 522.4375 160.253906 520.328125 164.1875 517.875 170.679688 C 517.53125 171.59375 516.761719 172.917969 516.164062 173.628906 C 515.566406 174.335938 514.851562 175.6875 514.570312 176.628906 C 513.6875 179.601562 511.089844 185.488281 510.121094 186.71875 C 509.609375 187.367188 509.035156 188.953125 508.84375 190.238281 C 508.652344 191.519531 507.4375 194.78125 506.144531 197.480469 C 504.851562 200.179688 503.636719 203.050781 503.453125 203.859375 C 503.265625 204.671875 502.605469 206 501.984375 206.816406 C 501.363281 207.632812 500.59375 209.621094 500.273438 211.230469 C 499.289062 216.171875 498.710938 218.054688 497.898438 218.96875 C 497.46875 219.449219 496.960938 221.160156 496.773438 222.765625 C 496.535156 224.777344 495.953125 226.429688 494.902344 228.066406 C 493.492188 230.265625 492.210938 234.1875 490.710938 240.910156 C 490.042969 243.910156 489.386719 245.339844 488.25 246.285156 C 487.832031 246.632812 487.488281 247.652344 487.488281 248.542969 C 487.488281 250.609375 486.78125 252.460938 485.355469 254.160156 C 484.480469 255.195312 484.210938 256.164062 484.148438 258.496094 C 484.070312 261.441406 482.3125 267.472656 480.917969 269.597656 C 480.441406 270.332031 480.3125 271.632812 480.476562 274.050781 C 480.695312 277.1875 480.601562 277.632812 479.355469 279.433594 C 477.832031 281.632812 477.347656 283.703125 476.773438 290.472656 C 476.390625 295.019531 475.878906 296.6875 474.335938 298.457031 C 473.699219 299.1875 473.667969 299.703125 474.15625 301.804688 C 474.984375 305.40625 474.890625 306.429688 473.234375 311.726562 C 471.65625 316.777344 471.660156 316.601562 473.058594 323.871094 C 473.726562 327.332031 473.707031 327.792969 472.816406 330.742188 C 472.15625 332.921875 471.855469 335.351562 471.855469 338.566406 C 471.855469 342.574219 472.058594 343.730469 473.292969 346.824219 C 474.082031 348.800781 474.726562 351.257812 474.726562 352.28125 C 474.726562 353.304688 475.152344 355.109375 475.671875 356.292969 C 476.1875 357.472656 476.761719 359.25 476.945312 360.242188 L 477.273438 362.042969 L 479.386719 360.429688 C 480.550781 359.542969 482.089844 358.667969 482.8125 358.488281 C 483.53125 358.304688 486.039062 357.074219 488.382812 355.75 C 490.722656 354.429688 493.25 353.195312 494 353.015625 C 494.820312 352.816406 496.550781 351.351562 498.324219 349.351562 C 500.457031 346.953125 501.996094 345.722656 503.832031 344.945312 C 505.234375 344.351562 507.261719 343.007812 508.34375 341.960938 C 512.371094 338.042969 515.429688 335.707031 516.972656 335.367188 C 517.894531 335.164062 519.523438 334.058594 520.847656 332.742188 C 522.101562 331.492188 524.136719 329.648438 525.371094 328.640625 C 526.605469 327.636719 527.761719 326.214844 527.949219 325.480469 C 528.132812 324.75 528.746094 323.496094 529.3125 322.699219 C 530.324219 321.277344 530.328125 321.242188 529.40625 320.585938 C 525.96875 318.15625 524.734375 315.296875 525.644531 311.882812 C 525.957031 310.722656 526.082031 308.222656 525.9375 306.160156 C 525.722656 303.136719 525.90625 301.640625 527.023438 297.589844 C 528.425781 292.496094 528.75 288.542969 528.113281 284.339844 C 527.734375 281.851562 528.65625 277.265625 529.820312 275.851562 C 530.109375 275.5 530.382812 273.6875 530.429688 271.824219 C 530.507812 269.039062 530.753906 268.074219 531.859375 266.402344 C 533.96875 263.214844 534.667969 260.722656 534.320312 257.621094 C 534.03125 255.03125 534.148438 254.628906 536.714844 249.5 C 538.195312 246.53125 540.011719 242.335938 540.746094 240.175781 C 541.480469 238.015625 542.378906 235.695312 542.75 235.023438 C 544.269531 232.238281 545.410156 228.410156 545.714844 225.074219 C 545.960938 222.390625 546.488281 220.628906 547.878906 217.847656 C 548.886719 215.824219 549.859375 213.328125 550.035156 212.300781 C 550.253906 211.03125 551.121094 209.589844 552.753906 207.789062 C 556.078125 204.117188 556.53125 203.277344 556.910156 200.0625 C 557.148438 198.046875 557.699219 196.578125 558.847656 194.910156 C 561.136719 191.582031 561.914062 189.925781 562.3125 187.523438 C 562.507812 186.367188 563.441406 184.269531 564.390625 182.863281 C 565.34375 181.457031 566.429688 179.441406 566.804688 178.386719 C 567.183594 177.328125 568.269531 175.515625 569.222656 174.351562 C 570.171875 173.191406 571.199219 171.515625 571.5 170.628906 C 571.796875 169.742188 572.421875 168.46875 572.882812 167.792969 C 573.34375 167.117188 574.183594 165.511719 574.746094 164.226562 C 575.308594 162.941406 576.921875 160.179688 578.332031 158.09375 C 582.285156 152.230469 583.054688 150.960938 583.441406 149.636719 C 583.867188 148.183594 586.207031 144.6875 588.359375 142.273438 C 589.203125 141.328125 590.28125 139.5 590.753906 138.207031 C 591.273438 136.800781 592.285156 135.328125 593.289062 134.527344 C 594.335938 133.691406 594.957031 132.765625 594.957031 132.042969 C 594.957031 130.015625 596.535156 127.476562 598.847656 125.785156 C 600.082031 124.882812 601.863281 123 602.808594 121.601562 C 603.753906 120.207031 605.546875 117.9375 606.792969 116.558594 C 608.042969 115.183594 609.449219 113.285156 609.925781 112.339844 C 612.019531 108.171875 614 106.1875 619.582031 102.675781 C 622.636719 100.75 626.40625 98.617188 627.953125 97.933594 C 629.5 97.253906 631.582031 96.074219 632.574219 95.316406 C 634.007812 94.222656 635.105469 93.871094 637.859375 93.621094 C 639.769531 93.445312 642.265625 93.015625 643.40625 92.660156 C 644.976562 92.175781 646.09375 92.148438 647.980469 92.539062 C 650.347656 93.023438 650.5625 92.976562 652.226562 91.65625 C 654.828125 89.589844 657.210938 89.109375 662.074219 89.675781 C 664.824219 89.996094 666.800781 89.992188 668 89.664062 C 668.984375 89.390625 671.117188 89.3125 672.738281 89.488281 C 674.359375 89.664062 678.566406 89.898438 682.089844 90.011719 C 689.210938 90.234375 690.414062 90.539062 692.671875 92.699219 C 693.53125 93.515625 694.613281 94.1875 695.085938 94.1875 C 695.554688 94.1875 697.011719 94.925781 698.324219 95.828125 C 699.636719 96.730469 701.550781 97.625 702.578125 97.820312 C 703.949219 98.074219 705.386719 99.046875 707.976562 101.476562 C 709.917969 103.292969 712.09375 105.152344 712.816406 105.601562 C 714.160156 106.445312 717.9375 111.082031 719.160156 113.394531 C 719.539062 114.105469 720.824219 115.429688 722.019531 116.339844 C 723.214844 117.246094 724.652344 118.90625 725.21875 120.03125 C 725.78125 121.15625 726.621094 122.488281 727.078125 122.992188 C 728.191406 124.222656 729.417969 127.238281 729.417969 128.738281 C 729.417969 129.496094 730.347656 131.015625 731.882812 132.773438 C 734.519531 135.78125 736.140625 139.855469 735.585938 142.066406 C 735.394531 142.84375 735.710938 144.089844 736.503906 145.65625 C 737.601562 147.824219 737.75 148.84375 738.03125 156.328125 C 738.292969 163.242188 738.21875 164.960938 737.5625 166.753906 C 737.058594 168.136719 736.78125 170.503906 736.78125 173.414062 C 736.78125 178.246094 736.164062 180.953125 733.742188 186.808594 C 732.285156 190.335938 732.277344 190.386719 733.011719 193.273438 C 733.839844 196.539062 733.578125 198.507812 731.964844 201.144531 C 731.289062 202.242188 731.027344 203.257812 731.21875 204.019531 C 731.484375 205.082031 731.140625 207.175781 729.828125 212.582031 C 729.578125 213.597656 728.75 215.144531 727.984375 216.015625 C 726.519531 217.6875 725.539062 220.835938 724.511719 227.175781 C 724.183594 229.199219 723.277344 232.328125 722.496094 234.128906 C 721.714844 235.925781 721.078125 238.160156 721.078125 239.089844 C 721.078125 240.019531 720.28125 242.855469 719.304688 245.386719 C 718.332031 247.921875 717.367188 251.214844 717.164062 252.703125 C 716.960938 254.195312 716.320312 256.339844 715.746094 257.46875 C 715.167969 258.601562 714.699219 260.175781 714.699219 260.96875 C 714.699219 261.761719 713.734375 264.257812 712.554688 266.507812 C 711.378906 268.761719 710.273438 271.539062 710.097656 272.679688 C 709.921875 273.820312 709.121094 275.796875 708.3125 277.070312 C 707.507812 278.34375 706.84375 279.996094 706.84375 280.746094 C 706.84375 281.492188 705.851562 285.066406 704.636719 288.683594 C 703.421875 292.300781 702.429688 295.964844 702.429688 296.828125 C 702.429688 298.585938 701.847656 299.882812 700.136719 301.9375 C 698.023438 304.476562 694.535156 312.238281 693.335938 317.0625 C 692.6875 319.671875 691.710938 322.539062 691.160156 323.441406 C 690.613281 324.339844 690.164062 325.40625 690.160156 325.8125 C 690.15625 326.21875 689.804688 327.210938 689.371094 328.019531 C 688.941406 328.828125 688.285156 330.328125 687.917969 331.351562 C 687.234375 333.25 681.785156 342.53125 680.4375 344.097656 C 680.023438 344.574219 679.527344 346.179688 679.324219 347.664062 C 679.03125 349.808594 678.460938 351.039062 676.527344 353.667969 C 675.191406 355.484375 673.824219 357.8125 673.496094 358.835938 C 673.164062 359.859375 672.023438 361.703125 670.964844 362.929688 C 668.761719 365.472656 667.378906 367.996094 666.855469 370.425781 C 666.640625 371.40625 665.546875 373.105469 664.21875 374.515625 C 662.96875 375.84375 661.171875 378.507812 660.226562 380.4375 C 658.820312 383.3125 658.113281 384.171875 656.320312 385.203125 C 654.042969 386.511719 651.179688 390.101562 649.292969 394.011719 C 647.578125 397.578125 639.542969 404.925781 636.675781 405.554688 C 635.808594 405.742188 634.597656 406.664062 633.667969 407.835938 C 632.789062 408.949219 631.023438 410.316406 629.609375 410.988281 C 628.230469 411.640625 626.128906 412.726562 624.941406 413.402344 C 623.75 414.078125 622.109375 414.632812 621.296875 414.632812 C 619.722656 414.632812 614.207031 416.667969 612.175781 418.003906 C 611.199219 418.640625 609.503906 418.820312 603.8125 418.875 C 597.382812 418.9375 596.367188 418.828125 593.550781 417.773438 C 591.832031 417.125 589.59375 416.597656 588.578125 416.597656 C 587.265625 416.597656 586 416.097656 584.21875 414.871094 C 582.40625 413.621094 581.386719 413.222656 580.546875 413.433594 C 578.445312 413.964844 575.503906 412.785156 573.71875 410.695312 C 572.800781 409.621094 571.800781 408.746094 571.503906 408.746094 C 570.128906 408.746094 568.300781 410.074219 567.488281 411.664062 C 566.996094 412.621094 564.898438 415.328125 562.828125 417.675781 C 560 420.878906 558.511719 422.152344 556.863281 422.78125 C 555.53125 423.289062 554.402344 424.121094 554 424.894531 C 552.789062 427.214844 550.621094 428.835938 548.101562 429.304688 C 546.136719 429.671875 545.265625 430.210938 543.265625 432.28125 C 541.925781 433.671875 540.035156 435.21875 539.0625 435.71875 C 538.09375 436.21875 536.527344 437.449219 535.582031 438.449219 C 534.636719 439.453125 532.429688 441.226562 530.675781 442.394531 C 525.277344 445.992188 525.390625 445.847656 526.882812 447.023438 C 527.585938 447.574219 528.535156 448.875 528.992188 449.914062 C 529.671875 451.453125 530.3125 452.007812 532.460938 452.898438 C 533.914062 453.496094 535.703125 454.65625 536.445312 455.476562 C 541.878906 461.480469 544.445312 463.707031 545.933594 463.707031 C 548.046875 463.707031 550.621094 465.027344 551.839844 466.742188 C 552.953125 468.304688 557.359375 470.578125 559.273438 470.578125 C 560.824219 470.578125 565.691406 472.265625 567.667969 473.488281 C 568.527344 474.019531 570.660156 474.773438 572.402344 475.164062 C 574.148438 475.558594 576.453125 476.207031 577.523438 476.613281 C 578.996094 477.167969 580.847656 477.289062 585.128906 477.113281 C 590.199219 476.910156 590.941406 476.992188 592.261719 477.867188 C 594.097656 479.09375 595.355469 479.136719 599.035156 478.101562 Z M 606.464844 398.097656 C 607.929688 398.296875 609.097656 398.066406 610.902344 397.234375 C 612.253906 396.609375 615.015625 395.472656 617.039062 394.703125 C 619.0625 393.9375 621.402344 392.800781 622.238281 392.183594 C 623.070312 391.566406 624.023438 391.0625 624.347656 391.0625 C 625.199219 391.0625 627.285156 388.675781 628.429688 386.398438 C 628.96875 385.320312 630.328125 383.542969 631.445312 382.449219 C 632.5625 381.359375 634.34375 379.207031 635.402344 377.667969 C 636.460938 376.132812 638.609375 373.820312 640.175781 372.539062 C 641.980469 371.0625 644.316406 368.316406 646.542969 365.050781 C 648.476562 362.21875 650.667969 359.238281 651.414062 358.425781 C 652.175781 357.59375 653.429688 355.03125 654.292969 352.539062 C 655.132812 350.109375 656.574219 346.898438 657.496094 345.402344 C 658.417969 343.910156 659.644531 341.488281 660.222656 340.027344 C 660.796875 338.570312 661.914062 336.414062 662.707031 335.238281 C 663.5 334.066406 664.148438 332.730469 664.152344 332.269531 C 664.160156 330.089844 665.394531 327.515625 667.671875 324.9375 C 670.609375 321.613281 671.71875 319.335938 672.492188 315.023438 C 673.167969 311.261719 674.464844 308.503906 676.660156 306.164062 C 677.972656 304.765625 678.316406 303.941406 678.511719 301.75 C 678.699219 299.613281 679.425781 297.800781 682 293.0625 C 683.839844 289.671875 685.25 286.472656 685.25 285.683594 C 685.25 283.175781 686.613281 278.988281 688.378906 276.050781 C 689.402344 274.355469 690.230469 272.234375 690.390625 270.898438 C 690.546875 269.648438 690.910156 267.960938 691.203125 267.152344 C 691.773438 265.585938 692.433594 263.085938 692.847656 260.933594 C 692.988281 260.210938 693.703125 258.910156 694.433594 258.039062 C 695.839844 256.367188 697.136719 252.066406 697.75 247.050781 C 698.28125 242.675781 699.742188 238.492188 701.679688 235.78125 C 703.28125 233.542969 703.40625 233.101562 703.40625 229.753906 C 703.40625 225.757812 704.226562 223.234375 706.183594 221.1875 C 707.304688 220.023438 707.402344 219.625 707.105469 217.480469 C 706.882812 215.832031 707 214.46875 707.503906 213.144531 C 707.902344 212.078125 708.34375 210.246094 708.480469 209.070312 C 708.617188 207.882812 709.417969 205.816406 710.277344 204.429688 C 711.414062 202.605469 711.769531 201.53125 711.605469 200.4375 C 711.480469 199.613281 711.820312 197.285156 712.359375 195.261719 C 712.898438 193.238281 713.425781 189.960938 713.53125 187.980469 C 713.636719 185.777344 714.210938 183.011719 714.980469 180.863281 C 715.796875 178.59375 716.296875 176.046875 716.398438 173.667969 C 716.492188 171.644531 716.875 168.976562 717.269531 167.738281 C 717.8125 166.035156 717.9375 163.609375 717.785156 157.679688 C 717.601562 150.394531 717.507812 149.753906 716.40625 148.148438 C 715.667969 147.082031 715.09375 145.355469 714.886719 143.574219 C 714.625 141.339844 714.300781 140.554688 713.402344 139.96875 C 711.863281 138.957031 710.464844 136.535156 710.125 134.285156 C 709.972656 133.257812 709.113281 131.519531 708.191406 130.359375 C 707.28125 129.214844 706.125 127.613281 705.625 126.804688 C 705.121094 125.992188 703.648438 124.101562 702.347656 122.601562 C 700.433594 120.390625 699.464844 119.707031 697.246094 119.007812 C 695.285156 118.390625 693.800781 117.453125 692.035156 115.726562 C 690.679688 114.398438 689.371094 113.308594 689.128906 113.308594 C 688.886719 113.308594 687.859375 112.566406 686.847656 111.660156 C 685.835938 110.753906 684.5625 109.789062 684.023438 109.515625 C 682.304688 108.636719 677.429688 108.304688 671.667969 108.660156 C 666.917969 108.957031 665.84375 109.183594 664.5 110.15625 C 660.578125 113.007812 659.285156 113.4375 655.703125 113.085938 C 653.851562 112.902344 651.246094 112.429688 649.914062 112.035156 C 647.546875 111.332031 647.441406 111.34375 645.546875 112.601562 C 644.183594 113.503906 642.6875 113.96875 640.53125 114.164062 C 638.078125 114.386719 637.039062 114.761719 635.394531 116.019531 C 634.257812 116.886719 632.808594 117.726562 632.175781 117.890625 C 631.53125 118.058594 630.550781 119.03125 629.941406 120.101562 C 629.347656 121.152344 627.78125 123.203125 626.460938 124.652344 C 625.140625 126.105469 623.769531 127.84375 623.414062 128.519531 C 622.519531 130.222656 619.683594 133.675781 616.945312 136.386719 C 615.679688 137.640625 614.5 139.238281 614.324219 139.941406 C 614.148438 140.640625 612.84375 142.28125 611.421875 143.582031 C 609.414062 145.417969 608.578125 146.65625 607.683594 149.109375 C 606.558594 152.191406 604.988281 154.152344 600.925781 157.539062 C 599.828125 158.453125 599.371094 159.257812 599.371094 160.273438 C 599.371094 163.378906 597.90625 166.730469 595.175781 169.847656 C 593.695312 171.542969 592.273438 173.703125 592.015625 174.648438 C 591.757812 175.59375 591.175781 176.890625 590.722656 177.535156 C 589.964844 178.613281 586.117188 185.855469 583.308594 191.480469 C 582.664062 192.777344 581.835938 194.832031 581.46875 196.046875 C 580.582031 199 577.039062 204.894531 575.574219 205.851562 C 574.339844 206.664062 571.402344 212.378906 571.402344 213.972656 C 571.402344 215.5 569.023438 220.886719 567.757812 222.230469 C 566.945312 223.09375 566.023438 225.523438 564.769531 230.101562 C 563.328125 235.382812 562.617188 237.148438 561.269531 238.800781 C 559.6875 240.738281 559.609375 240.992188 560.085938 242.753906 C 560.648438 244.847656 560.320312 246.433594 558.683594 249.554688 C 558.097656 250.675781 557.488281 252.378906 557.332031 253.34375 L 557.046875 255.097656 L 558.59375 254.652344 C 559.445312 254.40625 563.335938 254.296875 567.238281 254.40625 C 574.785156 254.621094 576.046875 254.953125 578.234375 257.292969 C 579.136719 258.253906 579.910156 258.566406 581.421875 258.574219 C 584.289062 258.585938 590.160156 260.210938 592.695312 261.699219 C 593.886719 262.398438 595.570312 263.714844 596.429688 264.628906 C 597.671875 265.945312 598.503906 266.351562 600.4375 266.578125 C 603.785156 266.976562 605.902344 268.429688 607.917969 271.71875 C 608.859375 273.257812 610.800781 275.878906 612.230469 277.546875 C 619.257812 285.75 621.238281 288.128906 621.65625 288.875 C 622.3125 290.050781 623.378906 295.304688 623.402344 297.472656 C 623.410156 298.496094 623.890625 300.261719 624.46875 301.394531 C 625.375 303.167969 625.535156 304.414062 625.632812 310.332031 C 625.742188 316.734375 625.648438 317.476562 624.386719 321.132812 C 623.339844 324.160156 622.980469 326.242188 622.816406 330.230469 C 622.640625 334.539062 622.386719 335.859375 621.296875 338.171875 C 620.574219 339.699219 619.984375 341.589844 619.984375 342.378906 C 619.984375 343.953125 618.335938 346.6875 615.789062 349.351562 C 613.730469 351.496094 612.625 354.097656 612.609375 356.816406 C 612.59375 359.890625 609.238281 366.132812 605.75 369.574219 C 604.304688 371 602.074219 373.898438 600.765625 376.050781 C 600.585938 376.34375 600.078125 377.617188 599.632812 378.878906 C 598.796875 381.269531 594.820312 386.261719 589.929688 391.074219 L 587.117188 393.847656 L 588.214844 394.851562 C 590.355469 396.816406 593.105469 397.855469 595.457031 397.589844 C 596.804688 397.433594 598.328125 397.621094 599.375 398.046875 C 600.632812 398.566406 601.542969 398.628906 602.785156 398.292969 C 603.71875 398.039062 605.375 397.953125 606.464844 398.097656 Z M 418.773438 397.207031 C 419.398438 396.539062 421.371094 395.089844 423.152344 393.992188 C 424.933594 392.894531 427.132812 391.457031 428.039062 390.804688 C 428.945312 390.148438 430.492188 389.464844 431.476562 389.285156 C 432.457031 389.101562 433.882812 388.433594 434.648438 387.800781 C 435.410156 387.164062 436.953125 386.496094 438.074219 386.316406 C 439.578125 386.078125 440.765625 385.382812 442.578125 383.679688 C 445.53125 380.90625 452.121094 377.320312 454.265625 377.320312 C 455.433594 377.320312 456.355469 376.773438 458.148438 375.007812 C 460.71875 372.476562 460.980469 371.726562 459.546875 370.957031 C 457.429688 369.824219 455.496094 370.34375 453.40625 372.597656 C 451.238281 374.933594 446.585938 377.246094 443.136719 377.695312 C 442.023438 377.832031 440.496094 378.46875 439.746094 379.09375 C 438.539062 380.097656 435.621094 381.238281 434.238281 381.246094 C 433.96875 381.246094 431.980469 382.558594 429.824219 384.160156 C 427.667969 385.765625 424.953125 387.34375 423.792969 387.667969 C 422.628906 387.992188 421.152344 388.675781 420.503906 389.183594 C 419.855469 389.695312 418.117188 390.644531 416.644531 391.296875 C 415.171875 391.949219 413.816406 392.726562 413.628906 393.027344 C 412.800781 394.371094 415.160156 398.421875 416.769531 398.421875 C 417.242188 398.421875 418.144531 397.875 418.773438 397.207031 Z M 403.632812 376.015625 C 404.003906 375.570312 405.632812 374.605469 407.25 373.871094 C 408.871094 373.136719 410.742188 371.945312 411.414062 371.21875 C 413.039062 369.457031 415.214844 368.179688 417.3125 367.753906 C 418.253906 367.5625 419.726562 366.742188 420.578125 365.929688 C 421.429688 365.121094 423.332031 364.0625 424.804688 363.574219 C 426.277344 363.089844 428.515625 361.902344 429.777344 360.941406 C 432.007812 359.238281 437.53125 357.203125 439.9375 357.195312 C 440.585938 357.195312 443.316406 355.863281 446.007812 354.242188 C 448.703125 352.617188 451.71875 351.070312 452.710938 350.800781 L 454.511719 350.316406 L 453.859375 347.992188 C 452.1875 342.035156 451.789062 337.414062 452.726562 334.832031 C 453.195312 333.535156 453.140625 332.75 452.433594 330.492188 C 451.503906 327.539062 451.539062 326.25 452.769531 319.167969 C 453.1875 316.738281 453.796875 312.765625 454.121094 310.335938 C 454.445312 307.90625 455.03125 304.738281 455.421875 303.292969 C 456.105469 300.777344 455.941406 297.824219 455.121094 297.824219 C 453.976562 297.824219 450.289062 299.484375 449.21875 300.484375 C 447.789062 301.816406 445.171875 303.21875 444.109375 303.21875 C 443.707031 303.21875 442.625 303.664062 441.707031 304.207031 C 440.789062 304.75 438.941406 305.515625 437.601562 305.914062 C 436.261719 306.3125 434.628906 307.222656 433.96875 307.9375 C 432.539062 309.488281 430.148438 310.582031 428.195312 310.582031 C 426.449219 310.582031 421.613281 313.097656 419.207031 315.257812 C 418.222656 316.140625 416.898438 317.023438 416.261719 317.226562 C 415.625 317.425781 414.410156 318.125 413.558594 318.769531 C 412.707031 319.417969 410.9375 320.140625 409.632812 320.371094 C 406.035156 321.007812 402.015625 322.902344 400.019531 324.898438 C 399.035156 325.878906 397.5 326.839844 396.609375 327.027344 C 395.714844 327.21875 394.320312 327.867188 393.511719 328.472656 C 392.703125 329.078125 391.207031 329.84375 390.1875 330.179688 C 389.167969 330.511719 387.699219 331.320312 386.917969 331.976562 C 386.140625 332.632812 384.664062 333.519531 383.636719 333.949219 C 382.609375 334.375 380.84375 335.542969 379.707031 336.542969 C 376.882812 339.03125 371 341.988281 368.878906 341.988281 C 367.21875 341.988281 364.3125 343.292969 364.3125 344.035156 C 364.3125 344.238281 365.207031 345.597656 366.300781 347.054688 C 368.039062 349.382812 368.546875 349.75 370.402344 350.003906 C 371.566406 350.160156 374.167969 351.042969 376.183594 351.960938 C 378.957031 353.226562 380.359375 354.238281 381.960938 356.140625 C 383.125 357.519531 384.496094 358.78125 385.003906 358.941406 C 385.515625 359.105469 386.890625 360.046875 388.0625 361.039062 C 389.234375 362.03125 390.890625 363.222656 391.746094 363.6875 C 392.597656 364.152344 393.675781 365.242188 394.140625 366.105469 C 394.605469 366.972656 396.011719 368.648438 397.265625 369.828125 C 398.523438 371.011719 400.019531 373.070312 400.59375 374.40625 C 401.683594 376.941406 402.507812 377.378906 403.636719 376.019531 Z M 403.632812 376.015625 " fill-opacity="1" fill-rule="nonzero"/></svg>