<svg xmlns="http://www.w3.org/2000/svg" xmlns:xlink="http://www.w3.org/1999/xlink" width="1080" zoomAndPan="magnify" viewBox="0 0 810 809.999993" height="1080" preserveAspectRatio="xMidYMid meet" version="1.0"><rect x="-81" width="972" fill="#ffffff" y="-80.999999" height="971.999992" fill-opacity="1"/><rect x="-81" width="972" fill="#ffffff" y="-80.999999" height="971.999992" fill-opacity="1"/><path fill="#3c3738" d="M 410.777344 809.4375 C 404.894531 808.21875 402.519531 808.003906 400.488281 808.507812 C 399.335938 808.789062 397.78125 808.898438 397.03125 808.75 C 396.277344 808.601562 390.550781 808.386719 384.296875 808.28125 C 373.707031 808.101562 372.722656 808.007812 369.84375 806.941406 C 367.183594 805.957031 366.46875 805.867188 364.726562 806.292969 C 363.148438 806.679688 361.808594 806.617188 358.6875 806.003906 C 356.054688 805.492188 352.304688 805.222656 347.761719 805.226562 C 337.953125 805.234375 333.125 804.660156 328.695312 802.949219 C 326.644531 802.160156 323.929688 801.203125 322.660156 800.828125 C 314.136719 798.285156 313.660156 798.027344 308.957031 793.464844 C 306.492188 791.070312 304.191406 788.664062 303.851562 788.117188 C 302.96875 786.707031 303.050781 783.78125 304.023438 781.90625 C 306.269531 777.558594 319.941406 770.445312 326.039062 770.445312 C 327.359375 770.445312 328.972656 770.046875 330.085938 769.445312 C 331.660156 768.59375 332.496094 768.480469 335.78125 768.671875 C 339.46875 768.890625 343.148438 768.382812 346.398438 767.207031 C 347.195312 766.917969 350.308594 766.589844 353.3125 766.476562 C 356.316406 766.367188 359.511719 766.132812 360.410156 765.957031 C 361.3125 765.785156 363.210938 765.894531 364.636719 766.210938 C 366.640625 766.652344 368.613281 766.65625 373.351562 766.242188 C 378.066406 765.824219 379.949219 765.828125 381.523438 766.257812 C 383.085938 766.6875 383.90625 766.691406 385.007812 766.273438 C 385.800781 765.972656 387.140625 765.71875 387.980469 765.714844 C 388.824219 765.707031 392.164062 765.683594 395.40625 765.648438 C 404.816406 765.570312 406.042969 765.617188 413.335938 766.226562 C 422.203125 766.964844 421.625 766.972656 426.3125 766.042969 C 429.722656 765.363281 430.996094 765.320312 434.769531 765.769531 C 437.210938 766.0625 440.109375 766.605469 441.214844 766.984375 C 442.859375 767.546875 443.679688 767.574219 445.734375 767.113281 C 448.859375 766.425781 451.46875 766.789062 455.085938 768.417969 C 457.59375 769.546875 458.082031 769.621094 459.605469 769.117188 C 461.90625 768.355469 464.574219 768.40625 466.792969 769.246094 C 467.949219 769.6875 470.304688 769.953125 473.132812 769.957031 C 477.523438 769.960938 481.929688 770.851562 485.4375 772.441406 C 486.695312 773.007812 489.375 773.585938 498.042969 775.144531 C 500.792969 775.636719 507.03125 779.53125 507.988281 781.351562 C 512.148438 789.230469 512.152344 790.75 508.023438 795.648438 C 505.386719 798.785156 500.238281 801.410156 494.527344 802.535156 C 492.277344 802.976562 488.765625 803.753906 486.730469 804.261719 C 484.691406 804.765625 482.113281 805.179688 481 805.179688 C 479.882812 805.179688 478.347656 805.398438 477.582031 805.664062 C 476.1875 806.152344 465.328125 807.035156 457.644531 807.292969 C 451.710938 807.488281 440.71875 808.398438 437.152344 808.992188 C 431.585938 809.914062 425.25 809.964844 422.285156 809.105469 C 419.773438 808.378906 419.4375 808.378906 417.472656 809.097656 C 415.214844 809.925781 413.636719 810 410.769531 809.40625 Z M 408.367188 723.453125 C 405.5 722.933594 404.253906 722.273438 401.808594 719.992188 C 400.679688 718.933594 399.179688 717.828125 398.476562 717.527344 C 397.773438 717.226562 396.128906 716.53125 394.816406 715.980469 C 393.035156 715.234375 392.214844 714.535156 391.589844 713.238281 C 391.125 712.28125 390.570312 711.179688 390.359375 710.792969 C 390.144531 710.40625 388.136719 708.980469 385.902344 707.632812 C 383.664062 706.28125 380.679688 704.355469 379.269531 703.351562 C 377.863281 702.34375 375.730469 700.964844 374.535156 700.28125 C 373.335938 699.597656 371.839844 698.316406 371.210938 697.433594 C 370.578125 696.550781 369.328125 695.507812 368.429688 695.113281 C 365.167969 693.6875 361.617188 690.960938 360.121094 688.734375 C 358.972656 687.023438 358.113281 686.316406 356.636719 685.875 C 354.667969 685.285156 352.125 683.832031 347.636719 680.722656 C 346.300781 679.796875 344.070312 677.480469 342.679688 675.570312 C 341.292969 673.660156 339.488281 671.769531 338.675781 671.363281 C 335.429688 669.757812 332.429688 667.378906 330.878906 665.183594 C 329.980469 663.914062 328.226562 662.234375 326.980469 661.445312 C 325.730469 660.660156 324.371094 659.414062 323.957031 658.675781 C 323.539062 657.9375 322.359375 656.859375 321.339844 656.277344 C 320.316406 655.699219 318.707031 654.117188 317.761719 652.761719 C 316.644531 651.164062 315.5 650.128906 314.488281 649.804688 C 312.273438 649.097656 310.40625 647.058594 310.039062 644.949219 C 309.777344 643.46875 309.359375 642.957031 307.71875 642.109375 C 306.554688 641.511719 305.078125 640.132812 304.207031 638.828125 C 303.375 637.59375 301.53125 635.8125 300.101562 634.871094 C 298.671875 633.929688 296.992188 632.46875 296.363281 631.621094 C 295.738281 630.777344 292.738281 627.695312 289.703125 624.777344 C 285.214844 620.46875 284.066406 619.074219 283.570312 617.339844 C 283.128906 615.789062 282.238281 614.558594 280.328125 612.851562 C 278.882812 611.5625 277.21875 609.628906 276.636719 608.5625 C 275.976562 607.359375 275.109375 606.515625 274.355469 606.34375 C 272.472656 605.910156 270.484375 604.265625 269.328125 602.1875 C 268.75 601.148438 266.9375 598.753906 265.300781 596.863281 C 263.664062 594.972656 261.941406 592.511719 261.476562 591.390625 C 260.863281 589.917969 260.101562 589.089844 258.738281 588.417969 C 257.699219 587.90625 256.382812 586.785156 255.816406 585.929688 C 255.25 585.074219 253.949219 583.453125 252.929688 582.332031 C 251.910156 581.207031 250.921875 579.726562 250.734375 579.039062 C 250.542969 578.347656 249.265625 576.457031 247.894531 574.835938 C 246.519531 573.214844 244.820312 570.839844 244.113281 569.558594 C 243.40625 568.277344 242.433594 566.929688 241.949219 566.5625 C 240.578125 565.515625 236.789062 559.960938 236.09375 557.972656 C 235.128906 555.210938 233.464844 552.8125 231.316406 551.089844 C 230.242188 550.230469 228.894531 548.660156 228.316406 547.605469 C 227.742188 546.546875 226.285156 544.730469 225.078125 543.566406 C 223.171875 541.730469 222.683594 540.792969 221.335938 536.410156 C 219.945312 531.875 219.511719 531.066406 217.027344 528.421875 C 215.507812 526.804688 213.929688 525.039062 213.519531 524.492188 C 213.113281 523.953125 212.035156 522.605469 211.128906 521.507812 C 210.054688 520.207031 209.265625 518.519531 208.871094 516.6875 C 208.398438 514.488281 207.894531 513.554688 206.585938 512.464844 C 204.667969 510.863281 202.679688 506.683594 201.734375 502.277344 C 201.191406 499.761719 200.660156 498.824219 198.320312 496.300781 C 196.796875 494.652344 195.382812 493.304688 195.183594 493.304688 C 194.527344 493.304688 193.203125 490.773438 192.898438 488.941406 C 192.691406 487.726562 191.859375 486.40625 190.277344 484.792969 C 188.402344 482.878906 187.890625 481.972656 187.617188 480.070312 C 187.417969 478.710938 186.796875 477.191406 186.140625 476.46875 C 184.375 474.519531 183.832031 473.316406 183.832031 471.347656 C 183.832031 469.96875 183.484375 469.21875 182.40625 468.269531 C 181.621094 467.582031 180.210938 465.585938 179.273438 463.835938 C 178.339844 462.089844 177.101562 459.832031 176.523438 458.820312 C 175.871094 457.679688 175.496094 456.164062 175.527344 454.828125 C 175.558594 453.195312 175.238281 452.21875 174.171875 450.792969 C 172.839844 449.019531 170.078125 444.011719 168.261719 440.09375 C 167.8125 439.117188 167.074219 436.691406 166.625 434.703125 C 165.976562 431.8125 165.363281 430.539062 163.597656 428.386719 C 162.183594 426.660156 161.253906 424.960938 161.027344 423.679688 C 160.828125 422.574219 159.867188 420.132812 158.890625 418.257812 C 157.910156 416.378906 156.917969 413.578125 156.679688 412.035156 C 156.441406 410.484375 155.796875 408.703125 155.242188 408.054688 C 154.6875 407.410156 154.074219 406.09375 153.878906 405.132812 C 153.679688 404.171875 153.167969 402.761719 152.738281 401.996094 C 152.207031 401.050781 152.039062 399.851562 152.21875 398.222656 C 152.414062 396.402344 152.25 395.488281 151.511719 394.378906 C 150.980469 393.578125 150.210938 391.320312 149.804688 389.363281 C 149.394531 387.40625 148.46875 384.785156 147.746094 383.542969 C 147.027344 382.296875 146.433594 380.644531 146.433594 379.867188 C 146.433594 379.09375 146.0625 377.820312 145.613281 377.046875 C 145.164062 376.269531 144.589844 374.15625 144.335938 372.347656 C 144.078125 370.484375 143.316406 368.066406 142.582031 366.765625 C 141.871094 365.5 141.089844 363.175781 140.84375 361.597656 C 140.597656 360.019531 139.773438 357.457031 139.015625 355.90625 C 137.777344 353.382812 137.671875 352.773438 138.015625 350.035156 C 138.636719 345.105469 138.5 343.863281 136.96875 340.640625 C 136.101562 338.816406 135.433594 336.457031 135.304688 334.769531 C 135.191406 333.21875 134.648438 331.09375 134.105469 330.042969 C 132.964844 327.84375 132.886719 326.820312 133.695312 324.695312 C 134.195312 323.375 134.113281 322.914062 133.070312 321.21875 C 131.957031 319.414062 131.878906 318.832031 132.015625 313.3125 C 132.128906 308.800781 131.953125 306.664062 131.292969 304.507812 C 130.746094 302.722656 130.523438 300.828125 130.695312 299.4375 C 130.910156 297.667969 130.703125 296.742188 129.695312 294.914062 C 128.996094 293.648438 128.445312 291.953125 128.472656 291.144531 C 128.785156 281.132812 128.992188 277.425781 129.386719 274.675781 C 129.644531 272.886719 129.683594 270.5625 129.472656 269.511719 C 127.671875 260.628906 127.691406 259.972656 129.894531 256.074219 C 131.003906 254.113281 131.101562 253.601562 130.613281 252.246094 C 130.269531 251.292969 130.144531 248.652344 130.296875 245.515625 C 130.78125 235.511719 130.890625 234.859375 132.652344 231.445312 C 133.90625 229.019531 134.417969 227.265625 134.644531 224.636719 C 134.8125 222.6875 135.226562 220.632812 135.570312 220.066406 C 135.914062 219.503906 136.195312 217.933594 136.195312 216.582031 C 136.195312 213.761719 137.46875 207.101562 138.539062 204.3125 C 138.941406 203.273438 139.269531 201.644531 139.269531 200.695312 C 139.269531 199.75 140.1875 196.457031 141.316406 193.378906 C 142.441406 190.304688 143.367188 186.925781 143.367188 185.875 C 143.367188 184.820312 143.71875 183.496094 144.148438 182.933594 C 144.582031 182.367188 145.265625 181.046875 145.667969 180 C 146.070312 178.953125 146.984375 177.394531 147.699219 176.535156 C 148.414062 175.675781 149 174.582031 149 174.109375 C 149 173.636719 149.445312 171.964844 149.992188 170.394531 C 150.539062 168.828125 151.117188 166.96875 151.28125 166.261719 C 151.441406 165.554688 152.230469 164.289062 153.03125 163.441406 C 154.042969 162.375 154.570312 161.21875 154.757812 159.644531 C 154.945312 158.066406 155.511719 156.835938 156.625 155.5625 C 157.648438 154.398438 158.222656 153.214844 158.222656 152.273438 C 158.222656 150.6875 158.859375 149.292969 160.269531 147.816406 C 160.761719 147.300781 161.285156 145.980469 161.4375 144.886719 C 161.605469 143.648438 162.382812 142.050781 163.488281 140.660156 C 164.46875 139.429688 165.433594 137.730469 165.632812 136.886719 C 165.832031 136.039062 166.722656 134.242188 167.613281 132.886719 C 170.039062 129.199219 177.632812 118.964844 179.574219 116.765625 C 180.511719 115.703125 181.277344 114.671875 181.277344 114.46875 C 181.277344 113.25 185.679688 106.0625 186.960938 105.195312 C 187.789062 104.632812 189.148438 103.070312 189.976562 101.71875 C 192.058594 98.339844 194.191406 96.222656 196.492188 95.253906 C 198.449219 94.425781 201.253906 91.34375 201.253906 90.015625 C 201.253906 88.1875 203.101562 85.703125 206.90625 82.421875 C 209.1875 80.457031 211.503906 78.039062 212.050781 77.054688 C 212.601562 76.0625 214.460938 74.257812 216.207031 73.019531 C 217.945312 71.785156 220.769531 69.601562 222.480469 68.160156 C 224.1875 66.71875 226.296875 65.09375 227.160156 64.550781 C 228.023438 64.003906 229.394531 62.59375 230.207031 61.414062 C 231.019531 60.234375 231.835938 59.269531 232.023438 59.269531 C 232.207031 59.269531 233.375 58.453125 234.609375 57.457031 C 235.847656 56.460938 238.246094 55 239.941406 54.21875 C 242.011719 53.261719 243.441406 52.203125 244.296875 50.992188 C 244.996094 50.003906 246.78125 48.449219 248.265625 47.539062 C 249.75 46.628906 251.664062 45.09375 252.527344 44.125 C 253.65625 42.855469 254.828125 42.167969 256.746094 41.652344 C 258.207031 41.257812 260.238281 40.464844 261.265625 39.886719 C 265.296875 37.613281 267.667969 36.085938 269.15625 34.792969 C 270.011719 34.050781 272.1875 32.914062 273.992188 32.265625 C 276.167969 31.484375 277.769531 30.53125 278.757812 29.429688 C 279.578125 28.515625 281.144531 27.351562 282.246094 26.835938 C 284.382812 25.835938 292.1875 23.382812 294.796875 22.890625 C 295.667969 22.722656 297.269531 21.753906 298.359375 20.730469 C 299.445312 19.707031 300.539062 18.875 300.785156 18.875 C 301.035156 18.875 302.8125 18.238281 304.738281 17.464844 C 306.664062 16.6875 309.125 16.050781 310.203125 16.046875 C 311.382812 16.042969 312.988281 15.574219 314.21875 14.882812 C 317.613281 12.964844 320.300781 11.847656 321.539062 11.835938 C 322.1875 11.832031 323.800781 11.296875 325.121094 10.652344 C 326.683594 9.890625 328.355469 9.476562 329.878906 9.476562 C 333.726562 9.476562 338.167969 8.46875 340.046875 7.167969 C 341.894531 5.890625 345.910156 5.316406 355.054688 5.035156 C 357.828125 4.9375 359.429688 4.65625 360.421875 4.058594 C 361.269531 3.554688 362.980469 3.164062 364.667969 3.097656 C 366.222656 3.035156 368.402344 2.632812 369.511719 2.199219 C 370.746094 1.714844 372.121094 1.519531 373.0625 1.691406 C 373.980469 1.859375 375.503906 1.65625 376.839844 1.1875 C 379.175781 0.371094 381.175781 0.566406 384.957031 1.984375 C 386.367188 2.511719 386.699219 2.464844 388.117188 1.503906 C 389.433594 0.609375 390.5 0.398438 394.480469 0.246094 C 401.5 -0.03125 409.902344 0.132812 410.785156 0.535156 C 411.207031 0.734375 413.859375 1.144531 416.679688 1.453125 C 419.496094 1.757812 423.414062 2.316406 425.386719 2.695312 C 427.359375 3.074219 430.585938 3.390625 432.558594 3.398438 C 434.53125 3.40625 436.835938 3.6875 437.679688 4.019531 C 438.652344 4.402344 440.460938 4.546875 442.585938 4.410156 C 444.945312 4.265625 446.863281 4.457031 448.988281 5.042969 C 450.660156 5.507812 453.523438 6.042969 455.355469 6.230469 C 461.6875 6.871094 465.640625 7.511719 466.28125 8 C 467.488281 8.917969 475.402344 11.355469 477.179688 11.355469 C 478.15625 11.355469 479.8125 11.691406 480.859375 12.105469 C 481.90625 12.519531 484.144531 13.273438 485.835938 13.785156 C 487.527344 14.296875 489.71875 15.300781 490.703125 16.015625 C 491.691406 16.730469 493.691406 17.578125 495.144531 17.898438 C 496.601562 18.214844 498.214844 18.769531 498.730469 19.132812 C 499.25 19.488281 500.289062 19.789062 501.046875 19.796875 C 503.164062 19.828125 504.769531 20.535156 507.804688 22.800781 C 509.726562 24.234375 511.289062 24.984375 512.816406 25.210938 C 514.039062 25.394531 516.078125 26.121094 517.34375 26.824219 C 519.699219 28.132812 524.683594 30.570312 528.359375 32.203125 C 529.488281 32.707031 530.945312 33.554688 531.597656 34.09375 C 532.730469 35.027344 534.480469 35.949219 539.183594 38.097656 C 542.167969 39.460938 547.242188 42.964844 549.378906 45.132812 C 550.375 46.140625 552.269531 47.433594 553.597656 48.003906 C 554.925781 48.578125 557.234375 50.074219 558.734375 51.328125 C 560.234375 52.585938 562.484375 54.289062 563.738281 55.113281 C 564.992188 55.9375 566.015625 56.792969 566.015625 57.015625 C 566.015625 57.238281 567.109375 57.851562 568.445312 58.378906 C 571.320312 59.507812 572.878906 60.75 573.699219 62.5625 C 574.050781 63.335938 574.972656 64.132812 575.917969 64.472656 C 578.085938 65.253906 580.238281 67.109375 581.421875 69.21875 C 581.953125 70.167969 582.8125 71.066406 583.332031 71.21875 C 584.582031 71.582031 597.757812 83.917969 599.550781 86.40625 C 600.328125 87.484375 601.730469 88.777344 602.671875 89.285156 C 603.613281 89.796875 604.851562 91.054688 605.425781 92.089844 C 606 93.121094 606.695312 94.09375 606.972656 94.25 C 607.246094 94.410156 608.417969 95.847656 609.582031 97.453125 C 610.742188 99.058594 612.6875 101.050781 613.910156 101.882812 C 616.242188 103.46875 618.691406 106.304688 620.117188 109.0625 C 620.585938 109.964844 621.628906 111.949219 622.4375 113.472656 C 623.246094 114.996094 623.902344 116.488281 623.902344 116.789062 C 623.902344 117.09375 624.605469 117.957031 625.460938 118.710938 C 626.320312 119.464844 628.523438 122.09375 630.363281 124.550781 C 632.203125 127.011719 634.867188 130.292969 636.289062 131.84375 C 639.066406 134.875 640.296875 137.015625 640.296875 138.816406 C 640.296875 139.441406 640.660156 140.226562 641.101562 140.5625 C 642.03125 141.269531 647.46875 151.320312 647.46875 152.324219 C 647.46875 152.691406 648.296875 154.121094 649.308594 155.5 C 651.761719 158.835938 652.589844 160.773438 652.589844 163.140625 C 652.589844 165.226562 653.667969 167.253906 657.34375 172.109375 C 658.542969 173.691406 659.5625 175.707031 659.828125 177.015625 C 660.078125 178.234375 660.726562 179.667969 661.269531 180.199219 C 662.6875 181.589844 663.347656 183.476562 663.347656 186.136719 C 663.347656 187.808594 663.769531 189.1875 664.84375 191.035156 C 665.84375 192.753906 666.457031 194.65625 666.699219 196.78125 C 666.894531 198.527344 667.257812 200.1875 667.503906 200.46875 C 667.746094 200.75 668.640625 202.230469 669.484375 203.757812 C 670.679688 205.914062 671.019531 207.160156 671.023438 209.351562 C 671.023438 212.152344 672.140625 215.667969 674.0625 218.980469 C 675.535156 221.515625 675.742188 223.21875 674.890625 225.792969 C 673.796875 229.109375 673.890625 229.800781 675.769531 232.144531 C 677.367188 234.136719 677.4375 234.410156 677.535156 239.011719 C 677.609375 243.171875 677.8125 244.132812 679.007812 246.289062 C 680.332031 248.679688 680.371094 248.992188 680.144531 254.703125 C 680.015625 257.96875 680.125 261.144531 680.378906 261.769531 C 681.65625 264.855469 682.355469 283.082031 681.675781 295.546875 C 681.371094 301.152344 680.917969 303.335938 679.632812 305.398438 C 677.679688 308.519531 676.710938 312.328125 677.011719 315.683594 C 677.230469 318.144531 677.066406 319.4375 676.15625 321.851562 C 675.398438 323.898438 675.117188 325.523438 675.296875 326.785156 C 675.457031 327.894531 675.242188 329.433594 674.804688 330.542969 C 674.390625 331.574219 673.605469 334.21875 673.066406 336.414062 C 672.527344 338.609375 671.703125 341.570312 671.234375 342.988281 C 670.769531 344.410156 670.242188 347.054688 670.066406 348.859375 C 669.863281 350.957031 669.351562 352.746094 668.660156 353.792969 C 668.0625 354.695312 667.445312 356.367188 667.289062 357.507812 C 667.128906 358.644531 666.53125 360.167969 665.945312 360.894531 C 665.335938 361.648438 664.882812 362.925781 664.882812 363.890625 C 664.882812 364.816406 664.421875 366.402344 663.855469 367.414062 C 663.292969 368.429688 662.832031 370.058594 662.832031 371.042969 C 662.832031 372.023438 662.285156 373.773438 661.613281 374.933594 C 660.308594 377.195312 656.683594 387.1875 656.683594 388.527344 C 656.683594 388.96875 656.015625 390.265625 655.199219 391.410156 C 654.273438 392.703125 653.402344 394.890625 652.882812 397.222656 C 652.429688 399.28125 651.703125 401.449219 651.28125 402.042969 C 650.855469 402.636719 650.28125 404.222656 650.003906 405.566406 C 649.691406 407.054688 649 408.488281 648.222656 409.230469 C 647.21875 410.1875 646.949219 410.941406 646.941406 412.769531 C 646.941406 415.386719 645.210938 419.234375 643.378906 420.730469 C 642.742188 421.246094 641.386719 422.828125 640.359375 424.242188 C 638.640625 426.617188 638.472656 427.148438 638.222656 431.140625 C 637.972656 435.046875 637.792969 435.664062 636.324219 437.539062 C 635.429688 438.679688 634.234375 441.148438 633.667969 443.027344 C 633.101562 444.902344 632.089844 447.101562 631.417969 447.910156 C 630.75 448.722656 630.039062 450.320312 629.847656 451.460938 C 629.648438 452.601562 628.808594 454.390625 627.972656 455.429688 C 627.136719 456.46875 626.457031 457.574219 626.457031 457.886719 C 626.457031 458.199219 625.691406 459.292969 624.757812 460.320312 C 623.824219 461.347656 622.652344 463.214844 622.15625 464.472656 C 621.660156 465.734375 620.582031 468.15625 619.757812 469.855469 C 618.933594 471.554688 618.257812 473.53125 618.257812 474.25 C 618.257812 476.15625 616.117188 479.753906 612.699219 483.589844 C 611.050781 485.445312 609.523438 487.492188 609.308594 488.136719 C 609.097656 488.785156 608.277344 490.367188 607.488281 491.660156 C 606.695312 492.949219 605.695312 495.269531 605.261719 496.808594 C 604.824219 498.347656 603.992188 500.144531 603.40625 500.800781 C 602.824219 501.457031 601.855469 502.945312 601.265625 504.109375 C 600.671875 505.273438 599.53125 507.097656 598.734375 508.164062 C 597.9375 509.234375 597.132812 510.980469 596.949219 512.042969 C 596.761719 513.109375 595.949219 514.9375 595.136719 516.109375 C 594.328125 517.277344 593.328125 518.976562 592.917969 519.878906 C 592.507812 520.785156 590.933594 522.730469 589.421875 524.207031 C 587.066406 526.507812 581.371094 534.417969 581.371094 535.390625 C 581.371094 535.566406 580.9375 536.582031 580.402344 537.644531 C 579.871094 538.703125 578.828125 541.054688 578.089844 542.863281 C 577.265625 544.875 575.699219 547.332031 574.050781 549.203125 C 572.570312 550.882812 570.671875 553.285156 569.832031 554.539062 C 568.070312 557.179688 566.613281 559.207031 563.546875 563.308594 C 560.761719 567.023438 559.949219 568.472656 559 571.398438 C 558.53125 572.855469 557.417969 574.570312 556.066406 575.917969 C 554.867188 577.113281 553.585938 578.785156 553.214844 579.636719 C 552.847656 580.484375 551.683594 581.859375 550.636719 582.691406 C 549.523438 583.570312 547.582031 586.148438 545.96875 588.894531 C 544.449219 591.476562 542.167969 594.539062 540.898438 595.703125 C 539.632812 596.871094 538.140625 598.640625 537.582031 599.640625 C 537.027344 600.640625 536.074219 601.757812 535.46875 602.121094 C 534.859375 602.488281 533.859375 604.050781 533.246094 605.601562 C 532.421875 607.667969 531.320312 609.160156 529.089844 611.230469 C 527.421875 612.78125 525.695312 614.683594 525.257812 615.460938 C 523.816406 618.023438 519.15625 624.109375 517.960938 624.992188 C 517.316406 625.472656 515.988281 627.007812 515.015625 628.40625 C 513.90625 629.992188 512.5625 631.246094 511.445312 631.734375 C 510.042969 632.347656 509.441406 633.039062 508.691406 634.898438 C 507.972656 636.6875 507.046875 637.789062 504.976562 639.328125 C 503.421875 640.484375 501.878906 642.125 501.441406 643.085938 C 499.125 648.15625 495.128906 652.40625 490.699219 654.511719 C 489.328125 655.164062 488.335938 655.984375 488.246094 656.542969 C 487.824219 659.105469 487.347656 659.84375 484.214844 662.769531 C 482.355469 664.511719 480.164062 666.765625 479.339844 667.785156 C 478.523438 668.804688 477.015625 670.074219 475.992188 670.605469 C 474.84375 671.203125 473.4375 672.636719 472.292969 674.375 C 471.054688 676.253906 469.773438 677.523438 468.402344 678.21875 C 467.222656 678.820312 465.800781 680.117188 465.042969 681.285156 C 464.320312 682.402344 462.9375 683.765625 461.96875 684.316406 C 459.539062 685.707031 457.613281 687.542969 455.277344 690.683594 C 453.679688 692.835938 452.597656 693.695312 449.734375 695.074219 C 446.367188 696.699219 443.933594 698.757812 439.738281 703.542969 C 438.90625 704.492188 437.292969 705.667969 436.152344 706.152344 C 431.796875 708.011719 427.507812 711.5625 424.601562 715.722656 C 421.425781 720.265625 420.558594 721.085938 417.390625 722.554688 C 414.277344 723.996094 412.394531 724.179688 408.363281 723.453125 Z M 373.382812 672.972656 C 373.996094 672.0625 375.511719 670.679688 376.753906 669.894531 C 377.996094 669.113281 379.011719 668.269531 379.011719 668.023438 C 379.011719 667.449219 378.140625 667.441406 377.753906 668.011719 C 377.59375 668.25 376.253906 668.808594 374.78125 669.261719 C 372.019531 670.101562 368.765625 672.125 368.765625 673.003906 C 368.765625 673.421875 370.738281 674.398438 371.925781 674.574219 C 372.113281 674.605469 372.769531 673.878906 373.382812 672.972656 Z M 383.34375 663.734375 C 384.617188 662.910156 385.589844 662.175781 385.503906 662.097656 C 385.417969 662.019531 384.332031 662.113281 383.078125 662.3125 C 381.101562 662.621094 380.785156 662.832031 380.644531 663.945312 C 380.546875 664.648438 380.613281 665.226562 380.757812 665.226562 C 380.902344 665.226562 382.074219 664.554688 383.347656 663.734375 Z M 344.203125 637.875 C 345.488281 636.644531 346.917969 635.632812 347.386719 635.632812 C 348.1875 635.632812 349.628906 633.898438 349.171875 633.484375 C 349.058594 633.386719 347.789062 634.082031 346.355469 635.050781 C 344.917969 636.019531 343.09375 637.183594 342.296875 637.640625 C 341.496094 638.097656 339.601562 639.203125 338.082031 640.09375 C 336.558594 640.980469 335.085938 641.777344 334.808594 641.863281 C 334.523438 641.945312 334.679688 642.679688 335.179688 643.5625 L 336.046875 645.105469 L 338.960938 642.613281 C 340.5625 641.242188 342.921875 639.109375 344.203125 637.875 Z M 493.496094 624.261719 L 494.46875 622.75 L 492.71875 623.765625 C 490.679688 624.949219 490.207031 625.769531 491.566406 625.769531 C 492.101562 625.769531 492.953125 625.101562 493.496094 624.261719 Z M 495.816406 621.308594 C 496.1875 620.902344 496.234375 620.605469 495.933594 620.605469 C 495.644531 620.605469 495.277344 620.921875 495.117188 621.308594 C 494.953125 621.695312 494.902344 622.011719 495.003906 622.011719 C 495.101562 622.011719 495.46875 621.695312 495.816406 621.308594 Z M 333.089844 618.238281 C 335.730469 616.6875 337.902344 615.773438 339.40625 615.585938 C 340.921875 615.394531 342.371094 614.785156 343.679688 613.777344 C 344.769531 612.945312 346.472656 612.121094 347.464844 611.949219 C 348.984375 611.6875 349.429688 611.308594 350.285156 609.535156 C 350.9375 608.183594 351.890625 607.140625 352.953125 606.621094 C 353.863281 606.171875 355.089844 605.351562 355.675781 604.796875 C 356.265625 604.242188 358.144531 603.039062 359.855469 602.121094 C 361.566406 601.203125 363.261719 600.121094 363.625 599.722656 C 364.183594 599.101562 364.109375 598.996094 363.121094 598.996094 C 361.511719 598.996094 357.777344 601.25 356.75 602.84375 C 355.777344 604.359375 353.519531 605.570312 351.679688 605.570312 C 350.300781 605.570312 345.390625 608.984375 344.03125 610.886719 C 343.050781 612.257812 337.414062 614.964844 335.542969 614.964844 C 333.558594 614.964844 327.785156 618.699219 327.785156 619.980469 C 327.785156 621.058594 328.941406 620.675781 333.089844 618.238281 Z M 324.402344 591.746094 C 326.058594 590.984375 327.933594 589.886719 328.570312 589.304688 C 329.207031 588.722656 331.019531 587.902344 332.601562 587.480469 C 335.511719 586.703125 338.132812 585.070312 339.082031 583.441406 C 339.984375 581.898438 337.417969 582.359375 334.898438 584.195312 C 333.664062 585.09375 332.371094 585.835938 332.027344 585.835938 C 331.6875 585.839844 330.554688 586.527344 329.511719 587.367188 C 328.472656 588.207031 326.117188 589.640625 324.28125 590.554688 C 322.445312 591.46875 320.835938 592.5 320.710938 592.847656 C 320.449219 593.566406 320.386719 593.585938 324.402344 591.742188 Z M 287.867188 592.132812 C 288.246094 591.71875 289.871094 590.558594 291.484375 589.554688 C 295.1875 587.25 295.710938 586.5625 293.414062 587.027344 C 292.476562 587.214844 289.855469 587.613281 287.59375 587.90625 C 282.871094 588.523438 282.375 589.089844 284.515625 591.417969 C 286.027344 593.066406 286.863281 593.246094 287.867188 592.136719 Z M 526.582031 584.734375 C 530.230469 581.476562 532.191406 578.914062 532.191406 577.402344 C 532.191406 576.59375 532.554688 575.289062 533 574.503906 C 533.441406 573.714844 533.6875 572.96875 533.550781 572.839844 C 533.40625 572.710938 533.050781 573.03125 532.75 573.550781 C 531.78125 575.203125 523.460938 581.546875 521.515625 582.113281 C 518.664062 582.941406 517.285156 584.878906 519.511719 584.929688 C 520.144531 584.945312 521.46875 585.234375 522.457031 585.578125 C 523.441406 585.917969 524.375 586.226562 524.53125 586.253906 C 524.695312 586.289062 525.609375 585.601562 526.582031 584.734375 Z M 277.78125 581.339844 C 278.265625 580.175781 278.148438 579.734375 277.351562 579.734375 C 276.402344 579.734375 275.871094 580.53125 276.234375 581.402344 C 276.609375 582.300781 277.390625 582.269531 277.777344 581.339844 Z M 348.378906 578.550781 C 351.582031 576.992188 354.574219 574.085938 353.375 573.707031 C 352.601562 573.460938 348.8125 575.679688 345.96875 578.039062 C 342.859375 580.621094 343.738281 580.808594 348.378906 578.550781 Z M 360.3125 570.8125 C 361.496094 569.613281 360.703125 569.613281 359.03125 570.8125 C 358.097656 571.480469 357.972656 571.734375 358.570312 571.742188 C 359.019531 571.746094 359.804688 571.328125 360.3125 570.8125 Z M 262.441406 564.269531 C 262.785156 563.757812 261.710938 561.417969 261.132812 561.417969 C 260.285156 561.417969 260.066406 562.496094 260.699219 563.574219 C 261.394531 564.765625 261.953125 564.988281 262.441406 564.269531 Z M 303.191406 548.257812 C 303.898438 547.820312 305.925781 547.019531 307.699219 546.476562 C 311.035156 545.457031 312.894531 544.175781 320.449219 537.695312 C 323.804688 534.8125 324.828125 534.230469 328.710938 532.996094 C 332.714844 531.722656 333.25 531.410156 334.296875 529.710938 C 335.882812 527.125 335.789062 526.65625 333.6875 526.65625 C 332.261719 526.65625 331.757812 526.914062 331.171875 527.945312 C 330.113281 529.816406 328.300781 531.226562 325.976562 531.992188 C 323.449219 532.820312 318.742188 535.363281 314.796875 538.023438 C 313.148438 539.132812 310.984375 540.59375 309.980469 541.265625 C 308.980469 541.933594 307.554688 543.308594 306.808594 544.3125 C 305.929688 545.496094 304.730469 546.386719 303.375 546.847656 C 300.957031 547.671875 299.503906 548.667969 299.882812 549.234375 C 300.203125 549.707031 301.441406 549.332031 303.191406 548.253906 Z M 553.929688 544.507812 C 554.652344 543.601562 555.644531 542.25 556.140625 541.503906 C 556.632812 540.761719 557.777344 539.234375 558.683594 538.117188 C 559.589844 537.003906 560.917969 535.023438 561.636719 533.722656 C 563.425781 530.480469 562.316406 530.609375 558.777344 534.054688 C 557.25 535.539062 554.761719 537.601562 553.253906 538.632812 C 551.738281 539.667969 549.824219 541.019531 548.992188 541.640625 L 547.480469 542.773438 L 549.695312 544.558594 C 550.914062 545.539062 552.074219 546.300781 552.265625 546.246094 C 552.460938 546.183594 553.210938 545.410156 553.929688 544.507812 Z M 240.617188 528.09375 C 240.488281 527.722656 240.136719 527.757812 239.453125 528.207031 C 238.871094 528.601562 238.644531 529.089844 238.878906 529.445312 C 239.1875 529.898438 239.445312 529.875 240.042969 529.332031 C 240.464844 528.945312 240.722656 528.390625 240.617188 528.09375 Z M 357.554688 515.753906 C 357.847656 515.246094 357.976562 514.730469 357.835938 514.601562 C 357.425781 514.222656 354.933594 515.910156 354.933594 516.566406 C 354.933594 517.464844 356.914062 516.851562 357.550781 515.753906 Z M 578.175781 507.179688 C 579.457031 505.636719 580.671875 503.738281 580.878906 502.953125 C 581.085938 502.167969 581.417969 501.15625 581.625 500.703125 C 582.167969 499.5 580.753906 499.652344 579.472656 500.9375 C 578.894531 501.519531 578.0625 502.640625 577.628906 503.429688 C 577.195312 504.21875 575.785156 505.753906 574.496094 506.84375 C 573.207031 507.933594 572.152344 508.933594 572.152344 509.066406 C 572.152344 509.195312 572.527344 509.835938 572.988281 510.480469 C 573.796875 511.613281 573.859375 511.625 574.839844 510.816406 C 575.394531 510.355469 576.898438 508.71875 578.175781 507.179688 Z M 221.691406 493.683594 C 223.125 492.339844 224.296875 491.085938 224.296875 490.894531 C 224.296875 490.707031 226.046875 489.226562 228.183594 487.601562 C 230.769531 485.644531 232.484375 483.90625 233.308594 482.417969 C 233.984375 481.191406 234.542969 480.09375 234.542969 479.984375 C 234.542969 479.886719 233.589844 479.996094 232.425781 480.273438 C 230.957031 480.617188 230.050781 481.175781 229.480469 482.101562 C 229.023438 482.835938 227.84375 483.757812 226.859375 484.15625 C 223.542969 485.480469 220.980469 486.875 218.742188 488.566406 C 216.539062 490.234375 216.519531 490.273438 216.78125 492.703125 C 217.246094 496.984375 218.003906 497.132812 221.691406 493.679688 Z M 328.085938 493.070312 C 329.410156 492.421875 331.015625 491.894531 331.65625 491.894531 C 332.292969 491.894531 334.015625 490.996094 335.484375 489.898438 C 338.683594 487.503906 340.054688 486.742188 341.167969 486.734375 C 341.625 486.730469 342.285156 486.414062 342.632812 486.027344 C 343.804688 484.734375 341.808594 484.667969 339.972656 485.933594 C 339.042969 486.574219 337.066406 487.429688 335.578125 487.832031 C 332.75 488.59375 331.039062 489.539062 328.402344 491.796875 C 327.539062 492.539062 326.066406 493.367188 325.128906 493.644531 C 323.832031 494.023438 323.695312 494.152344 324.554688 494.191406 C 325.171875 494.222656 326.761719 493.710938 328.089844 493.0625 Z M 213.171875 480.257812 C 215.6875 475.542969 215.671875 474.96875 213.042969 475.0625 C 211.921875 475.113281 210.074219 474.75 208.9375 474.28125 C 207.800781 473.8125 206.746094 473.542969 206.589844 473.6875 C 206.429688 473.832031 207.023438 474.867188 207.890625 475.996094 C 208.757812 477.125 209.59375 478.890625 209.746094 479.921875 C 210.191406 482.941406 210.460938 483.910156 210.863281 483.898438 C 211.066406 483.890625 212.105469 482.253906 213.171875 480.257812 Z M 237.410156 477.734375 C 238.382812 476.730469 238.378906 476.730469 237.234375 477.28125 C 236.597656 477.585938 236.082031 478.039062 236.082031 478.289062 C 236.082031 478.953125 236.324219 478.851562 237.410156 477.730469 Z M 317.535156 478.039062 C 317.535156 477.648438 317.332031 477.332031 317.085938 477.332031 C 316.839844 477.332031 316.347656 477.648438 316 478.039062 C 315.464844 478.625 315.539062 478.742188 316.449219 478.742188 C 317.074219 478.742188 317.535156 478.441406 317.535156 478.039062 Z M 331.898438 468.386719 C 333.519531 467.078125 333.5625 466.984375 332.394531 467.269531 C 331.003906 467.605469 329.316406 468.785156 329.316406 469.421875 C 329.316406 470.148438 330.109375 469.832031 331.902344 468.386719 Z M 416.535156 464.273438 C 418.472656 462.613281 418.351562 461.832031 416.160156 461.832031 C 414.535156 461.832031 414.261719 462.039062 413.085938 464.164062 C 412.378906 465.449219 411.796875 466.617188 411.796875 466.761719 C 411.796875 467.238281 415.101562 465.503906 416.535156 464.273438 Z M 328.5 447.386719 C 328.710938 447.195312 329.9375 446.71875 331.230469 446.332031 C 334.097656 445.46875 335.980469 443.472656 334.972656 442.359375 C 334.003906 441.285156 333.28125 441.496094 332.128906 443.175781 C 331.558594 444.007812 330.238281 445.109375 329.1875 445.625 C 327.21875 446.59375 326.28125 447.738281 327.453125 447.738281 C 327.820312 447.738281 328.292969 447.578125 328.5 447.386719 Z M 424.445312 444.464844 C 427.035156 444.25 429.390625 443.9375 429.683594 443.773438 C 429.972656 443.609375 432.054688 443.28125 434.304688 443.046875 C 436.558594 442.8125 438.925781 442.316406 439.570312 441.945312 C 440.21875 441.578125 442.671875 441.136719 445.027344 440.96875 C 447.382812 440.800781 450.121094 440.351562 451.109375 439.972656 C 452.097656 439.59375 453.425781 439.285156 454.058594 439.285156 C 454.6875 439.285156 456.074219 438.652344 457.136719 437.875 C 458.203125 437.101562 460.59375 436.035156 462.460938 435.503906 C 464.324219 434.972656 467.578125 433.605469 469.691406 432.464844 C 474.730469 429.742188 480.832031 427.074219 482.753906 426.746094 C 483.734375 426.578125 485.679688 425.257812 488.132812 423.085938 C 490.246094 421.214844 493.070312 419.214844 494.414062 418.636719 C 496.027344 417.941406 498.167969 416.261719 500.742188 413.671875 C 503.253906 411.140625 505.339844 409.496094 506.640625 409.019531 C 509.09375 408.121094 514.210938 403.53125 515.351562 401.207031 C 515.808594 400.273438 517.484375 398.480469 519.074219 397.222656 C 521.214844 395.527344 522.105469 394.445312 522.511719 393.035156 C 523.164062 390.777344 524.660156 389.175781 526.941406 388.300781 C 527.855469 387.949219 528.605469 387.375 528.605469 387.027344 C 528.605469 385.773438 532.796875 378.472656 534.527344 376.71875 C 535.5625 375.664062 536.289062 374.4375 536.289062 373.734375 C 536.289062 371.871094 537.566406 370.046875 539.839844 368.667969 C 541.882812 367.425781 541.921875 367.34375 541.921875 364.664062 C 541.921875 361.34375 542.945312 358.046875 544.695312 355.734375 C 546.59375 353.222656 548.632812 348.339844 549.132812 345.105469 C 549.371094 343.554688 550.160156 340.699219 550.886719 338.761719 C 553.074219 332.921875 554.21875 328.449219 554.21875 325.769531 C 554.21875 323.097656 555.078125 320.675781 556.699219 318.785156 C 557.609375 317.726562 557.625 317.414062 556.972656 313.667969 C 556.503906 310.976562 556.433594 309.296875 556.765625 308.5 C 557.035156 307.847656 557.117188 305.960938 556.949219 304.304688 C 556.726562 302.132812 556.875 300.667969 557.480469 299.039062 C 558.46875 296.386719 558.539062 294.222656 557.722656 291.730469 C 557.273438 290.347656 557.277344 288.800781 557.757812 285.238281 C 558.296875 281.152344 558.273438 280.378906 557.566406 279.128906 C 556.632812 277.472656 555.808594 272.714844 555.40625 266.65625 C 555.246094 264.332031 554.878906 262.007812 554.570312 261.492188 C 554.265625 260.972656 553.859375 259.390625 553.664062 257.96875 C 553.476562 256.546875 552.855469 254.222656 552.289062 252.800781 C 549.976562 246.980469 549.097656 243.640625 549.421875 241.890625 C 549.632812 240.746094 549.476562 239.613281 548.957031 238.605469 C 548.523438 237.757812 547.648438 235.585938 547.007812 233.777344 C 546.371094 231.96875 544.046875 227.105469 541.839844 222.972656 C 539.34375 218.289062 537.832031 214.882812 537.832031 213.933594 C 537.832031 212.871094 537.3125 211.871094 536.128906 210.644531 C 534.390625 208.84375 532.636719 206.195312 530.132812 201.601562 C 529.363281 200.179688 527.8125 198.066406 526.691406 196.902344 C 525.570312 195.738281 524.042969 193.679688 523.292969 192.324219 C 522.542969 190.964844 521.714844 189.855469 521.445312 189.855469 C 520.21875 189.855469 517.320312 186.832031 516.789062 185 C 516.480469 183.925781 515.714844 182.515625 515.089844 181.871094 C 514.460938 181.222656 513.339844 179.816406 512.589844 178.738281 C 511.84375 177.660156 510.453125 176.234375 509.496094 175.566406 C 508.542969 174.898438 506.671875 172.988281 505.332031 171.320312 C 503.996094 169.652344 502.417969 168.144531 501.824219 167.96875 C 501.226562 167.796875 498.980469 166.117188 496.832031 164.242188 C 494.679688 162.363281 491.554688 160.191406 489.890625 159.414062 C 488.222656 158.636719 486.050781 157.21875 485.0625 156.261719 C 484.078125 155.304688 482.300781 154.132812 481.113281 153.660156 C 479.929688 153.183594 477.503906 151.761719 475.726562 150.496094 C 473.710938 149.0625 471.183594 147.796875 469 147.132812 C 467.074219 146.546875 464.773438 145.496094 463.882812 144.796875 C 462.996094 144.097656 461.179688 143.15625 459.847656 142.703125 C 458.515625 142.246094 456.324219 140.964844 454.972656 139.851562 C 452.5625 137.863281 452.417969 137.816406 447.296875 137.304688 C 444.421875 137.019531 441.082031 136.445312 439.875 136.03125 C 433.675781 133.910156 431.683594 133.375 427.652344 132.765625 C 425.238281 132.402344 422.355469 131.753906 421.25 131.328125 C 419.628906 130.707031 418.277344 130.613281 414.367188 130.855469 C 411.609375 131.027344 408.75 130.953125 407.769531 130.695312 C 406.660156 130.398438 403.804688 130.386719 399.828125 130.660156 C 396.414062 130.898438 392.8125 130.925781 391.824219 130.726562 C 390.726562 130.503906 389.339844 130.582031 388.238281 130.925781 C 387.253906 131.234375 382.871094 131.746094 378.503906 132.058594 C 371.152344 132.585938 370.390625 132.730469 368.214844 134 C 366.832031 134.804688 365.144531 135.375 364.117188 135.386719 C 363.15625 135.394531 361.792969 135.703125 361.085938 136.074219 C 360.382812 136.445312 358.621094 136.753906 357.167969 136.761719 C 355.253906 136.773438 353.730469 137.164062 351.609375 138.1875 C 349.925781 139 347.898438 139.597656 346.816406 139.601562 C 344.617188 139.605469 340.394531 141.683594 338.234375 143.828125 C 337.417969 144.636719 335.664062 145.816406 334.328125 146.445312 C 332.996094 147.074219 331.53125 148.113281 331.070312 148.753906 C 330.1875 149.992188 323.363281 153.6875 321.964844 153.6875 C 320.054688 153.6875 302.726562 168.953125 300.578125 172.527344 C 299.894531 173.664062 298.453125 175.117188 297.371094 175.757812 C 296.082031 176.523438 294.902344 177.839844 293.949219 179.574219 C 292.953125 181.382812 291.46875 183.003906 289.261719 184.691406 C 287.289062 186.203125 285.605469 187.980469 284.929688 189.261719 C 284.320312 190.414062 283.242188 191.917969 282.535156 192.605469 C 281.824219 193.289062 280.792969 194.949219 280.242188 196.289062 C 279.691406 197.632812 278.753906 199.296875 278.152344 199.992188 C 277.558594 200.6875 277.070312 201.765625 277.070312 202.382812 C 277.070312 204.214844 275.800781 206.425781 273.808594 208.070312 C 272.222656 209.382812 271.945312 209.90625 271.945312 211.601562 C 271.945312 212.910156 271.535156 214.160156 270.75 215.230469 C 270.089844 216.132812 269.285156 218.117188 268.957031 219.640625 C 268.628906 221.164062 267.820312 223.066406 267.15625 223.867188 C 266.449219 224.714844 265.710938 226.558594 265.378906 228.292969 C 265.066406 229.925781 264.367188 231.933594 263.828125 232.753906 C 263.289062 233.578125 262.6875 235.09375 262.492188 236.128906 C 262.292969 237.160156 261.605469 238.878906 260.960938 239.949219 C 259.898438 241.707031 259.785156 242.503906 259.785156 248.257812 C 259.785156 254.519531 259.753906 254.660156 258.179688 257.226562 C 256.46875 260.011719 256.011719 263.636719 257.132812 265.558594 C 258.007812 267.0625 257.777344 270.367188 256.660156 272.378906 C 255.730469 274.050781 255.679688 274.59375 256.152344 278.191406 C 256.4375 280.375 256.730469 283.851562 256.800781 285.917969 C 256.863281 287.984375 257.105469 290.183594 257.324219 290.804688 C 257.539062 291.425781 257.828125 293.75 257.960938 295.972656 C 258.445312 304.074219 258.554688 305.746094 258.984375 311.050781 C 259.253906 314.394531 259.730469 316.988281 260.234375 317.859375 C 260.6875 318.636719 261.222656 320.320312 261.425781 321.609375 C 261.628906 322.894531 262.210938 324.691406 262.714844 325.601562 C 263.21875 326.511719 263.894531 328.808594 264.214844 330.707031 C 264.578125 332.855469 265.453125 335.339844 266.535156 337.285156 C 267.492188 339.003906 268.78125 342.089844 269.398438 344.148438 C 270.015625 346.207031 271.058594 348.535156 271.710938 349.320312 C 273.296875 351.226562 275.519531 355.65625 275.527344 356.925781 C 275.527344 358.570312 277.484375 362.273438 279.320312 364.136719 C 280.292969 365.121094 281.179688 366.640625 281.390625 367.664062 C 281.917969 370.226562 286.410156 377.929688 288.785156 380.335938 C 289.039062 380.59375 290.070312 381.390625 291.082031 382.105469 C 292.339844 382.996094 293.09375 384.027344 293.488281 385.390625 C 293.804688 386.488281 294.59375 387.910156 295.242188 388.554688 C 295.890625 389.203125 296.890625 390.574219 297.460938 391.609375 C 298.683594 393.816406 306.613281 400.722656 310.785156 403.210938 C 315.375 405.945312 316.90625 407.253906 318.691406 409.960938 C 320.054688 412.03125 320.679688 412.542969 322.148438 412.804688 C 323.402344 413.027344 325.027344 414.078125 327.53125 416.28125 C 329.628906 418.128906 331.90625 419.671875 333.019531 420 C 334.160156 420.335938 335.558594 421.292969 336.503906 422.386719 C 338.269531 424.429688 346.933594 428.859375 351.59375 430.101562 C 353.464844 430.601562 354.808594 431.34375 355.894531 432.476562 C 356.757812 433.378906 357.804688 434.121094 358.210938 434.121094 C 359.746094 434.121094 365.5 435.65625 366.976562 436.460938 C 367.824219 436.921875 369.667969 437.445312 371.074219 437.621094 C 372.484375 437.800781 374.800781 438.429688 376.222656 439.019531 C 380.839844 440.929688 383.835938 441.367188 387.828125 440.714844 C 392.375 439.96875 394.304688 440.328125 396.390625 442.300781 L 398.074219 443.890625 L 406.042969 444.234375 C 410.429688 444.425781 414.613281 444.753906 415.34375 444.964844 C 416.074219 445.175781 417.363281 445.238281 418.207031 445.109375 C 419.054688 444.980469 421.863281 444.691406 424.453125 444.476562 Z M 615.082031 437.722656 C 615.890625 436.207031 615.445312 435.210938 614.339844 436.050781 C 613.25 436.882812 612.523438 438.289062 612.898438 438.847656 C 613.402344 439.597656 614.34375 439.109375 615.082031 437.722656 Z M 309.464844 429.425781 C 312.035156 428.792969 312.359375 428.292969 311.167969 426.808594 C 310.441406 425.90625 310.414062 425.90625 308.570312 426.8125 C 306.886719 427.636719 303.703125 430.714844 303.703125 431.523438 C 303.703125 431.699219 304.453125 431.425781 305.367188 430.933594 C 306.28125 430.433594 308.128906 429.753906 309.464844 429.425781 Z M 183.78125 423.128906 C 184.105469 422.769531 185.050781 421.234375 185.882812 419.722656 C 186.710938 418.210938 188 416.285156 188.746094 415.445312 L 190.105469 413.917969 L 186.324219 413.917969 C 181.835938 413.917969 179.539062 413.035156 177.769531 410.628906 C 176.738281 409.230469 176.605469 408.621094 176.867188 406.5 C 177.171875 404.078125 177.152344 404.027344 176.09375 404.546875 C 175.222656 404.976562 175.066406 405.363281 175.316406 406.503906 C 175.488281 407.289062 175.628906 408.628906 175.628906 409.488281 C 175.628906 410.621094 176.167969 411.617188 177.613281 413.144531 C 178.828125 414.4375 179.726562 415.941406 179.933594 417.050781 C 180.121094 418.039062 180.589844 419.589844 180.980469 420.496094 C 181.371094 421.398438 181.816406 422.507812 181.972656 422.960938 C 182.3125 423.953125 182.976562 424.011719 183.777344 423.128906 Z M 281.160156 398.417969 C 281.160156 398.160156 280.933594 397.945312 280.648438 397.945312 C 280.367188 397.945312 280.140625 398.15625 280.140625 398.417969 C 280.140625 398.675781 280.367188 398.886719 280.648438 398.886719 C 280.933594 398.886719 281.160156 398.675781 281.160156 398.417969 Z M 173.53125 392.492188 C 175.542969 388.550781 175.578125 387.613281 173.707031 387.617188 C 171.953125 387.617188 168.808594 389.320312 169.136719 390.09375 C 169.265625 390.410156 169.804688 391.863281 170.328125 393.324219 C 170.847656 394.78125 171.425781 395.894531 171.609375 395.789062 C 171.796875 395.691406 172.660156 394.199219 173.53125 392.492188 Z M 251.914062 393.03125 C 253.207031 391.882812 255.1875 390.113281 256.316406 389.105469 C 257.441406 388.097656 259.519531 386.125 260.925781 384.71875 C 262.507812 383.140625 264.160156 381.988281 265.242188 381.710938 C 267.496094 381.128906 267.71875 380.414062 266.109375 378.9375 C 264.402344 377.371094 263.898438 377.4375 263.035156 379.332031 C 262.640625 380.199219 261.390625 381.59375 260.265625 382.421875 C 259.019531 383.34375 257.875 384.746094 257.347656 386.007812 C 256.875 387.152344 256.050781 388.367188 255.515625 388.707031 C 253.140625 390.234375 248.886719 393.960938 248.886719 394.515625 C 248.886719 395.511719 249.425781 395.246094 251.914062 393.03125 Z M 640.285156 377.984375 C 640.285156 376.605469 639.792969 376.535156 637.574219 377.585938 C 636.078125 378.296875 636.027344 378.394531 636.960938 378.726562 C 637.519531 378.929688 638.5 379.105469 639.132812 379.125 C 640.03125 379.15625 640.285156 378.898438 640.285156 377.984375 Z M 164.46875 372.699219 C 164.902344 372.246094 165.367188 370.882812 165.507812 369.667969 C 165.671875 368.261719 166.222656 366.957031 167.027344 366.082031 C 167.722656 365.324219 168.941406 363.253906 169.738281 361.480469 C 170.535156 359.707031 171.804688 357.511719 172.566406 356.601562 C 173.328125 355.691406 174.445312 354.058594 175.050781 352.96875 C 175.660156 351.878906 176.785156 350.628906 177.554688 350.191406 C 179.390625 349.152344 180.238281 348.175781 180.238281 347.113281 C 180.238281 346.324219 180.125 346.308594 178.828125 346.925781 C 178.054688 347.296875 176.84375 348.167969 176.140625 348.863281 C 175.4375 349.558594 174.007812 350.527344 172.972656 351.015625 C 171.933594 351.503906 170.679688 352.527344 170.191406 353.289062 C 168.476562 355.949219 165.179688 356.710938 160.898438 355.4375 C 159.804688 355.109375 159.746094 355.214844 159.746094 357.519531 C 159.746094 358.855469 160.105469 360.585938 160.546875 361.367188 C 161 362.167969 161.535156 364.902344 161.773438 367.648438 C 162.300781 373.695312 162.738281 374.519531 164.46875 372.699219 Z M 205.855469 363.1875 C 206.457031 362.414062 207.390625 361.777344 207.933594 361.777344 C 208.914062 361.777344 212.960938 356.867188 212.402344 356.355469 C 212.027344 356.007812 202.339844 363.816406 202.613281 364.246094 C 203.136719 365.054688 204.835938 364.5 205.855469 363.1875 Z M 617.683594 353.792969 C 619.578125 352.757812 621.339844 351.914062 621.597656 351.914062 C 621.851562 351.914062 623.015625 351.054688 624.183594 350.003906 C 625.953125 348.410156 626.773438 348.035156 629.132812 347.742188 C 632.171875 347.363281 636.445312 345.199219 637.625 343.441406 C 637.992188 342.894531 639.605469 341.914062 641.210938 341.269531 C 642.816406 340.625 646.488281 339.042969 649.378906 337.753906 L 654.628906 335.414062 L 654.628906 332.625 C 654.628906 331.09375 654.402344 329.835938 654.128906 329.835938 C 652.484375 329.835938 647.367188 332.59375 644.214844 335.179688 C 641.769531 337.183594 639.820312 338.371094 638.386719 338.726562 C 637.199219 339.015625 636.085938 339.46875 635.910156 339.726562 C 635.738281 339.988281 633.964844 341.183594 631.96875 342.390625 C 629.957031 343.605469 627.648438 345.480469 626.785156 346.601562 C 625.929688 347.714844 625.078125 348.625 624.890625 348.625 C 624.699219 348.625 623.535156 349.363281 622.296875 350.257812 C 621.058594 351.15625 619.367188 352.027344 618.53125 352.195312 C 616.410156 352.625 612.382812 355.671875 613.941406 355.671875 C 614.101562 355.671875 615.785156 354.824219 617.683594 353.792969 Z M 155.636719 338.554688 C 155.957031 337.667969 156.65625 336.429688 157.195312 335.804688 L 158.171875 334.664062 L 155.894531 332.484375 C 154.640625 331.289062 153.46875 330.308594 153.285156 330.308594 C 153.101562 330.308594 153.140625 331.207031 153.347656 332.304688 C 153.570312 333.402344 153.800781 335.355469 153.863281 336.648438 C 154.023438 340.015625 154.054688 340.171875 154.578125 340.171875 C 154.839844 340.171875 155.3125 339.445312 155.632812 338.554688 Z M 575.425781 327.804688 C 576.355469 326.664062 576.375 326.464844 575.667969 325.816406 C 574.996094 325.199219 574.789062 325.1875 574.285156 325.734375 C 573.960938 326.097656 573.539062 327.085938 573.355469 327.933594 C 572.949219 329.804688 573.835938 329.742188 575.425781 327.789062 Z M 226.921875 319.863281 C 227.6875 318.550781 226.433594 318.964844 225.425781 320.359375 C 224.742188 321.300781 224.753906 321.371094 225.519531 321.101562 C 225.988281 320.9375 226.621094 320.378906 226.921875 319.863281 Z M 577.996094 316.058594 C 578.378906 314.3125 577.621094 313.433594 576.359375 314.160156 C 575.71875 314.527344 575.445312 315.414062 575.351562 317.4375 L 575.222656 320.207031 L 576.453125 318.84375 C 577.128906 318.097656 577.824219 316.839844 577.996094 316.054688 Z M 233.273438 312.574219 C 233.664062 311.734375 234.550781 310.808594 235.25 310.515625 C 235.949219 310.222656 236.792969 309.386719 237.125 308.652344 C 237.457031 307.921875 238.050781 307.078125 238.441406 306.777344 C 239.34375 306.089844 239.371094 304.472656 238.492188 304.472656 C 237.605469 304.472656 235.550781 306.621094 234.34375 308.8125 C 233.808594 309.777344 232.613281 310.980469 231.6875 311.480469 C 230.417969 312.167969 229.917969 312.832031 229.652344 314.1875 C 229.457031 315.171875 229.070312 316.402344 228.789062 316.917969 C 228.511719 317.433594 229.25 317 230.433594 315.980469 C 231.617188 314.945312 232.898438 313.414062 233.285156 312.574219 Z M 152.308594 291.050781 C 153.078125 290.132812 153.578125 289.261719 153.421875 289.121094 C 152.867188 288.609375 149.503906 290.929688 149.503906 291.828125 C 149.503906 293.238281 150.785156 292.886719 152.3125 291.050781 Z M 578.074219 290.957031 C 578.375 290.765625 579.367188 289.605469 580.28125 288.375 C 581.230469 287.09375 582.796875 285.738281 583.960938 285.195312 C 585.070312 284.675781 585.980469 284.128906 585.980469 283.984375 C 585.980469 283.503906 581.683594 284.347656 579.476562 285.257812 C 578.296875 285.746094 577.085938 286.148438 576.789062 286.148438 C 576.476562 286.148438 576.246094 287.230469 576.246094 288.730469 C 576.246094 291.273438 576.699219 291.824219 578.074219 290.953125 Z M 237.105469 279.835938 C 237.105469 277.652344 236.917969 275.765625 236.691406 275.636719 C 235.921875 275.199219 229.464844 282.144531 229.429688 283.449219 C 229.429688 283.640625 231.148438 283.800781 233.265625 283.800781 L 237.105469 283.800781 Z M 659.632812 280.042969 C 660.121094 279.78125 661.179688 279.355469 661.988281 279.09375 C 663.171875 278.707031 663.394531 278.414062 663.148438 277.566406 C 662.980469 276.988281 662.839844 276.015625 662.835938 275.402344 C 662.835938 274.417969 662.722656 274.363281 661.972656 274.933594 C 661.5 275.289062 660.464844 276.519531 659.667969 277.667969 C 657.75 280.425781 657.742188 281.039062 659.636719 280.039062 Z M 185.324219 265.238281 C 187.136719 264.078125 188.867188 263.125 189.167969 263.117188 C 190.207031 263.085938 193.9375 259.601562 195.304688 257.375 C 196.058594 256.148438 196.542969 255.144531 196.375 255.144531 C 195.199219 255.144531 192.878906 256.886719 191.796875 258.582031 C 189.941406 261.480469 188.398438 262.636719 185.839844 263.035156 C 184.078125 263.3125 183.34375 263.730469 182.429688 264.972656 C 180.199219 268.007812 180.902344 268.074219 185.328125 265.238281 Z M 152.457031 264.910156 C 156.761719 260.523438 159.625 256.753906 159.058594 256.234375 C 158.730469 255.933594 154.078125 258.488281 152.0625 260.074219 C 151.359375 260.625 150.15625 261.4375 149.386719 261.871094 C 148.1875 262.554688 148.039062 262.882812 148.304688 264.1875 C 148.917969 267.140625 150.074219 267.34375 152.457031 264.910156 Z M 577.476562 265.058594 C 579.101562 263.503906 578.765625 263.085938 576.375 263.675781 C 575.070312 264.003906 574.710938 264.339844 574.710938 265.253906 C 574.710938 266.792969 575.734375 266.722656 577.476562 265.054688 Z M 202.652344 252.328125 C 203.632812 251.78125 204.320312 251.011719 204.320312 250.464844 C 204.320312 249.296875 203.113281 249.613281 201.117188 251.304688 C 198.699219 253.351562 199.667969 253.996094 202.652344 252.328125 Z M 238.101562 247.179688 C 241.347656 246.15625 241.722656 245.546875 241.664062 241.375 C 241.65625 239.777344 241.882812 237.855469 242.199219 237.109375 C 242.511719 236.363281 242.6875 235.675781 242.585938 235.582031 C 242.367188 235.382812 239.667969 239.179688 238.40625 241.453125 C 237.925781 242.324219 236.609375 243.953125 235.480469 245.074219 C 233.566406 246.976562 233.273438 248.117188 234.703125 248.078125 C 235.039062 248.070312 236.570312 247.667969 238.105469 247.179688 Z M 568.089844 229.171875 C 569.097656 228.597656 570.644531 227.375 571.523438 226.449219 C 572.464844 225.464844 573.984375 224.535156 575.195312 224.203125 C 576.652344 223.800781 577.511719 223.203125 578.078125 222.199219 C 578.523438 221.410156 578.777344 220.664062 578.644531 220.539062 C 578.515625 220.425781 577.234375 220.859375 575.804688 221.523438 C 574.378906 222.1875 572.5625 222.730469 571.769531 222.730469 C 570.410156 222.730469 564.464844 225.726562 564.46875 226.40625 C 564.46875 227.277344 565.585938 230.242188 565.898438 230.230469 C 566.097656 230.222656 567.082031 229.746094 568.089844 229.175781 Z M 156.386719 219.023438 C 156.773438 218.339844 158.429688 216.515625 160.070312 214.96875 C 164.46875 210.820312 167.433594 207.59375 167.433594 206.953125 C 167.433594 206.601562 165.765625 206.160156 163.035156 205.789062 C 158.125 205.117188 157.742188 205.273438 157.683594 207.933594 C 157.671875 208.707031 157.320312 210.1875 156.914062 211.222656 C 156.507812 212.257812 156.164062 213.628906 156.148438 214.277344 C 156.136719 214.921875 155.769531 216.296875 155.339844 217.328125 C 153.941406 220.699219 153.910156 220.894531 154.839844 220.566406 C 155.308594 220.402344 156.003906 219.707031 156.390625 219.023438 Z M 205.867188 215.195312 C 206.585938 213.960938 206.484375 212.863281 205.652344 212.863281 C 204.746094 212.863281 201.640625 216.070312 202.011719 216.621094 C 202.429688 217.242188 205.289062 216.183594 205.867188 215.195312 Z M 643.617188 214.496094 C 644.742188 213.859375 646.3125 213.339844 647.105469 213.335938 C 649.449219 213.332031 653.09375 212.328125 653.09375 211.6875 C 653.09375 211.359375 652.5 210.734375 651.773438 210.300781 C 650.558594 209.570312 650.3125 209.566406 648.75 210.234375 C 647.816406 210.640625 646.828125 210.976562 646.554688 210.976562 C 645.898438 210.976562 640.800781 214.792969 640.800781 215.285156 C 640.800781 215.902344 641.425781 215.722656 643.621094 214.484375 Z M 556.851562 206.75 L 558.0625 205.804688 L 556.527344 206.109375 C 554.628906 206.488281 554.222656 206.691406 554.222656 207.253906 C 554.222656 208.003906 555.585938 207.742188 556.855469 206.75 Z M 262.507812 190.785156 C 263.476562 190.785156 263.8125 190.417969 264.269531 188.859375 C 264.582031 187.800781 264.710938 186.816406 264.550781 186.671875 C 264.175781 186.324219 258.472656 190.023438 258.191406 190.796875 C 258.027344 191.242188 258.40625 191.320312 259.640625 191.09375 C 260.558594 190.925781 261.847656 190.785156 262.507812 190.785156 Z M 629.527344 181.863281 C 631.203125 181.085938 633.351562 180.453125 634.304688 180.453125 C 635.726562 180.453125 639.046875 179.714844 639.675781 179.257812 C 640.136719 178.925781 638.046875 173.863281 637.136719 173.113281 C 636.082031 172.242188 636.046875 172.257812 633.953125 174.410156 C 632.785156 175.609375 630.371094 178.089844 628.578125 179.929688 C 626.789062 181.765625 625.585938 183.269531 625.902344 183.269531 C 626.222656 183.269531 627.851562 182.636719 629.527344 181.863281 Z M 212.457031 176.261719 C 214.039062 174.734375 216.078125 173.144531 216.988281 172.730469 C 218.367188 172.109375 220.199219 169.957031 220.199219 168.96875 C 220.199219 168.167969 218.746094 169.046875 215.644531 171.714844 C 213.726562 173.367188 211.457031 175.050781 210.597656 175.457031 C 209.714844 175.875 208.804688 176.816406 208.5 177.621094 C 207.609375 179.957031 209.203125 179.410156 212.457031 176.261719 Z M 173.933594 169.359375 C 175.308594 166.691406 177.566406 164.773438 181.167969 163.207031 C 182.933594 162.4375 183.4375 161.914062 185.84375 158.324219 C 186.644531 157.132812 188.277344 155.546875 189.480469 154.800781 C 192.082031 153.179688 193.636719 151.328125 192.390625 151.328125 C 191.957031 151.328125 190.648438 152.0625 189.480469 152.957031 C 186.703125 155.085938 184.398438 155.660156 181.171875 155.023438 C 177.867188 154.375 176.140625 155.269531 176.140625 157.628906 C 176.140625 158.640625 175.535156 160.027344 174.453125 161.492188 C 173.300781 163.050781 172.550781 164.824219 172.101562 167.066406 C 171.738281 168.875 171.332031 170.722656 171.195312 171.175781 C 171.035156 171.707031 171.226562 172 171.757812 172 C 172.242188 172 173.121094 170.925781 173.929688 169.359375 Z M 229.183594 164.183594 C 230.605469 162.796875 232.050781 161.664062 232.398438 161.664062 C 233.140625 161.664062 240.210938 155.070312 241.855469 152.835938 C 242.492188 151.976562 244.074219 150.835938 245.433594 150.257812 C 246.769531 149.6875 247.863281 149.035156 247.863281 148.804688 C 247.863281 148.023438 244.535156 148.980469 243.511719 150.058594 C 242.945312 150.648438 241.5625 151.675781 240.4375 152.34375 C 239.308594 153.007812 237.664062 154.269531 236.78125 155.140625 C 232.707031 159.167969 229.289062 162.066406 226.316406 164.011719 C 222.332031 166.613281 221.84375 167.496094 224.628906 167.03125 C 226.113281 166.785156 227.242188 166.078125 229.183594 164.183594 Z M 524.269531 161.546875 C 525.324219 159.472656 525.890625 157.417969 525.402344 157.441406 C 525.339844 157.445312 523.890625 157.851562 522.203125 158.34375 C 520.328125 158.890625 519.191406 159.472656 519.289062 159.832031 C 519.464844 160.492188 522.410156 164.011719 522.78125 164.011719 C 522.910156 164.011719 523.582031 162.898438 524.269531 161.542969 Z M 628.503906 156.261719 C 628.503906 155.875 628.289062 155.558594 628.023438 155.558594 C 627.375 155.558594 626.914062 156.292969 627.320312 156.667969 C 627.898438 157.195312 628.5 156.988281 628.5 156.261719 Z M 506.808594 147.222656 C 507 146.511719 507.832031 145.148438 508.660156 144.195312 C 511.207031 141.253906 510.316406 141.046875 506.878906 143.777344 C 505.597656 144.789062 504.085938 145.757812 503.515625 145.921875 C 501.957031 146.378906 502.265625 147.535156 504.136719 148.257812 C 506.109375 149.015625 506.355469 148.921875 506.808594 147.222656 Z M 255.5625 142.851562 C 256.402344 141.410156 256.121094 141.25 254.78125 142.40625 C 254.078125 143.011719 253.5 143.675781 253.5 143.878906 C 253.5 144.519531 255.039062 143.75 255.5625 142.851562 Z M 612.742188 140.152344 C 615.410156 139.917969 616.988281 139.542969 617.582031 139 C 618.417969 138.234375 618.394531 138.121094 617.136719 136.894531 C 616.40625 136.179688 615.308594 134.75 614.703125 133.714844 C 612.703125 130.324219 611.277344 128.3125 609.949219 127.011719 C 609.230469 126.308594 608.246094 125.011719 607.761719 124.132812 L 606.878906 122.535156 L 605.382812 125.398438 C 604.039062 127.964844 603.589844 128.386719 601 129.507812 L 598.117188 130.757812 L 600.867188 131.769531 C 604.75 133.191406 606.167969 135.175781 605.742188 138.585938 L 605.429688 141.105469 L 607.101562 140.800781 C 608.027344 140.632812 610.5625 140.34375 612.738281 140.152344 Z M 262.976562 137.242188 C 263.589844 136.324219 262.25 136.78125 260.828125 137.964844 L 259.390625 139.167969 L 261.023438 138.441406 C 261.921875 138.039062 262.800781 137.5 262.976562 137.242188 Z M 485.570312 134.886719 C 485.570312 134.628906 485.210938 134.417969 484.773438 134.417969 C 484.332031 134.417969 484.117188 134.628906 484.289062 134.886719 C 484.464844 135.148438 484.824219 135.359375 485.089844 135.359375 C 485.351562 135.359375 485.570312 135.148438 485.570312 134.886719 Z M 270.082031 132.507812 C 271.429688 131.53125 271.902344 130.191406 270.894531 130.191406 C 270.199219 130.191406 267.84375 132.351562 267.84375 132.988281 C 267.84375 133.738281 268.59375 133.578125 270.082031 132.507812 Z M 280.210938 125.039062 C 281.785156 123.835938 280.789062 123.824219 279.117188 125.023438 C 278.410156 125.53125 278.097656 125.949219 278.417969 125.953125 C 278.738281 125.960938 279.546875 125.550781 280.210938 125.042969 Z M 359.035156 117.507812 C 359.035156 117.25 358.804688 117.039062 358.523438 117.039062 C 358.242188 117.039062 358.011719 117.25 358.011719 117.507812 C 358.011719 117.769531 358.242188 117.976562 358.523438 117.976562 C 358.804688 117.976562 359.035156 117.765625 359.035156 117.507812 Z M 436.507812 115.746094 C 437.289062 114.925781 438.953125 112.148438 438.953125 111.660156 C 438.953125 111.121094 437.523438 111.449219 434.082031 112.777344 C 432.125 113.535156 430.449219 114.359375 430.359375 114.609375 C 430.214844 115.019531 433.757812 116.4375 435.160156 116.53125 C 435.46875 116.546875 436.074219 116.199219 436.507812 115.746094 Z M 223.222656 112.601562 C 224.765625 111.867188 228.105469 108.632812 227.703125 108.261719 C 227.300781 107.890625 222.949219 109.820312 221.789062 110.886719 C 220.652344 111.925781 220.347656 113.28125 221.25 113.28125 C 221.546875 113.28125 222.433594 112.972656 223.222656 112.601562 Z M 399.242188 112.34375 C 401.214844 112.34375 406.15625 107.226562 406.164062 105.179688 C 406.164062 104.027344 405.398438 104.152344 402.925781 105.703125 C 401.75 106.441406 400.210938 107.210938 399.507812 107.414062 C 398.4375 107.722656 393.359375 112.121094 393.359375 112.742188 C 393.359375 112.835938 394.425781 112.804688 395.734375 112.644531 C 397.042969 112.480469 398.621094 112.34375 399.242188 112.34375 Z M 596.988281 110.964844 C 596.457031 109.015625 593.976562 104.640625 593.300781 104.457031 C 592.960938 104.363281 592.542969 104.882812 592.375 105.613281 C 592.207031 106.34375 591.667969 108.144531 591.175781 109.613281 L 590.277344 112.289062 L 593.796875 112.226562 C 597.308594 112.160156 597.316406 112.160156 596.988281 110.957031 Z M 302.457031 106.953125 C 303 106.574219 303.179688 106.257812 302.851562 106.25 C 301.878906 106.21875 300.628906 106.773438 300.628906 107.226562 C 300.628906 107.84375 301.324219 107.738281 302.453125 106.953125 Z M 234.308594 103.617188 C 235.628906 103.390625 237.445312 102.367188 239.890625 100.472656 C 241.882812 98.925781 244.316406 97.351562 245.304688 96.972656 C 246.289062 96.59375 247.671875 95.789062 248.378906 95.179688 C 249.085938 94.574219 251.273438 93.128906 253.246094 91.96875 C 257.746094 89.324219 262.453125 85.730469 263.28125 84.3125 C 263.632812 83.714844 264.972656 82.765625 266.265625 82.203125 C 267.558594 81.640625 269.480469 80.476562 270.539062 79.613281 C 271.59375 78.753906 272.804688 78.050781 273.226562 78.050781 C 273.648438 78.050781 274.855469 77.351562 275.914062 76.496094 C 276.972656 75.636719 278.921875 74.367188 280.25 73.667969 C 281.578125 72.964844 283.726562 71.554688 285.019531 70.527344 C 286.316406 69.5 287.59375 68.65625 287.855469 68.65625 C 288.121094 68.65625 288.335938 68.011719 288.335938 67.226562 C 288.335938 66.183594 288.957031 65.191406 290.644531 63.539062 C 291.910156 62.296875 292.949219 61.011719 292.949219 60.6875 C 292.949219 59.75 290.414062 60.558594 288.484375 62.101562 C 287.550781 62.855469 286.097656 63.796875 285.253906 64.199219 C 284.410156 64.597656 283.128906 65.78125 282.410156 66.828125 C 281.6875 67.875 280.394531 69.085938 279.53125 69.515625 C 278.667969 69.949219 277.328125 70.773438 276.558594 71.347656 C 275.785156 71.921875 274.140625 72.828125 272.90625 73.355469 C 269.542969 74.796875 267.433594 76.167969 264.824219 78.609375 C 263.527344 79.824219 261.730469 81.089844 260.824219 81.429688 C 259.921875 81.765625 258.648438 82.78125 257.996094 83.6875 C 257.296875 84.65625 255.578125 85.933594 253.8125 86.796875 C 252.164062 87.601562 250.039062 89.039062 249.085938 89.992188 C 248.132812 90.945312 246.347656 92.136719 245.109375 92.636719 C 243.582031 93.253906 241.945312 94.578125 239.984375 96.777344 C 238.398438 98.554688 236.238281 100.558594 235.183594 101.226562 C 232.632812 102.851562 229.167969 105.738281 231.015625 104.703125 C 231.75 104.289062 233.230469 103.800781 234.3125 103.617188 Z M 528.140625 98.226562 C 529.664062 97.480469 528.816406 96.820312 527.058594 97.382812 C 526.21875 97.652344 525.402344 98.0625 525.246094 98.296875 C 524.851562 98.878906 526.914062 98.828125 528.144531 98.214844 Z M 586.292969 96.292969 C 586.644531 95.769531 586.238281 95.398438 581.636719 91.980469 L 579.835938 90.640625 L 579.835938 92.113281 C 579.835938 92.921875 579.503906 94.316406 579.09375 95.210938 L 578.351562 96.839844 L 582.136719 96.839844 C 584.460938 96.839844 586.0625 96.628906 586.289062 96.292969 Z M 539.648438 93.664062 C 539.945312 93.472656 540.726562 92.5 541.390625 91.5 C 542.785156 89.398438 545.011719 88.386719 548.242188 88.386719 C 550.546875 88.386719 552.972656 87.238281 555.796875 84.804688 C 557.289062 83.519531 559.769531 82.75 562.414062 82.746094 C 563.402344 82.746094 565.015625 82.292969 566 81.746094 L 567.789062 80.742188 L 566.546875 79.984375 C 565.863281 79.570312 564.222656 78.222656 562.902344 76.996094 C 560.339844 74.605469 558.601562 74.148438 558.058594 75.71875 C 557.609375 77.011719 554.082031 80.074219 550.636719 82.160156 C 549.085938 83.097656 546.921875 84.789062 545.828125 85.917969 C 544.550781 87.234375 542.347656 88.648438 539.679688 89.871094 C 535.175781 91.9375 533.601562 92.976562 534.027344 93.613281 C 534.359375 94.105469 538.894531 94.144531 539.648438 93.664062 Z M 495.457031 63.324219 C 497.449219 61.386719 498.589844 60.917969 502.476562 60.441406 C 504.890625 60.144531 505.667969 59.773438 507.886719 57.855469 C 511.199219 55 513.171875 54.082031 516.710938 53.746094 C 519.296875 53.503906 522.894531 52.015625 522.949219 51.171875 C 522.960938 50.984375 522.296875 50.511719 521.472656 50.121094 C 520.652344 49.730469 518.878906 48.539062 517.539062 47.476562 L 515.101562 45.542969 L 511.734375 48.710938 C 509.882812 50.457031 507.609375 52.175781 506.683594 52.535156 C 505.753906 52.890625 504.867188 53.492188 504.710938 53.863281 C 504.125 55.265625 497.261719 60.109375 495.132812 60.625 C 493.535156 61.011719 492.640625 61.621094 491.574219 63.050781 C 490.273438 64.785156 486 67.226562 484.234375 67.242188 C 483.460938 67.246094 480.960938 69.582031 480.960938 70.292969 C 480.960938 71.238281 493.535156 65.191406 495.457031 63.320312 Z M 292.691406 67.714844 C 292.867188 67.457031 292.636719 67.246094 292.207031 67.246094 C 291.769531 67.246094 291.410156 67.457031 291.410156 67.714844 C 291.410156 67.976562 291.625 68.1875 291.890625 68.1875 C 292.15625 68.1875 292.515625 67.976562 292.691406 67.714844 Z M 538.886719 66.109375 C 540.136719 65.742188 542.011719 65.3125 543.058594 65.152344 C 545.597656 64.765625 545.859375 64.195312 544.132812 62.800781 C 541.554688 60.714844 540.988281 60.785156 538.285156 63.554688 C 534.890625 67.027344 534.949219 67.273438 538.890625 66.109375 Z M 256.828125 63.960938 C 257.003906 63.699219 256.90625 63.488281 256.636719 63.488281 C 256.351562 63.488281 255.980469 63.699219 255.804688 63.960938 C 255.632812 64.21875 255.730469 64.429688 256 64.429688 C 256.28125 64.429688 256.65625 64.21875 256.828125 63.960938 Z M 361.09375 48.679688 C 362.148438 47.515625 361.15625 47.246094 359.929688 48.367188 C 359.027344 49.195312 358.96875 49.398438 359.625 49.398438 C 360.074219 49.398438 360.734375 49.074219 361.09375 48.679688 Z M 480.316406 43.265625 C 486.164062 40.667969 491.699219 38.207031 492.613281 37.789062 C 494.648438 36.871094 494.761719 35.886719 492.871094 35.519531 C 492.097656 35.375 490.195312 34.738281 488.648438 34.117188 C 487.097656 33.496094 484.792969 32.925781 483.523438 32.855469 C 481.34375 32.742188 481.167969 32.804688 480.332031 34.367188 C 479.84375 35.269531 478.816406 36.476562 478.046875 37.046875 C 477.199219 37.675781 476.433594 38.878906 476.113281 40.085938 C 475.683594 41.703125 475 42.515625 472.527344 44.339844 C 469.421875 46.625 468.164062 47.988281 469.152344 47.988281 C 469.445312 47.988281 474.46875 45.863281 480.316406 43.265625 Z M 379.324219 38.710938 C 380.171875 37.933594 380.171875 37.878906 379.335938 37.734375 C 378.40625 37.570312 376.964844 38.414062 376.964844 39.121094 C 376.964844 39.824219 378.378906 39.574219 379.324219 38.710938 Z M 386.183594 33.859375 C 386.183594 33.636719 385.839844 33.578125 385.417969 33.730469 C 384.996094 33.875 384.648438 34.183594 384.648438 34.40625 C 384.648438 34.628906 384.996094 34.6875 385.417969 34.535156 C 385.839844 34.390625 386.183594 34.082031 386.183594 33.859375 Z M 472.917969 29.441406 C 472.972656 29.183594 472.617188 28.90625 472.125 28.820312 C 471.5625 28.722656 471.226562 28.949219 471.226562 29.433594 C 471.226562 30.25 472.742188 30.257812 472.917969 29.441406 Z M 361.859375 25.707031 C 364.632812 24.042969 367.113281 22.332031 367.375 21.902344 C 368.046875 20.796875 367.15625 20.164062 364.832031 20.09375 C 362.988281 20.03125 362.8125 20.175781 361.730469 22.230469 C 361.101562 23.4375 359.835938 24.898438 358.914062 25.476562 C 356.476562 27.007812 355.140625 28.730469 356.390625 28.730469 C 356.628906 28.730469 359.089844 27.367188 361.859375 25.707031 Z M 402.578125 24.855469 C 409.277344 21.871094 412.898438 18.867188 409.789062 18.867188 C 409.28125 18.867188 408.277344 18.441406 407.5625 17.925781 C 404.871094 15.984375 402.878906 17.007812 401.875 20.851562 C 401.429688 22.550781 398.867188 25.179688 396.945312 25.910156 C 396.097656 26.230469 395.40625 26.703125 395.40625 26.957031 C 395.40625 27.683594 397.808594 26.972656 402.578125 24.851562 Z M 439.976562 21.214844 C 440.941406 20.523438 441.050781 20.292969 440.417969 20.285156 C 439.957031 20.277344 439.03125 20.691406 438.367188 21.199219 C 436.734375 22.445312 438.238281 22.460938 439.976562 21.210938 Z M 423.988281 19.742188 C 424.203125 18.699219 421.691406 17.914062 419.992188 18.496094 L 418.714844 18.933594 L 419.957031 19.863281 C 421.398438 20.941406 423.753906 20.871094 423.988281 19.75 Z M 423.988281 19.742188 " fill-opacity="1" fill-rule="nonzero"/></svg>