<svg xmlns="http://www.w3.org/2000/svg" xmlns:xlink="http://www.w3.org/1999/xlink" width="1080" zoomAndPan="magnify" viewBox="0 0 810 809.999993" height="1080" preserveAspectRatio="xMidYMid meet" version="1.0"><defs><clipPath id="8b35f4ec90"><path d="M 3.6875 0 L 806.183594 0 L 806.183594 809.996094 L 3.6875 809.996094 Z M 3.6875 0 " clip-rule="nonzero"/></clipPath></defs><rect x="-81" width="972" fill="#ffffff" y="-80.999999" height="971.999992" fill-opacity="1"/><rect x="-81" width="972" fill="#f4efe8" y="-80.999999" height="971.999992" fill-opacity="1"/><g clip-path="url(#8b35f4ec90)"><path fill="#3c3738" d="M 629.808594 33.140625 C 661.722656 1.222656 678.75 0.726562 713.796875 0.726562 C 748.84375 0.726562 806.347656 0.726562 806.347656 0.726562 C 806.347656 0.726562 716.300781 84.585938 703.789062 134.667969 C 698.554688 155.613281 695.933594 184.800781 687.339844 218.835938 C 687.902344 219.285156 806.347656 312.816406 806.347656 440.203125 C 806.347656 567.882812 704.414062 748.261719 667.390625 809.378906 C 667.390625 809.378906 624.523438 766.042969 643.136719 727.492188 C 665.945312 680.253906 758.433594 513.945312 761.886719 446.597656 C 766.769531 351.300781 717.28125 286.730469 678.058594 249.867188 C 677.65625 251.023438 677.238281 252.164062 676.820312 253.320312 C 711.59375 284.496094 759.332031 344.296875 759.332031 437.652344 C 759.332031 514.105469 652.9375 699.335938 615.898438 760.453125 C 615.898438 760.453125 573.027344 717.117188 591.644531 678.566406 C 614.453125 631.328125 709.941406 486.800781 714.003906 410.84375 C 716.976562 355.105469 691.421875 317.070312 662.253906 287.226562 C 661.914062 287.902344 661.578125 288.578125 661.242188 289.253906 C 689.542969 319 716.140625 361.148438 711.242188 411.808594 C 702.824219 498.621094 601.488281 645.433594 565.71875 710.53125 C 565.71875 710.53125 524.9375 669.460938 543.550781 630.910156 C 566.359375 583.671875 652.375 478.433594 658.125 402.585938 C 660.789062 367.332031 653.515625 342.789062 641.148438 323.304688 C 640.503906 324.25 639.84375 325.214844 639.1875 326.164062 C 652.503906 347.605469 660.292969 374.351562 654.960938 406.875 C 641.582031 488.457031 552.949219 597.117188 517.164062 662.214844 C 517.164062 662.214844 474.292969 618.878906 492.910156 580.332031 C 515.714844 533.09375 606.132812 466.738281 611.863281 390.894531 C 612.714844 379.539062 612.523438 369.757812 611.429688 361.226562 C 605.890625 367.394531 599.980469 373.578125 593.652344 379.761719 C 557.785156 414.808594 507.796875 424.753906 458.40625 423.082031 C 435.164062 485.644531 401.371094 572.476562 387.011719 588.570312 C 364.121094 614.253906 317.285156 605.292969 317.285156 605.292969 L 412.726562 418.519531 C 411.039062 418.246094 409.351562 417.976562 407.683594 417.683594 C 379.492188 476.28125 326.3125 583.800781 308.046875 600.601562 C 282.734375 623.890625 237.003906 610.351562 237.003906 610.351562 L 366.609375 408.722656 C 365.328125 408.386719 364.058594 408.046875 362.773438 407.695312 C 334.261719 453.230469 253.242188 580.828125 230.4375 597.40625 C 202.601562 617.628906 158.75 598.898438 158.75 598.898438 L 325.058594 396.113281 C 323.371094 395.535156 321.71875 394.957031 320.109375 394.378906 C 287.535156 436.542969 193.847656 556.253906 169.449219 570.550781 C 139.765625 587.929688 97.953125 564.992188 97.953125 564.992188 L 283.199219 379.746094 C 283.199219 379.746094 287.714844 375.234375 295.695312 367.25 C 323.789062 339.15625 395.007812 267.9375 464.765625 198.179688 C 453.554688 195.078125 439.757812 193.875 422.1875 195.207031 C 346.339844 200.941406 279.988281 291.355469 232.75 314.164062 C 194.199219 332.78125 150.863281 289.910156 150.863281 289.910156 C 215.964844 254.125 324.625 165.492188 406.203125 152.113281 C 441.285156 146.363281 469.617188 155.871094 491.847656 171.097656 C 492.601562 170.34375 493.359375 169.589844 494.113281 168.832031 C 473.953125 154.730469 448.433594 146.089844 410.507812 148.949219 C 334.664062 154.683594 229.421875 240.695312 182.183594 263.519531 C 143.636719 282.136719 102.5625 241.355469 102.5625 241.355469 C 167.664062 205.566406 314.457031 104.230469 401.289062 95.832031 C 450.007812 91.109375 490.851562 115.539062 520.375 142.589844 C 520.890625 142.074219 521.402344 141.558594 521.933594 141.03125 C 492.699219 113.484375 455.578125 90.210938 402.253906 93.066406 C 326.296875 97.132812 181.765625 192.621094 134.527344 215.429688 C 95.980469 234.046875 52.644531 191.175781 52.644531 191.175781 C 113.761719 154.152344 298.988281 47.742188 375.445312 47.742188 C 456.929688 47.742188 512.839844 84.105469 546.476562 116.488281 C 547.183594 115.78125 547.875 115.089844 548.578125 114.382812 C 510.238281 78.5625 450.230469 40.882812 366.515625 45.1875 C 299.164062 48.640625 132.859375 141.109375 85.617188 163.933594 C 47.019531 182.550781 3.6875 139.679688 3.6875 139.679688 C 64.800781 102.65625 245.179688 0.726562 372.859375 0.726562 C 461.554688 0.726562 533.851562 58.164062 569.71875 93.230469 C 599.929688 63.015625 622.417969 40.511719 629.808594 33.140625 Z M 629.808594 33.140625 " fill-opacity="1" fill-rule="nonzero"/></g><path fill="#f4efe8" d="M 673.125 37.21875 C 678.941406 37.21875 683.664062 41.941406 683.664062 47.757812 C 683.664062 53.570312 678.941406 58.292969 673.125 58.292969 C 667.3125 58.292969 662.589844 53.570312 662.589844 47.757812 C 662.589844 41.941406 667.3125 37.21875 673.125 37.21875 Z M 673.125 37.21875 " fill-opacity="1" fill-rule="nonzero"/></svg>