<svg width="1178" height="303" viewBox="0 0 1178 303" fill="none" xmlns="http://www.w3.org/2000/svg">
<mask id="mask0_17_135" style="mask-type:luminance" maskUnits="userSpaceOnUse" x="947" y="48" width="188" height="190">
<path d="M947.797 48.1145H1134.8V237.115H947.797V48.1145Z" fill="white"/>
</mask>
<g mask="url(#mask0_17_135)">
<path d="M1093.82 55.9375C1101.27 48.4948 1105.23 48.375 1113.41 48.375C1121.58 48.375 1134.99 48.375 1134.99 48.375C1134.99 48.375 1113.99 67.9323 1111.07 79.6146C1109.85 84.5 1109.24 91.3073 1107.24 99.2448C1107.37 99.349 1134.99 121.161 1134.99 150.87C1134.99 180.646 1111.22 222.714 1102.59 236.969C1102.59 236.969 1092.59 226.865 1096.93 217.87C1102.25 206.854 1123.82 168.068 1124.63 152.359C1125.77 130.135 1114.22 115.078 1105.07 106.479C1104.98 106.75 1104.89 107.016 1104.79 107.286C1112.9 114.557 1124.03 128.505 1124.03 150.276C1124.03 168.104 1099.21 211.307 1090.58 225.557C1090.58 225.557 1080.58 215.453 1084.92 206.464C1090.24 195.443 1112.51 161.74 1113.46 144.021C1114.15 131.026 1108.19 122.156 1101.39 115.193C1101.31 115.349 1101.23 115.51 1101.15 115.667C1107.76 122.604 1113.96 132.432 1112.81 144.25C1110.85 164.495 1087.22 198.734 1078.88 213.917C1078.88 213.917 1069.36 204.339 1073.7 195.349C1079.03 184.328 1099.08 159.786 1100.43 142.099C1101.05 133.875 1099.35 128.151 1096.46 123.609C1096.32 123.828 1096.16 124.052 1096.01 124.276C1099.11 129.276 1100.93 135.51 1099.69 143.099C1096.57 162.125 1075.9 187.464 1067.55 202.646C1067.55 202.646 1057.55 192.542 1061.9 183.552C1067.21 172.531 1088.3 157.057 1089.64 139.37C1089.83 136.724 1089.79 134.443 1089.54 132.453C1088.24 133.891 1086.86 135.333 1085.39 136.776C1077.03 144.948 1065.36 147.266 1053.85 146.875C1048.43 161.469 1040.55 181.719 1037.2 185.474C1031.86 191.464 1020.94 189.37 1020.94 189.37L1043.19 145.813C1042.8 145.75 1042.41 145.688 1042.02 145.62C1035.44 159.286 1023.04 184.359 1018.78 188.276C1012.88 193.708 1002.21 190.552 1002.21 190.552L1032.44 143.526C1032.14 143.448 1031.84 143.37 1031.54 143.286C1024.9 153.906 1006 183.667 1000.68 187.531C994.188 192.25 983.964 187.88 983.964 187.88L1022.75 140.589C1022.35 140.453 1021.97 140.318 1021.59 140.182C1014 150.016 992.146 177.938 986.458 181.271C979.536 185.323 969.786 179.974 969.786 179.974L1012.98 136.771C1012.98 136.771 1014.04 135.719 1015.9 133.854C1022.45 127.302 1039.06 110.693 1055.33 94.4271C1052.72 93.7031 1049.5 93.4219 1045.4 93.7344C1027.71 95.0677 1012.24 116.156 1001.22 121.474C992.229 125.818 982.125 115.818 982.125 115.818C997.307 107.474 1022.65 86.8021 1041.67 83.6823C1049.85 82.3438 1056.46 84.5573 1061.65 88.1094C1061.82 87.9323 1062 87.7604 1062.18 87.5833C1057.47 84.2917 1051.52 82.276 1042.68 82.9427C1024.99 84.2813 1000.44 104.344 989.427 109.667C980.438 114.005 970.859 104.495 970.859 104.495C986.042 96.151 1020.28 72.5156 1040.53 70.5573C1051.89 69.4531 1061.42 75.151 1068.3 81.4635C1068.42 81.3438 1068.54 81.2187 1068.66 81.099C1061.84 74.6719 1053.19 69.2448 1040.75 69.9115C1023.04 70.8594 989.328 93.1302 978.313 98.4479C969.323 102.792 959.219 92.7917 959.219 92.7917C973.469 84.1563 1016.67 59.3385 1034.5 59.3385C1053.51 59.3385 1066.54 67.8229 1074.39 75.375C1074.55 75.2083 1074.71 75.0469 1074.88 74.8854C1065.94 66.5313 1051.94 57.7396 1032.42 58.7448C1016.71 59.5521 977.922 81.1146 966.906 86.4375C957.906 90.7813 947.797 80.7813 947.797 80.7813C962.052 72.151 1004.12 48.375 1033.9 48.375C1054.58 48.375 1071.44 61.7708 1079.81 69.9479C1086.85 62.901 1092.1 57.6563 1093.82 55.9375Z" fill="#3C3738"/>
</g>
<mask id="mask1_17_135" style="mask-type:luminance" maskUnits="userSpaceOnUse" x="55" y="28" width="852" height="215">
<path d="M907 28H55V242.667H907V28Z" fill="white"/>
</mask>
<g mask="url(#mask1_17_135)">
<path d="M178.068 163.422C180.318 161.187 182.141 158.875 183.547 156.484C179.891 166.859 173.787 175.703 165.235 183.005C158.787 188.479 151.636 192.724 143.776 195.734C135.912 198.75 127.776 200.328 119.36 200.463C111.094 200.463 103.344 198.922 96.1097 195.838C88.8858 192.755 82.5368 188.479 77.0681 183.005C71.5941 177.536 67.3181 171.187 64.2347 163.963C61.1514 156.729 59.6097 148.979 59.6097 140.713C59.6097 132.437 61.1514 124.651 64.2347 117.359C67.3181 110.057 71.5941 103.666 77.0681 98.1925C82.5368 92.7237 88.8858 88.4425 96.1097 85.3591C103.344 82.2758 111.094 80.7341 119.36 80.7341H124.839C134.099 80.7341 142.761 82.7341 150.818 86.7341C158.886 90.7341 165.761 96.2081 171.443 103.151C177.12 110.099 181.016 118.125 183.131 127.234H105.693V131.234C105.693 138.526 107.302 145.297 110.526 151.547C113.761 157.786 118.219 163.005 123.901 167.213C129.578 171.422 135.995 174.021 143.151 175.005C149.594 175.995 155.865 175.437 161.964 173.338C168.073 171.229 173.443 167.922 178.068 163.422ZM105.693 97.1508V126.401H137.047V97.1508C137.047 92.807 135.537 89.1248 132.526 86.1091C129.511 83.0831 125.823 81.5675 121.464 81.5675C117.115 81.5675 113.401 83.0831 110.318 86.1091C107.235 89.1248 105.693 92.807 105.693 97.1508Z" fill="#ED9A6D"/>
<path d="M318.41 184.901C318.41 187.416 319.562 189.375 321.869 190.776C324.187 192.182 326.265 191.974 328.098 190.151C321.916 197.026 314.129 200.463 304.744 200.463C298.838 200.463 293.327 199.166 288.202 196.567C283.088 193.974 278.957 190.224 275.806 185.317C272.65 180.401 271.004 174.505 270.869 167.63L270.223 172.047C268.957 180.463 264.89 187.338 258.015 192.672C251.567 197.453 244.733 200.047 237.515 200.463C230.291 200.88 223.52 199.479 217.202 196.255C210.895 193.036 205.744 188.411 201.744 182.38C197.744 176.338 195.744 169.317 195.744 161.317V98.1925C195.744 92.8748 195.39 88.88 194.681 86.2133C193.983 83.5466 193.077 81.7237 191.952 80.7341H247.077C245.812 81.7237 244.858 83.5466 244.223 86.2133C243.598 88.88 243.285 92.8748 243.285 98.1925V172.276C243.285 176.057 244.515 178.755 246.973 180.38C249.431 181.995 252.338 182.588 255.702 182.172C259.077 181.745 262.129 180.375 264.869 178.067C267.603 175.75 269.249 172.625 269.806 168.692C270.082 166.442 270.327 164.203 270.535 161.963C270.754 159.713 270.869 157.463 270.869 155.213V98.1925C270.869 92.8748 270.515 88.88 269.806 86.2133C269.108 83.5466 268.202 81.7237 267.077 80.7341H321.994C320.869 81.7237 319.983 83.5466 319.348 86.2133C318.723 88.88 318.41 92.8748 318.41 98.1925V184.901Z" fill="#ED9A6D"/>
<path d="M412.035 85.7758V86.63H391.41V190.567C391.41 193.099 392.603 195.062 394.994 196.463C397.379 197.87 399.416 197.661 401.098 195.838C394.931 202.713 387.145 206.151 377.744 206.151C371.853 206.151 366.311 204.817 361.119 202.151C355.921 199.484 351.749 195.599 348.598 190.484C345.442 185.359 343.869 179.291 343.869 172.276V86.63H331.869V85.7758H343.869C352.004 85.7758 358.838 84.8695 364.369 83.0466C369.91 81.2289 374.473 78.9841 378.056 76.3175C381.64 73.6508 384.374 70.9841 386.265 68.3175C388.15 65.6508 389.478 63.4112 390.244 61.5883C391.02 59.7706 391.41 58.8591 391.41 58.8591V85.7758H412.035Z" fill="#ED9A6D"/>
<path d="M442.329 76.9424C435.73 76.9424 430.121 74.6299 425.496 70.0049C420.871 65.3799 418.558 59.7706 418.558 53.1716C418.558 48.8278 419.605 44.8695 421.704 41.2966C423.814 37.7133 426.689 34.8383 430.329 32.6716C433.98 30.4945 437.98 29.4008 442.329 29.4008C446.673 29.4008 450.631 30.4945 454.204 32.6716C457.788 34.8383 460.663 37.7133 462.829 41.2966C465.006 44.8695 466.1 48.8278 466.1 53.1716C466.1 59.7706 463.788 65.3799 459.163 70.0049C454.256 74.6299 448.647 76.9424 442.329 76.9424ZM466.1 183.005C466.1 188.479 466.413 192.515 467.038 195.109C467.673 197.692 468.626 199.479 469.892 200.463H414.767C415.892 199.479 416.798 197.692 417.496 195.109C418.204 192.515 418.558 188.479 418.558 183.005V83.2549C418.558 83.2549 419.501 84.0674 421.392 85.6924C423.293 87.307 426.235 88.8122 430.225 90.2133C434.225 91.6195 439.454 91.8956 445.913 91.0466C449.413 90.6299 452.876 89.8591 456.308 88.7341C459.751 87.6091 463.017 86.2758 466.1 84.7341V183.005Z" fill="#ED9A6D"/>
<path d="M634.433 200.463C635.693 199.479 636.641 197.692 637.266 195.109C637.902 192.515 638.225 188.479 638.225 183.005V110.192C638.225 109.916 638.225 109.672 638.225 109.463C638.225 109.255 638.225 109.078 638.225 108.922C637.943 105.005 636.542 102.036 634.016 100.005C631.485 97.9633 628.61 96.9425 625.391 96.9425C622.167 96.9425 619.225 97.8904 616.558 99.7758C613.891 101.666 612.271 104.578 611.704 108.505C611.422 110.755 611.183 113.005 610.975 115.255C610.766 117.495 610.662 119.807 610.662 122.192V183.005C610.662 188.479 611.006 192.515 611.704 195.109C612.412 197.692 613.329 199.479 614.454 200.463H559.329C560.579 199.479 561.516 197.692 562.141 195.109C562.777 192.515 563.1 188.479 563.1 183.005V110.192C563.1 109.916 563.1 109.672 563.1 109.463C563.1 109.255 563.1 109.078 563.1 108.922C562.818 105.005 561.417 102.036 558.891 100.005C556.376 97.9633 553.501 96.9425 550.266 96.9425C547.042 96.9425 544.1 97.8904 541.433 99.7758C538.766 101.666 537.152 104.578 536.6 108.505C536.318 110.755 536.068 113.005 535.85 115.255C535.641 117.495 535.537 119.807 535.537 122.192V183.005C535.537 188.479 535.881 192.515 536.579 195.109C537.287 197.692 538.204 199.479 539.329 200.463H484.204C485.464 199.479 486.412 197.692 487.037 195.109C487.672 192.515 487.995 188.479 487.995 183.005V96.2966C487.995 93.7862 486.834 91.8279 484.516 90.4216C482.193 89.0206 480.126 89.2289 478.308 91.0466C484.475 84.1716 492.256 80.7341 501.662 80.7341C507.547 80.7341 513.058 82.0362 518.183 84.63C523.308 87.2289 527.443 90.9841 530.6 95.9008C533.751 100.807 535.396 106.692 535.537 113.567L536.183 109.151C537.433 100.583 541.495 93.7758 548.37 88.7341C554.547 84.1091 561.037 81.5206 567.829 80.9633C574.631 80.3956 581.12 81.4425 587.287 84.1091C593.464 86.7758 598.662 90.8123 602.87 96.2133C607.079 101.604 609.605 107.942 610.454 115.234L611.287 109.151C612.547 100.583 616.62 93.7758 623.495 88.7341C629.954 83.8175 636.792 81.1873 644.016 80.8383C651.235 80.4945 658.001 81.8956 664.308 85.0466C670.626 88.2029 675.787 92.7966 679.787 98.8383C683.787 104.87 685.787 111.88 685.787 119.88V183.005C685.787 188.479 686.131 192.515 686.829 195.109C687.537 197.692 688.443 199.479 689.558 200.463H634.433Z" fill="#ED9A6D"/>
<path d="M722.163 76.9424C715.564 76.9424 709.954 74.6299 705.329 70.0049C700.704 65.3799 698.392 59.7706 698.392 53.1716C698.392 48.8278 699.439 44.8695 701.538 41.2966C703.647 37.7133 706.522 34.8383 710.163 32.6716C713.814 30.4945 717.814 29.4008 722.163 29.4008C726.506 29.4008 730.465 30.4945 734.038 32.6716C737.621 34.8383 740.496 37.7133 742.663 41.2966C744.84 44.8695 745.933 48.8278 745.933 53.1716C745.933 59.7706 743.621 65.3799 738.996 70.0049C734.09 74.6299 728.48 76.9424 722.163 76.9424ZM745.933 183.005C745.933 188.479 746.246 192.515 746.871 195.109C747.506 197.692 748.46 199.479 749.725 200.463H694.6C695.725 199.479 696.631 197.692 697.329 195.109C698.038 192.515 698.392 188.479 698.392 183.005V83.2549C698.392 83.2549 699.335 84.0674 701.225 85.6924C703.126 87.307 706.069 88.8122 710.058 90.2133C714.058 91.6195 719.288 91.8956 725.746 91.0466C729.246 90.6299 732.71 89.8591 736.142 88.7341C739.585 87.6091 742.85 86.2758 745.933 84.7341V183.005Z" fill="#ED9A6D"/>
<path d="M890.275 180.692C890.702 182.234 891.619 183.463 893.025 184.38C894.426 185.286 895.931 185.666 897.546 185.526C899.155 185.39 900.317 184.62 901.025 183.213C898.91 187.562 895.962 191.14 892.171 193.942C888.389 196.75 884.113 198.713 879.337 199.838C873.447 200.963 867.764 200.651 862.296 198.901C856.822 197.14 852.051 194.187 847.983 190.047C843.91 185.911 841.108 180.896 839.567 175.005L837.671 168.067C837.254 171.849 836.202 175.422 834.525 178.797C830.869 186.229 825.884 191.942 819.567 195.942C813.259 199.942 806.494 202.323 799.275 203.088C792.051 203.864 785.176 203.026 778.65 200.567C772.134 198.109 766.66 194.187 762.233 188.797C757.817 183.396 755.4 176.557 754.983 168.276C754.702 161.541 756.139 155.896 759.296 151.338C762.447 146.771 766.655 143.047 771.921 140.172C777.181 137.297 782.796 135.088 788.754 133.547C794.712 132.005 800.358 130.922 805.692 130.297C811.025 129.661 815.405 129.271 818.837 129.13C822.28 128.995 824.004 128.922 824.004 128.922H826.942L821.275 108.713C820.009 103.812 817.41 100.166 813.483 97.7758C809.551 95.3903 805.306 94.3747 800.754 94.7341C796.197 95.083 792.233 97.1508 788.858 100.942C794.051 95.0414 799.973 90.7289 806.629 88.0049C813.296 85.2705 820.098 83.9737 827.046 84.1091C833.988 84.2497 840.65 85.7914 847.025 88.7341C853.41 91.682 858.952 95.8539 863.65 101.255C868.358 106.661 871.764 113.146 873.879 120.713L882.712 152.692L890.275 180.692ZM823.796 183.63C828.556 182.922 832.134 180.609 834.525 176.692C837.192 172.765 837.822 168.484 836.421 163.859L826.942 129.547C821.9 130.812 817.447 133.307 813.587 137.026C809.723 140.734 806.806 145.083 804.837 150.067C802.879 155.057 802.046 160.276 802.337 165.734C802.613 170.791 804.639 175.078 808.421 178.588C812.212 182.088 816.702 183.838 821.9 183.838C822.744 183.838 823.379 183.771 823.796 183.63Z" fill="#ED9A6D"/>
</g>
</svg>
