<svg xmlns="http://www.w3.org/2000/svg" xmlns:xlink="http://www.w3.org/1999/xlink" width="1080" zoomAndPan="magnify" viewBox="0 0 810 809.999993" height="1080" preserveAspectRatio="xMidYMid meet" version="1.0"><defs><g/><clipPath id="f0e300f217"><path d="M 669.597656 334.085938 L 809.847656 334.085938 L 809.847656 475.835938 L 669.597656 475.835938 Z M 669.597656 334.085938 " clip-rule="nonzero"/></clipPath><clipPath id="c1597b59b1"><rect x="0" width="639" y="0" height="161"/></clipPath></defs><rect x="-81" width="972" fill="#ffffff" y="-80.999999" height="971.999992" fill-opacity="1"/><rect x="-81" width="972" fill="#daf491" y="-80.999999" height="971.999992" fill-opacity="1"/><g clip-path="url(#f0e300f217)"><path fill="#a4c055" d="M 779.117188 339.953125 C 784.699219 334.371094 787.675781 334.28125 793.808594 334.28125 C 799.9375 334.28125 809.996094 334.28125 809.996094 334.28125 C 809.996094 334.28125 794.246094 348.949219 792.054688 357.710938 C 791.140625 361.375 790.683594 366.480469 789.179688 372.433594 C 789.277344 372.511719 809.996094 388.871094 809.996094 411.152344 C 809.996094 433.484375 792.167969 465.035156 785.691406 475.726562 C 785.691406 475.726562 778.191406 468.148438 781.449219 461.402344 C 785.4375 453.140625 801.613281 424.050781 802.21875 412.269531 C 803.074219 395.601562 794.417969 384.308594 787.554688 377.859375 C 787.484375 378.0625 787.414062 378.261719 787.339844 378.464844 C 793.421875 383.917969 801.773438 394.378906 801.773438 410.707031 C 801.773438 424.078125 783.160156 456.480469 776.683594 467.167969 C 776.683594 467.167969 769.183594 459.589844 772.441406 452.847656 C 776.429688 444.582031 793.132812 419.304688 793.84375 406.015625 C 794.363281 396.269531 789.894531 389.617188 784.792969 384.394531 C 784.730469 384.511719 784.671875 384.632812 784.613281 384.75 C 789.566406 389.953125 794.21875 397.324219 793.359375 406.1875 C 791.886719 421.371094 774.164062 447.050781 767.90625 458.4375 C 767.90625 458.4375 760.773438 451.253906 764.027344 444.511719 C 768.019531 436.246094 783.0625 417.839844 784.070312 404.574219 C 784.535156 398.40625 783.261719 394.113281 781.097656 390.707031 C 780.988281 390.871094 780.871094 391.039062 780.757812 391.207031 C 783.085938 394.957031 784.449219 399.632812 783.515625 405.324219 C 781.175781 419.59375 765.671875 438.597656 759.414062 449.984375 C 759.414062 449.984375 751.914062 442.40625 755.171875 435.664062 C 759.160156 427.398438 774.976562 415.792969 775.976562 402.527344 C 776.125 400.542969 776.09375 398.832031 775.902344 397.339844 C 774.933594 398.417969 773.898438 399.5 772.792969 400.582031 C 766.519531 406.710938 757.773438 408.449219 749.136719 408.15625 C 745.070312 419.101562 739.160156 434.289062 736.648438 437.105469 C 732.644531 441.597656 724.453125 440.027344 724.453125 440.027344 L 741.144531 407.359375 C 740.851562 407.3125 740.554688 407.265625 740.261719 407.214844 C 735.332031 417.464844 726.03125 436.269531 722.835938 439.207031 C 718.410156 443.28125 710.410156 440.914062 710.410156 440.914062 L 733.078125 405.644531 C 732.855469 405.585938 732.632812 405.527344 732.40625 405.464844 C 727.421875 413.429688 713.25 435.75 709.261719 438.648438 C 704.390625 442.1875 696.722656 438.910156 696.722656 438.910156 L 725.8125 403.441406 C 725.515625 403.339844 725.226562 403.238281 724.945312 403.136719 C 719.25 410.511719 702.859375 431.453125 698.59375 433.953125 C 693.402344 436.992188 686.089844 432.980469 686.089844 432.980469 L 718.488281 400.578125 C 718.488281 400.578125 719.28125 399.789062 720.675781 398.390625 C 725.589844 393.476562 738.046875 381.019531 750.25 368.820312 C 748.289062 368.277344 745.875 368.066406 742.800781 368.300781 C 729.535156 369.300781 717.929688 385.117188 709.664062 389.105469 C 702.921875 392.363281 695.34375 384.863281 695.34375 384.863281 C 706.730469 378.605469 725.734375 363.101562 740.003906 360.761719 C 746.140625 359.757812 751.097656 361.417969 754.984375 364.082031 C 755.117188 363.949219 755.25 363.820312 755.382812 363.6875 C 751.855469 361.21875 747.390625 359.707031 740.757812 360.207031 C 727.492188 361.210938 709.082031 376.257812 700.820312 380.25 C 694.078125 383.503906 686.894531 376.371094 686.894531 376.371094 C 698.28125 370.113281 723.957031 352.386719 739.144531 350.917969 C 747.667969 350.089844 754.8125 354.363281 759.976562 359.097656 C 760.066406 359.007812 760.15625 358.914062 760.246094 358.824219 C 755.132812 354.003906 748.640625 349.933594 739.3125 350.433594 C 726.027344 351.144531 700.746094 367.847656 692.484375 371.835938 C 685.742188 375.09375 678.164062 367.59375 678.164062 367.59375 C 688.851562 361.117188 721.25 342.503906 734.625 342.503906 C 748.878906 342.503906 758.65625 348.867188 764.539062 354.53125 C 764.664062 354.40625 764.785156 354.285156 764.910156 354.164062 C 758.203125 347.898438 747.707031 341.304688 733.0625 342.058594 C 721.28125 342.664062 692.191406 358.835938 683.929688 362.828125 C 677.179688 366.085938 669.597656 358.585938 669.597656 358.585938 C 680.289062 352.113281 711.839844 334.28125 734.171875 334.28125 C 749.6875 334.28125 762.332031 344.328125 768.605469 350.460938 C 773.890625 345.175781 777.824219 341.242188 779.117188 339.953125 Z M 779.117188 339.953125 " fill-opacity="1" fill-rule="nonzero"/></g><path fill="#daf491" d="M 786.691406 340.664062 C 787.710938 340.664062 788.535156 341.492188 788.535156 342.507812 C 788.535156 343.527344 787.710938 344.351562 786.691406 344.351562 C 785.675781 344.351562 784.851562 343.527344 784.851562 342.507812 C 784.851562 341.492188 785.675781 340.664062 786.691406 340.664062 Z M 786.691406 340.664062 " fill-opacity="1" fill-rule="nonzero"/><g transform="matrix(1, 0, 0, 1, 0, 319)"><g clip-path="url(#c1597b59b1)"><g fill="#3c3738" fill-opacity="1"><g transform="translate(0.301027, 129.347454)"><g><path d="M 92 -27.78125 C 93.6875 -29.457031 95.054688 -31.191406 96.109375 -32.984375 C 93.367188 -25.203125 88.789062 -18.570312 82.375 -13.09375 C 77.539062 -8.988281 72.175781 -5.804688 66.28125 -3.546875 C 60.382812 -1.285156 54.28125 -0.101562 47.96875 0 C 41.769531 0 35.957031 -1.15625 30.53125 -3.46875 C 25.113281 -5.78125 20.351562 -8.988281 16.25 -13.09375 C 12.144531 -17.195312 8.9375 -21.957031 6.625 -27.375 C 4.3125 -32.800781 3.15625 -38.613281 3.15625 -44.8125 C 3.15625 -51.019531 4.3125 -56.859375 6.625 -62.328125 C 8.9375 -67.804688 12.144531 -72.597656 16.25 -76.703125 C 20.351562 -80.804688 25.113281 -84.015625 30.53125 -86.328125 C 35.957031 -88.640625 41.769531 -89.796875 47.96875 -89.796875 L 52.078125 -89.796875 C 59.023438 -89.796875 65.519531 -88.296875 71.5625 -85.296875 C 77.613281 -82.296875 82.769531 -78.191406 87.03125 -72.984375 C 91.289062 -67.773438 94.210938 -61.753906 95.796875 -54.921875 L 37.71875 -54.921875 L 37.71875 -51.921875 C 37.71875 -46.453125 38.925781 -41.375 41.34375 -36.6875 C 43.769531 -32.007812 47.113281 -28.09375 51.375 -24.9375 C 55.632812 -21.78125 60.445312 -19.832031 65.8125 -19.09375 C 70.644531 -18.351562 75.347656 -18.769531 79.921875 -20.34375 C 84.503906 -21.925781 88.53125 -24.40625 92 -27.78125 Z M 37.71875 -77.484375 L 37.71875 -55.546875 L 61.234375 -55.546875 L 61.234375 -77.484375 C 61.234375 -80.742188 60.101562 -83.503906 57.84375 -85.765625 C 55.582031 -88.035156 52.816406 -89.171875 49.546875 -89.171875 C 46.285156 -89.171875 43.5 -88.035156 41.1875 -85.765625 C 38.875 -83.503906 37.71875 -80.742188 37.71875 -77.484375 Z M 37.71875 -77.484375 "/></g></g></g><g fill="#3c3738" fill-opacity="1"><g transform="translate(99.557799, 129.347454)"><g><path d="M 98 -11.671875 C 98 -9.785156 98.863281 -8.316406 100.59375 -7.265625 C 102.332031 -6.210938 103.890625 -6.367188 105.265625 -7.734375 C 100.628906 -2.578125 94.789062 0 87.75 0 C 83.320312 0 79.1875 -0.972656 75.34375 -2.921875 C 71.507812 -4.867188 68.410156 -7.679688 66.046875 -11.359375 C 63.679688 -15.046875 62.445312 -19.46875 62.34375 -24.625 L 61.859375 -21.3125 C 60.910156 -15 57.859375 -9.84375 52.703125 -5.84375 C 47.867188 -2.257812 42.742188 -0.3125 37.328125 0 C 31.910156 0.3125 26.832031 -0.738281 22.09375 -3.15625 C 17.363281 -5.570312 13.5 -9.039062 10.5 -13.5625 C 7.5 -18.09375 6 -23.359375 6 -29.359375 L 6 -76.703125 C 6 -80.691406 5.734375 -83.6875 5.203125 -85.6875 C 4.679688 -87.6875 4 -89.054688 3.15625 -89.796875 L 44.5 -89.796875 C 43.550781 -89.054688 42.835938 -87.6875 42.359375 -85.6875 C 41.890625 -83.6875 41.65625 -80.691406 41.65625 -76.703125 L 41.65625 -21.140625 C 41.65625 -18.304688 42.578125 -16.28125 44.421875 -15.0625 C 46.265625 -13.851562 48.445312 -13.40625 50.96875 -13.71875 C 53.5 -14.039062 55.789062 -15.066406 57.84375 -16.796875 C 59.894531 -18.535156 61.128906 -20.878906 61.546875 -23.828125 C 61.753906 -25.515625 61.9375 -27.195312 62.09375 -28.875 C 62.257812 -30.5625 62.34375 -32.25 62.34375 -33.9375 L 62.34375 -76.703125 C 62.34375 -80.691406 62.078125 -83.6875 61.546875 -85.6875 C 61.023438 -87.6875 60.34375 -89.054688 59.5 -89.796875 L 100.6875 -89.796875 C 99.84375 -89.054688 99.179688 -87.6875 98.703125 -85.6875 C 98.234375 -83.6875 98 -80.691406 98 -76.703125 Z M 98 -11.671875 "/></g></g></g><g fill="#3c3738" fill-opacity="1"><g transform="translate(204.495303, 129.347454)"><g><path d="M 63.28125 -86.015625 L 63.28125 -85.375 L 47.8125 -85.375 L 47.8125 -7.421875 C 47.8125 -5.523438 48.707031 -4.050781 50.5 -3 C 52.289062 -1.945312 53.816406 -2.101562 55.078125 -3.46875 C 50.453125 1.6875 44.613281 4.265625 37.5625 4.265625 C 33.144531 4.265625 28.988281 3.265625 25.09375 1.265625 C 21.195312 -0.734375 18.066406 -3.648438 15.703125 -7.484375 C 13.335938 -11.328125 12.15625 -15.878906 12.15625 -21.140625 L 12.15625 -85.375 L 3.15625 -85.375 L 3.15625 -86.015625 L 12.15625 -86.015625 C 18.257812 -86.015625 23.382812 -86.695312 27.53125 -88.0625 C 31.6875 -89.425781 35.109375 -91.109375 37.796875 -93.109375 C 40.484375 -95.109375 42.535156 -97.109375 43.953125 -99.109375 C 45.367188 -101.109375 46.363281 -102.789062 46.9375 -104.15625 C 47.519531 -105.519531 47.8125 -106.203125 47.8125 -106.203125 L 47.8125 -86.015625 Z M 63.28125 -86.015625 "/></g></g></g><g fill="#3c3738" fill-opacity="1"><g transform="translate(266.668751, 129.347454)"><g><path d="M 23.828125 -92.640625 C 18.878906 -92.640625 14.671875 -94.375 11.203125 -97.84375 C 7.734375 -101.3125 6 -105.519531 6 -110.46875 C 6 -113.726562 6.785156 -116.695312 8.359375 -119.375 C 9.941406 -122.0625 12.097656 -124.21875 14.828125 -125.84375 C 17.566406 -127.476562 20.566406 -128.296875 23.828125 -128.296875 C 27.085938 -128.296875 30.054688 -127.476562 32.734375 -125.84375 C 35.421875 -124.21875 37.578125 -122.0625 39.203125 -119.375 C 40.835938 -116.695312 41.65625 -113.726562 41.65625 -110.46875 C 41.65625 -105.519531 39.921875 -101.3125 36.453125 -97.84375 C 32.773438 -94.375 28.566406 -92.640625 23.828125 -92.640625 Z M 41.65625 -13.09375 C 41.65625 -8.988281 41.890625 -5.960938 42.359375 -4.015625 C 42.835938 -2.078125 43.550781 -0.738281 44.5 0 L 3.15625 0 C 4 -0.738281 4.679688 -2.078125 5.203125 -4.015625 C 5.734375 -5.960938 6 -8.988281 6 -13.09375 L 6 -87.90625 C 6 -87.90625 6.707031 -87.296875 8.125 -86.078125 C 9.550781 -84.867188 11.757812 -83.738281 14.75 -82.6875 C 17.75 -81.632812 21.671875 -81.425781 26.515625 -82.0625 C 29.140625 -82.375 31.738281 -82.953125 34.3125 -83.796875 C 36.894531 -84.640625 39.34375 -85.640625 41.65625 -86.796875 Z M 41.65625 -13.09375 "/></g></g></g><g fill="#3c3738" fill-opacity="1"><g transform="translate(314.324623, 129.347454)"><g><path d="M 120.25 0 C 121.195312 -0.738281 121.90625 -2.078125 122.375 -4.015625 C 122.851562 -5.960938 123.09375 -8.988281 123.09375 -13.09375 L 123.09375 -67.703125 C 123.09375 -67.910156 123.09375 -68.09375 123.09375 -68.25 C 123.09375 -68.40625 123.09375 -68.539062 123.09375 -68.65625 C 122.882812 -71.59375 121.832031 -73.820312 119.9375 -75.34375 C 118.039062 -76.875 115.882812 -77.640625 113.46875 -77.640625 C 111.050781 -77.640625 108.84375 -76.929688 106.84375 -75.515625 C 104.84375 -74.097656 103.628906 -71.914062 103.203125 -68.96875 C 102.992188 -67.28125 102.8125 -65.59375 102.65625 -63.90625 C 102.5 -62.226562 102.421875 -60.492188 102.421875 -58.703125 L 102.421875 -13.09375 C 102.421875 -8.988281 102.679688 -5.960938 103.203125 -4.015625 C 103.734375 -2.078125 104.421875 -0.738281 105.265625 0 L 63.921875 0 C 64.859375 -0.738281 65.5625 -2.078125 66.03125 -4.015625 C 66.507812 -5.960938 66.75 -8.988281 66.75 -13.09375 L 66.75 -67.703125 C 66.75 -67.910156 66.75 -68.09375 66.75 -68.25 C 66.75 -68.40625 66.75 -68.539062 66.75 -68.65625 C 66.539062 -71.59375 65.488281 -73.820312 63.59375 -75.34375 C 61.707031 -76.875 59.550781 -77.640625 57.125 -77.640625 C 54.707031 -77.640625 52.5 -76.929688 50.5 -75.515625 C 48.5 -74.097656 47.289062 -71.914062 46.875 -68.96875 C 46.664062 -67.28125 46.476562 -65.59375 46.3125 -63.90625 C 46.15625 -62.226562 46.078125 -60.492188 46.078125 -58.703125 L 46.078125 -13.09375 C 46.078125 -8.988281 46.335938 -5.960938 46.859375 -4.015625 C 47.390625 -2.078125 48.078125 -0.738281 48.921875 0 L 7.578125 0 C 8.523438 -0.738281 9.234375 -2.078125 9.703125 -4.015625 C 10.179688 -5.960938 10.421875 -8.988281 10.421875 -13.09375 L 10.421875 -78.125 C 10.421875 -80.007812 9.550781 -81.476562 7.8125 -82.53125 C 6.070312 -83.582031 4.519531 -83.425781 3.15625 -82.0625 C 7.78125 -87.21875 13.617188 -89.796875 20.671875 -89.796875 C 25.085938 -89.796875 29.21875 -88.820312 33.0625 -86.875 C 36.90625 -84.925781 40.007812 -82.109375 42.375 -78.421875 C 44.738281 -74.742188 45.972656 -70.328125 46.078125 -65.171875 L 46.5625 -68.484375 C 47.5 -74.910156 50.546875 -80.015625 55.703125 -83.796875 C 60.335938 -87.265625 65.203125 -89.207031 70.296875 -89.625 C 75.398438 -90.050781 80.265625 -89.265625 84.890625 -87.265625 C 89.523438 -85.265625 93.421875 -82.238281 96.578125 -78.1875 C 99.734375 -74.144531 101.628906 -69.390625 102.265625 -63.921875 L 102.890625 -68.484375 C 103.835938 -74.910156 106.890625 -80.015625 112.046875 -83.796875 C 116.890625 -87.484375 122.019531 -89.457031 127.4375 -89.71875 C 132.851562 -89.976562 137.925781 -88.925781 142.65625 -86.5625 C 147.394531 -84.195312 151.265625 -80.75 154.265625 -76.21875 C 157.265625 -71.695312 158.765625 -66.4375 158.765625 -60.4375 L 158.765625 -13.09375 C 158.765625 -8.988281 159.023438 -5.960938 159.546875 -4.015625 C 160.078125 -2.078125 160.757812 -0.738281 161.59375 0 Z M 120.25 0 "/></g></g></g><g fill="#3c3738" fill-opacity="1"><g transform="translate(476.543867, 129.347454)"><g><path d="M 23.828125 -92.640625 C 18.878906 -92.640625 14.671875 -94.375 11.203125 -97.84375 C 7.734375 -101.3125 6 -105.519531 6 -110.46875 C 6 -113.726562 6.785156 -116.695312 8.359375 -119.375 C 9.941406 -122.0625 12.097656 -124.21875 14.828125 -125.84375 C 17.566406 -127.476562 20.566406 -128.296875 23.828125 -128.296875 C 27.085938 -128.296875 30.054688 -127.476562 32.734375 -125.84375 C 35.421875 -124.21875 37.578125 -122.0625 39.203125 -119.375 C 40.835938 -116.695312 41.65625 -113.726562 41.65625 -110.46875 C 41.65625 -105.519531 39.921875 -101.3125 36.453125 -97.84375 C 32.773438 -94.375 28.566406 -92.640625 23.828125 -92.640625 Z M 41.65625 -13.09375 C 41.65625 -8.988281 41.890625 -5.960938 42.359375 -4.015625 C 42.835938 -2.078125 43.550781 -0.738281 44.5 0 L 3.15625 0 C 4 -0.738281 4.679688 -2.078125 5.203125 -4.015625 C 5.734375 -5.960938 6 -8.988281 6 -13.09375 L 6 -87.90625 C 6 -87.90625 6.707031 -87.296875 8.125 -86.078125 C 9.550781 -84.867188 11.757812 -83.738281 14.75 -82.6875 C 17.75 -81.632812 21.671875 -81.425781 26.515625 -82.0625 C 29.140625 -82.375 31.738281 -82.953125 34.3125 -83.796875 C 36.894531 -84.640625 39.34375 -85.640625 41.65625 -86.796875 Z M 41.65625 -13.09375 "/></g></g></g><g fill="#3c3738" fill-opacity="1"><g transform="translate(521.674885, 129.347454)"><g><path d="M 104.78125 -14.828125 C 105.101562 -13.671875 105.789062 -12.75 106.84375 -12.0625 C 107.894531 -11.382812 109.023438 -11.097656 110.234375 -11.203125 C 111.441406 -11.304688 112.3125 -11.882812 112.84375 -12.9375 C 111.257812 -9.675781 109.046875 -6.992188 106.203125 -4.890625 C 103.367188 -2.785156 100.160156 -1.3125 96.578125 -0.46875 C 92.160156 0.375 87.898438 0.140625 83.796875 -1.171875 C 79.691406 -2.492188 76.113281 -4.707031 73.0625 -7.8125 C 70.007812 -10.914062 67.90625 -14.675781 66.75 -19.09375 L 65.328125 -24.296875 C 65.015625 -21.460938 64.226562 -18.78125 62.96875 -16.25 C 60.226562 -10.675781 56.488281 -6.390625 51.75 -3.390625 C 47.019531 -0.390625 41.945312 1.394531 36.53125 1.96875 C 31.113281 2.550781 25.957031 1.921875 21.0625 0.078125 C 16.175781 -1.765625 12.070312 -4.707031 8.75 -8.75 C 5.4375 -12.800781 3.625 -17.929688 3.3125 -24.140625 C 3.101562 -29.191406 4.179688 -33.425781 6.546875 -36.84375 C 8.910156 -40.269531 12.066406 -43.0625 16.015625 -45.21875 C 19.960938 -47.375 24.171875 -49.03125 28.640625 -50.1875 C 33.109375 -51.34375 37.34375 -52.15625 41.34375 -52.625 C 45.34375 -53.101562 48.628906 -53.394531 51.203125 -53.5 C 53.785156 -53.601562 55.078125 -53.65625 55.078125 -53.65625 L 57.28125 -53.65625 L 53.03125 -68.8125 C 52.082031 -72.488281 50.132812 -75.222656 47.1875 -77.015625 C 44.238281 -78.804688 41.054688 -79.566406 37.640625 -79.296875 C 34.222656 -79.035156 31.25 -77.484375 28.71875 -74.640625 C 32.613281 -79.066406 37.054688 -82.300781 42.046875 -84.34375 C 47.046875 -86.394531 52.148438 -87.367188 57.359375 -87.265625 C 62.566406 -87.160156 67.5625 -86.003906 72.34375 -83.796875 C 77.132812 -81.585938 81.289062 -78.457031 84.8125 -74.40625 C 88.34375 -70.351562 90.898438 -65.488281 92.484375 -59.8125 L 99.109375 -35.828125 Z M 54.921875 -12.625 C 58.492188 -13.15625 61.175781 -14.890625 62.96875 -17.828125 C 64.96875 -20.773438 65.441406 -23.984375 64.390625 -27.453125 L 57.28125 -53.1875 C 53.5 -52.238281 50.160156 -50.367188 47.265625 -47.578125 C 44.367188 -44.796875 42.179688 -41.535156 40.703125 -37.796875 C 39.234375 -34.054688 38.609375 -30.140625 38.828125 -26.046875 C 39.035156 -22.253906 40.554688 -19.039062 43.390625 -16.40625 C 46.234375 -13.78125 49.601562 -12.46875 53.5 -12.46875 C 54.132812 -12.46875 54.609375 -12.519531 54.921875 -12.625 Z M 54.921875 -12.625 "/></g></g></g><g fill="#3c3738" fill-opacity="1"><g transform="translate(637.665178, 129.347454)"><g/></g></g></g></g></svg>