<svg width="1080" height="1080" viewBox="0 0 1080 1080" fill="none" xmlns="http://www.w3.org/2000/svg">
<g clip-path="url(#clip0_228_161)">
<mask id="mask0_228_161" style="mask-type:luminance" maskUnits="userSpaceOnUse" x="6" y="0" width="1068" height="1080">
<path d="M6.75 0H1073.33V1080H6.75V0Z" fill="white"/>
</mask>
<g mask="url(#mask0_228_161)">
<path d="M379.437 1078.5C378.891 1078.08 377.349 1076.29 376.016 1074.52C373.979 1071.81 373.604 1070.86 373.604 1068.48C373.604 1066.05 373.865 1065.42 375.536 1063.92C376.604 1062.96 378.875 1060.91 380.589 1059.36C382.312 1057.81 383.708 1056.17 383.708 1055.7C383.708 1054.03 385.505 1051.44 387.562 1050.17C389.901 1048.73 392.292 1045.02 392.932 1041.84C393.156 1040.7 393.833 1038.96 394.411 1037.98C394.99 1037 395.667 1035.53 395.891 1034.71C396.714 1031.81 400.031 1025.69 401.099 1025.13C401.698 1024.8 402.635 1023.43 403.172 1022.07C403.714 1020.7 405.844 1017.51 407.906 1014.95C411.677 1010.28 414.693 1005.01 415.479 1001.72C415.703 1000.73 416.51 999.266 417.26 998.448C418.01 997.63 418.906 996.089 419.271 995.021C419.625 993.953 420.974 991.813 422.286 990.266C424.823 987.245 425.922 984.958 425.922 982.672C425.922 981.891 426.687 980.37 427.604 979.297C428.542 978.219 429.474 976.609 429.693 975.719C429.917 974.823 431.286 972.74 432.755 971.089C434.214 969.438 435.427 967.495 435.432 966.771C435.432 964.5 437.656 960.448 440.76 956.969C442.406 955.13 443.745 953.089 443.745 952.432C443.745 951.031 450.385 944.349 451.776 944.349C453.255 944.349 456.307 942.578 455.917 941.943C455.729 941.63 454.51 941.375 453.219 941.375C451.927 941.375 450.88 941.167 450.88 940.906C450.88 940.651 452.729 938 454.995 935.016C457.26 932.037 459.536 928.781 460.047 927.787C461.151 925.662 461.266 922.208 460.312 920.406C459.75 919.359 459.823 919.026 460.687 918.511C466.891 914.854 468.635 913.427 469.01 911.719C469.479 909.568 472.146 907.151 474.651 906.604C476.62 906.172 479.38 902.625 480.583 898.979C481.536 896.068 483.224 894.083 486.208 892.333C487.594 891.521 490.49 889.177 492.625 887.13C499.828 880.25 501.755 878.964 505.031 878.865C506.641 878.807 508.271 878.75 508.646 878.714C509.021 878.677 509.844 879.339 510.458 880.177C511.49 881.557 511.547 882.349 511.172 888.745L510.74 895.792L507.859 898.969C506.25 900.75 504.979 902.74 504.969 903.484C504.958 905.516 502.849 909.708 501.411 910.578C500.698 911.005 499.63 912.328 499.01 913.521C498.391 914.714 496.937 916.281 495.776 917C494.615 917.719 493.245 919.104 492.74 920.083C492.161 921.214 490.807 922.307 489.042 923.089C487.505 923.766 483.661 926.682 480.479 929.578C477.292 932.469 474.453 934.833 474.167 934.833C473.885 934.833 472.74 935.787 471.63 936.943C470.521 938.104 468.495 939.724 467.135 940.537C463.578 942.672 463.083 943.505 462.984 947.563C462.984 949.552 462.667 953.729 462.37 956.844C461.901 961.719 461.578 962.88 459.995 965.182C458.979 966.651 457.734 968.859 457.224 970.083C456.719 971.307 455.068 973.427 453.568 974.787C450.755 977.349 447.979 982.339 446.385 987.708C445.75 989.849 444.891 991.136 443.151 992.505C441.427 993.87 440.786 994.823 440.786 996C440.786 996.886 439.922 998.938 438.88 1000.56C434.948 1006.63 433.193 1009.68 432.526 1011.6C432.151 1012.69 431.083 1014.39 430.167 1015.38C429.25 1016.36 428.036 1018.42 427.474 1019.95C426.917 1021.47 426.089 1023.03 425.62 1023.41C425.172 1023.79 424.479 1025.06 424.089 1026.24C423.172 1029.05 418.443 1036.31 417.068 1037.05C416.469 1037.36 415.422 1039.19 414.724 1041.11C414.031 1043.02 412.781 1045.22 411.958 1045.99C411.135 1046.77 410.458 1048.07 410.458 1048.89C410.458 1051.01 404.333 1061.57 401.818 1063.78C400.656 1064.79 399.224 1066.76 398.62 1068.15C397.422 1070.91 395.807 1072.57 392.646 1074.3C391.526 1074.92 389.422 1076.3 387.995 1077.36C385.172 1079.46 381.37 1079.96 379.437 1078.49V1078.5ZM692.12 1077.36C690.698 1076.3 688.599 1074.93 687.469 1074.31C684.307 1072.58 682.693 1070.92 681.495 1068.15C680.896 1066.76 679.453 1064.79 678.292 1063.78C675.781 1061.57 669.651 1051.02 669.651 1048.9C669.651 1048.07 668.979 1046.78 668.156 1046C667.333 1045.22 666.094 1043.03 665.391 1041.11C664.698 1039.2 663.63 1037.37 663.047 1037.05C661.677 1036.32 656.958 1029.05 656.031 1026.24C655.635 1025.07 654.943 1023.8 654.495 1023.42C654.047 1023.04 653.203 1021.48 652.641 1019.95C652.078 1018.42 650.859 1016.36 649.953 1015.38C649.036 1014.39 647.969 1012.69 647.594 1011.6C646.917 1009.68 645.167 1006.64 641.234 1000.56C640.182 998.943 639.328 996.891 639.328 996C639.328 994.828 638.693 993.875 636.964 992.511C635.219 991.141 634.359 989.849 633.724 987.714C632.135 982.344 629.359 977.349 626.542 974.792C625.047 973.427 623.401 971.313 622.891 970.083C622.385 968.859 621.13 966.656 620.12 965.182C618.526 962.886 618.208 961.724 617.745 956.849C617.443 953.734 617.161 949.557 617.125 947.568C616.937 943.511 616.526 942.672 612.974 940.542C611.609 939.724 609.594 938.109 608.484 936.948C607.38 935.787 606.234 934.839 605.943 934.839C605.667 934.839 602.818 932.469 599.635 929.578C596.453 926.688 592.599 923.766 591.073 923.089C589.312 922.307 587.958 921.214 587.37 920.083C586.87 919.104 585.5 917.719 584.339 917C583.177 916.281 581.719 914.719 581.109 913.526C580.49 912.333 579.401 911.005 578.703 910.578C577.26 909.708 575.161 905.521 575.141 903.484C575.141 902.74 573.87 900.75 572.25 898.974L569.37 895.792L568.937 888.745C568.562 882.349 568.62 881.557 569.651 880.177C570.266 879.344 571.089 878.688 571.469 878.719C571.844 878.755 573.469 878.813 575.078 878.865C578.354 878.958 580.286 880.25 587.484 887.136C589.625 889.177 592.516 891.521 593.906 892.333C596.891 894.083 598.568 896.068 599.531 898.984C600.734 902.625 603.495 906.172 605.469 906.604C607.969 907.156 610.63 909.568 611.104 911.719C611.479 913.432 613.229 914.859 619.427 918.516C620.286 919.026 620.365 919.359 619.802 920.406C618.849 922.208 618.958 925.662 620.068 927.787C620.573 928.781 622.854 932.037 625.12 935.021C627.38 938.005 629.24 940.656 629.24 940.912C629.24 941.167 628.193 941.38 626.896 941.38C625.604 941.38 624.396 941.636 624.198 941.948C623.807 942.578 626.859 944.349 628.339 944.349C629.724 944.349 636.37 951.037 636.37 952.438C636.37 953.089 637.719 955.13 639.354 956.974C642.458 960.453 644.656 964.505 644.682 966.771C644.682 967.495 645.901 969.443 647.365 971.094C648.823 972.745 650.203 974.828 650.422 975.719C650.646 976.615 651.583 978.224 652.51 979.297C653.448 980.37 654.214 981.891 654.214 982.677C654.214 984.964 655.302 987.25 657.849 990.266C659.141 991.818 660.51 993.953 660.865 995.021C661.219 996.089 662.115 997.63 662.875 998.448C663.62 999.266 664.427 1000.74 664.651 1001.72C665.437 1005.02 668.453 1010.28 672.224 1014.95C674.286 1017.51 676.417 1020.71 676.964 1022.07C677.505 1023.43 678.443 1024.81 679.031 1025.13C680.099 1025.7 683.422 1031.81 684.245 1034.71C684.469 1035.53 685.141 1037 685.724 1037.98C686.302 1038.96 686.979 1040.7 687.203 1041.85C687.839 1045.03 690.234 1048.73 692.568 1050.18C694.62 1051.45 696.422 1054.03 696.422 1055.71C696.422 1056.17 697.828 1057.82 699.547 1059.36C701.271 1060.92 703.536 1062.97 704.599 1063.92C706.266 1065.42 706.531 1066.05 706.531 1068.48C706.531 1070.86 706.156 1071.81 704.12 1074.53C700.964 1078.72 700.182 1079.26 697.219 1079.28C695.328 1079.3 694.115 1078.84 692.141 1077.37L692.12 1077.36ZM108.437 1045.27C106.62 1044.35 105.349 1043.14 104.422 1041.44C103.151 1039.13 103.094 1038.6 103.599 1033.68C104.047 1029.22 104.401 1028.02 105.922 1025.92C106.917 1024.56 108.036 1022.2 108.417 1020.68C108.807 1019.16 109.766 1017.06 110.562 1016.02C111.365 1014.97 112.417 1012.94 112.932 1011.51C113.437 1010.06 114.354 1008.34 114.984 1007.68C115.599 1007.02 117.089 1004.2 118.276 1001.42C119.922 997.557 121.078 995.802 123.161 993.964C125.745 991.693 125.911 991.349 126.38 987.474C126.714 984.662 127.333 982.708 128.37 981.224C129.193 980.037 129.865 978.813 129.865 978.5C129.865 978.193 131.25 975.667 132.948 972.886C135.49 968.708 136.094 967.162 136.453 963.974C136.828 960.557 137.109 959.906 138.937 958.328C140.719 956.781 141.036 956.089 141.276 953.266C141.521 950.328 144.974 942.068 149.797 932.859C150.281 931.932 150.677 930.573 150.677 929.839C150.677 929.104 151.365 926.521 152.208 924.094C154.125 918.604 154.135 916.109 152.208 914.078C150.729 912.495 148.859 907.016 148.859 904.25C148.859 902.198 150.339 899.37 151.839 898.573C153.391 897.74 153.339 896.969 151.651 896.448C149.51 895.776 146.375 893.438 145.182 891.625C144.583 890.708 144.078 888.969 144.078 887.766C144.078 886.042 143.719 885.323 142.375 884.365C140.495 883.026 137 876.271 136.5 873.011C136.312 871.833 135.453 870.193 134.484 869.224C133.547 868.287 132.781 867.292 132.781 867.016C132.781 866.74 131.542 865.12 130.031 863.417C127.365 860.417 125.646 857.323 125.646 855.531C125.646 854.729 123.885 851.516 120.557 846.261C119.823 845.115 118.495 842.443 117.583 840.313C116.667 838.188 115.328 835.781 114.599 834.964C113.865 834.146 112.417 832.021 111.38 830.24C110.333 828.464 108.286 825.599 106.818 823.875C105.339 822.141 103.776 819.516 103.312 817.99C102.865 816.474 101.703 814.339 100.74 813.245C99.7864 812.156 98.8177 810.646 98.5937 809.886C98.3698 809.13 97.0416 807.432 95.6458 806.115C93.677 804.266 93 803.12 92.651 801.063C92.4062 799.599 91.7135 797.787 91.1146 797.031C90.5156 796.271 89.7083 794.667 89.3177 793.464C88.9218 792.255 87.9114 790.438 87.0521 789.422C83.802 785.547 80.0156 779.912 79.6562 778.417C79.4479 777.557 78.3437 776.151 77.2083 775.281C75.2552 773.792 73.677 771.031 71.776 765.802C71.3281 764.547 70.2812 762.719 69.4583 761.745C68.6302 760.766 67.9583 759.604 67.9583 759.151C67.9583 758.703 67.0416 757.641 65.9323 756.792C64.8073 755.938 63.4583 754.13 62.9114 752.766C62.3698 751.406 61.0312 749.313 59.9531 748.109C58.6406 746.667 57.7552 744.875 57.3125 742.813C56.4895 738.932 52.8333 732.917 50.6145 731.766C49.6979 731.292 48.4948 730.177 47.9375 729.281C47.3802 728.391 45.7604 725.859 44.3281 723.662C42.9062 721.464 41.5677 718.656 41.3698 717.422C41.1666 716.188 40.2448 714.24 39.3385 713.094C38.4218 711.953 36.7343 709.87 35.6041 708.474C34.2343 706.787 33.4114 705.01 33.1406 703.203C32.7083 700.401 29.9531 696.448 28.4166 696.448C27.4427 696.448 24.5625 693.089 24.5625 691.969C24.5625 691.516 23.7916 690.26 22.8541 689.188C20.2187 686.167 18.6093 682.526 18.6458 679.677C18.8385 672.594 20.1666 669.599 24.3906 667.594C28.1302 665.823 29.9114 666.677 35.2968 672.849C37.927 675.854 40.5937 679.479 41.2239 680.896C41.8593 682.307 43.0208 684.245 43.8177 685.188C44.6198 686.135 45.4427 687.698 45.651 688.667C45.875 689.677 46.9218 691.094 48.1145 692.005C49.2552 692.875 50.8698 695.021 51.6979 696.771C52.5208 698.521 53.8073 700.349 54.552 700.833C56.276 701.964 59.6354 707.011 59.6354 708.469C59.6354 709.078 60.7968 710.839 62.2083 712.38C64.5833 714.958 67.8385 720.417 71.8437 728.552C72.7239 730.349 74.2135 732.625 75.1354 733.604C76.052 734.589 77.2396 736.406 77.7552 737.646C78.2812 738.891 80.1666 741.823 81.9687 744.167C83.7656 746.516 85.4062 749.109 85.5989 749.938C86.1041 752.037 87.9583 755.615 90.0052 758.438C90.9583 759.755 91.7448 761.146 91.7448 761.526C91.7448 761.906 92.5156 762.787 93.4479 763.479C95.3437 764.875 100.062 773 100.062 774.859C100.062 775.511 101.411 777.438 103.036 779.146C105 781.188 106.219 783.078 106.62 784.677C106.953 786.016 107.495 787.511 107.818 788C108.151 788.49 109.073 790.287 109.865 791.99C110.667 793.688 111.953 795.5 112.729 796.005C114.266 797.016 116.917 800.776 120.74 807.37C122.089 809.688 123.62 811.943 124.156 812.391C124.698 812.833 126.062 815.089 127.198 817.396C128.625 820.271 130.37 822.615 132.781 824.859C136.016 827.87 136.38 828.474 137.411 832.537L138.536 836.948L141.359 837.662C145.229 838.646 147.724 841.208 147.771 844.245C147.771 845.516 147.583 847.542 147.344 848.74C146.948 850.62 147.135 851.287 148.672 853.5C149.74 855.037 150.625 857.214 150.865 858.906C151.089 860.469 151.74 862.203 152.323 862.771C152.901 863.339 154.104 864.87 154.969 866.177C155.828 867.484 157.448 869.677 158.557 871.052C159.698 872.464 160.745 874.573 160.969 875.901C161.193 877.193 162.021 879.13 162.807 880.203C165.229 883.49 164.286 890.974 160.99 894.396L159.453 895.995L163.073 897.005C167.526 898.24 169.172 899.813 170.385 903.995C170.969 906.011 172.036 907.896 173.187 908.995C175.323 911.026 177.318 914.604 177.318 916.412C177.318 917.089 177.823 918.641 178.443 919.854C179.057 921.068 179.755 922.995 179.995 924.141C180.24 925.281 180.911 926.891 181.474 927.708C182.036 928.526 182.693 930.182 182.917 931.396C183.141 932.609 183.682 934.297 184.115 935.151C185.016 936.891 184.714 938.943 183.479 939.417C182.484 939.797 179.38 938.609 177.328 937.078C175.443 935.667 171.401 933.057 171.109 933.057C170.917 933.057 170.698 933.922 170.469 934.974C169.984 937.188 166.719 944.229 165.958 944.698C165.677 944.87 165.453 945.625 165.453 946.365C165.453 948.943 162.49 956.396 160.344 959.208C157.984 962.302 155.995 967.349 155.958 970.302C155.948 971.557 155.25 973.005 153.859 974.672C152.38 976.443 151.776 977.745 151.776 979.182C151.776 980.672 151.219 981.833 149.635 983.578C148.453 984.886 147.26 986.984 146.974 988.266C146.693 989.542 144.703 993.776 142.562 997.682C140.422 1001.58 137.88 1007.03 136.917 1009.79C135.682 1013.33 134.625 1015.26 133.339 1016.35C132.349 1017.2 131.245 1018.88 130.917 1020.08C130.578 1021.28 129.547 1023.13 128.63 1024.18C127.714 1025.23 126.677 1027.08 126.344 1028.28C126.01 1029.47 124.958 1031.61 123.984 1033.03C123.016 1034.45 121.917 1036.56 121.531 1037.73C120.036 1042.35 115.526 1046.6 112.135 1046.6C111.516 1046.6 109.818 1046 108.359 1045.27H108.437ZM964.661 1045.62C962.406 1044.51 959.495 1040.78 958.5 1037.73C958.125 1036.56 957.021 1034.44 956.047 1033.03C955.073 1031.61 954.021 1029.47 953.687 1028.28C953.349 1027.07 952.318 1025.23 951.401 1024.18C950.484 1023.12 949.448 1021.28 949.12 1020.08C948.781 1018.88 947.693 1017.2 946.693 1016.34C945.401 1015.25 944.359 1013.32 943.115 1009.79C942.141 1007.03 939.609 1001.58 937.469 997.677C935.328 993.776 933.344 989.537 933.057 988.261C932.776 986.984 931.578 984.886 930.396 983.573C928.823 981.833 928.255 980.667 928.255 979.182C928.255 977.74 927.656 976.443 926.172 974.667C924.792 973.005 924.083 971.557 924.073 970.302C924.073 967.349 922.052 962.297 919.687 959.208C917.542 956.396 914.583 948.943 914.583 946.359C914.583 945.62 914.359 944.87 914.078 944.698C913.307 944.229 910.047 937.188 909.562 934.974C909.339 933.917 909.042 933.052 908.927 933.052C908.63 933.052 904.594 935.667 902.708 937.073C900.651 938.609 897.542 939.792 896.562 939.417C895.323 938.938 895.005 936.891 895.922 935.146C896.37 934.297 896.917 932.604 897.125 931.396C897.349 930.182 897.984 928.521 898.562 927.703C899.125 926.886 899.802 925.281 900.042 924.136C900.286 922.995 901 921.063 901.599 919.849C902.214 918.636 902.719 917.089 902.719 916.412C902.719 914.604 904.714 911.021 906.849 908.995C908.01 907.896 909.062 906.011 909.651 903.99C910.865 899.807 912.51 898.24 916.964 897L920.583 895.995L919.047 894.391C915.766 890.969 914.818 883.49 917.229 880.203C918.021 879.125 918.859 877.188 919.068 875.896C919.292 874.573 920.339 872.458 921.479 871.052C922.583 869.677 924.203 867.484 925.073 866.177C925.932 864.865 927.125 863.333 927.714 862.771C928.312 862.203 928.969 860.464 929.177 858.906C929.422 857.208 930.297 855.031 931.365 853.495C932.917 851.281 933.104 850.62 932.714 848.74C932.448 847.542 932.266 845.516 932.281 844.245C932.281 841.203 934.828 838.646 938.698 837.662L941.521 836.943L942.646 832.537C943.672 828.474 944.026 827.87 947.276 824.859C949.682 822.615 951.437 820.271 952.854 817.391C953.995 815.083 955.365 812.833 955.901 812.386C956.443 811.943 957.969 809.682 959.312 807.37C963.135 800.776 965.792 797.011 967.323 796.005C968.115 795.495 969.391 793.688 970.193 791.984C970.995 790.281 971.917 788.49 972.24 788C972.557 787.511 973.099 786.011 973.437 784.677C973.828 783.073 975.068 781.188 977.016 779.141C978.646 777.438 979.99 775.505 979.99 774.859C979.99 773 984.714 764.875 986.604 763.474C987.542 762.781 988.312 761.901 988.312 761.521C988.312 761.141 989.099 759.755 990.052 758.438C992.099 755.609 993.953 752.031 994.453 749.932C994.656 749.104 996.286 746.511 998.089 744.167C999.88 741.823 1001.78 738.886 1002.3 737.646C1002.82 736.401 1004.01 734.583 1004.92 733.604C1005.83 732.62 1007.32 730.349 1008.21 728.552C1012.22 720.412 1015.47 714.958 1017.84 712.375C1019.27 710.839 1020.42 709.078 1020.42 708.464C1020.42 707.011 1023.78 701.958 1025.5 700.833C1026.25 700.344 1027.53 698.516 1028.36 696.771C1029.18 695.021 1030.8 692.875 1031.94 692.005C1033.14 691.094 1034.18 689.677 1034.4 688.662C1034.61 687.698 1035.43 686.13 1036.24 685.188C1037.04 684.24 1038.2 682.307 1038.83 680.891C1039.47 679.474 1042.13 675.854 1044.76 672.844C1050.15 666.677 1051.93 665.818 1055.66 667.594C1059.89 669.594 1061.31 672.589 1061.4 679.677C1061.4 682.521 1059.83 686.167 1057.2 689.188C1056.26 690.26 1055.49 691.51 1055.49 691.964C1055.49 693.083 1052.6 696.448 1051.64 696.448C1050.1 696.448 1047.34 700.401 1046.92 703.203C1046.66 705.01 1045.82 706.787 1044.45 708.469C1043.33 709.87 1041.64 711.948 1040.72 713.094C1039.81 714.234 1038.89 716.182 1038.69 717.417C1038.5 718.656 1037.15 721.464 1035.73 723.662C1034.3 725.859 1032.68 728.386 1032.12 729.281C1031.56 730.172 1030.36 731.292 1029.44 731.766C1027.23 732.912 1023.58 738.927 1022.74 742.813C1022.3 744.875 1021.42 746.667 1020.11 748.109C1019.03 749.307 1017.69 751.401 1017.15 752.766C1016.6 754.125 1015.24 755.938 1014.13 756.787C1013.01 757.641 1012.1 758.703 1012.1 759.151C1012.1 759.599 1011.43 760.766 1010.6 761.74C1009.78 762.719 1008.73 764.542 1008.29 765.797C1006.39 771.031 1004.81 773.792 1002.85 775.281C1001.71 776.146 1000.61 777.557 1000.41 778.417C1000.05 779.912 996.255 785.542 993.01 789.417C992.167 790.432 991.135 792.255 990.745 793.458C990.354 794.667 989.547 796.271 988.948 797.026C988.349 797.781 987.677 799.599 987.411 801.063C987.073 803.12 986.385 804.261 984.422 806.115C983.016 807.432 981.698 809.125 981.469 809.886C981.245 810.641 980.292 812.156 979.323 813.245C978.37 814.339 977.208 816.469 976.75 817.984C976.281 819.516 974.729 822.141 973.245 823.875C971.766 825.594 969.724 828.458 968.682 830.24C967.635 832.021 966.193 834.146 965.464 834.964C964.734 835.781 963.396 838.188 962.484 840.313C961.568 842.438 960.234 845.115 959.51 846.255C956.187 851.511 954.417 854.729 954.417 855.531C954.417 857.323 952.698 860.417 950.031 863.417C948.516 865.115 947.286 866.734 947.286 867.016C947.286 867.292 946.516 868.287 945.578 869.224C944.609 870.188 943.745 871.833 943.562 873.011C943.057 876.271 939.568 883.026 937.687 884.365C936.339 885.318 935.984 886.037 935.984 887.761C935.984 888.969 935.479 890.703 934.88 891.625C933.682 893.438 930.552 895.776 928.411 896.448C926.766 896.969 926.708 897.74 928.224 898.568C929.724 899.37 931.203 902.198 931.203 904.245C931.203 907.011 929.333 912.49 927.854 914.078C925.953 916.104 925.964 918.599 927.854 924.089C928.698 926.516 929.391 929.104 929.391 929.839C929.391 930.573 929.781 931.927 930.271 932.854C935.089 942.063 938.536 950.323 938.786 953.266C939.031 956.089 939.349 956.776 941.125 958.323C942.943 959.906 943.234 960.557 943.609 963.969C943.969 967.162 944.568 968.703 947.12 972.88C948.802 975.662 950.193 978.188 950.193 978.5C950.193 978.807 950.865 980.037 951.693 981.219C952.719 982.708 953.339 984.656 953.682 987.469C954.151 991.344 954.318 991.688 956.901 993.964C958.984 995.797 960.135 997.557 961.786 1001.42C962.969 1004.2 964.453 1007.02 965.078 1007.68C965.693 1008.34 966.615 1010.06 967.13 1011.5C967.635 1012.94 968.703 1014.97 969.5 1016.02C970.307 1017.06 971.26 1019.16 971.641 1020.68C972.036 1022.2 973.141 1024.56 974.135 1025.92C975.656 1028.02 976.016 1029.22 976.464 1033.68C976.953 1038.59 976.896 1039.12 975.641 1041.44C974.703 1043.14 973.437 1044.35 971.625 1045.26C968.5 1046.84 967.224 1046.9 964.615 1045.62H964.661ZM340.307 961.557C331.995 960.401 329.812 959.99 328.604 959.328C327.896 958.938 325.792 958.62 323.937 958.62C322.089 958.62 319.729 958.24 318.698 957.781C316.823 956.943 314.833 956.422 311.474 955.886C300.896 954.188 300.792 950.365 311.286 950.011C313.818 949.917 316.224 949.589 316.635 949.266C317.047 948.938 319.896 948.49 322.964 948.266C326.036 948.042 329.318 947.464 330.255 946.979C331.526 946.323 333.339 946.162 337.25 946.349C342.667 946.604 348.474 945.688 350.135 944.307C351.292 943.349 359.068 942.443 367.62 942.271C373.854 942.136 374.708 941.984 377.318 940.495C379.781 939.083 380.583 938.912 383.115 939.245C384.839 939.474 386.536 939.38 387.224 939.011C389.75 937.656 395.224 937.162 408.344 937.099C415.865 937.063 422.495 936.797 423.083 936.5C423.667 936.203 427.24 935.833 431.021 935.677C434.802 935.526 438.745 935.042 439.781 934.609C441.016 934.094 442.146 934 443.073 934.344C443.875 934.641 445.708 934.636 447.359 934.344C450.604 933.75 451.672 934.396 451.339 936.719C451.156 937.698 450.609 938.172 449.229 938.458C448.182 938.672 446.708 939.24 445.958 939.724C445.214 940.203 443.807 940.792 442.823 941.031C441.854 941.271 440.495 941.979 439.823 942.604C438.682 943.662 433.479 945.771 430.042 946.563C429.219 946.755 427.917 947.401 427.141 948.005C426.349 948.615 424.932 949.109 423.964 949.109C421.625 949.109 416.219 950.667 412.37 952.448C410.667 953.24 408.385 954.057 407.312 954.266C406.245 954.474 404.62 955.271 403.693 956.037C401.437 957.906 399.484 958.323 396.75 957.5C394.75 956.901 394.214 956.974 392.302 958.099C390.417 959.214 389.568 959.333 385.828 959.016C381.99 958.693 381.224 958.813 378.76 960.12C375.573 961.818 372.089 961.99 368.521 960.636C367.208 960.136 365.677 959.583 365.109 959.406C364.552 959.219 362.745 959.781 361.109 960.636C358.339 962.078 357.646 962.177 350.844 962.099C346.833 962.042 342.083 961.807 340.286 961.557H340.307ZM718.995 960.646C716.214 959.104 715.521 959.104 711.568 960.63C708.005 962 704.516 961.828 701.323 960.125C698.859 958.818 698.094 958.693 694.255 959.021C690.516 959.339 689.667 959.219 687.781 958.104C685.875 956.979 685.328 956.906 683.333 957.505C680.599 958.323 678.641 957.912 676.385 956.042C675.469 955.276 673.833 954.479 672.766 954.271C671.698 954.063 669.422 953.25 667.714 952.453C663.865 950.672 658.458 949.115 656.12 949.115C655.146 949.115 653.719 948.62 652.943 948.011C652.151 947.406 650.854 946.755 650.036 946.568C646.604 945.776 641.391 943.662 640.26 942.609C639.583 941.984 638.24 941.276 637.255 941.037C636.286 940.797 634.87 940.208 634.12 939.729C633.375 939.245 631.906 938.677 630.849 938.458C629.469 938.177 628.88 937.703 628.74 936.724C628.406 934.401 629.49 933.755 632.724 934.344C634.37 934.646 636.208 934.646 637.01 934.344C637.927 934.005 639.062 934.094 640.302 934.615C641.333 935.047 645.276 935.526 649.057 935.682C652.839 935.833 656.417 936.208 657 936.5C657.578 936.802 664.219 937.068 671.74 937.104C684.859 937.162 690.333 937.662 692.859 939.016C693.531 939.38 695.255 939.479 696.969 939.25C699.5 938.917 700.297 939.083 702.766 940.5C705.375 941.99 706.229 942.146 712.464 942.271C721.01 942.443 728.792 943.354 729.948 944.313C731.615 945.693 737.411 946.609 742.833 946.354C746.745 946.167 748.557 946.333 749.823 946.984C750.76 947.469 754.047 948.047 757.115 948.271C760.187 948.495 763.036 948.943 763.443 949.266C763.854 949.594 766.266 949.927 768.797 950.016C779.323 950.37 779.219 954.193 768.609 955.886C765.245 956.427 763.255 956.948 761.385 957.787C760.354 958.245 757.995 958.62 756.146 958.62C754.292 958.62 752.193 958.943 751.479 959.333C750.24 960.016 749.083 960.229 739.479 961.563C737.193 961.875 732.24 962.136 728.479 962.136C722.302 962.136 721.391 961.984 718.969 960.651L718.995 960.646ZM253.214 951.521C252.557 951.219 251.151 950.953 250.078 950.932C249.01 950.912 246.333 949.99 244.135 948.891C241.932 947.792 239.167 946.714 237.979 946.5C233.25 945.636 228.531 940.323 229.401 936.839C229.589 936.073 230.583 933.688 231.615 931.542C233.667 927.255 235.401 925.922 238.932 925.922C242.333 925.922 248.927 929.625 253.542 934.13C256.979 937.49 258.026 939.031 260.292 944.052C262.521 948.995 262.844 950.13 262.182 950.792C261.229 951.755 254.854 952.276 253.214 951.521ZM819.656 951.688C817.016 951.115 817.036 950.214 819.844 944.026C822.099 939.026 823.146 937.484 826.583 934.125C831.198 929.62 837.792 925.917 841.187 925.917C844.724 925.917 846.458 927.25 848.505 931.537C849.536 933.682 850.526 936.068 850.719 936.833C851.599 940.318 846.875 945.636 842.146 946.495C840.964 946.708 838.38 947.698 836.417 948.693C831.995 950.938 823.323 952.484 819.667 951.688H819.656ZM516.297 863.224C515.906 862.75 515.682 861.88 515.833 861.292C516.021 860.703 515.833 859.557 515.365 858.74C514.708 857.365 514.312 851.865 514.26 842.984C514.26 841.021 514.594 837.276 515.047 834.662C516.245 827.563 516.448 822.37 515.755 817.88C515.156 814.094 515.214 813.667 516.656 810.719C518.698 806.537 519.109 797.891 517.391 795.292C515.948 793.099 516.005 789.771 517.578 786.797C518.604 784.818 518.755 783.859 518.38 781.578C517.536 776.339 518.141 764.636 519.469 759.99C519.969 758.224 520.573 753.688 520.797 749.901C521.13 744.203 521.042 742.484 520.177 739.943C519.333 737.386 519.281 736.516 519.88 734.714C520.312 733.386 520.479 730.688 520.292 727.724C520.083 724.339 520.292 722.104 520.891 720.234C521.62 718.068 521.641 717.203 521.078 715.583C520.161 713.037 521.396 695.24 522.672 692.703C523.365 691.339 523.365 690.672 522.672 688.979C522.036 687.219 522.089 686.448 523.047 683.651C524.13 680.458 524.13 680.281 523.047 675.896C521.979 671.615 521.979 671.271 522.859 668.537C523.417 666.958 523.87 664.146 523.87 662.292C523.87 660.432 524.13 658.427 524.448 657.828C525.031 656.76 525.271 652.714 525.089 647.865C524.901 644.568 526.693 640.828 529.734 637.922C531.083 636.635 532.453 634.745 532.792 633.719C533.578 631.323 536.307 630.021 540.219 630.167C544.187 630.313 546.286 631.396 547.047 633.698C547.385 634.734 548.771 636.635 550.109 637.922C553.141 640.828 554.891 644.568 554.755 647.865C554.568 652.714 554.755 656.76 555.391 657.828C555.714 658.427 555.974 660.432 555.974 662.292C555.974 664.146 556.422 666.958 556.984 668.537C557.958 671.271 557.958 671.615 556.797 675.896C555.714 680.281 555.714 680.458 556.797 683.651C557.755 686.448 557.807 687.219 557.172 688.979C556.557 690.672 556.573 691.333 557.172 692.703C558.448 695.24 559.682 713.037 558.766 715.583C558.187 717.203 558.203 718.068 558.953 720.234C559.568 722.104 559.755 724.339 559.552 727.724C559.365 730.688 559.542 733.386 559.964 734.714C560.562 736.516 560.51 737.386 559.667 739.943C558.823 742.484 558.708 744.203 559.047 749.901C559.271 753.688 559.87 758.224 560.375 759.99C561.724 764.636 562.318 776.339 561.479 781.578C561.104 783.859 561.255 784.818 562.286 786.797C563.839 789.771 563.896 793.099 562.474 795.292C560.771 797.891 561.182 806.537 563.203 810.719C564.646 813.667 564.703 814.094 564.104 817.88C563.391 822.37 563.615 827.563 564.818 834.662C565.266 837.276 565.604 841.021 565.604 842.984C565.604 851.865 565.172 857.37 564.5 858.74C564.104 859.557 563.901 860.703 564.031 861.292C564.37 862.787 563.115 864.089 561.333 864.089C558.031 864.089 549.245 851.797 547.859 845.24C547.391 843.021 546.568 840.156 546.021 838.886C545.292 837.156 545.089 835.042 545.198 830.563C545.198 826.854 545.01 823.672 544.583 822.245C544.094 820.745 543.964 818.859 544.229 816.896C544.771 812.927 544.786 813.115 543.63 809.828C542.693 807.162 542.693 806.828 543.63 804.344C544.187 802.886 544.469 801.438 544.281 801.125C544.094 800.813 543.516 797.396 543.01 793.531C542.297 788.125 542.24 786 542.745 784.287C543.307 782.422 543.234 781.813 542.354 780.453C541.417 779.011 541.286 777.193 541.25 763.943C541.25 749.901 540.896 745.787 539.807 745.787C538.724 745.787 538.385 749.901 538.349 763.943C538.349 777.193 538.161 779.011 537.245 780.453C536.344 781.818 536.292 782.422 536.854 784.287C537.354 786 537.302 788.125 536.589 793.531C536.083 797.396 535.505 800.813 535.318 801.125C535.13 801.438 535.505 802.886 535.974 804.344C536.927 806.828 536.927 807.162 535.974 809.828C534.812 813.115 534.833 812.927 535.37 816.896C535.635 818.859 535.562 820.75 535.016 822.245C534.547 823.672 534.302 826.854 534.401 830.563C534.589 835.042 534.214 837.156 533.573 838.886C533.031 840.156 532.229 843.021 531.74 845.24C531.083 848.313 530.094 850.469 527.594 854.229C521.646 863.167 518.214 865.839 516.042 863.224H516.297ZM540.911 740.646C541.365 738.844 540.427 737.448 539.432 738.448C538.76 739.115 539.245 742.219 540.068 742.219C540.333 742.219 540.708 741.511 540.932 740.646H540.911ZM540.651 727.354C540.651 726.375 540.385 725.573 540.052 725.573C539.714 725.573 539.453 726.375 539.453 727.354C539.453 728.339 539.714 729.141 540.052 729.141C540.37 729.141 540.651 728.333 540.651 727.354ZM181.281 711.896C179.656 711.656 177.068 711.589 175.542 711.745C173.229 711.995 172.25 711.745 169.599 710.25C167.859 709.261 165.526 708.26 164.427 708.031C162.307 707.583 157.797 703.568 157.797 702.125C157.797 700.662 155.964 699.292 154.49 699.662C152.479 700.167 150.078 699.068 147.396 696.422C146.083 695.13 143.948 693.057 142.641 691.818C140.359 689.656 135.875 683.521 132.927 678.547C132.161 677.255 130.828 675.828 129.953 675.375C127.536 674.12 121.505 666.958 119.719 663.214C118.839 661.375 117.385 659.203 116.484 658.385C115.589 657.568 113.437 654.995 111.708 652.672C109.984 650.344 106.526 646.464 104.036 644.047C101.547 641.635 98.9583 639.125 98.2812 638.474C95.2968 635.583 90.6198 629.724 90.6198 628.885C90.6198 628.38 89.6458 627.12 88.4687 626.089C87.2864 625.052 85.6718 623.193 84.8802 621.958C84.0937 620.724 82.1302 618.901 80.5208 617.912C78.9114 616.922 77.026 615.193 76.3281 614.063C75.6354 612.938 74.7916 612.016 74.4427 612.016C74.1093 612.016 71.651 609.906 68.9948 607.323C64.6406 603.089 63.7916 602.537 60.401 601.677C58.3333 601.151 55.4739 600.724 54.0573 600.724C51.6875 600.724 51.4427 600.87 51.0937 602.458C50.6093 604.698 46.2708 608.698 41.0833 611.703C35.9479 614.682 33.2083 617.656 32.6718 620.854C32.4427 622.193 31.6198 624.162 30.8333 625.234C30.0468 626.302 28.9583 627.807 28.3958 628.578C27.7604 629.453 27.2343 631.693 26.9895 634.526C26.7864 637.026 26.0573 641.073 25.3802 643.526C24.7083 645.979 23.9948 649.901 23.7916 652.245C23.3437 657.412 23.0573 658.234 21.5364 658.719C20.1302 659.167 18.1979 657.537 15.6406 653.75C13.1145 650.021 12.125 647.932 12.125 646.323C12.125 645.542 11.5677 644.391 10.8906 643.776C9.10934 642.162 8.56767 640.938 7.94788 637.109C7.17705 632.365 9.31246 621.693 11.7031 618.328C12.3802 617.38 13.1458 615.292 13.3906 613.688C13.9895 609.932 15.8437 606.964 18.7604 605.12C20.0364 604.313 21.3593 602.953 21.6823 602.094C23.4791 597.385 30.8593 587.646 32.6406 587.646C33 587.646 35.2812 586.339 37.7187 584.74C40.6302 582.833 43.7604 581.385 46.8541 580.521L51.5573 579.203L57.552 580.766C60.8541 581.62 64.8854 582.974 66.526 583.771C68.151 584.573 70.2396 585.37 71.1458 585.557C72.0468 585.745 73.7916 586.781 75.0104 587.865C76.2291 588.953 78.151 590.151 79.2812 590.537C82.5052 591.635 83.9062 592.787 86.7812 596.688C88.6354 599.219 90.6718 601.073 93.4479 602.781C96.4062 604.604 97.7708 605.891 98.7135 607.74C99.4843 609.25 101.135 611.026 102.875 612.219C104.469 613.302 106.297 615.083 106.948 616.172C107.609 617.26 109.052 619.109 110.161 620.287C111.266 621.464 112.823 623.385 113.604 624.568C114.391 625.745 115.672 627.005 116.464 627.37C117.255 627.729 118.589 629.104 119.422 630.427C120.25 631.745 121.182 632.828 121.479 632.828C121.776 632.828 122.62 633.828 123.37 635.057C124.12 636.281 126.411 639.234 128.474 641.615C130.536 643.995 132.224 646.318 132.224 646.776C132.224 648.354 139.406 658.354 142.156 660.599C143.672 661.839 145.818 664.276 146.937 666.021C148.057 667.76 149.87 669.724 150.979 670.375C152.083 671.031 153.594 672.542 154.339 673.745C155.609 675.823 159.526 679.891 165.875 685.745C167.464 687.224 169.047 688.901 169.38 689.484C169.698 690.063 170.766 690.594 171.75 690.662L173.526 690.792L173.995 686.13C174.26 683.563 174.896 680.484 175.422 679.292C176.771 676.208 177.411 672.724 177.979 665.229C178.26 661.635 178.802 657.62 179.219 656.313C179.63 655.005 180.005 652.063 180.078 649.776C180.266 644.052 181.203 637.885 183.125 630.156C184.026 626.557 184.755 622.146 184.734 620.349C184.547 605.182 184.12 594.938 183.406 593.635C182.974 592.844 182.38 590.109 182.094 587.563C181.818 585.016 181.026 581.537 180.354 579.833C179.552 577.802 179.156 575.5 179.193 573.13C179.38 567.797 178.615 562.047 177.656 559.917C177.193 558.885 176.812 557.417 176.812 556.646C176.812 555.88 175.75 553.51 174.437 551.385C172.865 548.818 172.062 546.823 172.057 545.443C172.057 544.297 171.625 542.557 171.125 541.578C170.599 540.594 170.187 538.484 170.203 536.885C170.203 534.948 169.74 533.01 168.766 531.109C167.958 529.531 167.302 527.495 167.302 526.583C167.302 525.677 166.516 523.266 165.562 521.234C164.552 519.089 163.552 515.646 163.187 513.021C162.833 510.542 162.328 508.057 162.047 507.505C161.766 506.953 161.375 503.995 161.187 500.927C160.922 496.583 160.589 495.078 159.687 494.094C157.854 492.068 157.203 490.406 157.203 487.698C157.203 485.943 156.734 484.484 155.667 482.958C154.375 481.089 154.057 479.802 153.687 474.604C153.292 469.344 153.01 468.12 151.646 466.146C150.714 464.771 150.057 463.021 150.057 461.839C150.057 459.969 147.391 449.682 145.953 445.974C145.594 445.052 145.297 443.047 145.297 441.516C145.297 439.984 144.922 438.01 144.453 437.125C142.859 434.073 141.786 429.203 141.865 425.354C142.052 419.974 141.229 416.479 139.516 414.177C138.073 412.234 135.219 404.141 135.198 401.927C135.198 401.302 134.807 399.427 134.318 397.766C133.531 395.068 131.552 385.818 129.766 376.609C129.406 374.813 128.693 372.302 128.172 371.037C127.609 369.703 127.234 367.198 127.271 365.089C127.458 355.047 127.458 354.813 128.641 353.276C129.297 352.438 129.839 351.495 129.839 351.182C129.839 350.87 130.474 349.682 131.245 348.542C132.219 347.109 132.724 345.354 132.911 342.865C133.135 339.792 133.49 338.865 135.37 336.583C136.568 335.109 137.562 333.599 137.562 333.229C137.562 331.245 139.641 328.849 142.51 327.526C144.214 326.75 146.339 325.161 147.255 324.005C148.172 322.849 150.307 321.203 152.01 320.344C153.714 319.49 155.984 318.021 157.057 317.078C158.182 316.089 159.693 315.375 160.646 315.375C161.542 315.375 163.854 314.818 165.786 314.141C171.052 312.292 176.391 312.026 180.37 313.411C182.911 314.302 184.203 314.438 186.177 314.036C188.333 313.594 189.229 313.755 192.12 315.078C196.547 317.104 197.776 318.323 200.646 323.521C201.958 325.896 203.245 327.969 203.51 328.135C204.427 328.698 207.208 334.995 207.005 336.036C206.812 336.901 206.104 337.083 202.646 337.13C197.906 337.188 189.344 335.984 187.484 334.984C184.396 333.333 179.896 332.635 176.432 333.276C174.562 333.62 172.156 333.734 171.073 333.531C169.464 333.229 168.292 333.625 164.599 335.714C162.12 337.115 158.849 338.964 157.323 339.813C154.589 341.339 153.104 343.484 153.047 346C153.036 346.661 152.448 348.266 151.734 349.568C150.37 352.094 150.125 355.172 149.865 372.438C149.677 379.849 149.865 380.594 151.062 382.396C152.786 384.943 154.01 389.339 154.802 395.865C155.156 398.771 155.849 402.115 156.339 403.297C158.385 408.156 159.422 412.245 159.781 416.88C160.078 420.667 160.641 422.818 162.234 426.318C163.375 428.813 164.302 431.828 164.307 433.01C164.307 434.198 164.995 436.635 165.859 438.438C166.833 440.49 167.693 443.917 168.214 447.651C169.339 455.854 169.917 458.339 171.135 460.203C171.719 461.089 172.411 463.307 172.672 465.135C172.937 466.964 173.458 469.662 173.833 471.13C174.208 472.604 174.771 475 175.104 476.458C175.427 477.917 176.38 480.839 177.224 482.948C178.068 485.057 178.984 488.547 179.245 490.698C180.146 497.958 180.745 501.146 181.464 502.453C181.854 503.167 182.172 504.984 182.172 506.49C182.172 508.323 182.583 509.776 183.411 510.885C184.083 511.797 184.849 513.995 185.094 515.766C185.359 517.537 186.312 520.594 187.208 522.557C188.24 524.802 188.911 527.333 189.005 529.391C189.193 532.865 190.297 536.724 192.573 541.578C195.453 547.698 195.932 549.38 195.807 552.917C195.62 555.625 196.187 557.953 197.865 562.979C199.214 567.042 200.5 572.604 201.229 577.662C201.885 582.135 202.651 586.953 202.932 588.359C205.25 599.708 206.531 608.802 206.141 611.198C205.953 612.417 206.328 613.922 207.156 615.62C208.427 618.115 208.484 619.219 207.583 624.51C207.583 625 207.943 628.021 208.578 631.224C209.682 636.849 209.682 637.115 208.578 639.25C207.979 640.458 207.156 643.057 206.74 645.021C205.583 650.37 203.865 655.906 203.115 656.651C202.63 657.141 202.125 657.141 201.224 656.651C200.151 656.078 199.875 656.224 199.068 657.776C198.432 658.99 198.266 660.307 198.526 661.927C198.792 663.51 198.526 665.094 197.948 666.708C197.422 668.031 196.974 669.979 196.974 671.037C196.974 672.094 196.557 674.271 196.073 675.875C195.583 677.479 195.193 679.771 195.193 680.969C195.193 682.167 194.667 685.13 194.01 687.563C192.573 692.99 192.552 693.469 193.807 693.469C194.354 693.469 195.896 693.99 197.224 694.62C199.437 695.682 202.224 696.49 210.344 698.432C214.578 699.448 216.099 700.422 215.875 701.979C215.687 702.948 215.016 703.469 213.021 704.047C211.536 704.469 208.339 705.568 205.885 706.49C203.432 707.412 200.224 708.526 198.75 708.964C197.271 709.401 194.901 710.375 193.464 711.125C190.703 712.568 187.234 712.781 181.214 711.891L181.281 711.896ZM886.641 711.188C885.161 710.406 882.76 709.406 881.292 708.969C879.812 708.531 876.609 707.417 874.161 706.495C871.708 705.573 868.5 704.474 867.026 704.047C865.031 703.474 864.302 702.953 864.161 701.984C863.937 700.427 865.474 699.448 869.698 698.438C877.818 696.495 880.599 695.688 882.818 694.625C884.146 693.99 885.687 693.469 886.234 693.469C887.49 693.469 887.474 692.995 886.031 687.568C885.396 685.135 884.849 682.172 884.849 680.974C884.849 679.776 884.458 677.484 883.969 675.88C883.484 674.276 883.089 672.099 883.068 671.042C883.068 669.984 882.62 668.037 882.099 666.708C881.464 665.099 881.255 663.516 881.516 661.932C881.781 660.313 881.516 658.995 880.974 657.781C880.167 656.229 879.891 656.083 878.823 656.656C877.922 657.141 877.417 657.141 876.927 656.656C876.177 655.912 874.453 650.375 873.302 645.026C872.87 643.063 872.047 640.464 871.464 639.255C870.437 637.12 870.437 636.854 871.464 631.229C872.083 628.026 872.531 625.005 872.458 624.516C871.557 619.224 871.615 618.12 872.891 615.625C873.75 613.927 874.104 612.422 873.901 611.203C873.51 608.807 874.802 599.714 877.109 588.365C877.385 586.958 878.156 582.141 878.812 577.662C879.542 572.609 880.818 567.047 882.177 562.984C883.844 557.958 884.328 555.63 884.234 552.922C884.047 549.385 884.589 547.703 887.469 541.583C889.75 536.729 890.88 532.87 891.036 529.396C891.224 527.333 891.786 524.807 892.833 522.563C893.734 520.599 894.687 517.542 894.948 515.771C895.214 514 895.958 511.802 896.63 510.891C897.458 509.781 897.849 508.328 897.849 506.495C897.849 504.99 898.167 503.172 898.562 502.458C899.276 501.151 899.875 497.958 900.776 490.703C901.036 488.547 901.953 485.063 902.797 482.953C903.641 480.844 904.594 477.922 904.917 476.464C905.234 475.005 905.818 472.609 906.193 471.135C906.562 469.667 907.089 466.964 907.349 465.141C907.615 463.313 908.307 461.094 908.885 460.208C910.104 458.344 910.682 455.854 911.812 447.656C912.312 443.922 913.193 440.495 914.167 438.438C915.01 436.641 915.703 434.198 915.719 433.016C915.719 431.828 916.651 428.818 917.792 426.323C919.38 422.823 919.943 420.672 920.24 416.885C920.599 412.25 921.646 408.156 923.682 403.302C924.172 402.12 924.885 398.776 925.224 395.87C926.01 389.344 927.234 384.948 928.964 382.401C930.177 380.599 930.271 379.849 930.161 372.438C929.896 355.177 929.656 352.094 928.286 349.573C927.578 348.271 926.995 346.667 926.974 346.005C926.974 343.49 925.443 341.339 922.703 339.818C921.167 338.964 917.901 337.12 915.427 335.719C911.729 333.625 910.568 333.234 908.953 333.536C907.865 333.74 905.458 333.63 903.589 333.276C900.13 332.641 895.63 333.333 892.542 334.99C890.687 335.984 882.12 337.198 877.375 337.135C873.922 337.099 873.193 336.906 873.021 336.036C872.818 334.995 875.599 328.703 876.51 328.135C876.776 327.969 878.062 325.896 879.375 323.526C882.25 318.323 883.479 317.104 887.901 315.078C890.792 313.755 891.687 313.599 893.844 314.036C895.823 314.443 897.109 314.302 899.651 313.417C903.63 312.026 908.974 312.297 914.24 314.146C916.167 314.823 918.479 315.375 919.38 315.375C920.333 315.375 921.833 316.094 922.964 317.083C924.036 318.021 926.312 319.49 928.01 320.349C929.714 321.208 931.854 322.854 932.766 324.01C933.682 325.167 935.818 326.75 937.51 327.531C940.38 328.854 942.453 331.245 942.453 333.234C942.453 333.599 943.448 335.109 944.651 336.583C946.526 338.87 946.885 339.792 947.109 342.865C947.297 345.354 947.802 347.109 948.776 348.542C949.542 349.688 950.177 350.875 950.177 351.188C950.177 351.495 950.724 352.438 951.38 353.276C952.578 354.813 952.615 355.047 952.745 365.094C952.745 367.203 952.391 369.703 951.849 371.037C951.323 372.307 950.609 374.813 950.255 376.609C948.474 385.818 946.479 395.073 945.698 397.766C945.214 399.432 944.823 401.302 944.823 401.927C944.807 404.141 941.948 412.24 940.505 414.177C938.781 416.479 938.052 419.979 938.156 425.359C938.156 429.208 937.161 434.078 935.568 437.13C935.099 438.01 934.724 439.99 934.724 441.521C934.724 443.052 934.422 445.057 934.068 445.979C932.625 449.688 929.964 459.974 929.964 461.844C929.964 463.026 929.328 464.771 928.37 466.146C927.021 468.125 926.724 469.344 926.333 474.604C925.958 479.807 925.641 481.089 924.349 482.958C923.281 484.49 922.812 485.948 922.812 487.703C922.812 490.412 922.177 492.073 920.328 494.094C919.427 495.083 919.109 496.583 918.833 500.932C918.641 504 918.25 506.958 917.969 507.51C917.693 508.063 917.167 510.542 916.828 513.026C916.474 515.651 915.464 519.094 914.453 521.24C913.495 523.271 912.714 525.682 912.714 526.589C912.714 527.5 912.057 529.537 911.25 531.109C910.297 533.016 909.812 534.953 909.812 536.885C909.812 538.49 909.396 540.599 908.896 541.583C908.391 542.563 907.958 544.302 907.958 545.448C907.958 546.828 907.151 548.823 905.573 551.391C904.266 553.516 903.203 555.885 903.203 556.651C903.203 557.417 902.823 558.891 902.359 559.922C901.401 562.047 900.729 567.802 900.823 573.13C900.823 575.505 900.464 577.807 899.661 579.839C898.99 581.542 898.198 585.021 897.922 587.568C897.641 590.115 897.042 592.849 896.609 593.641C895.896 594.938 895.391 605.188 895.281 620.354C895.266 622.151 895.99 626.563 896.891 630.162C898.823 637.891 899.781 644.057 899.937 649.781C899.937 652.068 900.385 655.01 900.797 656.318C901.214 657.625 901.755 661.641 902.036 665.234C902.615 672.729 903.25 676.214 904.594 679.297C905.12 680.495 905.755 683.568 906.021 686.135L906.49 690.797L908.266 690.667C909.24 690.594 910.307 690.068 910.635 689.49C910.974 688.906 912.542 687.229 914.141 685.75C920.484 679.896 924.396 675.828 925.677 673.75C926.427 672.552 927.927 671.031 929.031 670.38C930.141 669.729 931.958 667.766 933.078 666.026C934.198 664.281 936.344 661.844 937.859 660.604C940.604 658.359 947.792 648.359 947.792 646.781C947.792 646.323 949.474 644 951.536 641.62C953.599 639.24 955.891 636.287 956.635 635.063C957.385 633.833 958.229 632.833 958.531 632.833C958.833 632.833 959.75 631.75 960.589 630.432C961.411 629.109 962.75 627.734 963.542 627.375C964.328 627.01 965.625 625.75 966.406 624.573C967.193 623.391 968.734 621.469 969.849 620.292C970.953 619.115 972.406 617.266 973.057 616.177C973.714 615.089 975.542 613.307 977.13 612.224C978.87 611.031 980.521 609.255 981.292 607.745C982.25 605.896 983.604 604.609 986.557 602.787C989.333 601.078 991.365 599.224 993.224 596.693C996.099 592.792 997.505 591.641 1000.73 590.542C1001.85 590.156 1003.78 588.953 1004.99 587.87C1006.21 586.787 1007.95 585.745 1008.86 585.563C1009.76 585.375 1011.84 584.578 1013.48 583.776C1015.11 582.979 1019.15 581.625 1022.45 580.771L1028.45 579.208L1033.15 580.526C1036.24 581.391 1039.37 582.839 1042.29 584.745C1044.72 586.344 1047.01 587.651 1047.36 587.651C1049.14 587.651 1056.53 597.391 1058.32 602.099C1058.64 602.958 1059.97 604.318 1061.24 605.125C1064.16 606.969 1066.02 609.932 1066.61 613.693C1066.88 615.297 1067.63 617.38 1068.3 618.333C1070.7 621.693 1072.83 632.37 1072.06 637.115C1071.44 640.943 1070.9 642.167 1069.11 643.776C1068.44 644.401 1067.87 645.547 1067.87 646.328C1067.87 647.932 1066.89 650.026 1064.36 653.755C1061.8 657.542 1059.87 659.167 1058.47 658.724C1056.95 658.24 1056.65 657.417 1056.21 652.25C1056.01 649.906 1055.3 645.984 1054.62 643.531C1053.95 641.078 1053.23 637.026 1053.01 634.531C1052.77 631.698 1052.24 629.458 1051.61 628.583C1051.05 627.813 1049.94 626.307 1049.17 625.234C1048.39 624.167 1047.56 622.198 1047.33 620.859C1046.79 617.662 1044.06 614.682 1038.92 611.708C1033.73 608.703 1029.4 604.698 1028.91 602.464C1028.55 600.87 1028.31 600.724 1025.95 600.724C1024.53 600.724 1021.67 601.156 1019.6 601.677C1016.21 602.537 1015.36 603.094 1011.01 607.328C1008.35 609.912 1005.9 612.021 1005.56 612.021C1005.22 612.021 1004.38 612.943 1003.67 614.068C1002.98 615.193 1001.09 616.927 999.479 617.917C997.87 618.906 995.911 620.729 995.12 621.964C994.333 623.198 992.719 625.057 991.536 626.089C990.359 627.125 989.385 628.385 989.385 628.891C989.385 629.729 984.703 635.583 981.724 638.479C981.047 639.13 978.458 641.641 975.969 644.052C973.484 646.469 970.031 650.344 968.297 652.672C966.573 655 964.417 657.573 963.516 658.391C962.62 659.208 961.167 661.38 960.286 663.214C958.49 666.958 952.469 674.125 950.047 675.38C949.172 675.833 947.844 677.26 947.078 678.547C944.13 683.526 939.641 689.656 937.365 691.823C936.057 693.063 933.917 695.135 932.609 696.427C929.927 699.073 927.526 700.172 925.521 699.667C924.057 699.297 922.203 700.667 922.203 702.13C922.203 703.573 917.698 707.583 915.578 708.031C914.495 708.266 912.193 709.24 910.5 710.198C907.932 711.651 906.828 711.922 903.958 711.813C902.057 711.74 897.964 711.886 894.859 712.141C889.568 712.578 889.047 712.516 886.536 711.182L886.641 711.188ZM493.391 649.771C488.354 647.698 487.245 646.708 483.885 641.287C482.255 638.651 480.427 635.833 479.844 635.026C479.26 634.219 478.547 632.135 478.271 630.396C477.99 628.656 477.427 627.115 476.995 626.974C476.562 626.828 475.141 625.74 473.807 624.542C472.474 623.349 470.182 621.464 468.708 620.354C467.229 619.245 464.323 616.859 462.234 615.057C458.875 612.162 458.115 611.771 455.693 611.708C451.099 611.594 450.917 611.521 447.802 608.609C444.859 605.854 444.698 605.787 441.38 605.932C438.745 606.047 437.38 605.766 435.328 604.677C433.333 603.615 431.443 603.203 427.573 603.005C424.401 602.833 421.932 602.391 421.062 601.823C420.297 601.323 417.974 600.76 415.911 600.578C413.219 600.339 411.464 599.787 409.724 598.635C408.172 597.604 405.891 596.818 403.375 596.443C401.219 596.125 397.979 595.453 396.182 594.953C394.385 594.453 391.307 593.849 389.349 593.615C387.385 593.375 384.255 592.76 382.391 592.24C380.224 591.641 377.854 591.417 375.839 591.625C373.87 591.828 371.307 591.604 369.047 591.021C366.198 590.292 364.969 590.234 363.276 590.755C361.609 591.26 360.552 591.224 358.589 590.604C355.964 589.76 351.297 589.427 342.771 589.469C338.797 589.484 337.401 589.245 335.724 588.26C333.469 586.927 330.807 587.047 327.698 588.625C325.677 589.646 318.51 589.682 315.849 588.682C312.307 587.349 300.167 588.021 284.12 590.438C280.849 590.927 276.167 591.557 273.719 591.828C268.667 592.396 265.88 593.141 263.854 594.464C263.089 594.964 261.24 595.375 259.745 595.375C257.24 595.375 256.75 595.109 253.479 591.927C250.109 588.651 249.937 588.339 249.937 585.594C249.937 582.865 250.125 582.505 253.359 579.276C255.375 577.266 257.516 575.698 258.562 575.474C262.505 574.63 273.464 571.406 274.104 570.901C275.865 569.51 278.698 569.25 281.932 570.193C284.458 570.927 285.667 571 287.328 570.51C288.51 570.167 291.609 569.891 294.224 569.891C296.839 569.891 302.193 569.703 306.115 569.484C310.036 569.255 314.187 569.146 315.333 569.245C318.99 569.563 321.99 569.458 329.651 568.75C334.661 568.287 337.807 568.25 339.161 568.641C340.266 568.958 342.557 569.219 344.234 569.219C345.917 569.219 348.385 569.609 349.74 570.083C351.104 570.568 353.844 570.896 355.906 570.828C358.698 570.734 360.458 571.057 362.979 572.13L366.339 573.552L368.401 572.276C369.75 571.453 371.479 570.995 373.365 570.974L376.266 570.938L374.786 569.932C373.958 569.38 372.094 567.807 370.62 566.438C367.995 563.99 367.937 563.859 367.568 559.297C367.359 556.74 366.479 552.109 365.641 549.005C364.797 545.896 364.089 542.287 364.089 540.979C364.089 539.667 363.693 537.323 363.208 535.76C362.531 533.537 362.474 532.193 362.964 529.589C363.469 526.875 363.396 525.552 362.552 522.474L361.521 518.693L363.094 515.662C364.276 513.38 364.667 511.755 364.667 509.099C364.667 504.693 365.656 502.26 368.464 499.802C370.281 498.203 371.141 497.875 373.516 497.875C376.286 497.875 376.469 497.99 379.464 501.531L382.552 505.188V512.974C382.552 521.401 383.245 529.281 384.26 531.948C385.104 534.125 385.083 540.573 384.245 542.99C383.667 544.656 383.776 545.151 385.104 547.094C386.87 549.635 387.943 553.859 387.766 557.484C387.766 558.87 388.01 561.672 388.479 563.719C389.172 566.797 389.172 567.802 388.479 569.563C387.766 571.51 387.823 571.813 389 573.068C390.073 574.198 391.115 574.505 394.859 574.776C404.38 575.458 413.417 577.839 418.932 581.115C421.062 582.38 421.406 582.417 424.406 581.698C427.24 581.016 427.932 581.052 430.391 581.99C432.958 582.969 433.214 582.974 433.719 582.063C434.745 580.214 436.781 578.74 438.823 578.354C440.792 577.984 440.854 577.896 440.51 575.823C440.323 574.635 440.51 572.156 440.844 570.302C441.443 567.37 441.391 566.359 440.359 562.573C439.458 559.276 439.292 557.635 439.682 555.839C439.964 554.526 440.062 552.255 439.891 550.781C439.703 549.313 439.307 545.167 438.99 541.568C438.672 537.974 438.26 534.026 438.073 532.797C437.87 531.49 438.073 529.766 438.542 528.635C438.99 527.573 439.531 525.318 439.76 523.62C439.979 521.922 440.505 519.646 440.937 518.568C441.703 516.63 441.609 514.438 440.375 505.115C440.115 503.172 440.187 501.458 440.599 500.656C443.396 495.047 443.526 489.281 440.974 484.198C439.703 481.662 439.646 480.953 439.797 470.547C439.984 462.12 439.797 458.87 439.083 456.573C438.484 454.526 438.318 452.458 438.578 450.016C438.786 448.057 439.083 444.714 439.255 442.583C439.443 440.458 440.078 435.912 440.714 432.479C442.042 425.427 442.229 419.734 441.203 416.349C440.677 414.568 440.677 413.333 441.203 410.901C441.854 408.193 441.818 407.359 440.974 404.88C440.099 402.287 440.078 401.708 440.974 398.948C441.766 396.219 441.766 395.469 440.974 392.037C440.339 389.38 440.099 385.526 440.151 379.573C440.151 374.828 439.964 368.995 439.667 366.609C439.271 363.63 439.292 361.615 439.667 360.198C440.13 358.682 440.115 357.37 439.667 355.323C439.271 353.781 439.01 351.182 439.068 349.547C439.068 347.912 438.839 345 438.427 343.078C438.016 341.156 437.828 338.802 438.016 337.849C438.391 336.021 441.542 331.026 443.104 329.802C444.656 328.583 449.698 328.901 452.354 330.391C456.062 332.469 456.875 334.771 457.078 343.792C457.266 348.458 457.547 351.964 457.995 352.818C460.276 357.089 461.547 369.859 460.276 375.776C459.714 378.344 459.786 379.255 460.667 381.578C461.495 383.729 461.641 385.198 461.302 388.339C460.5 396.333 460.5 405.359 461.302 407.912C461.964 409.958 461.964 411.109 461.302 414.453C460.781 417.208 460.724 419.177 461.099 420.589C461.453 421.932 461.437 423.62 461.099 425.344C460.766 426.818 460.312 430.964 460.109 434.557C459.901 438.156 459.453 442.01 459.099 443.125C458.63 444.62 458.646 446.188 459.099 449.073C459.771 452.672 459.714 453.266 458.536 456.427C457.26 459.792 457.26 459.938 458.271 462.755C459.172 465.234 459.208 466.135 458.63 469.078C458.25 470.964 457.937 474.885 457.937 477.797C457.937 480.708 457.635 483.641 457.281 484.313C456.792 485.229 456.833 486.474 457.469 489.182C457.917 491.182 458.292 495.495 458.312 498.766C458.312 503.162 458.646 505.422 459.474 507.453C460.5 509.953 460.521 510.495 459.771 513.604C459.057 516.531 459.078 517.5 459.771 520.375C460.333 522.578 460.651 527.203 460.687 533.839C460.875 553.068 460.932 557.323 461.359 557.313C461.604 557.313 462.427 556.339 463.198 555.151C464.224 553.568 464.62 552.037 464.693 549.365C464.693 546.833 465.292 544.667 466.417 542.24C467.484 539.948 468.026 537.75 468.026 535.844C468.026 534.162 468.776 530.787 469.807 527.797C470.781 524.964 471.589 521.807 471.589 520.771C471.589 518.672 472.969 513.656 474.187 511.302C474.802 510.115 474.839 509.208 474.375 507.412C473.849 505.432 473.943 504.615 474.99 502.214C477.755 495.854 478.094 494.448 478.375 488.063C478.562 484.469 478.953 480.188 479.292 478.552C479.646 476.917 480.302 473.307 480.771 470.526C481.24 467.745 482.026 464.479 482.552 463.26C483.073 462.047 483.484 460.292 483.484 459.37C483.484 458.443 484.141 455.422 484.964 452.662C485.771 449.896 486.448 446.563 486.448 445.245C486.448 443.927 486.823 442.323 487.25 441.677C488.521 439.818 489.589 433.313 488.859 431.938C488 430.313 488.089 427.365 489.062 425.464C489.51 424.578 490.078 421.182 490.318 417.912C490.542 414.646 491.089 411.417 491.521 410.74C491.953 410.068 492.568 407.229 492.906 404.438C493.24 401.646 493.896 398.453 494.365 397.344C496.786 391.516 497.667 387.552 497.339 383.964C496.818 378.162 498.161 375.037 503.047 370.698C507.714 366.563 509.156 365.896 513.448 365.896C515.172 365.896 517.901 365.495 519.5 365.01C523.177 363.896 525.708 363.88 528.198 364.953C531.948 366.573 537.979 368.271 539.958 368.271C541.943 368.271 547.974 366.573 551.724 364.953C554.208 363.88 556.745 363.896 560.417 365.01C562.026 365.495 564.745 365.896 566.469 365.896C570.766 365.896 572.203 366.563 576.87 370.698C581.766 375.037 583.115 378.162 582.583 383.964C582.245 387.552 583.141 391.516 585.557 397.344C586.026 398.453 586.682 401.646 587.016 404.438C587.354 407.229 587.99 410.068 588.401 410.74C588.833 411.417 589.375 414.646 589.599 417.912C589.823 421.182 590.385 424.583 590.854 425.464C591.828 427.365 591.922 430.313 591.062 431.938C590.328 433.313 591.396 439.818 592.672 441.677C593.12 442.323 593.474 443.927 593.474 445.245C593.474 446.563 594.146 449.896 594.953 452.662C595.76 455.422 596.432 458.443 596.432 459.37C596.432 460.297 596.865 462.047 597.37 463.26C597.875 464.479 598.682 467.745 599.151 470.526C599.62 473.307 600.276 476.917 600.63 478.552C600.984 480.188 601.401 484.469 601.547 488.063C601.828 494.448 602.161 495.854 604.932 502.214C605.979 504.615 606.073 505.432 605.547 507.412C605.057 509.208 605.099 510.115 605.734 511.302C606.953 513.656 608.333 518.672 608.333 520.771C608.333 521.802 609.135 524.969 610.109 527.797C611.141 530.787 611.891 534.162 611.891 535.844C611.891 537.75 612.453 539.948 613.5 542.24C614.625 544.667 615.146 546.833 615.224 549.365C615.224 552.037 615.693 553.563 616.719 555.151C617.49 556.339 618.312 557.307 618.557 557.313C619.005 557.328 619.12 553.068 619.229 533.839C619.229 527.203 619.589 522.578 620.146 520.375C620.88 517.5 620.88 516.531 620.146 513.604C619.401 510.495 619.437 509.953 620.448 507.453C621.271 505.422 621.589 503.162 621.609 498.766C621.63 495.495 622 491.182 622.453 489.182C623.052 486.474 623.089 485.229 622.635 484.313C622.281 483.641 621.984 480.708 621.984 477.797C621.984 474.885 621.661 470.964 621.292 469.078C620.693 466.135 620.745 465.234 621.646 462.755C622.656 459.938 622.656 459.792 621.385 456.427C620.182 453.266 620.146 452.672 620.823 449.073C621.365 446.188 621.385 444.62 620.823 443.125C620.464 442.01 620.016 438.156 619.812 434.557C619.604 430.964 619.172 426.818 618.818 425.344C618.427 423.62 618.385 421.932 618.818 420.589C619.193 419.177 619.135 417.208 618.615 414.453C617.979 411.109 617.979 409.958 618.615 407.912C619.417 405.359 619.417 396.333 618.615 388.339C618.292 385.198 618.427 383.729 619.25 381.578C620.13 379.255 620.203 378.344 619.641 375.776C618.37 369.859 619.641 357.089 621.922 352.818C622.37 351.964 622.729 348.458 622.839 343.792C623.042 334.771 623.849 332.469 627.568 330.391C630.219 328.901 635.26 328.578 636.812 329.802C638.385 331.026 641.536 336.021 641.901 337.849C642.089 338.802 641.901 341.156 641.484 343.078C641.073 345 640.792 347.912 640.849 349.547C640.849 351.182 640.646 353.781 640.25 355.323C639.729 357.37 639.708 358.682 640.25 360.198C640.682 361.615 640.698 363.63 640.25 366.609C639.932 368.995 639.708 374.828 639.76 379.573C639.76 385.526 639.578 389.38 638.937 392.037C638.135 395.469 638.135 396.219 638.937 398.948C639.745 401.708 639.729 402.281 638.937 404.88C638.094 407.359 638.057 408.193 638.714 410.901C639.297 413.333 639.312 414.568 638.714 416.349C637.703 419.734 637.87 425.427 639.203 432.479C639.859 435.912 640.516 440.458 640.661 442.583C640.849 444.714 641.13 448.057 641.333 450.016C641.599 452.458 641.521 454.526 640.833 456.573C640.156 458.87 639.99 462.12 640.12 470.547C640.307 480.953 640.307 481.662 638.937 484.198C636.38 489.281 636.51 495.047 639.312 500.656C639.708 501.453 639.802 503.172 639.536 505.115C638.302 514.438 638.208 516.63 638.979 518.568C639.411 519.651 639.953 521.922 640.156 523.62C640.38 525.318 640.927 527.573 641.375 528.635C641.844 529.766 642.031 531.49 641.844 532.797C641.656 534.026 641.245 537.974 640.927 541.568C640.604 545.167 640.214 549.313 640.047 550.781C639.859 552.255 640.047 554.526 640.25 555.839C640.641 557.635 640.474 559.276 639.578 562.573C638.552 566.359 638.474 567.37 639.089 570.302C639.464 572.156 639.635 574.641 639.427 575.823C639.089 577.896 639.146 577.984 641.109 578.354C643.151 578.74 645.187 580.214 646.219 582.063C646.724 582.969 646.969 582.964 649.547 581.99C652.005 581.052 652.698 581.016 655.526 581.698C658.531 582.417 658.875 582.38 661.005 581.115C666.521 577.839 675.557 575.458 685.078 574.776C688.823 574.505 689.865 574.203 690.927 573.068C692.109 571.813 692.167 571.51 691.453 569.563C690.818 567.802 690.818 566.797 691.453 563.719C691.901 561.672 692.224 558.87 692.167 557.484C691.979 553.859 693.068 549.635 694.823 547.094C696.177 545.151 696.266 544.656 695.687 542.99C694.844 540.573 694.823 534.125 695.672 531.948C696.703 529.281 697.417 521.401 697.38 512.974V505.188L700.469 501.531C703.464 497.99 703.651 497.875 706.417 497.875C708.792 497.875 709.646 498.203 711.469 499.802C714.271 502.26 715.266 504.693 715.266 509.099C715.266 511.755 715.656 513.38 716.833 515.662L718.406 518.693L717.38 522.474C716.557 525.552 716.464 526.875 716.969 529.589C717.453 532.193 717.401 533.537 716.724 535.76C716.255 537.323 715.865 539.672 715.844 540.979C715.844 542.287 715.13 545.896 714.292 549.005C713.448 552.109 712.568 556.74 712.365 559.297C711.99 563.859 711.932 563.995 709.307 566.438C707.844 567.807 705.958 569.38 705.146 569.932L703.667 570.938L706.568 570.974C708.453 570.99 710.193 571.453 711.531 572.276L713.594 573.552L716.953 572.13C719.474 571.057 721.24 570.74 724.021 570.828C726.083 570.906 728.828 570.568 730.193 570.083C731.542 569.609 734.021 569.219 735.698 569.219C737.385 569.219 739.661 568.958 740.771 568.641C742.12 568.25 745.271 568.287 750.276 568.75C757.943 569.458 760.943 569.563 764.604 569.245C765.745 569.151 769.891 569.26 773.818 569.484C777.74 569.714 783.089 569.896 785.703 569.891C788.323 569.891 791.427 570.167 792.604 570.51C794.271 571 795.474 570.927 798 570.193C801.234 569.25 804.068 569.51 805.828 570.901C806.464 571.406 817.427 574.63 821.365 575.474C822.417 575.698 824.557 577.266 826.568 579.276C829.797 582.505 829.995 582.865 829.995 585.594C829.995 588.339 829.802 588.651 826.448 591.927C823.177 595.109 822.687 595.375 820.182 595.375C818.687 595.375 816.839 594.964 816.073 594.464C814.052 593.141 811.266 592.396 806.214 591.828C803.76 591.552 799.078 590.927 795.807 590.438C779.76 588.021 767.625 587.349 764.078 588.682C761.417 589.677 754.255 589.641 752.229 588.625C749.12 587.047 746.458 586.927 744.198 588.26C742.531 589.245 741.135 589.484 737.156 589.469C728.63 589.427 723.964 589.76 721.339 590.604C719.38 591.229 718.312 591.266 716.651 590.755C714.969 590.234 713.734 590.292 710.88 591.021C708.62 591.599 706.057 591.828 704.089 591.625C702.073 591.417 699.703 591.641 697.536 592.24C695.661 592.76 692.542 593.375 690.583 593.615C688.62 593.849 685.547 594.453 683.745 594.953C681.948 595.453 678.708 596.125 676.552 596.443C674.036 596.818 671.76 597.604 670.203 598.635C668.458 599.787 666.708 600.339 664.021 600.578C661.953 600.766 659.635 601.323 658.865 601.823C658 602.391 655.526 602.839 652.349 603.005C648.484 603.203 646.594 603.615 644.594 604.677C642.552 605.766 641.182 606.052 638.547 605.932C635.224 605.781 635.068 605.859 632.12 608.609C629.005 611.521 628.828 611.589 624.229 611.708C621.807 611.766 621.047 612.162 617.693 615.057C615.604 616.859 612.687 619.245 611.219 620.354C609.734 621.458 607.453 623.349 606.12 624.542C604.792 625.74 603.354 626.833 602.927 626.974C602.5 627.125 601.937 628.688 601.656 630.469C601.375 632.245 600.609 634.375 599.953 635.198C599.297 636.021 597.651 638.573 596.292 640.859C594.943 643.146 593.307 645.594 592.672 646.297C591.12 648.016 584.849 650.771 581.672 651.13C579.214 651.406 578.969 651.281 575.891 648.208C571.172 643.49 570.828 640.287 574.635 636.693C575.719 635.677 577.125 633.656 577.766 632.203C578.401 630.755 580.036 628.422 581.38 627.026C583.214 625.12 583.917 623.823 584.214 621.839C584.74 618.359 587.37 614.297 590.542 612.068C591.948 611.078 593.318 610.016 593.589 609.703C595.891 607.031 599.026 604.313 601.469 602.875C607.75 599.182 607.26 599.807 606.906 595.922C606.682 593.396 605.974 591.333 604.37 588.458C602.724 585.5 602.125 583.719 602.042 581.464C602.042 579.797 601.63 577.88 601.276 577.203C600.896 576.521 600.432 574.516 600.224 572.745C600.021 570.974 599.068 567.599 598.115 565.25C597.156 562.906 596.391 560.151 596.391 559.13C596.391 558.109 595.958 556.432 595.417 555.406C594.667 553.953 594.536 552.625 594.833 549.464C595.193 545.537 595.156 545.307 593.354 543.073C591.896 541.245 591.406 539.958 591.089 537.005C590.865 534.943 590.344 532.62 589.911 531.839C589.479 531.057 588.62 527.177 588 523.219C586.161 511.49 585.771 509.458 585.062 507.641C584.406 505.953 583.865 503.099 582.792 495.745C582.516 493.75 581.969 491.563 581.615 490.88C581.26 490.198 580.958 487.682 580.958 485.292C580.958 482.38 580.568 479.906 579.776 477.818C579.12 476.094 578.599 473.646 578.599 472.375C578.599 471.005 578 469.016 577.12 467.479C575.901 465.349 575.641 464.089 575.641 460.354C575.641 457.688 575.26 454.943 574.74 453.688C574.234 452.469 573.839 449.74 573.839 447.333C573.839 445.016 573.521 442.531 573.146 441.818C572.771 441.099 572.266 439.583 572.021 438.438C571.797 437.292 571.198 434.885 570.714 433.089C570.021 430.526 569.964 429.021 570.432 426.13C570.974 422.724 570.917 422.229 569.531 419.589C567.656 416 566.292 408.88 565.526 398.708C565.057 392.365 564.682 390.443 563.729 389.104C563.078 388.182 562.531 387.016 562.531 386.521C562.531 384.24 558.703 382.807 557.255 384.547C556.75 385.162 556.88 385.615 557.833 386.479C558.526 387.099 559.427 388.276 559.839 389.094C560.495 390.375 562.057 403.12 562.729 412.578C562.922 414.214 563.312 416.401 563.745 417.443C564.401 419.01 564.417 420.073 563.745 423.682C562.62 429.995 562.771 433.604 564.286 437.141C565.26 439.375 565.484 440.724 565.167 442.146C564.719 444.203 564.568 447.901 564.812 451.813C565.073 456.349 564.51 465.495 563.875 466.677C563.333 467.714 562.807 476.927 562.958 483.026C562.958 484.167 562.958 486.177 563.146 487.484C563.333 491.396 562.656 500.318 562.005 504.13C560.734 511.745 560.062 520.755 560.656 522.297C561.854 525.391 562.042 530.188 561.104 533.24C560.469 535.344 560.302 537.432 560.562 540.495C560.786 543.208 560.75 545.401 560.24 546.453C559.755 547.635 559.719 549.391 560.057 552.5C560.521 556.26 560.448 557.391 559.417 560.526C558.76 562.531 558.104 565.912 557.979 568.037C557.792 570.162 557.583 574.172 557.396 576.953C557.208 579.734 557.005 584.547 556.927 587.651C556.74 594.432 555.995 596.688 549.604 608.995C543.979 619.833 541.771 623.026 539.911 623.026C538.693 623.026 538.427 622.573 537.729 619.458C537.297 617.495 536.776 614.823 536.568 613.516C536.365 612.208 535.823 609.964 535.37 608.531C534.698 606.453 534.656 605.495 535.182 603.818C535.63 602.458 535.745 599.807 535.516 596.318C535.219 591.781 535.328 590.531 536.266 588.469C536.885 587.12 537.672 585.833 538.047 585.609C538.891 585.094 538.927 573.87 538.047 571.005C537.599 569.427 537.693 568.156 538.437 565.662C539.187 563.167 539.411 560.115 539.375 552.88C539.375 544.958 539.562 542.979 540.385 540.969C541.177 539.208 541.302 538.172 540.891 537.099C540.594 536.292 540.479 533.63 540.667 531.177C540.854 528.724 541.135 521.901 541.286 516.016C541.474 509.87 541.901 504.198 542.354 502.693C542.932 500.755 542.99 498.5 542.635 494.073C542.37 490.776 542.276 486.469 542.443 484.51C542.635 482.547 542.854 476.932 542.948 472.026C543.135 466.609 543.437 462.417 543.885 461.344C544.297 460.375 544.656 457.703 544.672 455.401C544.687 453.099 545.104 450.234 545.573 449.037C546.286 447.24 546.302 446.604 545.76 445.469C544.151 442.51 543.448 433.62 543.943 422.385C544.13 419.932 543.755 416.188 543.474 414.063C543.099 411.938 542.557 408.328 542.26 406.037C541.958 403.75 541.453 400.88 541.156 399.662C539.729 393.917 534.161 387.776 529.74 387.089C528.281 386.865 525.714 385.984 524.021 385.135C520.276 383.26 518.099 383.542 517.51 385.984C517.307 386.875 516.609 388.323 516.016 389.193C515.172 390.412 514.76 392.635 514.307 398.708C513.542 408.88 512.182 416 510.307 419.589C508.922 422.224 508.865 422.724 509.406 426.13C509.875 429.016 509.818 430.526 509.125 433.089C508.641 434.885 508.057 437.292 507.812 438.438C507.589 439.578 507.083 441.099 506.693 441.818C506.297 442.526 506 445.01 506 447.333C506 449.74 505.625 452.469 505.099 453.688C504.573 454.943 504.198 457.688 504.198 460.354C504.198 464.089 503.937 465.349 502.719 467.479C501.839 469.016 501.24 471.005 501.24 472.375C501.24 473.646 500.714 476.094 500.057 477.818C499.255 479.906 498.88 482.385 498.88 485.292C498.88 487.682 498.578 490.198 498.224 490.88C497.849 491.563 497.323 493.75 497.026 495.745C495.958 503.099 495.417 505.953 494.755 507.641C494.042 509.458 493.672 511.49 491.818 523.219C491.203 527.177 490.339 531.057 489.911 531.839C489.479 532.62 488.953 534.943 488.729 537.005C488.411 539.958 487.927 541.245 486.464 543.073C484.667 545.307 484.615 545.537 484.984 549.464C485.286 552.625 485.172 553.958 484.406 555.406C483.88 556.432 483.432 558.109 483.432 559.13C483.432 560.151 482.646 562.906 481.708 565.25C480.75 567.599 479.807 570.974 479.594 572.745C479.391 574.516 478.901 576.526 478.547 577.203C478.172 577.885 477.833 579.802 477.781 581.464C477.781 583.719 477.104 585.5 475.448 588.458C473.839 591.333 473.141 593.396 472.911 595.922C472.552 599.807 472.068 599.182 478.349 602.875C480.745 604.287 484.354 607.417 486.339 609.813C486.542 610.063 487.875 611.078 489.271 612.068C492.448 614.297 495.083 618.359 495.604 621.839C495.901 623.823 496.615 625.12 498.443 627.026C499.786 628.422 501.406 630.75 502.052 632.203C502.687 633.656 504.104 635.677 505.182 636.693C508.969 640.266 508.635 643.495 504 648.13C500.302 651.828 498.818 652.057 493.255 649.771H493.391ZM461.583 560.865C461.583 560.193 461.323 559.807 460.984 560.01C460.667 560.214 460.385 560.76 460.385 561.234C460.385 561.708 460.651 562.089 460.984 562.089C461.302 562.089 461.583 561.542 461.583 560.865ZM619.719 561.234C619.719 560.76 619.453 560.208 619.12 560.01C618.797 559.807 618.521 560.198 618.521 560.865C618.521 561.537 618.781 562.089 619.12 562.089C619.453 562.089 619.719 561.703 619.719 561.234ZM238.802 606.297C237.719 605.839 237.885 601.714 239.104 599.573C240.224 597.589 241.667 596.958 244.38 597.266C245.865 597.432 246.104 597.734 246.271 599.615C246.458 601.375 246.083 602.156 244.453 603.885C242.495 605.964 240.271 606.912 238.807 606.297H238.802ZM838.49 606.24C838.005 606.052 836.714 604.969 835.635 603.833C834.026 602.146 833.703 601.37 833.854 599.615C834.047 597.734 834.25 597.432 835.745 597.266C838.458 596.953 839.906 597.583 841.021 599.573C842.349 601.938 842.406 605.818 841.208 606.313C840.141 606.724 839.823 606.714 838.583 606.234L838.49 606.24ZM280.375 565.25C274.984 562.589 273.031 555.458 276.646 551.589C277.26 550.912 278.349 549.234 279.062 547.859C280.484 545.063 280.578 545.333 276.557 540.833C275.323 539.443 273.979 537.568 273.589 536.672C273.198 535.771 272.182 534.203 271.307 533.182C269.792 531.401 264.812 517.573 264.812 515.172C264.812 514.578 264.208 513.339 263.5 512.417C262.729 511.448 262.021 509.474 261.812 507.729C261.047 501.484 259.891 496.88 258.219 493.422C257.266 491.464 256.495 489.359 256.495 488.755C256.495 488.146 255.844 486.865 255.016 485.901C254.214 484.943 253.016 482.438 252.37 480.339C251.708 478.24 250.776 475.724 250.271 474.745C249.766 473.771 249.354 472.052 249.354 470.922C249.354 469.797 248.568 467.271 247.594 465.313C244.583 459.25 243.344 455.328 243.474 452.287C243.474 450.245 243.229 448.839 242.312 447.349C241.604 446.208 241.042 444.365 241.042 443.26C241.042 441.287 238.51 433.438 237.469 432.188C237.172 431.833 236.646 430.219 236.292 428.599C235.88 426.787 234.964 424.958 233.896 423.854C231.547 421.422 229.75 415.969 229.75 411.26C229.75 408 229.547 407.276 228.312 406.151C226.203 404.234 223.411 398.375 222.089 393.073C221.453 390.526 220.63 388.078 220.271 387.635C219.917 387.198 218.964 384.333 218.182 381.276C216.401 374.307 214.219 369.052 212.641 367.948C211.964 367.479 210.969 365.912 210.422 364.469C209.615 362.344 209.542 361.458 210.083 359.828C210.458 358.677 210.661 355.281 210.531 351.901C210.307 345.688 211.057 342.719 212.844 342.719C214.25 342.719 219.464 345.542 219.833 346.5C220.021 346.974 220.974 347.542 221.964 347.76C224.333 348.281 227.172 351.589 227.958 354.75C228.687 357.693 231.406 363.099 234.365 367.5C236.104 370.099 236.51 371.323 236.922 375.391C237.37 379.865 237.578 380.391 239.823 382.943C242.156 385.594 244.615 391.734 244.615 394.901C244.615 395.578 245.531 398.031 246.641 400.359C247.766 402.688 248.859 405.984 249.094 407.688C249.318 409.391 250.161 412.063 250.948 413.615C251.734 415.172 252.542 417.714 252.729 419.266C252.932 420.849 253.833 423.234 254.797 424.714C255.807 426.276 256.5 428.146 256.5 429.328C256.5 430.422 257.266 432.719 258.224 434.427C259.161 436.141 260.099 438.813 260.292 440.365C260.479 441.922 261.193 444.25 261.844 445.547C262.5 446.839 263.047 448.412 263.047 449.037C263.047 449.667 264 451.75 265.156 453.667C267.042 456.797 267.245 457.537 267.104 460.807C266.917 464.25 267.104 464.583 269.068 466.807C270.901 468.828 271.292 469.802 271.88 473.755C272.255 476.287 272.87 478.927 273.245 479.635L273.937 480.917L274.5 479.443C274.797 478.63 275.568 476.896 276.182 475.589C276.802 474.281 277.307 472.141 277.286 470.833C277.286 469.526 277.495 463.906 277.755 458.349C278.13 450.823 278.526 447.635 279.307 445.865C279.964 444.375 280.224 442.797 280.021 441.63C279.833 440.604 280.021 439.057 280.286 438.182C281.031 436.214 281.667 426.75 281.521 419.927C281.521 416.396 281.708 414.109 282.344 412.573C283.448 409.943 283.505 407.807 282.625 404.255C282.062 402.037 282.156 401.031 283.26 397.469C284.234 394.318 284.609 391.375 284.76 385.563C284.948 381.318 285.151 377.526 285.396 377.135C285.641 376.745 286.068 373.594 286.37 370.125C286.911 363.708 286.948 362.927 286.854 355.349C286.854 352.979 287.078 350.526 287.417 349.896C288.182 348.474 288.687 332.828 288.016 331.089C287.734 330.37 287.828 325.953 288.406 320.958C288.896 316.089 289.344 310.5 289.437 308.536C289.661 303.026 291.422 294.589 293.026 291.297C293.833 289.661 294.771 287.656 295.135 286.839C298.578 279.021 301.568 277.635 303.375 283.016C303.807 284.286 304.536 285.75 305.005 286.276C305.469 286.802 306.146 288.818 306.5 290.755C306.839 292.688 307.531 295.563 308.052 297.146C308.578 298.771 308.823 300.802 308.615 301.823C308.411 302.828 308.615 304.755 309.12 306.167C309.792 308.135 309.833 309.214 309.344 311C308.932 312.458 308.854 316.052 309.099 320.88C309.422 327.073 309.302 329.042 308.521 331.583C307.974 333.297 307.281 335.594 306.948 336.693C306.307 338.813 306.646 344.151 307.792 350.328C308.391 353.589 308.349 354.479 307.396 357.287C306.573 359.688 306.406 361.396 306.667 364.031C306.891 366.24 306.667 368.75 306.234 370.745C305.432 373.948 304.589 383.781 304.401 392.063C304.401 394.516 304.099 397.224 303.854 398.089C303.609 398.948 303.667 400.651 304.042 401.875C304.531 403.604 304.453 404.646 303.745 406.552C303.24 407.901 302.604 410.615 302.318 412.578C302.036 414.542 301.568 416.828 301.25 417.662C300.932 418.49 300.484 420.932 300.26 423.083C299.922 426.287 300.036 427.276 300.875 428.573C301.719 429.87 301.833 430.807 301.458 433.844C301.214 435.88 300.953 439.682 300.875 442.297C300.875 445.182 300.37 447.969 299.75 449.38C299.094 450.906 298.667 453.859 298.536 458C298.349 462.354 297.937 465.391 297.073 467.859C296.193 470.401 295.859 472.708 295.932 475.885C296.12 481.802 295.089 489.448 293.958 491.552C293.245 492.88 293.172 493.74 293.635 495.479C294.125 497.333 293.995 498.396 292.792 501.755C291.182 506.276 289.49 507.943 285.896 508.537C283.63 508.906 283.63 508.912 283.839 511.51C284.026 512.938 284.682 515.813 285.464 517.896C286.255 519.984 286.891 522.401 286.891 523.271C286.891 524.141 287.411 525.406 288.047 526.083C289.812 527.964 292.844 535.583 292.844 538.156C292.844 539.417 293.104 540.714 293.443 541.037C293.76 541.365 294.437 544.292 294.937 547.547C296.755 559.375 296.719 558.552 295.333 558.917C294.641 559.099 293.391 560.417 292.552 561.849C291.708 563.281 290.245 564.859 289.292 565.354C287.036 566.521 282.958 566.474 280.474 565.24L280.375 565.25ZM790.802 565.323C789.922 564.844 788.5 563.276 787.661 561.844C786.818 560.417 785.573 559.094 784.885 558.917C783.5 558.547 783.458 559.375 785.276 547.547C785.781 544.292 786.458 541.365 786.776 541.037C787.094 540.714 787.375 539.417 787.375 538.156C787.375 535.583 790.401 527.964 792.161 526.083C792.802 525.406 793.323 524.141 793.323 523.271C793.323 522.401 793.958 519.984 794.75 517.896C795.536 515.813 796.266 512.938 796.375 511.51C796.583 508.912 796.583 508.906 794.318 508.537C790.724 507.943 789.026 506.276 787.417 501.755C786.219 498.396 786.089 497.333 786.573 495.479C787.042 493.74 786.969 492.88 786.255 491.552C785.115 489.448 784.156 481.802 784.281 475.885C784.281 472.708 784.016 470.401 783.141 467.859C782.276 465.391 781.828 462.354 781.677 458C781.49 453.859 781.115 450.906 780.464 449.38C779.844 447.969 779.411 445.182 779.339 442.297C779.339 439.682 779.021 435.88 778.755 433.844C778.38 430.807 778.495 429.87 779.339 428.573C780.182 427.276 780.292 426.287 779.953 423.083C779.729 420.932 779.281 418.49 778.964 417.662C778.641 416.828 778.156 414.542 777.896 412.578C777.615 410.615 776.979 407.901 776.469 406.552C775.755 404.646 775.682 403.604 776.172 401.875C776.505 400.651 776.583 398.948 776.359 398.089C776.115 397.224 775.87 394.516 775.812 392.063C775.625 383.781 774.802 373.948 773.979 370.745C773.474 368.75 773.323 366.24 773.547 364.031C773.828 361.396 773.547 359.688 772.818 357.287C771.859 354.479 771.802 353.589 772.422 350.328C773.562 344.151 773.901 338.813 773.266 336.693C772.948 335.594 772.24 333.297 771.693 331.583C770.891 329.042 770.797 327.073 771.115 320.88C771.359 316.052 771.302 312.458 770.87 311C770.365 309.214 770.422 308.135 771.094 306.167C771.583 304.755 771.786 302.828 771.599 301.823C771.396 300.802 771.599 298.771 772.161 297.146C772.667 295.563 773.359 292.688 773.714 290.755C774.047 288.818 774.724 286.802 775.208 286.276C775.677 285.75 776.427 284.286 776.839 283.016C778.635 277.635 781.635 279.021 785.078 286.839C785.432 287.656 786.385 289.661 787.187 291.297C788.797 294.589 790.547 303.026 790.776 308.536C790.776 310.5 791.318 316.089 791.807 320.958C792.292 325.953 792.479 330.37 792.198 331.089C791.542 332.828 792.01 348.474 792.797 349.896C793.135 350.526 793.38 352.979 793.359 355.349C793.172 362.927 793.359 363.708 793.849 370.125C794.146 373.594 794.594 376.745 794.818 377.135C795.062 377.526 795.344 381.318 795.453 385.563C795.641 391.375 795.979 394.318 796.953 397.469C798.057 401.031 798.151 402.037 797.589 404.255C796.687 407.807 796.766 409.943 797.87 412.573C798.505 414.109 798.771 416.396 798.693 419.927C798.505 426.75 799.182 436.214 799.927 438.182C800.266 439.057 800.375 440.604 800.193 441.63C799.969 442.797 800.193 444.37 800.906 445.865C801.693 447.635 802.083 450.823 802.458 458.349C802.719 463.906 802.943 469.526 802.927 470.833C802.927 472.141 803.411 474.281 804.031 475.589C804.646 476.896 805.417 478.63 805.714 479.443L806.276 480.917L806.969 479.635C807.344 478.932 807.958 476.287 808.333 473.755C808.917 469.802 809.307 468.828 811.146 466.807C813.156 464.583 813.26 464.25 813.109 460.807C812.922 457.537 813.109 456.797 815.057 453.667C816.219 451.75 817.167 449.667 817.167 449.037C817.167 448.412 817.714 446.839 818.37 445.547C819.026 444.25 819.734 441.922 819.922 440.365C820.125 438.813 821.047 436.141 821.99 434.427C822.927 432.719 823.693 430.422 823.693 429.328C823.693 428.146 824.385 426.276 825.401 424.714C826.354 423.234 827.271 420.849 827.469 419.266C827.672 417.714 828.479 415.172 829.25 413.615C830.036 412.057 830.859 409.396 831.099 407.688C831.328 405.984 832.432 402.688 833.552 400.359C834.677 398.031 835.578 395.573 835.578 394.901C835.578 391.734 838.042 385.594 840.375 382.943C842.625 380.391 842.823 379.865 843.276 375.391C843.687 371.323 844.078 370.099 845.833 367.5C848.792 363.099 851.505 357.693 852.24 354.75C853.026 351.589 855.859 348.281 858.234 347.76C859.224 347.542 860.177 346.974 860.365 346.5C860.74 345.542 865.943 342.719 867.349 342.719C869.146 342.719 869.885 345.688 869.661 351.901C869.474 355.281 869.661 358.677 870.109 359.828C870.651 361.458 870.578 362.344 869.776 364.469C869.229 365.912 868.219 367.479 867.557 367.948C865.984 369.052 863.792 374.307 862.01 381.276C861.224 384.333 860.286 387.198 859.922 387.635C859.547 388.078 858.745 390.526 858.109 393.073C856.781 398.375 853.995 404.234 851.885 406.151C850.651 407.276 850.443 408 850.443 411.26C850.443 415.969 848.646 421.422 846.302 423.854C845.234 424.958 844.312 426.787 843.906 428.599C843.552 430.219 843.005 431.833 842.724 432.188C841.698 433.438 839.156 441.287 839.156 443.26C839.156 444.365 838.573 446.208 837.88 447.349C836.964 448.839 836.646 450.245 836.719 452.287C836.911 455.328 835.615 459.25 832.604 465.313C831.63 467.271 830.844 469.797 830.844 470.922C830.844 472.052 830.432 473.771 829.927 474.745C829.422 475.724 828.484 478.24 827.828 480.339C827.172 482.438 825.995 484.943 825.177 485.901C824.375 486.865 823.698 488.146 823.698 488.755C823.698 489.359 822.932 491.464 821.974 493.422C820.307 496.875 819.151 501.484 818.38 507.729C818.156 509.474 817.448 511.448 816.698 512.417C815.964 513.339 815.385 514.578 815.385 515.172C815.385 517.573 810.396 531.401 808.885 533.182C808.026 534.203 806.995 535.771 806.609 536.672C806.219 537.573 804.885 539.443 803.641 540.833C799.615 545.333 799.714 545.063 801.135 547.859C801.828 549.234 802.937 550.912 803.557 551.589C808.573 556.969 803.167 566.297 795.083 566.224C793.661 566.214 791.776 565.807 790.885 565.323H790.802ZM367.776 484.401C365.505 483.281 364.406 481.432 363.792 477.667C363.547 476.198 362.911 474.193 362.385 473.208C361.771 472.068 361.375 469.714 361.281 466.672C360.906 453.401 360.625 449.224 360.01 447.052C359.203 444.188 359.13 439.63 359.823 437.693C360.177 436.76 360.083 435.203 359.542 433.12C359.094 431.38 358.849 429.729 359.016 429.458C359.203 429.188 359.562 425.01 359.844 420.172C360.255 413.063 360.198 411 359.521 409.38C358.453 406.818 358.453 403.688 359.521 399.516C360.344 396.323 360.328 396.12 358.906 393.38C357.536 390.76 357.479 390.24 358.005 386.537C358.323 384.219 358.365 381.781 358.005 380.745C356.734 376.266 356.172 341.849 357.333 338.969C358.307 336.568 358.177 334.927 356.792 331.776C355.651 329.188 355.63 328.807 356.432 325.906C357.031 323.74 357.167 321.906 356.828 319.833C356.562 318.198 356.172 315.63 355.927 314.125C355.682 312.573 355.74 310.073 356.151 308.344C356.641 306.094 356.62 304.865 356.151 303.646C355.776 302.74 355.401 299.458 355.328 296.349C355.328 293.245 354.859 289.615 354.448 288.292C353.531 285.365 354.036 283.068 355.984 281.115C357.875 279.219 357.818 278.693 355.703 278.229C354.745 278.016 353.641 277.464 353.255 276.995C352.859 276.531 351.516 275.88 350.24 275.547C348.969 275.219 346.87 274.672 345.568 274.333C344.219 273.984 341.802 272.505 339.979 270.917C336.495 267.885 333.328 266.146 328.531 264.625C324.359 263.297 323.141 263.396 320.969 265.229C317.349 268.286 313.599 269.583 308.401 269.583C305.781 269.583 303.375 269.38 303.047 269.141C301.458 267.969 299.781 263.635 299.781 260.651C299.781 257.198 299.01 258.182 307.833 250.391C312.948 245.875 318.927 243.719 324.911 244.229C329.474 244.615 335.99 246.339 339.901 248.193C341.214 248.813 343.344 249.458 344.646 249.63C347.698 250.036 349.719 251.542 351.203 254.51C351.859 255.823 352.979 257.635 353.703 258.536C354.432 259.443 355.198 260.76 355.427 261.469C355.651 262.177 356.453 263.516 357.245 264.438C358.255 265.656 358.646 266.854 358.646 268.786C358.646 270.813 360.182 275.979 361.328 277.771C361.328 277.849 362.286 277.625 363.328 277.26C365.781 276.406 367.818 277.224 370.937 280.313C374.401 283.74 375.531 287.797 375.422 296.349C375.422 303.349 376.229 317.286 377.031 321.698C377.312 323.24 377.219 325.578 376.698 327.943C376.078 330.927 376.042 332.745 376.51 336.635C377.031 340.49 377.01 342.042 376.51 343.844C375.927 345.573 375.906 346.625 376.318 348.141C377.703 352.37 378.156 358.531 377.594 365.052C377.219 369.406 377.219 371.714 377.594 372.12C378.661 373.182 379.318 371.182 379.333 366.922C379.333 364.703 379.745 361.932 380.234 360.755C380.724 359.583 381.135 357.302 381.135 355.693C381.135 354.083 381.562 351.938 382.089 350.932C383.417 348.375 384.526 344.229 385.01 340.068C385.234 338.125 386.245 334.38 387.255 331.745C388.943 327.354 389.094 326.453 388.964 320.719C388.776 314.547 388.776 314.438 390.865 311.099C395.135 304.036 398.896 300.094 401.885 299.536C403.062 299.313 405.016 298.349 406.208 297.391C407.932 296.005 409.146 295.589 412.151 295.339C414.229 295.167 416.812 294.521 417.896 293.901C420.557 292.38 422.234 292.484 427.953 294.505C431.776 295.859 433.677 296.974 436.776 299.703C441.266 303.656 441.792 304.646 441.792 309.188C441.792 310.974 442.203 313.396 442.687 314.568C444.297 318.432 443.547 323.094 441.323 323.099C440.76 323.099 438.026 322.38 435.25 321.5C430.875 320.109 429.797 319.479 427.224 316.818C424.708 314.224 423.823 313.693 421.484 313.385C419.167 313.089 418.135 313.313 415.167 314.802C411.875 316.448 411.589 316.755 411.229 319.005C411.021 320.344 410.406 322.281 409.859 323.307C409.318 324.339 408.682 326.25 408.437 327.557C408.193 328.865 407.594 331.005 407.089 332.313C406.583 333.62 406.151 336.099 406.151 337.823C406.141 339.547 405.495 342.781 404.708 345.021C403.922 347.255 403.417 349.76 403.568 350.589C403.76 351.427 403.307 353.349 402.615 354.912C401.922 356.464 401.359 358.563 401.359 359.583C401.359 362.969 399.672 370.912 398.37 373.849C397.531 375.755 396.911 378.865 396.557 382.964C396.125 387.88 395.714 389.719 394.536 391.714C393.432 393.604 393.057 395.094 393.057 397.604C393.057 399.453 392.552 402.51 391.932 404.391C391.312 406.271 390.51 408.917 390.151 410.271C389.198 413.766 385.505 417.396 382.25 418.042L379.682 418.557L379.667 424.479C379.667 427.734 379.891 433.162 380.193 436.531C380.583 440.896 380.547 443.568 380.005 445.781C379.427 448.391 379.458 449.26 380.229 451.115C380.734 452.333 381.146 454.594 381.146 456.135C381.146 464.969 381.578 472.766 382.193 473.906C382.589 474.62 382.906 476.281 382.906 477.589C382.906 481.26 381.167 482.828 375.547 484.224C369.953 485.62 370.042 485.615 367.568 484.396L367.776 484.401ZM703.839 484.167C698.781 482.854 697.005 481.146 697.005 477.599C697.005 476.287 697.323 474.63 697.714 473.917C698.333 472.776 698.802 464.979 698.766 456.141C698.766 454.599 699.177 452.344 699.682 451.125C700.448 449.271 700.484 448.396 699.906 445.792C699.417 443.573 699.359 440.901 699.714 436.542C700.016 433.167 700.26 427.745 700.24 424.484L700.229 418.563L697.656 418.052C694.401 417.406 690.708 413.771 689.755 410.276C689.38 408.927 688.578 406.281 687.958 404.396C687.344 402.516 686.839 399.464 686.839 397.615C686.839 395.099 686.458 393.609 685.359 391.724C684.198 389.729 683.766 387.885 683.333 382.974C682.979 378.875 682.365 375.76 681.5 373.854C680.187 370.917 678.536 362.979 678.516 359.594C678.516 358.573 677.953 356.469 677.26 354.922C676.568 353.359 676.135 351.432 676.302 350.599C676.49 349.771 675.948 347.26 675.182 345.026C674.391 342.792 673.74 339.552 673.74 337.828C673.729 336.104 673.307 333.625 672.802 332.318C672.297 331.01 671.682 328.87 671.453 327.563C671.214 326.255 670.573 324.344 670.031 323.318C669.49 322.286 668.87 320.354 668.661 319.016C668.307 316.76 668.005 316.453 664.724 314.813C661.755 313.328 660.729 313.094 658.411 313.396C656.073 313.698 655.182 314.229 652.672 316.828C650.099 319.484 649.016 320.115 644.646 321.505C641.865 322.391 639.13 323.109 638.573 323.109C636.344 323.109 635.599 318.438 637.203 314.578C637.693 313.401 638.104 310.979 638.104 309.193C638.104 304.656 638.63 303.661 643.12 299.714C646.224 296.979 648.12 295.865 651.948 294.51C657.661 292.49 659.339 292.391 662 293.906C663.083 294.526 665.667 295.172 667.74 295.344C670.745 295.594 671.964 296.016 673.687 297.401C674.885 298.359 676.828 299.323 678.016 299.542C681 300.104 684.76 304.047 689.031 311.109C691.052 314.448 691.078 314.557 690.932 320.729C690.745 326.464 690.932 327.359 692.635 331.755C693.646 334.385 694.656 338.13 694.885 340.078C695.37 344.234 696.479 348.38 697.807 350.943C698.328 351.948 698.74 354.089 698.74 355.698C698.74 357.313 699.151 359.589 699.641 360.766C700.13 361.938 700.542 364.714 700.542 366.932C700.542 371.188 701.214 373.188 702.281 372.13C702.693 371.719 702.714 369.412 702.281 365.057C701.703 358.537 702.094 352.38 703.552 348.151C704.042 346.635 704.021 345.583 703.365 343.849C702.766 342.052 702.75 340.5 703.365 336.641C703.891 332.75 703.87 330.938 703.177 327.948C702.693 325.589 702.562 323.25 702.844 321.708C703.667 317.297 704.547 303.354 704.453 296.354C704.266 287.802 705.479 283.745 708.932 280.323C712.057 277.229 714.089 276.411 716.547 277.271C717.594 277.63 718.49 277.865 718.542 277.781C719.682 275.99 721.224 270.823 721.224 268.797C721.224 266.859 721.615 265.667 722.625 264.448C723.396 263.521 724.219 262.188 724.443 261.479C724.667 260.771 725.437 259.448 726.167 258.547C726.896 257.641 728.021 255.833 728.667 254.521C730.146 251.552 732.172 250.047 735.224 249.641C736.516 249.474 738.656 248.818 739.969 248.203C743.88 246.344 750.391 244.625 754.958 244.234C760.943 243.724 766.922 245.885 772.036 250.396C780.865 258.188 780.089 257.208 780.089 260.661C780.089 263.641 778.422 267.974 776.823 269.151C776.484 269.391 774.089 269.589 771.469 269.589C766.271 269.589 762.521 268.297 758.901 265.24C756.729 263.406 755.51 263.307 751.339 264.63C746.542 266.156 743.375 267.896 739.891 270.922C738.115 272.469 735.672 273.99 734.453 274.302C733.234 274.62 731.13 275.167 729.776 275.516C728.427 275.87 727.005 276.536 726.615 277.005C726.224 277.469 725.12 278.026 724.167 278.234C722.042 278.703 721.995 279.229 723.885 281.12C725.844 283.078 726.339 285.375 725.422 288.297C725.01 289.625 724.62 293.255 724.542 296.359C724.542 299.464 724.094 302.75 723.719 303.656C723.214 304.875 723.214 306.099 723.719 308.354C724.094 310.083 724.187 312.583 723.943 314.135C723.698 315.641 723.307 318.208 723.042 319.844C722.724 321.917 722.839 323.75 723.437 325.917C724.24 328.818 724.224 329.193 723.078 331.786C721.698 334.938 721.562 336.578 722.536 338.974C723.698 341.854 723.151 376.276 721.865 380.75C721.562 381.792 721.583 384.229 721.865 386.547C722.391 390.245 722.312 390.766 720.964 393.385C719.542 396.13 719.521 396.333 720.349 399.526C721.432 403.693 721.432 406.828 720.349 409.391C719.672 411.01 719.599 413.073 720.026 420.182C720.307 425.016 720.682 429.193 720.849 429.469C721.036 429.74 720.849 431.385 720.328 433.125C719.786 435.214 719.693 436.771 720.047 437.703C720.781 439.641 720.719 444.193 719.859 447.063C719.245 449.234 718.979 453.412 718.589 466.682C718.589 469.724 718.099 472.078 717.484 473.219C716.958 474.198 716.323 476.208 716.078 477.677C715.464 481.49 714.354 483.323 712 484.432C709.557 485.594 708.984 485.573 703.594 484.177L703.839 484.167ZM643.344 218.724C643.099 218.469 639.651 218.182 635.687 218.083C629.245 217.917 628.062 217.719 624.547 216.167C622.38 215.214 619.349 213.984 617.802 213.438C616.266 212.891 614.359 211.682 613.578 210.76C612.792 209.833 610.984 208.479 609.547 207.75C606.703 206.307 603.526 203.99 599.76 200.609C598.432 199.417 595.839 197.474 594.005 196.302C590.427 194.01 589.568 192.854 588.557 188.938C588.109 187.172 587.323 186.047 585.891 185.073C584.766 184.318 583.245 182.495 582.484 181.021C580.203 176.604 575.297 164.859 574.531 162C574.141 160.531 572.927 158.344 571.844 157.141C570.047 155.146 568.62 151.807 568.594 149.516C568.578 148.224 566.411 141.5 565.344 139.443C564.839 138.474 564.427 137.188 564.427 136.578C564.427 135.969 564.031 134.953 563.562 134.318C562.74 133.214 562.609 133.276 560.25 135.839C557.255 139.099 555.797 141.849 555.276 145.245C554.698 149.021 551.776 155.036 549.797 156.536C547.677 158.146 543.667 163.552 541.302 167.995C540.328 169.818 538.51 172.161 537.266 173.193C530.125 179.109 521.276 187.708 517.891 192.021C515.521 195.036 511.984 197.656 510.281 197.661C509.776 197.661 507.479 199.073 505.203 200.786C500.698 204.182 496.724 206.161 488.922 208.891C477.849 212.766 475.797 213.271 472.776 212.87C470.828 212.609 469.005 212.776 467.193 213.401C465.125 214.099 463.906 214.177 461.995 213.734C460.625 213.411 456.417 213.026 452.656 212.87C443.38 212.495 438.677 211.682 436.094 210.005C432.953 207.964 423.151 204.208 420.953 204.203C418.807 204.203 416.458 202.823 414.646 200.521C413.974 199.656 412.641 198.776 411.708 198.573C409.396 198.063 402.375 191.969 400.75 189.063C399.344 186.536 395.161 183.026 390.828 180.719C386.849 178.604 382.682 174.411 381.005 170.823C379.354 167.297 376.37 163.354 373.578 161C372.568 160.156 371.104 158.193 370.318 156.641C369.531 155.083 367.771 152.927 366.401 151.849C362.88 149.057 359.12 143.339 356.016 136.047C355.151 134.036 353.703 131.667 352.786 130.786C351.25 129.328 351.083 129.281 350.781 130.286C350.594 130.891 350.312 133.792 350.146 136.745C349.844 142.271 348.682 148.359 347.5 150.557C347.125 151.25 346.828 153.5 346.828 155.568C346.828 158.313 346.505 159.802 345.646 161.104C344.974 162.135 344.469 163.896 344.469 165.276C344.469 166.589 343.922 168.594 343.271 169.734C342.609 170.875 340.891 174.109 339.437 176.922C336.057 183.474 330.333 191.073 327.234 193.125C325.906 194.005 323.359 196.047 321.573 197.661C319.792 199.276 317.323 201.146 316.083 201.813C314.849 202.484 312.615 203.911 311.115 204.995C307.036 207.922 302.396 209.198 297.318 208.771C295.021 208.578 291.828 208.698 290.219 209.047C284.073 210.365 280.969 208.464 277.297 201.125C273.818 194.172 274.26 189.016 278.568 186.396C280.49 185.224 284.391 184.969 296.766 185.188C298.432 185.224 299.901 184.818 301.021 184.021C301.958 183.349 302.891 182.802 303.094 182.802C303.297 182.802 305.323 181.698 307.594 180.344C310.703 178.49 311.87 177.422 312.339 176.01C312.672 174.979 314.422 171.927 316.219 169.229C318.5 165.807 319.484 163.74 319.484 162.396C319.484 161.333 320.026 159.406 320.698 158.109C321.375 156.813 322.307 153.078 322.797 149.807C323.281 146.542 324.052 142.391 324.5 140.594C326.906 130.927 327.234 128.62 327.307 120.682C327.307 116.104 327.083 111.083 326.708 109.526C326.333 107.953 326.182 105.286 326.385 103.526C326.63 101.469 326.573 99.875 326.031 98.9844C325.318 97.6563 324.307 88.2083 323.948 79.6615C323.948 77.3698 323.464 74.6979 323.068 73.7136C322.677 72.7344 322.245 70.0573 322.099 67.7708C321.906 65.2292 321.349 62.5938 320.578 61.0052C319.198 58.1458 319.12 57.2344 319.792 51.125C320.615 43.6146 322.927 41.3229 329.651 41.3177C332.833 41.3177 334.25 41.6563 337.203 43.1302C341.401 45.2292 343.078 47.474 343.672 51.776C343.896 53.3646 344.531 55.4688 345.094 56.4583C345.656 57.4479 346.312 59.4635 346.536 60.9323C346.76 62.4063 347.286 64.151 347.714 64.8125C348.781 66.5052 352.193 75.1146 352.193 76.125C352.193 77.8229 354.797 85.0469 355.828 86.2083C357.135 87.6823 358.729 91.4011 358.729 92.9844C358.729 93.6354 359.516 94.9115 360.469 95.8281C362.896 98.1406 366.734 105.167 368.589 110.693C370.63 116.776 371.432 118.255 373.505 119.734C375.229 120.953 377.151 124.734 377.151 126.88C377.151 127.495 378.891 129.74 381.01 131.859C383.135 133.984 385.375 136.885 385.99 138.307C387.792 142.464 393.651 149.427 397.583 152.078C398.464 152.677 400.016 154.63 401.026 156.427C402.229 158.536 404.292 160.839 406.88 162.932C409.083 164.714 411.573 167.203 412.406 168.458C413.568 170.214 414.521 170.901 416.5 171.401C418.125 171.813 419.833 172.839 421.151 174.214C422.292 175.406 424.656 177.021 426.406 177.802C428.219 178.609 430.656 180.391 432.068 181.927C434.12 184.167 435.167 184.781 438.104 185.479C440.057 185.948 442.995 186.349 444.625 186.37C446.255 186.391 448.271 186.797 449.083 187.26C450.135 187.865 452.63 188.115 457.578 188.13C462.417 188.146 465.245 188.427 466.719 189.047C468.771 189.901 469.052 189.859 474.12 187.828C477.021 186.672 480.75 185.563 482.417 185.365C485.583 184.99 490.734 182.12 493.865 178.99C494.745 178.109 496.38 177.005 497.495 176.542C498.599 176.073 500.104 174.875 500.818 173.875C501.526 172.875 503.625 170.943 505.474 169.578C510.099 166.172 514.979 160.958 519.812 154.266C522.062 151.161 524.734 148.13 525.75 147.531C526.766 146.938 528.245 145.464 529.026 144.266C529.818 143.063 531.099 141.49 531.891 140.76C532.922 139.823 533.448 138.557 533.693 136.359C533.896 134.661 534.682 132.313 535.432 131.141C537.115 128.516 543.599 115.438 543.599 114.646C543.599 114.333 544.406 112.813 545.38 111.266C546.693 109.214 547.161 107.729 547.161 105.776C547.161 102.693 548.172 99.974 550.651 96.4323C551.792 94.8021 552.974 91.6823 554.042 87.5104C555.766 80.7761 555.745 79.0729 553.854 65.5C553.667 64.2552 553.839 62.1146 554.208 60.7448C555.125 57.276 556.172 44.526 556.417 33.5885C556.865 13.8073 558.286 6.97917 563.005 2.07813L565.01 0L572.104 0.109375C582.594 0.276041 583.969 1.14583 586.417 9.20833C587.5 12.7656 587.63 14.0938 587.203 16.5833C586.901 18.25 586.865 21.4896 587.016 23.776C588.156 35.0885 588.193 36.4896 587.448 38.7344C587.016 40.0156 586.714 43.2292 586.771 46.0469C586.771 50.2708 586.583 51.5885 585.406 54.2917C584.375 56.5469 583.927 58.5469 583.927 60.9844C583.927 63.0938 583.437 65.6823 582.687 67.5833C581.714 70.0521 581.531 71.4115 581.844 74.0521C582.167 76.8021 582.031 78.2136 580.667 81.9479C579.167 86.2917 579.115 86.7917 579.635 93.0156C580.104 98.7448 580.385 99.8333 581.901 102.078C583.417 104.323 583.625 105.161 583.641 109.089C583.641 111.677 584 114.146 584.464 114.979C585.01 115.943 585.156 117.557 584.953 119.88C584.693 122.719 584.766 123.604 585.797 124.807C587.672 127.193 589.349 132.797 589.828 138.302C590.224 142.76 590.521 143.786 592.161 146C593.193 147.406 594.042 148.766 594.042 149.016C594.042 149.271 594.714 150.938 595.521 152.724C596.344 154.51 597 156.13 597 156.323C597 156.516 597.937 158.036 599.078 159.698C600.406 161.641 601.161 163.417 601.161 164.667C601.161 165.734 601.594 166.953 602.099 167.38C603.297 168.38 608.646 176.323 609.115 177.823C609.677 179.599 616.151 184.984 618.286 185.453C619.333 185.682 621.547 186.885 623.203 188.13C625.292 189.703 627.068 190.5 629.036 190.76C630.63 190.974 633.115 191.927 634.729 192.953C637.224 194.536 637.797 194.682 639.198 194.104C640.078 193.734 642.255 193.474 644.021 193.516C645.781 193.552 650.719 193.458 654.979 193.313C663.276 193.005 662.125 193.328 673.552 188.083C676.104 186.911 678.234 186.37 680.302 186.37C682.974 186.37 683.625 186.099 686.021 183.99C687.521 182.682 689.958 181.24 691.464 180.786C692.958 180.333 697.542 178.375 701.635 176.438C707.208 173.786 709.286 172.495 709.937 171.26C711.344 168.604 713.865 166.891 717.458 166.141C720.911 165.427 724.036 163.109 731.359 155.844C732.839 154.385 734.875 152.771 735.906 152.26C736.932 151.745 739.823 149.292 742.323 146.813C747.375 141.792 748.297 141.297 756.177 139.375C760.891 138.224 762.016 138.13 764.036 138.74C767.88 139.891 769.453 142.536 770.094 148.953C770.62 154.078 770.542 154.573 768.823 159.75C767.828 162.734 767.026 166.411 767.026 167.922C767.026 169.427 766.635 172.203 766.125 174.083C765.302 177.255 765.323 177.745 766.37 180.896C768.151 186.182 768.391 188.432 767.568 191.651C766.911 194.198 766.953 195.125 767.849 198.406C769.047 202.823 768.505 207.307 766.687 208C765.526 208.443 762.776 207.38 761.661 206.057C761.177 205.474 759.51 204.531 757.969 203.964C755.198 202.948 752.151 200.115 752.151 198.563C752.151 198.125 751.214 197.182 750.052 196.469C748.891 195.755 747.396 194.057 746.719 192.703C746.047 191.344 744.667 189.375 743.667 188.323C742.208 186.781 741.792 185.766 741.573 183.094L741.292 179.781L738.547 180.135C733.375 180.807 733.281 180.865 731.734 184.245C730.911 186.057 729.521 187.932 728.573 188.547C727.635 189.141 725.495 190.703 723.797 192.016C716.354 197.781 711.797 200.047 707.635 200.047C706.01 200.047 705.193 200.542 703.312 202.677C700.578 205.781 696.698 207.5 693.568 206.995C691.521 206.661 688.167 207.688 684.375 209.802C683.552 210.255 681.766 210.932 680.391 211.297C679.021 211.667 677.099 212.63 676.135 213.448C673.224 215.896 670.38 216.807 667.234 216.307C663.88 215.771 663.448 215.833 659.823 217.344C657.88 218.156 655.792 218.505 653.281 218.443C651.255 218.391 648.26 218.536 646.625 218.771C644.995 219 643.448 218.979 643.203 218.734L643.344 218.724Z" fill="#3C3738"/>
</g>
</g>
<defs>
<clipPath id="clip0_228_161">
<rect width="1080" height="1080" fill="white"/>
</clipPath>
</defs>
</svg>
