<svg xmlns="http://www.w3.org/2000/svg" xmlns:xlink="http://www.w3.org/1999/xlink" width="1080" zoomAndPan="magnify" viewBox="0 0 810 809.999993" height="1080" preserveAspectRatio="xMidYMid meet" version="1.0"><rect x="-81" width="972" fill="#ffffff" y="-80.999999" height="971.999992" fill-opacity="1"/><rect x="-81" width="972" fill="#ffffff" y="-80.999999" height="971.999992" fill-opacity="1"/><path fill="#3c3738" d="M 264.503906 809.691406 C 263.871094 809.558594 262.355469 809.070312 261.136719 808.589844 C 259.066406 807.773438 258.777344 807.765625 256.742188 808.457031 C 252.355469 809.953125 249.15625 808.546875 246.804688 804.070312 C 242.230469 795.363281 246.15625 788.765625 256.660156 787.484375 C 258.773438 787.226562 261.941406 786.6875 263.699219 786.285156 C 265.644531 785.84375 267.6875 785.675781 268.90625 785.859375 C 270.722656 786.132812 271.097656 786.007812 272.875 784.515625 C 275.003906 782.742188 277.191406 782.105469 279.75 782.519531 C 280.695312 782.675781 282.046875 782.507812 282.992188 782.109375 C 283.9375 781.714844 286.144531 781.433594 288.304688 781.433594 C 291.691406 781.433594 292.152344 781.316406 293.734375 780.058594 C 295.78125 778.433594 297.601562 777.957031 300.261719 778.34375 C 303.246094 778.777344 307.351562 777.921875 309.257812 776.46875 C 310.5 775.519531 311.71875 775.113281 314.066406 774.855469 C 317.335938 774.5 321.496094 773.75 324.707031 772.929688 C 326.746094 772.410156 330.691406 771.796875 336.191406 771.140625 C 340.9375 770.574219 344.945312 769.53125 345.988281 768.585938 C 347.300781 767.394531 353.839844 765.03125 355.8125 765.03125 C 357.527344 765.03125 357.859375 764.855469 364.003906 760.695312 C 365.390625 759.757812 366.488281 759.40625 368.035156 759.402344 C 369.21875 759.402344 370.800781 759.066406 371.574219 758.660156 C 372.34375 758.25 374.050781 757.511719 375.355469 757.019531 C 376.671875 756.527344 378.277344 755.542969 378.945312 754.835938 C 381.480469 752.148438 384.492188 742.023438 383.515625 739.460938 C 382.839844 737.664062 382.972656 730.007812 383.738281 727.125 C 384.109375 725.734375 384.550781 723.46875 384.726562 722.082031 C 385.007812 719.808594 384.921875 719.40625 383.753906 717.875 C 382.113281 715.722656 381.757812 712.878906 382.761719 709.917969 C 383.796875 706.882812 383.738281 703.832031 382.617188 702.425781 C 381.183594 700.601562 381.011719 698.40625 382.070312 695.398438 C 382.96875 692.851562 382.96875 692.613281 382.246094 690.375 C 381.449219 687.9375 381.582031 686.828125 383.089844 683.160156 C 383.605469 681.890625 383.574219 681.144531 382.894531 678.238281 C 382.453125 676.351562 382.097656 674 382.097656 673.003906 C 382.097656 671.484375 381.949219 671.246094 381.300781 671.503906 C 380.859375 671.675781 379.222656 671.503906 377.667969 671.128906 C 376.113281 670.75 373.683594 670.21875 372.261719 669.941406 C 370.847656 669.667969 368.210938 669.023438 366.40625 668.507812 C 364.601562 667.992188 362.011719 667.566406 360.652344 667.558594 C 359 667.550781 357.433594 667.171875 355.964844 666.433594 C 354.175781 665.539062 353.253906 665.367188 351.140625 665.550781 C 349.09375 665.726562 348.105469 665.558594 346.589844 664.785156 C 345.527344 664.242188 344.375 663.796875 344.035156 663.796875 C 343.695312 663.796875 342.15625 663.167969 340.617188 662.40625 C 339.078125 661.640625 337.542969 661.007812 337.210938 661 C 336.871094 660.988281 335.609375 660.457031 334.398438 659.8125 C 333.1875 659.167969 331.816406 658.640625 331.34375 658.640625 C 330.28125 658.640625 328.84375 657.898438 327.117188 656.460938 C 326.394531 655.855469 325.222656 655.359375 324.523438 655.359375 C 322.566406 655.359375 317.054688 652.476562 313.664062 649.679688 C 311.503906 647.898438 309.75 646.902344 307.707031 646.292969 C 305.640625 645.675781 304.066406 644.769531 302.179688 643.117188 C 300.730469 641.847656 298.726562 640.394531 297.730469 639.886719 C 296.742188 639.378906 295.164062 638.449219 294.238281 637.820312 C 293.308594 637.191406 291.878906 636.535156 291.050781 636.359375 C 288.625 635.84375 286.363281 634.355469 284.902344 632.308594 C 284.015625 631.074219 282.699219 630.019531 281.152344 629.316406 C 279.667969 628.640625 277.523438 626.964844 275.503906 624.898438 C 273.714844 623.070312 271.558594 621.148438 270.722656 620.628906 C 269.878906 620.113281 268.566406 618.828125 267.792969 617.777344 C 267.011719 616.722656 265.648438 615.414062 264.75 614.871094 C 263.101562 613.871094 257.90625 608.222656 257.90625 607.429688 C 257.90625 607.195312 256.621094 605.597656 255.0625 603.878906 C 253.5 602.160156 251.785156 599.914062 251.253906 598.882812 C 249.867188 596.179688 246.257812 590.21875 244.996094 588.53125 C 243.742188 586.847656 242.304688 584.425781 240.46875 580.890625 C 239.496094 579.023438 239.15625 577.691406 239.15625 575.789062 C 239.15625 573.519531 238.960938 573.011719 237.542969 571.433594 C 236.566406 570.351562 235.808594 568.941406 235.628906 567.859375 C 235.46875 566.878906 235.039062 565.140625 234.671875 564 C 234.300781 562.859375 234.003906 561.113281 234.003906 560.121094 C 234.003906 559.050781 233.445312 557.195312 232.617188 555.574219 C 231.863281 554.066406 231 551.382812 230.714844 549.613281 C 230.417969 547.839844 230.035156 545.441406 229.84375 544.28125 C 229.648438 543.121094 229.664062 541.433594 229.84375 540.535156 C 230.050781 539.632812 230.09375 536.996094 229.992188 534.675781 C 229.796875 531.652344 229.84375 529.929688 230.375 528.601562 C 230.996094 526.839844 230.964844 526.621094 229.710938 524.242188 C 228.441406 521.835938 228.394531 521.464844 228.335938 514.617188 C 228.1875 496.21875 228.1875 495.796875 229.269531 493.742188 C 230.167969 491.980469 230.199219 491.675781 229.578125 490.046875 C 228.808594 487.984375 228.234375 483.648438 228.089844 478.667969 C 228.089844 476.734375 227.839844 473.976562 227.648438 472.535156 C 227.414062 470.628906 227.5 469.546875 227.988281 468.550781 C 228.699219 467.136719 228.832031 458.613281 228.199219 456.171875 C 227.074219 451.921875 226.195312 433.644531 226.972656 430.863281 C 227.296875 429.707031 227.195312 427 226.648438 421.632812 C 225.910156 414.433594 225.910156 413.933594 226.648438 411.882812 C 227.402344 409.929688 227.414062 409.269531 226.882812 405.097656 C 226.410156 401.425781 226.410156 400.050781 226.875 398.414062 C 227.390625 396.554688 227.347656 396.164062 226.417969 394.378906 C 225.101562 391.875 225.074219 388.554688 226.269531 386.078125 C 226.785156 385.0625 227.347656 383.394531 227.539062 382.371094 C 228.011719 379.78125 228.941406 378.144531 230.722656 376.804688 C 234.125 374.234375 237.664062 374.363281 242.296875 377.222656 C 245.363281 379.113281 245.679688 379.148438 248.707031 377.890625 L 250.996094 376.9375 L 250.996094 368.316406 C 250.996094 359.960938 251.140625 359.628906 252.261719 357.667969 C 252.929688 356.554688 254.292969 354.0625 255.3125 352.128906 C 257.429688 348.113281 258.78125 346.675781 261.050781 346.023438 C 263.457031 345.335938 269.460938 345.476562 273.050781 346.308594 C 274.804688 346.714844 276.875 346.949219 277.648438 346.828125 C 278.417969 346.710938 281.046875 346.261719 283.484375 345.835938 C 288.222656 345.011719 289.878906 345.144531 292.320312 346.550781 C 294.824219 347.992188 295.222656 347.777344 295.238281 344.984375 C 295.238281 339.445312 295.625 336.285156 296.523438 333.617188 C 297.394531 331.03125 297.410156 330.671875 296.761719 329.164062 C 295.261719 325.699219 294.765625 322.554688 295.355469 320.28125 C 295.699219 318.984375 295.917969 314.308594 295.917969 308.308594 C 295.929688 299.726562 296.066406 298.152344 296.847656 296.003906 C 297.75 293.566406 297.75 293.507812 296.847656 289.910156 C 295.976562 286.429688 295.875 285 296.140625 279.636719 C 296.140625 278.300781 296.140625 275.417969 295.933594 273.230469 C 295.578125 268.898438 295.429688 268.726562 292.175781 268.710938 C 290.394531 268.703125 281.003906 263.933594 278.957031 262.003906 C 277.160156 260.308594 276.734375 259.085938 275.972656 253.441406 C 275.53125 250.175781 275.515625 248.695312 275.972656 247.027344 C 276.269531 245.832031 276.515625 242.261719 276.515625 239.089844 C 276.515625 235.917969 276.753906 232.476562 277.035156 231.445312 C 278.039062 227.828125 280.804688 224.671875 288.449219 218.460938 C 289.664062 217.46875 291.34375 216.597656 292.339844 216.429688 C 295.625 215.886719 295.433594 216.421875 295.085938 208.703125 C 294.789062 202.285156 294.847656 201.535156 295.691406 199.878906 C 296.542969 198.203125 296.5625 197.90625 295.941406 195.820312 C 295.144531 193.1875 295.070312 189.058594 295.75 186.582031 C 296.117188 185.242188 296.089844 184.535156 295.574219 183.535156 C 294.316406 181.070312 294.226562 178.953125 295.246094 175.953125 C 296.429688 172.441406 296.429688 171.621094 295.257812 167.101562 C 294.355469 163.660156 294.355469 163.347656 295.082031 160.90625 C 295.492188 159.492188 295.820312 157.488281 295.789062 156.457031 C 295.359375 142.84375 295.480469 139.847656 296.6875 132.046875 C 297.042969 129.792969 296.96875 128.664062 296.378906 126.65625 C 295.507812 123.746094 295.730469 119.972656 296.925781 117.109375 C 297.339844 116.109375 297.589844 114.796875 297.472656 114.195312 C 297.324219 113.589844 297.472656 112.230469 297.621094 111.175781 C 297.871094 109.78125 297.765625 108.585938 297.117188 106.820312 C 296.171875 104.128906 296.378906 102.042969 297.839844 99.832031 C 298.5625 98.730469 298.636719 97.851562 298.386719 93.066406 C 298.226562 90.039062 297.972656 86.191406 297.808594 84.515625 C 297.601562 82.277344 297.660156 80.914062 298.3125 79.363281 C 298.738281 78.203125 299.359375 76.199219 299.683594 74.910156 C 300.007812 73.621094 300.730469 71.679688 301.296875 70.59375 C 301.855469 69.507812 302.316406 68.242188 302.316406 67.78125 C 302.316406 66.367188 304.878906 61.433594 306.8125 59.121094 C 309.105469 56.375 310.835938 53.5 311.84375 50.757812 C 312.386719 49.28125 314.011719 47.191406 317.191406 43.886719 C 319.707031 41.273438 322.144531 38.589844 322.605469 37.921875 C 323.066406 37.253906 324.230469 36.300781 325.1875 35.800781 C 326.144531 35.300781 328.289062 33.394531 329.960938 31.5625 C 331.636719 29.730469 333.957031 27.679688 335.117188 27.011719 C 336.285156 26.339844 338.089844 25.03125 339.144531 24.105469 C 342.253906 21.363281 347.058594 18.046875 348.402344 17.707031 C 349.09375 17.535156 350.292969 16.585938 351.074219 15.597656 C 352.066406 14.355469 353.3125 13.496094 355.125 12.816406 C 356.570312 12.277344 358.28125 11.417969 358.929688 10.910156 C 359.582031 10.398438 361.285156 9.640625 362.730469 9.222656 C 364.179688 8.804688 366.425781 7.859375 367.730469 7.121094 C 369.289062 6.242188 370.785156 5.78125 372.054688 5.78125 C 373.265625 5.78125 375.800781 5.035156 378.8125 3.792969 C 383.199219 1.984375 383.9375 1.820312 387.089844 1.933594 C 389.390625 2.023438 391.351562 1.800781 392.925781 1.273438 C 395.011719 0.582031 395.738281 0.558594 398.945312 1.078125 C 402.132812 1.597656 402.828125 1.578125 404.484375 0.914062 C 406.863281 -0.0390625 409.253906 -0.046875 412.390625 0.882812 C 413.925781 1.339844 417.292969 1.671875 421.351562 1.773438 C 424.929688 1.863281 428.136719 2.113281 428.472656 2.324219 C 429.09375 2.71875 433.460938 3.273438 439.273438 3.699219 C 442.589844 3.941406 445.945312 5.132812 448.304688 6.902344 C 449.070312 7.484375 454.140625 9.898438 459.554688 12.273438 C 471.640625 17.574219 471.421875 17.457031 473.144531 19.695312 C 473.914062 20.703125 475.902344 22.464844 477.554688 23.609375 C 479.207031 24.757812 481.523438 26.601562 482.707031 27.707031 C 483.886719 28.808594 485.601562 30.179688 486.5 30.753906 C 487.535156 31.410156 488.546875 32.664062 489.25 34.167969 C 490.121094 36.039062 490.773438 36.742188 492.296875 37.449219 C 493.625 38.070312 494.929688 39.304688 496.445312 41.398438 C 497.65625 43.074219 499.476562 45.394531 500.480469 46.554688 C 501.484375 47.714844 502.777344 49.59375 503.355469 50.734375 C 503.933594 51.875 505.789062 54.480469 507.472656 56.535156 C 509.15625 58.585938 510.804688 61.132812 511.136719 62.195312 C 511.480469 63.257812 512.46875 65.816406 513.351562 67.875 C 514.238281 69.9375 515.179688 72.152344 515.453125 72.796875 C 516.949219 76.3125 517.433594 79.101562 517.433594 84.171875 C 517.433594 88.78125 517.59375 89.898438 518.601562 92.390625 C 519.441406 94.476562 519.78125 96.152344 519.78125 98.449219 C 519.78125 100.191406 520.105469 102.664062 520.488281 103.9375 C 520.933594 105.414062 521.257812 108.917969 521.375 113.628906 C 521.523438 117.6875 521.714844 121.265625 521.90625 121.578125 C 522.097656 121.894531 522.335938 125.648438 522.421875 129.929688 C 522.570312 134.207031 522.617188 138.550781 522.660156 139.582031 C 522.660156 140.613281 522.511719 142.527344 522.363281 143.835938 C 522.082031 145.699219 522.171875 146.550781 522.820312 147.785156 C 523.484375 149.082031 523.648438 150.851562 523.734375 157.828125 C 523.882812 165.667969 523.734375 166.601562 522.65625 170.394531 L 521.476562 174.496094 L 522.570312 177.964844 C 523.425781 180.683594 523.570312 181.878906 523.277344 183.472656 C 522.71875 186.511719 522.863281 189.882812 523.691406 192.777344 C 524.269531 194.777344 524.324219 195.773438 523.941406 197.226562 C 522.644531 202.246094 522.554688 203.253906 523.277344 205.71875 C 523.664062 207.058594 523.988281 209.175781 523.988281 210.421875 C 523.988281 213.269531 524.269531 213.65625 526.445312 214 C 527.417969 214.152344 528.785156 214.691406 529.496094 215.195312 C 530.203125 215.699219 531.667969 216.351562 532.75 216.640625 C 536.484375 217.644531 538.976562 220.757812 538.976562 224.414062 C 538.976562 225.335938 539.417969 226.960938 539.964844 228.023438 C 540.71875 229.496094 540.910156 230.554688 540.746094 232.414062 C 540.570312 234.542969 540.21875 235.28125 538.003906 238.003906 C 535.09375 241.589844 533.730469 242.453125 530.96875 242.453125 C 528.457031 242.453125 526.628906 241.304688 523.976562 238.058594 C 521.171875 234.617188 519.695312 233.917969 516.175781 234.371094 C 514.664062 234.5625 512.589844 234.664062 511.558594 234.589844 C 510.523438 234.515625 503.992188 234.414062 497.03125 234.351562 C 488.578125 234.277344 484.0625 234.066406 483.4375 233.707031 C 482.328125 233.074219 468.066406 233.589844 461.644531 234.496094 C 458.117188 234.996094 457.382812 234.964844 455.203125 234.230469 C 452.992188 233.480469 452.40625 233.460938 449.425781 234.023438 C 446.46875 234.582031 445.765625 234.558594 442.898438 233.816406 C 440.632812 233.226562 439.007812 233.078125 437.421875 233.316406 C 433.675781 233.871094 427.917969 233.792969 423.386719 233.125 C 419.625 232.566406 418.859375 232.582031 417.0625 233.226562 C 415.628906 233.738281 412.476562 234.03125 406.578125 234.207031 C 401.9375 234.339844 395.925781 234.785156 393.21875 235.1875 C 389.835938 235.691406 386.835938 235.828125 383.613281 235.625 C 378.082031 235.28125 376.261719 235.289062 370.023438 235.699219 C 367.117188 235.886719 364.445312 235.804688 362.984375 235.476562 C 361.070312 235.046875 360.1875 235.082031 358.292969 235.664062 C 355.558594 236.503906 346.742188 236.234375 344.007812 235.222656 C 343.109375 234.890625 341.15625 234.472656 339.675781 234.292969 C 337.339844 234.007812 337.019531 234.0625 337.265625 234.699219 C 337.5625 235.453125 335.382812 235.609375 323.386719 235.675781 C 321.125 235.6875 319.089844 236 317.671875 236.554688 C 316.175781 237.140625 314.894531 237.324219 313.6875 237.128906 C 312.710938 236.96875 310.109375 236.644531 307.921875 236.40625 C 305.726562 236.164062 302.96875 235.824219 301.785156 235.648438 C 299.820312 235.355469 299.492188 235.457031 297.949219 236.8125 C 295.84375 238.660156 295.347656 240.289062 295.433594 245.042969 L 295.433594 248.792969 L 297.539062 248.71875 C 301.140625 248.585938 315.507812 249.554688 317.070312 250.03125 C 318.148438 250.355469 319.25 250.289062 321.054688 249.789062 C 322.425781 249.40625 325.820312 248.953125 328.589844 248.78125 C 333.292969 248.488281 333.75 248.539062 335.386719 249.527344 C 336.757812 250.355469 337.707031 250.554688 339.722656 250.449219 C 341.136719 250.375 343.246094 250.328125 344.40625 250.375 C 350.796875 250.554688 352.515625 250.460938 354.792969 249.816406 C 358.324219 248.8125 367.820312 248.839844 370.734375 249.859375 C 372.84375 250.601562 373.007812 250.589844 375.1875 249.617188 C 378.738281 248.03125 379.398438 247.960938 383.027344 248.769531 C 385.671875 249.355469 386.75 249.410156 387.804688 249.007812 C 388.703125 248.664062 391.003906 248.601562 394.636719 248.816406 C 398.496094 249.046875 401.03125 248.964844 403.242188 248.519531 C 406.164062 247.941406 406.582031 247.964844 409.28125 248.910156 C 411.984375 249.851562 412.3125 249.875 414.21875 249.21875 C 417.082031 248.230469 422.996094 248.183594 424.800781 249.128906 C 426.617188 250.085938 433.203125 250.117188 436.558594 249.1875 C 438.492188 248.652344 439.363281 248.628906 441.011719 249.070312 C 443.089844 249.628906 444.632812 249.65625 450.5625 249.226562 C 468.5625 247.929688 468.84375 247.925781 471.578125 248.871094 C 474.15625 249.761719 474.226562 249.761719 478.851562 248.828125 C 482.984375 247.988281 483.800781 247.949219 485.925781 248.496094 C 487.847656 248.988281 488.609375 248.996094 489.722656 248.542969 C 491.375 247.855469 493.757812 247.792969 498.835938 248.296875 C 501.859375 248.597656 502.9375 248.519531 504.398438 247.90625 C 505.402344 247.488281 507.214844 247.144531 508.445312 247.144531 C 509.667969 247.144531 511.382812 246.855469 512.25 246.496094 C 515.351562 245.222656 525.046875 245.902344 530.175781 247.757812 C 531.820312 248.351562 533.277344 250.625 533.28125 252.605469 C 533.28125 254.257812 530.941406 260.347656 529.609375 262.144531 C 528.25 263.984375 525.355469 265.40625 522.960938 265.417969 C 520.589844 265.425781 518.753906 266.441406 518.753906 267.742188 C 518.753906 268.214844 519.167969 269.523438 519.683594 270.644531 C 520.6875 272.855469 520.894531 277.167969 520.1875 280.84375 C 519.921875 282.21875 520.007812 284.160156 520.4375 286.671875 C 520.792969 288.742188 520.984375 291.085938 520.851562 291.875 C 520.542969 293.738281 519.980469 313.496094 520.070312 319.554688 C 520.070312 322.398438 520.4375 325.164062 520.878906 326.585938 C 521.558594 328.699219 521.574219 329.316406 520.878906 332.894531 C 520.289062 336.296875 520.273438 337.160156 520.878906 338.988281 C 521.675781 341.589844 521.707031 344.171875 521.027344 346.554688 C 520.613281 347.949219 520.613281 348.507812 521.027344 349.054688 C 521.546875 349.675781 521.808594 349.679688 523.261719 349.070312 C 525.316406 348.210938 534.441406 348.121094 536.371094 348.9375 C 537.09375 349.246094 539.796875 349.507812 542.375 349.523438 C 546.417969 349.550781 547.378906 349.707031 549.355469 350.71875 C 552.757812 352.457031 555.546875 355.121094 556.457031 357.503906 C 557.285156 359.65625 557.242188 360.65625 556.179688 364.414062 C 555.632812 366.359375 555.648438 367.023438 556.386719 369.871094 C 556.886719 371.777344 557.183594 374.441406 557.125 376.328125 C 557.125 378.097656 557.125 380.296875 557.125 381.222656 L 557.125 382.902344 L 566.144531 382.859375 C 575.140625 382.8125 575.171875 382.828125 577.324219 384.085938 C 579.054688 385.101562 579.84375 386.035156 581.289062 388.773438 C 583.273438 392.53125 583.128906 391.101562 582.976562 404.957031 C 582.976562 406.824219 582.695312 409.25 582.386719 410.347656 C 582.074219 411.445312 581.765625 414.980469 581.691406 418.203125 C 581.542969 421.425781 581.515625 424.589844 581.46875 425.230469 C 581.46875 425.878906 581.839844 428.40625 582.386719 430.855469 C 583.757812 436.921875 583.800781 440.84375 582.53125 443.375 C 581.335938 445.710938 581.292969 446.585938 582.222656 448.828125 C 583.125 450.980469 583.125 453.253906 582.222656 455.425781 C 581.664062 456.765625 581.617188 457.535156 581.988281 458.882812 C 582.679688 461.371094 582.59375 464.21875 581.75 466.226562 C 581.085938 467.800781 581.101562 468.175781 581.75 470.207031 C 582.371094 472.085938 582.429688 473.390625 582.074219 478.25 C 581.722656 483.082031 581.765625 484.28125 582.355469 485.433594 C 583.269531 487.246094 582.828125 493.203125 581.457031 497.355469 L 580.46875 500.351562 L 581.441406 502.746094 C 582.855469 506.214844 583.585938 514.917969 582.710938 517.832031 C 582.191406 519.554688 582.148438 521.132812 582.488281 525.304688 C 582.84375 529.5625 582.785156 531.035156 582.238281 532.863281 C 581.410156 535.601562 581.335938 540.980469 582.089844 544.230469 C 582.589844 546.425781 582.53125 546.84375 581.277344 550.003906 C 580.125 552.898438 579.917969 554.085938 579.90625 557.867188 C 579.90625 562.71875 579.035156 568.644531 577.925781 571.859375 C 577.4375 573.238281 576.730469 574.1875 575.703125 574.789062 C 574.039062 575.769531 573.320312 577.023438 572.863281 579.734375 C 572.394531 582.5625 571.640625 584.675781 570.503906 586.453125 C 569.925781 587.355469 569.308594 588.75 569.144531 589.554688 C 568.984375 590.359375 567.964844 592.082031 566.875 593.386719 C 561.5625 599.78125 561.210938 600.328125 559.515625 604.855469 C 558.953125 606.363281 557.554688 608.523438 556.078125 610.167969 C 554.707031 611.6875 553.085938 613.839844 552.472656 614.945312 C 551.617188 616.5 550.742188 617.25 548.683594 618.242188 C 546.371094 619.351562 545.671875 620.027344 543.519531 623.257812 C 540.339844 628.027344 537.132812 631.246094 534.320312 632.480469 C 532.171875 633.425781 530.546875 634.792969 524.847656 640.46875 C 523.359375 641.949219 521.90625 643.164062 521.617188 643.164062 C 521.320312 643.164062 520.300781 643.871094 519.332031 644.734375 C 517.75 646.148438 516.152344 647.292969 512.199219 649.839844 C 511.507812 650.289062 509.894531 650.796875 508.625 650.960938 C 505.628906 651.355469 501.1875 653.566406 498.824219 655.839844 C 496.507812 658.070312 492.699219 659.839844 488.941406 660.441406 C 485.445312 661 483.476562 661.796875 480.421875 663.898438 C 478.800781 665.011719 477.320312 665.605469 475.648438 665.800781 C 474.1875 665.976562 472.171875 666.699219 470.558594 667.632812 C 468.46875 668.839844 467.191406 669.222656 464.65625 669.40625 L 461.421875 669.640625 L 460.613281 672.136719 C 460.167969 673.507812 459.195312 675.261719 458.457031 676.035156 L 457.113281 677.4375 L 457.113281 684.554688 C 457.113281 697.75 457.453125 704.777344 458.132812 707.496094 C 458.753906 709.996094 458.722656 710.496094 457.792969 714.238281 C 456.878906 717.90625 456.832031 718.621094 457.351562 721.90625 C 457.761719 724.582031 457.792969 726.792969 457.5 730.390625 C 456.980469 735.605469 457.085938 742.527344 457.691406 743.523438 C 457.898438 743.859375 458.121094 745.507812 458.175781 747.191406 C 458.324219 750.332031 458.707031 754.621094 459.078125 756.417969 C 459.226562 756.972656 460.34375 758.320312 461.652344 759.410156 C 463.984375 761.363281 464.082031 761.394531 467.316406 761.316406 C 469.9375 761.257812 471.097656 761.460938 473.03125 762.371094 C 475.910156 763.71875 482.148438 765.484375 484.046875 765.484375 C 485.769531 765.484375 488.222656 766.320312 489.863281 767.460938 C 490.957031 768.21875 491.632812 768.308594 494.351562 768.039062 C 497.046875 767.773438 497.84375 767.871094 499.414062 768.671875 C 500.433594 769.195312 502.078125 769.773438 503.0625 769.960938 C 504.039062 770.144531 507.507812 771.214844 510.757812 772.339844 C 514.703125 773.707031 517.453125 774.390625 519.035156 774.390625 C 520.511719 774.390625 522.0625 774.742188 523.148438 775.328125 C 524.109375 775.839844 525.539062 776.261719 526.320312 776.261719 C 528.160156 776.261719 530.523438 777.273438 531.652344 778.542969 C 532.347656 779.3125 533.085938 779.542969 534.902344 779.542969 C 536.246094 779.542969 538.078125 779.929688 539.164062 780.441406 C 540.433594 781.039062 542.476562 781.402344 545.289062 781.542969 C 548.898438 781.71875 549.898438 781.960938 552.246094 783.222656 C 553.878906 784.101562 555.683594 784.703125 556.699219 784.703125 C 557.644531 784.703125 559.460938 785.027344 560.746094 785.417969 C 562.621094 785.988281 563.566406 786.027344 565.558594 785.609375 C 566.917969 785.328125 568.71875 785.246094 569.550781 785.425781 C 572.386719 786.046875 581.386719 790.59375 582.449219 791.945312 C 584.84375 794.992188 584.734375 799.257812 582.199219 801.683594 C 579.933594 803.855469 577.8125 804.421875 571.363281 804.578125 C 567.628906 804.667969 564.320312 805.027344 562.414062 805.539062 C 560.625 806.023438 558.550781 806.261719 557.324219 806.125 C 556.191406 805.992188 553.855469 806.183594 552.144531 806.542969 C 548.148438 807.378906 545.804688 807.367188 544.132812 806.496094 C 543.113281 805.972656 540.75 805.789062 534.195312 805.738281 C 529.222656 805.695312 524.671875 805.429688 523.402344 805.101562 C 521.40625 804.582031 520.96875 804.632812 518.492188 805.679688 C 515.253906 807.042969 512.886719 806.917969 508.957031 805.171875 C 506.515625 804.085938 506.125 804.046875 501.460938 804.429688 C 494.441406 805.007812 490.683594 805.550781 488.84375 806.253906 C 487.238281 806.867188 482.082031 806.484375 476.148438 805.304688 C 474.984375 805.074219 472.539062 804.753906 470.707031 804.589844 C 467.804688 804.332031 467.105469 804.433594 465.316406 805.355469 C 463.074219 806.511719 463.035156 806.515625 450.609375 806.132812 C 444.546875 805.945312 442.847656 806.027344 441.734375 806.601562 C 440.703125 807.125 439.53125 807.226562 437.046875 807.007812 C 431.71875 806.53125 418.585938 806.625 414.523438 807.164062 C 406.289062 808.257812 406.1875 808.257812 403.507812 807.316406 C 401.238281 806.511719 399.78125 806.417969 391.265625 806.496094 C 385.953125 806.542969 381.339844 806.75 381.023438 806.945312 C 380.699219 807.144531 377.472656 807.285156 373.847656 807.261719 C 370.21875 807.230469 366.320312 807.449219 365.183594 807.738281 C 363.625 808.128906 362.339844 808.113281 359.992188 807.679688 C 356.109375 806.957031 353.183594 806.9375 346.378906 807.589844 C 342.8125 807.929688 340.359375 807.949219 338.992188 807.648438 C 337.316406 807.273438 336.425781 807.363281 334.078125 808.15625 C 331.632812 808.980469 330.867188 809.046875 328.882812 808.621094 C 327.199219 808.261719 326.007812 808.269531 324.605469 808.652344 C 323.441406 808.96875 321.316406 809.054688 319.269531 808.871094 C 317.273438 808.691406 315.101562 808.769531 313.988281 809.074219 C 312.496094 809.476562 311.464844 809.421875 309.023438 808.808594 C 306.597656 808.203125 305.523438 808.140625 303.992188 808.53125 C 300.355469 809.453125 297.855469 809.574219 295.707031 808.929688 C 293.199219 808.175781 271.046875 808.230469 269.617188 808.988281 C 268.449219 809.609375 265.753906 809.960938 264.332031 809.675781 Z M 428.578125 785.652344 C 429.152344 784.621094 429.800781 783.777344 430.023438 783.777344 C 430.246094 783.777344 430.820312 782.859375 431.292969 781.738281 C 431.765625 780.617188 432.695312 779.285156 433.34375 778.773438 C 434.730469 777.683594 438.84375 772.40625 439.898438 770.367188 C 440.296875 769.585938 440.960938 768.671875 441.375 768.335938 C 442.363281 767.519531 442.304688 766.433594 441.226562 766.453125 C 439.433594 766.480469 435.339844 768.265625 433.933594 769.628906 C 433.089844 770.4375 430.484375 771.867188 427.988281 772.882812 L 423.535156 774.691406 L 423.535156 777.476562 C 423.535156 779.015625 423.152344 781.042969 422.710938 782.003906 C 422.28125 782.960938 421.925781 784.367188 421.925781 785.121094 C 421.925781 786.3125 422.164062 786.558594 423.6875 786.960938 C 426.886719 787.8125 427.410156 787.671875 428.546875 785.652344 Z M 469.847656 786.152344 C 472.429688 785.78125 474.082031 785.773438 475.6875 786.140625 C 478.265625 786.71875 485.371094 786.257812 484.929688 785.546875 C 484.78125 785.296875 483.910156 784.785156 483.019531 784.410156 C 481.695312 783.859375 480.945312 783.832031 478.976562 784.265625 C 476.785156 784.75 476.238281 784.691406 473.082031 783.585938 C 471.164062 782.914062 468.738281 782.359375 467.691406 782.34375 C 466.003906 782.332031 464.425781 781.90625 461.710938 780.75 C 461.152344 780.515625 460.308594 780.984375 458.828125 782.34375 C 457.664062 783.414062 455.84375 784.53125 454.734375 784.855469 C 453.625 785.171875 452.640625 785.707031 452.527344 786.039062 C 452.367188 786.511719 453.160156 786.582031 456.242188 786.355469 C 458.46875 786.191406 460.765625 786.265625 461.5625 786.539062 C 463.042969 787.039062 464.035156 786.988281 469.847656 786.148438 Z M 420.828125 754.703125 C 421.539062 754.433594 422.796875 753.609375 423.640625 752.867188 C 424.484375 752.128906 425.644531 751.371094 426.210938 751.191406 C 426.769531 751.011719 428.144531 750.175781 429.246094 749.335938 C 430.5 748.375 432.058594 747.683594 433.421875 747.480469 L 435.59375 747.15625 L 435.445312 744.492188 C 435.296875 741.957031 435.253906 741.835938 434.128906 741.972656 C 432.992188 742.105469 430.605469 744.355469 428.808594 746.964844 C 427.761719 748.496094 425.355469 750.027344 424.007812 750.03125 C 422.648438 750.03125 420.175781 751.839844 419.046875 753.664062 C 417.984375 755.367188 418.414062 755.613281 420.816406 754.699219 Z M 436.785156 711.804688 C 437.082031 711.417969 437.332031 710.25 437.347656 709.207031 C 437.355469 708.160156 437.507812 706.691406 437.671875 705.9375 C 437.832031 705.1875 437.878906 704.570312 437.820312 704.570312 C 437.566406 704.570312 430.910156 712.800781 430.910156 713.105469 C 430.910156 713.636719 436.347656 712.441406 436.832031 711.804688 Z M 423.128906 684.558594 C 424.933594 683.640625 427.210938 682.171875 428.1875 681.292969 C 429.941406 679.71875 431.621094 678.832031 434.378906 678.019531 C 435.425781 677.710938 435.824219 677.28125 435.929688 676.34375 C 436.078125 675.277344 435.78125 674.972656 434.347656 674.359375 C 432.316406 673.511719 429.402344 673.46875 427.132812 674.253906 C 425.71875 674.742188 425.386719 675.179688 424.542969 677.632812 C 423.347656 681.128906 422.726562 682.019531 420.121094 684.011719 C 417.683594 685.875 417.058594 687.027344 418.75 686.550781 C 419.355469 686.375 421.335938 685.480469 423.136719 684.5625 Z M 422.804688 655.894531 C 425.414062 654.585938 426.957031 654.34375 429.046875 654.90625 C 430.582031 655.316406 431.320312 655.265625 433.007812 654.625 C 434.613281 654.007812 435.8125 653.902344 438.359375 654.15625 C 441.46875 654.460938 441.730469 654.410156 443.351562 653.175781 C 444.632812 652.191406 445.828125 651.785156 448.160156 651.535156 C 453.785156 650.925781 456.394531 650.386719 458.054688 649.488281 C 459.277344 648.824219 460.691406 648.597656 463.703125 648.585938 C 467.394531 648.570312 467.839844 648.464844 469.269531 647.257812 C 471.222656 645.613281 473.136719 644.8125 476.105469 644.386719 C 477.59375 644.175781 479.3125 643.464844 480.835938 642.429688 C 482.769531 641.117188 483.773438 640.773438 486.015625 640.640625 C 489.554688 640.433594 493.136719 638.476562 495.90625 635.242188 C 497.933594 632.878906 499.867188 631.9375 502.710938 631.929688 C 504.023438 631.929688 504.296875 631.710938 510.542969 625.609375 C 511.960938 624.226562 513.773438 622.773438 514.566406 622.382812 C 515.363281 621.992188 516.566406 620.949219 517.242188 620.0625 C 518.011719 619.058594 520.023438 617.644531 522.59375 616.308594 C 527.539062 613.742188 528.703125 612.527344 535.816406 602.542969 C 539.984375 596.691406 541.984375 594.152344 542.855469 593.617188 C 543.371094 593.296875 544.214844 592.242188 544.707031 591.273438 C 545.210938 590.304688 546.472656 588.683594 547.519531 587.667969 C 548.878906 586.359375 549.648438 585.066406 550.183594 583.226562 C 550.597656 581.796875 551.335938 580.082031 551.800781 579.417969 C 552.804688 578.011719 556.582031 566.863281 557.390625 562.941406 C 557.683594 561.472656 558.453125 559.257812 559.078125 558.019531 C 560.421875 555.359375 560.46875 554.847656 559.464844 551.4375 C 558.359375 547.65625 558.753906 544.488281 560.6875 541.472656 C 562.25 539.039062 562.257812 539.007812 561.691406 536.277344 C 561.261719 534.183594 561.25 532.804688 561.691406 530.476562 C 562.089844 528.183594 562.089844 526.859375 561.683594 525.164062 C 561.210938 523.222656 561.285156 522.367188 562.125 519.125 C 562.921875 516.058594 563.011719 514.964844 562.625 513.296875 C 561.859375 509.964844 562.035156 506.125 563.085938 503.457031 C 564 501.15625 564 500.863281 563.335938 497.933594 C 562.953125 496.234375 562.300781 493.917969 561.902344 492.792969 C 560.902344 489.960938 560.988281 488.773438 562.40625 485.789062 C 563.351562 483.804688 563.554688 482.785156 563.335938 481.40625 C 563.171875 480.417969 562.90625 478.753906 562.746094 477.707031 C 562.539062 476.414062 562.746094 475 563.292969 473.308594 C 564.101562 470.921875 564.101562 470.699219 563.292969 467.871094 C 562.613281 465.445312 562.523438 464.011719 562.804688 459.730469 C 562.996094 456.875 563.324219 454.050781 563.558594 453.457031 C 563.855469 452.675781 563.707031 451.863281 563.011719 450.5 C 562.480469 449.46875 562.066406 447.738281 562.066406 446.660156 C 562.214844 430.351562 562.40625 426.890625 563.515625 424.660156 L 564.636719 422.433594 L 563.574219 420.242188 C 562.597656 418.230469 562.527344 417.515625 562.644531 411.363281 C 562.644531 407.679688 562.644531 404.519531 562.453125 404.339844 C 561.890625 403.78125 557.6875 403.285156 557.226562 403.722656 C 556.636719 404.289062 556.78125 417.480469 557.402344 418.632812 C 558.050781 419.859375 558.035156 423.515625 557.402344 425.789062 C 557.105469 426.792969 556.207031 428.21875 555.410156 428.960938 C 554.613281 429.703125 552.171875 431.988281 549.980469 434.042969 C 547.789062 436.097656 545.539062 438.019531 544.972656 438.308594 C 544.414062 438.597656 542.589844 438.835938 540.933594 438.835938 C 537.640625 438.835938 534.664062 439.6875 532.785156 441.171875 C 531.019531 442.554688 527.644531 442.453125 525.421875 440.945312 C 523.390625 439.570312 521.882812 439.421875 521.8125 440.59375 C 521.8125 441.046875 521.667969 443.867188 521.59375 446.863281 C 521.445312 449.863281 521.222656 453.234375 520.972656 454.363281 C 520.574219 456.238281 520.824219 460.5625 521.667969 465.59375 C 521.84375 466.675781 521.667969 468.398438 520.957031 470.445312 C 519.613281 474.777344 519.6875 477.816406 521.207031 481.019531 C 522.863281 484.507812 523.175781 488.882812 522.09375 493.449219 C 521.609375 495.523438 521.386719 497.648438 521.5625 498.699219 C 522.332031 503.457031 522.40625 505.070312 521.886719 506.914062 C 521.476562 508.386719 521.460938 510.210938 521.886719 513.929688 C 522.300781 518.195312 522.257812 519.308594 521.609375 521.300781 C 520.886719 523.550781 520.886719 523.757812 521.859375 526.277344 C 523.039062 529.347656 523.113281 530.921875 522.199219 533.101562 C 521.832031 533.96875 521.550781 536.15625 521.566406 537.960938 C 521.585938 540.429688 521.285156 542 520.371094 544.289062 C 519.707031 545.964844 518.921875 548.375 518.644531 549.644531 C 518.367188 550.914062 517.511719 552.800781 516.75 553.835938 C 515.980469 554.875 515.359375 556.109375 515.359375 556.582031 C 515.359375 557.875 514.105469 560.605469 512.761719 562.261719 C 510.738281 564.746094 508.410156 568.300781 507.175781 570.800781 C 505.558594 574.066406 501.828125 578.605469 497.84375 582.152344 C 496.007812 583.785156 493.449219 586.417969 492.160156 588 C 490.324219 590.246094 489.265625 591.089844 487.328125 591.835938 C 485.953125 592.363281 483.488281 593.914062 481.828125 595.28125 C 480.171875 596.648438 477.921875 598.164062 476.820312 598.652344 C 475.730469 599.140625 474.097656 600.078125 473.214844 600.730469 C 472.332031 601.386719 470.855469 602.058594 469.9375 602.230469 C 468.800781 602.4375 467.589844 603.230469 466.152344 604.714844 C 464.574219 606.347656 463.179688 607.214844 460.621094 608.164062 C 458.734375 608.859375 456.835938 609.433594 456.402344 609.4375 C 454.546875 609.453125 449.503906 611.425781 448.046875 612.707031 C 447.175781 613.46875 445.253906 614.429688 443.769531 614.839844 C 442.292969 615.253906 440.46875 615.785156 439.722656 616.027344 C 438.96875 616.265625 437.261719 616.464844 435.914062 616.464844 C 434.570312 616.464844 432.570312 616.777344 431.472656 617.164062 C 430.378906 617.550781 428.308594 617.867188 426.875 617.867188 C 425.441406 617.867188 423.097656 618.167969 421.660156 618.535156 C 420.230469 618.902344 417.53125 619.460938 415.671875 619.777344 C 412.683594 620.285156 412.046875 620.257812 410.128906 619.527344 C 408.09375 618.75 407.816406 618.746094 405.5 619.46875 C 403.550781 620.082031 402.601562 620.144531 400.964844 619.765625 C 399.828125 619.503906 397.902344 619.285156 396.6875 619.277344 C 395.476562 619.269531 393.324219 618.832031 391.914062 618.304688 C 389.882812 617.546875 388.4375 617.371094 384.980469 617.460938 C 379.542969 617.609375 372.753906 616.757812 369.554688 615.542969 C 368.210938 615.03125 366.199219 614.476562 365.070312 614.308594 C 363.945312 614.140625 362.128906 613.398438 361.039062 612.660156 C 359.949219 611.921875 358.527344 611.3125 357.878906 611.308594 C 357.226562 611.308594 353.957031 609.960938 350.613281 608.324219 C 347.265625 606.691406 343.507812 605.101562 342.261719 604.792969 C 339.320312 604.070312 337.984375 603.164062 336.339844 600.773438 C 335.484375 599.519531 334.273438 598.515625 332.96875 597.960938 C 326.871094 595.367188 325.621094 594.667969 323.234375 592.527344 C 317.324219 587.214844 317.132812 586.996094 316.828125 585.085938 C 316.589844 583.625 316.0625 582.832031 314.277344 581.332031 C 313.039062 580.289062 311.804688 579.429688 311.539062 579.429688 C 310.328125 579.429688 307.714844 576.421875 307.082031 574.285156 C 306.625 572.773438 305.636719 571.222656 304.015625 569.527344 C 300.160156 565.484375 296.960938 557.875 296.960938 552.742188 C 296.960938 551.640625 296.414062 549.890625 295.558594 548.261719 C 294.789062 546.792969 294.140625 545.136719 294.140625 544.582031 C 294.140625 544.03125 293.710938 542.671875 293.210938 541.5625 C 292.558594 540.113281 292.296875 538.464844 292.265625 535.703125 C 292.265625 533.589844 292.265625 531.226562 292.265625 530.453125 C 292.265625 526.378906 292.75 517.90625 293.164062 515.363281 C 293.578125 512.882812 293.488281 511.632812 292.53125 506.84375 C 291.335938 500.824219 291.40625 499.675781 293.207031 496.753906 C 294.417969 494.785156 294.433594 492.730469 293.207031 490.382812 C 292.070312 488.144531 292.042969 486.347656 293.046875 480.675781 C 293.769531 476.59375 293.769531 476.0625 293.046875 472.667969 C 291.96875 467.671875 292.042969 466.355469 293.710938 461.347656 C 294.804688 458.066406 295.085938 456.574219 294.835938 455.292969 C 294.65625 454.355469 294.4375 450.535156 294.359375 446.796875 C 294.199219 439.59375 293.800781 437.269531 292.679688 437.054688 C 292.296875 436.980469 290.625 437.824219 288.964844 438.929688 L 285.9375 440.9375 L 279.878906 440.789062 C 273.554688 440.632812 272.53125 440.367188 269.492188 438.054688 C 268.691406 437.449219 267.679688 436.953125 267.242188 436.953125 C 266.132812 436.953125 264.105469 435.851562 259.347656 432.65625 C 257.09375 431.144531 254.914062 429.390625 254.5 428.757812 C 253.15625 426.71875 252.796875 422.660156 252.304688 404.382812 C 252.15625 401.546875 252.007812 398.960938 251.800781 398.640625 C 251.59375 398.316406 250.605469 398.054688 249.589844 398.054688 L 247.742188 398.054688 L 247.59375 402.625 C 247.59375 405.136719 247.445312 411.515625 247.445312 416.800781 C 247.445312 423.386719 247.179688 426.929688 246.769531 428.074219 C 246.238281 429.503906 246.265625 429.941406 246.914062 431.214844 C 247.726562 432.78125 248.832031 438.996094 248.742188 441.46875 C 248.742188 442.277344 248.257812 443.773438 247.738281 444.796875 C 246.808594 446.628906 246.808594 446.6875 247.589844 449.449219 C 248.300781 451.710938 248.476562 453.902344 248.519531 460.886719 C 248.519531 465.636719 248.519531 469.949219 248.519531 470.464844 C 248.519531 470.980469 248.667969 473.195312 248.933594 475.386719 C 249.214844 477.578125 249.390625 484.21875 249.320312 490.148438 C 249.171875 500.167969 249.125 501.144531 248.09375 504.015625 L 246.988281 507.105469 L 247.945312 508.46875 C 249.347656 510.453125 249.464844 511.066406 249.808594 518.277344 C 250.21875 526.832031 250.191406 528.355469 249.585938 532.628906 C 249.230469 535.191406 249.230469 537.058594 249.585938 539.191406 C 249.867188 540.828125 250.132812 544.535156 250.191406 547.425781 C 250.339844 552.011719 250.441406 553.089844 251.59375 555.863281 C 252.316406 557.609375 253.421875 559.730469 254.042969 560.570312 C 254.660156 561.410156 255.554688 563.203125 256.027344 564.550781 C 257.398438 568.460938 258.84375 571.582031 259.992188 573.101562 C 260.582031 573.875 262.234375 576.511719 263.679688 578.960938 C 265.125 581.410156 266.84375 584.144531 267.511719 585.042969 C 268.175781 585.9375 268.929688 587.441406 269.1875 588.386719 C 269.496094 589.519531 270.25 590.542969 271.402344 591.390625 C 273.558594 592.96875 274.769531 594.320312 277.257812 597.941406 C 278.320312 599.488281 279.816406 601.382812 280.574219 602.148438 C 281.34375 602.914062 282.242188 604.21875 282.589844 605.050781 C 282.929688 605.882812 284.132812 607.1875 285.246094 607.953125 C 286.351562 608.722656 287.558594 609.695312 287.914062 610.125 C 288.265625 610.550781 289.375 611.320312 290.382812 611.832031 C 292.238281 612.78125 296.835938 615.933594 299.402344 618.015625 C 300.171875 618.644531 301.652344 619.511719 302.683594 619.941406 C 303.714844 620.371094 305.1875 621.328125 305.957031 622.066406 C 306.726562 622.808594 308.585938 623.949219 310.070312 624.601562 C 311.5625 625.253906 313.671875 626.421875 314.761719 627.191406 C 315.851562 627.964844 317.910156 629.027344 319.34375 629.554688 C 321.835938 630.476562 323.972656 632.121094 326.226562 634.863281 C 326.804688 635.566406 327.753906 636.140625 328.335938 636.140625 C 328.914062 636.140625 330.730469 636.773438 332.367188 637.546875 C 334 638.320312 335.898438 638.957031 336.582031 638.957031 C 337.691406 638.957031 339.914062 639.898438 343.6875 641.949219 C 344.339844 642.296875 345.914062 642.945312 347.203125 643.390625 C 352.726562 645.285156 354.363281 645.9375 356.574219 647.121094 C 358.652344 648.234375 359.238281 648.339844 361.789062 648.066406 C 364.6875 647.757812 365.601562 647.949219 373.449219 650.539062 C 374.734375 650.964844 378.113281 651.484375 380.949219 651.695312 C 390.355469 652.394531 400.109375 653.632812 401.953125 654.363281 C 402.675781 654.652344 404.046875 654.886719 405 654.886719 C 405.949219 654.886719 407.46875 655.125 408.371094 655.421875 C 409.269531 655.71875 412.222656 656.101562 414.925781 656.28125 C 417.632812 656.457031 420.121094 656.636719 420.449219 656.679688 C 420.792969 656.726562 421.839844 656.371094 422.796875 655.890625 Z M 405.5625 598.996094 C 418.953125 599.226562 418.257812 599.269531 421.949219 597.929688 C 424.886719 596.863281 425.921875 596.703125 428.390625 596.933594 C 430.960938 597.175781 431.644531 597.054688 433.796875 595.96875 C 435.15625 595.285156 437.523438 594.359375 439.070312 593.90625 C 443.390625 592.648438 447.339844 591.214844 449.148438 590.246094 C 450.046875 589.761719 451.738281 589.117188 452.898438 588.8125 C 456.246094 587.9375 465.136719 583.308594 467.191406 581.367188 C 469.828125 578.878906 472.480469 576.917969 474.828125 575.726562 C 475.9375 575.167969 476.953125 574.421875 477.089844 574.070312 C 477.238281 573.71875 478.492188 572.660156 479.910156 571.722656 C 481.328125 570.777344 484.1875 568.386719 486.261719 566.402344 C 489.386719 563.421875 490.367188 562.109375 491.9375 558.8125 C 492.984375 556.625 494.101562 554.011719 494.425781 553.007812 C 494.75 552.007812 495.664062 550.515625 496.46875 549.691406 C 497.5 548.621094 498.027344 547.515625 498.292969 545.839844 C 498.5 544.542969 499.117188 542.75 499.679688 541.847656 C 500.507812 540.503906 500.742188 539.207031 500.980469 534.632812 C 501.128906 531.5625 501.570312 528.089844 501.9375 526.914062 C 502.527344 525.046875 502.515625 524.519531 501.9375 522.828125 C 501.496094 521.570312 501.246094 518.933594 501.214844 515.359375 C 501.214844 512.320312 501.214844 508.953125 501.066406 507.878906 C 501.066406 506.800781 501.378906 504.550781 501.832031 502.882812 C 502.617188 500.015625 502.617188 499.320312 501.832031 490.15625 C 501.230469 482.527344 501.183594 480.074219 501.613281 478.632812 C 502.054688 477.132812 502.027344 476.382812 501.390625 474.441406 C 500.757812 472.484375 500.726562 471.675781 501.171875 469.761719 C 501.570312 468.015625 501.570312 467 501.160156 465.621094 C 500.394531 463.0625 500.484375 460.527344 501.414062 457.925781 C 502.121094 455.945312 502.136719 455.4375 501.574219 453.472656 C 500.453125 449.625 500.4375 447.117188 501.574219 444.675781 C 502.742188 442.042969 502.753906 441.601562 501.871094 438.050781 C 501.339844 435.957031 501.265625 434.007812 501.53125 429.722656 C 501.828125 424.96875 501.75 423.773438 501.042969 421.773438 C 500.097656 419.105469 499.996094 416.890625 500.703125 414.371094 C 501.027344 413.207031 501.027344 411.699219 500.703125 409.757812 C 500.171875 406.4375 501.117188 394.945312 502.121094 392.769531 C 502.605469 391.6875 502.578125 391.058594 501.929688 389.007812 C 501.335938 387.121094 501.160156 384.902344 501.21875 379.53125 C 501.21875 375.671875 501.070312 370.890625 500.910156 368.90625 C 500.644531 366.433594 500.703125 364.886719 501.070312 363.984375 C 502.324219 360.945312 501.941406 345.964844 500.394531 337.515625 C 500.183594 336.40625 500.394531 335.023438 500.804688 333.632812 C 501.21875 332.441406 501.46875 331.214844 501.382812 330.902344 C 501.234375 330.589844 500.953125 328.527344 500.644531 326.316406 C 500.203125 323.1875 500.1875 321.917969 500.644531 320.605469 C 501.058594 319.328125 501.074219 318.207031 500.644531 316.042969 C 500.214844 313.671875 500.261719 312.726562 500.882812 310.574219 C 501.871094 307.195312 501.898438 304.140625 501.027344 301.488281 C 499.921875 298.265625 500.144531 285.449219 501.355469 283.425781 C 502.105469 282.167969 502.136719 281.667969 501.695312 279.539062 C 500.972656 276.15625 501.042969 273.34375 501.914062 270.773438 C 502.917969 267.804688 502.492188 267.441406 498.71875 268.132812 C 497.105469 268.429688 493.464844 268.6875 490.628906 268.703125 C 487.792969 268.71875 484.523438 268.761719 483.363281 268.777344 C 481.011719 268.835938 473 268.023438 471.160156 267.550781 C 470.363281 267.34375 469.140625 267.636719 467.414062 268.4375 C 464.496094 269.792969 461.488281 269.980469 458.648438 268.980469 C 457.21875 268.476562 455.925781 268.417969 453.09375 268.734375 C 450.6875 269.003906 448.773438 268.976562 447.582031 268.660156 C 446.34375 268.324219 445.070312 268.320312 443.589844 268.644531 C 439.375 269.5625 433.769531 269.644531 424.875 268.925781 C 419.925781 268.527344 413.085938 268.261719 409.667969 268.332031 C 406.253906 268.40625 400.9375 268.230469 397.859375 267.929688 L 392.261719 267.394531 L 387.871094 268.84375 C 383.773438 270.199219 383.335938 270.253906 381.285156 269.695312 C 379.058594 269.089844 372.394531 268.996094 361.039062 269.410156 C 356.753906 269.570312 354.421875 269.441406 352.332031 268.914062 C 350.089844 268.351562 349.195312 268.316406 348.113281 268.742188 C 347.257812 269.078125 342.097656 269.367188 334.484375 269.503906 C 327.742188 269.621094 321.113281 269.976562 319.753906 270.277344 L 317.28125 270.824219 L 316.628906 274.570312 C 316.171875 277.242188 316.113281 278.785156 316.453125 279.953125 C 316.703125 280.855469 317.074219 283.121094 317.234375 284.984375 C 317.5 287.855469 317.398438 288.804688 316.511719 291.15625 C 315.582031 293.660156 315.523438 294.195312 316.027344 296.585938 C 316.765625 300.128906 316.1875 317.46875 315.273438 319.734375 C 314.445312 321.75 314.460938 323.230469 315.273438 326.960938 C 315.894531 329.660156 315.894531 330.226562 315.273438 332.480469 C 314.726562 334.3125 314.609375 335.816406 314.859375 338.054688 C 315.289062 342.046875 315.300781 344.546875 315.007812 357.699219 C 314.785156 366.640625 314.859375 369.011719 315.421875 370.585938 C 316.175781 372.703125 315.96875 374.71875 314.769531 377.253906 C 314.136719 378.585938 314.09375 379.339844 314.492188 381.777344 C 314.859375 383.984375 314.816406 385.605469 314.328125 388.402344 C 313.753906 391.707031 313.769531 392.320312 314.476562 394.125 C 315.082031 395.707031 315.171875 396.84375 314.890625 399.328125 C 314.699219 401.082031 314.582031 403.472656 314.625 404.644531 C 314.625 405.90625 314.328125 407.78125 313.753906 409.226562 C 313 411.152344 312.796875 412.691406 312.808594 416.464844 C 312.820312 419.101562 312.808594 425.054688 312.660156 429.695312 C 312.511719 435.175781 312.660156 438.976562 313.058594 440.542969 C 313.457031 442.234375 313.5 443.96875 313.207031 446.339844 C 312.96875 448.199219 312.882812 449.886719 313 450.089844 C 313.265625 450.507812 313.886719 463.179688 313.828125 466.796875 C 313.828125 468.128906 313.457031 470.371094 313.042969 471.777344 C 312.4375 473.859375 312.410156 474.632812 312.851562 475.917969 C 313.457031 477.628906 313.53125 483.097656 313.042969 489.453125 C 312.628906 494.714844 312.628906 494.820312 313.042969 498.382812 C 313.324219 500.972656 313.21875 501.746094 312.410156 503.332031 C 311.050781 505.996094 310.894531 511.140625 312.101562 513.355469 C 313.265625 515.480469 313.265625 520.859375 312.101562 523.90625 C 311.554688 525.347656 311.378906 526.605469 311.597656 527.71875 C 311.777344 528.632812 311.996094 530.832031 312.101562 532.601562 C 312.246094 534.375 312.707031 536.832031 313.222656 538.0625 C 314.433594 540.972656 314.984375 543.316406 315.371094 547.238281 C 315.886719 552.511719 319.675781 559.144531 323.726562 561.898438 C 324.675781 562.542969 325.449219 563.222656 325.449219 563.414062 C 325.449219 563.605469 326.394531 564.78125 327.542969 566.039062 C 328.707031 567.3125 329.957031 569.292969 330.367188 570.527344 C 331.210938 573.085938 332.5 574.417969 334.828125 575.164062 C 335.746094 575.453125 337.449219 576.480469 338.628906 577.445312 C 339.808594 578.414062 341.746094 579.875 342.933594 580.699219 C 344.113281 581.523438 345.660156 583.105469 346.371094 584.214844 C 348.078125 586.890625 348.761719 587.40625 350.632812 587.40625 C 352.582031 587.40625 354.539062 588.382812 357.480469 590.835938 C 359.851562 592.808594 362.144531 593.472656 373.824219 595.578125 C 375.90625 595.953125 378.0625 596.667969 378.886719 597.253906 C 380.035156 598.070312 380.722656 598.222656 382.296875 598 C 388.296875 597.148438 389.257812 597.136719 390.96875 597.882812 C 394.035156 599.207031 395.933594 599.566406 398.089844 599.238281 C 399.257812 599.0625 402.625 598.957031 405.589844 599.007812 Z M 412.53125 520.164062 C 412.382812 520.046875 409.792969 519.851562 406.710938 519.734375 C 398.773438 519.433594 395.710938 518.148438 390.445312 512.90625 C 388.335938 510.808594 385.742188 508.703125 384.679688 508.234375 C 382.253906 507.164062 378.75 502.734375 377.125 498.6875 C 374.429688 491.96875 374.015625 481.234375 376.285156 476.78125 C 376.625 476.128906 377.039062 474.757812 377.230469 473.734375 C 377.730469 470.984375 380.960938 464.835938 382.460938 463.777344 C 383.183594 463.269531 385.621094 461.855469 387.886719 460.636719 C 390.152344 459.414062 392.894531 457.667969 393.980469 456.757812 C 396.863281 454.339844 398.46875 453.828125 403.582031 453.707031 L 408.152344 453.601562 L 411.191406 455.863281 C 414.785156 458.539062 415.871094 460.273438 415.871094 463.335938 C 415.871094 466.351562 415.03125 468.140625 412.277344 470.992188 C 409.886719 473.464844 407.757812 474.324219 405.453125 473.746094 C 403.949219 473.367188 402.355469 474.058594 400.402344 475.929688 C 399.503906 476.796875 398.253906 477.835938 397.628906 478.242188 C 396.695312 478.84375 396.402344 479.582031 396.035156 482.226562 C 395.785156 484.011719 395.5625 486.8125 395.535156 488.453125 C 395.535156 491.117188 395.535156 491.519531 396.625 492.203125 C 397.246094 492.625 399.332031 494.484375 401.25 496.335938 L 404.738281 499.699219 L 408.082031 499.453125 C 409.917969 499.320312 412.160156 499.015625 413.0625 498.785156 C 413.960938 498.550781 415.441406 498.355469 416.339844 498.34375 C 417.773438 498.328125 418.160156 498.046875 419.324219 496.207031 C 420.738281 493.976562 420.785156 493.089844 419.824219 485.6875 C 419.617188 484.058594 419.824219 482.753906 420.8125 480.066406 C 421.507812 478.140625 422.246094 475.40625 422.433594 473.988281 C 422.9375 470.289062 423.75 467.621094 424.539062 466.957031 C 425.648438 466.039062 428.304688 466.789062 429.667969 468.410156 C 430.332031 469.195312 432.089844 470.753906 433.585938 471.878906 C 436.808594 474.300781 436.90625 474.472656 439.308594 481.8125 C 441.519531 488.554688 441.664062 490.984375 440.046875 494.078125 C 439.371094 495.367188 438.835938 497.3125 438.71875 498.875 C 438.570312 500.648438 438.042969 502.4375 437.019531 504.414062 C 435.023438 508.253906 432.601562 512 431.511719 512.945312 C 430.253906 514.03125 423.351562 517.574219 422.472656 517.582031 C 422.058594 517.582031 420.804688 518.222656 419.667969 518.988281 C 418.035156 520.09375 417.097656 520.386719 415.175781 520.386719 C 413.835938 520.386719 412.648438 520.28125 412.527344 520.167969 Z M 402.480469 432.738281 C 400.65625 432.542969 398.46875 432.023438 397.617188 431.582031 C 396.761719 431.140625 395.039062 430.476562 393.78125 430.101562 C 388.164062 428.433594 380.726562 421.914062 379.996094 418.019531 C 379.832031 417.179688 379.078125 415.773438 378.316406 414.894531 C 375.65625 411.839844 375.492188 411.199219 375.578125 403.996094 C 375.578125 400.34375 375.429688 396.359375 375.3125 395.136719 C 375.019531 393.207031 375.152344 392.535156 376.421875 389.980469 C 377.21875 388.367188 377.984375 386.292969 378.128906 385.375 C 378.558594 382.625 382.773438 377.949219 386.257812 376.347656 C 388.21875 375.441406 389.746094 374.296875 391.027344 372.765625 C 393.21875 370.148438 396.03125 368.789062 398.253906 369.277344 C 400.097656 369.683594 405.910156 372.5 407.125 373.578125 C 408.234375 374.558594 410.0625 378.53125 410.511719 380.914062 C 410.984375 383.40625 409.671875 386.542969 407.546875 387.980469 C 406.515625 388.683594 404.527344 389.351562 402.398438 389.707031 C 399.300781 390.226562 398.792969 390.464844 397.617188 391.949219 C 395.957031 394.042969 395.136719 398.835938 395.566406 403.902344 L 395.875 407.488281 L 397.792969 408.460938 C 398.855469 408.996094 400.386719 410.019531 401.210938 410.738281 C 402.15625 411.5625 403.703125 412.25 405.429688 412.601562 C 406.925781 412.910156 408.847656 413.371094 409.695312 413.621094 C 411.023438 414.019531 411.679688 413.867188 414.457031 412.515625 C 417.246094 411.160156 417.9375 410.554688 419.609375 408 C 421.886719 404.527344 424.042969 398.882812 423.664062 397.378906 C 423.515625 396.796875 422.601562 395.769531 421.625 395.09375 C 420.648438 394.417969 419.457031 393.171875 418.972656 392.328125 C 418.488281 391.484375 417.320312 389.847656 416.363281 388.6875 C 413.335938 385 412.882812 383.203125 414.195312 380.0625 C 415.375 377.242188 419.925781 374.515625 423.460938 374.515625 C 427.894531 374.515625 437.445312 380.167969 437.445312 382.785156 C 437.445312 383.148438 438.253906 384.472656 439.246094 385.726562 C 440.234375 386.976562 441.324219 388.527344 441.667969 389.164062 C 442.597656 390.917969 443.085938 401.082031 442.347656 403.683594 C 442.023438 404.84375 441.625 406.777344 441.449219 407.980469 C 441.269531 409.289062 440.59375 410.941406 439.75 412.089844 C 438.984375 413.148438 437.941406 415.136719 437.425781 416.503906 C 436.910156 417.875 435.949219 419.5 435.300781 420.117188 C 434.632812 420.738281 433.683594 421.921875 433.171875 422.75 C 432.65625 423.578125 431.460938 424.734375 430.507812 425.320312 C 429.546875 425.90625 427.800781 427.375 426.617188 428.585938 C 424.824219 430.414062 424.066406 430.847656 422.164062 431.125 C 420.894531 431.308594 419.132812 431.730469 418.230469 432.058594 C 416.183594 432.8125 406.910156 433.210938 402.496094 432.738281 Z M 405.238281 351.046875 C 397.277344 346.992188 396.457031 345.695312 396.4375 337.132812 C 396.4375 327.566406 398.488281 323.492188 404.539062 321.230469 C 406.71875 320.414062 408.054688 320.203125 409.867188 320.375 C 412.050781 320.585938 412.527344 320.855469 414.75 323.128906 C 416.109375 324.519531 418.003906 326.285156 418.964844 327.054688 C 421.359375 328.972656 422.945312 332.625 423.421875 337.320312 C 423.921875 342.242188 423.421875 344.160156 420.867188 346.660156 C 419.773438 347.734375 418.300781 349.40625 417.589844 350.375 C 414.691406 354.308594 411.941406 354.460938 405.238281 351.046875 Z M 524.425781 425.050781 C 525.460938 424.175781 527.125 423.226562 528.144531 422.949219 C 533.761719 421.410156 538.570312 418.332031 537.9375 416.679688 C 537.789062 416.347656 537.9375 412.503906 538.160156 408.144531 C 538.527344 401.601562 538.484375 399.476562 537.878906 396 C 537.4375 393.40625 537.273438 390.878906 537.464844 389.417969 C 537.640625 388.113281 537.773438 386.625 537.773438 386.109375 C 537.773438 377.667969 537.40625 369.109375 537.109375 368.652344 C 536.519531 367.75 532.425781 367.949219 529.730469 369.011719 C 527.90625 369.734375 526.773438 369.886719 525.03125 369.65625 C 521.800781 369.230469 521.144531 369.863281 521.539062 373.027344 C 521.746094 374.738281 521.6875 375.96875 521.140625 377.160156 C 520.609375 378.421875 520.433594 380.695312 520.417969 386 C 520.417969 389.925781 520.417969 393.984375 520.417969 395.015625 C 520.417969 396.042969 520.566406 400.367188 520.804688 404.613281 C 521.15625 410.996094 521.113281 412.691406 520.539062 414.359375 C 520.078125 415.683594 519.917969 417.53125 520.050781 419.753906 C 520.242188 423.039062 521.367188 426.648438 522.1875 426.648438 C 522.410156 426.648438 523.429688 425.929688 524.464844 425.050781 Z M 293.71875 422.550781 C 293.878906 421.582031 294.015625 419.675781 294.015625 418.308594 C 294.015625 416.941406 294.351562 415.179688 294.765625 414.394531 C 295.460938 413.050781 295.445312 412.8125 294.472656 410.5625 C 293.378906 408.007812 293.394531 407.339844 294.957031 397.425781 C 295.28125 395.417969 295.210938 393.613281 294.691406 390.691406 C 294.058594 387.066406 294.070312 386.433594 294.839844 383.828125 C 296.15625 378.972656 296.425781 375.664062 295.683594 373.566406 C 295.3125 372.539062 295.015625 370.273438 295.015625 368.527344 C 295.015625 364.316406 295.195312 364.375 287.984375 366.417969 C 285.164062 367.214844 282.542969 367.050781 279.042969 365.859375 C 276.632812 365.035156 271.597656 365.363281 271.5625 366.34375 C 271.554688 366.648438 271.417969 368.851562 271.355469 371.242188 C 271.207031 374.109375 271.355469 376.101562 271.769531 377.101562 C 272.15625 378.046875 272.390625 381.015625 272.433594 385.039062 C 272.433594 389.695312 272.714844 392.136719 273.289062 393.898438 C 273.96875 395.984375 274 396.675781 273.511719 398.722656 C 273.1875 400.035156 272.757812 404.378906 272.539062 408.375 C 272.152344 415.484375 272.167969 415.675781 273.214844 417.304688 C 274.085938 418.652344 274.746094 419.074219 276.6875 419.519531 C 278 419.824219 280.027344 419.945312 281.1875 419.785156 C 284.101562 419.382812 287.007812 420.3125 289.628906 422.480469 C 292.476562 424.835938 293.402344 424.851562 293.78125 422.554688 Z M 320.417969 214.015625 C 321.316406 212.898438 324.515625 209.699219 334.589844 199.828125 C 337.542969 196.9375 338.632812 196.335938 342.363281 195.535156 C 344.292969 195.121094 344.765625 194.765625 346.03125 192.796875 C 347.109375 191.121094 348.121094 190.230469 349.929688 189.375 C 351.273438 188.738281 353.789062 186.9375 355.515625 185.371094 C 357.308594 183.746094 359.375 182.328125 360.339844 182.0625 C 361.269531 181.804688 362.832031 180.898438 363.816406 180.042969 C 364.792969 179.1875 366.914062 177.433594 368.519531 176.144531 C 370.125 174.855469 371.855469 173.222656 372.359375 172.515625 C 372.863281 171.808594 374.710938 170.398438 376.453125 169.378906 C 379.679688 167.496094 381.074219 166.269531 380.578125 165.769531 C 380.164062 165.347656 374.089844 168.308594 372.753906 169.585938 C 372.105469 170.203125 370.75 171.054688 369.730469 171.480469 C 368.714844 171.902344 366.925781 173.265625 365.746094 174.503906 C 364.421875 175.910156 362.964844 176.9375 361.882812 177.226562 C 360.941406 177.484375 359.425781 178.253906 358.53125 178.933594 C 357.632812 179.617188 356.097656 180.296875 355.105469 180.449219 C 352.449219 180.859375 351.910156 181.257812 349.597656 184.496094 C 347.3125 187.699219 347.382812 187.648438 340.902344 190.460938 C 338.464844 191.515625 335.722656 193.050781 334.8125 193.871094 C 333.894531 194.691406 331.324219 196.386719 329.089844 197.636719 C 326.859375 198.882812 323.800781 200.949219 322.292969 202.222656 C 320.792969 203.5 318.539062 204.898438 317.289062 205.339844 C 316.050781 205.78125 314.832031 206.492188 314.601562 206.917969 C 314.082031 207.886719 313.878906 213.96875 314.347656 214.726562 C 314.539062 215.035156 315.738281 215.28125 317.042969 215.28125 C 319.03125 215.28125 319.550781 215.085938 320.414062 214.015625 Z M 374.664062 213.300781 C 375.179688 210.296875 378.382812 205.625 380.871094 204.230469 C 381.828125 203.691406 383.109375 202.582031 383.714844 201.761719 C 384.316406 200.941406 385.632812 199.675781 386.632812 198.949219 C 387.636719 198.222656 388.757812 197.257812 389.128906 196.808594 C 389.496094 196.359375 390.789062 195.488281 392 194.878906 C 394.167969 193.78125 395.144531 192.59375 394.3125 192.082031 C 393.515625 191.585938 390.691406 193.144531 388.066406 195.523438 C 386.425781 197.007812 384.707031 198.09375 383.453125 198.429688 C 382.359375 198.726562 380.855469 199.46875 380.128906 200.082031 C 379.402344 200.695312 377.769531 201.503906 376.503906 201.878906 C 375.234375 202.253906 373.40625 203.101562 372.433594 203.765625 C 371.457031 204.425781 370.492188 204.96875 370.285156 204.96875 C 370.078125 204.96875 368.402344 206.023438 366.566406 207.316406 C 364.730469 208.605469 362.4375 209.875 361.472656 210.132812 C 359.535156 210.65625 355.335938 213.320312 355.058594 214.203125 C 354.851562 214.886719 358.410156 215.09375 367.832031 214.941406 L 374.394531 214.835938 Z M 424.140625 213.65625 C 424.789062 213.199219 425.304688 212.050781 425.664062 210.1875 C 426.269531 207.105469 427.433594 205.316406 429.523438 204.234375 C 430.292969 203.839844 431.925781 202.464844 433.167969 201.175781 L 435.429688 198.832031 L 433.96875 199.148438 C 433.167969 199.320312 431.730469 200.164062 430.777344 201.019531 C 428.464844 203.09375 427.128906 203.734375 422.5 204.980469 C 418.65625 206.015625 418.558594 206.078125 417 208.515625 C 416.128906 209.882812 415.199219 211.132812 414.9375 211.292969 C 413.242188 212.339844 416.015625 213.6875 420.558594 214.023438 C 421.722656 214.109375 422.777344 214.214844 422.914062 214.257812 C 423.0625 214.304688 423.59375 214.035156 424.136719 213.65625 Z M 477.636719 213.585938 C 481.574219 213.410156 484.910156 213.082031 485.046875 212.863281 C 485.195312 212.640625 484.855469 211.847656 484.324219 211.097656 C 483.792969 210.347656 483.21875 208.769531 483.054688 207.585938 C 482.714844 205.132812 482.316406 204.992188 479.597656 206.378906 C 478.578125 206.898438 475.691406 208.066406 473.175781 208.980469 C 469.148438 210.4375 466.015625 212.394531 466.015625 213.457031 C 466.015625 213.980469 467.492188 214.285156 469.0625 214.082031 C 469.828125 213.980469 473.691406 213.761719 477.628906 213.585938 Z M 502.503906 213.09375 C 503.964844 212.835938 504.054688 212.710938 503.789062 211.410156 C 503.628906 210.636719 503.507812 208.765625 503.507812 207.253906 C 503.507812 205.738281 503.300781 204.5 503.050781 204.5 C 502.800781 204.5 501.765625 205.714844 500.761719 207.195312 C 499.683594 208.777344 498.011719 210.460938 496.71875 211.273438 C 494.667969 212.558594 494.574219 212.699219 495.375 213.296875 C 496.21875 213.925781 498.109375 213.871094 502.492188 213.09375 Z M 320.707031 177.109375 C 322.324219 175.703125 324.257812 174.421875 324.996094 174.261719 C 326.703125 173.886719 329.46875 171.785156 333.109375 168.097656 C 334.679688 166.507812 336.832031 164.777344 337.886719 164.257812 C 338.949219 163.738281 340.160156 162.769531 340.59375 162.109375 C 341.34375 160.957031 341.34375 160.914062 340.414062 160.914062 C 339.886719 160.914062 338.457031 161.820312 337.242188 162.929688 C 336.003906 164.058594 333.613281 165.539062 331.816406 166.289062 C 330.046875 167.023438 328.042969 168.085938 327.363281 168.648438 C 325.320312 170.339844 322.097656 171.996094 318.703125 173.101562 C 315.539062 174.128906 315.496094 174.164062 315.769531 175.554688 C 315.917969 176.332031 316.050781 177.574219 316.050781 178.3125 C 316.050781 180.363281 317.335938 180.03125 320.710938 177.109375 Z M 502.742188 174.039062 C 503.347656 170.996094 501.664062 170.308594 500.109375 172.96875 C 499.0625 174.761719 499.34375 175.441406 501.144531 175.441406 C 502.234375 175.441406 502.515625 175.199219 502.746094 174.039062 Z M 347.503906 155.855469 C 346.886719 155.644531 345.109375 157.039062 345.109375 157.738281 C 345.109375 157.972656 345.773438 157.691406 346.59375 157.105469 C 347.464844 156.488281 347.835938 155.964844 347.507812 155.851562 Z M 353.910156 152.171875 C 355.195312 151.363281 354.824219 150.4375 353.378906 150.871094 C 352.199219 151.234375 350.726562 152.4375 350.726562 153.050781 C 350.726562 153.570312 352.441406 153.09375 353.902344 152.171875 Z M 319.941406 148.613281 C 321.746094 147.652344 323.28125 146.394531 324.140625 145.175781 C 324.878906 144.121094 326.507812 142.664062 327.75 141.941406 C 329.066406 141.175781 330.472656 139.847656 331.113281 138.777344 C 333.003906 135.628906 334.257812 134.328125 336.796875 132.886719 C 339 131.636719 341.984375 129.042969 341.222656 129.042969 C 341.0625 129.042969 339.921875 129.675781 338.707031 130.449219 C 337.4375 131.257812 335.851562 131.855469 334.984375 131.855469 C 333.953125 131.855469 332.867188 132.367188 331.527344 133.484375 C 328.851562 135.722656 326.710938 136.203125 321.210938 135.816406 L 316.644531 135.492188 L 315.816406 138.140625 C 315.078125 140.5 315.050781 141.011719 315.640625 142.765625 C 315.996094 143.851562 316.273438 145.957031 316.246094 147.4375 C 316.246094 148.917969 316.394531 150.132812 316.644531 150.132812 C 316.894531 150.132812 318.378906 149.449219 319.949219 148.613281 Z M 502.738281 144.285156 C 503.035156 140.835938 502.546875 138.1875 501.660156 138.496094 C 501.425781 138.585938 500.730469 139.386719 500.125 140.289062 C 499.519531 141.191406 497.976562 142.617188 496.699219 143.457031 C 495.417969 144.296875 494.300781 145.191406 494.214844 145.449219 C 494.066406 145.710938 494.953125 145.914062 496.097656 145.914062 C 497.246094 145.914062 498.851562 146.3125 499.769531 146.824219 C 500.667969 147.328125 501.632812 147.75 501.917969 147.761719 C 502.226562 147.777344 502.554688 146.378906 502.730469 144.285156 Z M 375.382812 136.960938 C 376.875 135.304688 378.910156 134.046875 381.402344 133.238281 C 383.277344 132.625 384.101562 132.007812 385.355469 130.265625 C 387.371094 127.464844 386.945312 126.972656 384.617188 129.414062 C 383.4375 130.65625 382.121094 131.480469 380.71875 131.851562 C 379.195312 132.257812 377.929688 133.109375 376.152344 134.925781 C 374.792969 136.308594 373.691406 137.554688 373.691406 137.691406 C 373.691406 138.257812 374.53125 137.890625 375.375 136.960938 Z M 346.511719 125.0625 C 347.117188 124.417969 347.488281 123.773438 347.339844 123.625 C 346.96875 123.253906 345.359375 124.316406 344.703125 125.363281 C 343.859375 126.703125 345.175781 126.484375 346.511719 125.0625 Z M 482.492188 119.214844 C 483.582031 118.304688 483.582031 118.292969 482.640625 118.28125 C 482.09375 118.269531 481.140625 118.679688 480.53125 119.1875 C 479.441406 120.097656 479.441406 120.109375 480.382812 120.121094 C 480.929688 120.132812 481.886719 119.722656 482.496094 119.214844 Z M 320.074219 114.539062 C 321.582031 112.253906 322.691406 111.507812 326.003906 110.546875 C 328.90625 109.703125 329.738281 108.972656 330.839844 106.296875 C 331.929688 103.660156 333.183594 102.457031 336.738281 100.660156 C 338.792969 99.625 340.472656 98.332031 341.660156 96.878906 C 342.652344 95.664062 344.628906 93.464844 346.046875 91.984375 C 347.460938 90.503906 349.078125 88.6875 349.632812 87.941406 C 350.269531 87.09375 351.492188 86.324219 352.910156 85.882812 C 354.53125 85.378906 355.484375 84.726562 356.246094 83.59375 C 357.5 81.734375 357.117188 81.109375 355.003906 81.535156 C 353.824219 81.769531 353.089844 82.414062 351.839844 84.304688 C 350.25 86.695312 350.039062 86.828125 344.496094 89 C 337.929688 91.574219 336.203125 92.6875 330.601562 97.949219 C 326.433594 101.871094 324.792969 102.6875 318.503906 103.972656 L 316.96875 104.285156 L 317.25 109.285156 C 317.691406 117.222656 317.972656 117.742188 320.085938 114.539062 Z M 495.3125 114.890625 C 496.347656 114.378906 498.242188 113.816406 499.53125 113.640625 L 501.875 113.324219 L 501.726562 111.222656 C 501.582031 108.3125 500.621094 103.761719 500.09375 103.4375 C 499.855469 103.289062 499.089844 103.691406 498.402344 104.332031 C 497.707031 104.972656 496.570312 105.792969 495.863281 106.15625 C 495.152344 106.515625 494.085938 107.523438 493.484375 108.398438 C 492.878906 109.273438 491.355469 110.539062 490.085938 111.207031 C 488.546875 112.023438 487.511719 112.972656 486.980469 114.058594 C 486.539062 114.953125 486.167969 115.796875 486.15625 115.929688 C 486.15625 116.59375 493.550781 115.742188 495.269531 114.890625 Z M 484.054688 81.058594 C 487.046875 79.414062 490.433594 77.808594 491.578125 77.488281 C 494.753906 76.597656 494.960938 76.050781 493.171875 73.289062 C 492.328125 71.992188 491.519531 70.9375 491.367188 70.949219 C 490.570312 71.007812 486.617188 75.183594 485.777344 76.855469 C 484.816406 78.773438 481.84375 80.773438 479.960938 80.773438 C 479.152344 80.773438 477.738281 82.46875 477.738281 83.453125 C 477.738281 84.429688 478.359375 84.199219 484.054688 81.0625 Z M 364.820312 78.878906 C 365.988281 78.25 366.078125 76.78125 364.96875 77.253906 C 364.511719 77.433594 363.566406 77.792969 362.863281 78.050781 C 362.152344 78.308594 361.695312 78.707031 361.84375 78.941406 C 362.195312 79.507812 363.773438 79.476562 364.890625 78.882812 Z M 326.34375 68.148438 C 326.933594 67.046875 326.949219 66.710938 326.492188 66.710938 C 326.269531 66.710938 325.859375 67.238281 325.5625 67.882812 C 324.941406 69.261719 325.710938 69.496094 326.402344 68.148438 Z M 333.492188 59.070312 C 335.148438 57.195312 337.132812 55.566406 338.9375 54.601562 C 340.503906 53.769531 342.21875 52.515625 342.75 51.816406 C 349.457031 43.015625 350.042969 42.484375 354.246094 41.417969 C 357.292969 40.648438 359.140625 39.234375 360.179688 36.886719 C 360.695312 35.707031 360.945312 34.570312 360.726562 34.359375 C 360.503906 34.152344 358.78125 34.722656 356.886719 35.628906 C 354.46875 36.78125 352.574219 38.15625 350.539062 40.230469 C 348.453125 42.359375 347.09375 43.335938 345.6875 43.710938 C 344.390625 44.0625 343.386719 44.738281 342.664062 45.75 C 342.078125 46.578125 340.003906 48.84375 338.0625 50.773438 C 334.824219 54 330.492188 59.523438 329.8125 61.292969 C 329.164062 62.972656 331.023438 61.84375 333.480469 59.070312 Z M 422.488281 55.5625 C 423.875 54.84375 425.785156 53.503906 426.726562 52.589844 C 427.730469 51.617188 429.679688 50.472656 431.417969 49.839844 C 433.050781 49.242188 435.839844 47.789062 437.609375 46.601562 C 443.863281 42.417969 445.664062 41.382812 447.792969 40.738281 C 448.972656 40.382812 450.769531 39.671875 451.777344 39.160156 C 452.78125 38.648438 454.765625 37.988281 456.1875 37.695312 C 460.03125 36.894531 460.296875 36.644531 459.359375 34.675781 C 458.929688 33.777344 458.089844 32.894531 457.503906 32.707031 C 456.914062 32.523438 455.578125 31.773438 454.546875 31.039062 C 453.511719 30.304688 451.722656 29.410156 450.5625 29.046875 C 449.394531 28.6875 448.113281 28.246094 447.6875 28.074219 C 447.113281 27.835938 446.535156 28.378906 445.398438 30.234375 C 444.558594 31.597656 440.949219 35.582031 437.375 39.089844 C 433.800781 42.59375 430.875 45.691406 430.875 45.972656 C 430.875 47.101562 428.269531 49.472656 425.550781 50.824219 C 421.417969 52.871094 419.628906 54.355469 419.628906 55.71875 C 419.628906 56.351562 419.777344 56.867188 419.789062 56.867188 C 419.9375 56.867188 421.089844 56.28125 422.484375 55.5625 Z M 475.644531 52.4375 C 476.546875 52.066406 477.273438 51.628906 477.273438 51.46875 C 477.273438 51.3125 476.753906 50.507812 476.136719 49.6875 C 475.515625 48.863281 474.777344 47.597656 474.492188 46.867188 C 474.210938 46.140625 473.753906 45.621094 473.457031 45.71875 C 473.03125 45.867188 471.242188 51.429688 471.195312 52.765625 C 471.195312 53.359375 473.933594 53.15625 475.648438 52.4375 Z M 389.667969 36.902344 C 390.96875 35.503906 395.734375 33.007812 399.378906 31.8125 C 400.753906 31.367188 402.796875 30.195312 403.933594 29.210938 C 405.070312 28.226562 407.195312 26.976562 408.65625 26.429688 C 410.117188 25.878906 412.175781 24.695312 413.230469 23.792969 C 414.28125 22.894531 416.101562 21.875 417.269531 21.535156 L 419.390625 20.917969 L 416.582031 20.570312 C 413.445312 20.183594 411.859375 20.183594 405.980469 20.578125 C 402.890625 20.785156 401.53125 20.667969 400.183594 20.113281 C 397.78125 19.109375 397.46875 19.15625 395.003906 20.894531 C 392.863281 22.402344 392.824219 22.410156 387.84375 22.277344 C 384.113281 22.175781 382.972656 22.277344 383.367188 22.675781 C 383.664062 22.964844 385.242188 23.320312 386.882812 23.460938 C 388.523438 23.609375 390.128906 23.929688 390.449219 24.183594 C 390.773438 24.4375 391.039062 25.449219 391.039062 26.429688 C 391.039062 28.160156 390.40625 29.207031 388.828125 30.09375 C 388.328125 30.371094 387.960938 31.480469 387.738281 33.285156 C 387.5625 34.808594 387.265625 36.519531 387.089844 37.089844 C 386.613281 38.582031 388.210938 38.46875 389.667969 36.90625 Z M 389.667969 36.902344 " fill-opacity="1" fill-rule="nonzero"/></svg>