<svg xmlns="http://www.w3.org/2000/svg" xmlns:xlink="http://www.w3.org/1999/xlink" width="1080" zoomAndPan="magnify" viewBox="0 0 810 809.999993" height="1080" preserveAspectRatio="xMidYMid meet" version="1.0"><defs><clipPath id="3ecfb5eeff"><path d="M 92.644531 0 L 717.394531 0 L 717.394531 810 L 92.644531 810 Z M 92.644531 0 " clip-rule="nonzero"/></clipPath></defs><rect x="-81" width="972" fill="#ffffff" y="-80.999999" height="971.999992" fill-opacity="1"/><rect x="-81" width="972" fill="#ffffff" y="-80.999999" height="971.999992" fill-opacity="1"/><g clip-path="url(#3ecfb5eeff)"><path fill="#3c3738" d="M 555.566406 809.195312 C 553.929688 808.609375 552.527344 808.570312 547.914062 808.988281 C 542.628906 809.464844 542.109375 809.429688 539.785156 808.433594 C 537.496094 807.445312 537.160156 807.421875 535.417969 808.09375 C 532.894531 809.070312 504.726562 809 502.675781 808.015625 C 501.574219 807.488281 501.097656 807.523438 499.742188 808.230469 C 498.777344 808.726562 497.214844 809.023438 495.917969 808.949219 C 493.210938 808.808594 486.609375 808.824219 483.078125 808.980469 C 481.378906 809.0625 479.5625 808.75 477.941406 808.109375 C 475.78125 807.25 474.894531 807.171875 471.433594 807.535156 C 456.492188 809.105469 454.597656 809.175781 451.867188 808.246094 C 450.03125 807.621094 448.75 807.472656 447.570312 807.75 C 446.65625 807.96875 443.074219 808.210938 439.632812 808.285156 C 436.191406 808.363281 432.414062 808.578125 431.242188 808.769531 C 429.789062 809.007812 428.425781 808.863281 426.984375 808.347656 C 425.816406 807.925781 423.746094 807.445312 422.378906 807.277344 C 421.023438 807.109375 419.1875 806.714844 418.316406 806.402344 C 416.878906 805.882812 416.546875 805.96875 414.824219 807.28125 C 413.070312 808.621094 412.535156 808.75 407.9375 808.910156 C 404.007812 809.050781 402.546875 808.898438 401.03125 808.214844 C 399.59375 807.566406 398.621094 807.449219 397.207031 807.753906 C 394.683594 808.300781 390.375 808.519531 377.785156 808.746094 L 367.269531 808.933594 L 361.261719 805.972656 L 355.574219 807.414062 C 350.882812 808.601562 349.523438 808.769531 347.808594 808.371094 C 346.675781 808.109375 344.210938 808.023438 342.347656 808.191406 C 339.859375 808.410156 338.46875 808.285156 337.097656 807.710938 C 335.789062 807.164062 334.640625 807.042969 333.222656 807.308594 C 332.117188 807.519531 330.390625 807.625 329.382812 807.546875 C 328.375 807.46875 326.867188 807.761719 326.027344 808.195312 C 324.042969 809.222656 318.34375 809.199219 315.6875 808.148438 C 312.386719 806.847656 291.695312 806.539062 289.347656 807.753906 C 286.933594 809.003906 284.164062 809.160156 281.167969 808.21875 C 278.320312 807.320312 277.789062 807.332031 270.25 808.464844 C 267.503906 808.878906 266.445312 808.824219 264.550781 808.183594 C 262.683594 807.546875 261.792969 807.5 260.0625 807.933594 C 256.972656 808.714844 255.03125 808.601562 251.339844 807.441406 C 246.003906 805.765625 242.722656 805.6875 237.816406 807.121094 C 233.589844 808.359375 233.445312 808.363281 216.714844 808.179688 C 207.449219 808.085938 199.308594 807.78125 198.621094 807.519531 C 197.28125 807.007812 187.648438 807.566406 182.5 808.445312 C 180.472656 808.796875 178.910156 808.796875 177.621094 808.445312 C 176.582031 808.164062 174.578125 808.089844 173.171875 808.277344 C 171.71875 808.46875 169.179688 808.355469 167.28125 808.003906 C 164.558594 807.503906 163.402344 807.519531 160.945312 808.082031 C 158.574219 808.632812 156.519531 808.675781 151.179688 808.300781 C 146.28125 807.957031 143.433594 807.988281 140.839844 808.429688 C 137.4375 808.996094 137.101562 808.960938 134.117188 807.75 C 130.292969 806.195312 129.980469 806.1875 127.722656 807.578125 C 126.351562 808.421875 125.214844 808.675781 122.90625 808.636719 C 121.242188 808.605469 117.855469 808.558594 115.375 808.511719 C 112.894531 808.460938 109.996094 808.199219 108.925781 807.917969 C 107.855469 807.632812 105.113281 807.363281 102.824219 807.3125 C 98.996094 807.234375 98.542969 807.113281 97.183594 805.804688 C 96.363281 805.023438 95.457031 803.449219 95.160156 802.300781 C 94.230469 798.691406 94.230469 775.441406 95.160156 771.753906 C 95.554688 770.183594 95.445312 769.265625 94.53125 766.710938 L 93.410156 763.585938 L 94.339844 759.363281 C 95.429688 754.4375 95.394531 748.417969 94.179688 744.46875 C 93.488281 742.050781 93.488281 741.570312 94.179688 739.320312 C 94.796875 737.457031 94.875 736.371094 94.527344 734.972656 C 93.472656 730.824219 93.378906 726.507812 94.246094 723.390625 C 94.8125 721.375 95.003906 719.398438 94.828125 717.472656 C 94.671875 715.882812 94.828125 713.609375 95.082031 712.417969 C 95.507812 710.675781 95.429688 709.675781 94.703125 707.296875 C 93.914062 704.679688 93.867188 703.664062 94.339844 698.464844 C 94.78125 693.597656 94.75 692.351562 94.167969 691.214844 C 93.1875 689.3125 93.28125 687.277344 94.496094 684.195312 C 95.316406 682.097656 95.476562 680.84375 95.285156 678.039062 C 95.128906 676.105469 94.796875 671.289062 94.511719 667.339844 C 94.054688 661.066406 94.085938 659.964844 94.78125 658.621094 C 95.601562 657.023438 95.601562 656.558594 94.511719 647.976562 C 94.230469 645.773438 93.898438 638.058594 93.757812 630.828125 C 93.550781 620.257812 93.597656 617.21875 94.230469 615.304688 C 94.988281 612.785156 95.160156 604.816406 94.53125 600.402344 C 94.339844 599.027344 94.308594 597.054688 94.53125 596.023438 C 94.703125 594.988281 94.53125 592.058594 94.199219 589.511719 C 93.835938 586.964844 93.660156 584.410156 93.804688 583.835938 C 94.085938 582.652344 94.59375 548.0625 94.417969 541.5625 C 94.261719 535.949219 94.261719 534.667969 94.859375 529.042969 C 95.285156 524.679688 95.238281 524.121094 94.292969 522.28125 C 93.410156 520.582031 93.28125 519.601562 93.457031 515.773438 C 93.613281 513.292969 93.628906 510.25 93.613281 509.011719 C 93.347656 493.421875 93.140625 487.605469 92.824219 487.097656 C 92.621094 486.761719 92.824219 485.078125 93.21875 483.351562 C 93.648438 481.628906 93.992188 478.527344 94.007812 476.460938 C 94.007812 470.785156 93.628906 461.0625 93.234375 457.679688 C 92.96875 455.398438 93.078125 454.195312 93.710938 452.707031 C 94.417969 451.003906 94.449219 450.226562 93.929688 446.875 C 93.488281 443.992188 93.488281 442.300781 93.929688 440.242188 C 94.292969 438.410156 94.324219 436.914062 93.929688 435.8125 C 93.21875 433.324219 93.363281 426.210938 94.167969 423.769531 C 94.796875 421.882812 94.953125 419.765625 94.96875 413.488281 C 94.96875 412.59375 94.96875 410.058594 94.96875 407.855469 C 94.96875 405.648438 94.980469 403.113281 94.96875 402.21875 C 94.96875 401.324219 94.8125 398.015625 94.75 394.863281 C 94.558594 390.417969 94.75 388.347656 95.394531 385.628906 C 96.246094 382.253906 96.246094 382.058594 95.394531 380.09375 C 93.914062 376.835938 94.261719 373.609375 96.816406 366.652344 C 98.046875 363.316406 98.046875 363.222656 97.195312 361.140625 C 96.546875 359.578125 96.28125 357.195312 96.136719 352.015625 C 95.980469 348.160156 95.917969 344.214844 95.871094 343.253906 C 95.648438 338.859375 96.597656 326.222656 97.335938 323.554688 C 98.03125 321.097656 98.0625 320.179688 97.558594 317.765625 C 96.738281 313.828125 96.816406 312.3125 97.984375 309.757812 C 99.085938 307.339844 99.402344 301.355469 98.722656 295.882812 C 98.425781 293.402344 98.519531 292.515625 99.261719 291.125 C 100.285156 289.175781 100.679688 286.851562 101.714844 276.648438 C 102.46875 269.175781 103.257812 265.003906 104.671875 261.1875 C 105.222656 259.691406 105.472656 257.335938 105.472656 253.785156 C 105.472656 248.25 106.105469 245.847656 108.089844 243.730469 C 108.941406 242.828125 109.128906 242.058594 109.050781 239.917969 C 108.890625 237.585938 109.257812 236.628906 111.390625 232.472656 C 113.464844 228.433594 113.882812 227.140625 114.125 224.007812 C 114.597656 217.890625 119.449219 206.109375 122.722656 203.132812 C 124.15625 201.824219 124.511719 201.140625 124.511719 199.640625 C 124.511719 197.566406 125.929688 194.867188 127.445312 194.054688 C 128.089844 193.714844 128.628906 192.605469 128.992188 190.894531 C 129.320312 189.355469 130.1875 187.464844 131.085938 186.351562 C 131.921875 185.300781 132.832031 183.660156 133.097656 182.707031 C 133.363281 181.75 134.199219 180.246094 134.980469 179.355469 C 135.753906 178.46875 136.839844 176.703125 137.398438 175.433594 C 137.953125 174.160156 139.238281 172.472656 140.246094 171.675781 C 141.253906 170.882812 142.773438 169.027344 143.625 167.554688 C 144.472656 166.085938 146.773438 163.144531 148.734375 161.023438 C 150.695312 158.902344 153.011719 156.128906 153.878906 154.863281 C 155 153.234375 156.015625 152.382812 157.382812 151.9375 C 160.070312 151.058594 162.023438 149.429688 164.070312 146.359375 C 166.144531 143.25 168.328125 141.652344 171.15625 141.171875 C 173.378906 140.796875 176.101562 139.417969 178.089844 137.660156 C 179.824219 136.128906 180.949219 135.605469 184.382812 134.75 C 186.019531 134.34375 188.257812 133.667969 189.359375 133.253906 C 190.589844 132.785156 192.160156 132.601562 193.445312 132.769531 C 195.269531 133.011719 195.78125 132.835938 197.625 131.359375 C 199.410156 129.925781 200.117188 129.671875 202.304688 129.679688 C 204.847656 129.691406 205.386719 129.894531 211.933594 133.339844 C 213.335938 134.074219 215.8125 135.878906 217.441406 137.347656 C 219.070312 138.816406 221.527344 140.59375 222.898438 141.292969 C 224.269531 141.996094 226.773438 143.953125 228.464844 145.644531 C 231.253906 148.433594 231.617188 149.042969 232.316406 152.125 C 232.980469 155.027344 233.46875 155.914062 235.628906 158.203125 C 237.015625 159.675781 238.476562 161.632812 238.859375 162.550781 C 239.996094 165.273438 240.789062 167.636719 241.054688 169.109375 C 241.214844 169.945312 241.890625 170.839844 242.773438 171.359375 C 243.640625 171.875 244.78125 173.347656 245.570312 174.984375 C 246.292969 176.503906 247.414062 178.585938 248.050781 179.613281 C 249.328125 181.691406 249.5 183.003906 248.601562 183.902344 C 247.578125 184.933594 246.257812 184.578125 243.042969 182.40625 C 237.75 178.832031 237.445312 178.644531 236.308594 178.285156 C 235.695312 178.09375 234.78125 177.390625 234.257812 176.730469 C 232.742188 174.8125 228.382812 171.425781 224.234375 168.957031 C 221.367188 167.25 220.121094 166.160156 219.257812 164.601562 C 218.628906 163.457031 217.273438 162.035156 216.253906 161.4375 C 215.226562 160.84375 213.597656 159.46875 212.617188 158.390625 C 210.667969 156.242188 209.164062 155.792969 201.375 155.027344 C 199.171875 154.8125 196.824219 154.339844 196.160156 153.984375 C 194.28125 152.972656 190.121094 154.125 185.898438 156.847656 C 183.945312 158.101562 181.394531 159.417969 180.238281 159.769531 C 176.925781 160.769531 172.949219 164.035156 170.421875 167.828125 C 168.011719 171.449219 166.253906 173.296875 163.816406 174.765625 C 161.144531 176.375 159.011719 178.6875 157.757812 181.324219 C 157.078125 182.746094 155.972656 184.269531 155.292969 184.714844 C 154.472656 185.25 154.046875 185.992188 154.046875 186.894531 C 154.046875 188.691406 153.367188 189.894531 147.507812 198.566406 C 146.464844 200.105469 145.292969 202.132812 144.902344 203.074219 C 144.507812 204.015625 143.558594 205.523438 142.804688 206.421875 C 141.058594 208.492188 137.683594 215.429688 137.222656 217.898438 C 137.035156 218.929688 135.757812 223.050781 134.40625 227.050781 C 133.050781 231.054688 131.515625 236.15625 130.992188 238.386719 C 130.472656 240.613281 129.214844 244.332031 128.199219 246.648438 C 126.640625 250.207031 126.351562 251.445312 126.304688 254.652344 C 126.304688 257.976562 126.085938 258.667969 124.871094 260.25 C 123.703125 261.777344 123.5 262.542969 123.5 265.195312 C 123.5 268.902344 122.695312 275.644531 121.730469 280.015625 C 121.335938 281.816406 121.160156 284.199219 121.335938 285.648438 C 121.539062 287.425781 121.335938 288.824219 120.765625 290.445312 C 120.136719 292.074219 119.992188 293.375 120.230469 294.976562 C 120.46875 296.507812 120.230469 298 119.757812 299.679688 C 119.316406 301.03125 118.859375 303.785156 118.78125 305.792969 C 118.621094 307.804688 118.324219 312.605469 117.976562 316.460938 C 117.628906 320.316406 117.3125 326.289062 117.296875 329.730469 C 117.296875 333.171875 117.09375 336.242188 116.886719 336.546875 C 116.699219 336.855469 116.730469 338.367188 117.125 339.910156 C 117.660156 342.476562 117.613281 342.957031 116.523438 345.570312 C 115.421875 348.226562 115.390625 348.582031 116.035156 350.71875 C 116.414062 351.984375 116.761719 354.59375 116.808594 356.523438 C 116.808594 358.449219 116.96875 361.558594 116.96875 363.425781 C 116.96875 365.296875 116.96875 367.058594 116.714844 367.347656 C 116.542969 367.632812 116.210938 369.824219 115.988281 372.210938 C 115.769531 374.601562 115.3125 378.054688 114.980469 379.890625 C 114.425781 382.957031 114.460938 383.398438 115.421875 385.398438 C 116.429688 387.484375 116.445312 387.917969 115.957031 396.335938 C 115.121094 410.953125 114.996094 416.996094 115.515625 418.925781 C 115.878906 420.296875 115.816406 421.636719 115.214844 424.179688 C 114.601562 426.835938 114.539062 428.042969 114.964844 429.617188 C 115.515625 431.679688 115.121094 442.699219 114.03125 452.921875 C 113.765625 455.539062 113.671875 458.945312 113.828125 460.492188 C 113.984375 462.035156 113.828125 464.960938 113.496094 466.984375 C 112.992188 469.925781 113.007812 471.484375 113.496094 474.707031 C 114.09375 478.589844 114.078125 478.867188 112.894531 481.804688 C 111.777344 484.558594 111.730469 484.992188 112.359375 486.203125 C 113.117188 487.652344 113.921875 494.027344 114.269531 501.25 C 114.425781 504.335938 114.269531 506.894531 113.652344 509.363281 C 112.992188 512.246094 112.945312 513.351562 113.386719 514.871094 C 114.566406 518.878906 115.183594 526.046875 114.550781 528.535156 C 114.03125 530.566406 114.09375 531.371094 114.980469 534.582031 C 116.160156 538.820312 116.257812 541.363281 115.421875 545.910156 C 114.898438 548.714844 114.945312 549.433594 115.734375 551.636719 C 116.617188 554.089844 116.617188 554.269531 115.578125 558.75 C 113.785156 566.808594 113.460938 570.035156 114.078125 573.667969 C 114.632812 576.9375 114.316406 581.742188 112.976562 590.269531 C 112.613281 592.589844 112.691406 593.671875 113.402344 595.777344 C 114.144531 597.972656 114.253906 599.710938 114.078125 606.414062 C 113.796875 617.949219 113.875 621.046875 114.535156 624.5625 C 114.992188 626.933594 114.992188 628.5625 114.535156 631.34375 C 114.0625 634.390625 114.09375 635.371094 114.726562 637.21875 C 115.371094 639.105469 115.402344 639.921875 114.882812 642.707031 C 114.535156 644.503906 114.300781 647.550781 114.363281 649.480469 C 114.519531 653.417969 114.519531 653.929688 114.203125 672.015625 C 114.046875 679.175781 114.203125 687.851562 114.363281 691.296875 C 114.535156 694.738281 114.519531 698.34375 114.203125 699.308594 C 113.210938 703.1875 113.242188 704.351562 114.378906 707.398438 C 115.386719 710.097656 115.449219 710.71875 114.929688 712.644531 C 114.488281 714.320312 114.488281 715.351562 114.929688 717.050781 C 115.371094 718.707031 115.386719 720.019531 114.929688 722.210938 C 114.582031 724.046875 114.550781 725.984375 114.773438 727.378906 C 115.183594 729.519531 114.773438 732.507812 113.113281 740.773438 C 112.640625 743.070312 112.71875 743.949219 113.667969 747.285156 C 114.691406 750.875 114.769531 752.242188 114.816406 767.226562 C 114.816406 776.074219 114.660156 783.5625 114.535156 783.867188 C 114.027344 784.675781 115.277344 788.441406 116.203125 788.894531 C 116.632812 789.109375 119.359375 789.085938 122.25 788.847656 C 125.144531 788.609375 129.753906 788.386719 132.5 788.355469 C 136.265625 788.304688 138.035156 788.054688 139.695312 787.320312 C 141.242188 786.632812 142.367188 786.453125 143.46875 786.707031 C 144.335938 786.902344 151.570312 787.148438 159.558594 787.246094 C 167.546875 787.339844 174.417969 787.484375 174.832031 787.558594 C 175.242188 787.636719 177.792969 787.511719 180.492188 787.308594 C 184.617188 786.984375 185.683594 787.058594 187.1875 787.773438 C 188.734375 788.503906 189.195312 788.53125 190.542969 787.964844 C 192.664062 787.070312 195.851562 786.777344 197.34375 787.335938 C 198.085938 787.613281 199.375 787.617188 200.59375 787.347656 C 201.886719 787.058594 203.367188 787.082031 204.703125 787.425781 C 206.105469 787.777344 207.636719 787.792969 209.355469 787.472656 C 211.40625 787.082031 212.328125 787.148438 213.960938 787.804688 C 215.863281 788.566406 216.101562 788.5625 217.453125 787.773438 C 218.304688 787.265625 219.875 786.933594 221.28125 786.953125 C 222.589844 786.96875 229.628906 787.066406 236.929688 787.152344 C 247.300781 787.28125 251.125 787.507812 254.429688 788.210938 C 257.722656 788.910156 258.996094 788.988281 260.1875 788.5625 C 261.023438 788.261719 263.816406 787.753906 266.382812 787.425781 C 270.152344 786.949219 271.445312 786.964844 273.140625 787.507812 C 274.894531 788.066406 279.871094 788.386719 287.757812 788.449219 C 292.976562 788.5 300.492188 787.996094 301.6875 787.53125 C 303.714844 786.738281 306.84375 786.851562 308.648438 787.789062 C 310.039062 788.507812 310.878906 788.527344 316.261719 787.96875 C 323.53125 787.210938 322.824219 787.230469 330.574219 787.617188 C 334.019531 787.789062 337.582031 788.195312 338.496094 788.515625 C 339.492188 788.867188 341.105469 788.972656 342.503906 788.773438 C 343.796875 788.589844 347.324219 788.230469 350.355469 787.980469 C 353.382812 787.726562 357.1875 787.367188 358.808594 787.183594 C 360.773438 786.960938 363.015625 787.105469 365.566406 787.640625 C 367.667969 788.078125 372.148438 788.675781 375.53125 788.964844 C 381.285156 789.460938 381.804688 789.429688 383.648438 788.488281 C 385.851562 787.363281 387.441406 787.230469 389.472656 788.003906 C 390.511719 788.398438 391.742188 788.316406 394.472656 787.671875 C 397.429688 786.976562 398.777344 786.910156 401.769531 787.3125 C 403.976562 787.609375 408.828125 787.660156 413.929688 787.421875 C 420.730469 787.121094 422.75 787.183594 424.09375 787.746094 C 425.875 788.488281 437.527344 788.472656 444.328125 787.714844 C 447.203125 787.394531 448.046875 787.503906 450.457031 788.5 L 453.25 789.660156 L 458.519531 788.597656 C 462.613281 787.773438 464.128906 787.652344 465.304688 788.0625 C 466.359375 788.429688 467.761719 788.429688 469.933594 788.070312 C 474.558594 787.296875 492.179688 787.582031 494.144531 788.460938 C 495.550781 789.089844 495.960938 789.054688 498.152344 788.113281 C 500.179688 787.246094 501.375 787.097656 505.246094 787.246094 C 507.804688 787.339844 510.699219 787.683594 511.671875 788.003906 C 513.460938 788.59375 528.710938 788.351562 532.273438 787.675781 C 533.171875 787.507812 534.53125 787.628906 535.289062 787.941406 C 536.316406 788.363281 538.484375 788.375 543.648438 787.988281 C 549.78125 787.523438 550.902344 787.558594 552.949219 788.296875 C 555.117188 789.074219 555.449219 789.074219 557.695312 788.308594 C 560.667969 787.292969 561.734375 787.28125 564.40625 788.230469 C 566.246094 788.878906 566.753906 788.878906 568.601562 788.238281 C 571.480469 787.238281 573.636719 787.3125 575.957031 788.496094 C 578.304688 789.691406 579.175781 789.730469 581.929688 788.761719 C 584.273438 787.933594 585.601562 787.878906 596.242188 788.199219 C 600.371094 788.324219 604.652344 788.4375 605.753906 788.457031 C 608.8125 788.503906 613.496094 788.199219 616.207031 787.757812 C 617.792969 787.5 619.578125 787.585938 621.308594 788.003906 C 623.386719 788.5 625.464844 788.527344 630.714844 788.113281 C 635.332031 787.75 638.058594 787.742188 639.382812 788.097656 C 641.621094 788.691406 642.46875 788.710938 645.652344 788.238281 C 647.273438 787.996094 648.699219 788.128906 650.296875 788.675781 C 652.285156 789.351562 652.867188 789.367188 654.523438 788.785156 C 655.941406 788.285156 658.746094 788.15625 665.28125 788.285156 C 670.144531 788.378906 674.304688 788.574219 674.527344 788.710938 C 674.746094 788.851562 678.648438 789.011719 683.191406 789.070312 C 690.007812 789.164062 691.988281 789.023438 694.546875 788.25 C 696.851562 787.5625 697.648438 787.089844 697.648438 786.425781 C 697.648438 785.929688 696.941406 782.777344 696.0625 779.414062 C 694.644531 773.941406 694.53125 773.027344 695.023438 770.710938 C 695.320312 769.285156 695.449219 766.792969 695.289062 765.171875 C 695.101562 763.015625 695.289062 761.335938 696.03125 758.949219 C 697.199219 755.179688 697.339844 750.328125 696.410156 746.691406 C 696.046875 745.285156 695.828125 742.316406 695.921875 739.933594 C 696.078125 737.59375 696.222656 731.851562 696.394531 727.167969 C 696.648438 720.234375 696.566406 718.253906 695.953125 716.503906 C 695.339844 714.777344 695.289062 713.609375 695.667969 710.542969 C 696 707.9375 695.984375 706.164062 695.667969 704.933594 C 695.308594 703.710938 695.277344 700.945312 695.511719 696.371094 C 695.78125 692.210938 695.765625 688.792969 695.511719 687.488281 C 695.132812 685.839844 695.226562 684.71875 695.9375 682.40625 C 696.617188 680.144531 696.742188 678.867188 696.410156 677.011719 C 696.03125 674.863281 695.765625 669.664062 695.65625 662.816406 C 695.65625 661.578125 695.402344 659.160156 695.148438 657.449219 C 694.769531 654.929688 694.867188 653.390625 695.683594 649.414062 C 696.457031 645.597656 696.566406 644.082031 696.175781 642.65625 C 695.890625 641.640625 695.667969 638.945312 695.683594 636.667969 C 695.683594 634.386719 695.683594 629.589844 695.683594 626.011719 C 695.695312 622.429688 695.9375 618.449219 696.222656 617.164062 C 696.632812 615.285156 696.566406 614.304688 695.890625 612.128906 C 695.210938 609.96875 695.132812 608.949219 695.542969 607.054688 C 695.921875 605.292969 695.875 604.121094 695.382812 602.503906 C 694.675781 600.140625 694.988281 597.730469 696.265625 595.683594 C 696.695312 595.011719 697.167969 593.386719 697.339844 592.074219 C 697.59375 590.039062 697.339844 589.253906 696.109375 586.769531 L 694.578125 583.855469 L 695.132812 579.140625 C 696.09375 570.875 696.125 566.152344 695.289062 563.414062 C 694.3125 560.324219 694.296875 556.367188 695.28125 554.386719 C 696.066406 552.777344 696.066406 547.347656 695.28125 540.867188 C 694.679688 535.988281 695.089844 527.363281 696.066406 524.289062 C 696.777344 522.046875 696.808594 520.925781 696.304688 515.523438 C 695.988281 512.117188 695.59375 508.472656 695.40625 507.421875 C 695.183594 506.144531 695.40625 504.765625 695.957031 503.222656 C 696.808594 500.980469 696.808594 500.851562 695.722656 497.769531 C 694.804688 495.195312 694.664062 493.992188 694.917969 491.207031 C 695.375 486.085938 695.390625 484.074219 694.917969 480.914062 C 694.617188 478.667969 694.710938 477.535156 695.40625 475.742188 C 696.132812 473.84375 696.179688 473.09375 695.722656 471.359375 C 694.886719 468.246094 694.886719 454.886719 695.722656 451.8125 C 696.621094 448.449219 696.746094 434.746094 695.878906 432.6875 C 695.484375 431.742188 695.183594 430.007812 695.203125 428.832031 C 695.203125 427.660156 695.042969 425.648438 694.777344 424.363281 C 694.507812 423.066406 694.476562 420.949219 694.777344 419.605469 C 694.996094 418.273438 695.183594 415.308594 695.203125 413.019531 C 695.203125 410.730469 695.453125 408.429688 695.738281 407.910156 C 696.101562 407.226562 696.019531 406.398438 695.421875 404.929688 C 694.808594 403.398438 694.679688 402.0625 694.933594 399.523438 C 695.105469 397.667969 695.3125 391.871094 695.375 386.636719 C 695.375 381.402344 695.675781 376.835938 695.894531 376.484375 C 696.117188 376.128906 695.894531 374.726562 695.453125 373.316406 C 694.808594 371.378906 694.679688 369.882812 694.933594 366.941406 C 695.3125 362.398438 695.3125 361.707031 694.933594 354.796875 C 694.699219 350.617188 694.777344 349.109375 695.421875 347.632812 C 695.941406 346.398438 696.101562 345.03125 695.910156 343.601562 C 695.753906 342.414062 695.910156 340.644531 696.195312 339.667969 C 696.667969 338.226562 696.636719 337.554688 696.003906 336.046875 C 695.578125 335.03125 695.21875 332.816406 695.203125 331.125 C 695.203125 329.429688 695.203125 326.691406 695.042969 325.039062 C 695.042969 323.242188 695.34375 321.019531 695.894531 319.507812 C 696.792969 317.015625 696.792969 316.953125 695.738281 314.898438 C 694.664062 312.785156 694.425781 310.332031 695.121094 308.53125 C 695.34375 307.953125 695.121094 306.539062 694.726562 305.109375 C 693.984375 302.792969 694 302.515625 695.058594 299.488281 C 696.367188 295.753906 696.511719 291.3125 695.421875 288.234375 C 694.222656 284.816406 694.445312 279.722656 695.957031 276.109375 C 696.964844 273.714844 697.1875 272.527344 696.964844 270.742188 C 696.808594 269.480469 696.414062 266.3125 696.097656 263.695312 C 695.609375 259.746094 695.46875 250.257812 695.738281 240.40625 C 695.738281 238.480469 694.964844 229.03125 694.394531 224.882812 C 694.238281 223.734375 694.394531 221.871094 694.835938 220.507812 C 695.34375 218.882812 695.4375 217.546875 695.152344 216.253906 C 694.789062 214.617188 694.457031 203.496094 694.539062 195.835938 C 694.546875 194.460938 694.539062 192.65625 694.539062 191.832031 C 694.539062 191.003906 694.695312 188.1875 694.835938 185.570312 C 695.011719 182.953125 695.230469 174.957031 695.324219 167.800781 C 695.484375 157.667969 695.324219 154.355469 694.820312 152.839844 C 694.015625 150.558594 693.90625 147.8125 694.632812 148.265625 C 695.121094 148.566406 695.230469 147.390625 695.421875 140 C 695.421875 138.210938 695.71875 135.320312 695.988281 133.578125 C 696.304688 131.515625 696.304688 129.667969 695.988281 128.269531 C 695.671875 126.894531 695.671875 125.425781 695.976562 124.175781 C 696.324219 122.730469 696.261719 121.652344 695.726562 120.027344 C 695.140625 118.277344 695.109375 117.34375 695.550781 115.4375 C 695.851562 114.121094 695.976562 111.929688 695.804688 110.566406 C 695.644531 109.1875 695.804688 107.316406 696.085938 106.351562 C 696.542969 104.953125 696.515625 104.261719 695.882812 102.769531 C 695.046875 100.773438 694.824219 94.566406 695.15625 82.910156 C 695.15625 81.382812 694.902344 79.375 694.480469 78.40625 C 693.375 75.839844 693.609375 62.429688 694.808594 59.644531 C 695.285156 58.550781 695.628906 56.636719 695.582031 55.386719 C 695.425781 52.171875 696.433594 45.882812 697.4375 43.292969 C 697.910156 42.082031 698.304688 39.632812 698.335938 37.839844 C 698.335938 36.050781 698.683594 34.046875 699.0625 33.386719 C 699.441406 32.726562 699.945312 30.609375 700.183594 28.671875 C 701.082031 21.480469 704.253906 21.523438 706.152344 28.753906 C 706.660156 30.671875 707.429688 32.945312 707.871094 33.800781 C 708.3125 34.652344 708.882812 36.304688 709.132812 37.472656 C 710.796875 45.128906 711.898438 49.511719 713.136719 53.367188 C 715.421875 60.476562 715.652344 63.441406 714.144531 66.386719 C 712.882812 68.855469 712.882812 70.003906 714.144531 73.695312 C 714.714844 75.320312 715.09375 77.136719 714.980469 77.726562 C 714.824219 78.316406 714.980469 80.050781 715.34375 81.582031 C 715.691406 83.335938 715.769531 86.273438 715.550781 89.523438 C 715.328125 92.679688 715.390625 95.441406 715.707031 96.648438 C 715.992188 97.730469 716.085938 99.5625 715.914062 100.714844 C 715.722656 102.019531 715.914062 104.050781 716.417969 106.058594 L 717.238281 109.300781 L 715.695312 114.238281 C 714.84375 116.957031 714.148438 119.507812 714.148438 119.910156 C 714.148438 120.3125 714.714844 122.050781 715.394531 123.769531 C 716.71875 127.066406 716.84375 130.199219 716.339844 145.761719 C 716.183594 148.515625 716.183594 151.445312 716.183594 152.269531 C 716.183594 153.78125 716.183594 160.003906 716.183594 166.042969 C 716.183594 167.832031 715.882812 170.242188 715.582031 171.398438 C 715.171875 172.933594 715.171875 173.929688 715.582031 175.078125 C 715.976562 176.191406 715.992188 178.402344 715.582031 182.566406 C 715.25 186.644531 715.265625 188.953125 715.582031 190.007812 C 715.960938 191.097656 715.960938 192.304688 715.582031 194.21875 C 714.667969 198.640625 714.496094 214.351562 715.347656 216.386719 C 716.355469 218.808594 716.230469 221.425781 714.96875 223.9375 C 713.878906 226.101562 713.878906 226.117188 714.808594 228.234375 C 715.441406 229.644531 715.710938 231.125 715.582031 232.628906 C 715.316406 235.96875 715.300781 241.648438 715.582031 248.171875 C 715.789062 253.34375 715.742188 254.175781 714.683594 256.347656 L 713.5625 258.765625 L 714.605469 260.796875 C 715.960938 263.445312 716.316406 268.660156 715.566406 274.710938 C 714.871094 280.265625 714.871094 279.25 715.566406 285.226562 C 716.402344 292.15625 716.402344 299.671875 715.585938 301.632812 C 715.019531 302.96875 715.003906 303.671875 715.585938 305.480469 C 716.09375 307.253906 716.074219 308.191406 715.585938 310.207031 C 715.019531 312.429688 715.050781 312.945312 715.855469 314.726562 C 716.53125 316.238281 716.675781 317.335938 716.421875 319.136719 C 715.902344 322.828125 715.492188 329.71875 715.585938 333.050781 C 715.746094 337.890625 715.746094 341.984375 715.585938 351.832031 C 715.429688 356.925781 715.578125 361.464844 715.777344 361.914062 C 715.980469 362.363281 716.1875 367.324219 716.234375 372.933594 C 716.234375 382.617188 716.242188 383.25 715.160156 385.472656 L 714.007812 387.8125 L 715.398438 391.605469 C 716.421875 394.4375 716.707031 395.9375 716.5 397.527344 C 716.34375 398.699219 715.980469 401.558594 715.664062 403.886719 C 715.191406 407.496094 715.238281 408.574219 715.964844 411.261719 C 716.597656 413.605469 716.707031 415.078125 716.40625 417.046875 C 716.1875 418.5 716.058594 420.816406 716.140625 422.191406 C 716.519531 429.417969 716.140625 440.9375 715.222656 446.417969 C 714.6875 449.832031 714.71875 450.277344 715.714844 452.316406 C 716.644531 454.25 716.738281 455.019531 716.4375 458.636719 C 716.21875 461.203125 715.730469 463.371094 715.144531 464.390625 C 714.214844 466.007812 714.214844 466.054688 715.398438 469.398438 C 717.183594 474.4375 717.316406 475.59375 716.4375 478.199219 C 715.792969 480.09375 715.761719 480.894531 716.21875 482.453125 C 716.566406 483.609375 716.660156 485.445312 716.4375 487.085938 C 716.25 488.578125 716.011719 493 715.917969 496.910156 C 715.761719 500.824219 715.507812 504.878906 715.210938 505.925781 C 714.800781 507.4375 714.847656 508.269531 715.507812 509.996094 C 716.21875 511.867188 716.25 512.589844 715.730469 515.253906 C 715.210938 517.867188 715.242188 518.679688 715.902344 520.535156 C 716.992188 523.597656 716.878906 525.308594 715.351562 529.527344 L 714.007812 533.203125 L 714.941406 535.789062 C 715.808594 538.214844 715.949219 540.503906 715.632812 547.636719 C 715.632812 548.601562 715.839844 551.765625 716.1875 554.671875 C 716.785156 559.722656 716.769531 560.042969 715.746094 562.03125 C 714.59375 564.277344 714.609375 564.339844 716.5 572.625 C 717.289062 576.082031 717.101562 577.878906 715.617188 580.796875 C 714.4375 583.128906 714.4375 584.015625 715.617188 586.363281 C 716.613281 588.300781 716.660156 591.871094 715.917969 604.476562 C 715.601562 609.667969 715.617188 608.460938 715.761719 634.023438 C 715.917969 648.59375 716.121094 656.511719 716.5 657.398438 C 717.257812 659.21875 716.707031 672.507812 715.792969 674.773438 C 714.910156 676.953125 714.925781 678.511719 715.949219 682.691406 C 716.597656 685.492188 716.644531 686.765625 716.203125 689.777344 C 715.902344 691.796875 715.824219 693.710938 716.03125 694.035156 C 716.234375 694.355469 716.425781 697.886719 716.472656 701.878906 C 716.472656 708.164062 716.472656 709.394531 715.589844 711.035156 C 715.050781 712.078125 714.800781 713.203125 715.003906 713.539062 C 715.539062 714.417969 716.359375 725.410156 716.265625 730.671875 C 716.265625 733.152344 716.425781 735.917969 716.722656 736.820312 C 717.101562 738.007812 717.085938 739.4375 716.722656 741.988281 C 716.28125 744.621094 716.265625 746.074219 716.722656 747.730469 C 717.164062 749.511719 717.117188 750.660156 716.457031 753.570312 C 715.808594 756.441406 715.746094 757.65625 716.171875 759.457031 C 716.691406 761.671875 716.914062 765.480469 716.753906 769.984375 C 716.582031 774.796875 716.753906 780.363281 717.023438 782.792969 C 717.257812 784.554688 717.183594 785.875 716.628906 787.089844 C 716.125 788.3125 715.96875 789.910156 716.15625 792.347656 C 716.457031 796.546875 715.554688 800.054688 713.171875 804.015625 C 711.15625 807.359375 709.460938 808.398438 705.253906 808.867188 C 700.824219 809.359375 698.980469 809.242188 696.683594 808.324219 C 694.117188 807.296875 692.125 807.335938 689.847656 808.453125 C 688.105469 809.308594 686.492188 809.351562 664.203125 809.140625 C 634.996094 808.859375 635.605469 808.859375 631.773438 809.296875 C 629.4375 809.566406 627.765625 809.441406 625.199219 808.769531 C 622.046875 807.949219 621.605469 807.941406 619.8125 808.660156 C 618.296875 809.265625 616.347656 809.402344 611.035156 809.273438 C 605.023438 809.132812 603.800781 808.949219 600.855469 807.769531 L 597.5 806.429688 L 595.433594 807.359375 C 593.730469 808.125 592.480469 808.25 588.347656 808.074219 C 585.585938 807.964844 582.765625 807.90625 582.074219 807.949219 C 576.09375 808.386719 569.632812 808.65625 566.300781 808.605469 C 564.097656 808.574219 561.730469 808.746094 561.042969 808.996094 C 558.566406 809.898438 557.253906 809.953125 555.285156 809.246094 Z M 356.578125 712.09375 C 353.488281 710.632812 352.164062 710.535156 349.664062 711.578125 C 347.359375 712.542969 342.988281 712.539062 339.265625 711.570312 C 336.925781 710.960938 335.828125 710.917969 333.777344 711.359375 C 327.929688 712.617188 325.777344 712.5 319.59375 710.5625 C 318.265625 710.148438 316.132812 709.992188 313.832031 710.148438 C 307.566406 710.574219 304.925781 708.171875 304.925781 702.039062 C 304.925781 699.558594 305.179688 698.59375 306.363281 696.746094 C 309.402344 691.945312 312.265625 690.859375 319.59375 691.71875 C 324.003906 692.234375 325.378906 692.199219 329.816406 691.449219 C 334.210938 690.707031 335.25 690.675781 337.085938 691.242188 C 338.285156 691.609375 340.78125 691.832031 342.734375 691.746094 C 346.175781 691.589844 348.257812 691.621094 352.25 691.839844 C 353.355469 691.90625 355.429688 691.777344 356.867188 691.558594 C 359.039062 691.226562 359.917969 691.347656 362.042969 692.261719 C 364.578125 693.351562 364.640625 693.355469 368.917969 692.503906 C 372.660156 691.761719 373.75 691.734375 377.101562 692.277344 C 379.226562 692.621094 381.226562 692.742188 381.546875 692.546875 C 382.351562 692.054688 388.375 691.148438 390.839844 691.15625 C 391.960938 691.15625 393.425781 691.472656 394.09375 691.855469 C 395.199219 692.480469 397.648438 692.6875 405.332031 692.804688 C 410.367188 692.882812 423.917969 691.886719 425.980469 691.289062 C 427.824219 690.757812 428.5 690.808594 431.234375 691.707031 C 432.964844 692.269531 435.648438 692.984375 437.203125 693.289062 C 439.933594 693.828125 440.105469 693.796875 442.429688 692.320312 C 445.160156 690.589844 447.253906 690.390625 450.042969 691.601562 C 451.066406 692.046875 453.144531 692.796875 454.65625 693.269531 C 457.371094 694.117188 457.445312 694.113281 459.539062 693.007812 C 461.457031 691.992188 462.230469 691.898438 467.550781 692.046875 C 470.785156 692.140625 474.5625 692.355469 475.941406 692.535156 C 477.933594 692.792969 478.847656 692.644531 480.429688 691.824219 C 482.964844 690.503906 487.199219 690.472656 490.011719 691.746094 C 492.484375 692.871094 495.996094 693.308594 503.984375 693.488281 C 508.34375 693.582031 510.476562 693.851562 511.75 694.460938 C 512.726562 694.925781 515.1875 695.386719 517.320312 695.496094 C 521.453125 695.714844 527.542969 697.492188 527.972656 698.609375 C 528.132812 698.992188 528.132812 699.636719 527.964844 700.039062 C 527.648438 700.847656 523.617188 702.476562 520.53125 703.039062 C 519.441406 703.234375 517.914062 703.722656 517.144531 704.121094 C 515.519531 704.964844 511.875 705.835938 508.988281 706.078125 C 507.882812 706.171875 505.628906 706.953125 503.984375 707.820312 C 501.226562 709.273438 500.726562 709.375 497.730469 709.085938 C 494.707031 708.796875 494.210938 708.898438 490.839844 710.53125 C 487.21875 712.285156 487.183594 712.289062 479.75 712.367188 C 475.644531 712.414062 472.042969 712.289062 471.75 712.113281 C 471.449219 711.929688 470.132812 712.097656 468.820312 712.484375 C 466.753906 713.097656 466.089844 713.09375 463.925781 712.472656 C 459.746094 711.269531 458.335938 711.1875 455.820312 712.007812 C 453.832031 712.660156 452.398438 712.722656 447.65625 712.359375 C 443.042969 712.007812 441.636719 712.0625 440.542969 712.625 C 438.589844 713.636719 435.410156 713.492188 433.042969 712.28125 C 430.824219 711.148438 429.480469 711.21875 424.910156 712.699219 C 422.855469 713.363281 421.984375 713.398438 419.621094 712.910156 C 416.042969 712.171875 413.976562 712.171875 411.5 712.910156 C 410.003906 713.363281 408.816406 713.359375 406.433594 712.898438 C 404.726562 712.574219 400.175781 712.113281 396.320312 711.878906 C 389.867188 711.488281 387.597656 711.597656 381.671875 712.59375 C 380.429688 712.800781 378.65625 712.703125 377.417969 712.371094 C 373.917969 711.421875 367.023438 711.710938 360.515625 713.082031 C 359.742188 713.246094 358.230469 712.859375 356.582031 712.082031 Z M 271.828125 660.292969 C 267.269531 659.792969 265.734375 658.582031 263.273438 653.542969 C 261.695312 650.308594 261.339844 649.089844 261.53125 647.554688 C 261.847656 645.089844 264.074219 641.5 266.527344 639.523438 C 268.160156 638.207031 268.851562 637.980469 271.285156 637.984375 C 272.992188 637.984375 275.226562 638.417969 276.878906 639.0625 C 281.058594 640.691406 282.117188 640.804688 285.777344 640.007812 C 292.535156 638.539062 297.636719 638.199219 300.730469 639.003906 C 302.980469 639.589844 303.9375 639.625 305.316406 639.167969 C 306.5 638.777344 308.921875 638.710938 312.878906 638.953125 C 319.652344 639.375 322.675781 639.371094 330.214844 638.945312 C 335.472656 638.644531 335.804688 638.6875 337.503906 639.84375 C 339.515625 641.210938 342.890625 641.855469 348.742188 641.988281 C 351.367188 642.050781 353.441406 642.394531 354.753906 642.988281 C 355.96875 643.535156 358.734375 644.042969 361.761719 644.265625 C 366.832031 644.640625 372.894531 646.074219 374.28125 647.222656 C 375.335938 648.101562 375.226562 649.59375 374.027344 650.230469 C 373.476562 650.527344 371.164062 651.007812 368.894531 651.296875 C 366.472656 651.601562 363.835938 652.300781 362.511719 652.980469 C 361.03125 653.742188 358.878906 654.265625 356.253906 654.5 C 354.050781 654.699219 351.792969 655.101562 351.246094 655.402344 C 350 656.066406 344.734375 656.832031 340.726562 656.921875 C 338.722656 656.96875 337.269531 657.300781 336.355469 657.917969 C 334.40625 659.242188 331.769531 659.71875 329.585938 659.148438 C 325.96875 658.203125 316.855469 657.773438 312.183594 658.328125 C 308.226562 658.796875 307.171875 658.742188 303.550781 657.871094 L 299.425781 656.882812 L 296.445312 658.304688 C 292.757812 660.058594 290.023438 660.527344 287.78125 659.789062 C 286.554688 659.378906 285.09375 659.367188 282.597656 659.742188 C 276.867188 660.59375 275.277344 660.675781 271.828125 660.296875 Z M 424.484375 657.777344 C 423.730469 657.53125 419.558594 657.183594 415.222656 657.007812 C 410.820312 656.828125 406.449219 656.386719 405.332031 656.007812 C 404.226562 655.636719 402.230469 655.222656 400.886719 655.089844 C 397.742188 654.78125 395.617188 652.8125 395.21875 649.839844 C 394.808594 646.757812 395.21875 645.621094 398.628906 641.773438 C 402.011719 637.882812 403.335938 637.222656 407.585938 637.316406 C 409.101562 637.347656 411.308594 637.0625 412.496094 636.683594 C 414.394531 636.074219 414.929688 636.089844 416.964844 636.824219 C 419 637.558594 419.4375 637.570312 420.667969 636.933594 C 422.503906 635.984375 425.042969 636.023438 427.429688 637.046875 C 429.65625 637.996094 436.324219 638.113281 439.5 637.257812 C 441.03125 636.847656 442.039062 636.894531 443.945312 637.460938 C 446.097656 638.097656 446.722656 638.101562 448.796875 637.476562 C 450.648438 636.917969 451.761719 636.875 453.796875 637.28125 C 456.804688 637.878906 468.8125 637.183594 473.007812 636.164062 C 475.25 635.621094 475.882812 635.65625 477.878906 636.417969 C 479.589844 637.070312 480.863281 637.207031 482.871094 636.957031 C 484.9375 636.699219 485.953125 636.8125 487.222656 637.476562 C 488.765625 638.273438 489.117188 638.277344 492.425781 637.523438 C 494.375 637.078125 498.226562 636.664062 500.980469 636.609375 C 508.90625 636.441406 526.171875 637.15625 528.339844 637.738281 C 529.425781 638.03125 531.375 638.242188 532.671875 638.207031 C 537.167969 638.078125 541.050781 638.5625 542.757812 639.449219 C 544.066406 640.132812 545.097656 640.265625 547.160156 640.023438 C 548.6875 639.84375 550.257812 639.929688 550.804688 640.222656 C 551.339844 640.503906 553.519531 640.847656 555.667969 640.988281 C 560.484375 641.300781 562.339844 641.777344 563.035156 642.875 C 564.265625 644.828125 562.371094 645.707031 549.804688 648.984375 C 547.1875 649.667969 544.398438 650.230469 543.601562 650.230469 C 542.816406 650.230469 541.34375 650.742188 540.351562 651.363281 C 539.121094 652.125 537.644531 652.519531 535.785156 652.582031 C 531.757812 652.707031 527.460938 653.480469 523.765625 654.730469 C 520.40625 655.863281 520.027344 655.871094 510.742188 654.949219 C 507.917969 654.667969 507.074219 654.808594 504.375 655.9375 C 502.660156 656.660156 500.539062 657.25 499.652344 657.25 C 498.769531 657.25 497.316406 657.511719 496.421875 657.835938 C 495.175781 658.285156 493.605469 658.28125 489.625 657.804688 C 486.78125 657.464844 484.117188 657.226562 483.703125 657.277344 C 481.488281 657.542969 468.414062 657.121094 467.441406 656.75 C 466.765625 656.496094 464.050781 656.546875 460.855469 656.875 C 457.859375 657.183594 450.226562 657.457031 443.890625 657.480469 C 437.554688 657.511719 430.910156 657.683594 429.117188 657.875 C 427.328125 658.070312 425.242188 658.019531 424.484375 657.78125 Z M 555.316406 600.566406 C 550.933594 598.726562 543.746094 598.289062 540.628906 599.667969 C 537.648438 600.984375 530.058594 600.699219 526.574219 599.136719 C 524.328125 598.132812 523.945312 598.097656 522.066406 598.722656 C 520.929688 599.097656 518.769531 599.320312 517.253906 599.21875 C 512.683594 598.914062 512.089844 598.953125 509.617188 599.667969 C 507.484375 600.289062 506.960938 600.265625 504.523438 599.4375 C 502.070312 598.605469 501.617188 598.585938 499.890625 599.238281 C 498.53125 599.75 496.011719 599.945312 491.214844 599.90625 C 485.476562 599.859375 484.125 599.691406 482.285156 598.8125 C 480.503906 597.960938 479.75 597.855469 478.066406 598.234375 C 476.757812 598.53125 475.140625 598.507812 473.574219 598.171875 C 470.144531 597.4375 468.738281 597.511719 465.289062 598.613281 C 462.175781 599.609375 459.5 599.5 453.273438 598.121094 C 452.089844 597.863281 450.457031 597.648438 449.628906 597.648438 C 448.792969 597.648438 447.300781 597.308594 446.308594 596.894531 C 444.675781 596.210938 444.242188 596.222656 441.777344 597.003906 C 439.21875 597.808594 438.847656 597.8125 435.871094 597.035156 C 432.765625 596.21875 432.605469 596.226562 428.332031 597.40625 C 423.667969 598.6875 423.886719 598.707031 418.75 596.609375 C 417.316406 596.027344 416.90625 596.074219 414.941406 597.058594 C 410.71875 599.167969 407.109375 598.179688 403.011719 593.796875 C 399.050781 589.5625 398.554688 585.273438 401.527344 580.949219 C 403.734375 577.746094 405.320312 577.03125 410.007812 577.148438 C 412.730469 577.210938 414.523438 576.976562 416.191406 576.324219 C 418.273438 575.507812 418.792969 575.476562 420.699219 576.066406 C 422.121094 576.503906 426.53125 576.78125 433.625 576.886719 C 439.878906 576.980469 445.335938 577.296875 446.644531 577.644531 C 449.507812 578.410156 450.886719 578.398438 453.507812 577.582031 C 455.316406 577.023438 455.996094 577.046875 458.265625 577.746094 C 460.933594 578.566406 467.65625 578.597656 474.007812 577.824219 C 475.90625 577.59375 477.421875 577.777344 479.765625 578.527344 C 482.609375 579.433594 483.972656 579.523438 492.453125 579.359375 C 497.675781 579.265625 502.859375 579.019531 503.96875 578.824219 C 505.074219 578.625 510.382812 578.484375 515.753906 578.507812 C 523.792969 578.539062 525.871094 578.699219 527.519531 579.40625 C 529.453125 580.230469 533.011719 580.355469 545.800781 580.039062 C 550.28125 579.929688 557.601562 580.542969 559.070312 581.152344 C 559.890625 581.496094 561.8125 581.835938 563.328125 581.90625 C 568.664062 582.152344 572.359375 582.605469 573.359375 583.144531 C 573.914062 583.441406 575.730469 583.785156 577.394531 583.90625 C 579.058594 584.03125 581.828125 584.695312 583.554688 585.382812 C 585.28125 586.074219 586.996094 586.640625 587.367188 586.640625 C 587.746094 586.640625 588.738281 586.851562 589.582031 587.109375 C 590.433594 587.371094 592.472656 587.839844 594.125 588.152344 C 595.78125 588.464844 597.808594 589.023438 598.632812 589.394531 C 599.453125 589.761719 601.128906 590.363281 602.34375 590.730469 C 606.570312 592.007812 606.421875 594.632812 602.089844 595.261719 C 600.734375 595.457031 596.980469 595.738281 593.734375 595.882812 C 589.832031 596.058594 587.320312 596.414062 586.320312 596.933594 C 585.265625 597.476562 584.164062 597.613281 582.660156 597.390625 C 581.011719 597.140625 579.890625 597.328125 577.871094 598.203125 C 575.59375 599.179688 574.953125 599.261719 573.199219 598.796875 C 571.890625 598.445312 570.730469 598.417969 569.945312 598.714844 C 569.265625 598.972656 567.566406 599.15625 566.152344 599.125 C 564.425781 599.09375 562.933594 599.414062 561.597656 600.117188 C 559.453125 601.25 557.300781 601.40625 555.320312 600.574219 Z M 263.675781 597.886719 C 261.003906 596.4375 258.207031 596.382812 253.96875 597.699219 C 252.183594 598.253906 251.457031 598.246094 249.460938 597.652344 C 248.152344 597.265625 245.722656 597 244.0625 597.066406 C 242.402344 597.128906 239.585938 596.839844 237.804688 596.421875 C 236.023438 596 233.773438 595.652344 232.8125 595.648438 C 229.253906 595.632812 226.300781 592.578125 226.300781 588.929688 C 226.300781 586.773438 228.367188 580.9375 229.628906 579.519531 C 231.75 577.140625 235.394531 576.53125 238.296875 578.078125 C 239.984375 578.976562 240.066406 578.972656 241.945312 577.996094 C 243.460938 577.210938 244.480469 577.050781 246.726562 577.257812 C 248.304688 577.398438 250.527344 577.289062 251.675781 577.019531 C 253.113281 576.675781 254.5625 576.6875 256.28125 577.050781 C 258.035156 577.425781 259.601562 577.433594 261.453125 577.082031 C 263.46875 576.691406 264.652344 576.730469 266.363281 577.238281 C 268.28125 577.8125 269.007812 577.804688 271.261719 577.175781 C 273.484375 576.558594 274.53125 576.539062 277.773438 577.050781 C 283.1875 577.914062 299.667969 578.195312 305.789062 577.53125 C 311.515625 576.910156 313.414062 577.222656 318.605469 579.660156 C 321.363281 580.957031 321.824219 581.015625 327.203125 580.808594 C 331.441406 580.648438 333.433594 580.777344 335.054688 581.347656 C 336.253906 581.761719 337.964844 582.105469 338.875 582.109375 C 339.792969 582.109375 341.222656 582.476562 342.074219 582.917969 C 342.925781 583.359375 344.207031 583.601562 344.933594 583.457031 C 345.660156 583.3125 347.707031 583.535156 349.496094 583.953125 C 351.285156 584.371094 353.3125 584.703125 354 584.695312 C 355.8125 584.664062 359.394531 586.109375 359.738281 587 C 360.210938 588.230469 359.53125 589.609375 358.347656 589.832031 C 357.75 589.941406 355.679688 590.304688 353.75 590.632812 C 351.824219 590.960938 349.570312 591.417969 348.742188 591.648438 C 344.113281 592.945312 342.4375 593.234375 338.289062 593.457031 C 329.457031 593.921875 328.699219 594 327.300781 594.566406 C 326.527344 594.882812 325.285156 595.144531 324.546875 595.15625 C 323.804688 595.167969 322.074219 595.726562 320.695312 596.402344 C 317.984375 597.738281 316.257812 597.929688 314.164062 597.132812 C 313.058594 596.71875 312.335938 596.863281 310.152344 597.929688 C 307.25 599.347656 305.316406 599.292969 302.921875 597.726562 C 302.132812 597.210938 299.992188 596.78125 297.160156 596.570312 C 293.40625 596.289062 292.039062 596.410156 288.972656 597.277344 C 285.855469 598.160156 284.894531 598.238281 282.710938 597.789062 C 280.605469 597.351562 279.859375 597.394531 278.632812 598.03125 C 277.8125 598.457031 276.171875 598.757812 275 598.695312 C 271.199219 598.5 270.152344 598.527344 268.117188 598.867188 C 266.492188 599.136719 265.648438 598.945312 263.675781 597.875 Z M 313.1875 527.683594 C 311.816406 527.25 309.554688 526.949219 308.179688 527.011719 C 304.203125 527.203125 302.367188 527.15625 299.304688 526.773438 C 297.167969 526.507812 295.929688 526.632812 294.414062 527.230469 C 290.039062 528.980469 285.339844 527.824219 283.664062 524.585938 C 281.359375 520.128906 281.648438 515.972656 284.484375 512.746094 C 286.996094 509.886719 289.140625 508.878906 293.613281 508.449219 C 295.84375 508.238281 298.683594 507.84375 299.921875 507.578125 C 301.167969 507.3125 304.878906 507.050781 308.1875 507 C 319.832031 506.820312 320.867188 506.890625 322.96875 508.078125 C 324.660156 509.027344 325.128906 509.097656 326.273438 508.578125 C 327.800781 507.878906 334.386719 506.832031 336.980469 506.875 C 337.941406 506.890625 342.074219 507.015625 346.15625 507.164062 C 351.90625 507.371094 353.960938 507.277344 355.277344 506.71875 C 357.65625 505.726562 359.625 505.832031 362.230469 507.097656 C 364.371094 508.136719 364.558594 508.148438 366.375 507.375 C 368.640625 506.40625 375.265625 506 392.566406 505.777344 C 401.199219 505.667969 405.28125 505.792969 406.335938 506.210938 C 407.332031 506.601562 410.320312 506.753906 415.101562 506.648438 C 419.09375 506.570312 429.121094 506.375 437.386719 506.234375 C 445.652344 506.089844 453.648438 505.953125 455.164062 505.925781 C 456.679688 505.894531 459.609375 506.117188 461.675781 506.414062 C 464.382812 506.808594 466.199219 506.808594 468.1875 506.414062 C 470.257812 506.003906 472.117188 506.027344 475.699219 506.511719 C 478.316406 506.863281 484.285156 507.292969 488.96875 507.464844 C 496.453125 507.738281 497.765625 507.917969 499.828125 508.925781 C 501.824219 509.90625 502.621094 510.027344 505.203125 509.734375 C 507.582031 509.464844 508.496094 509.566406 509.472656 510.207031 C 510.152344 510.65625 511.523438 511.019531 512.503906 511.019531 C 513.480469 511.019531 515.082031 511.351562 516.046875 511.753906 C 517.011719 512.160156 518.445312 512.363281 519.226562 512.207031 C 520.015625 512.050781 521.171875 512.207031 521.8125 512.546875 C 522.457031 512.886719 523.773438 513.238281 524.75 513.324219 C 529.132812 513.707031 534.628906 514.636719 535.785156 515.1875 C 537.109375 515.820312 537.738281 517.792969 536.886719 518.640625 C 536.621094 518.910156 535.078125 519.324219 533.464844 519.5625 C 531.851562 519.796875 529.519531 520.207031 528.28125 520.46875 C 527.035156 520.730469 524.5625 521.203125 522.773438 521.515625 C 520.980469 521.828125 517.558594 522.4375 515.167969 522.875 C 512.777344 523.308594 510.078125 523.558594 509.175781 523.425781 C 508.273438 523.296875 506.734375 523.519531 505.761719 523.921875 C 504.785156 524.332031 501.851562 524.753906 499.234375 524.863281 C 489.785156 525.265625 487.941406 525.433594 486.46875 526.019531 C 485.550781 526.386719 480.878906 526.703125 474.449219 526.835938 C 468.664062 526.960938 462.550781 527.191406 460.867188 527.359375 C 458.710938 527.570312 456.953125 527.40625 454.910156 526.820312 C 453.210938 526.324219 451.476562 526.121094 450.710938 526.320312 C 450 526.511719 448.054688 526.855469 446.402344 527.085938 C 444.75 527.316406 442.652344 527.65625 441.738281 527.839844 C 439.871094 528.214844 434.828125 527.359375 432.03125 526.191406 C 430.347656 525.488281 429.816406 525.496094 426.023438 526.300781 C 423.738281 526.785156 421.25 527.289062 420.496094 527.421875 C 419.738281 527.550781 417.488281 527.261719 415.488281 526.765625 C 410.992188 525.652344 405.96875 525.640625 403.476562 526.734375 C 401.289062 527.695312 398.214844 527.792969 396.234375 526.960938 C 395.066406 526.46875 392.289062 526.210938 386.5625 526.058594 C 384.582031 526.011719 373.574219 526.585938 367.53125 527.058594 C 362.496094 527.453125 359.921875 527.441406 357.449219 526.996094 C 354.855469 526.535156 353.757812 526.542969 352.441406 527.027344 C 351.511719 527.367188 348.207031 527.769531 345.089844 527.921875 C 339.898438 528.171875 339.21875 528.101562 336.960938 527.042969 C 334.628906 525.949219 334.308594 525.921875 330.96875 526.519531 C 329.027344 526.867188 326.265625 527.136719 324.824219 527.125 C 323.390625 527.113281 321.246094 527.429688 320.0625 527.828125 C 317.421875 528.722656 316.382812 528.703125 313.195312 527.703125 Z M 372.28125 449.5625 C 371.726562 449.433594 370.554688 448.773438 369.667969 448.105469 C 368.785156 447.4375 366.40625 446.480469 364.382812 445.976562 C 362.363281 445.46875 359.820312 444.574219 358.730469 443.984375 C 357.644531 443.394531 355.832031 442.683594 354.703125 442.410156 C 353.566406 442.136719 351.953125 441.402344 351.105469 440.78125 C 346.054688 437.09375 343.835938 435.140625 342.765625 433.441406 C 342.101562 432.390625 340.992188 431.105469 340.304688 430.585938 C 338.804688 429.457031 335.386719 425.152344 334.347656 423.09375 C 332.726562 419.878906 331.863281 414.597656 332.125 409.507812 C 332.394531 404.191406 332.753906 402.097656 334.390625 396.335938 C 334.972656 394.269531 335.574219 391.757812 335.730469 390.75 C 335.890625 389.742188 336.882812 387.617188 337.96875 386.023438 C 339.46875 383.824219 340.003906 382.457031 340.230469 380.34375 C 340.785156 375.132812 341.003906 374.414062 342.84375 372.015625 C 343.851562 370.695312 345.320312 368.03125 346.109375 366.09375 C 346.898438 364.15625 348.070312 361.878906 348.710938 361.039062 C 349.84375 359.539062 349.859375 359.4375 349.167969 356.03125 C 348.519531 352.914062 348.535156 352.09375 349.324219 348.132812 C 350.160156 343.777344 350.160156 343.675781 349.136719 341.605469 C 348.566406 340.445312 347.953125 338.328125 347.796875 336.898438 C 347.636719 335.472656 347.070312 333.332031 346.519531 332.144531 C 345.980469 330.957031 345.539062 329.507812 345.523438 328.925781 C 345.511719 327.660156 342.917969 322.660156 341.007812 320.21875 C 338.546875 317.074219 333.992188 307.8125 333.992188 305.957031 C 333.992188 305.007812 333.550781 303.09375 333 301.703125 C 332.320312 299.980469 332.039062 298.191406 332.101562 296.050781 C 332.101562 294.332031 331.894531 292.136719 331.515625 291.171875 C 331.136719 290.207031 330.492188 288.546875 330.050781 287.480469 C 329.625 286.414062 329.308594 284.726562 329.375 283.726562 C 329.640625 278.636719 329.375 271.433594 328.929688 270.550781 C 328.632812 270 328.441406 268.554688 328.488281 267.339844 C 328.648438 264.546875 328.648438 261.925781 328.488281 259.371094 C 328.285156 255.179688 329.105469 248.34375 330.035156 246.496094 C 330.554688 245.476562 330.980469 244.003906 330.980469 243.222656 C 330.980469 242.445312 331.4375 240.527344 331.976562 238.960938 C 332.527344 237.390625 332.96875 235.710938 332.96875 235.222656 C 332.96875 234.734375 333.425781 232.980469 333.980469 231.328125 C 334.53125 229.675781 335.210938 227.414062 335.476562 226.304688 C 336.078125 223.8125 339.535156 217.910156 341.800781 215.53125 C 342.730469 214.554688 343.492188 213.25 343.492188 212.628906 C 343.492188 211.316406 344.707031 208.730469 346.015625 207.289062 C 346.519531 206.738281 347.761719 204.710938 348.792969 202.785156 C 349.816406 200.855469 351.269531 198.488281 352.011719 197.523438 C 352.75 196.5625 354.066406 194.277344 354.933594 192.453125 C 356.523438 189.089844 357.808594 187.832031 360.265625 187.214844 C 361.054688 187.015625 362.179688 186.050781 362.949219 184.910156 C 368.117188 177.25 371.128906 174 373.0625 173.992188 C 373.492188 173.992188 374.625 173.175781 375.570312 172.1875 C 376.515625 171.195312 378.34375 169.78125 379.628906 169.039062 C 380.90625 168.296875 383.617188 166.503906 385.640625 165.050781 C 391.125 161.105469 394.785156 159.097656 398.234375 158.132812 C 399.9375 157.65625 402.550781 156.628906 404.042969 155.847656 C 405.875 154.882812 407.367188 154.460938 408.65625 154.539062 C 410.09375 154.617188 411.089844 154.277344 412.707031 153.121094 C 415.757812 150.949219 418.191406 150.273438 421.582031 150.65625 C 424.242188 150.957031 424.574219 150.875 426.335938 149.476562 C 428.316406 147.898438 429.15625 147.675781 434.890625 147.199219 C 437.25 147.003906 439.058594 147.136719 440.398438 147.585938 C 442.394531 148.265625 446.707031 148.28125 456.167969 147.632812 C 459.796875 147.386719 460.824219 147.507812 463.160156 148.429688 C 464.675781 149.027344 466.808594 149.703125 467.917969 149.933594 C 478.984375 152.222656 483.28125 153.785156 486.367188 156.65625 C 487.1875 157.414062 488.351562 157.957031 489.171875 157.957031 C 491.011719 157.957031 497.007812 161.125 499.277344 163.296875 C 500.445312 164.40625 502.191406 165.351562 504.246094 165.972656 C 507.152344 166.851562 507.886719 167.398438 512.96875 172.441406 C 516.019531 175.46875 520.34375 179.738281 522.578125 181.925781 C 524.960938 184.261719 526.789062 186.5 526.996094 187.332031 C 527.1875 188.117188 527.945312 189.378906 528.660156 190.136719 C 530.144531 191.6875 532.121094 194.941406 534.0625 199.003906 C 534.789062 200.507812 535.828125 202.058594 536.386719 202.449219 C 537.851562 203.480469 538.796875 206.113281 538.796875 209.210938 C 538.796875 211.066406 539.050781 212.128906 539.585938 212.574219 C 540.640625 213.453125 542.066406 216.3125 542.800781 219.054688 C 543.132812 220.289062 543.828125 221.890625 544.347656 222.613281 C 545.910156 224.804688 546.359375 226.5625 546.847656 232.324219 C 547.101562 235.355469 547.558594 239.636719 547.84375 241.839844 C 548.378906 245.910156 548.996094 255.519531 548.980469 259.617188 C 548.980469 260.859375 548.570312 262.648438 548.078125 263.59375 C 547.304688 265.082031 547.226562 266.082031 547.527344 270.933594 C 547.84375 276.027344 547.78125 276.742188 546.832031 278.582031 C 546.125 279.960938 545.792969 281.566406 545.792969 283.59375 C 545.792969 286.039062 545.476562 287.171875 544.039062 289.878906 C 542.933594 291.945312 542.285156 293.886719 542.28125 295.054688 C 542.28125 297.410156 541.175781 299.539062 539.074219 301.273438 C 537.472656 302.597656 536.378906 304.835938 535.296875 309.023438 C 535 310.167969 534.019531 312.195312 533.101562 313.53125 C 532.1875 314.863281 530.488281 317.984375 529.324219 320.460938 C 526.121094 327.265625 526.058594 327.355469 523.441406 329.0625 C 519.886719 331.378906 516.292969 335.253906 514.523438 338.679688 C 513.308594 341.019531 507.265625 346.960938 504.820312 348.210938 C 503.699219 348.777344 502.640625 349.488281 502.457031 349.789062 C 502.265625 350.085938 500.507812 351.359375 498.542969 352.617188 C 496.574219 353.875 494.285156 355.492188 493.453125 356.210938 C 492.617188 356.929688 489.96875 358.527344 487.554688 359.757812 C 484.828125 361.148438 481.8125 363.230469 479.597656 365.25 C 476.246094 368.3125 474.484375 369.371094 463.378906 375.007812 C 461.703125 375.855469 459.519531 377.371094 458.527344 378.378906 C 457.53125 379.386719 455.867188 380.488281 454.828125 380.832031 C 453.785156 381.175781 452.085938 382.070312 451.046875 382.820312 C 450.007812 383.574219 448.160156 384.441406 446.9375 384.75 C 444.980469 385.238281 444.519531 385.640625 443.148438 388.039062 C 441.679688 390.613281 439.085938 393.324219 438.105469 393.324219 C 437.867188 393.324219 436.796875 394.210938 435.71875 395.289062 C 434.472656 396.550781 432.988281 397.453125 431.570312 397.816406 C 430.355469 398.128906 428.511719 398.710938 427.472656 399.113281 C 425.5 399.871094 422.65625 400.039062 420.699219 399.515625 C 419.972656 399.320312 419.082031 398.285156 418.277344 396.699219 C 417.140625 394.457031 417.0625 393.96875 417.550781 392.035156 C 417.851562 390.851562 418.085938 389.179688 418.085938 388.324219 C 418.085938 386.414062 419.0625 384.464844 420.839844 382.808594 C 421.582031 382.121094 423.074219 380.042969 424.15625 378.191406 C 425.246094 376.335938 426.695312 374.421875 427.382812 373.933594 C 428.078125 373.445312 429.46875 372.410156 430.480469 371.636719 C 431.492188 370.863281 433.304688 369.96875 434.5 369.648438 C 436.199219 369.191406 436.847656 368.703125 437.460938 367.414062 C 438.359375 365.527344 440.269531 364.007812 442.40625 363.492188 C 443.210938 363.296875 444.910156 362.179688 446.171875 361.011719 C 447.449219 359.824219 449.222656 358.726562 450.179688 358.527344 C 452.691406 357.996094 456.636719 356.25 458.738281 354.746094 C 459.746094 354.023438 461.597656 353.039062 462.847656 352.5625 C 464.609375 351.890625 465.453125 351.148438 466.621094 349.246094 C 468.273438 346.566406 469.804688 345.5625 473.5 344.734375 C 475.914062 344.195312 478.992188 342.476562 483.0625 339.40625 C 484.339844 338.441406 486.078125 337.667969 487.421875 337.464844 C 489.753906 337.117188 490.398438 336.492188 492.316406 332.730469 C 492.804688 331.765625 494.703125 329.738281 496.523438 328.222656 C 498.34375 326.710938 500.238281 324.824219 500.734375 324.03125 C 501.222656 323.242188 503.195312 320.980469 505.109375 319.007812 C 507.027344 317.035156 508.957031 314.71875 509.402344 313.855469 C 509.84375 312.996094 510.980469 311.648438 511.914062 310.867188 C 513.589844 309.46875 515.398438 305.828125 517.046875 300.539062 C 517.457031 299.222656 518.996094 296.378906 520.464844 294.222656 C 522.355469 291.445312 523.386719 289.292969 524 286.851562 C 524.472656 284.957031 525.179688 282.796875 525.558594 282.050781 C 525.9375 281.308594 526.269531 279.394531 526.269531 277.796875 C 526.269531 276.199219 526.664062 273.425781 527.105469 271.636719 C 527.625 269.601562 527.957031 266.03125 528.003906 262.121094 C 528.003906 257.355469 528.289062 255.503906 528.921875 254.359375 C 530.117188 252.1875 530.007812 248.074219 528.683594 245.84375 C 527.785156 244.316406 527.660156 243.511719 527.878906 240.683594 C 528.101562 237.988281 527.878906 236.609375 526.949219 233.636719 C 526.289062 231.605469 525.75 229.628906 525.75 229.25 C 525.75 228.867188 525.074219 227.359375 524.253906 225.898438 C 523.433594 224.441406 522.539062 222.101562 522.273438 220.703125 C 521.972656 219.085938 520.839844 216.652344 519.175781 214.039062 C 517.0625 210.707031 516.515625 209.398438 516.335938 207.21875 C 516.128906 204.695312 515.941406 204.382812 513.59375 202.410156 C 512.203125 201.25 510.34375 199.167969 509.453125 197.785156 C 508.570312 196.398438 506.515625 193.914062 504.898438 192.261719 C 503.285156 190.609375 501.597656 188.554688 501.148438 187.695312 C 500.535156 186.515625 499.871094 186.050781 498.414062 185.777344 C 495.679688 185.265625 494.058594 184.316406 491.523438 181.742188 C 490.261719 180.460938 488.839844 179.492188 488.226562 179.492188 C 487.644531 179.492188 486.269531 179.039062 485.1875 178.488281 C 484.117188 177.941406 482.871094 177.488281 482.433594 177.488281 C 481.171875 177.488281 478.027344 175.699219 476.800781 174.28125 C 476.027344 173.382812 475.175781 172.980469 474.046875 172.972656 C 473.148438 172.972656 471.292969 172.296875 469.914062 171.480469 C 468.445312 170.605469 466.6875 169.992188 465.65625 169.984375 C 464.695312 169.984375 462.28125 169.667969 460.300781 169.289062 C 457.640625 168.78125 456.113281 168.734375 454.464844 169.113281 C 452.839844 169.484375 451.644531 169.453125 450.058594 169 C 446.257812 167.921875 436.871094 167.964844 432.910156 169.082031 C 430.757812 169.691406 428.828125 169.9375 427.78125 169.742188 C 426.519531 169.503906 425.574219 169.726562 423.96875 170.640625 C 421.207031 172.214844 418.324219 173.175781 413.074219 174.265625 C 410.03125 174.902344 407.820312 175.75 405.3125 177.246094 C 403.382812 178.398438 401.058594 179.722656 400.144531 180.195312 C 399.230469 180.667969 397.136719 182.074219 395.496094 183.324219 C 393.855469 184.570312 390.953125 186.351562 389.042969 187.28125 C 386.960938 188.292969 385.234375 189.523438 384.714844 190.363281 C 383.421875 192.460938 380.449219 195.503906 378.917969 196.308594 C 378.160156 196.707031 376.667969 198.550781 375.523438 200.507812 C 374.214844 202.746094 372.730469 204.519531 371.371094 205.460938 C 369.730469 206.59375 368.761719 207.910156 367.050781 211.339844 C 364.851562 215.742188 359.6875 224.277344 357.265625 227.519531 C 356.554688 228.457031 355.988281 229.648438 355.988281 230.160156 C 355.988281 230.675781 355.417969 232.4375 354.742188 234.074219 C 353.9375 235.96875 353.496094 238.003906 353.480469 239.691406 C 353.480469 241.511719 352.832031 244.128906 351.414062 248.09375 C 349.484375 253.496094 348.300781 259.976562 348.355469 264.871094 C 348.515625 275.847656 350.1875 288.472656 352.066406 292.269531 C 352.570312 293.289062 352.996094 294.417969 352.996094 294.773438 C 352.996094 295.128906 353.5625 296.546875 354.242188 297.921875 C 355.042969 299.5625 355.472656 301.289062 355.472656 302.929688 C 355.472656 305.324219 355.628906 305.609375 358.972656 309.324219 C 363.652344 314.53125 364.125 315.542969 364.394531 320.957031 C 364.601562 325.214844 364.726562 325.613281 366.527344 328.132812 C 368.949219 331.519531 369.199219 332.757812 368.453125 337.574219 C 367.789062 341.871094 367.773438 341.984375 368.011719 348.542969 C 368.167969 352.339844 368.011719 353.605469 367.015625 356.195312 C 365.960938 359 365.910156 359.570312 366.433594 362.164062 C 366.78125 363.851562 367.710938 366.054688 368.703125 367.53125 C 369.632812 368.910156 371.128906 371.5 372.019531 373.289062 C 372.902344 375.082031 374.152344 377.160156 374.78125 377.910156 C 375.410156 378.660156 376.074219 379.929688 376.246094 380.734375 C 376.5 381.863281 377.035156 382.367188 378.6875 382.996094 C 379.855469 383.441406 381.652344 383.808594 382.6875 383.808594 C 385.335938 383.808594 387.136719 384.890625 389.222656 387.730469 C 391.152344 390.359375 394.410156 393.339844 396.503906 394.394531 C 400.222656 396.261719 402.054688 397.882812 402.054688 399.292969 C 402.054688 401.234375 401.234375 401.761719 397.761719 402.054688 C 394.386719 402.335938 390.785156 402.980469 387.605469 403.875 C 385.929688 404.34375 384.84375 404.355469 382.933594 403.90625 C 381.5625 403.589844 379.902344 403.332031 379.242188 403.332031 C 378.582031 403.332031 377.078125 402.898438 375.902344 402.367188 C 374.71875 401.839844 372.441406 400.902344 370.828125 400.289062 C 368.652344 399.457031 366.839844 398.164062 363.75 395.242188 C 361.46875 393.082031 359.460938 391.3125 359.285156 391.3125 C 359.113281 391.3125 358.308594 392.046875 357.488281 392.941406 C 356.402344 394.136719 356.007812 395.078125 355.992188 396.480469 C 355.992188 397.550781 355.3125 399.765625 354.460938 401.53125 C 353.625 403.257812 352.746094 405.890625 352.5 407.382812 C 352.246094 408.875 351.898438 410.46875 351.726562 410.925781 C 351.332031 411.917969 352.433594 414.214844 353.976562 415.601562 C 354.59375 416.152344 355.492188 417.414062 356 418.402344 C 357.058594 420.464844 361.949219 423.886719 365.914062 425.335938 C 367.300781 425.847656 369.113281 426.738281 369.925781 427.316406 C 371.625 428.527344 372.699219 428.601562 376.742188 427.789062 C 379.851562 427.164062 379.253906 427.050781 388.53125 430.058594 C 390.59375 430.730469 393.375 431.75 394.707031 432.328125 C 396.03125 432.90625 397.664062 433.378906 398.324219 433.378906 C 399.808594 433.378906 401.265625 435.417969 400.804688 436.867188 C 400.632812 437.433594 399.796875 438.253906 398.949219 438.6875 C 398.113281 439.125 396.199219 440.472656 394.707031 441.6875 C 393.226562 442.902344 391.675781 443.898438 391.285156 443.898438 C 390.890625 443.898438 389.832031 444.539062 388.925781 445.324219 C 386.449219 447.476562 385.355469 447.902344 382.320312 447.902344 C 380.734375 447.902344 378.46875 448.332031 377.011719 448.90625 C 374.429688 449.925781 374.027344 449.976562 372.253906 449.546875 Z M 555.679688 377.785156 C 552.78125 376.605469 550.96875 375.519531 549.304688 373.953125 C 548.613281 373.304688 547.273438 372.269531 546.316406 371.648438 C 544.433594 370.429688 544.324219 370.257812 541.316406 363.488281 C 539.054688 358.40625 538.867188 356.816406 540.210938 354.171875 C 540.71875 353.171875 541.269531 350.886719 541.441406 349.089844 C 541.835938 344.914062 544.476562 338.585938 546.695312 336.523438 C 547.59375 335.679688 549.125 334.261719 550.082031 333.371094 C 551.042969 332.480469 552.488281 331.410156 553.304688 330.988281 C 554.125 330.566406 555.601562 329.667969 556.601562 328.988281 C 557.597656 328.3125 559.242188 327.601562 560.246094 327.414062 C 561.257812 327.226562 562.796875 326.769531 563.683594 326.398438 C 564.566406 326.027344 566.195312 325.726562 567.296875 325.726562 C 568.589844 325.726562 569.613281 325.398438 570.191406 324.796875 C 571.980469 322.941406 573.804688 322.132812 576.199219 322.128906 C 578.917969 322.128906 582.882812 320.867188 582.804688 320.027344 C 582.601562 317.800781 581.890625 316.921875 579.085938 315.488281 C 575.921875 313.867188 573.839844 311.433594 573.839844 309.359375 C 573.839844 308.699219 573.398438 307.285156 572.847656 306.21875 C 571.300781 303.203125 570.753906 299.964844 570.613281 293.175781 C 570.375 282.121094 572.046875 274.472656 576.464844 266.277344 C 579.71875 260.242188 581.359375 258.417969 585.835938 255.867188 C 592.023438 252.34375 592.960938 251.695312 595.113281 249.449219 C 596.359375 248.148438 597.375 247.015625 597.375 246.925781 C 597.375 246.832031 595.515625 245.925781 593.246094 244.90625 C 586.167969 241.726562 585.707031 241.402344 584.335938 238.636719 C 583.628906 237.207031 581.265625 234.242188 579.007812 231.949219 C 576.777344 229.679688 574.699219 227.332031 574.394531 226.730469 C 573.511719 224.992188 572.46875 219.222656 572.09375 213.992188 C 571.78125 209.507812 571.84375 209.007812 572.980469 206.734375 C 573.65625 205.390625 574.367188 203.722656 574.570312 203.035156 C 575.65625 199.242188 577.636719 195.0625 579.066406 193.519531 C 579.964844 192.558594 580.984375 191.023438 581.34375 190.109375 C 582.210938 187.902344 584.371094 186.375 588.574219 185 C 592.015625 183.875 592.074219 183.871094 595.785156 184.746094 C 600.644531 185.894531 602.871094 187.773438 603.222656 191.035156 C 603.523438 193.835938 601.851562 197.242188 599.339844 198.933594 C 598.390625 199.570312 597.542969 200.359375 597.445312 200.6875 C 597.289062 201.015625 596.59375 202.710938 595.757812 204.453125 C 594.574219 206.925781 594.089844 208.964844 593.53125 213.71875 L 592.820312 219.8125 L 594.972656 221.550781 C 596.15625 222.507812 598.070312 224.238281 599.21875 225.398438 C 601.957031 228.164062 603.464844 228.878906 607.4375 229.296875 C 609.253906 229.484375 611.851562 230.15625 613.214844 230.789062 C 614.570312 231.417969 616.738281 232.09375 618.019531 232.285156 C 619.296875 232.476562 621.65625 233.097656 623.261719 233.660156 C 625.535156 234.464844 626.847656 234.621094 629.222656 234.382812 C 631.863281 234.113281 632.582031 234.242188 634.628906 235.332031 C 637.402344 236.804688 638.425781 236.851562 645.027344 235.800781 C 650.667969 234.902344 652.460938 235.21875 654.589844 237.476562 C 656.410156 239.40625 656.988281 241.976562 656.445312 245.734375 C 656.191406 247.453125 655.988281 249.019531 655.988281 249.214844 C 655.988281 250.148438 652.558594 253.308594 650.402344 254.398438 C 646.242188 256.507812 633.722656 259.125 627.796875 259.125 C 626.785156 259.125 624.992188 259.542969 623.816406 260.058594 C 622.632812 260.574219 620.433594 261.386719 618.917969 261.867188 C 617.402344 262.347656 614.566406 263.726562 612.617188 264.9375 C 610.363281 266.335938 607.988281 267.347656 606.105469 267.71875 C 603.65625 268.203125 602.859375 268.632812 601.488281 270.210938 C 600.523438 271.3125 599.035156 272.359375 597.957031 272.683594 C 596.742188 273.046875 595.296875 274.140625 593.824219 275.824219 C 591.789062 278.144531 591.476562 278.851562 590.699219 282.847656 C 590.226562 285.292969 589.5 287.925781 589.101562 288.707031 C 588.691406 289.484375 588.375 291.171875 588.375 292.457031 C 588.375 294.539062 588.597656 294.996094 590.351562 296.613281 C 591.441406 297.617188 592.796875 299.53125 593.363281 300.871094 C 593.933594 302.214844 595.015625 303.785156 595.769531 304.363281 C 596.527344 304.941406 599.210938 307.335938 601.738281 309.6875 C 604.265625 312.035156 607.09375 314.5625 608.027344 315.300781 C 609.542969 316.5 618.082031 320.144531 623.03125 321.699219 C 625.425781 322.453125 627.808594 325.183594 628.179688 327.59375 C 628.339844 328.632812 628.714844 330.644531 629.015625 332.058594 C 629.929688 336.332031 628.796875 339.035156 625.320312 340.804688 C 623.363281 341.804688 622.539062 341.871094 613.183594 341.792969 C 580.558594 341.515625 581.222656 341.503906 578.710938 342.402344 C 577.402344 342.871094 575.304688 343.253906 574.066406 343.253906 C 571.675781 343.253906 565.171875 346.125 563.988281 347.703125 C 563.65625 348.148438 562.695312 350.210938 561.867188 352.28125 C 560.460938 355.757812 560.335938 356.582031 560.246094 362.800781 C 560.246094 366.507812 560.40625 371.179688 560.5625 373.179688 C 560.925781 376.34375 560.863281 376.945312 560.074219 377.8125 C 558.984375 379.019531 558.71875 379.015625 555.6875 377.78125 Z M 405.832031 375.542969 C 403.71875 374.480469 401.160156 371.453125 400.492188 369.214844 C 400.003906 367.609375 400.097656 366.742188 400.996094 363.671875 C 401.597656 361.667969 402.066406 359.542969 402.066406 358.953125 C 402.066406 358.359375 403.046875 355.992188 404.253906 353.691406 C 405.453125 351.394531 406.832031 348.308594 407.3125 346.839844 C 407.789062 345.367188 408.796875 343.453125 409.554688 342.582031 C 410.3125 341.710938 412.425781 338.699219 414.257812 335.882812 C 416.09375 333.070312 418.027344 330.535156 418.554688 330.253906 C 419.09375 329.972656 419.851562 328.667969 420.261719 327.355469 C 422.054688 321.636719 423.6875 318.4375 425.824219 316.460938 C 427.007812 315.359375 428.144531 313.941406 428.339844 313.308594 C 428.527344 312.675781 430.125 310.546875 431.875 308.570312 C 433.941406 306.242188 435.421875 304.011719 436.085938 302.210938 C 437.570312 298.191406 439.929688 294.324219 441.507812 293.320312 C 443.242188 292.21875 443.613281 291.691406 443.625 290.332031 C 443.625 289.097656 441.464844 287.167969 440.070312 287.167969 C 439.5625 287.167969 437.617188 286.574219 435.753906 285.847656 C 433.890625 285.125 431.738281 284.308594 430.976562 284.03125 C 430.21875 283.757812 428.484375 282.433594 427.136719 281.09375 C 425.78125 279.753906 424.316406 278.65625 423.863281 278.65625 C 422.398438 278.65625 420.476562 283.878906 420.28125 288.378906 C 420.121094 291.8125 419.886719 292.722656 418.4375 295.15625 C 416.578125 298.277344 415.585938 300.796875 415.585938 302.410156 C 415.585938 303 415.128906 304.367188 414.59375 305.445312 C 414.042969 306.527344 413.585938 308.320312 413.585938 309.433594 C 413.585938 310.554688 413 312.679688 412.289062 314.210938 C 410.253906 318.539062 408.707031 323.699219 408.4375 327.074219 C 408.230469 329.519531 407.789062 330.816406 406.296875 333.234375 C 405.066406 335.238281 404.28125 337.214844 404.046875 338.953125 C 403.699219 341.542969 400.847656 346.582031 398.75 348.324219 C 398.308594 348.695312 397.519531 349.957031 397.023438 351.125 C 396.359375 352.6875 395.4375 353.667969 393.574219 354.816406 C 392.171875 355.675781 390.714844 356.996094 390.324219 357.753906 C 389.1875 359.933594 385.015625 363.785156 383.78125 363.785156 C 381.773438 363.785156 381.367188 362.644531 381.769531 358.136719 C 381.976562 355.875 382.117188 350.527344 382.101562 346.257812 C 382.101562 339.003906 382.101562 338.332031 383.285156 335.976562 C 383.960938 334.589844 384.863281 332.449219 385.296875 331.222656 C 385.722656 329.996094 386.878906 327.550781 387.847656 325.789062 C 389.433594 322.902344 389.574219 322.335938 389.28125 319.996094 C 389.0625 318.195312 389.125 316.859375 389.691406 315.628906 C 390.101562 314.65625 390.589844 312.941406 390.78125 311.824219 C 390.96875 310.707031 391.757812 308.238281 392.527344 306.339844 C 393.300781 304.441406 394.089844 302.195312 394.269531 301.347656 C 394.460938 300.5 395.390625 298.886719 396.351562 297.769531 C 398.050781 295.785156 398.085938 295.652344 397.769531 292.574219 C 397.40625 289.046875 398.320312 285.113281 400.371094 281.242188 C 401.019531 280.011719 401.554688 278.628906 401.554688 278.171875 C 401.554688 276.886719 404.542969 268.988281 405.382812 268.058594 C 406.46875 266.855469 407.523438 261.90625 407.542969 257.9375 C 407.542969 254.820312 407.386719 254.339844 406.0625 252.796875 C 405.242188 251.859375 404.429688 250.476562 404.261719 249.722656 C 404.089844 248.972656 403.585938 247.230469 403.128906 245.851562 C 402.574219 244.199219 402.308594 241.730469 402.308594 238.589844 C 402.308594 232.023438 403.503906 229.167969 408.210938 224.214844 C 412.066406 220.15625 414.375 218.703125 417.699219 218.246094 C 420.605469 217.847656 422.59375 218.796875 426.660156 222.519531 C 431.03125 226.523438 432.109375 229.4375 432.175781 237.414062 C 432.175781 243.578125 431.042969 254.832031 430.164062 256.46875 C 429.28125 258.105469 429.40625 258.355469 431.550781 259.300781 C 432.921875 259.902344 433.996094 260.9375 435.050781 262.652344 C 436.535156 265.074219 436.636719 265.132812 438.992188 265.132812 C 440.921875 265.132812 442.414062 265.652344 446.386719 267.703125 C 451.191406 270.1875 451.511719 270.277344 455.761719 270.355469 L 460.164062 270.433594 L 462.984375 268.050781 C 464.527344 266.738281 466.835938 265.183594 468.097656 264.597656 C 470.84375 263.320312 472.257812 262.085938 474.226562 259.246094 C 476.222656 256.363281 478.640625 255.246094 484.359375 254.574219 C 492.621094 253.597656 498.492188 255.601562 502.140625 260.636719 C 504.328125 263.65625 504.894531 266.714844 503.945312 270.328125 C 502.980469 273.957031 501.65625 275.890625 499.265625 277.109375 C 496.902344 278.316406 495.875 279.507812 495.441406 281.546875 C 494.683594 285.082031 490.953125 287.613281 487.453125 286.957031 C 486.082031 286.699219 485.382812 286.945312 483.351562 288.417969 C 479.640625 291.109375 477.839844 291.773438 474.6875 291.625 C 467.113281 291.265625 467.082031 291.277344 463.378906 296.171875 C 462.273438 297.628906 460.1875 300.3125 458.738281 302.132812 C 457.289062 303.953125 455.507812 306.683594 454.773438 308.199219 C 454.046875 309.714844 452.949219 311.632812 452.34375 312.460938 C 451.746094 313.289062 450.429688 315.578125 449.4375 317.554688 C 448.445312 319.53125 447.378906 321.300781 447.074219 321.488281 C 446.773438 321.675781 446.082031 322.875 445.527344 324.15625 C 444.976562 325.433594 444 327.042969 443.355469 327.730469 C 441.730469 329.453125 438.824219 333.578125 437.53125 335.992188 C 436.949219 337.097656 435.492188 339.039062 434.3125 340.308594 C 431.980469 342.824219 429.578125 347.113281 429.578125 348.765625 C 429.578125 350.0625 427.925781 353.355469 426.816406 354.277344 C 424.871094 355.894531 422.988281 359.464844 422.011719 363.394531 C 420.59375 369.128906 419.8125 370.542969 417.132812 372.300781 C 415.855469 373.136719 414.039062 374.382812 413.105469 375.0625 C 411.117188 376.515625 408.109375 376.710938 405.789062 375.546875 Z M 259.320312 176.203125 C 258.785156 175.554688 258.765625 174.414062 259.320312 170.042969 C 259.652344 167.09375 259.917969 163.277344 259.917969 161.566406 C 259.917969 159.851562 260.375 156.824219 260.929688 154.832031 C 261.605469 152.402344 261.84375 150.472656 261.636719 148.957031 C 261.433594 147.402344 261.636719 145.460938 262.441406 142.746094 C 263.261719 139.757812 263.453125 138.140625 263.199219 136.089844 C 262.929688 133.894531 263.039062 133.011719 263.875 131.4375 C 264.585938 130.078125 264.871094 128.597656 264.855469 126.5 C 264.855469 124.261719 265.074219 123.066406 265.878906 121.769531 C 266.460938 120.816406 266.949219 119.273438 266.949219 118.34375 C 266.949219 117.410156 267.503906 115.75 268.179688 114.648438 C 269.160156 113.050781 269.410156 111.960938 269.425781 109.28125 C 269.425781 104.195312 271.195312 99.359375 274.875 94.183594 C 276.570312 91.796875 277.953125 89.382812 277.953125 88.8125 C 277.953125 87.160156 281.789062 77.8125 283.695312 74.820312 C 284.65625 73.3125 285.445312 71.742188 285.453125 71.328125 C 285.453125 70.914062 286.132812 69.339844 286.953125 67.824219 C 287.773438 66.308594 288.433594 64.78125 288.449219 64.429688 C 288.449219 63.515625 281.546875 67.289062 280.527344 68.742188 C 278.171875 72.089844 276.855469 73.238281 274.769531 73.761719 C 273.570312 74.066406 272.285156 74.671875 271.921875 75.113281 C 271.558594 75.550781 270.394531 76.355469 269.328125 76.898438 C 266.457031 78.359375 259.925781 82.832031 259.925781 83.335938 C 259.925781 83.84375 253.28125 88.832031 251.433594 89.710938 C 250.738281 90.042969 249.433594 90.324219 248.546875 90.335938 C 247.347656 90.351562 246.648438 90.746094 245.839844 91.84375 C 244.496094 93.660156 242.070312 94.867188 239.773438 94.867188 C 238.699219 94.867188 237.714844 95.238281 237.164062 95.839844 C 236.359375 96.726562 230.445312 99.875 229.578125 99.875 C 229.042969 99.875 224.304688 102.890625 222.957031 104.089844 C 221.757812 105.152344 219.316406 106.527344 215.355469 108.367188 C 214.113281 108.941406 212.425781 109.789062 211.601562 110.246094 C 206.503906 113.070312 204.292969 113.90625 203.324219 113.386719 C 201.542969 112.433594 202.1875 110.808594 205.832031 107.136719 C 207.738281 105.207031 210.40625 102.730469 211.761719 101.628906 C 213.121094 100.523438 214.59375 98.890625 215.035156 97.992188 C 215.476562 97.09375 216.582031 96.003906 217.480469 95.566406 C 218.378906 95.132812 219.746094 93.789062 220.519531 92.578125 C 221.292969 91.371094 222.613281 89.871094 223.457031 89.246094 C 224.292969 88.617188 225.914062 87.167969 227.054688 86.023438 C 228.191406 84.875 230.046875 83.484375 231.171875 82.925781 C 232.292969 82.371094 233.84375 81.085938 234.613281 80.078125 C 238.097656 75.511719 243.40625 70.835938 247.371094 68.84375 C 250 67.523438 251.835938 66.207031 252.761719 64.980469 C 255.082031 61.914062 256.855469 60.40625 258.5625 60.050781 C 261.851562 59.363281 264.402344 57.6875 266.039062 55.140625 C 267.300781 53.179688 268.21875 52.402344 270.414062 51.4375 C 271.945312 50.765625 273.757812 49.683594 274.449219 49.03125 C 275.144531 48.378906 276.714844 47.398438 277.953125 46.847656 C 279.199219 46.300781 280.996094 45.035156 281.960938 44.039062 C 282.921875 43.042969 284.839844 41.523438 286.214844 40.65625 C 288.800781 39.035156 292.765625 36.039062 297.039062 32.472656 C 298.394531 31.34375 300.335938 30.167969 301.371094 29.859375 C 302.394531 29.550781 304.597656 28.480469 306.25 27.480469 C 307.898438 26.480469 310.558594 25 312.152344 24.191406 C 313.75 23.382812 316.488281 21.734375 318.246094 20.53125 C 320.140625 19.234375 322.472656 18.125 323.988281 17.800781 C 325.390625 17.5 327.433594 16.660156 328.53125 15.933594 C 329.875 15.050781 331.566406 14.492188 333.664062 14.253906 C 335.382812 14.054688 337.429688 13.632812 338.207031 13.316406 C 338.976562 13 340.3125 12.738281 341.164062 12.738281 C 342.046875 12.738281 343.761719 12.066406 345.132812 11.1875 C 346.457031 10.335938 348.507812 9.515625 349.683594 9.367188 C 350.867188 9.210938 352.429688 8.785156 353.171875 8.410156 C 353.914062 8.035156 355.875 7.726562 357.523438 7.726562 C 359.167969 7.726562 361.152344 7.476562 361.929688 7.167969 C 362.703125 6.859375 365.367188 6.578125 367.84375 6.539062 C 370.324219 6.507812 372.691406 6.25 373.101562 5.972656 C 373.511719 5.699219 376.332031 5.464844 379.363281 5.445312 C 383.101562 5.429688 385.675781 5.152344 387.375 4.585938 C 388.75 4.128906 391.34375 3.511719 393.132812 3.21875 C 394.925781 2.925781 397.375 2.496094 398.578125 2.257812 C 400.535156 1.875 400.796875 1.9375 401.027344 2.824219 C 401.234375 3.585938 401.597656 3.757812 402.589844 3.5625 C 410.511719 2.023438 413.242188 1.734375 415.347656 2.203125 C 416.847656 2.539062 418.472656 2.542969 420.203125 2.214844 C 424.058594 1.484375 428.398438 1.613281 430.683594 2.527344 C 432.246094 3.152344 433.523438 3.253906 436.328125 2.984375 C 438.324219 2.789062 441.644531 2.5625 443.710938 2.472656 C 445.773438 2.394531 448.625 2.039062 450.042969 1.699219 C 451.976562 1.238281 453.019531 1.226562 454.222656 1.636719 C 455.722656 2.160156 461.179688 1.75 463.839844 0.925781 C 464.316406 0.785156 465.660156 0.925781 466.847656 1.242188 C 468.632812 1.722656 469.617188 1.667969 472.613281 0.921875 C 476.046875 0.0664062 476.367188 0.0625 478.941406 0.871094 C 481.339844 1.628906 482 1.648438 484.59375 1.058594 C 486.808594 0.550781 489.0625 0.492188 493.789062 0.8125 C 497.230469 1.046875 500.386719 1.257812 500.800781 1.285156 C 501.210938 1.316406 502.566406 1.121094 503.804688 0.867188 C 505.226562 0.578125 506.710938 0.585938 507.8125 0.882812 C 509.734375 1.414062 525.605469 1.445312 529.59375 0.929688 C 531.25 0.714844 533.199219 0.882812 535.351562 1.414062 C 538.296875 2.152344 538.886719 2.15625 541.511719 1.460938 C 544.980469 0.554688 547.546875 0.496094 549.019531 1.28125 C 550.484375 2.066406 559.585938 1.847656 562.183594 0.964844 C 563.746094 0.4375 564.699219 0.394531 566.191406 0.796875 C 567.265625 1.085938 568.71875 1.3125 569.40625 1.300781 C 570.101562 1.285156 574.015625 1.15625 578.121094 1.015625 C 583.90625 0.816406 585.886719 0.921875 586.925781 1.453125 C 588.078125 2.046875 588.628906 2.039062 590.8125 1.40625 C 593.046875 0.75 593.710938 0.746094 596.28125 1.390625 C 598.511719 1.945312 602.105469 2.085938 611.472656 1.996094 C 620.753906 1.902344 624.132812 2.046875 625.347656 2.546875 C 626.625 3.074219 627.464844 3.089844 629.480469 2.625 C 631.410156 2.179688 632.925781 2.179688 635.886719 2.632812 C 638.023438 2.960938 640.683594 3.222656 641.804688 3.222656 C 645.265625 3.210938 653.203125 4.769531 654.851562 5.773438 C 655.921875 6.429688 656.890625 6.628906 657.945312 6.417969 C 658.90625 6.226562 660.074219 6.410156 661.089844 6.917969 C 661.972656 7.363281 663.433594 7.726562 664.320312 7.726562 C 665.203125 7.726562 666.695312 8.039062 667.625 8.421875 C 668.554688 8.804688 670.777344 9.265625 672.570312 9.449219 C 674.359375 9.632812 676.839844 10 678.078125 10.269531 C 679.308594 10.535156 682.585938 11.203125 685.339844 11.75 C 690.601562 12.792969 691.964844 13.621094 691.089844 15.253906 C 690.410156 16.53125 684.335938 17.738281 678.078125 17.839844 C 676.5625 17.871094 674.675781 18.210938 673.886719 18.609375 C 673.097656 19.003906 671.992188 19.210938 671.433594 19.0625 C 670.53125 18.828125 666.6875 19.605469 664.554688 20.449219 C 664.144531 20.613281 660.3125 20.835938 656.042969 20.941406 C 650.992188 21.066406 647.058594 21.433594 644.777344 21.996094 C 639.351562 23.332031 634.085938 23.5 629.242188 22.480469 C 626.398438 21.882812 624.375 21.726562 622.902344 21.988281 C 617.367188 22.96875 604.105469 23.152344 597.257812 22.34375 C 593.09375 21.851562 591.894531 21.878906 589.734375 22.507812 C 587.496094 23.160156 586.582031 23.164062 582.667969 22.570312 C 580.195312 22.191406 577.609375 21.667969 576.917969 21.410156 C 574.886719 20.652344 565.429688 21.027344 563.289062 21.953125 C 560.988281 22.945312 558.882812 22.976562 556.640625 22.046875 C 555.414062 21.535156 554.457031 21.457031 553.277344 21.78125 C 549.773438 22.746094 542.339844 22.371094 533.601562 20.789062 C 527.707031 19.71875 526.992188 19.699219 523.335938 20.46875 C 521.269531 20.902344 517.5 21.257812 514.957031 21.257812 C 512.414062 21.257812 509.324219 21.527344 508.097656 21.855469 C 506.128906 22.382812 505.425781 22.316406 502.203125 21.304688 C 498.144531 20.035156 495.933594 20.125 484.730469 22.03125 C 479.667969 22.894531 479.261719 22.894531 475.84375 22.0625 C 470.757812 20.828125 460.9375 20.917969 456.828125 22.242188 C 455.054688 22.8125 454.238281 22.824219 452.21875 22.304688 C 450.863281 21.960938 449.269531 21.832031 448.664062 22.027344 C 448.0625 22.21875 444.265625 22.417969 440.242188 22.46875 C 436.214844 22.515625 432.644531 22.730469 432.304688 22.941406 C 431.957031 23.152344 430 23.035156 427.941406 22.695312 C 424.460938 22.109375 423.984375 22.144531 421.0625 23.167969 C 417.203125 24.523438 415.925781 24.542969 413.542969 23.265625 C 411.832031 22.347656 411.277344 22.308594 406.789062 22.773438 C 396.433594 23.839844 393.804688 24.003906 391.476562 23.734375 C 389.472656 23.503906 388.769531 23.65625 387.292969 24.664062 C 385.59375 25.816406 385.089844 25.878906 375.429688 26.078125 C 368.472656 26.21875 364.71875 26.507812 363.335938 26.996094 C 362.234375 27.386719 360.234375 27.851562 358.894531 28.027344 C 357.554688 28.203125 355.5625 28.8125 354.476562 29.378906 C 352.8125 30.246094 351.933594 30.363281 348.960938 30.113281 C 344.933594 29.777344 342.675781 30.59375 339.550781 33.523438 C 338.589844 34.425781 337.195312 35.472656 336.457031 35.847656 C 334.128906 37.039062 324.585938 47.828125 324.003906 49.933594 C 323.65625 51.203125 322.253906 53.074219 319.703125 55.691406 C 317.167969 58.289062 315.460938 60.570312 314.523438 62.617188 C 313.75 64.292969 312.082031 66.835938 310.8125 68.265625 C 309.519531 69.71875 308.5 71.367188 308.5 71.992188 C 308.5 73.652344 306.519531 76.234375 304.28125 77.492188 C 302.527344 78.476562 302.253906 78.898438 301.765625 81.359375 C 301.46875 82.875 300.710938 84.929688 300.101562 85.921875 C 299.488281 86.917969 298.984375 88.492188 298.984375 89.421875 C 298.984375 91.308594 298.304688 92.679688 294.902344 97.699219 C 293.625 99.585938 292.421875 102.007812 292.238281 103.078125 C 292.046875 104.148438 291.464844 105.835938 290.941406 106.828125 C 290.40625 107.820312 289.980469 109.261719 289.980469 110.03125 C 289.980469 110.800781 289.648438 112.238281 289.222656 113.230469 C 288.8125 114.21875 288.46875 115.519531 288.46875 116.125 C 288.46875 117.503906 284.996094 124.390625 283.257812 126.453125 C 282.550781 127.304688 281.949219 128.328125 281.949219 128.730469 C 281.949219 129.128906 281.382812 130.816406 280.6875 132.476562 C 279.992188 134.132812 279.1875 136.664062 278.929688 138.09375 C 278.566406 140.0625 278.015625 141.101562 276.667969 142.378906 C 275.183594 143.78125 274.945312 144.300781 275.199219 145.484375 C 275.546875 147.074219 274.300781 150.210938 273.148438 150.65625 C 272.753906 150.8125 272.441406 151.265625 272.441406 151.679688 C 272.441406 152.09375 271.984375 153.316406 271.414062 154.398438 C 270.847656 155.476562 270.25 157.226562 270.074219 158.28125 C 269.902344 159.335938 268.671875 162.3125 267.34375 164.894531 C 266.019531 167.476562 264.921875 169.824219 264.921875 170.113281 C 264.921875 170.398438 264.417969 171.667969 263.820312 172.941406 C 261.894531 176.960938 260.722656 177.824219 259.382812 176.207031 Z M 259.320312 176.203125 " fill-opacity="1" fill-rule="nonzero"/></g></svg>