<svg xmlns="http://www.w3.org/2000/svg" xmlns:xlink="http://www.w3.org/1999/xlink" width="1080" zoomAndPan="magnify" viewBox="0 0 810 809.999993" height="1080" preserveAspectRatio="xMidYMid meet" version="1.0"><defs><clipPath id="805c68691e"><path d="M 0 14.175781 L 810 14.175781 L 810 795.675781 L 0 795.675781 Z M 0 14.175781 " clip-rule="nonzero"/></clipPath></defs><rect x="-81" width="972" fill="#ffffff" y="-80.999999" height="971.999992" fill-opacity="1"/><rect x="-81" width="972" fill="#ffffff" y="-80.999999" height="971.999992" fill-opacity="1"/><g clip-path="url(#805c68691e)"><path fill="#3c3738" d="M 84.058594 795.101562 C 83.292969 794.769531 82.085938 793.734375 81.378906 792.808594 C 80.21875 791.292969 80.09375 790.78125 80.09375 787.710938 C 80.09375 784.304688 80.09375 784.300781 82.675781 780.417969 C 84.097656 778.28125 85.742188 776.21875 86.328125 775.835938 C 86.914062 775.449219 87.617188 774.5 87.890625 773.722656 C 88.160156 772.941406 89.015625 771.65625 89.789062 770.855469 C 90.558594 770.058594 92.113281 767.820312 93.234375 765.882812 C 96.347656 760.515625 97.65625 758.789062 101.421875 755.085938 C 103.328125 753.210938 104.886719 751.355469 104.886719 750.960938 C 104.886719 749.84375 107.007812 747.597656 109.289062 746.296875 C 112.144531 744.671875 113.726562 743.132812 114.050781 741.664062 C 114.199219 740.980469 115.726562 738.847656 117.441406 736.925781 C 119.160156 735 120.949219 732.695312 121.417969 731.808594 C 122.296875 730.136719 124.472656 728.058594 126.132812 727.300781 C 126.648438 727.066406 127.589844 725.824219 128.21875 724.539062 C 128.847656 723.257812 130.691406 720.761719 132.3125 718.992188 C 133.9375 717.222656 135.265625 715.582031 135.265625 715.347656 C 135.265625 715.109375 136.167969 713.898438 137.273438 712.652344 C 138.378906 711.40625 139.285156 710.199219 139.285156 709.960938 C 139.285156 709.503906 142.179688 706.027344 146.164062 701.707031 C 150.191406 697.339844 151.117188 696.421875 153.066406 694.867188 C 154.089844 694.054688 155.253906 692.746094 155.65625 691.964844 C 156.054688 691.179688 157.5625 689.277344 158.996094 687.738281 C 160.433594 686.199219 162.0625 684.3125 162.621094 683.550781 C 163.175781 682.789062 164.582031 681.523438 165.742188 680.734375 C 166.902344 679.949219 168.882812 677.914062 170.144531 676.210938 C 171.402344 674.511719 173.195312 672.3125 174.128906 671.332031 C 175.0625 670.347656 176.351562 668.492188 176.988281 667.210938 C 177.628906 665.929688 178.757812 664.429688 179.5 663.882812 C 180.28125 663.304688 181.027344 662.214844 181.28125 661.269531 C 181.742188 659.554688 183.191406 657.914062 185.710938 656.257812 C 186.738281 655.578125 187.449219 654.621094 187.878906 653.324219 C 188.335938 651.945312 189.585938 650.339844 192.265625 647.671875 C 194.332031 645.621094 196.019531 643.742188 196.019531 643.492188 C 196.019531 643.242188 196.726562 642.597656 197.59375 642.0625 C 198.460938 641.527344 199.472656 640.503906 199.84375 639.785156 C 200.640625 638.238281 202.199219 636.484375 208.652344 629.882812 C 211.746094 626.714844 213.976562 623.984375 214.902344 622.234375 C 215.839844 620.46875 216.882812 619.203125 217.875 618.621094 C 220.269531 617.214844 223.207031 614.023438 225.6875 610.128906 C 227.632812 607.070312 228.328125 606.363281 230.503906 605.222656 C 232.230469 604.320312 233.339844 603.371094 233.960938 602.265625 C 234.464844 601.371094 235.179688 600.386719 235.554688 600.078125 C 235.929688 599.765625 236.605469 598.683594 237.054688 597.671875 C 237.980469 595.609375 239.820312 593.617188 241.710938 592.640625 C 242.5 592.234375 243.316406 591.199219 243.871094 589.902344 C 245.121094 586.988281 247.410156 584.347656 249.78125 583.085938 C 251.214844 582.328125 252.230469 581.308594 253.28125 579.574219 C 254.097656 578.230469 255.601562 576.277344 256.628906 575.238281 C 257.65625 574.199219 258.808594 572.746094 259.1875 572.011719 C 259.570312 571.28125 260.511719 570.207031 261.285156 569.632812 C 263.082031 568.296875 264.125 567.195312 270.335938 560.09375 C 273.128906 556.902344 276.597656 553.257812 278.042969 552 C 283.296875 547.421875 287.097656 543.4375 287.792969 541.777344 C 288.179688 540.84375 289.253906 539.242188 290.171875 538.21875 C 291.089844 537.191406 292.605469 535.410156 293.539062 534.261719 C 294.476562 533.109375 296.035156 531.761719 297.003906 531.269531 C 297.972656 530.773438 298.765625 530.191406 298.765625 529.96875 C 298.765625 529.265625 303.160156 524.726562 306.882812 521.585938 C 309.246094 519.589844 310.839844 517.835938 311.539062 516.457031 C 312.121094 515.304688 313.308594 513.824219 314.171875 513.164062 C 315.039062 512.503906 316.679688 510.53125 317.824219 508.78125 C 320.625 504.496094 321.875 503.183594 324.082031 502.222656 C 325.6875 501.523438 326.175781 500.957031 327.574219 498.144531 C 329.507812 494.261719 329.882812 493.847656 333.453125 491.652344 C 335.347656 490.484375 336.933594 488.992188 338.5625 486.832031 C 340.910156 483.726562 343.601562 479.03125 343.246094 478.675781 C 342.816406 478.246094 341.578125 479.398438 340.308594 481.398438 C 339.566406 482.570312 338.328125 483.871094 337.558594 484.289062 C 336.789062 484.703125 335.835938 485.429688 335.441406 485.902344 C 335.046875 486.375 332.816406 488.710938 330.480469 491.097656 C 328.148438 493.488281 325.332031 496.589844 324.226562 497.992188 C 320.429688 502.816406 320.097656 503.171875 318.703125 503.890625 C 317.933594 504.285156 316.46875 505.433594 315.445312 506.441406 C 314.425781 507.449219 312.046875 509.785156 310.164062 511.625 C 308.28125 513.46875 306.128906 515.9375 305.382812 517.117188 C 304.636719 518.292969 303.339844 519.722656 302.496094 520.296875 C 301.652344 520.867188 300.394531 522.234375 299.699219 523.328125 C 298.921875 524.554688 297.773438 525.628906 296.703125 526.136719 C 293.628906 527.59375 290.355469 530.347656 290.050781 531.738281 C 289.761719 533.058594 289.242188 533.636719 284.734375 537.644531 C 280.832031 541.117188 278.300781 543.742188 276.4375 546.246094 C 275.527344 547.476562 273.632812 549.457031 272.234375 550.652344 C 270.785156 551.890625 269.222656 553.75 268.597656 554.980469 C 267.753906 556.652344 266.570312 557.832031 263.367188 560.210938 C 261.089844 561.898438 258.15625 564.523438 256.84375 566.039062 C 255.132812 568.015625 253.964844 568.941406 252.699219 569.320312 C 250.78125 569.894531 249.742188 570.9375 243.890625 578.148438 C 241.839844 580.675781 239.53125 583.074219 238.761719 583.480469 C 236.839844 584.492188 234.644531 586.890625 233.59375 589.125 C 232.679688 591.070312 229.925781 593.824219 228.898438 593.824219 C 227.761719 593.824219 226.109375 595.558594 225.503906 597.386719 C 224.800781 599.511719 222.59375 601.644531 220.652344 602.074219 C 218.894531 602.457031 215.417969 605.542969 214.324219 607.6875 C 213.851562 608.621094 212.804688 609.832031 212 610.386719 C 209.304688 612.234375 207.996094 613.6875 206.984375 615.949219 C 206.15625 617.804688 205.3125 618.683594 202.160156 620.988281 C 199.96875 622.59375 198.234375 624.207031 198.089844 624.773438 C 197.777344 626.007812 191.765625 631.492188 189.589844 632.53125 C 188.503906 633.050781 187.679688 633.914062 187.0625 635.191406 C 186.089844 637.199219 183.242188 640.019531 180.9375 641.25 C 180.171875 641.660156 179.148438 642.777344 178.660156 643.730469 C 177.4375 646.125 175.308594 648.09375 173.285156 648.703125 C 171.585938 649.210938 170.03125 650.71875 165.050781 656.6875 C 161.433594 661.023438 159.808594 663.160156 159.152344 664.421875 C 158.097656 666.460938 154.246094 669.585938 152.015625 670.210938 C 150.46875 670.644531 149.785156 671.128906 149.25 672.164062 C 148.335938 673.929688 140.675781 682.195312 139.648438 682.523438 C 139.222656 682.664062 137.816406 684.113281 136.523438 685.757812 C 131.804688 691.753906 130.53125 693.078125 128.457031 694.148438 C 127.027344 694.882812 126.0625 695.78125 125.480469 696.90625 C 124.390625 699.019531 121.722656 701.566406 119.382812 702.738281 C 116.695312 704.082031 108 712.828125 106.292969 715.910156 C 105.273438 717.746094 104.242188 718.878906 102.75 719.816406 C 101.589844 720.542969 99.636719 722.109375 98.40625 723.292969 C 97.179688 724.480469 94.917969 726.328125 93.382812 727.402344 C 91.847656 728.476562 90.589844 729.515625 90.589844 729.707031 C 90.589844 729.902344 88.933594 731.835938 86.90625 734.003906 C 84.878906 736.171875 82.894531 738.554688 82.496094 739.304688 C 82.097656 740.054688 80.488281 741.734375 78.921875 743.035156 C 77.355469 744.339844 75.738281 745.949219 75.335938 746.613281 C 74.070312 748.675781 71.851562 749.953125 69.515625 749.953125 C 66.929688 749.953125 65.789062 749.15625 62.269531 744.882812 C 60.035156 742.171875 59.605469 741.355469 59.425781 739.523438 C 59.300781 738.175781 59.457031 736.917969 59.828125 736.199219 C 60.566406 734.789062 66.507812 729.367188 67.746094 728.976562 C 68.234375 728.820312 69.074219 727.949219 69.609375 727.039062 C 70.140625 726.128906 71.261719 724.8125 72.097656 724.121094 C 72.933594 723.425781 74.226562 721.972656 74.972656 720.890625 C 75.71875 719.8125 77.210938 718.40625 78.292969 717.773438 C 79.53125 717.046875 80.71875 715.835938 81.484375 714.523438 C 83.335938 711.355469 87.832031 706.863281 90.324219 705.695312 C 91.757812 705.023438 93.070312 703.925781 94.125 702.519531 C 95.085938 701.234375 96.523438 699.988281 97.6875 699.425781 C 99.03125 698.78125 99.835938 698.027344 100.265625 697.003906 C 100.609375 696.1875 103.246094 693.191406 106.125 690.347656 C 109.007812 687.503906 111.769531 684.476562 112.265625 683.617188 C 112.8125 682.671875 114.53125 681.160156 116.628906 679.785156 C 120.617188 677.167969 122.625 675.363281 123.027344 674.042969 C 123.589844 672.179688 125.511719 670.226562 128.175781 668.804688 C 129.675781 668.003906 131.433594 666.65625 132.078125 665.808594 C 132.726562 664.960938 134.261719 663.105469 135.488281 661.683594 C 136.714844 660.261719 138.214844 658.449219 138.816406 657.660156 C 139.417969 656.871094 140.527344 655.863281 141.277344 655.421875 C 142.027344 654.976562 142.996094 654.019531 143.425781 653.292969 C 143.851562 652.570312 145.070312 651.554688 146.128906 651.042969 C 147.382812 650.433594 148.304688 649.589844 148.765625 648.613281 C 149.796875 646.460938 154.113281 641.945312 156.957031 640.058594 C 158.679688 638.914062 159.71875 637.8125 160.476562 636.3125 C 161.195312 634.902344 162.847656 633.078125 165.414062 630.871094 C 169.890625 627.023438 176.027344 621.015625 179.347656 617.230469 C 185.253906 610.496094 185.78125 610.011719 188.320312 608.902344 C 189.730469 608.289062 191.222656 607.671875 191.640625 607.53125 C 192.054688 607.386719 192.945312 606.105469 193.609375 604.679688 C 194.769531 602.203125 195.675781 601.1875 207.515625 589.117188 C 208.246094 588.375 209.804688 587.46875 210.984375 587.101562 C 213.019531 586.46875 213.148438 586.332031 213.683594 584.222656 C 214.070312 582.699219 214.679688 581.660156 215.640625 580.882812 C 217.78125 579.144531 223.390625 573.511719 224.320312 572.167969 C 224.777344 571.507812 225.753906 570.601562 226.488281 570.152344 C 227.226562 569.707031 228.257812 568.628906 228.789062 567.765625 C 229.769531 566.148438 234.144531 562.082031 235.910156 561.144531 C 238.347656 559.84375 243.484375 554.648438 244.835938 552.109375 C 245.886719 550.136719 246.824219 549.089844 248.496094 548.015625 C 250.9375 546.449219 254.734375 542.609375 258.519531 537.886719 C 259.84375 536.234375 261.75 534.332031 262.757812 533.652344 C 265.316406 531.929688 269.714844 527.882812 271.183594 525.898438 C 271.859375 524.980469 273.164062 523.882812 274.085938 523.457031 C 275.628906 522.742188 278.847656 519.558594 280.449219 517.167969 C 283.046875 513.292969 291.679688 504.726562 295.695312 502.046875 C 296.828125 501.289062 297.398438 500.515625 297.59375 499.480469 C 298.019531 497.230469 299.421875 495.257812 301.542969 493.921875 C 303.589844 492.632812 305.804688 490.929688 308.761719 488.359375 C 309.773438 487.480469 311.542969 486.125 312.691406 485.347656 C 314.125 484.375 314.941406 483.433594 315.308594 482.328125 C 315.597656 481.449219 316.671875 479.742188 317.6875 478.546875 C 318.707031 477.347656 320.015625 475.746094 320.597656 474.984375 C 321.179688 474.226562 322.652344 472.933594 323.867188 472.117188 C 325.085938 471.296875 327.824219 468.707031 329.957031 466.363281 C 332.089844 464.015625 334.839844 461.289062 336.066406 460.304688 C 340.113281 457.058594 341.117188 456.027344 342.03125 454.183594 C 342.570312 453.097656 344.203125 451.320312 346.070312 449.792969 C 347.796875 448.382812 349.328125 446.851562 349.472656 446.394531 C 349.792969 445.382812 347.753906 442.433594 345.261719 440.300781 C 343.277344 438.605469 342.898438 438.515625 342.042969 439.554688 C 341.703125 439.960938 340.585938 440.667969 339.550781 441.128906 C 338.035156 441.800781 337.191406 442.699219 335.1875 445.773438 C 333.289062 448.683594 332.320312 449.742188 331.082031 450.261719 C 328.691406 451.257812 326.585938 453.066406 325.167969 455.339844 C 323.46875 458.0625 319.828125 462.039062 319.035156 462.039062 C 318.679688 462.039062 317.523438 462.894531 316.464844 463.9375 C 315.40625 464.980469 313.703125 466.503906 312.679688 467.316406 C 311.660156 468.128906 310.5 469.4375 310.105469 470.21875 C 309.070312 472.273438 306.855469 474.488281 304.796875 475.527344 C 303.8125 476.023438 302.105469 477.316406 301 478.394531 C 296.234375 483.046875 294.542969 484.464844 292.480469 485.507812 C 290.886719 486.316406 290.214844 486.949219 290.007812 487.839844 C 289.460938 490.203125 287.617188 492.742188 284.605469 495.277344 C 282.933594 496.683594 280.652344 498.703125 279.535156 499.761719 C 278.414062 500.820312 276.855469 501.832031 276.066406 502.003906 C 274.886719 502.261719 274.433594 502.742188 273.492188 504.726562 C 272.210938 507.445312 270.949219 508.5 267.441406 509.8125 C 265.753906 510.445312 264.769531 511.136719 264.210938 512.074219 C 263.773438 512.820312 262.371094 514.199219 261.097656 515.140625 C 259.824219 516.082031 257.828125 517.96875 256.660156 519.335938 C 255.476562 520.722656 253.65625 522.25 252.542969 522.785156 C 251.382812 523.347656 250.152344 524.398438 249.589844 525.304688 C 249.0625 526.160156 248.101562 527.183594 247.453125 527.582031 C 245.738281 528.628906 242.714844 531.914062 241.40625 534.148438 C 240.707031 535.339844 239.363281 536.65625 237.910156 537.578125 C 236.613281 538.398438 232.972656 541.488281 229.820312 544.445312 C 226.667969 547.402344 223.453125 550.152344 222.675781 550.554688 C 221.894531 550.960938 220.589844 552.121094 219.777344 553.132812 C 218.695312 554.480469 217.757812 555.121094 216.292969 555.511719 C 214.570312 555.972656 214.171875 556.308594 213.46875 557.902344 C 213.019531 558.921875 212.089844 560.132812 211.402344 560.59375 C 210.714844 561.058594 209.132812 562.480469 207.886719 563.757812 C 206.640625 565.035156 204.515625 566.800781 203.164062 567.679688 C 201.8125 568.558594 200.089844 570.125 199.332031 571.164062 C 198.457031 572.363281 196.808594 573.699219 194.796875 574.835938 C 192.46875 576.152344 190.367188 577.960938 186.824219 581.679688 C 184.175781 584.460938 181.246094 587.128906 180.3125 587.605469 C 179.378906 588.082031 178.324219 589.023438 177.972656 589.695312 C 176.957031 591.640625 174.886719 593.351562 172.53125 594.195312 C 170.769531 594.824219 169.847656 595.59375 167.714844 598.226562 C 166.265625 600.015625 164.316406 601.960938 163.386719 602.546875 C 162.457031 603.132812 161.242188 604.421875 160.6875 605.414062 C 160.128906 606.402344 158.855469 607.757812 157.855469 608.429688 C 156.175781 609.550781 154.492188 611.035156 150.03125 615.335938 C 149.097656 616.234375 147.65625 617.3125 146.824219 617.734375 C 145.996094 618.15625 143.605469 620.089844 141.515625 622.035156 C 139.429688 623.976562 137.316406 625.933594 136.824219 626.378906 C 136.335938 626.828125 134.574219 628.582031 132.917969 630.277344 C 131.261719 631.972656 129.351562 633.894531 128.671875 634.546875 C 128 635.203125 126.976562 636.359375 126.402344 637.121094 C 125.816406 637.898438 123.953125 639.199219 122.15625 640.085938 C 118.101562 642.089844 115.980469 643.960938 114.714844 646.65625 C 113.59375 649.039062 111.941406 650.425781 109.726562 650.847656 C 107.757812 651.21875 107.28125 651.644531 106.949219 653.308594 C 106.78125 654.152344 105.839844 655.484375 104.550781 656.714844 C 103.382812 657.820312 101.625 659.488281 100.640625 660.421875 C 99.65625 661.351562 97.726562 662.605469 96.34375 663.207031 C 94.964844 663.8125 93.457031 664.855469 92.996094 665.527344 C 91.433594 667.796875 88.167969 671.179688 86.914062 671.828125 C 86.230469 672.183594 85.164062 673.277344 84.539062 674.261719 C 83.921875 675.246094 82.601562 676.597656 81.609375 677.265625 C 79.582031 678.628906 74.265625 683.785156 73.023438 685.589844 C 72.578125 686.238281 71.109375 687.390625 69.765625 688.148438 C 68.121094 689.078125 67.050781 690.058594 66.492188 691.15625 C 65.625 692.859375 63.492188 695.230469 62.832031 695.230469 C 62.621094 695.230469 61.695312 695.90625 60.769531 696.734375 C 59.847656 697.558594 58.453125 698.5625 57.667969 698.964844 C 56.886719 699.367188 55.886719 700.300781 55.449219 701.039062 C 55.011719 701.78125 53.492188 703.203125 52.070312 704.199219 C 50.652344 705.195312 49.257812 706.441406 48.976562 706.972656 C 48.160156 708.5 44.066406 712.667969 42.261719 713.8125 C 41.355469 714.386719 39.992188 715.769531 39.226562 716.878906 C 38.152344 718.441406 37.144531 719.226562 34.804688 720.316406 C 31.964844 721.636719 31.660156 721.925781 30.023438 724.847656 C 27.644531 729.085938 23.039062 733.023438 19 734.273438 C 18 734.582031 17.976562 736.527344 18.933594 738.832031 C 19.457031 740.078125 19.566406 741.160156 19.339844 742.792969 C 18.707031 747.3125 18.816406 747.832031 20.800781 749.859375 C 21.816406 750.894531 22.964844 752.640625 23.351562 753.746094 C 23.742188 754.847656 24.53125 756.253906 25.105469 756.871094 C 25.683594 757.488281 26.472656 758.625 26.859375 759.394531 C 27.25 760.160156 28.273438 761.210938 29.140625 761.722656 C 30.007812 762.234375 31.367188 763.570312 32.160156 764.695312 C 33.785156 767 36.484375 768.886719 40.105469 770.246094 C 41.457031 770.757812 43.765625 772.078125 45.234375 773.183594 C 47.472656 774.867188 48.234375 775.195312 49.925781 775.203125 C 51.035156 775.214844 52.746094 775.4375 53.730469 775.710938 C 56.429688 776.460938 65.070312 776.464844 66.648438 775.710938 C 68.371094 774.894531 71.375 775.257812 73.117188 776.5 C 74.6875 777.617188 75.605469 780.296875 76.027344 785.019531 C 76.597656 791.371094 74.078125 793.050781 61.324219 794.828125 C 56.8125 795.457031 53.339844 794.800781 47.03125 792.132812 C 43.699219 790.722656 41.6875 790.164062 39.121094 789.933594 C 36.390625 789.6875 35.359375 789.378906 34.140625 788.449219 C 33.292969 787.800781 31.5625 786.863281 30.292969 786.367188 C 26.78125 784.980469 23.308594 782.578125 21.785156 780.476562 C 21.035156 779.4375 19.65625 778.074219 18.726562 777.449219 C 13.578125 773.980469 12.789062 772.996094 10.125 766.703125 C 9.347656 764.859375 8.046875 762.578125 7.234375 761.628906 C 6.125 760.332031 5.582031 759.058594 5.027344 756.492188 C 4.625 754.613281 3.921875 752.273438 3.464844 751.292969 C 1.707031 747.507812 0.25 742.46875 0.511719 741.066406 C 1.476562 735.9375 2.519531 733.511719 4.742188 731.246094 C 6.914062 729.027344 6.976562 728.890625 6.738281 726.886719 C 6.351562 723.589844 7.15625 721.996094 10.890625 718.65625 C 12.730469 717.007812 14.625 714.902344 15.097656 713.976562 C 15.570312 713.050781 16.613281 711.878906 17.421875 711.375 C 18.226562 710.867188 19.683594 709.625 20.660156 708.609375 C 21.632812 707.59375 23.191406 706.375 24.121094 705.898438 C 25.050781 705.425781 25.8125 704.816406 25.8125 704.539062 C 25.8125 703.707031 33.53125 696.359375 35.078125 695.71875 C 36.054688 695.316406 36.960938 694.359375 37.863281 692.785156 C 38.675781 691.367188 40.664062 689.175781 42.9375 687.195312 C 44.996094 685.40625 47.21875 683.261719 47.878906 682.433594 C 48.539062 681.609375 49.824219 680.542969 50.734375 680.074219 C 51.644531 679.601562 53.796875 677.878906 55.515625 676.246094 C 57.238281 674.609375 59.539062 672.683594 60.636719 671.960938 C 62.515625 670.726562 63.835938 669.273438 67.605469 664.308594 C 68.640625 662.941406 70.539062 661.382812 72.996094 659.875 C 75.082031 658.597656 77.042969 657.0625 77.359375 656.460938 C 77.941406 655.34375 87.394531 646.535156 88.007812 646.535156 C 88.667969 646.535156 91.917969 643.300781 92.878906 641.6875 C 94.472656 639.023438 95.921875 637.714844 98.378906 636.714844 C 99.910156 636.09375 101.273438 635.09375 102.367188 633.78125 C 103.28125 632.6875 104.664062 631.464844 105.441406 631.0625 C 106.214844 630.664062 108.164062 628.980469 109.773438 627.328125 C 111.382812 625.671875 113.574219 623.871094 114.648438 623.328125 C 115.71875 622.785156 116.707031 621.929688 116.835938 621.425781 C 117.597656 618.515625 119 616.902344 122.195312 615.257812 C 123.96875 614.347656 126.300781 612.820312 127.382812 611.863281 C 128.464844 610.910156 130.007812 609.722656 130.8125 609.234375 C 131.855469 608.59375 132.4375 607.78125 132.839844 606.394531 C 133.519531 604.058594 134.667969 602.753906 137.179688 601.457031 C 138.210938 600.925781 139.515625 599.785156 140.078125 598.921875 C 140.640625 598.058594 142 596.78125 143.101562 596.082031 C 144.203125 595.386719 145.492188 594.316406 145.972656 593.707031 C 146.453125 593.097656 147.945312 592.078125 149.292969 591.441406 C 150.976562 590.640625 152.320312 589.546875 153.605469 587.917969 C 155.707031 585.261719 165.339844 576.433594 167.90625 574.8125 C 168.828125 574.230469 170.121094 573.050781 170.773438 572.191406 C 171.429688 571.332031 172.800781 570.140625 173.824219 569.539062 C 174.847656 568.9375 176.117188 567.855469 176.644531 567.140625 C 177.175781 566.421875 178.699219 565.261719 180.035156 564.5625 C 182 563.53125 182.691406 562.847656 183.695312 560.929688 C 184.378906 559.628906 185.667969 558.015625 186.5625 557.339844 C 188.179688 556.121094 188.902344 555.472656 194.84375 549.871094 C 196.535156 548.277344 198.492188 546.734375 199.195312 546.445312 C 199.894531 546.152344 201.167969 544.945312 202.015625 543.761719 C 202.871094 542.578125 205.03125 540.589844 206.824219 539.339844 C 212.230469 535.574219 216.492188 532.039062 217.617188 530.378906 C 218.207031 529.515625 219.160156 528.546875 219.746094 528.226562 C 220.328125 527.90625 221.34375 526.871094 222.003906 525.925781 C 222.660156 524.980469 224.46875 523.355469 226.023438 522.3125 C 227.574219 521.269531 229.867188 519.464844 231.113281 518.304688 C 232.359375 517.140625 234.171875 515.785156 235.140625 515.289062 C 236.253906 514.722656 237.183594 513.804688 237.667969 512.789062 C 238.085938 511.910156 239.414062 510.480469 240.621094 509.617188 C 241.828125 508.75 243.058594 507.453125 243.355469 506.734375 C 244.191406 504.710938 253.957031 496.566406 257.007812 495.347656 C 258.335938 494.816406 259.054688 494.121094 259.859375 492.609375 C 261.3125 489.867188 265.304688 486.273438 267.3125 485.898438 C 268.480469 485.679688 269.15625 485.171875 269.933594 483.945312 C 270.507812 483.035156 271.574219 481.789062 272.304688 481.175781 C 273.03125 480.5625 273.976562 479.324219 274.402344 478.425781 C 274.828125 477.527344 275.808594 476.394531 276.582031 475.910156 C 277.355469 475.429688 279.152344 473.71875 280.578125 472.113281 C 282.003906 470.507812 284.113281 468.648438 285.269531 467.984375 C 288.367188 466.195312 293.214844 461.757812 294.535156 459.503906 C 295.171875 458.417969 296.492188 456.953125 297.46875 456.242188 C 298.449219 455.535156 299.636719 454.460938 300.113281 453.855469 C 300.585938 453.253906 301.738281 452.453125 302.667969 452.082031 C 304.738281 451.253906 309.839844 446.339844 311.003906 444.050781 C 311.898438 442.296875 314.941406 439.328125 318.816406 436.425781 C 320.078125 435.484375 321.65625 433.976562 322.328125 433.074219 C 323.003906 432.171875 324.207031 430.808594 325.003906 430.042969 C 325.800781 429.277344 326.457031 428.335938 326.457031 427.953125 C 326.457031 426.785156 328.765625 424.4375 330.90625 423.429688 C 332.675781 422.59375 337.625 419.289062 337.625 418.941406 C 337.625 418.871094 337.324219 418.089844 336.953125 417.207031 C 336.125 415.222656 336.160156 409.050781 337.011719 406.195312 C 337.339844 405.089844 337.617188 403.714844 337.617188 403.136719 C 337.617188 402.558594 337.90625 401.453125 338.253906 400.679688 C 338.597656 399.90625 339.4375 397.460938 340.113281 395.25 C 341.261719 391.511719 343.582031 387.050781 344.757812 386.324219 C 345.035156 386.152344 345.738281 384.941406 346.316406 383.636719 C 347.40625 381.175781 350.28125 378.011719 352.457031 376.886719 C 353.144531 376.53125 353.707031 375.976562 353.707031 375.652344 C 353.707031 375.328125 352.710938 373.925781 351.492188 372.53125 C 349.046875 369.742188 347.679688 367.035156 346.828125 363.308594 C 346.371094 361.308594 345.984375 360.664062 344.738281 359.84375 C 342.132812 358.121094 341.230469 357.046875 340.570312 354.890625 C 340.21875 353.746094 339.300781 351.523438 338.523438 349.953125 C 336.628906 346.101562 334.496094 340.171875 334.5 338.765625 C 334.5 337.007812 332.242188 331.058594 331.097656 329.804688 C 329.214844 327.75 328.59375 325.539062 328.914062 322.035156 C 329.179688 319.09375 329.117188 318.75 328.054688 317.328125 C 327.425781 316.488281 326.78125 315.078125 326.621094 314.203125 C 326.464844 313.324219 325.9375 311.816406 325.449219 310.851562 C 324.964844 309.886719 324.457031 307.878906 324.320312 306.386719 C 324.179688 304.894531 323.609375 302.667969 323.035156 301.4375 C 321.746094 298.671875 321.710938 296.363281 322.910156 294 L 323.835938 292.183594 L 322.949219 290.109375 C 322.457031 288.972656 321.914062 287.234375 321.738281 286.25 C 321.558594 285.269531 321.125 283.886719 320.765625 283.179688 C 320.296875 282.25 320.207031 281.265625 320.441406 279.605469 C 320.621094 278.347656 320.726562 274.097656 320.683594 270.167969 C 320.636719 266.238281 320.828125 260.910156 321.101562 258.328125 C 321.375 255.75 321.671875 251.101562 321.761719 248.003906 C 321.875 243.917969 322.132812 241.890625 322.691406 240.632812 C 323.296875 239.273438 323.484375 237.417969 323.554688 232.046875 L 323.652344 225.199219 L 325.277344 222.085938 C 326.667969 219.425781 326.90625 218.546875 326.90625 216.03125 C 326.90625 214.042969 327.1875 212.488281 327.773438 211.25 C 328.25 210.238281 328.761719 208.472656 328.910156 207.320312 C 329.0625 206.167969 329.703125 204.460938 330.335938 203.53125 C 331.398438 201.960938 332.207031 199.996094 333.855469 194.933594 C 334.207031 193.851562 334.5 192.078125 334.5 190.996094 C 334.5 188.65625 334.972656 187.625 337.050781 185.449219 C 338.332031 184.109375 339.109375 182.339844 341.441406 175.449219 C 343.003906 170.847656 344.664062 166.652344 345.136719 166.132812 C 346.722656 164.378906 349.273438 159.984375 349.535156 158.558594 C 349.921875 156.460938 351.683594 153.621094 353.652344 151.933594 C 354.746094 150.996094 355.566406 149.804688 355.871094 148.710938 C 356.132812 147.757812 356.832031 146.25 357.421875 145.359375 C 358.835938 143.226562 360.710938 140.035156 362.671875 136.433594 C 363.75 134.449219 364.90625 133.054688 366.246094 132.109375 C 367.585938 131.164062 368.441406 130.128906 368.898438 128.898438 C 369.671875 126.808594 370.785156 125.453125 372.613281 124.390625 C 373.316406 123.980469 374.363281 122.726562 374.929688 121.609375 C 375.5 120.492188 377.109375 118.582031 378.503906 117.367188 C 380.335938 115.769531 381.398438 114.375 382.3125 112.355469 C 383.238281 110.324219 384.519531 108.644531 387.007812 106.214844 C 388.886719 104.375 390.597656 102.871094 390.808594 102.871094 C 391.015625 102.871094 395.851562 98.242188 401.550781 92.585938 C 411.09375 83.121094 412.101562 82.25 414.265625 81.621094 C 416.566406 80.953125 417.519531 80.152344 421.082031 75.882812 C 421.65625 75.199219 423.425781 74.046875 425.015625 73.328125 C 427.292969 72.292969 428.863281 71.050781 432.460938 67.421875 C 436.058594 63.792969 437.679688 62.507812 440.148438 61.324219 C 441.867188 60.5 443.777344 59.382812 444.390625 58.84375 C 445.007812 58.304688 447.105469 57.015625 449.058594 55.980469 C 451.015625 54.945312 453.074219 53.738281 453.636719 53.292969 C 454.199219 52.851562 455.332031 52.363281 456.152344 52.210938 C 456.976562 52.054688 458.132812 51.410156 458.726562 50.777344 C 460.160156 49.242188 461.605469 48.546875 464.121094 48.179688 C 465.808594 47.9375 466.4375 47.574219 467.417969 46.289062 C 468.730469 44.570312 470.871094 43.453125 472.863281 43.453125 C 473.550781 43.453125 474.839844 42.960938 475.722656 42.359375 C 476.609375 41.757812 477.859375 41.15625 478.507812 41.019531 C 479.152344 40.878906 480.171875 40.671875 480.765625 40.550781 C 481.363281 40.425781 482.574219 39.648438 483.453125 38.816406 C 484.492188 37.835938 486.449219 36.804688 489.019531 35.875 C 491.199219 35.089844 493.660156 33.992188 494.484375 33.433594 C 496.605469 32.003906 501.410156 30.4375 503.3125 30.554688 C 506.613281 30.761719 507.648438 30.484375 509.945312 28.757812 C 511.679688 27.453125 512.863281 26.9375 514.625 26.714844 C 517.339844 26.367188 523.605469 24.605469 526.691406 23.324219 C 529.226562 22.265625 535.300781 21.140625 538.515625 21.128906 C 540.148438 21.117188 541.472656 20.777344 542.980469 19.964844 C 544.703125 19.042969 545.5625 18.855469 547.332031 19.015625 C 548.675781 19.140625 550.132812 18.972656 551.066406 18.578125 C 551.90625 18.226562 553.621094 17.933594 554.878906 17.921875 C 556.132812 17.914062 558.472656 17.605469 560.078125 17.234375 C 563.433594 16.464844 572.554688 15.859375 585.183594 15.570312 C 590.015625 15.457031 594.839844 15.132812 595.902344 14.84375 C 598.230469 14.214844 607.3125 14.648438 610.785156 15.550781 C 613.765625 16.328125 620.015625 17.113281 622.859375 17.066406 C 626.8125 16.996094 632.914062 17.574219 641.75 18.839844 C 643.480469 19.085938 646.058594 19.964844 648.453125 21.125 C 653.761719 23.695312 654.59375 23.898438 657.371094 23.328125 C 660.3125 22.722656 662.304688 23.300781 664.550781 25.417969 C 665.65625 26.460938 666.578125 26.929688 667.527344 26.929688 C 668.28125 26.929688 670.042969 27.332031 671.441406 27.824219 C 672.839844 28.3125 674.601562 28.714844 675.359375 28.714844 C 676.804688 28.714844 678.328125 29.378906 680.902344 31.125 C 681.761719 31.707031 683.425781 32.324219 684.601562 32.492188 C 685.863281 32.675781 687.953125 33.527344 689.699219 34.574219 C 691.328125 35.550781 693.726562 36.738281 695.03125 37.214844 C 696.332031 37.691406 698.035156 38.699219 698.816406 39.453125 C 699.863281 40.46875 700.765625 40.878906 702.265625 41.027344 C 703.382812 41.140625 705.371094 41.726562 706.683594 42.339844 C 708 42.949219 709.320312 43.453125 709.621094 43.457031 C 709.921875 43.457031 711.230469 44.472656 712.527344 45.710938 C 714.089844 47.207031 715.507812 48.125 716.746094 48.4375 C 717.910156 48.730469 719.742188 49.863281 721.605469 51.433594 C 723.253906 52.824219 725.25 54.394531 726.042969 54.929688 C 726.832031 55.460938 728.367188 56.894531 729.445312 58.109375 C 730.527344 59.328125 732.246094 60.84375 733.269531 61.476562 C 734.292969 62.113281 735.257812 62.835938 735.410156 63.085938 C 735.5625 63.335938 736.605469 63.941406 737.722656 64.433594 C 738.84375 64.929688 740.707031 66.292969 741.875 67.464844 C 743.039062 68.632812 744.882812 70.203125 745.964844 70.949219 C 747.46875 71.984375 748.167969 72.890625 748.898438 74.746094 C 749.570312 76.457031 750.308594 77.46875 751.355469 78.125 C 753.65625 79.570312 760.644531 86.230469 764.058594 90.234375 C 765.0625 91.414062 766.230469 93.28125 766.65625 94.386719 C 767.082031 95.492188 768.035156 97.15625 768.773438 98.082031 C 769.507812 99.011719 770.488281 100.625 770.953125 101.667969 C 771.597656 103.125 772.265625 103.796875 773.832031 104.554688 C 776.050781 105.636719 777.398438 107.4375 777.867188 109.960938 C 778.070312 111.03125 778.804688 112.199219 780.03125 113.390625 C 781.355469 114.675781 782.945312 117.308594 785.558594 122.546875 C 787.578125 126.59375 790.175781 131.207031 791.339844 132.804688 C 793.488281 135.757812 795.945312 140.195312 795.957031 141.144531 C 795.957031 141.433594 796.464844 142.269531 797.085938 143.003906 C 798.917969 145.183594 799.527344 147.265625 799.820312 152.34375 C 800.066406 156.640625 800.214844 157.277344 801.207031 158.34375 C 802.566406 159.804688 803.019531 162.96875 802.222656 165.386719 C 801.710938 166.941406 801.757812 167.253906 802.78125 169.042969 C 803.453125 170.222656 803.992188 172.023438 804.140625 173.578125 C 804.285156 175.089844 804.792969 176.816406 805.375 177.753906 C 806.277344 179.21875 806.375 180 806.476562 187.015625 C 806.589844 194.625 807.035156 198.859375 808.265625 204.125 C 808.621094 205.632812 808.789062 207.484375 808.636719 208.234375 C 808.484375 208.984375 808.703125 211.871094 809.128906 214.644531 C 809.816406 219.21875 809.828125 219.945312 809.210938 222.375 C 808.839844 223.847656 808.394531 227.761719 808.222656 231.074219 C 808.046875 234.382812 807.613281 237.902344 807.257812 238.890625 C 806.859375 240.003906 806.550781 242.992188 806.449219 246.71875 C 806.363281 250.035156 806.046875 253.855469 805.753906 255.207031 C 805.464844 256.558594 805.195312 259.171875 805.160156 261.015625 C 805.105469 263.851562 804.914062 264.640625 803.894531 266.152344 C 802.914062 267.605469 802.636719 268.644531 802.40625 271.734375 C 801.921875 278.167969 799.894531 284.328125 796.621094 289.324219 C 796.203125 289.964844 796.015625 291.289062 796.082031 293.191406 C 796.164062 295.695312 795.984375 296.457031 794.726562 298.855469 C 793.929688 300.382812 793.273438 301.910156 793.273438 302.253906 C 793.273438 302.59375 792.792969 303.777344 792.210938 304.878906 C 791.625 305.980469 791 307.566406 790.820312 308.40625 C 790.640625 309.246094 790.03125 310.835938 789.460938 311.941406 C 785.433594 319.78125 783.503906 324.039062 783.230469 325.695312 C 783.058594 326.746094 782.425781 328.191406 781.824219 328.902344 C 781.226562 329.617188 780.449219 331.167969 780.097656 332.351562 C 779.722656 333.609375 778.699219 335.335938 777.636719 336.511719 C 776.632812 337.617188 775.710938 339.023438 775.582031 339.636719 C 775.21875 341.386719 774.222656 343.226562 772.167969 345.945312 C 771.121094 347.324219 769.621094 349.300781 768.835938 350.34375 C 768.042969 351.382812 766.660156 353.726562 765.757812 355.554688 C 764.855469 357.382812 763.679688 359.222656 763.144531 359.644531 C 762.613281 360.066406 761.589844 361.492188 760.875 362.808594 C 760.15625 364.128906 758.921875 365.703125 758.128906 366.308594 C 757.332031 366.914062 756.1875 368.253906 755.585938 369.289062 C 754.980469 370.320312 753.964844 371.445312 753.328125 371.785156 C 752.691406 372.125 751.554688 373.363281 750.800781 374.535156 C 749.425781 376.679688 746.273438 379.84375 745.511719 379.84375 C 745.019531 379.84375 740.25 386.539062 739.089844 388.855469 C 738.605469 389.824219 737.25 391.199219 735.785156 392.207031 C 734.421875 393.144531 732.726562 394.753906 732.023438 395.773438 C 731.097656 397.117188 730.152344 397.851562 728.617188 398.421875 C 725.832031 399.449219 725.492188 399.738281 724.265625 402.152344 C 723.003906 404.632812 721.871094 405.6875 718.671875 407.355469 C 717.320312 408.058594 714.910156 409.96875 713.3125 411.597656 C 711.714844 413.230469 709.703125 414.914062 708.84375 415.34375 C 707.984375 415.773438 706.476562 416.898438 705.496094 417.839844 C 704.511719 418.785156 702.589844 420.050781 701.226562 420.652344 C 699.859375 421.253906 698.152344 422.242188 697.425781 422.847656 C 696.703125 423.453125 695.308594 424.359375 694.324219 424.863281 C 693.34375 425.367188 692.308594 426.164062 692.027344 426.632812 C 691.742188 427.101562 690.234375 428.136719 688.675781 428.933594 C 687.113281 429.730469 685.132812 430.769531 684.273438 431.246094 C 683.414062 431.71875 682.273438 432.109375 681.734375 432.109375 C 681.09375 432.109375 680.332031 432.742188 679.503906 433.960938 C 677.972656 436.214844 675.75 437.46875 673.285156 437.46875 C 671.894531 437.46875 671.015625 437.808594 669.707031 438.855469 C 668.75 439.617188 667.164062 440.644531 666.183594 441.136719 C 665.199219 441.628906 663.777344 442.617188 663.023438 443.335938 C 662.269531 444.050781 660.5625 445.054688 659.226562 445.566406 C 657.894531 446.078125 656.097656 446.769531 655.238281 447.101562 C 654.378906 447.433594 653.214844 447.714844 652.65625 447.726562 C 652.097656 447.738281 650.675781 448.410156 649.492188 449.222656 C 648.308594 450.039062 646.753906 450.929688 646.039062 451.207031 C 645.324219 451.488281 643.332031 452.273438 641.613281 452.960938 C 639.191406 453.921875 637.863281 454.183594 635.734375 454.105469 C 633.425781 454.019531 632.570312 454.21875 630.4375 455.339844 C 629.042969 456.078125 627.449219 456.679688 626.90625 456.679688 C 626.359375 456.679688 624.359375 457.484375 622.457031 458.464844 C 620.558594 459.445312 618.582031 460.25 618.066406 460.25 C 617.546875 460.25 616.101562 460.542969 614.851562 460.898438 C 611.039062 461.984375 606.402344 462.933594 604.898438 462.933594 C 604.117188 462.933594 602.910156 463.148438 602.21875 463.414062 C 601.527344 463.683594 599.757812 464.097656 598.285156 464.335938 C 596.8125 464.578125 594.726562 465.160156 593.648438 465.640625 C 592.285156 466.242188 590.683594 466.503906 588.382812 466.503906 C 586.195312 466.503906 584.132812 466.824219 582.296875 467.449219 C 580.132812 468.179688 578.894531 468.332031 576.699219 468.132812 C 575.148438 467.988281 572.332031 468.105469 570.445312 468.375 C 568.554688 468.652344 565.800781 468.898438 564.328125 468.929688 C 562.855469 468.957031 560.53125 469.351562 559.164062 469.808594 C 556.863281 470.574219 556.4375 470.589844 553.417969 469.980469 C 550.625 469.421875 549.785156 469.414062 547.511719 469.941406 C 545.449219 470.417969 544.449219 470.441406 542.984375 470.050781 C 541.058594 469.53125 535.800781 469.097656 532.613281 469.195312 C 531.628906 469.222656 530.023438 469.238281 529.039062 469.238281 C 528.058594 469.226562 525.558594 469.210938 523.488281 469.210938 C 520.125 469.199219 519.464844 469.050781 517.292969 467.828125 L 514.863281 466.457031 L 512.710938 467.382812 C 510.207031 468.460938 507.226562 468.5625 503.78125 467.691406 C 502.441406 467.351562 500.539062 466.945312 499.554688 466.785156 C 498.574219 466.625 497.066406 466.226562 496.207031 465.898438 C 493.078125 464.710938 488.757812 463.746094 485.261719 463.460938 C 482.640625 463.25 481.234375 462.886719 479.984375 462.113281 C 477.867188 460.796875 476.078125 460.355469 470.953125 459.890625 C 467.335938 459.5625 466.667969 459.355469 464.535156 457.886719 C 462.710938 456.632812 461.710938 456.246094 460.261719 456.246094 C 459.097656 456.246094 457.554688 455.816406 456.269531 455.128906 C 455.113281 454.515625 453.523438 454.007812 452.738281 454.003906 C 450.238281 453.988281 447.902344 453.230469 445.90625 451.796875 C 444.84375 451.03125 443.109375 450.125 442.054688 449.78125 C 435.992188 447.796875 434.683594 447.183594 433 445.535156 C 431.699219 444.261719 430.679688 443.695312 429.285156 443.476562 C 426.175781 442.980469 420.441406 438.824219 413.460938 432.003906 C 412.054688 430.628906 409.542969 428.550781 407.878906 427.386719 C 406.210938 426.222656 404.347656 424.816406 403.734375 424.257812 C 403.117188 423.703125 401.664062 422.839844 400.496094 422.339844 C 399.328125 421.84375 397.667969 420.726562 396.796875 419.859375 C 395.933594 418.992188 394.429688 417.878906 393.46875 417.386719 C 392.5 416.894531 391.148438 415.777344 390.464844 414.90625 C 389.777344 414.035156 388.410156 412.949219 387.425781 412.496094 C 385.316406 411.519531 375.816406 402.421875 375.378906 400.957031 C 375.214844 400.402344 374.039062 399.269531 372.765625 398.445312 C 369.699219 396.457031 367.613281 394.203125 366.890625 392.101562 C 366.140625 389.921875 365.546875 389.734375 364.683594 391.398438 C 364.304688 392.125 363.1875 393.414062 362.199219 394.261719 C 361.210938 395.109375 360.402344 396.140625 360.402344 396.554688 C 360.402344 397.832031 359.238281 400.171875 357.777344 401.839844 C 357.007812 402.710938 356.378906 403.8125 356.378906 404.28125 C 356.378906 404.75 355.96875 405.929688 355.46875 406.902344 C 354.503906 408.773438 354.507812 409.5 355.542969 416.15625 C 355.898438 418.433594 355.875 419.714844 355.445312 421.378906 C 354.90625 423.46875 354.9375 423.671875 356.011719 425.292969 C 356.636719 426.234375 357.566406 427.804688 358.078125 428.785156 C 358.59375 429.761719 360.78125 432.390625 362.941406 434.628906 L 366.871094 438.695312 L 370.03125 439 C 371.765625 439.171875 374.136719 439.59375 375.296875 439.945312 C 378.390625 440.875 388.921875 440.417969 391.613281 439.238281 C 392.6875 438.765625 394.269531 438.378906 395.132812 438.378906 C 395.992188 438.378906 397.34375 437.976562 398.136719 437.488281 C 398.925781 437 400.960938 436.082031 402.65625 435.445312 C 404.351562 434.804688 406.367188 433.898438 407.132812 433.429688 C 409.375 432.046875 412.214844 432.277344 414.472656 434.019531 C 420.734375 438.855469 420.867188 443.820312 414.875 448.964844 C 410.792969 452.464844 408.3125 453.777344 403.707031 454.855469 C 401.628906 455.339844 399.058594 456.058594 397.996094 456.449219 C 396.933594 456.839844 394.21875 457.242188 391.964844 457.339844 C 389.710938 457.441406 386.5625 457.835938 384.964844 458.21875 C 383.367188 458.601562 380.714844 458.917969 379.0625 458.921875 C 375.851562 458.929688 367.546875 457.058594 366.007812 455.984375 C 364.484375 454.914062 363.976562 455.253906 362.628906 458.257812 C 361.570312 460.621094 360.953125 461.386719 359.308594 462.382812 C 357.382812 463.542969 356.519531 464.582031 357.042969 465.101562 C 357.417969 465.480469 359.949219 464.121094 362.617188 462.109375 C 363.964844 461.097656 365.398438 460.269531 365.808594 460.269531 C 366.214844 460.269531 367.585938 459.933594 368.855469 459.523438 C 371.558594 458.648438 371.882812 458.84375 373.042969 462.054688 C 373.960938 464.597656 373.507812 468.714844 372.140625 470.210938 C 370.808594 471.675781 370.226562 472.988281 370.226562 474.523438 C 370.226562 475.265625 369.730469 477 369.125 478.371094 C 368.058594 480.773438 367.445312 481.472656 357.664062 491.386719 C 356.410156 492.65625 355.007812 494.320312 354.539062 495.089844 C 354.070312 495.859375 353.011719 496.886719 352.183594 497.375 C 351.175781 497.96875 350.433594 498.914062 349.925781 500.238281 C 349.511719 501.328125 348.429688 502.859375 347.527344 503.640625 C 343.234375 507.34375 335.738281 515.019531 332.921875 518.597656 C 328.71875 523.933594 323.515625 529.382812 321.207031 530.859375 C 319.472656 531.96875 317.699219 534.09375 314.167969 539.289062 C 313.433594 540.367188 312.097656 541.738281 311.199219 542.335938 C 310.296875 542.929688 308.722656 544.414062 307.695312 545.628906 C 306.667969 546.847656 305.066406 548.230469 304.128906 548.710938 C 302.796875 549.390625 302.367188 549.914062 302.136719 551.132812 C 301.964844 552.042969 301.25 553.25 300.410156 554.039062 C 295.671875 558.476562 292.792969 561.722656 291.851562 563.683594 C 290.410156 566.679688 289.242188 567.835938 286.371094 569.105469 C 284.410156 569.972656 283.832031 570.488281 283.292969 571.84375 C 282.101562 574.835938 281.65625 575.488281 280.109375 576.519531 C 279.269531 577.078125 278.113281 578.4375 277.539062 579.542969 C 276.960938 580.65625 274.335938 583.652344 271.652344 586.265625 C 268.988281 588.855469 266.242188 591.796875 265.550781 592.808594 C 264.859375 593.816406 263.351562 595.515625 262.199219 596.585938 C 261.046875 597.65625 259.449219 599.496094 258.648438 600.675781 C 257.808594 601.90625 256.570312 603.082031 255.742188 603.425781 C 254.757812 603.839844 253.945312 604.714844 253.183594 606.1875 C 252.507812 607.488281 251.1875 609.003906 249.847656 610.007812 C 248.285156 611.179688 247.324219 612.355469 246.617188 613.960938 C 246.0625 615.21875 244.699219 617.257812 243.589844 618.492188 C 242.476562 619.726562 241.570312 620.90625 241.570312 621.113281 C 241.570312 621.316406 240.996094 621.824219 240.300781 622.234375 C 239.597656 622.648438 238.730469 623.476562 238.367188 624.078125 C 238 624.679688 236.28125 626.714844 234.542969 628.601562 C 232.808594 630.488281 230.832031 632.703125 230.152344 633.519531 C 229.476562 634.335938 227.820312 635.628906 226.476562 636.386719 C 224.839844 637.308594 223.601562 638.445312 222.734375 639.8125 C 221.324219 642.039062 215.851562 647.890625 215.183594 647.890625 C 214.957031 647.890625 214.4375 649.082031 214.03125 650.542969 C 213.210938 653.503906 209.917969 657.949219 207.390625 659.507812 C 205.054688 660.953125 198.226562 668.390625 197.339844 670.457031 C 196.902344 671.484375 195.945312 672.808594 195.214844 673.398438 C 194.484375 673.988281 192.835938 676.039062 191.546875 677.953125 C 190.253906 679.867188 188.683594 681.777344 188.054688 682.195312 C 186.074219 683.511719 182.640625 687.347656 181.75 689.238281 C 181.277344 690.234375 180.542969 691.339844 180.113281 691.695312 C 179.6875 692.050781 178.257812 693.695312 176.9375 695.347656 C 175.617188 697 173.335938 699.171875 171.867188 700.167969 C 170.398438 701.164062 169.199219 702.179688 169.199219 702.425781 C 169.199219 702.675781 168.335938 703.824219 167.28125 704.980469 C 166.226562 706.136719 165.132812 707.617188 164.855469 708.269531 C 164.574219 708.921875 163.597656 710.027344 162.679688 710.726562 C 159.105469 713.457031 157.265625 715.445312 154.90625 719.136719 C 153.554688 721.246094 151.410156 724.246094 150.140625 725.800781 C 148.875 727.355469 147.425781 729.433594 146.921875 730.417969 C 146.417969 731.40625 144.210938 733.894531 142.011719 735.953125 C 139.6875 738.128906 137.046875 741.167969 135.691406 743.214844 C 134.414062 745.15625 132.082031 748.050781 130.511719 749.652344 C 128.9375 751.253906 127.652344 752.75 127.652344 752.976562 C 127.652344 753.203125 126.4375 754.628906 124.949219 756.144531 C 119.316406 761.882812 118.378906 762.953125 118.058594 764.039062 C 117.875 764.652344 116.289062 766.574219 114.539062 768.308594 C 112.785156 770.042969 110.199219 773.15625 108.792969 775.230469 C 107.382812 777.308594 105.132812 780.3125 103.792969 781.910156 C 98.878906 787.757812 98.347656 788.429688 96.851562 790.683594 C 95.078125 793.355469 93.679688 794.289062 90.199219 795.121094 C 87.027344 795.878906 85.796875 795.878906 84.042969 795.113281 Z M 350.621094 473.542969 C 350.902344 472.992188 351.847656 471.484375 352.71875 470.191406 C 353.59375 468.902344 354.175781 467.714844 354.015625 467.554688 C 353.648438 467.1875 349.722656 471.195312 348.703125 472.984375 C 348.28125 473.722656 347.585938 474.800781 347.160156 475.386719 L 346.382812 476.445312 L 348.246094 475.496094 C 349.269531 474.972656 350.339844 474.09375 350.621094 473.542969 Z M 521.992188 443.414062 C 524.078125 442.757812 524.75 442.734375 527.117188 443.222656 C 529.261719 443.664062 530.472656 443.671875 532.828125 443.25 C 535.34375 442.796875 536.386719 442.832031 539.464844 443.457031 C 542.621094 444.097656 543.285156 444.113281 544.347656 443.582031 C 546.535156 442.480469 547.917969 442.375 550.917969 443.070312 L 553.863281 443.753906 L 557.222656 442.410156 C 559.207031 441.613281 562.082031 440.890625 564.25 440.644531 C 566.265625 440.414062 568.871094 439.972656 570.039062 439.667969 C 571.578125 439.265625 572.703125 439.238281 574.136719 439.570312 C 576.492188 440.109375 580.671875 439.378906 584.90625 437.683594 C 586.410156 437.082031 588.152344 436.585938 588.777344 436.585938 C 589.402344 436.585938 590.773438 436.285156 591.816406 435.917969 C 592.859375 435.550781 594.273438 435.246094 594.949219 435.246094 C 595.628906 435.246094 597.0625 434.851562 598.132812 434.363281 C 599.203125 433.878906 600.5 433.476562 601.011719 433.472656 C 602.113281 433.460938 607.503906 431.894531 609.589844 430.976562 C 610.394531 430.621094 611.5 430.332031 612.046875 430.328125 C 612.589844 430.328125 613.875 429.746094 614.902344 429.050781 C 616.007812 428.304688 617.652344 427.675781 618.925781 427.519531 C 620.109375 427.371094 621.875 426.839844 622.847656 426.335938 C 623.820312 425.832031 625.003906 425.421875 625.472656 425.421875 C 625.945312 425.421875 627.863281 424.640625 629.734375 423.683594 C 631.605469 422.730469 633.640625 421.726562 634.253906 421.453125 C 634.871094 421.183594 636.074219 420.554688 636.929688 420.0625 C 637.792969 419.566406 639.296875 419.167969 640.304688 419.167969 C 641.738281 419.167969 642.398438 418.886719 643.382812 417.855469 C 644.574219 416.613281 651.316406 413.359375 652.699219 413.359375 C 653.054688 413.359375 653.855469 412.957031 654.480469 412.464844 C 655.105469 411.972656 656.890625 410.996094 658.449219 410.292969 C 660.007812 409.589844 661.683594 408.554688 662.175781 407.996094 C 662.667969 407.4375 664.175781 406.488281 665.527344 405.886719 C 666.878906 405.289062 668.484375 404.332031 669.101562 403.757812 C 669.714844 403.183594 671.382812 402.375 672.8125 401.964844 C 675.128906 401.300781 675.554688 400.984375 676.730469 399.074219 C 677.761719 397.394531 678.609375 396.664062 680.609375 395.722656 C 682.019531 395.0625 683.671875 394.058594 684.289062 393.492188 C 684.902344 392.925781 686.207031 392.058594 687.191406 391.566406 C 688.171875 391.074219 690.585938 389.035156 692.550781 387.035156 C 696.421875 383.09375 698.386719 381.640625 699.84375 381.640625 C 700.472656 381.640625 702.339844 379.890625 705.5625 376.28125 C 708.191406 373.332031 710.363281 370.914062 710.382812 370.90625 C 710.390625 370.898438 711.511719 370.535156 712.84375 370.089844 C 714.992188 369.375 715.335938 369.089844 715.863281 367.5625 C 716.605469 365.429688 717.546875 364.363281 719.644531 363.292969 C 720.761719 362.722656 721.585938 361.808594 722.285156 360.367188 C 723.28125 358.3125 730.011719 351.246094 734.5625 347.480469 C 736.238281 346.09375 737.117188 344.824219 738.605469 341.648438 C 739.648438 339.414062 740.808594 337.328125 741.1875 337.015625 C 741.566406 336.703125 742.371094 335.597656 742.980469 334.5625 C 743.601562 333.5 744.796875 332.296875 745.71875 331.808594 C 746.714844 331.28125 747.714844 330.234375 748.269531 329.152344 C 748.769531 328.167969 749.835938 326.632812 750.636719 325.742188 C 751.570312 324.703125 752.210938 323.417969 752.421875 322.167969 C 752.738281 320.292969 754.699219 317.746094 756.707031 316.605469 C 757.710938 316.035156 761.125 309.234375 761.125 307.808594 C 761.125 306.621094 765.457031 297.699219 766.699219 296.328125 C 767.066406 295.921875 767.605469 294.898438 767.902344 294.054688 C 768.195312 293.210938 769.003906 291.625 769.695312 290.535156 C 770.386719 289.441406 770.953125 288.3125 770.953125 288.027344 C 770.953125 287.742188 771.449219 286.773438 772.058594 285.875 C 772.667969 284.976562 773.355469 283.089844 773.585938 281.679688 C 774.066406 278.734375 775.46875 275.257812 776.964844 273.292969 C 777.535156 272.546875 778.308594 270.835938 778.679688 269.496094 C 779.050781 268.152344 779.683594 266.171875 780.085938 265.089844 C 780.65625 263.570312 780.714844 262.824219 780.351562 261.785156 C 779.265625 258.660156 779.828125 256.292969 782.34375 253.429688 C 783.777344 251.804688 784.761719 247.515625 784.480469 244.144531 C 784.316406 242.207031 784.449219 240.757812 784.9375 239.457031 C 785.414062 238.15625 785.726562 235 785.933594 229.308594 C 786.128906 224 786.457031 220.515625 786.847656 219.5625 C 787.3125 218.433594 787.351562 217.582031 787.007812 215.980469 C 786.316406 212.75 786.433594 203.121094 787.230469 197.539062 C 787.53125 195.460938 787.425781 194.582031 786.621094 192.433594 C 785.800781 190.246094 785.695312 189.300781 785.9375 186.453125 C 786.179688 183.660156 786.066406 182.605469 785.296875 180.390625 C 784.785156 178.917969 784.191406 176.003906 783.980469 173.914062 C 783.738281 171.53125 783.140625 169.035156 782.375 167.214844 C 780.605469 163 778.546875 156.132812 778.546875 154.441406 C 778.546875 153.550781 777.585938 151.09375 776.09375 148.167969 C 774.742188 145.519531 773.632812 143.144531 773.632812 142.886719 C 773.632812 142.355469 771.699219 137.59375 769.683594 133.15625 C 768.933594 131.5 768.179688 129.414062 768.011719 128.515625 C 767.8125 127.464844 766.933594 126.03125 765.554688 124.507812 C 764.347656 123.179688 763.203125 121.382812 762.945312 120.429688 C 762.648438 119.332031 761.714844 117.996094 760.324219 116.683594 C 758.777344 115.222656 757.867188 113.859375 757.136719 111.902344 C 756.039062 108.964844 753.242188 105.171875 749.914062 102.109375 C 748.785156 101.070312 747.277344 99.140625 746.5625 97.820312 C 745.652344 96.132812 744.125 94.472656 741.414062 92.21875 C 737.78125 89.199219 732.085938 83.167969 732.085938 82.339844 C 732.085938 82.132812 731.148438 81.605469 730.003906 81.167969 C 727.726562 80.296875 725.523438 78.328125 723.832031 75.648438 C 723.09375 74.480469 722.304688 73.832031 721.367188 73.625 C 720.609375 73.460938 719.078125 72.535156 717.96875 71.574219 C 716.859375 70.613281 715.589844 69.828125 715.152344 69.828125 C 714.167969 69.828125 711.476562 67.898438 709.054688 65.460938 C 708.054688 64.457031 706.046875 63.109375 704.585938 62.464844 C 703.128906 61.820312 701.308594 60.691406 700.546875 59.953125 C 699.59375 59.027344 698.285156 58.40625 696.359375 57.957031 C 694.734375 57.578125 692.875 56.769531 691.9375 56.03125 C 689.882812 54.421875 688.046875 53.503906 686.128906 53.140625 C 684.261719 52.78125 680.160156 50.46875 678.050781 48.582031 C 677.132812 47.761719 675.722656 47.035156 674.683594 46.847656 C 673.703125 46.671875 672.015625 46.140625 670.941406 45.667969 C 669.867188 45.199219 668.097656 44.8125 667.011719 44.8125 C 665.761719 44.8125 664.265625 44.402344 662.9375 43.695312 C 661.785156 43.082031 660.480469 42.578125 660.042969 42.578125 C 659.601562 42.578125 658.292969 42.101562 657.132812 41.523438 C 655.871094 40.890625 653.472656 40.273438 651.136719 39.980469 C 648.996094 39.707031 646.441406 39.078125 645.460938 38.574219 C 644.429688 38.050781 642.804688 37.664062 641.625 37.664062 C 640.378906 37.664062 638.847656 37.277344 637.699219 36.675781 C 636.046875 35.804688 635.121094 35.683594 630.011719 35.671875 C 624.777344 35.65625 624.007812 35.546875 622.222656 34.597656 C 620.457031 33.65625 619.867188 33.570312 616.859375 33.820312 C 615.003906 33.972656 612.632812 34.21875 611.597656 34.363281 C 610.375 34.535156 608.957031 34.371094 607.574219 33.894531 C 603.539062 32.503906 599.328125 32.246094 593.433594 33.023438 C 590.394531 33.425781 586.71875 33.632812 585.050781 33.496094 C 583.089844 33.339844 581.347656 33.480469 579.917969 33.90625 C 577.949219 34.5 576.058594 34.582031 565.769531 34.515625 C 564.585938 34.507812 561.675781 34.835938 559.300781 35.238281 C 556.671875 35.6875 554.058594 35.867188 552.621094 35.699219 C 550.445312 35.441406 550.089844 35.539062 548.035156 36.953125 C 545.207031 38.898438 543.117188 39.589844 540.75 39.351562 C 539.558594 39.238281 538.238281 39.449219 537.09375 39.96875 C 536.113281 40.410156 534.363281 40.773438 533.210938 40.78125 C 531.929688 40.789062 530.523438 41.140625 529.597656 41.683594 C 528.765625 42.175781 526.941406 42.792969 525.542969 43.046875 C 524.148438 43.304688 521.957031 44.007812 520.671875 44.605469 C 519.382812 45.207031 517.703125 45.695312 516.933594 45.699219 C 516.167969 45.699219 514.859375 45.984375 514.03125 46.324219 C 513.203125 46.664062 511.417969 47.089844 510.066406 47.269531 C 507.1875 47.648438 506.296875 48.046875 504.484375 49.753906 C 502.707031 51.429688 499.445312 52.832031 496.554688 53.160156 C 495.261719 53.308594 493.707031 53.773438 493.089844 54.199219 C 490.722656 55.839844 484.734375 58.5625 482.816406 58.871094 C 480.617188 59.230469 477.101562 61.152344 474.988281 63.160156 C 474.246094 63.867188 472.519531 64.828125 471.148438 65.300781 C 469.777344 65.773438 467.671875 66.859375 466.464844 67.714844 C 463.746094 69.644531 462.011719 70.511719 460.160156 70.863281 C 459.246094 71.039062 457.949219 71.941406 456.589844 73.34375 C 455.117188 74.863281 453.859375 75.707031 452.542969 76.058594 C 451.496094 76.339844 449.941406 77.039062 449.089844 77.617188 C 448.238281 78.191406 446.5 79.039062 445.222656 79.496094 C 443.425781 80.136719 442.566406 80.792969 441.410156 82.398438 C 440.589844 83.539062 439.210938 84.808594 438.351562 85.21875 C 437.488281 85.625 436.265625 86.746094 435.628906 87.707031 C 434.875 88.84375 433.722656 89.792969 432.332031 90.421875 C 431.15625 90.953125 429.941406 91.855469 429.636719 92.425781 C 429.332031 92.996094 427.953125 94.257812 426.578125 95.226562 C 425.203125 96.199219 423.472656 97.628906 422.734375 98.410156 C 421.996094 99.191406 420.34375 100.324219 419.0625 100.933594 C 416.519531 102.140625 412.914062 105.445312 410.449219 108.824219 C 407.503906 112.863281 406.761719 113.644531 405.03125 114.527344 C 404.082031 115.011719 403.300781 115.722656 403.300781 116.109375 C 403.300781 116.980469 398.289062 122.253906 396.277344 123.496094 C 395.457031 124 394.410156 125.148438 393.953125 126.046875 C 393.496094 126.945312 392.046875 128.707031 390.730469 129.964844 C 386.882812 133.640625 383.828125 137.472656 382.054688 140.851562 C 381.042969 142.769531 379.695312 144.558594 378.605469 145.421875 C 377.375 146.398438 376.359375 147.828125 375.367188 149.992188 C 374.394531 152.117188 373.253906 153.738281 371.859375 154.976562 C 370.480469 156.207031 369.796875 157.171875 369.796875 157.898438 C 369.796875 159.15625 369.046875 160.660156 365.855469 165.792969 C 364.582031 167.835938 363.542969 170.003906 363.542969 170.609375 C 363.542969 172.367188 362.332031 174.789062 360.410156 176.875 C 359.429688 177.9375 358.625 179.164062 358.617188 179.597656 C 358.609375 180.96875 356.191406 186.113281 354.203125 189.042969 C 352.660156 191.3125 352.128906 192.648438 351.457031 195.933594 C 350.996094 198.171875 350.425781 200.519531 350.191406 201.144531 C 349.953125 201.769531 349.636719 203.21875 349.480469 204.371094 C 349.328125 205.519531 348.691406 207.429688 348.0625 208.613281 C 347.4375 209.800781 346.5625 211.46875 346.125 212.332031 C 344.527344 215.445312 342.546875 223.375 342.546875 226.648438 C 342.546875 228.601562 342.269531 230.40625 341.808594 231.441406 C 341.007812 233.238281 340.542969 236.261719 339.949219 243.601562 C 339.742188 246.179688 339.230469 249.078125 338.816406 250.042969 C 338.117188 251.675781 338.113281 251.921875 338.808594 253.722656 C 339.398438 255.273438 339.476562 256.339844 339.195312 259.121094 C 338.59375 265.015625 338.785156 276.070312 339.570312 280.683594 C 340.113281 283.894531 340.210938 286.105469 339.960938 289.75 C 339.664062 294.105469 339.730469 294.871094 340.671875 297.765625 C 341.402344 300.019531 341.625 301.46875 341.425781 302.65625 C 341.207031 303.949219 341.351562 304.707031 342.070312 305.855469 C 342.726562 306.917969 343.003906 308.109375 343.003906 309.886719 C 343.003906 311.976562 343.230469 312.71875 344.34375 314.253906 C 345.449219 315.78125 345.683594 316.539062 345.683594 318.589844 C 345.683594 320.796875 345.847656 321.246094 347.1875 322.652344 C 348.898438 324.453125 349.703125 326.488281 349.703125 329.011719 C 349.703125 329.964844 350.105469 331.535156 350.59375 332.5 C 351.085938 333.464844 351.488281 334.53125 351.488281 334.871094 C 351.488281 335.210938 352.300781 336.742188 353.289062 338.273438 C 354.335938 339.890625 355.359375 342.207031 355.730469 343.796875 C 356.273438 346.140625 356.6875 346.832031 358.570312 348.566406 C 360.1875 350.054688 360.949219 351.183594 361.445312 352.824219 C 362.6875 356.933594 364.027344 359.464844 365.738281 360.929688 C 367.886719 362.769531 370.921875 367.441406 371.570312 369.90625 C 371.949219 371.335938 372.570312 372.175781 374.140625 373.378906 C 375.285156 374.25 376.859375 375.917969 377.648438 377.085938 C 378.433594 378.253906 379.855469 379.753906 380.808594 380.417969 C 381.757812 381.082031 383.023438 382.339844 383.613281 383.214844 C 384.203125 384.089844 385.46875 385.421875 386.421875 386.175781 C 387.375 386.933594 388.542969 388.308594 389.015625 389.238281 C 389.605469 390.390625 390.503906 391.230469 391.855469 391.882812 C 392.988281 392.433594 394.351562 393.59375 395.054688 394.609375 C 395.730469 395.582031 397.238281 396.96875 398.40625 397.6875 C 399.578125 398.40625 401.074219 399.707031 401.738281 400.574219 C 402.402344 401.445312 403.375 402.292969 403.902344 402.460938 C 404.429688 402.628906 405.890625 403.765625 407.140625 404.984375 C 409.136719 406.929688 411.773438 408.546875 419.78125 412.757812 C 421.660156 413.742188 422.796875 414.539062 428.097656 418.554688 C 429.789062 419.835938 431.175781 420.496094 432.648438 420.71875 C 435.632812 421.164062 440.261719 423.640625 442.585938 426.03125 C 444.761719 428.273438 445.921875 428.683594 450.214844 428.734375 C 452.445312 428.761719 453.433594 428.996094 454.488281 429.746094 C 455.238281 430.28125 456.414062 430.859375 457.097656 431.03125 C 457.785156 431.203125 459.230469 432.023438 460.3125 432.847656 C 461.398438 433.675781 462.792969 434.351562 463.410156 434.351562 C 464.03125 434.351562 465.261719 434.65625 466.140625 435.023438 C 467.144531 435.441406 469.191406 435.695312 471.601562 435.695312 C 474.914062 435.695312 475.707031 435.851562 477.242188 436.796875 C 478.316406 437.460938 479.722656 437.90625 480.761719 437.914062 C 481.714844 437.921875 483.164062 438.339844 483.976562 438.839844 C 485.242188 439.625 486.320312 439.773438 491.402344 439.875 C 496.480469 439.972656 497.855469 440.167969 500.855469 441.191406 C 502.785156 441.851562 504.535156 442.28125 504.738281 442.15625 C 504.945312 442.027344 506.339844 442.335938 507.835938 442.839844 C 509.949219 443.550781 511.175781 443.695312 513.332031 443.480469 C 514.894531 443.328125 516.59375 443.410156 517.222656 443.664062 C 518.785156 444.304688 519.28125 444.28125 522 443.425781 Z M 530.125 425.664062 C 529.515625 425.054688 521.492188 424.015625 516.320312 423.875 C 513.003906 423.792969 509.6875 423.472656 508.949219 423.175781 C 508.210938 422.878906 505.226562 422.546875 502.3125 422.441406 C 497.632812 422.269531 496.570312 422.074219 493.15625 420.75 C 489.0625 419.164062 487.308594 418.785156 481.902344 418.324219 C 479.800781 418.148438 478.058594 417.730469 477.285156 417.222656 C 476.601562 416.773438 474.933594 416.121094 473.578125 415.765625 C 472.21875 415.414062 470.683594 414.824219 470.164062 414.460938 C 469.640625 414.09375 468.691406 413.796875 468.050781 413.796875 C 467.410156 413.796875 465.917969 413.304688 464.738281 412.710938 C 463.558594 412.113281 461.640625 411.394531 460.480469 411.117188 C 459.011719 410.765625 457.847656 410.074219 456.652344 408.851562 C 455.292969 407.460938 454.605469 407.09375 453.351562 407.09375 C 450.421875 407.082031 448.546875 406.261719 446.703125 404.167969 C 445.414062 402.703125 444.339844 401.984375 442.730469 401.507812 C 441.515625 401.144531 439.6875 400.246094 438.667969 399.503906 C 437.644531 398.765625 435.824219 397.785156 434.625 397.332031 C 433.425781 396.875 430.730469 395.375 428.640625 393.996094 C 425.796875 392.125 424.492188 390.929688 423.46875 389.265625 C 422.359375 387.460938 421.800781 386.984375 420.511719 386.742188 C 418.308594 386.328125 413.773438 383.179688 412.585938 381.238281 C 411.070312 378.761719 407.453125 375.085938 403.742188 372.253906 C 401.898438 370.847656 400.117188 369.1875 399.785156 368.5625 C 399.449219 367.941406 398.605469 367.007812 397.910156 366.492188 C 397.210938 365.976562 395.695312 363.855469 394.539062 361.78125 C 393.085938 359.171875 392.0625 357.851562 391.226562 357.503906 C 389.464844 356.773438 387.398438 354.449219 386.503906 352.191406 C 385.605469 349.921875 383.398438 346.371094 381.46875 344.085938 C 380.730469 343.214844 379.40625 340.804688 378.527344 338.726562 C 377.644531 336.648438 376.628906 334.445312 376.273438 333.832031 C 375.917969 333.21875 375.242188 331.910156 374.773438 330.929688 C 374.304688 329.945312 373.304688 328.375 372.554688 327.4375 C 371.722656 326.402344 370.964844 324.734375 370.628906 323.195312 C 370.324219 321.796875 369.597656 319.921875 369.015625 319.03125 C 368.34375 318 367.730469 316.015625 367.339844 313.597656 C 367 311.503906 366.222656 308.804688 365.613281 307.597656 C 364.328125 305.058594 363.09375 300.621094 363.09375 298.527344 C 363.09375 297.734375 362.664062 296.386719 362.140625 295.539062 C 361.3125 294.203125 361.226562 293.585938 361.472656 290.914062 C 361.734375 288.082031 361.648438 287.59375 360.371094 284.890625 C 359.148438 282.304688 359.015625 281.65625 359.277344 279.550781 C 359.5 277.792969 359.40625 276.878906 358.921875 276.121094 C 357.6875 274.171875 357.613281 272.40625 358.664062 269.960938 L 359.648438 267.667969 L 358.625 265.484375 C 357.777344 263.667969 357.65625 262.894531 357.917969 260.929688 C 358.460938 256.871094 358.539062 251.503906 358.085938 249.28125 C 357.753906 247.648438 357.816406 246.601562 358.34375 244.8125 C 358.722656 243.527344 359.15625 241.269531 359.308594 239.796875 C 359.457031 238.320312 359.746094 235.507812 359.949219 233.542969 C 360.46875 228.492188 361.445312 224.429688 362.59375 222.527344 C 363.265625 221.410156 363.488281 220.535156 363.292969 219.753906 C 362.914062 218.242188 363.925781 212.515625 364.929688 210.484375 C 365.371094 209.597656 365.96875 207.925781 366.257812 206.777344 C 366.546875 205.628906 367.578125 203.460938 368.542969 201.960938 C 371.085938 198.03125 372.027344 195.34375 372.027344 192.03125 C 372.027344 189.476562 372.203125 188.933594 373.78125 186.570312 C 374.742188 185.128906 375.675781 183.347656 375.855469 182.613281 C 376.035156 181.875 376.753906 180.125 377.453125 178.71875 C 378.15625 177.3125 378.730469 175.84375 378.730469 175.449219 C 378.730469 173.648438 380.707031 170.308594 382.84375 168.507812 C 384.980469 166.703125 387.660156 162.257812 387.664062 160.5 C 387.664062 159.503906 389.070312 157.410156 391.285156 155.097656 C 394.503906 151.730469 396.472656 149.15625 397.253906 147.292969 C 397.65625 146.328125 398.453125 145.035156 399.019531 144.417969 C 399.589844 143.804688 400.808594 142.097656 401.730469 140.621094 C 402.65625 139.148438 404.378906 136.835938 405.566406 135.484375 C 409.28125 131.25 411.9375 128.339844 414.0625 126.179688 C 415.191406 125.03125 416.429688 123.488281 416.8125 122.746094 C 417.195312 122.003906 420.300781 118.585938 423.714844 115.152344 C 428.40625 110.425781 430.617188 108.539062 432.800781 107.402344 C 434.390625 106.574219 436.59375 105.015625 437.695312 103.9375 C 438.800781 102.859375 440.914062 100.789062 442.386719 99.335938 C 443.863281 97.882812 445.566406 96.546875 446.179688 96.371094 C 447.261719 96.054688 448.25 95.332031 453.03125 91.34375 C 454.304688 90.28125 456.222656 89.179688 457.304688 88.886719 C 458.792969 88.488281 459.519531 87.960938 460.304688 86.71875 C 461.914062 84.164062 463.984375 82.871094 468.085938 81.847656 C 472.71875 80.695312 473.605469 80.238281 476.6875 77.421875 C 478.042969 76.183594 479.996094 74.871094 481.023438 74.507812 C 482.054688 74.144531 483.53125 73.3125 484.308594 72.65625 C 485.902344 71.308594 490.011719 69.371094 491.269531 69.371094 C 491.730469 69.371094 493.203125 68.792969 494.546875 68.085938 C 495.890625 67.378906 498.070312 66.453125 499.394531 66.023438 C 500.71875 65.59375 503.164062 64.652344 504.828125 63.933594 C 506.492188 63.214844 509.347656 62.246094 511.175781 61.777344 C 513 61.3125 514.953125 60.632812 515.519531 60.265625 C 516.664062 59.527344 526.941406 56.863281 528.648438 56.863281 C 529.253906 56.863281 530.496094 56.542969 531.410156 56.15625 C 532.324219 55.765625 534.335938 55.261719 535.878906 55.039062 C 537.421875 54.8125 539.878906 54.125 541.335938 53.511719 C 544.207031 52.304688 546.710938 52.121094 550.175781 52.863281 C 552.046875 53.265625 552.695312 53.199219 554.683594 52.417969 C 555.960938 51.914062 557.710938 51.503906 558.574219 51.503906 C 559.4375 51.503906 560.765625 51.179688 561.53125 50.785156 C 562.636719 50.214844 563.648438 50.128906 566.535156 50.367188 C 569.859375 50.644531 570.3125 50.578125 572.160156 49.558594 C 574.261719 48.394531 574.660156 48.378906 587.125 48.929688 C 587.863281 48.957031 589.773438 48.941406 591.371094 48.875 C 595.664062 48.699219 602.898438 49.273438 605.410156 49.984375 C 606.625 50.328125 608.296875 50.609375 609.125 50.609375 C 609.957031 50.609375 611.078125 50.847656 611.613281 51.136719 C 612.167969 51.433594 614.816406 51.703125 617.726562 51.75 C 626.761719 51.910156 630.761719 52.457031 632.503906 53.78125 C 633.773438 54.746094 634.710938 55 638.023438 55.265625 C 642.105469 55.59375 647.808594 57.226562 649.890625 58.664062 C 650.507812 59.085938 651.710938 59.582031 652.570312 59.761719 C 653.433594 59.941406 654.738281 60.441406 655.476562 60.875 C 656.214844 61.308594 657.503906 61.789062 658.339844 61.949219 C 659.175781 62.105469 661.691406 62.953125 663.921875 63.832031 C 667.574219 65.269531 669.40625 66.074219 675.648438 68.992188 C 676.671875 69.472656 678.539062 70.875 679.792969 72.109375 C 681.828125 74.113281 682.367188 74.398438 684.714844 74.730469 C 688.671875 75.292969 692.207031 77.6875 695.039062 81.738281 C 695.414062 82.273438 697.480469 83.5625 699.632812 84.605469 C 702.011719 85.757812 703.902344 87.003906 704.460938 87.785156 C 704.960938 88.488281 706.265625 89.488281 707.359375 90 C 709.636719 91.070312 719.492188 100.546875 720.640625 102.769531 C 721.066406 103.589844 722.164062 104.605469 723.1875 105.128906 C 724.359375 105.726562 725.414062 106.769531 726.195312 108.109375 C 726.859375 109.242188 728.710938 111.503906 730.320312 113.132812 C 732.050781 114.890625 733.730469 117.132812 734.453125 118.660156 C 735.121094 120.070312 736.742188 122.492188 738.054688 124.039062 C 739.371094 125.589844 740.589844 127.433594 740.765625 128.132812 C 740.941406 128.835938 742.292969 130.996094 743.769531 132.929688 C 745.246094 134.867188 746.667969 137.089844 746.929688 137.867188 C 747.191406 138.648438 747.894531 139.953125 748.5 140.765625 C 749.164062 141.65625 749.726562 143.203125 749.925781 144.675781 C 750.125 146.128906 750.625 147.515625 751.167969 148.113281 C 752.597656 149.679688 753.085938 150.914062 753.085938 152.941406 C 753.085938 154.195312 753.519531 155.570312 754.402344 157.109375 C 756.171875 160.210938 758.449219 167.128906 758.449219 169.425781 C 758.449219 170.765625 758.824219 171.835938 759.785156 173.234375 C 761.464844 175.675781 761.894531 176.804688 762.445312 180.246094 C 762.75 182.128906 762.738281 183.589844 762.417969 184.886719 C 761.988281 186.597656 762.054688 186.976562 763.121094 188.792969 C 764.066406 190.40625 764.289062 191.324219 764.234375 193.414062 C 764.1875 194.847656 764.414062 198.234375 764.707031 200.9375 C 765.210938 205.539062 765.285156 207.554688 765.167969 213.667969 C 765.140625 215.019531 765.140625 217.769531 765.167969 219.78125 C 765.214844 222.414062 765.003906 223.890625 764.441406 225.074219 C 763.761719 226.503906 763.734375 226.992188 764.21875 228.886719 C 764.6875 230.71875 764.664062 231.4375 764.0625 233.507812 C 763.628906 235.003906 763.371094 237.449219 763.402344 239.777344 C 763.460938 243.332031 763.359375 243.746094 762.070312 245.757812 C 761.257812 247.023438 760.683594 248.511719 760.683594 249.347656 C 760.683594 250.132812 760.390625 251.472656 760.035156 252.328125 C 759.605469 253.351562 759.472656 254.628906 759.648438 256.085938 C 759.953125 258.675781 759.214844 261.996094 757.933594 263.796875 C 756.910156 265.238281 755.632812 270.582031 755.972656 272.003906 C 756.296875 273.359375 755.539062 275.613281 753.8125 278.429688 C 752.980469 279.789062 752.164062 281.527344 752 282.296875 C 751.835938 283.066406 751.210938 284.359375 750.609375 285.175781 C 749.871094 286.171875 749.515625 287.25 749.515625 288.464844 C 749.515625 290.109375 749.113281 291.144531 745.816406 298.003906 C 745.546875 298.5625 744.671875 299.429688 743.871094 299.921875 C 743.066406 300.417969 742.277344 301.265625 742.113281 301.808594 C 741.796875 302.84375 740.089844 306.671875 737.789062 311.5 C 737.027344 313.097656 735.726562 315.125 734.898438 316.007812 C 734.070312 316.886719 732.832031 318.796875 732.144531 320.25 C 731.425781 321.769531 728.976562 325.125 726.386719 328.132812 C 723.910156 331.015625 721.738281 333.832031 721.566406 334.386719 C 721.394531 334.945312 720.761719 335.980469 720.167969 336.691406 C 719.574219 337.402344 718.589844 338.96875 717.980469 340.171875 C 717.34375 341.429688 716.136719 342.871094 715.136719 343.570312 C 714.183594 344.234375 712.992188 345.484375 712.5 346.347656 C 711.335938 348.367188 708.074219 351.53125 706.574219 352.09375 C 705.839844 352.371094 705.035156 353.292969 704.429688 354.542969 C 703.203125 357.070312 700.546875 359.535156 696.46875 361.914062 C 693.179688 363.835938 691.699219 365.148438 688.398438 369.058594 C 687.046875 370.660156 685.929688 371.507812 684.660156 371.886719 C 683.527344 372.226562 682.414062 373 681.675781 373.964844 C 678.929688 377.542969 677.882812 378.492188 675.894531 379.230469 C 674.738281 379.660156 672.878906 380.851562 671.761719 381.875 C 670.53125 383.003906 668.769531 384.054688 667.292969 384.539062 C 663.484375 385.785156 660.570312 387.390625 658.324219 389.480469 C 657.125 390.589844 655.484375 391.609375 654.433594 391.890625 C 653.128906 392.242188 652.136719 392.96875 650.917969 394.453125 C 649.691406 395.949219 648.238281 397.003906 645.652344 398.269531 C 643.683594 399.226562 641.179688 400.503906 640.082031 401.101562 C 638.988281 401.699219 637.554688 402.1875 636.90625 402.1875 C 636.253906 402.1875 635.242188 402.554688 634.65625 403.007812 C 630.363281 406.324219 628.796875 407.101562 626.40625 407.101562 C 624.535156 407.101562 623.40625 407.429688 621.207031 408.621094 C 619.664062 409.457031 617.902344 410.289062 617.289062 410.46875 C 616.679688 410.652344 615.472656 411.265625 614.609375 411.832031 C 613.746094 412.394531 611.332031 413.292969 609.242188 413.820312 C 607.15625 414.347656 603.871094 415.484375 601.945312 416.34375 C 599.226562 417.558594 598.023438 417.863281 596.582031 417.710938 C 595.480469 417.601562 594.199219 417.78125 593.4375 418.160156 C 592.296875 418.726562 588.996094 419.382812 581.769531 420.480469 C 580.542969 420.667969 578.570312 421.265625 577.394531 421.808594 C 575.640625 422.617188 574.542969 422.785156 571.363281 422.71875 C 567.78125 422.648438 564.769531 422.953125 557.644531 424.105469 C 556.171875 424.339844 551.546875 424.5625 547.371094 424.597656 C 542.300781 424.640625 539.203125 424.859375 538.046875 425.261719 C 536.457031 425.816406 530.578125 426.121094 530.128906 425.671875 Z M 543.769531 407.753906 C 545.539062 406.714844 546.148438 406.625 551.394531 406.585938 C 555.894531 406.554688 557.492188 406.367188 558.957031 405.71875 C 560.347656 405.105469 562.328125 404.839844 566.824219 404.679688 C 571.71875 404.503906 573.15625 404.289062 574.597656 403.542969 C 576.546875 402.535156 581.03125 402.285156 583.097656 403.070312 C 584.445312 403.582031 586.441406 402.691406 589.214844 400.34375 C 590.628906 399.140625 591.167969 398.960938 593.121094 399.039062 C 594.367188 399.078125 595.941406 399.136719 596.617188 399.148438 C 599.152344 399.222656 602.582031 398.125 605.304688 396.390625 C 609.75 393.558594 612.441406 392.355469 614.375 392.335938 C 615.628906 392.328125 616.882812 391.859375 618.597656 390.769531 C 620.003906 389.875 621.609375 389.21875 622.394531 389.214844 C 623.15625 389.214844 624.636719 388.625 625.765625 387.878906 C 626.871094 387.140625 628.480469 386.425781 629.339844 386.28125 C 631.925781 385.855469 633.332031 385.148438 634.300781 383.792969 C 635.402344 382.242188 636.964844 381.390625 639.460938 380.976562 C 640.484375 380.804688 641.652344 380.296875 642.0625 379.847656 C 642.46875 379.394531 643.382812 378.785156 644.089844 378.492188 C 644.796875 378.199219 645.691406 377.480469 646.078125 376.890625 C 646.464844 376.304688 647.742188 375.335938 648.917969 374.738281 C 650.097656 374.140625 651.335938 373.324219 651.671875 372.917969 C 652.585938 371.8125 654.59375 370.902344 656.109375 370.902344 C 657.09375 370.902344 657.859375 370.464844 658.921875 369.292969 C 659.730469 368.40625 661.894531 366.914062 663.738281 365.976562 C 666.191406 364.730469 668.046875 363.300781 670.660156 360.644531 C 672.625 358.652344 675.039062 356.539062 676.019531 355.953125 C 677.003906 355.367188 678.707031 353.75 679.804688 352.359375 C 680.902344 350.964844 682.378906 349.53125 683.085938 349.164062 C 683.792969 348.796875 685.945312 346.921875 687.863281 344.992188 C 689.78125 343.0625 692.175781 340.960938 693.179688 340.328125 C 694.1875 339.695312 695.007812 338.945312 695.007812 338.664062 C 695.007812 337.515625 697.453125 335.078125 700.3125 333.378906 C 704.214844 331.0625 704.949219 330.199219 705.957031 326.753906 C 706.628906 324.460938 707.179688 323.570312 708.855469 322.0625 C 709.996094 321.039062 712.320312 318.019531 714.023438 315.355469 C 715.726562 312.691406 717.875 309.613281 718.792969 308.515625 C 719.71875 307.417969 720.46875 306.257812 720.46875 305.941406 C 720.46875 305.621094 721.007812 304.578125 721.664062 303.621094 C 722.324219 302.667969 723.78125 300.074219 724.90625 297.863281 C 726.03125 295.652344 727.472656 293.140625 728.113281 292.28125 C 728.75 291.421875 729.585938 289.8125 729.964844 288.707031 C 732.992188 279.945312 733.332031 279.164062 735.296875 276.351562 C 736.980469 273.953125 738.039062 270.773438 738.550781 266.59375 C 739.101562 262.121094 739.277344 261.523438 740.53125 259.945312 C 741.609375 258.585938 741.769531 258.046875 741.585938 256.402344 C 741.425781 254.972656 741.632812 253.964844 742.34375 252.554688 C 742.878906 251.503906 743.511719 249.410156 743.746094 247.898438 C 743.980469 246.386719 744.464844 244.246094 744.824219 243.140625 C 745.210938 241.953125 745.667969 237.5625 745.941406 232.417969 C 746.484375 222.21875 746.941406 217.800781 747.753906 214.898438 C 748.265625 213.085938 748.238281 212.117188 747.578125 207.960938 C 747.140625 205.226562 746.828125 200.980469 746.859375 198.191406 C 746.90625 193.742188 746.777344 192.859375 745.53125 189.289062 C 744.769531 187.105469 744.148438 184.410156 744.148438 183.296875 C 744.148438 180.570312 743.394531 178.039062 742.078125 176.3125 C 741.28125 175.269531 740.890625 174 740.621094 171.589844 C 740.402344 169.644531 739.824219 167.472656 739.210938 166.292969 C 738.640625 165.191406 738.027344 163.289062 737.847656 162.058594 C 737.246094 157.878906 735.847656 153.953125 734.3125 152.125 C 733.488281 151.148438 732.46875 149.363281 732.042969 148.164062 C 731.617188 146.960938 730.917969 144.972656 730.488281 143.742188 C 730.054688 142.515625 729.042969 140.765625 728.234375 139.855469 C 727.425781 138.945312 726.375 137.433594 725.898438 136.5 C 725.421875 135.566406 722.980469 132.691406 720.476562 130.113281 C 717.464844 127.015625 715.324219 124.34375 714.160156 122.238281 C 711.238281 116.933594 704.90625 111.082031 698.992188 108.214844 C 694.710938 106.136719 693.257812 105.394531 687.636719 102.390625 C 685.425781 101.210938 681.226562 99.4375 678.308594 98.453125 C 674.421875 97.140625 672.644531 96.296875 671.664062 95.296875 C 670.929688 94.546875 670.089844 93.933594 669.792969 93.933594 C 669.5 93.933594 668.414062 93.210938 667.378906 92.324219 C 666.285156 91.390625 664.394531 90.382812 662.855469 89.917969 C 661.402344 89.476562 659.648438 88.722656 658.960938 88.238281 C 658.183594 87.695312 656.636719 87.265625 654.914062 87.113281 C 653.09375 86.957031 651.460938 86.484375 650.222656 85.757812 C 649.175781 85.148438 647.425781 84.40625 646.328125 84.109375 C 645.230469 83.8125 643.847656 83.191406 643.253906 82.722656 C 642.539062 82.160156 641.460938 81.871094 640.078125 81.871094 C 638.820312 81.871094 636.207031 81.246094 633.546875 80.300781 C 629.476562 78.859375 628.949219 78.773438 627.101562 79.234375 C 625.4375 79.652344 624.632812 79.601562 622.414062 78.949219 C 620.9375 78.515625 618.125 78.140625 616.160156 78.117188 C 614.007812 78.085938 612.144531 77.820312 611.480469 77.445312 C 610.871094 77.101562 609.675781 76.847656 608.820312 76.878906 C 607.960938 76.90625 606.273438 76.644531 605.066406 76.285156 C 603.855469 75.925781 602.644531 75.777344 602.367188 75.949219 C 601.835938 76.285156 594.757812 76.613281 591.363281 76.464844 C 582.375 76.0625 571.753906 76.726562 568.996094 77.859375 C 566.519531 78.878906 558.761719 80.453125 556.296875 80.433594 C 554.265625 80.421875 548.964844 81.808594 546.828125 82.917969 C 546.042969 83.324219 544.433594 83.664062 543.253906 83.675781 C 539.953125 83.703125 536.386719 84.722656 534.167969 86.289062 C 532.714844 87.3125 531.300781 87.839844 529.0625 88.1875 C 525.65625 88.71875 519.726562 90.898438 518.328125 92.136719 C 516.769531 93.515625 515.546875 93.933594 513.066406 93.933594 C 511.15625 93.933594 510.46875 94.132812 509.796875 94.890625 C 508.703125 96.121094 505.726562 97.484375 504.117188 97.496094 C 503.285156 97.507812 501.9375 98.261719 500.097656 99.761719 C 498.574219 101 496.101562 102.605469 494.597656 103.328125 C 493.09375 104.050781 491.628906 104.929688 491.339844 105.273438 C 491.050781 105.621094 489.667969 106.359375 488.265625 106.910156 C 486.863281 107.464844 484.761719 108.699219 483.601562 109.65625 C 482.4375 110.613281 480.425781 111.75 479.132812 112.1875 C 476.246094 113.15625 472.164062 115.75 469.1875 118.503906 C 465.859375 121.582031 464.5625 122.472656 462.652344 122.984375 C 461.335938 123.339844 460.503906 124.019531 459.148438 125.859375 C 456.988281 128.78125 456.011719 129.503906 453.058594 130.367188 C 451 130.972656 450.730469 131.203125 450.261719 132.769531 C 449.726562 134.546875 447.121094 137.265625 445.945312 137.265625 C 445.589844 137.265625 444.769531 138.121094 444.125 139.164062 C 442.382812 141.980469 439.523438 144.796875 437.199219 145.988281 C 435.871094 146.667969 434.945312 147.515625 434.589844 148.378906 C 434.285156 149.113281 433.148438 150.519531 432.066406 151.503906 C 430.984375 152.488281 430.097656 153.683594 430.097656 154.15625 C 430.097656 155.53125 428.53125 157.152344 425.21875 159.195312 C 423.238281 160.417969 421.808594 161.675781 421.234375 162.699219 C 420.738281 163.582031 419.792969 164.800781 419.132812 165.414062 C 418.46875 166.023438 417.558594 167.375 417.109375 168.410156 C 416.660156 169.449219 415.480469 171.175781 414.488281 172.253906 C 412.652344 174.242188 411.707031 176.074219 410.609375 179.753906 C 410.273438 180.886719 409.394531 182.570312 408.65625 183.5 C 407.917969 184.429688 407.316406 185.410156 407.320312 185.683594 C 407.320312 185.957031 406.640625 187.589844 405.796875 189.308594 C 404.953125 191.027344 403.753906 193.542969 403.125 194.894531 C 402.496094 196.242188 401.074219 198.316406 399.96875 199.5 C 398.804688 200.738281 397.753906 202.390625 397.480469 203.398438 C 397.222656 204.359375 396.214844 206.070312 395.238281 207.195312 C 393.539062 209.160156 393.464844 209.371094 393.464844 212.347656 C 393.464844 215.792969 392.1875 221.042969 390.894531 222.929688 C 388.945312 225.765625 387.0625 232.699219 387.167969 236.660156 C 387.214844 238.136719 386.945312 240.144531 386.59375 241.128906 C 386.238281 242.109375 385.714844 244.316406 385.433594 246.027344 C 385.152344 247.738281 384.53125 250.246094 384.054688 251.597656 C 382.992188 254.621094 382.972656 256.03125 383.957031 258.808594 C 384.613281 260.652344 384.644531 261.269531 384.179688 263.003906 C 383.878906 264.125 383.636719 266.644531 383.636719 268.601562 C 383.636719 270.816406 383.367188 272.832031 382.921875 273.941406 C 382.246094 275.632812 382.253906 275.800781 383.113281 277.191406 C 383.613281 277.996094 384.363281 280.027344 384.785156 281.707031 C 385.429688 284.269531 385.472656 285.300781 385.070312 288.179688 C 384.628906 291.320312 384.664062 291.71875 385.496094 293.070312 C 385.996094 293.878906 386.671875 295.691406 386.996094 297.09375 C 388.636719 304.183594 390.203125 308.554688 391.886719 310.761719 C 393.191406 312.472656 396.1875 320.777344 396.824219 324.457031 C 396.980469 325.359375 398.15625 327.449219 399.589844 329.363281 C 401.421875 331.820312 402.242188 333.398438 402.699219 335.34375 C 403.632812 339.355469 405.699219 343.265625 409.125 347.515625 C 412.042969 351.128906 412.226562 351.492188 412.226562 353.609375 C 412.226562 355.6875 412.367188 355.980469 414.066406 357.460938 C 415.082031 358.34375 416.839844 359.996094 417.976562 361.132812 C 419.113281 362.269531 420.699219 363.53125 421.5 363.9375 C 422.296875 364.34375 423.6875 365.78125 424.585938 367.132812 C 425.960938 369.207031 426.714844 369.824219 429.386719 371.09375 C 431.125 371.921875 433.203125 373.3125 433.996094 374.1875 C 434.847656 375.125 436.160156 375.972656 437.195312 376.25 C 438.84375 376.695312 440.25 377.976562 442.21875 380.824219 C 442.621094 381.410156 444.632812 382.859375 446.6875 384.054688 C 448.738281 385.246094 451.324219 386.777344 452.429688 387.457031 C 453.535156 388.140625 456.351562 389.4375 458.683594 390.34375 C 461.019531 391.246094 464.132812 392.65625 465.609375 393.476562 C 467.199219 394.363281 470.5625 395.550781 473.871094 396.398438 C 476.945312 397.183594 480.203125 398.199219 481.113281 398.660156 C 482.023438 399.117188 483.152344 399.492188 483.621094 399.492188 C 484.085938 399.492188 485.25 400.039062 486.207031 400.710938 C 487.667969 401.734375 488.445312 401.9375 491.070312 401.984375 C 493.539062 402.027344 494.675781 402.292969 496.472656 403.25 C 498.851562 404.515625 500.292969 404.691406 504.050781 404.175781 C 505.933594 403.917969 506.816406 404.0625 509.347656 405.078125 C 511.566406 405.964844 512.824219 406.222656 514.015625 406.03125 C 514.914062 405.890625 516.652344 406.03125 517.878906 406.347656 C 519.105469 406.667969 520.609375 406.78125 521.226562 406.605469 C 523.359375 405.992188 525.894531 406.1875 527.355469 407.074219 C 528.777344 407.941406 528.808594 407.941406 530.703125 407.082031 C 533.269531 405.917969 534.335938 405.988281 537.753906 407.535156 C 539.351562 408.257812 540.921875 408.855469 541.246094 408.863281 C 541.574219 408.875 542.703125 408.371094 543.761719 407.75 Z M 678.257812 324.121094 C 676.449219 323.667969 674.761719 322.007812 673.644531 319.574219 C 671.070312 313.984375 672.800781 309.238281 678.753906 305.550781 C 680.226562 304.640625 680.691406 304.023438 681.085938 302.464844 C 681.605469 300.390625 682.859375 298.949219 685.449219 297.453125 C 686.652344 296.753906 687.296875 295.898438 688.074219 293.957031 C 689.09375 291.414062 690.445312 289.53125 693.863281 285.890625 C 695.273438 284.386719 695.683594 283.550781 695.953125 281.621094 C 696.460938 277.996094 698.324219 276.4375 705.613281 273.539062 C 707.730469 272.699219 708.09375 272.671875 709.46875 273.246094 C 710.664062 273.746094 711.148438 274.335938 711.769531 276.046875 C 712.203125 277.238281 713.03125 279.207031 713.609375 280.421875 C 714.191406 281.636719 714.660156 283.144531 714.65625 283.773438 C 714.648438 285.363281 713.257812 288.25 711.609375 290.128906 C 710.84375 290.996094 709.601562 293.089844 708.84375 294.777344 C 707.988281 296.683594 706.550781 298.804688 705.035156 300.390625 C 703.699219 301.792969 702.605469 303.148438 702.605469 303.402344 C 702.605469 303.65625 701.707031 304.96875 700.605469 306.320312 C 699.507812 307.671875 697.746094 310.328125 696.699219 312.226562 C 694.222656 316.703125 690.902344 320.0625 687.789062 321.238281 C 686.476562 321.730469 684.300781 322.65625 682.949219 323.289062 C 680.492188 324.441406 679.929688 324.539062 678.257812 324.125 Z M 707.976562 250.613281 C 707.371094 250.308594 706.398438 249.355469 705.820312 248.5 C 704.824219 247.035156 704.773438 246.636719 704.953125 241.804688 C 705.101562 237.921875 705.441406 235.695312 706.355469 232.675781 C 707.019531 230.480469 707.738281 226.761719 707.953125 224.410156 C 708.164062 222.0625 708.675781 218.953125 709.085938 217.507812 C 709.683594 215.402344 709.738281 214.507812 709.351562 213.039062 C 709.085938 212.03125 708.859375 209.796875 708.851562 208.078125 C 708.84375 206.359375 708.824219 204.046875 708.804688 202.941406 C 708.796875 201.835938 708.8125 199.804688 708.859375 198.429688 C 708.917969 196.785156 708.675781 195.414062 708.164062 194.421875 C 707.734375 193.59375 707.21875 191.601562 707.015625 189.996094 C 706.011719 182.070312 705.921875 181.726562 704.394531 179.503906 C 702.539062 176.804688 701.75 174.691406 701.71875 172.339844 C 701.710938 170.664062 701.371094 169.941406 699.3125 167.042969 C 698.855469 166.402344 698.292969 165.035156 698.0625 164.007812 C 697.832031 162.976562 696.746094 160.851562 695.652344 159.285156 C 694.558594 157.71875 693.660156 156.253906 693.660156 156.027344 C 693.660156 155.804688 693.058594 154.929688 692.320312 154.089844 C 691.582031 153.25 690.652344 151.785156 690.257812 150.835938 C 689.863281 149.886719 688.738281 148.242188 687.761719 147.179688 C 684.121094 143.21875 683.484375 139.589844 685.585938 134.75 C 686.429688 132.804688 686.871094 132.34375 688.460938 131.734375 C 691.578125 130.542969 693.835938 130.789062 696.953125 132.664062 C 702.414062 135.945312 703.960938 137.671875 705.277344 141.960938 C 705.582031 142.945312 706.382812 144.351562 707.058594 145.089844 C 707.738281 145.828125 708.570312 146.953125 708.90625 147.59375 C 709.242188 148.238281 710.171875 149.625 710.972656 150.675781 C 711.828125 151.808594 712.421875 153.121094 712.421875 153.878906 C 712.421875 154.820312 713.023438 155.785156 714.667969 157.472656 C 715.90625 158.742188 717.039062 160.292969 717.1875 160.921875 C 717.339844 161.550781 717.84375 162.820312 718.304688 163.746094 C 718.769531 164.671875 719.339844 166.441406 719.574219 167.675781 C 719.808594 168.910156 720.554688 170.644531 721.230469 171.53125 C 722.355469 173.007812 722.480469 173.566406 722.695312 178.136719 C 722.914062 182.738281 723.027344 183.242188 724.144531 184.566406 C 725.917969 186.679688 726.507812 189.015625 725.886719 191.492188 C 725.132812 194.492188 725.253906 195.613281 726.570312 197.699219 C 728.203125 200.285156 728.382812 202.910156 727.175781 206.488281 C 726.320312 209.027344 726.269531 209.597656 726.75 211.316406 C 727.183594 212.859375 727.179688 213.75 726.742188 215.601562 C 726.335938 217.292969 726.308594 218.390625 726.640625 219.601562 C 726.949219 220.726562 726.957031 221.746094 726.652344 222.714844 C 726.40625 223.507812 726.035156 225.570312 725.824219 227.296875 C 725.613281 229.019531 725.097656 231.332031 724.671875 232.433594 C 724.15625 233.78125 723.933594 235.476562 724 237.636719 C 724.113281 241.421875 723.464844 242.976562 721.023438 244.785156 C 720.097656 245.464844 717.976562 247.1875 716.304688 248.605469 C 713.535156 250.953125 713.074219 251.1875 711.167969 251.179688 C 710.011719 251.179688 708.574219 250.921875 707.96875 250.617188 Z M 707.976562 250.613281 " fill-opacity="1" fill-rule="nonzero"/></g></svg>