<svg width="96" height="96" viewBox="0 0 96 96" fill="none" xmlns="http://www.w3.org/2000/svg">
<path d="M47.156 73.024C47.1528 72.0883 47.3348 71.1612 47.6915 70.2962C48.0483 69.4311 48.5727 68.6452 49.2345 67.9837C49.8964 67.3223 50.6826 66.7983 51.5478 66.4421C52.413 66.0858 53.3402 65.9043 54.276 65.908C58.14 65.916 61.316 69.088 61.396 73.024C61.3552 74.8995 60.5919 76.6869 59.2654 78.0135C57.9389 79.34 56.1515 80.1032 54.276 80.144C50.316 80.084 47.144 76.912 47.156 73.024ZM54.276 77.52C56.416 77.484 58.184 75.476 58.208 73.024C58.184 70.52 56.416 68.512 54.276 68.528C52.044 68.512 50.272 70.52 50.34 73.024C50.268 75.476 52.044 77.484 54.276 77.52ZM69.448 68.9V79.764H66.452V68.9H62.144V66.468H73.572V68.9H69.448ZM77.128 76.764L76.008 79.764H72.448L78.068 66.472H81.816L87.248 79.764H83.692L82.568 76.764H77.128ZM81.816 74.524L79.944 69.652L78.068 74.52L81.816 74.524ZM14.368 68.896V79.76H11.372V68.896H7.25195V66.464H18.492V68.896H14.368ZM19.244 73.016C19.2461 71.1297 19.9966 69.3214 21.3308 67.988C22.6649 66.6546 24.4737 65.9051 26.36 65.904C28.2418 65.9207 30.0419 66.6751 31.3733 68.005C32.7047 69.3349 33.4612 71.1342 33.48 73.016C33.4461 74.8938 32.6851 76.6851 31.3571 78.0131C30.0291 79.3411 28.2377 80.1021 26.36 80.136C24.4761 80.1214 22.6736 79.3665 21.3415 78.0344C20.0094 76.7023 19.2586 74.8998 19.244 73.016ZM26.36 77.52C28.52 77.488 30.292 75.48 30.292 73.024C30.292 70.524 28.52 68.516 26.356 68.532C24.148 68.516 22.376 70.524 22.428 73.024C22.376 75.48 24.148 77.488 26.356 77.52M41.716 79.768V74.712L46.964 66.472H43.592L40.22 72.088L37.032 66.472H33.472L38.724 74.712V79.768H41.716ZM47.344 14.764C27.336 14.764 11.12 24.816 11.12 37.204C11.12 49.6 27.336 59.644 47.344 59.644C67.352 59.644 83.564 49.604 83.564 37.204C83.564 24.812 67.348 14.764 47.344 14.764ZM66.216 24.384C67.156 27.032 63.076 29.52 56.212 30.688L56.2 30.704C55.292 25.208 53.304 20.976 50.784 18.944C58.728 19.432 65.216 21.568 66.216 24.384ZM47.344 24.104C49.328 24.104 51.036 26.84 51.824 31.22H51.836C48.8455 31.4445 45.8424 31.4445 42.852 31.22H42.86C43.648 26.84 45.36 24.104 47.34 24.104M28.464 24.384C29.464 21.568 35.952 19.432 43.896 18.944C41.376 20.976 39.388 25.204 38.48 30.704L38.472 30.688C31.604 29.52 27.524 27.032 28.464 24.384ZM17.14 37.544C17.14 35.044 17.964 32.664 19.46 30.5L19.816 30.008L19.824 29.992L20.204 29.512L20.38 29.292C20.6598 28.9548 20.9534 28.6292 21.26 28.316C21.6723 27.8904 22.1034 27.4833 22.552 27.096L22.572 27.076L22.712 26.956L22.848 26.84C23.728 30.92 29.548 34.424 37.972 35.94L37.976 35.932C37.96 36.46 37.9506 36.9853 37.948 37.508C37.948 45.972 40.132 52.652 43.356 55.66C28.556 54.48 17.14 46.82 17.14 37.544ZM47.34 49.588C44.608 49.588 42.392 44.084 42.392 36.828V36.492L42.412 36.524C45.6981 36.8035 49.0021 36.8021 52.288 36.52V36.828C52.288 44.084 50.068 49.588 47.34 49.588ZM51.324 55.656C54.548 52.648 56.732 45.968 56.732 37.504C56.732 36.9707 56.7226 36.4467 56.704 35.932C65.132 34.424 70.952 30.916 71.832 26.84L72.272 27.22L72.416 27.348L72.74 27.648C72.8093 27.7067 72.876 27.7693 72.94 27.836L72.972 27.868C73.0466 27.9373 73.1186 28.008 73.188 28.08L73.42 28.312L73.86 28.784L74.084 29.036L74.276 29.26L74.3 29.288L74.664 29.74L74.86 29.996L75.044 30.244L75.22 30.496C76.716 32.66 77.54 35.04 77.54 37.536C77.54 46.812 66.12 54.476 51.324 55.656Z" fill="#EC0318"/>
</svg>
