<svg xmlns="http://www.w3.org/2000/svg" xmlns:xlink="http://www.w3.org/1999/xlink" width="1080" zoomAndPan="magnify" viewBox="0 0 810 809.999993" height="1080" preserveAspectRatio="xMidYMid meet" version="1.0"><defs><clipPath id="1cae6f1ff1"><path d="M 0 137.699219 L 810 137.699219 L 810 672 L 0 672 Z M 0 137.699219 " clip-rule="nonzero"/></clipPath></defs><rect x="-81" width="972" fill="#ffffff" y="-80.999999" height="971.999992" fill-opacity="1"/><rect x="-81" width="972" fill="#ffffff" y="-80.999999" height="971.999992" fill-opacity="1"/><g clip-path="url(#1cae6f1ff1)"><path fill="#3c3738" d="M 144.996094 671.453125 C 138.660156 670.8125 135.152344 670.773438 126.097656 671.257812 C 121.3125 671.511719 119.324219 671.390625 117.433594 670.773438 C 115.441406 670.117188 112.726562 670.011719 103.121094 670.214844 C 96.605469 670.351562 90.296875 670.710938 89.109375 671.011719 C 87.699219 671.371094 85.828125 671.386719 83.695312 671.046875 C 81.65625 670.726562 79.277344 670.722656 77.324219 671.035156 C 72.679688 671.792969 46.945312 671.136719 44.453125 670.210938 C 42.722656 669.5625 42.140625 669.570312 40.160156 670.261719 C 38.261719 670.933594 36.800781 670.976562 31.628906 670.53125 C 26.417969 670.078125 25 670.128906 22.996094 670.816406 C 18.792969 672.269531 17.097656 671.589844 11.046875 666.019531 C 5.28125 660.714844 4.0625 658.703125 4.0625 654.527344 C 4.0625 653.175781 3.757812 651.542969 3.382812 650.894531 C 2.941406 650.132812 2.652344 646.847656 2.566406 641.613281 C 2.566406 637.160156 2.3125 631.449219 2.191406 628.925781 C 1.730469 619.917969 1.800781 616.753906 2.480469 615.15625 C 3.160156 613.566406 3.382812 608.269531 3.789062 585.457031 C 3.960938 576.859375 3.789062 574.992188 2.652344 569.289062 C 1.390625 563.132812 1.359375 562.304688 1.75 550.929688 C 1.972656 544.378906 2.089844 536.746094 2.003906 533.972656 C 1.832031 530.351562 2.175781 528.15625 2.769531 526.1875 C 3.636719 523.601562 3.621094 523.144531 2.769531 518.222656 C 2.003906 514.039062 1.917969 512.472656 2.394531 510.351562 C 2.71875 508.890625 3.125 505.382812 3.296875 502.554688 C 3.550781 498.441406 3.46875 496.984375 2.71875 495.269531 C 2.019531 493.589844 1.917969 492.414062 2.242188 489.882812 C 2.480469 488.097656 2.652344 481.535156 2.617188 475.300781 C 2.617188 456.871094 2.617188 443.714844 2.617188 439.390625 C 2.617188 437.164062 2.445312 433.386719 2.242188 430.996094 C 1.953125 428.109375 2.019531 425.074219 2.464844 421.941406 C 3.023438 417.980469 3.347656 409.449219 3.6875 389.441406 C 3.6875 387.054688 3.433594 385.636719 2.566406 384.050781 C 1.273438 381.691406 1 377.824219 1.96875 375.3125 C 2.378906 374.234375 2.359375 372.875 1.96875 370.554688 C 1.476562 367.960938 1.511719 366.8125 2.140625 364.875 C 2.820312 362.636719 2.785156 362.121094 1.613281 358.40625 C 0.132812 353.738281 -0.0195312 350.234375 0.949219 343.738281 C 1.476562 340.207031 1.496094 338.667969 0.949219 337.328125 C -0.0351562 334.515625 0.746094 325.289062 2.277344 321.59375 C 3.433594 318.78125 3.484375 318.355469 2.820312 316.191406 C 2.414062 314.902344 1.835938 312.632812 1.527344 311.144531 C 1.222656 309.660156 0.714844 307.472656 0.40625 306.285156 C 0.015625 304.769531 0.015625 303.480469 0.40625 301.96875 C 0.730469 300.777344 0.984375 294.753906 0.984375 288.472656 C 0.984375 282.234375 1.222656 276.542969 1.496094 275.820312 C 1.816406 274.996094 1.75 272.203125 1.324219 268.238281 C 0.746094 262.640625 0.78125 261.535156 1.648438 258.039062 C 2.292969 255.367188 2.5 253.261719 2.242188 251.425781 C 2.003906 249.585938 2.242188 247.71875 2.789062 245.535156 C 3.46875 243.128906 3.585938 241.492188 3.265625 238.941406 C 3.042969 237.074219 2.824219 232.996094 2.789062 229.878906 C 2.789062 226.761719 2.535156 223.332031 2.277344 222.257812 C 2.003906 221.054688 2.054688 219.503906 2.449219 218.207031 C 3.960938 212.992188 4.550781 207.300781 3.960938 203.808594 C 3.453125 200.886719 3.519531 199.929688 4.335938 197.449219 C 5.066406 195.207031 5.273438 192.921875 5.222656 187.65625 C 5.222656 181.292969 5.222656 180.585938 6.511719 178.082031 C 7.261719 176.59375 7.890625 174.691406 7.890625 173.855469 C 7.890625 173.019531 8.265625 171.007812 8.707031 169.382812 C 9.164062 167.757812 9.761719 164.898438 10.066406 163.023438 C 10.714844 158.84375 11.378906 157.554688 14.816406 153.628906 C 16.328125 151.914062 17.683594 149.757812 17.886719 148.769531 C 18.5 145.804688 20.574219 143.171875 23.367188 141.820312 C 25.601562 140.742188 26.992188 140.539062 33.527344 140.347656 C 40.769531 140.132812 41.246094 140.191406 44.277344 141.53125 C 48.117188 143.238281 48.46875 143.246094 52.496094 141.773438 C 55.261719 140.757812 56.941406 140.589844 65.136719 140.507812 C 70.332031 140.457031 77.78125 140.222656 81.6875 139.988281 C 87.984375 139.613281 88.992188 139.675781 90.59375 140.535156 C 92.359375 141.476562 97.464844 141.945312 105.09375 141.859375 C 118.867188 141.707031 121.148438 141.546875 124.148438 140.539062 C 126.941406 139.601562 127.519531 139.566406 129.546875 140.21875 C 130.875 140.644531 133.671875 140.902344 136.222656 140.835938 C 139.070312 140.765625 141.730469 141.039062 143.75 141.628906 C 147.449219 142.703125 151.949219 142.441406 156.734375 140.875 C 159.472656 139.980469 160.738281 139.894531 166.109375 140.238281 C 169.523438 140.460938 172.882812 140.425781 173.570312 140.171875 C 175.515625 139.441406 179.5 139.617188 181.226562 140.511719 C 183.328125 141.597656 193.515625 141.542969 196.890625 140.425781 C 198.949219 139.742188 199.949219 139.722656 203.476562 140.289062 C 206.867188 140.839844 208.183594 140.832031 210.628906 140.238281 C 213.253906 139.609375 214.007812 139.632812 216.730469 140.425781 C 219.671875 141.285156 220.082031 141.28125 224.425781 140.34375 C 228.132812 139.546875 229.847656 139.449219 233.335938 139.835938 C 241.378906 140.726562 252.464844 140.734375 258.988281 139.847656 L 265.195312 139.007812 L 271.105469 140.46875 C 277.464844 142.035156 279.277344 141.992188 282.832031 140.179688 C 285.75 138.691406 289.320312 138.835938 292.507812 140.570312 L 295.125 141.996094 L 297.808594 140.839844 C 300.628906 139.628906 303.582031 139.429688 307.5 140.183594 C 309.066406 140.488281 310.722656 140.40625 312.480469 139.945312 C 315.183594 139.234375 317.617188 139.484375 319.929688 140.726562 C 320.984375 141.289062 321.613281 141.210938 323.910156 140.222656 C 326.273438 139.203125 327.230469 139.09375 331.015625 139.398438 C 333.421875 139.59375 336.785156 140.011719 338.492188 140.328125 C 341.210938 140.832031 342.054688 140.753906 345.351562 139.695312 C 349 138.519531 349.1875 138.511719 352.007812 139.398438 C 354.730469 140.257812 355.074219 140.253906 357.707031 139.398438 C 360.675781 138.429688 360.628906 138.429688 378.320312 139.691406 C 388.3125 140.402344 387.285156 140.382812 390.824219 139.933594 C 392.667969 139.703125 394.542969 139.78125 395.554688 140.132812 C 396.847656 140.582031 397.742188 140.539062 399.4375 139.941406 C 402.074219 139.011719 414.367188 139.222656 419.089844 140.277344 C 421.46875 140.8125 422.636719 140.804688 424.964844 140.246094 C 427.339844 139.675781 428.515625 139.675781 431.378906 140.246094 C 434.457031 140.855469 435.15625 140.832031 437.121094 140.046875 C 440.039062 138.878906 443.476562 138.90625 445.824219 140.113281 C 448.308594 141.394531 457.800781 141.347656 461.632812 140.027344 C 464.921875 138.898438 465.621094 138.914062 472.207031 140.230469 C 477.195312 141.234375 477.820312 141.253906 479.625 140.503906 C 481.859375 139.570312 484.707031 139.449219 487.257812 140.179688 C 488.347656 140.492188 490.289062 140.484375 492.382812 140.164062 C 499.34375 139.097656 511.792969 138.667969 515.476562 139.367188 C 520.230469 140.269531 528.570312 140.039062 531.972656 138.914062 C 534.070312 138.21875 535.222656 138.128906 536.972656 138.523438 C 538.402344 138.839844 541.613281 138.84375 545.585938 138.523438 C 550.910156 138.097656 552.453125 138.15625 555.210938 138.902344 C 558.269531 139.730469 558.785156 139.730469 562.550781 138.890625 C 566.488281 138.015625 566.742188 138.023438 571.414062 139.160156 C 575.226562 140.085938 576.898438 140.242188 579.464844 139.902344 C 582.957031 139.441406 585.132812 139.429688 595.121094 139.800781 C 598.6875 139.9375 602.210938 139.816406 602.953125 139.535156 C 604.246094 139.042969 613.394531 138.488281 619.828125 138.507812 C 626.632812 138.523438 629.234375 138.523438 631.3125 138.492188 C 632.554688 138.472656 634.488281 138.964844 635.84375 139.65625 L 638.203125 140.863281 L 640.960938 139.488281 C 643.605469 138.175781 644.183594 138.109375 654.792969 137.953125 C 662.148438 137.851562 667.445312 138.039062 670.589844 138.519531 C 674.121094 139.058594 675.75 139.09375 677.015625 138.652344 C 679.222656 137.882812 690.457031 137.886719 692.417969 138.664062 C 694.316406 139.410156 711.75 139.636719 715.808594 138.96875 C 718.585938 138.511719 733.441406 137.910156 740.105469 137.984375 C 758.550781 138.1875 764.257812 138.445312 765.621094 139.121094 C 766.828125 139.722656 767.492188 139.738281 769.132812 139.207031 C 770.40625 138.792969 773.839844 138.601562 778.445312 138.683594 C 782.453125 138.753906 786.875 138.617188 788.265625 138.375 C 789.664062 138.136719 791.441406 138.097656 792.222656 138.292969 C 793.941406 138.722656 802.53125 146.640625 804.226562 149.355469 C 805.042969 150.652344 805.433594 152.144531 805.433594 153.851562 C 805.433594 155.253906 805.84375 157.398438 806.320312 158.609375 C 807.035156 160.390625 807.152344 162.121094 806.933594 167.664062 C 806.761719 171.523438 806.933594 175.105469 807.1875 175.867188 C 808.105469 178.222656 808.171875 190.941406 807.359375 193.703125 C 806.472656 196.484375 805.859375 210.082031 805.945312 225.449219 C 805.945312 233.359375 806.234375 236.390625 807.136719 240.566406 C 808.191406 245.40625 808.242188 246.734375 807.882812 258.484375 C 807.492188 271.4375 807.476562 272.1875 807.664062 278.058594 C 807.664062 280.203125 807.441406 282.253906 806.863281 283.6875 C 806.011719 285.804688 806.011719 286.226562 806.863281 290.371094 C 807.390625 292.964844 807.628906 295.828125 807.460938 297.292969 C 806.21875 307.285156 806.097656 311.488281 806.949219 313.636719 C 807.628906 315.355469 807.730469 316.660156 807.390625 319.945312 C 806.710938 326.6875 807.085938 355.578125 807.902344 357.667969 C 808.070312 358.113281 807.902344 361.042969 807.375 364.175781 C 806.660156 368.953125 806.644531 370.625 807.1875 374.523438 C 807.714844 378.21875 807.699219 381.269531 807.1875 389.429688 C 806.402344 400.796875 806.335938 402.945312 806.609375 408.058594 C 806.78125 409.988281 806.609375 414.15625 806.371094 417.316406 C 805.980469 422.601562 806.03125 423.214844 807.050781 424.878906 C 808.734375 427.605469 809.027344 430.210938 808.039062 433.59375 C 807.359375 435.914062 807.304688 436.90625 807.78125 438.265625 C 808.140625 439.3125 808.222656 440.988281 807.988281 442.519531 C 807.359375 446.515625 807.511719 448.527344 808.769531 453.117188 C 809.859375 457.101562 809.910156 457.777344 809.296875 462.566406 C 808.9375 465.402344 808.699219 468.574219 808.75 469.617188 C 808.75 470.65625 808.921875 474.542969 808.75 478.253906 C 808.75 484.007812 808.546875 485.382812 807.542969 487.5625 C 806.269531 490.332031 806.320312 490.929688 808.597656 499.585938 C 809.074219 501.367188 809.414062 503.796875 809.363281 504.984375 C 809.363281 506.171875 809.191406 509.722656 809.074219 512.871094 C 808.902344 516.019531 808.683594 518.882812 808.460938 519.234375 C 808.238281 519.582031 808.289062 522.042969 808.699219 524.695312 C 809.226562 528.792969 809.191406 529.957031 808.476562 532.4375 C 807.796875 534.785156 807.730469 536.160156 808.15625 539.449219 C 808.445312 541.703125 808.816406 544.132812 809.003906 544.851562 C 809.191406 545.570312 808.835938 547.828125 808.375 549.871094 C 807.847656 551.914062 807.375 555.648438 807.339844 558.171875 C 807.339844 560.695312 806.980469 564.585938 806.675781 566.8125 C 806.199219 570.074219 806.25 571.46875 806.878906 573.96875 C 807.507812 576.453125 807.558594 577.757812 807.082031 580.460938 C 806.675781 582.859375 806.65625 584.28125 807.070312 585.351562 C 807.871094 587.464844 807.785156 589.851562 806.765625 593 C 806.152344 594.925781 805.882812 598.03125 805.8125 603.800781 C 805.8125 609.085938 805.507812 612.3125 805.066406 613.085938 C 804.605469 613.894531 804.4375 616.5625 804.503906 621.457031 C 804.675781 628.316406 804.503906 628.765625 803.160156 631.457031 C 802.34375 633.042969 801.699219 635.164062 801.699219 636.316406 C 801.699219 637.441406 801.207031 639.898438 800.625 641.78125 C 800.03125 643.664062 799.554688 645.972656 799.539062 646.910156 C 799.527344 649.390625 797.90625 652.542969 795.019531 655.738281 C 793.441406 657.492188 792.203125 659.515625 791.714844 661.152344 C 790.949219 663.734375 788.660156 666.472656 786.226562 667.722656 C 784.558594 668.574219 774.492188 669.585938 770.902344 669.261719 C 769.234375 669.109375 766.878906 668.476562 765.648438 667.847656 C 762.886719 666.4375 760.820312 666.421875 756.496094 667.78125 C 753.695312 668.660156 750.84375 668.894531 739.488281 669.183594 C 719.628906 669.6875 720.707031 669.726562 718.160156 668.414062 C 716.203125 667.410156 715.535156 667.316406 713.5 667.773438 C 711.699219 668.175781 710.359375 668.105469 707.953125 667.476562 C 706.210938 667.019531 704.296875 666.765625 703.703125 666.910156 C 703.109375 667.066406 701.652344 667.433594 700.464844 667.746094 C 698.933594 668.148438 697.113281 668.140625 694.253906 667.726562 C 690.578125 667.191406 689.941406 667.242188 687.351562 668.277344 C 683.9375 669.640625 680.773438 669.734375 678.472656 668.546875 C 676.992188 667.78125 676.410156 667.761719 673.859375 668.375 C 671.421875 668.957031 670.515625 668.949219 668.417969 668.320312 C 664.28125 667.09375 657.855469 667.011719 654.640625 668.148438 C 652.492188 668.910156 650.097656 669.148438 644.035156 669.199219 C 639.730469 669.230469 635.097656 669.445312 633.742188 669.667969 C 631.808594 669.984375 630.707031 669.820312 628.613281 668.945312 C 626.117188 667.894531 625.53125 667.859375 619.464844 668.390625 C 613.347656 668.921875 611.015625 669 603.265625 668.933594 C 601.484375 668.917969 598.445312 668.921875 596.515625 668.933594 C 594.585938 668.953125 592.007812 668.796875 590.785156 668.597656 C 589.355469 668.359375 587.339844 668.546875 585.132812 669.109375 C 581.578125 670.019531 575.617188 669.914062 569.785156 668.832031 C 567.316406 668.375 562.667969 668.5625 546.824219 669.765625 C 543.632812 670.007812 541.890625 669.832031 538.691406 668.929688 C 533.390625 667.445312 530.777344 667.492188 526.859375 669.136719 C 522.835938 670.832031 521.242188 670.832031 517.90625 669.136719 C 514.792969 667.558594 513.882812 667.488281 511.648438 668.644531 C 510.375 669.304688 508.613281 669.472656 503.980469 669.371094 C 500.675781 669.300781 496.953125 669.421875 495.710938 669.660156 C 494.042969 669.96875 492.742188 669.828125 490.769531 669.117188 C 488.199219 668.191406 488.007812 668.191406 486.058594 669.117188 C 484.335938 669.933594 483.167969 670.027344 478.3125 669.726562 C 475.164062 669.535156 471.308594 669.238281 469.742188 669.070312 C 467.769531 668.855469 466.230469 669.035156 464.738281 669.625 C 462.195312 670.640625 459.289062 670.671875 456.664062 669.710938 C 455.097656 669.136719 454.40625 669.152344 452.609375 669.8125 C 450.277344 670.660156 438.210938 670.460938 427.273438 669.398438 C 423.605469 669.042969 421.238281 669.058594 419.78125 669.449219 C 418.234375 669.867188 416.929688 669.851562 414.980469 669.382812 C 412.714844 668.839844 411.859375 668.882812 409.324219 669.679688 C 407.117188 670.375 405.683594 670.507812 403.828125 670.191406 C 402.449219 669.953125 399.800781 669.816406 397.949219 669.882812 C 396.097656 669.949219 393.023438 669.613281 391.117188 669.132812 C 387.980469 668.347656 387.382812 668.34375 384.761719 669.101562 C 382.238281 669.824219 381.46875 669.835938 378.679688 669.183594 C 375.773438 668.5 375.199219 668.527344 372.265625 669.464844 C 368.128906 670.785156 367.34375 670.757812 363.9375 669.171875 C 361.617188 668.089844 360.804688 667.953125 359.34375 668.382812 C 358.375 668.667969 356.117188 668.761719 354.332031 668.582031 C 352.054688 668.355469 350.394531 668.515625 348.730469 669.105469 C 345.707031 670.191406 343.054688 670.179688 337.203125 669.054688 C 332.726562 668.199219 332.328125 668.203125 329.265625 669.125 C 326.503906 669.960938 325.695312 670.003906 323.664062 669.4375 C 321.859375 668.929688 320.082031 668.910156 316.214844 669.351562 C 310.4375 670.011719 298.347656 670.199219 287.691406 669.804688 C 282.675781 669.617188 279.9375 669.734375 278.785156 670.195312 C 277.269531 670.792969 269.601562 670.851562 251.195312 670.390625 C 249.414062 670.339844 246.609375 670.496094 244.964844 670.734375 C 242.625 671.0625 240.941406 670.886719 237.214844 669.960938 C 233.703125 669.082031 231.933594 668.886719 230.484375 669.222656 C 229.398438 669.472656 223.65625 669.734375 217.71875 669.804688 C 211.777344 669.871094 204.609375 670.0625 201.789062 670.222656 C 198.96875 670.378906 192.164062 670.605469 186.667969 670.71875 C 177.535156 670.898438 176.457031 670.820312 174.070312 669.808594 L 171.460938 668.699219 L 168.941406 669.96875 C 166.8125 671.042969 165.535156 671.253906 160.75 671.316406 C 157.632812 671.351562 154.109375 671.53125 152.921875 671.699219 C 151.730469 671.867188 148.210938 671.75 145.089844 671.425781 Z M 196.128906 645.902344 C 198.914062 644.410156 200.480469 644.375 207.90625 645.65625 C 210.21875 646.058594 212.222656 646.039062 214.925781 645.589844 C 219.117188 644.902344 235.964844 644.773438 245.164062 645.355469 C 248.429688 645.5625 256.207031 645.78125 262.441406 645.835938 C 268.679688 645.886719 275.171875 646.15625 276.875 646.417969 C 279.519531 646.828125 280.351562 646.726562 282.6875 645.722656 C 284.976562 644.738281 286.417969 644.554688 291.746094 644.570312 C 295.230469 644.578125 299.175781 644.570312 300.511719 644.550781 C 301.855469 644.535156 304.523438 644.519531 306.453125 644.519531 C 308.382812 644.519531 312.753906 644.519531 316.171875 644.519531 C 319.585938 644.519531 325.296875 644.671875 328.863281 644.855469 C 336.429688 645.261719 335.984375 645.261719 342.765625 644.804688 C 346.105469 644.582031 348.925781 644.6875 350.484375 645.074219 C 352.292969 645.527344 353.523438 645.535156 355.148438 645.089844 C 360.226562 643.722656 363.199219 643.523438 366.894531 644.296875 C 368.894531 644.71875 370.996094 644.953125 371.566406 644.820312 C 372.144531 644.6875 375.03125 644.480469 378 644.355469 C 380.972656 644.238281 386.027344 643.953125 389.242188 643.734375 C 394.839844 643.355469 396.371094 643.484375 405.8125 645.125 C 407.894531 645.488281 409.425781 645.457031 410.941406 645.007812 C 412.832031 644.457031 418.160156 644.347656 430.648438 644.605469 C 432.28125 644.636719 436.535156 644.554688 440.097656 644.414062 C 445.878906 644.191406 453.03125 644.566406 459.648438 645.453125 C 461.160156 645.65625 462.75 645.441406 464.382812 644.816406 C 466.445312 644.027344 468.007812 643.921875 473.992188 644.167969 C 477.941406 644.339844 482.546875 644.21875 484.289062 643.910156 C 486.597656 643.503906 488.695312 643.542969 492.121094 644.046875 C 497.992188 644.917969 500.300781 644.925781 504.289062 644.082031 C 506.988281 643.507812 507.847656 643.53125 510.035156 644.25 C 513.972656 645.539062 524.859375 645.585938 530.394531 644.335938 C 534.21875 643.472656 535.28125 643.425781 538.136719 643.988281 C 540.234375 644.398438 543.160156 644.503906 546.136719 644.269531 C 549.816406 643.984375 551.558594 644.101562 554.179688 644.84375 C 557.46875 645.765625 557.585938 645.761719 560.683594 644.601562 C 562.726562 643.835938 564.871094 643.453125 566.769531 643.515625 C 568.382812 643.570312 571.082031 643.433594 572.78125 643.203125 C 575.320312 642.867188 576.425781 643.003906 579.058594 643.992188 C 582.660156 645.335938 583.347656 645.332031 602.09375 643.808594 C 608.035156 643.324219 614.289062 643.078125 615.992188 643.257812 C 617.851562 643.457031 620.164062 643.308594 621.792969 642.894531 C 624.246094 642.265625 624.90625 642.320312 628.914062 643.476562 L 633.328125 644.75 L 642.550781 643.757812 C 647.621094 643.210938 652.621094 642.847656 653.660156 642.953125 C 654.699219 643.054688 656.644531 643.070312 657.980469 643.003906 C 661.917969 642.78125 665.355469 642.851562 673.371094 643.34375 C 679.144531 643.691406 681.601562 643.632812 683.78125 643.082031 C 686.671875 642.351562 687.875 642.5 691.800781 644.074219 C 693.226562 644.644531 693.96875 644.601562 696.554688 643.789062 C 698.863281 643.0625 700.371094 642.921875 702.691406 643.21875 C 704.394531 643.433594 707.714844 643.570312 710.089844 643.523438 C 712.636719 643.472656 715.503906 643.769531 717.070312 644.242188 C 719.5625 645.003906 719.886719 644.984375 722.347656 643.925781 C 724.507812 642.992188 725.511719 642.867188 728.058594 643.203125 C 731.980469 643.71875 738.984375 643.558594 741.269531 642.90625 C 743.386719 642.296875 746.097656 642.730469 748.851562 644.113281 C 750.777344 645.082031 751.109375 645.09375 754.882812 644.3125 C 757.226562 643.828125 759.878906 643.625 761.304688 643.820312 C 763.433594 644.113281 771.070312 643.367188 773.628906 642.621094 C 774.527344 642.355469 776.300781 637.398438 777.082031 632.949219 C 777.285156 631.761719 777.882812 629.941406 778.394531 628.902344 C 779.292969 627.082031 780.007812 621.289062 780.253906 613.78125 C 780.421875 608.804688 781.085938 602.453125 781.648438 600.550781 C 781.902344 599.660156 782.242188 590.671875 782.394531 580.574219 C 782.597656 566.9375 782.871094 561.242188 783.5 558.433594 C 784.554688 553.640625 784.554688 550.800781 783.5 547.902344 C 782.429688 544.851562 782.378906 533.878906 783.5 531.8125 C 784.113281 530.617188 784.164062 528.066406 783.804688 517.664062 C 783.550781 510.683594 783.09375 503.683594 782.753906 502.105469 C 782.3125 499.980469 782.3125 498.457031 782.753906 496.234375 C 783.226562 493.929688 783.226562 492.691406 782.753906 490.898438 C 782.394531 489.605469 782.257812 487.644531 782.445312 486.507812 C 783.125 482.519531 783.347656 476.867188 782.886719 474.464844 C 782.34375 471.589844 782.898438 467.371094 784.417969 462.761719 L 785.507812 459.425781 L 784.332031 457.132812 C 783.363281 455.222656 783.226562 454.332031 783.535156 451.828125 C 783.738281 450.171875 783.855469 447.96875 783.804688 446.925781 C 783.585938 442.933594 783.636719 436.21875 784.09375 432.007812 C 784.433594 428.351562 784.316406 427.042969 783.414062 424.179688 C 782.464844 421.121094 782.363281 419.65625 782.582031 411.019531 C 782.941406 397.210938 782.941406 397.40625 782.410156 392.816406 C 782.121094 389.917969 782.191406 387.910156 782.667969 386.207031 C 783.277344 383.996094 783.242188 383.496094 782.171875 381.011719 C 781.136719 378.609375 781.035156 377.710938 781.375 373.851562 C 781.578125 371.425781 782.089844 368.347656 782.496094 367.011719 C 782.90625 365.671875 783.398438 362.347656 783.585938 359.621094 C 783.890625 355.25 783.789062 354.265625 782.683594 351.332031 C 781.511719 348.171875 781.476562 347.75 782.089844 343.046875 C 782.445312 340.320312 782.75 335.0625 782.75 331.355469 C 782.75 327.652344 782.75 323.648438 782.75 322.460938 C 782.75 319.582031 782.222656 313.554688 781.511719 309.234375 C 781.171875 307.078125 781.121094 304.890625 781.339844 303.5625 C 781.613281 302.292969 781.613281 300.351562 781.339844 298.855469 C 780.949219 296.867188 781.050781 295.6875 781.765625 293.464844 C 782.410156 291.496094 782.597656 289.824219 782.359375 288.039062 C 782.171875 286.613281 782.359375 284.011719 782.683594 282.234375 C 783.210938 279.671875 783.210938 278.1875 782.683594 275.019531 C 782.070312 271.355469 782.105469 270.769531 783.144531 267.757812 L 784.28125 264.480469 L 783.007812 262.089844 C 781.75 259.734375 781.730469 259.484375 781.851562 245.453125 C 781.851562 237.480469 782.191406 230.59375 782.496094 229.820312 C 782.785156 229.058594 783.210938 227.09375 783.414062 225.453125 C 783.738281 222.882812 783.601562 222.105469 782.429688 219.820312 C 781.085938 217.214844 781.066406 216.984375 781.289062 207.5 C 781.460938 200.183594 781.730469 197.261719 782.414062 195.46875 C 783.160156 193.515625 783.210938 192.738281 782.703125 191.03125 C 782.363281 189.894531 782.089844 185.972656 782.089844 182.320312 C 782.089844 177.585938 781.835938 174.851562 781.171875 172.785156 C 780.421875 170.386719 780.355469 169.398438 780.847656 167.066406 C 781.289062 164.960938 781.289062 164.085938 780.847656 163.613281 C 779.707031 162.457031 772.570312 162.648438 764.230469 164.058594 C 760.855469 164.628906 760.488281 164.585938 757.558594 163.246094 C 755.855469 162.464844 754.277344 161.9375 754.058594 162.074219 C 753.308594 162.53125 732.84375 163.101562 722.445312 162.953125 C 713.808594 162.835938 711.847656 162.953125 710.050781 163.71875 C 708.417969 164.414062 707.273438 164.527344 705.1875 164.199219 C 701.34375 163.597656 693.050781 163.414062 674.386719 163.515625 C 665.476562 163.566406 657.339844 163.585938 656.300781 163.566406 C 648.507812 163.398438 642.785156 163.550781 641.179688 163.941406 C 640.140625 164.195312 635.28125 164.363281 630.378906 164.304688 C 623.242188 164.21875 620.917969 164 618.703125 163.199219 L 615.933594 162.195312 L 613.058594 163.628906 C 609.699219 165.300781 608.769531 165.363281 604.476562 164.167969 C 601.609375 163.371094 600.394531 163.347656 593.011719 163.964844 C 584.191406 164.699219 570.855469 164.839844 569.835938 164.210938 C 569.496094 164 561.777344 163.765625 552.6875 163.6875 C 543.589844 163.601562 534.898438 163.289062 533.367188 162.976562 C 530.542969 162.398438 529.257812 162.59375 525.621094 164.132812 C 524.023438 164.8125 520.070312 164.90625 499.703125 164.730469 C 457.484375 164.371094 454.242188 164.398438 450.125 165.113281 C 447.035156 165.652344 445.507812 165.664062 443.097656 165.164062 C 440.769531 164.683594 437.742188 164.675781 430.578125 165.132812 C 420.039062 165.804688 412.902344 165.773438 410.066406 165.046875 C 407.089844 164.277344 399.03125 164.265625 392.160156 165.027344 C 386.882812 165.605469 385.3125 165.597656 382.441406 164.960938 C 379.734375 164.363281 378.050781 164.328125 374.417969 164.78125 C 369.226562 165.429688 355.832031 164.933594 351.363281 163.917969 C 348.910156 163.363281 348.214844 163.414062 345.964844 164.300781 C 343.484375 165.277344 337.683594 165.609375 330.957031 165.164062 C 329.765625 165.078125 326.230469 165.175781 323.09375 165.367188 C 318.699219 165.640625 316.613281 165.523438 313.992188 164.847656 C 310.929688 164.066406 310.320312 164.058594 307.851562 164.796875 C 304.707031 165.730469 301.140625 165.847656 299.132812 165.085938 C 296.59375 164.117188 285.390625 163.890625 281.007812 164.714844 C 276.210938 165.617188 257.863281 165.523438 255.460938 164.578125 C 253.375 163.761719 251.261719 163.832031 248.960938 164.792969 C 247.890625 165.238281 245.421875 165.605469 243.464844 165.605469 C 241.507812 165.605469 238.820312 165.878906 237.492188 166.210938 C 235.421875 166.730469 234.601562 166.65625 231.722656 165.691406 C 227.671875 164.335938 221.675781 164.105469 213.242188 164.988281 C 200.3125 166.339844 195.929688 166.585938 193.65625 166.09375 C 192.105469 165.757812 190.542969 165.796875 188.917969 166.210938 C 186.222656 166.890625 182.867188 166.621094 178.484375 165.382812 C 175.457031 164.523438 174.867188 164.550781 161.316406 166.171875 C 157.222656 166.664062 155.394531 166.675781 154.097656 166.222656 C 152.71875 165.75 151.746094 165.796875 149.5 166.449219 C 146.960938 167.1875 146.285156 167.191406 143.492188 166.484375 C 140.265625 165.671875 129.890625 165.644531 124.113281 166.433594 C 121.933594 166.730469 120.832031 166.570312 118.695312 165.648438 C 116.183594 164.570312 115.855469 164.546875 113.726562 165.296875 C 111.945312 165.925781 109.554688 166.050781 102.773438 165.863281 C 98 165.726562 93.195312 165.355469 92.101562 165.027344 C 90.433594 164.527344 89.554688 164.617188 86.746094 165.5625 C 83.992188 166.488281 82.972656 166.597656 81.085938 166.164062 C 77.945312 165.4375 72.152344 165.472656 68.839844 166.230469 C 65.652344 166.964844 65.445312 167.628906 67.273438 171.15625 C 68.210938 172.953125 68.480469 174.445312 68.53125 178.289062 C 68.53125 181.617188 68.90625 183.824219 69.570312 185.292969 C 70.285156 186.914062 70.4375 188.097656 70.148438 190.152344 C 69.160156 197.300781 68.753906 204.367188 68.5 218.515625 C 68.328125 226.980469 68.210938 234.636719 68.191406 235.527344 C 68.191406 236.417969 68.363281 238.847656 68.53125 240.925781 C 68.820312 243.863281 68.71875 245.179688 68.023438 246.824219 C 67.292969 248.554688 67.257812 249.28125 67.769531 250.824219 C 68.160156 252.007812 68.261719 254.125 68.023438 256.535156 C 67.820312 258.667969 68.023438 263.078125 68.328125 266.492188 C 68.957031 272.300781 68.941406 272.796875 67.851562 275.941406 C 66.898438 278.671875 66.730469 280.273438 66.847656 284.933594 C 67.019531 288.378906 67.359375 291.617188 67.886719 293.1875 C 69.058594 296.601562 69.027344 297.246094 67.324219 303.203125 C 66.066406 307.671875 65.964844 308.492188 66.578125 309.976562 C 67.867188 313.136719 68.261719 317.410156 67.613281 321.382812 C 67.273438 323.460938 67.035156 325.40625 67.070312 325.703125 C 67.070312 326 67.257812 328.617188 67.390625 331.519531 C 67.5625 334.421875 67.902344 337.703125 68.207031 338.808594 C 69.109375 342.074219 68.871094 347.027344 67.679688 349.65625 C 67.085938 350.949219 66.609375 352.707031 66.609375 353.5625 C 66.609375 354.414062 66.335938 356.757812 65.996094 358.765625 C 65.402344 362.355469 65.417969 362.480469 67.070312 365.582031 C 68.9375 369.078125 69.132812 370.851562 67.988281 373.886719 C 67 376.480469 66.574219 386.28125 67.238281 390.5 C 67.613281 392.839844 67.5625 394.539062 67.066406 396.609375 C 66.488281 399.074219 66.523438 399.992188 67.304688 403.089844 C 68.035156 405.988281 68.15625 408.085938 67.902344 413.71875 C 67.730469 417.582031 67.597656 422.441406 67.613281 424.519531 C 67.625 426.597656 67.253906 429.464844 66.777344 430.886719 C 66.082031 433.015625 66.03125 434.074219 66.507812 436.828125 C 66.828125 438.671875 66.933594 441.109375 66.746094 442.25 C 66.558594 443.390625 66.746094 445.980469 67.101562 448.011719 C 67.9375 452.394531 67.273438 456.816406 65.117188 461.386719 L 63.773438 464.230469 L 65 467.65625 C 66.121094 470.796875 66.171875 471.324219 65.542969 473.988281 C 65.03125 476.144531 65 477.292969 65.371094 478.417969 C 65.695312 479.253906 65.949219 481.394531 65.949219 483.179688 C 65.949219 484.960938 66.1875 486.859375 66.476562 487.394531 C 66.765625 487.933594 67.34375 493.074219 67.789062 498.820312 C 68.46875 507.996094 68.46875 509.554688 67.777344 511.609375 C 67.0625 513.730469 67.078125 514.214844 67.949219 516.753906 C 69.289062 520.667969 69.496094 538.042969 68.234375 540.886719 C 67.589844 542.332031 67.371094 545.0625 67.300781 552.496094 C 67.300781 558.476562 66.960938 562.824219 66.570312 563.800781 C 66.09375 565 66.078125 565.976562 66.570312 567.847656 C 67.046875 569.761719 67.011719 571.964844 66.398438 577.683594 C 65.90625 582.382812 65.785156 586.398438 66.058594 588.753906 C 66.535156 592.984375 66.058594 603.890625 65.363281 606.894531 C 64.9375 608.621094 65.089844 609.453125 66.433594 612.566406 C 68.296875 616.851562 69.441406 621.957031 68.964844 623.859375 C 68.777344 624.601562 68.964844 627.121094 69.269531 629.460938 C 69.832031 633.128906 69.796875 634.324219 68.980469 638.191406 C 67.433594 645.546875 68.980469 647.277344 75.953125 646.339844 C 78.0625 646.058594 80.792969 646.03125 82.132812 646.289062 C 85.738281 646.957031 96.160156 646.671875 98.5625 645.835938 C 101.074219 644.960938 104.359375 644.90625 107.179688 645.683594 C 108.710938 646.109375 109.941406 646.082031 111.90625 645.582031 C 114.058594 645.03125 115.078125 645.03125 117.304688 645.597656 C 119.199219 646.082031 123.195312 646.257812 130.128906 646.164062 C 165.066406 645.6875 176.550781 645.382812 180.4375 644.832031 C 182.933594 644.476562 190.425781 645.652344 192.183594 646.675781 C 192.710938 646.976562 193.171875 647.230469 193.238281 647.242188 C 193.238281 647.253906 194.511719 646.628906 195.9375 645.863281 Z M 369.359375 552.902344 C 367.636719 552.222656 365.128906 552.0625 356.941406 552.113281 C 345.753906 552.183594 336.570312 552.527344 330.128906 553.113281 C 326.804688 553.417969 325.464844 553.296875 323.253906 552.5 C 320.652344 551.566406 320.402344 551.5625 318.589844 552.433594 C 316.210938 553.566406 315.394531 553.570312 309.761719 552.449219 C 305.90625 551.683594 304.742188 551.652344 301.847656 552.226562 C 298.730469 552.847656 298.246094 552.808594 295.90625 551.773438 C 294.507812 551.152344 292.800781 550.644531 292.128906 550.644531 C 290.03125 550.644531 284.15625 548.597656 281.609375 546.980469 C 278.25 544.839844 274.675781 538.816406 273.886719 533.949219 C 273.222656 529.898438 273.257812 522.640625 273.886719 519.535156 C 274.140625 518.378906 274.15625 513.914062 273.886719 509.605469 C 273.492188 502.394531 273.542969 501.601562 274.53125 499.542969 C 275.535156 497.460938 275.570312 496.816406 275.078125 490.09375 C 274.789062 486.125 274.292969 481.664062 273.988281 480.179688 C 272.761719 474.179688 272.710938 472.535156 273.683594 470.019531 C 274.464844 467.957031 274.566406 466.507812 274.261719 460.914062 C 274.074219 457.253906 273.9375 452.773438 273.953125 450.953125 C 273.953125 448.171875 273.785156 447.394531 272.644531 446.035156 C 269.773438 442.621094 269.496094 439.601562 271.554688 434.15625 C 272.441406 431.84375 272.867188 429.804688 272.710938 428.609375 C 272.542969 427.570312 272.882812 425.402344 273.238281 423.789062 C 273.816406 421.550781 273.851562 420.210938 273.425781 418.117188 C 273.121094 416.613281 272.898438 413.4375 272.933594 411.058594 C 273.105469 402.675781 272.761719 396.992188 272.082031 393.246094 C 271.503906 390.273438 271.488281 388.128906 271.914062 383.25 C 272.542969 376.417969 272.574219 373.71875 272.167969 365.75 C 271.964844 361.921875 272.167969 359.785156 272.644531 358.253906 C 273.648438 355.414062 273.597656 350.644531 272.472656 347.050781 C 271.894531 345.089844 271.726562 343.332031 271.980469 341.6875 C 272.183594 340.34375 272.472656 338.367188 272.628906 337.292969 C 272.8125 335.945312 272.628906 334.664062 271.777344 333.128906 C 270.414062 330.46875 270.363281 329.066406 271.523438 325.945312 C 272.203125 324.109375 272.40625 321.21875 272.472656 312.933594 L 272.472656 302.285156 L 277.074219 297.597656 L 277.074219 293.042969 C 277.074219 284.929688 279.242188 282.496094 286.945312 281.632812 C 292.78125 280.980469 305.996094 281.085938 308.222656 281.804688 C 309.648438 282.265625 310.390625 282.191406 312 281.429688 C 313.277344 280.824219 314.976562 280.53125 316.699219 280.625 C 318.179688 280.707031 320.128906 280.707031 321.019531 280.625 C 321.90625 280.539062 323.734375 280.503906 325.070312 280.523438 C 333.972656 280.675781 335.871094 280.605469 338.160156 280.023438 C 340.140625 279.515625 341.476562 279.511719 344.097656 280.007812 C 347.117188 280.574219 350.507812 280.777344 356.390625 280.742188 C 357.425781 280.730469 361.644531 280.5 365.753906 280.21875 C 369.863281 279.9375 373.996094 279.878906 374.933594 280.082031 C 375.867188 280.292969 380.890625 280.414062 386.089844 280.351562 C 393.65625 280.269531 395.960938 280.058594 397.660156 279.316406 C 398.96875 278.742188 400.519531 278.492188 401.707031 278.660156 C 410.03125 279.839844 413.113281 279.984375 424.425781 279.734375 C 431.40625 279.582031 437.964844 279.507812 439.007812 279.582031 C 441.242188 279.71875 442.472656 279.683594 449.265625 279.234375 C 452.089844 279.046875 455.609375 278.957031 457.097656 279.035156 C 458.574219 279.101562 460.644531 279.152344 461.6875 279.152344 C 485.507812 278.8125 520.3125 279.332031 524.207031 280.085938 C 526.035156 280.4375 527.980469 280.457031 529.605469 280.136719 C 531.003906 279.859375 535.734375 279.367188 540.105469 279.039062 C 547.996094 278.445312 548.078125 278.453125 550.789062 279.75 C 552.78125 280.703125 554.140625 280.992188 555.796875 280.820312 C 558.679688 280.523438 562.433594 282.347656 564.105469 284.867188 C 564.785156 285.886719 565.433594 287.964844 565.636719 289.726562 C 565.824219 291.417969 566.351562 294.140625 566.792969 295.773438 C 569.09375 304.277344 569.257812 305.632812 568.949219 313.390625 C 568.777344 317.589844 568.949219 321.808594 569.136719 322.773438 C 569.40625 323.734375 569.765625 328.277344 569.917969 332.863281 C 570.089844 337.449219 570.328125 341.398438 570.460938 341.636719 C 570.632812 341.878906 570.460938 343.378906 569.96875 344.976562 C 568.78125 349.5625 569.203125 357.871094 570.648438 357.871094 C 572.199219 357.871094 576.605469 355.359375 577.355469 354.050781 C 578.71875 351.683594 581.367188 350.316406 584.617188 350.3125 C 587.609375 350.3125 588.15625 349.992188 593.542969 345.074219 C 594.9375 343.796875 596.46875 342.753906 596.933594 342.753906 C 597.390625 342.753906 598.804688 341.824219 600.058594 340.691406 C 603.480469 337.597656 608.105469 335.261719 612.480469 334.414062 C 614.625 333.996094 617.285156 333.269531 618.390625 332.804688 C 620.691406 331.828125 625.167969 331.699219 628.136719 332.523438 C 631.398438 333.429688 634.996094 338.804688 636.886719 345.59375 C 638.011719 349.636719 638.285156 351.5 637.992188 353.195312 C 637.515625 355.980469 637.515625 356.203125 638.230469 363.8125 C 638.554688 367.226562 639.148438 371.117188 639.542969 372.453125 C 640.050781 374.117188 640.222656 377.011719 640.101562 381.632812 C 639.933594 385.34375 640.101562 389.148438 640.460938 390.089844 C 640.816406 391.21875 640.816406 393.910156 640.460938 398.039062 C 640.121094 402.046875 640.101562 405.398438 640.460938 407.398438 C 641.496094 413.765625 641.972656 423.859375 641.363281 426.769531 C 640.867188 429.128906 640.9375 430.117188 641.753906 432.820312 C 642.585938 435.550781 642.636719 436.460938 642.109375 438.675781 C 641.125 442.859375 641.207031 446.953125 642.347656 449.773438 C 643.402344 452.398438 643.367188 452.953125 641.617188 458.039062 C 641.3125 458.929688 640.816406 460.628906 640.527344 461.820312 C 640.238281 463.007812 639.269531 465.714844 638.371094 467.839844 C 636.941406 471.207031 636.804688 471.988281 637.246094 473.964844 C 637.519531 475.210938 637.605469 477.074219 637.417969 478.101562 C 637.007812 480.265625 632.957031 486.019531 631.160156 486.980469 C 627.453125 488.964844 622.027344 488.476562 618.78125 485.863281 C 617.691406 484.992188 616.113281 484.121094 615.257812 483.925781 C 614.410156 483.734375 612.164062 483.113281 610.277344 482.550781 C 608.390625 481.988281 605.230469 481.523438 603.257812 481.515625 C 600.53125 481.503906 599.347656 481.25 598.320312 480.449219 C 597.332031 479.675781 596.09375 479.382812 593.730469 479.363281 C 591.425781 479.347656 589.710938 478.949219 587.789062 478.003906 C 586.308594 477.277344 584.808594 476.675781 584.46875 476.671875 C 584.128906 476.671875 582.816406 475.816406 581.582031 474.777344 C 579.984375 473.4375 578.785156 472.886719 577.496094 472.886719 C 576.496094 472.886719 574.554688 472.503906 573.179688 472.039062 C 571.800781 471.574219 570.585938 471.285156 570.46875 471.398438 C 570.300781 471.519531 570.25 474.75 570.25 478.59375 C 570.25 482.433594 570.25 486.550781 570.078125 487.738281 C 569.90625 491.429688 570.078125 493.035156 570.417969 496.167969 C 570.742188 498.578125 570.605469 499.847656 569.722656 502.375 C 568.734375 505.226562 568.683594 506.085938 569.160156 510.6875 C 569.449219 513.507812 569.535156 518.367188 569.328125 521.484375 C 569.125 524.605469 569.007812 529.269531 569.039062 531.855469 C 569.039062 534.4375 568.835938 537.582031 568.496094 538.835938 C 567.765625 541.527344 565.40625 543.933594 562.964844 544.464844 C 562.015625 544.671875 560.210938 545.570312 558.964844 546.460938 C 557.316406 547.636719 555.78125 548.1875 553.296875 548.488281 C 551.421875 548.71875 548.507812 549.21875 546.824219 549.605469 C 544.089844 550.234375 543.535156 550.203125 541.613281 549.335938 C 539.105469 548.207031 535.261719 548.507812 531.59375 550.125 C 529.773438 550.925781 528.429688 551.058594 524.238281 550.84375 C 517.816406 550.511719 510.113281 550.628906 509.398438 551.070312 C 508.582031 551.582031 488.742188 551.609375 485.398438 551.105469 C 483.261719 550.785156 481.699219 550.890625 479.625 551.492188 C 477.433594 552.128906 476.304688 552.191406 474.695312 551.757812 C 473.554688 551.449219 471.894531 551.382812 471.019531 551.605469 C 468.554688 552.246094 456.757812 551.933594 453.984375 551.152344 C 451.886719 550.5625 450.804688 550.585938 446.964844 551.308594 C 441.921875 552.261719 432.890625 552.222656 426.9375 551.222656 C 423.730469 550.683594 423.007812 550.734375 420.449219 551.691406 C 417.253906 552.886719 408.9375 553.257812 400.582031 552.570312 C 395.117188 552.125 396.28125 552.132812 386.269531 552.46875 C 381.816406 552.625 377.324219 552.992188 376.285156 553.304688 C 373.789062 554.046875 371.621094 553.925781 368.992188 552.886719 Z M 328.355469 531.617188 C 328.523438 531.480469 328.183594 530.472656 327.777344 529.382812 C 327.0625 527.679688 326.808594 527.476562 325.921875 527.945312 C 324.476562 528.722656 322.605469 531.226562 323 531.867188 C 323.304688 532.371094 327.808594 532.160156 328.355469 531.617188 Z M 360.890625 530.695312 C 361.058594 530.292969 360.890625 530.089844 360.414062 530.222656 C 360.023438 530.359375 359.597656 530.777344 359.460938 531.167969 C 359.292969 531.574219 359.460938 531.777344 359.9375 531.640625 C 360.328125 531.503906 360.753906 531.085938 360.890625 530.695312 Z M 412.558594 531.203125 C 412.984375 530.515625 411.199219 530.515625 410.128906 531.203125 C 409.5 531.613281 409.636719 531.726562 410.777344 531.734375 C 411.578125 531.734375 412.375 531.5 412.5625 531.203125 Z M 420.929688 528.730469 C 420.929688 526.425781 417.882812 526.242188 415.464844 528.402344 L 413.765625 529.921875 L 417.347656 529.921875 C 420.679688 529.921875 420.929688 529.835938 420.929688 528.730469 Z M 372.871094 517.164062 C 372.871094 516.867188 372.699219 516.625 372.632812 516.625 C 372.460938 516.625 372.242188 516.867188 372.054688 517.164062 C 371.867188 517.460938 372.054688 517.703125 372.292969 517.703125 C 372.617188 517.703125 372.871094 517.460938 372.871094 517.164062 Z M 471.359375 509.953125 C 473.273438 508.148438 473.847656 507.21875 473.847656 505.9375 C 473.847656 502.742188 472.46875 503.496094 469.335938 508.414062 C 468.523438 509.691406 467.503906 510.871094 467.074219 511.039062 C 465.832031 511.511719 466.15625 512.304688 467.582031 512.304688 C 468.367188 512.304688 469.855469 511.378906 471.363281 509.953125 Z M 360.078125 496.527344 C 364.449219 493.175781 368.132812 489.332031 369.105469 487.105469 C 370.058594 484.914062 370.144531 484.871094 372.019531 485.296875 C 374.355469 485.824219 377.046875 485.277344 379.640625 483.742188 C 380.777344 483.070312 382.503906 482.601562 383.84375 482.601562 C 385.117188 482.601562 387.042969 482.105469 388.226562 481.472656 C 389.601562 480.734375 392.011719 480.183594 395.136719 479.890625 C 399.6875 479.464844 400.230469 479.269531 405.558594 476.160156 C 409.59375 473.808594 411.726562 472.882812 413.109375 472.882812 C 415.464844 472.882812 417.445312 471.898438 419.546875 469.691406 C 420.410156 468.773438 421.675781 468.023438 422.34375 468.023438 C 424.222656 468.023438 426.320312 467.058594 428.375 465.257812 C 429.410156 464.351562 431.789062 462.875 433.671875 461.976562 C 435.554688 461.078125 437.375 460.003906 437.71875 459.59375 C 438.058594 459.179688 438.875 458.839844 439.53125 458.839844 C 440.804688 458.839844 447.492188 456.6875 449.613281 455.589844 C 450.328125 455.226562 451.503906 454.367188 452.246094 453.675781 C 454.054688 452 457.503906 450.101562 470.378906 443.714844 C 476.339844 440.753906 482.050781 438.175781 483.066406 437.980469 C 485.617188 437.492188 487.796875 436.335938 490.179688 434.203125 C 491.285156 433.207031 493.316406 431.867188 494.679688 431.222656 C 496.261719 430.480469 498.144531 428.867188 499.878906 426.765625 C 501.375 424.953125 503.507812 422.578125 504.625 421.488281 C 506.996094 419.175781 508.945312 414.089844 508.945312 410.21875 C 508.945312 406.988281 507.296875 404.480469 504.007812 402.683594 C 500.539062 400.789062 500.019531 400.265625 499.328125 397.964844 C 498.460938 395.078125 495.789062 392.078125 493.414062 391.316406 C 492.308594 390.957031 491.023438 390.34375 490.566406 389.945312 C 489.445312 388.96875 485.613281 387.335938 484.796875 387.484375 C 484.4375 387.554688 483.367188 387.203125 482.414062 386.714844 C 481.460938 386.226562 479.457031 385.628906 477.945312 385.382812 C 476.433594 385.136719 472.644531 384.199219 469.527344 383.300781 C 466.40625 382.402344 463.242188 381.65625 462.492188 381.644531 C 461.164062 381.628906 459.78125 380.796875 455.898438 377.710938 C 454.015625 376.210938 447.21875 374.355469 441.175781 373.691406 C 439.699219 373.523438 437.992188 372.96875 437.394531 372.445312 C 434.808594 370.164062 426.472656 367.046875 422.953125 367.046875 C 421.335938 367.046875 420.269531 366.742188 419.777344 366.144531 C 418.265625 364.308594 414.25 362.1875 412.277344 362.1875 C 409.910156 362.1875 405.542969 360.785156 403.527344 359.378906 C 402.710938 358.816406 400.289062 357.996094 398.128906 357.558594 C 395.964844 357.121094 392.863281 356.175781 391.226562 355.464844 C 386.445312 353.378906 381.5625 352.308594 376.648438 352.269531 C 371.375 352.234375 368.769531 352.957031 366.78125 355.042969 C 364.765625 357.15625 364.230469 359 364.230469 363.777344 C 364.230469 366.097656 363.890625 368.8125 363.5 369.816406 C 363.089844 370.816406 362.476562 374.675781 362.121094 378.386719 C 361.761719 382.097656 361.390625 386.078125 361.269531 387.226562 C 361.101562 388.378906 361.269531 390.566406 361.644531 392.089844 C 362.15625 394.53125 362.085938 395.175781 361.066406 397.492188 C 359.65625 400.699219 359.65625 400.679688 361.066406 400.253906 C 362.070312 399.9375 362.140625 400.152344 362.140625 403.613281 C 362.140625 405.960938 361.730469 408.464844 361.035156 410.464844 C 359.878906 413.78125 359.960938 415.644531 361.425781 418.523438 C 362.105469 419.867188 362.105469 420.351562 361.425781 422.535156 C 360.371094 425.652344 360.351562 428.097656 361.425781 430.582031 C 362.070312 432.144531 362.121094 432.960938 361.628906 434.75 C 360.640625 438.414062 360.761719 443.214844 361.902344 445.753906 C 362.921875 448.007812 362.921875 448.039062 361.695312 451.648438 C 360.011719 456.640625 360.320312 463.679688 362.410156 468.269531 C 363.195312 469.988281 363.839844 472.15625 363.839844 473.082031 C 363.839844 475.019531 365.929688 480.453125 367.460938 482.5 L 368.496094 483.882812 L 364.488281 487.699219 C 362.285156 489.796875 359.40625 492.1875 358.089844 493.011719 C 355.289062 494.769531 354.320312 496.566406 355.625 497.585938 C 356.9375 498.613281 357.757812 498.421875 360.230469 496.527344 Z M 390.691406 450.808594 C 390.691406 450.511719 390.929688 450.117188 391.234375 449.933594 C 391.523438 449.75 391.78125 449.851562 391.78125 450.140625 C 391.78125 450.4375 391.542969 450.832031 391.234375 451.015625 C 390.945312 451.199219 390.691406 451.101562 390.691406 450.808594 Z M 385.289062 384.839844 L 385.289062 383.175781 L 386.941406 384.351562 C 388.804688 385.675781 388.804688 385.664062 386.769531 386.152344 C 385.390625 386.480469 385.289062 386.386719 385.289062 384.839844 Z M 312.421875 465.59375 C 313 464.703125 313.476562 463.511719 313.476562 462.945312 C 313.476562 461.933594 313.476562 461.933594 312.335938 462.945312 C 311.113281 464.058594 306.980469 470.734375 307.007812 471.566406 C 307.007812 472.1875 310.972656 467.835938 312.421875 465.597656 Z M 316.964844 457.296875 C 316.554688 456.886719 314.546875 459.246094 314.570312 460.121094 C 314.570312 460.457031 315.199219 460.035156 315.945312 459.1875 C 316.695312 458.335938 317.15625 457.484375 316.96875 457.296875 Z M 296.820312 444.667969 C 297.910156 442.515625 298.972656 439.90625 299.183594 438.867188 C 299.660156 436.542969 300.695312 434.433594 301.855469 433.472656 C 302.945312 432.566406 303.941406 430.765625 303.355469 430.765625 C 302.625 430.765625 297.820312 435.714844 296.050781 438.28125 C 294.6875 440.261719 294.367188 441.332031 294.148438 444.625 C 293.980469 446.804688 294.148438 448.585938 294.371094 448.582031 C 294.625 448.582031 295.730469 446.820312 296.824219 444.667969 Z M 571.585938 440.53125 C 571.585938 439.230469 572.078125 437.746094 572.925781 436.488281 C 574.558594 434.078125 574.558594 433.992188 573.132812 431.175781 C 572.128906 429.191406 572.027344 428.398438 572.367188 424.34375 C 572.757812 419.4375 573.046875 418.625 575.445312 415.570312 C 577.347656 413.136719 577.367188 412.40625 575.613281 410.746094 C 571.789062 407.21875 571.792969 401.625 575.613281 396.605469 C 576.753906 395.105469 576.957031 394.273438 576.941406 391.070312 C 576.941406 385.757812 576.667969 381.625 576.34375 381.308594 C 575.835938 380.800781 571.148438 384.359375 570.738281 385.558594 C 570.519531 386.21875 570.3125 391.617188 570.296875 397.558594 C 570.296875 406.777344 570.128906 408.609375 569.328125 410.082031 C 568.425781 411.734375 568.425781 411.992188 569.515625 416.558594 C 570.621094 421.230469 570.621094 421.394531 569.683594 425.550781 C 568.886719 429.078125 568.816406 430.179688 569.363281 432.171875 C 569.71875 433.484375 570.007812 435.589844 570.007812 436.847656 C 570.007812 440.128906 570.605469 443.210938 571.148438 442.875 C 571.402344 442.71875 571.625 441.660156 571.625 440.527344 Z M 340.117188 426.15625 C 340.746094 424.273438 340.355469 424.042969 338.320312 425.09375 C 336.90625 425.824219 335.070312 428.574219 335.070312 429.96875 C 335.070312 430.871094 339.71875 427.359375 340.117188 426.160156 Z M 312.199219 421.328125 C 315.550781 418.105469 316.160156 415.253906 312.949219 417.792969 C 311.722656 418.765625 310.109375 420.859375 309.167969 422.710938 C 307.160156 426.664062 307.121094 427.308594 308.996094 424.835938 C 309.796875 423.804688 311.21875 422.222656 312.152344 421.328125 Z M 346.410156 417.804688 C 347.210938 416.304688 347.058594 415.640625 346.003906 416.015625 C 344.300781 416.613281 342.628906 418.507812 342.628906 419.828125 L 342.628906 421.121094 L 344.242188 419.964844 C 345.144531 419.332031 346.105469 418.359375 346.402344 417.804688 Z M 354.175781 407.25 C 354.363281 406.769531 354.347656 406.550781 353.957031 406.742188 C 353.667969 406.921875 353.429688 407.296875 353.429688 407.578125 C 353.429688 408.355469 353.820312 408.183594 354.175781 407.25 Z M 302.070312 391.105469 C 301.578125 390.613281 299.433594 392.46875 299.433594 393.390625 C 299.433594 394.097656 299.753906 393.976562 300.894531 392.835938 C 301.695312 392.035156 302.222656 391.257812 302.085938 391.105469 Z M 490.011719 381.816406 C 490.625 381.027344 491.015625 380.265625 490.878906 380.117188 C 490.523438 379.761719 489.035156 381.035156 488.382812 382.257812 C 487.566406 383.78125 488.722656 383.472656 490.015625 381.816406 Z M 498.40625 372.257812 C 503.003906 365.800781 503.140625 363.988281 498.695312 368.386719 C 495.5 371.546875 494.257812 373.46875 493.535156 376.371094 C 492.875 379.03125 494.660156 377.527344 498.402344 372.257812 Z M 507.253906 359.230469 C 509.585938 356.703125 510.308594 354.6875 508.53125 355.640625 C 506.882812 356.53125 504.078125 360.121094 504.078125 361.34375 C 504.078125 362.183594 505.234375 361.410156 507.246094 359.230469 Z M 295.441406 355.835938 C 295.78125 355.617188 296.226562 354.890625 296.429688 354.222656 C 296.753906 353.1875 296.617188 353.007812 295.476562 353.007812 C 294.203125 353.007812 293.496094 353.882812 293.496094 355.484375 C 293.496094 356.304688 294.464844 356.480469 295.445312 355.835938 Z M 497.359375 323.269531 C 499.074219 320.554688 499.621094 319.222656 498.824219 319.71875 C 497.90625 320.289062 494.855469 325.46875 495.449219 325.46875 C 495.738281 325.46875 496.605469 324.480469 497.363281 323.269531 Z M 505.527344 314.007812 C 506.664062 312.972656 508.21875 309.960938 507.800781 309.59375 C 507.628906 309.488281 506.527344 309.558594 505.199219 309.746094 C 502.851562 310.074219 502.789062 310.136719 502.101562 312.78125 C 501.050781 316.832031 501.117188 317.121094 502.867188 316.011719 C 503.683594 315.492188 504.878906 314.589844 505.523438 314.007812 Z M 314.503906 311.324219 C 315.421875 310.078125 316.171875 308.863281 316.171875 308.625 C 316.171875 308.386719 315.203125 308.191406 314.011719 308.191406 L 311.851562 308.191406 L 311.851562 310.53125 C 311.851562 312.523438 312.140625 313.589844 312.703125 313.589844 C 312.703125 313.589844 313.585938 312.570312 314.503906 311.324219 Z M 389.835938 308.75 C 392.730469 307.511719 393.039062 306.566406 390.546875 306.578125 C 387.5 306.589844 386.363281 307.117188 386.363281 308.523438 C 386.363281 310.082031 386.671875 310.105469 389.828125 308.75 Z M 422.382812 306.859375 C 423.828125 305.59375 423.84375 305.523438 422.722656 305.507812 C 420.859375 305.472656 419.84375 306.066406 419.84375 307.167969 C 419.84375 308.542969 420.558594 308.457031 422.378906 306.855469 Z M 464.628906 304.722656 C 465.957031 303.304688 465.75 302.25 464.136719 302.25 C 462.691406 302.25 461.476562 303.664062 461.808594 304.941406 C 462.183594 306.390625 463.136719 306.316406 464.632812 304.71875 Z M 39.703125 636.113281 C 39.703125 634.761719 39.703125 634.71875 38.835938 635.523438 C 38.359375 636.003906 38.121094 636.660156 38.324219 636.988281 C 38.988281 638.058594 39.703125 637.605469 39.703125 636.113281 Z M 28.035156 617.285156 C 28.527344 615.996094 28.425781 614.464844 27.8125 614.089844 C 27.132812 613.667969 26.109375 616.234375 26.535156 617.324219 C 26.945312 618.382812 27.609375 618.363281 28.035156 617.292969 Z M 28.917969 546.835938 C 29.34375 546.023438 29.34375 545.195312 28.917969 543.730469 C 28.035156 540.953125 27.589844 540.640625 26.582031 542.078125 C 25.460938 543.679688 25.460938 545.703125 26.582031 546.957031 C 27.722656 548.222656 28.214844 548.199219 28.945312 546.835938 Z M 29.277344 533.765625 C 29.921875 532.800781 30.722656 530.941406 31.074219 529.632812 C 31.414062 528.320312 32.058594 526.710938 32.484375 526.050781 C 33.316406 524.777344 33.605469 519.945312 33.265625 512.835938 C 33.097656 509.75 33.265625 508.34375 34.015625 506.960938 C 35.683594 503.746094 35.511719 490.699219 33.792969 489.640625 C 33.453125 489.425781 31.964844 489.488281 30.492188 489.777344 C 27.285156 490.410156 26.953125 491.175781 27.542969 496.550781 C 28.324219 503.71875 28.292969 514.609375 27.542969 516.605469 C 27.015625 517.890625 26.878906 519.378906 27.132812 521.320312 C 27.339844 522.941406 27.132812 525.605469 26.828125 527.542969 C 26.316406 530.144531 26.300781 531.460938 26.828125 533.222656 C 27.167969 534.484375 27.628906 535.515625 27.832031 535.515625 C 28.035156 535.515625 28.75 534.722656 29.394531 533.757812 Z M 31.074219 321.308594 C 31.074219 320.398438 30.289062 320.414062 29.507812 321.34375 C 27.648438 323.585938 26.246094 327.171875 26.582031 328.839844 C 26.921875 330.554688 26.972656 330.511719 28.996094 326.296875 C 30.136719 323.941406 31.066406 321.699219 31.066406 321.3125 Z M 35.097656 314.886719 C 35.574219 314.414062 36.324219 313.257812 36.765625 312.320312 C 37.207031 311.386719 38.023438 309.890625 38.601562 309 C 39.828125 307.089844 40.253906 304.347656 39.351562 304.035156 C 38.621094 303.777344 38.210938 304.234375 35.738281 307.925781 C 34.683594 309.507812 33.773438 311.691406 33.546875 313.191406 C 33.136719 315.90625 33.546875 316.394531 35.09375 314.886719 Z M 42.683594 166.714844 C 42.871094 166.417969 42.683594 166.175781 42.171875 166.175781 C 41.710938 166.175781 41.320312 166.417969 41.320312 166.714844 C 41.320312 167.011719 41.558594 167.253906 41.832031 167.253906 C 42.105469 167.253906 42.496094 167.011719 42.683594 166.714844 Z M 42.683594 166.714844 " fill-opacity="1" fill-rule="nonzero"/></g></svg>