<svg xmlns="http://www.w3.org/2000/svg" xmlns:xlink="http://www.w3.org/1999/xlink" width="1080" zoomAndPan="magnify" viewBox="0 0 810 809.999993" height="1080" preserveAspectRatio="xMidYMid meet" version="1.0"><defs><clipPath id="55e6436885"><path d="M 0 122.511719 L 810 122.511719 L 810 687.261719 L 0 687.261719 Z M 0 122.511719 " clip-rule="nonzero"/></clipPath></defs><rect x="-81" width="972" fill="#ffffff" y="-80.999999" height="971.999992" fill-opacity="1"/><rect x="-81" width="972" fill="#ffffff" y="-80.999999" height="971.999992" fill-opacity="1"/><g clip-path="url(#55e6436885)"><path fill="#3c3738" d="M 405.246094 686.558594 C 401.128906 685.8125 400.523438 685.59375 393.882812 682.378906 C 391.074219 681.023438 387.839844 679.488281 386.691406 678.96875 C 385.539062 678.449219 383.289062 676.859375 381.675781 675.4375 C 380.066406 674.011719 378.308594 672.847656 377.773438 672.847656 C 376.722656 672.847656 372.777344 670.710938 372.777344 670.140625 C 372.777344 669.953125 371.578125 668.441406 370.109375 666.785156 C 367.710938 664.078125 365.746094 661.058594 359.355469 650.242188 C 357.394531 646.925781 357.378906 646.855469 357.695312 643.710938 C 358 640.710938 357.941406 640.414062 356.613281 638.332031 C 354.757812 635.40625 354.394531 633.117188 355.429688 630.8125 C 355.984375 629.574219 356.246094 627.71875 356.277344 624.839844 C 356.277344 619.933594 357.679688 611.882812 358.714844 610.230469 C 359.109375 609.589844 360.046875 608.585938 360.777344 607.992188 C 361.507812 607.402344 362.105469 606.667969 362.105469 606.371094 C 362.117188 603.703125 363.707031 601.265625 369.429688 595.132812 C 370.628906 593.847656 372.523438 591.589844 373.636719 590.117188 C 375.554688 587.574219 377.113281 586.5 379.730469 585.902344 C 380.371094 585.757812 381.308594 584.980469 381.816406 584.175781 C 383.160156 582.054688 384.644531 581.125 388.316406 580.109375 C 390.101562 579.617188 392.535156 578.671875 393.71875 578.007812 C 398.625 575.265625 409.832031 573.121094 415.667969 573.804688 C 417.203125 573.984375 419.25 574.109375 420.21875 574.078125 C 422.070312 574.019531 425.71875 575.40625 427.164062 576.714844 C 427.660156 577.160156 429.230469 577.613281 430.890625 577.785156 C 432.96875 578 434.472656 578.515625 436.316406 579.632812 C 439.839844 581.769531 444.082031 585.480469 445.414062 587.585938 C 446.273438 588.960938 446.976562 589.457031 448.589844 589.863281 C 450.183594 590.265625 451.191406 590.980469 453.019531 593 C 454.320312 594.441406 456.324219 596.570312 457.472656 597.734375 C 459.164062 599.453125 459.710938 600.449219 460.402344 603.066406 C 460.871094 604.839844 461.804688 607.261719 462.480469 608.449219 C 463.167969 609.660156 463.839844 611.703125 463.992188 613.085938 C 464.152344 614.554688 464.679688 616.128906 465.292969 616.953125 C 467.304688 619.6875 467.546875 620.640625 467.964844 627.621094 C 468.535156 637.027344 468.519531 637.804688 467.730469 639.304688 C 467.351562 640.023438 466.621094 641.445312 466.09375 642.464844 C 465.15625 644.277344 464.226562 647.535156 463.308594 652.207031 C 462.460938 656.476562 459.042969 664.019531 456.953125 666.199219 C 455.898438 667.304688 454.71875 668.207031 454.34375 668.207031 C 453.964844 668.207031 452.941406 668.957031 452.0625 669.871094 C 451.183594 670.789062 449.523438 672.019531 448.371094 672.605469 C 447.101562 673.257812 445.371094 674.808594 443.972656 676.554688 C 441.890625 679.148438 439.109375 681.195312 437.667969 681.195312 C 437.378906 681.195312 435.898438 682.015625 434.398438 683.019531 C 430.773438 685.4375 427.535156 686.125 423.507812 685.324219 C 420.691406 684.765625 420.402344 684.792969 418.332031 685.800781 C 415.585938 687.140625 410.183594 687.453125 405.238281 686.558594 Z M 417.304688 665.75 C 417.304688 665.421875 416.472656 664.332031 415.449219 663.335938 C 413.816406 661.742188 413.503906 661.605469 412.910156 662.199219 C 411.730469 663.378906 411.832031 665.066406 413.128906 665.738281 C 414.65625 666.527344 417.304688 666.539062 417.304688 665.75 Z M 388.261719 653.945312 C 388.480469 652.511719 388.40625 651.976562 387.96875 651.976562 C 387.152344 651.976562 384.367188 653.726562 384.367188 654.242188 C 384.367188 654.847656 387.320312 656.636719 387.667969 656.246094 C 387.832031 656.066406 388.09375 655.03125 388.253906 653.945312 Z M 382.90625 649.863281 C 383.742188 648.023438 383.578125 647.335938 382.28125 647.335938 C 381.273438 647.335938 381.125 647.542969 381.125 648.882812 C 381.125 651.304688 382.03125 651.800781 382.90625 649.867188 Z M 447.898438 639.460938 C 448.894531 638.925781 449.921875 636.351562 449.300781 635.964844 C 449.070312 635.816406 448.339844 636.050781 447.6875 636.480469 C 444.984375 638.253906 445.183594 640.917969 447.90625 639.460938 Z M 428.132812 624.675781 C 429.183594 623.746094 429.992188 622.296875 429.644531 621.953125 C 429.308594 621.617188 425.1875 624.988281 425.1875 625.597656 C 425.1875 626.214844 427.042969 625.628906 428.132812 624.675781 Z M 436.425781 615 C 437.433594 613.925781 438.660156 612.921875 439.148438 612.765625 C 440.226562 612.425781 440.285156 611.484375 439.308594 610.664062 C 438.898438 610.332031 438.152344 609.234375 437.640625 608.226562 L 436.707031 606.390625 L 435.554688 607.546875 C 434.691406 608.414062 434.3125 609.4375 434.03125 611.675781 C 433.769531 613.765625 433.226562 615.332031 432.210938 616.9375 C 429.207031 621.671875 430.882812 620.902344 436.433594 615 Z M 385.214844 607.207031 C 384.863281 606.859375 383.445312 608.28125 383.445312 608.972656 C 383.445312 609.269531 383.898438 609.046875 384.46875 608.492188 C 385.023438 607.929688 385.359375 607.351562 385.210938 607.203125 Z M 579.53125 578.417969 C 579.382812 578.273438 576.523438 577.878906 573.179688 577.550781 L 567.097656 576.949219 L 563.71875 574.171875 C 561.855469 572.644531 559.511719 571.128906 558.507812 570.804688 C 555.28125 569.761719 554.257812 569.019531 552.816406 566.675781 C 552.039062 565.410156 550.246094 563.523438 548.832031 562.480469 C 547.414062 561.4375 545.453125 559.492188 544.453125 558.15625 C 543.460938 556.820312 541.867188 555 540.917969 554.105469 C 539.96875 553.214844 538.65625 551.648438 538.007812 550.625 C 535.265625 546.324219 531.324219 542.515625 527.644531 540.597656 C 525.652344 539.5625 522.832031 537.5625 521.300781 536.097656 C 517.875 532.824219 514.589844 530.46875 512.578125 529.851562 C 511.730469 529.589844 510.070312 528.578125 508.882812 527.597656 C 507.699219 526.613281 506.257812 525.8125 505.6875 525.8125 C 503.472656 525.8125 495.574219 522.882812 492.730469 521.003906 C 489.246094 518.707031 486.898438 517.617188 484.617188 517.234375 C 483.507812 517.050781 479.984375 515.667969 476.800781 514.164062 C 473.617188 512.664062 470.558594 511.433594 470.003906 511.433594 C 469.449219 511.433594 467.75 510.8125 466.226562 510.054688 C 464.703125 509.296875 463.011719 508.671875 462.46875 508.664062 C 461.929688 508.65625 460.570312 508.324219 459.457031 507.925781 C 458.304688 507.519531 455.519531 507.152344 453.019531 507.085938 C 449.601562 506.996094 448.09375 506.726562 446.292969 505.90625 C 444.832031 505.242188 443.148438 504.863281 441.761719 504.886719 C 440.550781 504.898438 438.566406 504.582031 437.355469 504.160156 C 436.144531 503.738281 433.804688 503.335938 432.148438 503.261719 C 430.488281 503.1875 426.941406 503.007812 424.261719 502.863281 C 419.023438 502.582031 411.867188 502.226562 408.492188 502.082031 C 405.914062 501.964844 402.53125 502.453125 399.347656 503.378906 C 396.878906 504.101562 396.058594 504.023438 393.144531 502.789062 C 391.519531 502.097656 391.40625 502.121094 388.28125 503.78125 C 385.546875 505.230469 384.804688 505.433594 383.132812 505.183594 C 381.574219 504.949219 380.171875 505.242188 376.167969 506.632812 C 371.351562 508.304688 369.921875 508.519531 362.6875 508.640625 C 362.367188 508.648438 361.332031 509.351562 360.371094 510.207031 C 358.046875 512.285156 356.925781 512.824219 354.925781 512.824219 C 354.003906 512.824219 352.644531 513.136719 351.90625 513.519531 C 351.160156 513.902344 349.542969 514.433594 348.304688 514.699219 C 347.0625 514.964844 345.035156 515.902344 343.800781 516.78125 C 342.558594 517.660156 339.863281 519.03125 337.796875 519.828125 C 333.691406 521.410156 330.75 522.992188 328.25 524.957031 C 327.359375 525.660156 325.171875 526.894531 323.390625 527.699219 C 321.613281 528.503906 319.234375 529.972656 318.105469 530.96875 C 316.980469 531.960938 315.09375 533.066406 313.917969 533.421875 C 310.46875 534.464844 305.527344 536.855469 305.234375 537.617188 C 305.085938 538.007812 303.589844 539.421875 301.910156 540.765625 C 300.230469 542.109375 297.902344 543.980469 296.738281 544.929688 C 295.570312 545.878906 293.460938 547.273438 292.042969 548.023438 C 290.625 548.777344 289.199219 549.710938 288.875 550.097656 C 288.554688 550.488281 286.746094 551.765625 284.863281 552.941406 C 282.207031 554.597656 281.167969 555.570312 280.246094 557.265625 C 279.558594 558.53125 277.972656 560.289062 276.480469 561.441406 C 275.066406 562.539062 273.558594 564.070312 273.132812 564.851562 C 271.371094 568.070312 270.359375 569.160156 267.578125 570.828125 C 265.972656 571.792969 263.871094 572.71875 262.90625 572.882812 C 261.941406 573.042969 259.941406 574 258.460938 575.003906 C 256.097656 576.609375 255.4375 576.832031 253.105469 576.832031 C 251.636719 576.832031 249.554688 577.144531 248.46875 577.527344 C 244.640625 578.878906 236.214844 578.082031 232.722656 576.039062 C 231.570312 575.355469 229.253906 574.132812 227.59375 573.3125 C 225.933594 572.492188 224.160156 571.363281 223.652344 570.796875 C 223.140625 570.234375 221.550781 568.949219 220.113281 567.941406 C 217.515625 566.117188 215.3125 563.746094 214.15625 561.527344 C 213.820312 560.886719 212.769531 559.515625 211.824219 558.472656 C 210.875 557.429688 209.832031 555.789062 209.515625 554.820312 C 209.195312 553.855469 208.316406 551.890625 207.5625 550.453125 C 206.480469 548.414062 206.246094 547.488281 206.480469 546.21875 C 206.640625 545.328125 206.917969 542.09375 207.109375 539.03125 C 207.386719 534.398438 207.664062 533.007812 208.710938 530.742188 C 209.414062 529.242188 209.984375 527.574219 209.984375 527.03125 C 209.984375 523.613281 212.601562 519.632812 215.207031 519.058594 C 216.894531 518.6875 219.632812 515.953125 222.839844 511.433594 C 225.792969 507.273438 227.976562 505.027344 230.15625 503.910156 C 231.179688 503.386719 233.160156 501.78125 234.5625 500.339844 C 235.96875 498.902344 238.15625 496.761719 239.433594 495.589844 C 240.703125 494.414062 242.386719 492.542969 243.164062 491.429688 C 243.9375 490.3125 245.261719 488.984375 246.097656 488.472656 C 249.1875 486.597656 252.402344 483.765625 254.496094 481.070312 C 255.960938 479.1875 257.398438 477.929688 259.011719 477.128906 C 260.3125 476.480469 261.765625 475.609375 262.234375 475.191406 C 262.703125 474.777344 263.941406 474.003906 264.988281 473.480469 C 266.042969 472.953125 267.234375 471.996094 267.660156 471.347656 C 268.59375 469.929688 270.367188 468.957031 272.84375 468.507812 C 274.175781 468.265625 275.414062 467.484375 277.34375 465.660156 C 278.894531 464.191406 281.253906 462.574219 283.011719 461.78125 C 284.683594 461.023438 286.453125 459.824219 287.003906 459.085938 C 288.15625 457.515625 290.734375 456.015625 293 455.59375 C 293.890625 455.425781 295.382812 454.78125 296.324219 454.15625 C 297.257812 453.535156 298.589844 452.886719 299.261719 452.71875 C 299.9375 452.546875 301.476562 451.730469 302.679688 450.902344 C 307.085938 447.875 314.976562 444.011719 317.457031 443.667969 C 318.789062 443.484375 320.507812 442.886719 321.273438 442.339844 C 322.03125 441.796875 323.765625 441.160156 325.113281 440.929688 C 326.457031 440.699219 328.589844 439.980469 329.84375 439.328125 C 331.097656 438.679688 332.4375 438.148438 332.820312 438.148438 C 333.203125 438.148438 334.859375 437.492188 336.496094 436.695312 C 339.277344 435.339844 339.703125 435.261719 342.832031 435.546875 C 345.710938 435.808594 346.351562 435.726562 347.3125 434.976562 C 349.414062 433.339844 351.398438 432.582031 353.628906 432.566406 C 355.164062 432.554688 356.429688 432.195312 357.710938 431.410156 C 359.054688 430.582031 360.230469 430.265625 361.976562 430.265625 C 363.664062 430.261719 365.050781 429.90625 366.601562 429.082031 C 368.566406 428.039062 369.160156 427.941406 371.859375 428.207031 C 374.960938 428.511719 378.039062 427.84375 382.722656 425.855469 C 383.949219 425.332031 385.238281 425.160156 386.664062 425.328125 C 394.160156 426.195312 394.558594 426.199219 396.523438 425.414062 C 397.660156 424.957031 399.5 424.667969 400.9375 424.722656 C 404.554688 424.855469 406.699219 424.8125 413.140625 424.453125 C 416.328125 424.273438 419.25 424.144531 419.632812 424.167969 C 420.011719 424.179688 422.523438 424.339844 425.199219 424.507812 C 428.15625 424.6875 430.761719 424.609375 431.828125 424.320312 C 433.011719 423.992188 435.4375 423.972656 439.25 424.261719 C 444.230469 424.636719 445.265625 424.867188 447.851562 426.175781 C 449.917969 427.222656 451.496094 427.679688 453.183594 427.722656 C 458 427.855469 464.753906 429.058594 471.351562 430.96875 C 472.621094 431.339844 475.445312 431.761719 477.613281 431.90625 C 483.625 432.308594 484.277344 432.480469 486.246094 434.164062 C 488.199219 435.835938 492.496094 437.226562 495.714844 437.226562 C 499.003906 437.226562 502.023438 438.148438 503.882812 439.722656 C 506.148438 441.640625 509.761719 443.574219 512.191406 444.171875 C 513.230469 444.425781 514.914062 445.355469 515.945312 446.234375 C 516.980469 447.117188 518.949219 448.34375 520.328125 448.960938 C 521.699219 449.574219 524.085938 451.023438 525.617188 452.179688 C 528.980469 454.722656 533.519531 456.707031 535.96875 456.707031 C 537.152344 456.707031 538.316406 457.101562 539.347656 457.847656 C 540.210938 458.480469 541.445312 459.355469 542.082031 459.800781 C 542.726562 460.242188 545.195312 462.179688 547.585938 464.105469 C 549.976562 466.03125 553.628906 468.648438 555.703125 469.925781 C 559.066406 471.992188 559.632812 472.546875 560.902344 475.027344 C 561.6875 476.558594 562.621094 477.847656 562.988281 477.894531 C 566.691406 478.371094 567.265625 478.660156 570.875 481.890625 C 573.109375 483.890625 575.058594 486.105469 575.730469 487.40625 C 576.519531 488.933594 577.757812 490.226562 579.886719 491.742188 C 581.695312 493.03125 583.382812 494.703125 584.078125 495.890625 C 584.722656 496.984375 586.054688 498.414062 587.042969 499.070312 C 588.238281 499.867188 589.234375 501.097656 590.035156 502.789062 C 590.753906 504.292969 591.992188 505.917969 593.109375 506.804688 C 595.445312 508.652344 596.503906 510.640625 596.464844 513.113281 C 596.464844 514.808594 596.65625 515.210938 598.402344 516.664062 C 600.746094 518.625 604.011719 523.863281 604.632812 526.664062 C 604.882812 527.769531 605.144531 528.726562 605.234375 528.792969 C 605.378906 528.867188 606.285156 529.414062 607.394531 530.023438 C 609.042969 530.929688 609.675781 531.703125 610.972656 534.402344 C 611.835938 536.203125 612.800781 539.15625 613.113281 540.960938 C 613.652344 544.117188 613.625 544.390625 612.367188 547.828125 C 611.332031 550.683594 611.082031 552.101562 611.140625 554.820312 C 611.289062 559.042969 610.511719 560.914062 607.964844 562.960938 C 606.648438 564.015625 605.527344 565.574219 604.449219 567.84375 C 602.699219 571.539062 601.257812 572.945312 598.75 573.417969 C 597.832031 573.589844 595.949219 574.246094 594.570312 574.878906 C 592.53125 575.8125 591.59375 575.980469 589.578125 575.773438 C 587.566406 575.5625 586.886719 575.683594 585.953125 576.421875 C 583.816406 578.101562 580.304688 579.195312 579.53125 578.421875 Z M 247.683594 556.433594 C 247.886719 556.25 246.953125 555.015625 245.597656 553.691406 C 242.953125 551.109375 242.890625 551.09375 238.863281 552.308594 C 237.183594 552.816406 236.550781 552.78125 234.300781 552.074219 C 232.871094 551.621094 231.566406 551.375 231.414062 551.523438 C 231.269531 551.675781 231.851562 552.539062 232.730469 553.445312 C 234.75 555.535156 237.945312 556.980469 239.847656 556.667969 C 240.636719 556.535156 242.007812 556.609375 242.902344 556.824219 C 244.566406 557.230469 247.015625 557.027344 247.679688 556.433594 Z M 565.011719 547.554688 C 565.683594 546.757812 566.152344 545.871094 566.0625 545.582031 C 565.84375 544.917969 561.554688 544.671875 560.632812 545.269531 C 560.019531 545.664062 560.046875 545.925781 560.824219 547.363281 C 561.949219 549.460938 563.359375 549.523438 565.015625 547.554688 Z M 582.160156 527.851562 C 583.167969 527.460938 583.078125 526.632812 581.851562 525.09375 C 581.28125 524.375 580.390625 522.953125 579.878906 521.929688 C 578.335938 518.84375 577.613281 518.742188 575.21875 521.261719 C 573.207031 523.382812 572.515625 525.347656 573.773438 525.347656 C 574.125 525.347656 575.34375 525.847656 576.492188 526.460938 C 579.375 527.992188 580.839844 528.351562 582.152344 527.847656 Z M 250.648438 517.941406 C 251.464844 517.199219 253.519531 514.753906 255.21875 512.507812 C 256.917969 510.257812 260.078125 506.820312 262.246094 504.871094 C 264.414062 502.917969 266.605469 500.621094 267.113281 499.769531 C 267.625 498.914062 268.835938 497.378906 269.816406 496.359375 C 273.914062 492.082031 275.097656 490.5 274.480469 490.117188 C 274.144531 489.914062 273.488281 489.847656 273.019531 489.972656 C 272.214844 490.179688 269.617188 493.265625 267.730469 496.238281 C 267.203125 497.070312 265.257812 498.320312 262.070312 499.875 C 257.03125 502.339844 256.808594 502.566406 255.894531 506.195312 C 255.515625 507.730469 254.753906 508.722656 252.371094 510.828125 C 249.003906 513.800781 247.542969 515.839844 247.542969 517.554688 C 247.542969 519.738281 248.535156 519.863281 250.648438 517.945312 Z M 493.597656 497.0625 C 495.046875 494.761719 495.058594 494.273438 493.597656 494.273438 C 492.167969 494.273438 486.726562 495.632812 486.210938 496.125 C 485.566406 496.730469 489.226562 498.910156 490.878906 498.910156 C 492.136719 498.910156 492.585938 498.597656 493.554688 497.0625 Z M 453.148438 486.269531 C 453.296875 485.441406 453.296875 484.597656 453.003906 484.390625 C 452.8125 484.1875 451.660156 484.273438 450.425781 484.582031 L 448.195312 485.144531 L 449.667969 486.460938 C 451.675781 488.257812 452.8125 488.195312 453.113281 486.273438 Z M 541.890625 485.382812 C 542.082031 485.070312 541.671875 484.363281 540.898438 483.707031 L 539.582031 482.570312 L 539.1875 483.636719 C 538.96875 484.222656 538.898438 484.976562 539.027344 485.3125 C 539.320312 486.066406 541.433594 486.117188 541.890625 485.382812 Z M 520.273438 473.660156 C 526.050781 473.105469 526.066406 473.101562 524.449219 472.398438 C 523.558594 472.011719 522.292969 471.5625 521.640625 471.402344 C 520.984375 471.238281 519.527344 470.480469 518.394531 469.710938 C 515.867188 467.996094 515.277344 467.960938 514.695312 469.488281 C 514.449219 470.140625 513.71875 471.363281 513.085938 472.199219 C 511.53125 474.238281 511.566406 474.984375 513.230469 474.554688 C 513.933594 474.367188 517.117188 473.96875 520.304688 473.660156 Z M 381.402344 458.183594 C 382.398438 457.46875 385.289062 456.066406 387.824219 455.066406 C 390.652344 453.953125 393.210938 452.578125 394.445312 451.511719 C 395.554688 450.554688 397.335938 449.539062 398.414062 449.25 C 399.496094 448.964844 400.695312 448.445312 401.085938 448.09375 C 401.480469 447.746094 402.777344 447.027344 403.96875 446.5 C 405.164062 445.972656 406.25 445.355469 406.394531 445.125 C 406.539062 444.898438 405.445312 444.488281 403.976562 444.210938 C 402.503906 443.9375 400.300781 443.484375 399.078125 443.203125 C 395.542969 442.386719 393.824219 442.960938 390.8125 445.957031 C 389.351562 447.402344 387.40625 449.1875 386.476562 449.925781 C 385.542969 450.667969 384.390625 452.050781 383.902344 453 C 383.421875 453.949219 382.332031 455.269531 381.496094 455.929688 C 378.984375 457.902344 378.34375 458.53125 378.34375 459.019531 C 378.34375 459.847656 379.554688 459.515625 381.402344 458.183594 Z M 352.15625 453.421875 C 352.578125 452.730469 352.15625 452.355469 351.191406 452.695312 C 350.78125 452.855469 350.578125 453.195312 350.738281 453.449219 C 351.117188 454.058594 351.761719 454.046875 352.15625 453.421875 Z M 684.933594 505.332031 C 684.292969 505.066406 682.105469 504.765625 680.0625 504.660156 C 674.820312 504.390625 673.65625 504.136719 671.753906 502.847656 C 670.832031 502.21875 668.714844 501.390625 667.050781 501.007812 C 662.960938 500.058594 661.484375 499.214844 660.117188 497.050781 C 659.371094 495.863281 658.507812 495.125 657.683594 494.957031 C 653.699219 494.144531 649.976562 490.699219 645.292969 483.492188 C 643.917969 481.382812 641.851562 478.601562 640.691406 477.3125 C 639.535156 476.019531 638.121094 473.933594 637.566406 472.671875 C 636.472656 470.179688 633.894531 466.738281 632.058594 465.308594 C 630.671875 464.222656 627.578125 461.121094 622.476562 455.671875 C 619.734375 452.742188 618.488281 451.007812 617.945312 449.375 C 617.183594 447.085938 615.816406 445.78125 611.039062 442.777344 C 609.945312 442.089844 608.316406 440.300781 607.050781 438.394531 C 605.210938 435.609375 604.621094 435.066406 602.660156 434.367188 C 599.816406 433.347656 598.332031 431.96875 597.65625 429.714844 C 597.175781 428.117188 596.765625 427.777344 593.300781 426.101562 C 590.007812 424.507812 589.28125 423.933594 588.070312 421.964844 C 587.050781 420.296875 586.289062 419.597656 585.265625 419.375 C 583.226562 418.925781 581.625 417.488281 580.332031 414.933594 C 579.703125 413.699219 578.71875 412.351562 578.144531 411.941406 C 576.050781 410.449219 571.941406 408.015625 569.671875 406.925781 C 568.402344 406.3125 566.617188 404.976562 565.710938 403.957031 C 564.585938 402.699219 563.285156 401.847656 561.613281 401.292969 C 559.828125 400.699219 558.320312 399.667969 556.066406 397.507812 C 554.367188 395.871094 552.558594 394.445312 552.046875 394.335938 C 551.535156 394.21875 550.339844 394.011719 549.382812 393.859375 C 548.140625 393.660156 546.863281 392.851562 544.902344 391.035156 C 543.027344 389.300781 541.4375 388.277344 539.894531 387.820312 C 538.59375 387.433594 537.046875 386.535156 536.257812 385.703125 C 535.5 384.910156 534.15625 383.851562 533.261719 383.355469 C 532.371094 382.859375 530.964844 381.960938 530.140625 381.363281 C 529.324219 380.765625 527.859375 380.132812 526.894531 379.957031 C 525.929688 379.78125 524.058594 379.027344 522.726562 378.285156 C 521.398438 377.542969 519.308594 376.714844 518.089844 376.445312 C 515.019531 375.769531 508.5 372.539062 505.433594 370.175781 C 501.941406 367.484375 500.265625 366.71875 497.875 366.71875 C 494.914062 366.71875 492.039062 365.714844 488.917969 363.597656 C 486.363281 361.863281 485.8125 361.6875 481.074219 361.140625 C 474.253906 360.351562 469.15625 359.136719 466.757812 357.726562 C 465.632812 357.070312 463.089844 356.265625 460.871094 355.863281 C 458.722656 355.472656 455.8125 354.914062 454.410156 354.617188 C 453.007812 354.320312 450.65625 354.105469 449.183594 354.136719 C 447.5625 354.179688 445.824219 353.894531 444.777344 353.425781 C 443.828125 353 441.691406 352.613281 440.03125 352.566406 C 438.375 352.523438 435.453125 352.222656 433.539062 351.910156 C 431.625 351.59375 429.167969 351.355469 428.082031 351.378906 C 427.003906 351.410156 425.351562 351.105469 424.429688 350.71875 C 423.511719 350.335938 422.039062 350.019531 421.164062 350.019531 C 420.285156 350.019531 418.652344 349.789062 417.527344 349.507812 C 415.871094 349.089844 415.078125 349.132812 413.296875 349.738281 C 410.328125 350.75 408.996094 350.679688 406.542969 349.375 C 404.683594 348.386719 404.183594 348.3125 401.953125 348.699219 C 400.578125 348.9375 398.660156 349.4375 397.699219 349.808594 C 395.425781 350.6875 393.191406 350.664062 390.882812 349.734375 C 389.304688 349.105469 388.460938 349.070312 385.234375 349.503906 C 383.148438 349.785156 380.441406 350.015625 379.222656 350.015625 C 377.714844 350.015625 376.285156 350.398438 374.773438 351.21875 C 372.796875 352.28125 372.191406 352.386719 369.464844 352.144531 C 367.257812 351.949219 365.917969 352.074219 364.726562 352.566406 C 363.777344 352.964844 361.644531 353.261719 359.753906 353.261719 C 356.355469 353.261719 352.039062 354.054688 346.90625 355.621094 C 345.308594 356.109375 343.066406 356.507812 341.929688 356.507812 C 340.789062 356.507812 338.554688 356.902344 336.953125 357.382812 C 332.5625 358.699219 327.722656 359.765625 326.128906 359.761719 C 325.164062 359.757812 324.292969 360.191406 323.394531 361.128906 C 321.527344 363.078125 318.308594 364.464844 314.730469 364.863281 C 312.378906 365.121094 311.003906 365.601562 308.921875 366.886719 C 307.421875 367.8125 305.746094 368.570312 305.195312 368.570312 C 304.640625 368.570312 302.777344 369.308594 301.050781 370.207031 C 299.296875 371.121094 296.667969 372.042969 295.101562 372.289062 C 289.261719 373.214844 288.265625 373.539062 287.15625 374.894531 C 286.558594 375.625 286.058594 376.363281 286.058594 376.53125 C 286.058594 377.171875 282.933594 378.71875 280.34375 379.390625 C 278.621094 379.835938 277.046875 380.640625 275.9375 381.644531 C 274.988281 382.503906 272.851562 383.679688 271.195312 384.257812 C 269.539062 384.835938 266.242188 386.074219 263.871094 387.003906 C 260.046875 388.507812 259.441406 388.910156 258.535156 390.523438 C 257.164062 392.960938 250.988281 397.007812 245.496094 399.058594 C 241.777344 400.449219 240.902344 401.011719 238.035156 403.839844 C 235.84375 406.003906 234.109375 407.277344 232.703125 407.765625 C 231.027344 408.34375 229.75 409.453125 226.210938 413.398438 C 223.128906 416.835938 221.207031 418.570312 219.832031 419.167969 C 218.574219 419.710938 215.765625 422.097656 212.113281 425.71875 C 208.949219 428.855469 204.550781 433.070312 202.328125 435.089844 C 200.109375 437.109375 197.464844 439.882812 196.453125 441.253906 C 195.445312 442.621094 193.070312 444.886719 191.179688 446.28125 C 189.289062 447.679688 187.375 449.382812 186.917969 450.070312 C 186.464844 450.757812 184.730469 452.71875 183.074219 454.429688 C 179.722656 457.890625 177.945312 460.0625 177.039062 461.800781 C 176.703125 462.4375 175.566406 464.003906 174.507812 465.277344 C 173.441406 466.554688 171.589844 469.003906 170.378906 470.726562 C 169.066406 472.589844 167.445312 474.28125 166.355469 474.902344 C 165.082031 475.625 164.363281 476.445312 163.996094 477.570312 C 163.703125 478.460938 162.296875 480.460938 160.863281 482.015625 C 159.433594 483.566406 157.710938 485.777344 157.042969 486.929688 C 155.113281 490.257812 153.09375 491.515625 148.90625 491.984375 C 146.050781 492.304688 145.011719 492.648438 143.683594 493.703125 C 140.871094 495.9375 141.285156 495.828125 131.519531 496.875 C 128.570312 497.191406 126.074219 496.5625 123.933594 494.972656 C 123.085938 494.34375 121.609375 493.851562 120.15625 493.710938 C 118.84375 493.582031 116.9375 493.050781 115.914062 492.515625 C 114.890625 491.984375 112.972656 491.226562 111.648438 490.832031 C 108.066406 489.769531 106.339844 488.503906 105.101562 486.035156 C 104.488281 484.824219 103.332031 483.101562 102.523438 482.207031 C 101.722656 481.316406 100.066406 479.125 98.859375 477.34375 C 96.277344 473.542969 95.929688 471.828125 95.597656 461.300781 C 95.394531 454.59375 95.394531 454.527344 96.621094 452.730469 C 97.425781 451.550781 97.964844 449.941406 98.199219 448.125 C 98.609375 444.898438 99.558594 442.382812 100.742188 441.398438 C 101.195312 441.015625 101.96875 439.785156 102.449219 438.664062 C 102.929688 437.539062 104.421875 435.429688 105.765625 433.980469 C 107.171875 432.46875 108.445312 430.554688 108.757812 429.503906 C 109.066406 428.496094 109.941406 427.058594 110.730469 426.308594 C 111.589844 425.488281 112.433594 423.972656 112.863281 422.488281 C 113.289062 421.015625 114.3125 419.171875 115.414062 417.90625 C 116.421875 416.738281 117.742188 414.808594 118.347656 413.609375 C 119.519531 411.316406 122.542969 408.296875 125.019531 406.972656 C 126.230469 406.320312 126.492188 405.902344 126.492188 404.605469 C 126.492188 402.203125 128.191406 400.066406 131.289062 398.566406 C 133.632812 397.429688 134.121094 396.960938 134.902344 395.085938 C 136.601562 391.003906 137.242188 390.023438 139.171875 388.578125 C 143.34375 385.441406 145.234375 383.753906 146.449219 382.074219 C 147.152344 381.109375 148.527344 379.941406 149.515625 379.476562 C 152.472656 378.082031 154.324219 376.417969 155.496094 374.101562 C 156.125 372.867188 157.285156 371.492188 158.15625 370.953125 C 159.003906 370.425781 160.382812 368.953125 161.207031 367.683594 C 163.117188 364.730469 166.484375 361.761719 168.382812 361.351562 C 169.65625 361.074219 171.640625 359.695312 174.265625 357.257812 C 174.648438 356.902344 175.640625 355.769531 176.464844 354.742188 C 177.28125 353.714844 178.789062 352.386719 179.792969 351.792969 C 180.800781 351.199219 183.15625 349.523438 185.035156 348.078125 C 189.828125 344.378906 192.789062 342.285156 194.675781 341.257812 C 195.566406 340.769531 196.6875 339.941406 197.164062 339.414062 C 197.648438 338.886719 200.226562 337.144531 202.90625 335.546875 C 205.585938 333.945312 208.300781 331.957031 208.933594 331.125 C 210.21875 329.441406 216.804688 325.894531 218.644531 325.894531 C 220.359375 325.894531 221.574219 325.125 224.128906 322.421875 C 225.863281 320.589844 226.980469 319.828125 228.535156 319.433594 C 232.824219 318.339844 241.222656 314.25 243.375 312.207031 C 245.914062 309.796875 247.933594 308.734375 249.964844 308.734375 C 250.8125 308.734375 252.914062 308.4375 254.640625 308.074219 C 257.25 307.53125 258.089844 307.109375 259.523438 305.632812 C 261.246094 303.859375 267.402344 300.847656 269.3125 300.847656 C 270.203125 300.847656 276.527344 298.625 279.324219 297.332031 C 280.082031 296.976562 281.304688 296.214844 282.023438 295.636719 C 283.148438 294.738281 283.914062 294.582031 287.359375 294.539062 C 292.625 294.480469 293.792969 294.132812 296.042969 291.972656 C 298.023438 290.074219 300.042969 289.253906 302.742188 289.253906 C 303.632812 289.253906 305.492188 288.828125 306.863281 288.304688 C 308.238281 287.785156 310.78125 287.179688 312.523438 286.960938 C 314.621094 286.695312 316.210938 286.191406 317.222656 285.472656 C 318.59375 284.496094 319.25 284.382812 323.621094 284.382812 C 326.78125 284.382812 328.863281 284.167969 329.554688 283.777344 C 330.136719 283.441406 332.386719 282.859375 334.554688 282.480469 C 336.71875 282.101562 340.242188 281.175781 342.382812 280.421875 C 345.414062 279.351562 347.070312 279.046875 349.878906 279.046875 C 351.859375 279.046875 354.683594 278.800781 356.148438 278.496094 C 358.179688 278.078125 359.5 278.074219 361.683594 278.484375 C 364.117188 278.933594 364.804688 278.902344 366.234375 278.269531 C 368.769531 277.136719 373.710938 276.609375 380.671875 276.714844 C 384.753906 276.773438 387.417969 276.613281 388.324219 276.242188 C 389.085938 275.929688 391.59375 275.617188 393.890625 275.550781 C 396.1875 275.476562 399.140625 275.28125 400.453125 275.097656 C 402.191406 274.855469 403.484375 274.980469 405.226562 275.5625 C 407.347656 276.265625 412.640625 276.804688 416.617188 276.722656 C 422.089844 276.605469 428.382812 276.328125 431.925781 276.042969 C 434.792969 275.808594 436.972656 275.890625 438.882812 276.300781 C 440.414062 276.632812 443.441406 276.929688 445.609375 276.964844 C 448.929688 277.023438 449.925781 277.230469 451.925781 278.292969 C 454.167969 279.480469 454.601562 279.542969 459.582031 279.417969 C 465.234375 279.273438 468.515625 279.875 474.28125 282.109375 C 475.894531 282.734375 478.816406 283.457031 480.773438 283.71875 C 482.960938 284.011719 485.4375 284.726562 487.179688 285.566406 C 488.984375 286.4375 490.757812 286.941406 492.050781 286.945312 C 493.160156 286.945312 495.402344 287.363281 497.019531 287.871094 C 498.636719 288.378906 500.722656 288.796875 501.660156 288.796875 C 503.621094 288.804688 508.285156 290.1875 510.972656 291.558594 C 512.054688 292.109375 513.75 292.507812 515.050781 292.515625 C 518.371094 292.527344 520.855469 293.238281 525.554688 295.5 C 530.078125 297.679688 532.378906 298.40625 536.640625 299.011719 C 538.554688 299.285156 539.941406 299.84375 541.511719 300.980469 C 545.460938 303.839844 547.832031 304.957031 551.128906 305.519531 C 555.558594 306.277344 562.34375 309.882812 570.457031 315.792969 C 571.753906 316.738281 574.199219 317.96875 575.890625 318.523438 C 579.789062 319.808594 584.003906 321.910156 586.179688 323.660156 C 587.117188 324.410156 588.84375 325.316406 590.03125 325.671875 C 591.214844 326.027344 592.898438 326.863281 593.769531 327.527344 C 594.648438 328.191406 596.152344 328.953125 597.128906 329.21875 C 598.195312 329.511719 599.648438 330.484375 600.761719 331.648438 C 602.820312 333.804688 606.59375 336.402344 610.347656 338.25 C 614.957031 340.511719 617.167969 342.171875 618.527344 344.375 C 619.636719 346.1875 620.207031 346.632812 621.992188 347.109375 C 624.675781 347.828125 627.027344 349.871094 628.953125 353.148438 C 630.238281 355.335938 630.78125 355.820312 632.851562 356.589844 C 634.359375 357.148438 636.117188 358.339844 637.566406 359.78125 C 638.835938 361.042969 640.152344 362.078125 640.484375 362.078125 C 640.820312 362.078125 643.085938 364.113281 645.515625 366.601562 C 650.042969 371.230469 654.464844 375.359375 658.152344 378.40625 C 659.558594 379.5625 660.558594 380.921875 661.234375 382.585938 C 662.070312 384.625 662.609375 385.242188 664.355469 386.175781 C 665.523438 386.792969 667.019531 388.042969 667.683594 388.949219 C 668.34375 389.859375 669.738281 391.445312 670.773438 392.476562 C 674.566406 396.253906 677.984375 400.535156 679.140625 402.960938 C 680.46875 405.734375 682.75 409.210938 684.941406 411.796875 C 685.746094 412.738281 686.921875 414.875 687.566406 416.546875 C 688.574219 419.167969 689.269531 420.0625 692.597656 423.085938 C 695.914062 426.09375 696.632812 427.027344 697.703125 429.699219 C 698.445312 431.574219 699.757812 433.675781 700.988281 434.996094 C 702.117188 436.195312 703.035156 437.464844 703.035156 437.816406 C 703.035156 438.734375 706.542969 445.265625 708.828125 448.605469 C 710.429688 450.941406 710.820312 451.949219 711.03125 454.257812 C 711.277344 457.035156 711.90625 458.460938 715.210938 463.765625 C 716.378906 465.65625 716.539062 466.277344 716.320312 468.171875 C 716.171875 469.386719 715.851562 472.574219 715.601562 475.253906 C 715.355469 477.929688 714.828125 481.035156 714.433594 482.152344 C 714.039062 483.269531 713.71875 484.859375 713.71875 485.683594 C 713.71875 487.835938 710.773438 493.425781 708.234375 496.097656 C 705.332031 499.148438 699.535156 502.15625 696.558594 502.15625 C 694.867188 502.15625 694.167969 502.398438 693.332031 503.289062 C 691.160156 505.601562 687.683594 506.449219 684.960938 505.328125 Z M 137.730469 476.105469 C 138.167969 475.875 138.535156 475.34375 138.535156 474.925781 C 138.535156 474.152344 137.265625 472.472656 136.675781 472.472656 C 136.5 472.472656 135.699219 473.523438 134.898438 474.8125 L 133.4375 477.148438 L 135.171875 476.835938 C 136.121094 476.664062 137.269531 476.335938 137.714844 476.105469 Z M 686.296875 450.242188 C 685.230469 447.746094 684.429688 447.363281 683 448.65625 C 681.699219 449.832031 681.949219 450.398438 684.585938 452.246094 C 687.460938 454.265625 687.835938 453.824219 686.296875 450.242188 Z M 637.160156 439.167969 C 637.160156 438.964844 638.210938 437.609375 639.511719 436.160156 C 641.65625 433.753906 642.074219 432.582031 640.796875 432.582031 C 640.535156 432.582031 639.335938 432.097656 638.15625 431.503906 C 636.972656 430.910156 634.960938 430.175781 633.683594 429.875 C 632.414062 429.570312 630.097656 428.664062 628.550781 427.855469 C 626.777344 426.933594 625.429688 426.503906 624.910156 426.703125 C 624.164062 426.992188 624.210938 427.171875 625.40625 428.605469 C 626.136719 429.476562 627.875 431.59375 629.277344 433.308594 C 633.503906 438.46875 634.648438 439.539062 635.957031 439.539062 C 636.613281 439.539062 637.167969 439.371094 637.167969 439.167969 Z M 144.519531 421.890625 C 145.367188 418.546875 146.652344 416.46875 149 414.675781 C 150.953125 413.1875 153.261719 409.5 154.179688 406.414062 C 154.867188 404.089844 156.820312 400.84375 158.214844 399.683594 C 158.625 399.347656 158.945312 398.554688 158.945312 397.917969 C 158.945312 396.894531 158.796875 396.800781 157.675781 397.078125 C 156.972656 397.25 155.519531 398.25 154.445312 399.296875 C 152.910156 400.789062 152.375 401.738281 151.976562 403.667969 C 151.597656 405.53125 150.984375 406.652344 149.492188 408.253906 C 148.410156 409.417969 146.8125 411.5625 145.949219 413.011719 C 145.085938 414.464844 143.683594 416.445312 142.832031 417.417969 C 141.941406 418.425781 141.367188 419.519531 141.488281 419.96875 C 141.632812 420.402344 141.953125 421.753906 142.273438 422.972656 C 142.597656 424.195312 143.0625 425.125 143.3125 425.042969 C 143.5625 424.953125 144.117188 423.539062 144.527344 421.890625 Z M 202.851562 407.324219 C 204.152344 404.886719 204.417969 403.355469 203.539062 403.363281 C 203.375 403.367188 202.75 404.21875 202.164062 405.261719 C 201.550781 406.328125 200.199219 407.691406 199.054688 408.386719 C 195.617188 410.476562 195.71875 412.160156 199.199219 410.875 C 201.101562 410.171875 201.574219 409.714844 202.84375 407.324219 Z M 604.148438 404.75 C 605.257812 403.753906 606.023438 402.714844 605.863281 402.453125 C 605.699219 402.183594 604.621094 401.96875 603.457031 401.96875 C 601.386719 401.96875 594.507812 399.925781 591.570312 398.4375 L 590.082031 397.683594 L 591.46875 399.195312 C 595.589844 403.679688 599.460938 406.617188 601.207031 406.585938 C 601.71875 406.578125 603.039062 405.75 604.144531 404.75 Z M 604.296875 359.792969 C 604.296875 359.210938 602 357.441406 601.246094 357.441406 C 600.910156 357.441406 599.398438 356.292969 597.882812 354.890625 C 596.367188 353.488281 594.839844 352.339844 594.484375 352.339844 C 593.652344 352.339844 592.351562 357.558594 593.125 357.8125 C 593.402344 357.898438 594.527344 358.472656 595.605469 359.070312 C 597.136719 359.910156 598.328125 360.164062 600.941406 360.1875 C 602.789062 360.203125 604.304688 360.03125 604.304688 359.792969 Z M 288.597656 353.234375 C 290.042969 352.089844 290.238281 350.484375 288.917969 350.484375 C 287.96875 350.484375 286.101562 352.515625 286.101562 353.5625 C 286.101562 354.480469 287.183594 354.335938 288.59375 353.234375 Z M 471.890625 337.929688 C 472.332031 337.222656 472.039062 337.03125 470.8125 337.335938 C 470.253906 337.484375 469.90625 337.789062 470.050781 338.015625 C 470.402344 338.582031 471.519531 338.53125 471.890625 337.925781 Z M 418.125 330.867188 C 418.417969 330.574219 416.382812 329.613281 415.46875 329.613281 C 415.222656 329.613281 414.113281 328.675781 412.996094 327.53125 L 410.972656 325.449219 L 408.375 326.59375 C 405.679688 327.789062 405.015625 328.683594 406.820312 328.683594 C 407.390625 328.6875 409.105469 329.304688 410.628906 330.0625 C 412.761719 331.125 413.898438 331.410156 415.609375 331.304688 C 416.820312 331.230469 417.964844 331.03125 418.128906 330.867188 Z M 255.03125 330.539062 C 255.03125 330.285156 254.886719 330.078125 254.828125 330.078125 C 254.679688 330.078125 254.492188 330.285156 254.332031 330.539062 C 254.171875 330.796875 254.332031 331.003906 254.535156 331.003906 C 254.796875 331.003906 255.03125 330.796875 255.03125 330.539062 Z M 544.078125 327.292969 C 545.070312 327.292969 546.632812 327.605469 547.550781 327.988281 C 548.46875 328.371094 549.730469 328.683594 550.355469 328.683594 C 553.945312 328.683594 547.050781 324.585938 542.792969 324.1875 C 540.074219 323.933594 539.910156 323.976562 539.574219 325.023438 C 539.386719 325.632812 538.480469 326.816406 537.558594 327.65625 C 536.242188 328.867188 536.027344 329.269531 536.550781 329.589844 C 536.988281 329.859375 538.054688 329.546875 539.742188 328.644531 C 541.292969 327.816406 542.976562 327.292969 544.082031 327.292969 Z M 295.574219 320.652344 C 298.292969 317.996094 300.304688 316.585938 304.863281 314.136719 C 310.480469 311.121094 311.933594 309.902344 313.460938 306.945312 C 314.089844 305.726562 313.945312 305.769531 311.464844 307.480469 C 310.75 307.980469 308.761719 308.902344 307.058594 309.53125 C 305.359375 310.15625 303.234375 310.957031 302.34375 311.308594 C 301.453125 311.65625 300.058594 311.953125 299.246094 311.964844 C 297.960938 311.980469 297.59375 312.300781 296.382812 314.421875 C 295.621094 315.761719 294.851562 317.429688 294.675781 318.128906 C 294.5 318.824219 293.550781 320.285156 292.554688 321.375 C 291.5625 322.460938 290.746094 323.507812 290.746094 323.699219 C 290.746094 324.761719 292.503906 323.652344 295.574219 320.652344 Z M 350.632812 313.890625 C 352.265625 313.148438 354.015625 312.082031 354.523438 311.515625 C 355.898438 309.980469 362.074219 307.234375 364.726562 306.976562 C 366.484375 306.804688 367.484375 306.375 368.855469 305.207031 C 369.847656 304.359375 371.414062 303.421875 372.332031 303.125 C 374.652344 302.371094 378.457031 300.449219 379.570312 299.46875 C 380.082031 299.015625 381.109375 298.335938 381.859375 297.953125 L 383.21875 297.257812 L 379.769531 296.671875 C 377.148438 296.226562 375.703125 296.210938 373.765625 296.597656 C 372.132812 296.925781 370.566406 296.964844 369.417969 296.699219 C 368.289062 296.441406 367.160156 296.460938 366.402344 296.757812 C 365.730469 297.015625 363.414062 297.511719 361.25 297.867188 C 356.6875 298.609375 356.144531 299.089844 356.144531 302.386719 C 356.144531 306.351562 354.558594 308.523438 350.691406 309.863281 C 349.347656 310.324219 348.839844 310.886719 347.980469 312.835938 C 347.394531 314.160156 347.089844 315.242188 347.292969 315.242188 C 347.496094 315.242188 349 314.636719 350.628906 313.894531 Z M 497.28125 312.839844 C 499.476562 312.082031 501.304688 311.835938 504.917969 311.816406 C 507.53125 311.804688 509.511719 311.640625 509.324219 311.457031 C 509.132812 311.273438 507.539062 310.789062 505.777344 310.386719 C 504.015625 309.980469 501.640625 309.234375 500.5 308.730469 C 499.363281 308.226562 497.566406 307.8125 496.511719 307.8125 C 494.65625 307.808594 492.953125 307.109375 490.457031 305.3125 C 489.78125 304.832031 489.140625 304.542969 489.007812 304.667969 C 488.511719 305.160156 493.195312 313.839844 493.957031 313.839844 C 494.203125 313.839844 495.695312 313.390625 497.28125 312.84375 Z M 474.765625 304.035156 C 475.976562 303.746094 477.492188 303.363281 478.125 303.1875 L 479.277344 302.871094 L 477.992188 302.023438 C 476.824219 301.257812 476.410156 301.230469 473.597656 301.753906 C 471.304688 302.179688 470.148438 302.199219 469.1875 301.828125 C 467.078125 301.011719 466.546875 301.183594 466.546875 302.679688 C 466.546875 303.71875 466.796875 304.085938 467.585938 304.242188 C 469.660156 304.640625 472.601562 304.558594 474.769531 304.039062 Z M 427.25 299.042969 C 428.875 298.253906 430.5625 297.605469 431.003906 297.605469 C 431.441406 297.605469 431.675781 297.398438 431.515625 297.144531 C 431.351562 296.886719 430.125 296.679688 428.765625 296.679688 C 427.40625 296.679688 425.011719 296.269531 423.4375 295.765625 C 420.574219 294.847656 417 295 417.230469 296.023438 C 417.230469 296.257812 417.582031 297.179688 417.875 298.070312 C 418.183594 298.964844 418.503906 299.984375 418.605469 300.335938 C 418.898438 301.4375 423.859375 300.691406 427.246094 299.042969 Z M 387.765625 296.839844 C 388.789062 295.910156 388.863281 295.289062 387.925781 295.289062 C 386.859375 295.289062 383.511719 296.734375 383.511719 297.195312 C 383.511719 297.917969 386.882812 297.636719 387.765625 296.839844 Z M 434.535156 297.144531 C 434.535156 296.558594 433.585938 296.558594 432.679688 297.144531 C 432.136719 297.492188 432.269531 297.59375 433.261719 297.601562 C 433.964844 297.605469 434.53125 297.398438 434.53125 297.144531 Z M 772.667969 399.796875 C 766.734375 399.457031 762.71875 398.707031 761.089844 397.632812 C 759.195312 396.382812 754.484375 395.710938 753.039062 396.480469 C 752.324219 396.863281 752.03125 396.808594 751.710938 396.234375 C 751.492188 395.832031 749.898438 394.519531 748.183594 393.320312 C 746.472656 392.121094 744.519531 390.636719 743.84375 390.019531 C 743.171875 389.402344 741.613281 388.238281 740.386719 387.433594 C 739.160156 386.625 737.628906 385.097656 736.980469 384.035156 C 736.320312 382.972656 734.5 380.257812 732.914062 378.003906 C 730.273438 374.242188 729.082031 372.824219 723.445312 366.71875 C 722.394531 365.570312 721.015625 363.503906 720.398438 362.125 C 719.667969 360.484375 717.601562 357.800781 714.433594 354.367188 C 711.769531 351.476562 709.589844 348.933594 709.589844 348.710938 C 709.589844 348.488281 708.769531 347.933594 707.765625 347.480469 C 706.082031 346.722656 701.5625 342.300781 694.746094 334.738281 C 693.34375 333.183594 691.128906 331.09375 689.828125 330.097656 C 688.285156 328.921875 687.09375 327.511719 686.414062 326.066406 C 685.171875 323.417969 684.824219 323.121094 680.511719 321.035156 C 678.671875 320.144531 676.796875 318.863281 676.335938 318.1875 C 674.617188 315.667969 670.660156 312.171875 667.46875 310.359375 C 664.886719 308.894531 661.171875 305.734375 660.457031 304.398438 C 660.136719 303.808594 659.304688 302.988281 658.605469 302.574219 C 657.902344 302.15625 656.203125 300.746094 654.832031 299.4375 C 653.457031 298.128906 651.496094 296.628906 650.464844 296.105469 C 649.425781 295.582031 647.964844 294.679688 647.203125 294.097656 C 646.441406 293.519531 644.957031 292.707031 643.917969 292.292969 C 642.878906 291.875 641.253906 290.726562 640.316406 289.738281 C 639.382812 288.746094 638.023438 287.808594 637.304688 287.652344 C 636.589844 287.492188 634.347656 286.015625 632.324219 284.371094 C 630.300781 282.722656 628.273438 281.375 627.8125 281.375 C 626.484375 281.371094 624.59375 280.199219 623.007812 278.398438 C 622.203125 277.484375 621.199219 276.734375 620.785156 276.734375 C 619.355469 276.734375 616.375 274.867188 615.6875 273.539062 C 615.28125 272.746094 614.273438 271.917969 613.1875 271.484375 C 612.195312 271.085938 610.394531 269.914062 609.199219 268.875 C 607.402344 267.324219 606.683594 266.992188 605.078125 266.988281 C 604.011719 266.988281 601.402344 266.570312 599.28125 266.0625 C 597.160156 265.554688 594.53125 265.136719 593.4375 265.136719 C 591.1875 265.136719 588.800781 263.753906 587.828125 261.890625 C 587.492188 261.253906 586.542969 259.539062 585.703125 258.085938 L 584.179688 255.4375 L 578.816406 253.78125 C 575.867188 252.867188 572.828125 251.78125 572.0625 251.367188 C 565.242188 247.667969 559.324219 245.136719 556.523438 244.71875 C 553.503906 244.269531 550.140625 243.117188 549.101562 242.179688 C 548.195312 241.351562 544.707031 240.089844 543.335938 240.089844 C 542.78125 240.089844 541.339844 239.464844 540.132812 238.699219 C 538.773438 237.835938 537.320312 237.308594 536.316406 237.308594 C 534.632812 237.308594 527.523438 234.792969 527.050781 234.03125 C 526.90625 233.792969 525.75 233.597656 524.5 233.597656 C 522.859375 233.597656 521 233.074219 517.917969 231.742188 C 514.960938 230.46875 512.949219 229.890625 511.472656 229.886719 C 510.289062 229.886719 508.574219 229.574219 507.660156 229.191406 C 506.738281 228.808594 505.199219 228.496094 504.222656 228.496094 C 503.242188 228.496094 501.675781 228.101562 500.730469 227.621094 C 498.640625 226.554688 497.777344 226.328125 493.429688 225.710938 C 491.457031 225.433594 489.347656 224.800781 488.378906 224.199219 C 486.675781 223.136719 482.703125 222.550781 475.558594 222.304688 C 473.1875 222.214844 471.847656 221.921875 470.6875 221.207031 C 469.8125 220.667969 467.734375 219.875 466.074219 219.445312 C 463.511719 218.785156 462.703125 218.753906 460.664062 219.242188 C 459.15625 219.601562 457.4375 219.683594 456.027344 219.460938 C 454.800781 219.265625 451.90625 219.078125 449.609375 219.046875 C 447.050781 219.019531 445.007812 218.746094 444.332031 218.359375 C 443.511719 217.898438 440.535156 217.695312 432.964844 217.59375 C 424.480469 217.476562 422.347656 217.3125 420.621094 216.632812 C 417.996094 215.601562 414.480469 215.582031 411.921875 216.589844 C 410.253906 217.246094 409.433594 217.289062 406.589844 216.875 C 404.738281 216.605469 402.289062 216.097656 401.140625 215.746094 C 399.675781 215.296875 398.503906 215.226562 397.199219 215.515625 C 391.726562 216.726562 384.785156 217.328125 379.804688 217.019531 C 379.160156 216.976562 375.933594 217.011719 372.617188 217.09375 C 366.773438 217.238281 362.546875 217.925781 358.699219 219.375 C 357.414062 219.855469 355.917969 219.996094 353.820312 219.820312 C 351.421875 219.621094 350.320312 219.761719 348.488281 220.523438 C 346.289062 221.425781 342.578125 221.949219 336.4375 222.214844 C 334.90625 222.285156 333.066406 222.574219 332.347656 222.867188 C 331.632812 223.160156 330.210938 223.398438 329.191406 223.398438 C 327.980469 223.398438 326.75 223.800781 325.636719 224.558594 C 324.421875 225.382812 323.308594 225.71875 321.777344 225.71875 C 320.59375 225.71875 318.738281 226.03125 317.652344 226.414062 C 316.570312 226.796875 314.332031 227.109375 312.691406 227.109375 C 310.339844 227.109375 309.277344 227.355469 307.730469 228.261719 C 306.648438 228.898438 304.519531 229.609375 303.007812 229.839844 C 301.496094 230.074219 298.796875 230.828125 297.011719 231.515625 C 294.621094 232.441406 292.214844 232.910156 287.875 233.300781 C 282.238281 233.8125 281.921875 233.894531 280.453125 235.285156 C 278.347656 237.28125 277.476562 237.660156 274.089844 238.042969 C 271.648438 238.316406 270.953125 238.601562 269.9375 239.746094 C 268.246094 241.648438 266.539062 242.433594 263.015625 242.929688 C 261.347656 243.167969 259.304688 243.78125 258.472656 244.296875 C 257.636719 244.808594 255.628906 245.511719 254.011719 245.847656 C 252.390625 246.1875 249.925781 247.105469 248.527344 247.886719 C 245.0625 249.832031 241.332031 251.28125 238.636719 251.734375 C 236.894531 252.027344 235.886719 252.582031 234.167969 254.191406 C 232.636719 255.621094 231.390625 256.359375 230.15625 256.5625 C 229.164062 256.726562 227.136719 257.46875 225.632812 258.21875 C 224.128906 258.964844 222.433594 259.574219 221.867188 259.574219 C 221.296875 259.574219 219.191406 260.644531 217.195312 261.949219 C 215.195312 263.253906 212.601562 264.605469 211.425781 264.957031 C 210.257812 265.304688 208.785156 266.132812 208.160156 266.800781 C 207.53125 267.46875 206.195312 268.4375 205.171875 268.957031 C 204.148438 269.472656 202.347656 270.800781 201.164062 271.898438 C 199.625 273.328125 198.234375 274.117188 196.292969 274.652344 C 191.804688 275.898438 191.0625 276.3125 189.722656 278.304688 C 188.804688 279.671875 187.785156 280.480469 186.140625 281.144531 C 183.664062 282.140625 180.453125 284.050781 177.675781 286.175781 C 176.726562 286.902344 175.21875 287.878906 174.328125 288.34375 C 173.4375 288.808594 171.453125 290.257812 169.921875 291.558594 C 168.390625 292.863281 166.304688 294.171875 165.285156 294.46875 C 164.261719 294.765625 162.511719 295.804688 161.390625 296.773438 C 160.265625 297.742188 159.183594 298.539062 158.972656 298.539062 C 158.765625 298.539062 157.554688 299.453125 156.296875 300.574219 C 154.792969 301.90625 152.980469 302.949219 151.035156 303.597656 C 148.378906 304.480469 147.898438 304.839844 146.46875 307.011719 C 145.589844 308.34375 144.160156 309.855469 143.289062 310.363281 C 142.414062 310.875 140.476562 312.492188 138.976562 313.960938 C 137.476562 315.429688 135.476562 317.023438 134.53125 317.507812 C 133.582031 317.992188 131.914062 319.449219 130.816406 320.746094 C 129.722656 322.046875 127.902344 323.648438 126.777344 324.308594 C 125.652344 324.96875 124.308594 326.1875 123.796875 327.019531 C 123.285156 327.847656 121.824219 329.09375 120.550781 329.789062 C 119.277344 330.480469 115.734375 333.523438 112.679688 336.546875 C 108.054688 341.132812 106.835938 342.097656 105.347656 342.347656 C 103.765625 342.613281 103.449219 342.90625 102.515625 344.9375 C 101.710938 346.679688 100.949219 347.523438 99.28125 348.484375 C 98.082031 349.179688 96.902344 350.066406 96.664062 350.464844 C 96.429688 350.859375 94.417969 353.085938 92.203125 355.410156 C 89.988281 357.730469 87.367188 360.65625 86.375 361.90625 C 85.382812 363.15625 83.574219 365.097656 82.351562 366.222656 C 81.125 367.34375 79.492188 369.222656 78.710938 370.390625 C 77.9375 371.5625 76.710938 372.984375 76 373.554688 C 75.226562 374.167969 74.582031 375.246094 74.402344 376.207031 C 73.996094 378.417969 72.066406 380.5625 69.527344 381.648438 C 68.359375 382.144531 66.890625 383.046875 66.253906 383.65625 C 64.777344 385.0625 62.472656 386.023438 59.527344 386.453125 C 58.253906 386.640625 56.058594 387.40625 54.65625 388.15625 C 52.628906 389.238281 51.726562 389.464844 50.25 389.261719 C 45.503906 388.613281 36.585938 388.074219 34.652344 388.320312 C 33.296875 388.492188 31.605469 388.324219 30.046875 387.859375 C 28.691406 387.460938 26.921875 387.128906 26.109375 387.128906 C 25.289062 387.128906 23.148438 386.386719 21.332031 385.480469 C 18.839844 384.230469 17.769531 383.386719 16.953125 382.015625 C 16.351562 381.015625 15.023438 379.585938 13.992188 378.839844 C 11.972656 377.375 10.609375 375.433594 9.609375 372.585938 C 9.214844 371.484375 8.125 370.082031 6.75 368.933594 C 5.523438 367.90625 4.25 366.519531 3.910156 365.851562 C 2.917969 363.875 2.582031 355.351562 3.386719 352.34375 C 4 350.054688 3.984375 349.554688 3.238281 347.371094 C 2.613281 345.398438 2.582031 344.621094 3.003906 343.222656 C 3.589844 341.34375 3.238281 340.539062 1.675781 340.039062 C 0.0664062 339.527344 0.40625 338.867188 5.425781 332.628906 C 6.445312 331.355469 7.808594 329.539062 8.441406 328.589844 C 9.070312 327.644531 10.511719 326.183594 11.640625 325.34375 C 12.765625 324.503906 14.058594 323.207031 14.507812 322.457031 C 14.960938 321.707031 16.824219 319.515625 18.660156 317.585938 C 20.496094 315.65625 22.4375 313.136719 22.976562 311.988281 C 23.515625 310.839844 24.640625 308.921875 25.476562 307.722656 C 26.3125 306.523438 27.414062 304.855469 27.925781 304.011719 C 28.4375 303.171875 29.585938 302.121094 30.476562 301.679688 C 32.421875 300.714844 33.4375 299.539062 34.984375 296.457031 C 36.492188 293.445312 43.558594 285.617188 48.917969 281.011719 C 50.792969 279.40625 52.296875 277.582031 53.296875 275.707031 C 54.449219 273.550781 55.367188 272.507812 57.0625 271.453125 C 58.4375 270.597656 59.65625 269.375 60.210938 268.289062 C 61.175781 266.398438 63.523438 264.46875 66.472656 263.136719 C 67.640625 262.609375 68.621094 261.703125 69.210938 260.605469 C 69.722656 259.667969 71.441406 257.921875 73.042969 256.730469 C 74.640625 255.535156 77.3125 253.289062 78.972656 251.734375 C 80.632812 250.179688 82.179688 248.910156 82.40625 248.910156 C 82.625 248.910156 83.441406 247.8125 84.21875 246.472656 C 85.808594 243.699219 88.371094 241.117188 92.394531 238.222656 C 94.902344 236.421875 98.710938 233.296875 104.6875 228.140625 C 105.839844 227.152344 107.609375 225.746094 108.628906 225.015625 C 109.652344 224.285156 111.214844 223.007812 112.109375 222.175781 C 115.445312 219.074219 120.652344 215.621094 122.90625 215.015625 C 124.292969 214.640625 124.96875 214.054688 126.042969 212.308594 C 127.050781 210.65625 128.113281 209.703125 130.089844 208.648438 C 131.5625 207.863281 133.640625 206.394531 134.707031 205.378906 C 135.773438 204.367188 137.277344 203.398438 138.054688 203.226562 C 138.828125 203.058594 139.902344 202.359375 140.441406 201.679688 C 142.328125 199.277344 147.644531 195.441406 152.230469 193.164062 C 154.78125 191.898438 158.121094 189.941406 159.652344 188.808594 C 163.046875 186.300781 165.753906 184.921875 167.328125 184.910156 C 168.089844 184.902344 169.160156 184.234375 170.339844 183.023438 C 171.597656 181.742188 172.9375 180.925781 174.589844 180.445312 C 176.425781 179.914062 177.226562 179.378906 177.941406 178.226562 C 178.480469 177.347656 180.300781 175.855469 182.253906 174.683594 C 185.039062 173.011719 186.125 172.625 188.488281 172.464844 C 190.882812 172.304688 191.554688 172.058594 192.597656 170.972656 C 193.402344 170.140625 195.878906 168.882812 199.476562 167.492188 C 207.140625 164.527344 211.796875 162.289062 213.457031 160.765625 C 216.003906 158.429688 226.320312 154.75 230.3125 154.75 C 231.117188 154.75 232.28125 154.269531 233.070312 153.605469 C 235.425781 151.621094 241.054688 149.183594 243.277344 149.183594 C 245.582031 149.183594 246.585938 148.738281 249.148438 146.554688 C 251.492188 144.5625 253.925781 143.886719 256.667969 144.46875 C 259.566406 145.085938 264.007812 144.019531 265.871094 142.257812 C 268.53125 139.742188 269.921875 139.332031 274.636719 139.683594 C 279.425781 140.042969 280.671875 139.683594 284.019531 136.964844 C 285.597656 135.6875 286.472656 135.355469 288.976562 135.097656 C 290.648438 134.925781 293.441406 134.242188 295.179688 133.574219 C 297.347656 132.738281 299.789062 132.246094 302.976562 131.996094 C 305.527344 131.792969 308.390625 131.300781 309.339844 130.902344 C 310.289062 130.5 311.921875 130.167969 312.972656 130.167969 C 314.023438 130.167969 316.222656 129.8125 317.855469 129.375 C 320.355469 128.710938 321.164062 128.675781 322.925781 129.144531 C 326.074219 129.984375 327.179688 129.851562 331.25 128.121094 C 334.753906 126.632812 335.398438 126.519531 341.9375 126.230469 C 346.359375 126.035156 349.609375 125.660156 350.859375 125.203125 C 352.160156 124.730469 353.472656 124.585938 354.714844 124.785156 C 355.765625 124.953125 357.402344 124.84375 358.390625 124.550781 C 359.707031 124.15625 361.441406 124.144531 364.972656 124.507812 C 369.742188 124.992188 373.183594 124.792969 380.4375 123.617188 C 383.421875 123.132812 389.054688 122.738281 394.8125 122.609375 C 396.113281 122.582031 398.597656 123.03125 400.476562 123.640625 C 403.691406 124.683594 403.894531 124.695312 405.734375 123.960938 C 408.414062 122.886719 412.75 122.523438 415.59375 123.132812 C 416.925781 123.417969 419.675781 123.878906 421.71875 124.164062 C 424.90625 124.601562 425.683594 124.566406 427.242188 123.90625 C 429.339844 123.023438 431.359375 123.257812 434.214844 124.714844 C 435.851562 125.550781 436.335938 125.605469 438.070312 125.140625 C 440.769531 124.417969 442.417969 124.46875 446.765625 125.417969 C 449.246094 125.960938 452.699219 126.242188 457.199219 126.277344 C 461.070312 126.308594 464.480469 126.550781 465.230469 126.859375 C 465.949219 127.152344 467.050781 127.390625 467.679688 127.390625 C 468.308594 127.390625 470.0625 127.914062 471.578125 128.550781 C 473.09375 129.1875 475.078125 129.710938 475.988281 129.710938 C 476.890625 129.710938 478.414062 130.039062 479.363281 130.4375 C 480.589844 130.953125 483.027344 131.210938 487.707031 131.316406 C 493.726562 131.449219 494.546875 131.574219 496.796875 132.675781 C 498.277344 133.402344 500.089844 133.894531 501.308594 133.90625 C 502.4375 133.917969 504.1875 134.253906 505.207031 134.652344 C 506.230469 135.050781 509.671875 135.648438 512.859375 135.980469 C 516.046875 136.3125 519.457031 136.925781 520.429688 137.34375 C 521.410156 137.761719 522.574219 137.984375 523.027344 137.839844 C 524.726562 137.300781 530.695312 138.519531 533.5 139.976562 C 535.191406 140.855469 537.421875 141.566406 539.179688 141.785156 C 541.222656 142.039062 542.714844 142.566406 544.246094 143.582031 C 545.78125 144.597656 546.96875 145.019531 548.308594 145.019531 C 549.34375 145.019531 550.824219 145.40625 551.59375 145.871094 C 552.351562 146.339844 554.179688 146.84375 555.640625 146.992188 C 557.144531 147.148438 559.257812 147.785156 560.507812 148.457031 C 561.722656 149.113281 565.019531 150.261719 567.824219 151.015625 C 573.046875 152.417969 577.414062 153.851562 579.882812 154.976562 C 580.644531 155.324219 582.054688 155.753906 583.011719 155.929688 C 583.960938 156.105469 585.949219 156.976562 587.417969 157.863281 C 588.886719 158.75 591.96875 160.097656 594.265625 160.855469 C 596.5625 161.617188 599.132812 162.648438 599.984375 163.144531 C 600.832031 163.640625 602.488281 164.261719 603.660156 164.527344 C 604.828125 164.789062 606.632812 165.621094 607.65625 166.375 C 608.679688 167.132812 610.109375 167.746094 610.835938 167.746094 C 613.347656 167.746094 615.460938 168.976562 620.871094 173.59375 C 622.183594 174.714844 623.167969 175.101562 625.339844 175.34375 C 627.429688 175.578125 628.707031 176.054688 630.476562 177.265625 C 631.777344 178.152344 633.125 178.882812 633.492188 178.890625 C 634.835938 178.902344 638.304688 180.808594 640.21875 182.570312 C 642.527344 184.703125 645.984375 186.550781 648.558594 187.027344 C 649.945312 187.285156 651.183594 188.125 653.632812 190.457031 C 656.894531 193.558594 662.769531 196.898438 666.28125 197.648438 C 667.117188 197.828125 668.367188 198.597656 669.066406 199.359375 C 671.804688 202.359375 674.132812 204.296875 678.21875 206.988281 C 679.238281 207.660156 680.699219 208.800781 681.464844 209.523438 C 682.226562 210.242188 684.105469 211.386719 685.628906 212.058594 C 687.152344 212.730469 689.15625 213.941406 690.082031 214.75 C 693.3125 217.566406 695.308594 219.011719 697.882812 220.390625 C 699.78125 221.414062 700.765625 222.316406 701.570312 223.777344 C 702.167969 224.878906 703.472656 226.285156 704.460938 226.910156 C 705.453125 227.53125 706.605469 228.574219 707.03125 229.226562 C 707.453125 229.875 708.558594 230.722656 709.480469 231.105469 C 710.398438 231.488281 711.878906 232.480469 712.773438 233.3125 C 713.664062 234.144531 715.179688 235.398438 716.136719 236.097656 C 717.101562 236.796875 718.183594 237.960938 718.558594 238.683594 C 718.9375 239.40625 720.339844 240.628906 721.6875 241.394531 C 725.105469 243.347656 727.949219 245.914062 729.027344 248.03125 C 730.269531 250.472656 735.457031 255.648438 737.515625 256.511719 C 738.742188 257.023438 739.757812 258.082031 741.308594 260.480469 C 742.476562 262.277344 743.847656 263.972656 744.363281 264.25 C 744.875 264.527344 745.863281 265.628906 746.546875 266.699219 C 748.878906 270.34375 750.414062 272.054688 752.605469 273.464844 C 754.75 274.835938 756.4375 277.183594 756.992188 279.546875 C 757.167969 280.257812 758.824219 282.039062 761.222656 284.070312 C 764.398438 286.761719 765.453125 287.992188 766.578125 290.316406 C 768.957031 295.238281 770.898438 298.019531 772.992188 299.503906 C 774.105469 300.289062 775.351562 301.566406 775.777344 302.347656 C 777.148438 304.859375 780.601562 309.851562 782.398438 311.917969 C 783.640625 313.347656 784.304688 314.664062 784.679688 316.46875 C 785.015625 318.0625 785.703125 319.578125 786.546875 320.535156 C 787.277344 321.375 788.28125 322.980469 788.765625 324.101562 C 789.25 325.226562 790.066406 326.515625 790.570312 326.96875 C 791.535156 327.828125 792.765625 330.394531 793.191406 332.40625 C 793.339844 333.042969 794.699219 335.226562 796.246094 337.257812 C 798.984375 340.855469 799.964844 343.003906 799.96875 345.417969 C 799.96875 346.160156 800.582031 347.1875 801.585938 348.167969 C 802.523438 349.074219 804.390625 352.140625 806.039062 355.476562 L 808.875 361.21875 L 809.375 367.613281 C 809.988281 375.480469 809.621094 377.15625 806.535156 380.664062 C 805.351562 382.015625 803.855469 383.996094 803.21875 385.070312 C 801.453125 388.035156 798.9375 391.40625 797.707031 392.457031 C 797.09375 392.976562 795.640625 394.257812 794.460938 395.308594 C 791.429688 398.003906 790.507812 398.378906 786.550781 398.523438 C 784.621094 398.597656 782.207031 398.976562 781.183594 399.371094 C 779.398438 400.058594 778.128906 400.125 772.605469 399.808594 Z M 769.652344 378.777344 C 769.8125 378.523438 769.652344 378.3125 769.183594 378.3125 C 768.777344 378.3125 768.558594 378.523438 768.71875 378.777344 C 768.878906 379.03125 769.082031 379.242188 769.183594 379.242188 C 769.332031 379.242188 769.492188 379.03125 769.652344 378.777344 Z M 42.597656 370.148438 C 44 369.980469 46.296875 369.257812 47.699219 368.542969 C 49.101562 367.828125 50.773438 367.054688 51.40625 366.820312 L 52.5625 366.394531 L 50.941406 365.570312 C 48.6875 364.429688 47.738281 363.515625 46.707031 361.488281 C 45.933594 359.972656 45.699219 359.804688 44.898438 360.230469 C 44.402344 360.5 43.480469 361.722656 42.855469 362.949219 C 41.703125 365.210938 40.515625 366.285156 38.421875 366.949219 C 36.84375 367.449219 33.632812 369.507812 33.949219 369.820312 C 34.445312 370.324219 37.292969 370.820312 38.652344 370.644531 C 39.414062 370.539062 41.191406 370.320312 42.59375 370.152344 Z M 70.285156 353.152344 C 70.808594 352.578125 72.085938 350.621094 73.128906 348.808594 C 74.183594 346.996094 75.5625 345.164062 76.210938 344.738281 C 76.851562 344.316406 77.378906 343.710938 77.378906 343.398438 C 77.378906 342.453125 74.785156 339.652344 74.242188 339.984375 C 73.964844 340.15625 73.410156 341.457031 72.988281 342.875 C 72.503906 344.519531 71.597656 346.15625 70.460938 347.390625 C 69.058594 348.917969 68.613281 349.835938 68.351562 351.757812 C 67.972656 354.53125 68.617188 354.992188 70.285156 353.152344 Z M 783.800781 352.199219 C 783.800781 351.53125 782.894531 350.484375 782.316406 350.484375 C 782.109375 350.484375 781.949219 351.003906 781.949219 351.644531 C 781.949219 352.492188 782.199219 352.804688 782.871094 352.804688 C 783.382812 352.804688 783.792969 352.53125 783.792969 352.199219 Z M 766.058594 324.707031 C 767.503906 324.410156 767.371094 323.601562 765.472656 321.113281 C 763.746094 318.851562 762.929688 318.710938 762.101562 320.535156 C 761.839844 321.125 760.960938 322.351562 760.167969 323.257812 C 758.71875 324.894531 758.71875 324.902344 759.785156 325.113281 C 760.851562 325.320312 764.113281 325.109375 766.066406 324.707031 Z M 107.082031 315.859375 C 108.824219 314.699219 112.175781 311.390625 112.160156 310.84375 C 112.160156 310.242188 109.058594 306.882812 108.519531 306.882812 C 108.300781 306.882812 107.597656 307.667969 106.953125 308.621094 C 106.105469 309.878906 105.710938 311.230469 105.523438 313.492188 C 105.375 315.214844 105.375 316.625 105.667969 316.625 C 105.859375 316.625 106.53125 316.28125 107.160156 315.859375 Z M 749.785156 303.375 C 750.265625 302.109375 749.15625 301.503906 748.105469 302.457031 C 747.59375 302.917969 747.289062 303.476562 747.421875 303.699219 C 747.84375 304.375 749.480469 304.144531 749.777344 303.375 Z M 683.515625 295.050781 C 684.320312 293.898438 684.992188 292.804688 685 292.617188 C 685 292.425781 684.429688 292.246094 683.726562 292.210938 C 683.027344 292.183594 681.09375 292.011719 679.4375 291.839844 C 677.777344 291.667969 675.796875 291.707031 675.035156 291.925781 L 673.648438 292.332031 L 675.035156 293.222656 C 675.796875 293.710938 677.324219 294.792969 678.429688 295.625 C 679.539062 296.457031 680.796875 297.136719 681.238281 297.136719 C 681.675781 297.136719 682.707031 296.195312 683.515625 295.046875 Z M 140.960938 288.8125 C 142.5 286.316406 143.53125 285.503906 146.265625 284.632812 C 147.289062 284.308594 148.316406 283.859375 148.554688 283.640625 C 149.125 283.117188 146.597656 280.445312 145.539062 280.445312 C 144.542969 280.445312 140.96875 285.140625 140.398438 287.203125 C 140.164062 288.0625 139.449219 289.375 138.824219 290.121094 C 137.4375 291.773438 137.363281 292.238281 138.636719 291.566406 C 139.160156 291.285156 140.207031 290.046875 140.964844 288.8125 Z M 663.667969 279.945312 C 663.667969 278.574219 663.667969 278.53125 662.160156 278.839844 C 660.105469 279.277344 660.027344 279.441406 661.355469 280.464844 C 663.019531 281.742188 663.667969 281.59375 663.667969 279.945312 Z M 107.464844 265.648438 C 107.773438 264.269531 107.917969 263.050781 107.816406 262.9375 C 107.363281 262.488281 106.152344 265.664062 106.152344 267.296875 C 106.152344 269.582031 106.777344 268.792969 107.480469 265.648438 Z M 712.140625 268.148438 C 713.410156 268.101562 714.875 267.835938 715.386719 267.539062 C 715.898438 267.238281 716.886719 266.789062 717.589844 266.542969 C 718.289062 266.292969 718.859375 265.921875 718.859375 265.710938 C 718.859375 265.503906 718.289062 264.648438 717.589844 263.808594 C 716.316406 262.289062 716.304688 262.285156 714.457031 262.925781 C 712.703125 263.535156 707.191406 267.386719 706.519531 268.472656 C 706.300781 268.828125 706.738281 268.867188 708.011719 268.589844 C 709.007812 268.378906 710.863281 268.179688 712.140625 268.140625 Z M 636.550781 262.609375 C 637.222656 261.726562 637.644531 260.785156 637.46875 260.519531 C 636.914062 259.628906 634.089844 259.988281 632.78125 261.113281 L 631.523438 262.1875 L 632.808594 263.199219 C 634.550781 264.570312 635.109375 264.480469 636.539062 262.609375 Z M 182.285156 261.171875 C 184.242188 260.519531 185.964844 259.667969 186.117188 259.273438 C 186.261719 258.882812 185.96875 257.980469 185.472656 257.273438 C 184.960938 256.5625 184.347656 255.433594 184.085938 254.761719 C 183.457031 253.113281 182.558594 253.230469 181.09375 255.144531 C 179.09375 257.769531 177.363281 262.355469 178.378906 262.355469 C 178.570312 262.355469 180.324219 261.820312 182.28125 261.171875 Z M 111.191406 258.015625 C 111.484375 257.667969 112.125 255.792969 112.621094 253.851562 C 113.570312 250.152344 114.160156 248.734375 115.300781 247.425781 C 116.6875 245.824219 115.578125 245.707031 113.441406 247.230469 C 112.226562 248.097656 110.5 248.941406 109.613281 249.109375 C 107.703125 249.464844 107.578125 250.191406 108.929688 253.144531 C 109.441406 254.257812 109.847656 255.949219 109.847656 256.90625 C 109.859375 258.71875 110.300781 259.085938 111.191406 258.015625 Z M 693.933594 248.027344 C 695.65625 247.1875 697.0625 246.335938 697.0625 246.132812 C 697.0625 245.933594 695.574219 244.441406 693.757812 242.816406 C 691.941406 241.191406 688.757812 238.164062 686.683594 236.085938 C 684.613281 234.011719 682.128906 231.984375 681.164062 231.582031 C 680.199219 231.179688 677.75 229.171875 675.71875 227.121094 C 673.6875 225.070312 671.738281 223.394531 671.382812 223.394531 C 670.960938 223.394531 670.640625 224.203125 670.433594 225.730469 C 670.085938 228.429688 667.71875 231.484375 665.613281 231.972656 C 664.167969 232.304688 660.578125 235.296875 661.050781 235.769531 C 661.226562 235.945312 662.453125 235.800781 663.792969 235.445312 C 665.125 235.089844 667.578125 234.761719 669.234375 234.710938 C 670.894531 234.667969 673.96875 234.472656 676.070312 234.285156 C 680.9375 233.851562 681.800781 234.210938 685.355469 238.183594 C 689.4375 242.742188 690.105469 244.007812 690.105469 247.203125 C 690.105469 248.691406 690.265625 249.832031 690.457031 249.734375 C 690.644531 249.632812 692.210938 248.867188 693.933594 248.027344 Z M 600.109375 241.964844 C 600.488281 241.726562 600.679688 241.414062 600.519531 241.265625 C 600.152344 240.902344 598.726562 241.480469 598.726562 241.996094 C 598.726562 242.523438 599.238281 242.511719 600.097656 241.96875 Z M 150.890625 231.734375 C 151.738281 230.074219 153.003906 226.875 153.703125 224.628906 C 154.828125 221.011719 155.316406 220.171875 157.914062 217.339844 C 160.695312 214.308594 161.664062 212.542969 161.242188 211.277344 C 161.097656 210.957031 160.277344 211.566406 159.226562 212.703125 C 157.957031 214.078125 155.824219 215.46875 152.292969 217.214844 C 147.496094 219.589844 144.671875 221.648438 143.660156 223.503906 C 143.339844 224.078125 143.5 224.863281 144.21875 226.261719 C 145.035156 227.851562 145.167969 228.691406 144.933594 230.789062 C 144.640625 233.484375 144.027344 237.035156 143.46875 239.394531 C 143.164062 240.683594 143.324219 240.558594 146.246094 237.773438 C 148.238281 235.84375 149.910156 233.667969 150.894531 231.734375 Z M 240.765625 230.371094 C 241.714844 230.070312 242.621094 229.625 242.769531 229.378906 C 243.164062 228.742188 241.164062 225.710938 240.351562 225.710938 C 239.109375 225.710938 235.238281 229.394531 234.503906 231.269531 C 234.109375 232.261719 233.902344 233.191406 234.050781 233.332031 C 234.195312 233.476562 235.363281 232.984375 236.667969 232.253906 C 237.96875 231.523438 239.816406 230.675781 240.765625 230.371094 Z M 557.335938 226.429688 C 556.136719 225.273438 555.34375 223.792969 554.445312 221.097656 L 553.203125 217.363281 L 551.5 217.375 C 550.566406 217.378906 548.339844 217.757812 546.554688 218.214844 C 542.367188 219.285156 541.976562 220.300781 545.472656 221.046875 C 548.453125 221.6875 552.917969 224.121094 555.230469 226.367188 C 556.167969 227.285156 557.40625 228.03125 557.964844 228.03125 C 558.902344 228.03125 558.84375 227.886719 557.339844 226.429688 Z M 275.042969 219.113281 C 275.90625 218.476562 278.011719 217.175781 279.734375 216.226562 C 282.578125 214.660156 282.863281 214.367188 282.863281 213.035156 C 282.863281 212.226562 282.4375 210.871094 281.925781 210.023438 L 280.992188 208.480469 L 278.804688 209.738281 C 275.609375 211.578125 275.144531 212.09375 274.550781 214.449219 C 274.039062 216.476562 272.371094 218.578125 270.109375 220.046875 C 269.308594 220.566406 269.46875 220.617188 271.351562 220.457031 C 272.695312 220.339844 274.089844 219.839844 275.0625 219.113281 Z M 639.855469 213.191406 C 642.105469 211.988281 642.953125 211.796875 646.039062 211.796875 C 648.007812 211.796875 650.285156 212.03125 651.097656 212.316406 C 653.03125 212.988281 653.398438 212.554688 652.238281 210.980469 C 651.59375 210.101562 650.203125 209.332031 647.714844 208.476562 C 645.738281 207.796875 643.757812 206.910156 643.308594 206.503906 C 642.007812 205.328125 641.183594 205.636719 640.304688 207.625 C 639.792969 208.769531 638.699219 210.019531 637.4375 210.890625 C 635.644531 212.125 634.453125 213.492188 634.453125 214.320312 C 634.453125 215.0625 637.566406 214.40625 639.859375 213.1875 Z M 188.65625 210.988281 C 189.734375 208.886719 193.753906 203.777344 195.933594 201.734375 C 196.8125 200.917969 197.519531 199.8125 197.519531 199.28125 C 197.519531 197.972656 199.03125 195.082031 200.316406 193.941406 C 201.5 192.894531 203.621094 188.640625 203.261719 188.058594 C 203.015625 187.660156 199.84375 188.011719 198.171875 188.632812 C 197.644531 188.832031 196.179688 189.878906 194.925781 190.964844 C 193.667969 192.046875 191.761719 193.328125 190.675781 193.808594 C 189.597656 194.285156 188.703125 194.847656 188.703125 195.046875 C 188.703125 195.25 188.9375 197.128906 189.214844 199.21875 C 189.84375 203.925781 189.523438 205.796875 187.703125 207.867188 C 186.492188 209.246094 186.328125 209.726562 186.59375 211.105469 C 186.988281 213.1875 187.542969 213.152344 188.660156 210.988281 Z M 315.636719 206.445312 C 315.78125 206.050781 315.78125 205.601562 315.636719 205.449219 C 315.300781 205.121094 313.945312 206.167969 313.945312 206.753906 C 313.945312 207.453125 315.347656 207.199219 315.640625 206.445312 Z M 447.820312 197.535156 C 447.832031 195.558594 447.96875 193.523438 448.027344 193.011719 C 448.316406 191.542969 446.195312 192.0625 444.277344 193.933594 C 443.386719 194.804688 441.433594 196.054688 439.945312 196.710938 C 438.371094 197.40625 437.320312 198.140625 437.429688 198.472656 C 437.574219 198.785156 439.0625 199.308594 440.828125 199.632812 C 442.59375 199.957031 444.667969 200.40625 445.429688 200.628906 C 447.792969 201.320312 447.792969 201.320312 447.816406 197.535156 Z M 618.792969 194.101562 C 619.757812 193.621094 620.527344 193.074219 620.523438 192.886719 C 620.523438 192.058594 619.648438 191.339844 618.183594 190.917969 C 615.382812 190.113281 615.109375 190.257812 614.839844 192.664062 C 614.691406 193.875 614.691406 195.03125 614.839844 195.234375 C 615.117188 195.675781 616.457031 195.292969 618.8125 194.105469 Z M 588.253906 184.6875 C 591.894531 183.988281 595.949219 182.457031 595.949219 181.773438 C 595.949219 181.234375 593.863281 180.058594 590.84375 178.898438 C 587.941406 177.78125 588.46875 177.472656 585.5 182.042969 C 583.085938 185.757812 583.011719 185.6875 588.253906 184.6875 Z M 227.882812 179.519531 C 228.324219 178.855469 229.554688 177.925781 230.632812 177.449219 C 232.675781 176.542969 233.667969 175.648438 234.585938 173.871094 C 235.523438 172.070312 234.734375 171.863281 232.167969 173.257812 C 230.835938 173.992188 228.757812 174.734375 227.542969 174.902344 C 226.257812 175.082031 224.804688 175.664062 224.078125 176.289062 L 222.820312 177.367188 L 224.429688 178.976562 C 226.414062 180.964844 226.882812 181.039062 227.878906 179.515625 Z M 552.828125 174.375 C 554.816406 174.609375 555.132812 174.507812 556.347656 173.230469 C 558.089844 171.398438 559.515625 170.679688 562.230469 170.273438 C 565.011719 169.859375 564.832031 169.113281 561.777344 168.425781 C 560.492188 168.136719 557.722656 166.90625 555.621094 165.695312 C 553.515625 164.480469 551.707031 163.578125 551.597656 163.683594 C 551.449219 163.789062 551.085938 165.109375 550.691406 166.605469 C 550.296875 168.105469 549.699219 169.648438 549.347656 170.039062 C 548.601562 170.867188 546.3125 175.121094 546.3125 175.664062 C 546.3125 175.867188 547.289062 175.605469 548.476562 175.074219 C 550.085938 174.359375 551.195312 174.183594 552.824219 174.375 Z M 261.738281 172.847656 C 262.558594 172.34375 263.453125 171.425781 263.734375 170.804688 C 264.011719 170.1875 266.34375 167.964844 268.902344 165.871094 C 273.027344 162.492188 274.582031 160.691406 273.929688 160.035156 C 273.78125 159.917969 272.597656 160.351562 271.21875 160.996094 C 269.378906 161.851562 267.933594 162.160156 265.769531 162.164062 C 263.996094 162.164062 262.179688 162.472656 261.199219 162.9375 C 259.621094 163.6875 259.585938 163.765625 259.945312 165.605469 C 260.410156 168.0625 260.410156 169.871094 259.945312 172.023438 C 259.503906 174.019531 259.710938 174.105469 261.742188 172.847656 Z M 334.449219 163.816406 C 335.328125 163.445312 336.65625 162.351562 337.390625 161.382812 C 338.121094 160.410156 339.210938 159.230469 339.804688 158.753906 C 340.40625 158.28125 341.320312 156.964844 341.851562 155.832031 C 343.121094 153.117188 344.316406 152.261719 354.757812 146.570312 C 356.53125 145.601562 360.175781 145.769531 362.011719 146.902344 C 364.375 148.363281 366.054688 151.5625 366.105469 154.703125 C 366.105469 158.023438 366.878906 158.085938 369.207031 154.980469 C 370.507812 153.246094 371.5625 152.40625 373.398438 151.660156 C 375.488281 150.808594 376.074219 150.285156 377.265625 148.179688 C 378.609375 145.816406 379.066406 145.453125 383.050781 143.605469 C 383.429688 143.429688 383.808594 142.992188 383.867188 142.636719 C 384.015625 142.113281 382.976562 142.003906 378.535156 142.058594 C 375.53125 142.101562 371.71875 142.375 370.058594 142.683594 C 368.398438 142.984375 363.582031 143.3125 359.351562 143.40625 C 355.125 143.496094 351.089844 143.796875 350.394531 144.0625 C 349.691406 144.328125 348.363281 144.542969 347.429688 144.542969 C 346.496094 144.542969 344.894531 144.84375 343.867188 145.207031 C 342.84375 145.574219 341.421875 145.992188 340.71875 146.144531 C 339.582031 146.386719 339.449219 146.617188 339.449219 148.320312 C 339.449219 149.503906 338.835938 151.589844 337.824219 153.820312 C 336.933594 155.796875 336.203125 157.644531 336.203125 157.921875 C 336.203125 158.199219 335.265625 159.484375 334.113281 160.777344 C 332.171875 162.96875 331.480469 164.488281 332.433594 164.488281 C 332.652344 164.488281 333.558594 164.1875 334.449219 163.816406 Z M 304.445312 156.722656 C 307.648438 153.472656 310.53125 149.644531 309.777344 149.644531 C 309.5 149.644531 308.183594 150.199219 306.851562 150.878906 C 305.433594 151.601562 303.277344 152.226562 301.648438 152.386719 C 299.015625 152.644531 298.871094 152.722656 298.996094 153.820312 C 298.996094 154.457031 299.246094 156.230469 299.375 157.761719 C 299.742188 161.765625 299.914062 162.121094 300.859375 160.730469 C 301.296875 160.089844 302.90625 158.289062 304.449219 156.722656 Z M 523.589844 157.511719 C 523.589844 156.621094 522.074219 155.871094 521.273438 156.367188 C 520.617188 156.773438 520.691406 157.347656 521.523438 158.171875 C 522.398438 159.042969 523.597656 158.660156 523.597656 157.511719 Z M 436.523438 149.125 C 438.320312 148.222656 442.882812 143.882812 442.882812 143.078125 C 442.882812 142.042969 435.636719 141.796875 432.558594 142.722656 L 430.351562 143.386719 L 431.476562 145.035156 C 432.089844 145.941406 432.925781 147.457031 433.316406 148.398438 C 433.710938 149.335938 434.148438 150.109375 434.308594 150.109375 C 434.453125 150.109375 435.460938 149.664062 436.535156 149.125 Z M 415.179688 146.179688 C 416.390625 145.808594 418.566406 144.664062 420.007812 143.632812 C 421.453125 142.601562 423 141.757812 423.449219 141.757812 C 423.902344 141.757812 424.398438 141.550781 424.5625 141.292969 C 424.957031 140.652344 416.1875 140.6875 414.980469 141.339844 C 414.121094 141.804688 413.300781 143.289062 412.527344 145.824219 C 412.144531 147.050781 412.277344 147.066406 415.175781 146.1875 Z M 415.179688 146.179688 " fill-opacity="1" fill-rule="nonzero"/></g></svg>